<?xml version="1.0" encoding="UTF-8"?>
<svg width="802px" height="557px" viewBox="0 0 802 557" version="1.1" xmlns="http://www.w3.org/2000/svg" xmlns:xlink="http://www.w3.org/1999/xlink">
    <!-- Generator: Sketch 48.2 (47327) - http://www.bohemiancoding.com/sketch -->
    <title>发展历程</title>
    <desc>Created with Sketch.</desc>
    <defs>
        <path d="M696.937624,0.943281913 C710.26868,1.29521692 244.280867,205.811266 298.194466,316.070408 C352.108066,426.329549 667.399908,510 797.763864,510 C801.494205,510 537.701283,510 6.38509867,510 C-12.5854072,425.957966 14.9804458,346.344055 89.0826578,271.158267 C200.235976,158.379586 529.355884,41.5796393 696.937624,0.943281913 Z" id="path-1"></path>
        <path d="M-1.21204928,510.735 L-4.711,442.033 L-4.711,448.672 L0.599,448.672 L5.91,448.672 L5.91,442.033 L13.543,439.378 L21.177,442.033 L21.177,479.347 L23.728,479.347 L27.379,475.151 L31.028,479.347 L34.568,479.347 L34.568,461.163 L42.758,457.7 L54.727,461.793 L54.727,505.727 L59.589,501.758 L59.589,498.136 L58.659,498.895 L58.659,497.371 L65.086,492.128 L71.515,497.371 L71.515,498.895 L70.584,498.136 L70.584,501.758 L71.877,502.813 L71.877,422.904 L76.803,422.904 L76.803,420.313 L71.877,420.313 L71.877,418.238 L94.696,418.238 L94.696,420.313 L89.769,420.313 L89.769,422.904 L94.696,422.904 L94.696,466.455 L116.142,466.455 L116.142,499.165 L119.064,499.165 L119.064,481.926 L126.952,472.723 L134.635,481.687 L142.318,472.723 L150.206,481.926 L150.206,484.847 L161.231,484.847 L161.231,494.555 L169.055,494.555 L169.055,484.847 L181.596,484.847 L181.596,494.555 L189.914,494.555 L189.914,492.128 L197.956,492.128 L199.023,459.423 L197.189,459.423 L194.421,445.937 L199.463,445.937 L200.833,404.038 L197.506,394.624 L201.14,394.624 L201.697,377.59 L203.622,377.59 L203.622,366.393 L202.776,363.129 L203.622,358 L205.653,358 L205.653,363.129 L206.5,366.393 L205.653,377.59 L207.581,377.59 L208.138,394.624 L211.771,394.624 L209.838,404.038 L209.814,445.937 L214.855,445.937 L212.087,459.423 L210.254,459.423 L211.422,495.161 L215.139,492.128 L218.495,494.865 L218.495,471.274 L221.281,468.952 L221.281,466.166 L223.138,464.62 C223.138,464.001 224.22,460.441 228.089,460.441 C231.958,460.441 233.042,464.001 233.042,464.62 L234.898,466.166 L234.898,468.952 L237.685,471.274 L237.685,491.103 L249.733,491.103 L249.733,498.415 C252.306,487.825 252.859,479.698 252.859,479.698 L250.467,479.698 L249.612,469.834 L255.077,469.834 C256.443,458.912 256.356,449.629 256.356,449.629 L254.735,443.331 L257.297,443.331 L257.297,434.893 L257.297,430.177 L259.175,430.177 L259.175,415.781 L260.369,430.177 L262.248,430.177 L262.248,434.893 L262.248,443.331 L264.81,443.331 L264.81,449.629 C263.188,449.629 263.102,458.912 264.468,469.834 L269.932,469.834 L269.079,479.698 L266.688,479.698 C266.688,479.698 267.019,484.589 268.371,491.73 L281.848,491.73 L279.42,491.333 L279.42,487.693 L281.848,487.693 L281.848,480.612 L279.42,480.612 L279.42,476.971 L294.023,476.971 L294.665,473.852 C294.082,473.408 293.702,472.71 293.702,471.919 C293.702,470.578 294.788,469.492 296.129,469.492 C297.47,469.492 298.555,470.578 298.555,471.919 C298.555,472.71 298.176,473.408 297.592,473.852 L298.234,476.971 L304.748,476.971 L304.748,454.363 L320.681,444.905 L320.681,429.853 L324.357,429.853 L324.357,442.722 L324.357,453.752 L324.357,500.624 L330.624,500.624 L330.624,488.083 L329.411,485.251 L350.85,485.251 L350.85,487.219 L352.327,484.151 L349.637,484.151 L349.637,480.571 L352.327,480.571 L352.327,477.505 L349.637,477.505 L349.637,473.926 L352.327,473.926 L352.327,470.858 L349.637,470.858 L349.637,467.279 L352.327,467.279 L352.327,464.212 L349.637,464.212 L349.637,460.633 L357.203,460.633 L357.203,450.407 L367.888,450.407 L367.888,460.633 L375.454,460.633 L375.454,464.212 L372.764,464.212 L372.764,467.279 L375.454,467.279 L375.454,470.858 L372.764,470.858 L372.764,473.926 L375.454,473.926 L375.454,477.505 L372.764,477.505 L372.764,480.571 L375.454,480.571 L375.454,484.151 L372.764,484.151 L372.764,487.219 L375.454,487.219 L375.454,490.797 L372.764,490.797 L372.764,493.865 L379.198,493.629 L379.198,453.3 C379.198,449.198 385.762,440.991 398.891,439.351 L398.891,448.787 C398.891,448.787 402.993,450.43 405.045,452.07 L405.045,471.468 L419.038,471.468 L419.038,480.571 L425.731,480.571 C425.256,457.795 426.904,438.667 439.066,427.291 C452.551,439.906 453.11,462.045 452.181,488.122 L462.676,488.122 L462.676,465.563 L466.198,455.975 L466.198,449.59 L466.198,444.909 L466.198,442.68 L468.906,442.68 L468.906,444.909 L475.404,444.909 L475.404,442.68 L478.11,442.68 L478.11,444.909 L478.11,449.59 L478.11,455.975 L481.63,465.563 L481.63,487.936 L490.406,490.939 L490.406,487.777 L499.645,490.939 L499.645,487.777 L510.283,491.415 L539.008,510.735 L510.283,510.735 L264.875,510.735 L264.599,507.508 C263.908,504.409 262.474,500.187 259.773,500.187 C255.503,500.187 254.393,510.735 254.393,510.735 L252.063,510.735 L208.963,510.735 L204.639,501.378 L200.992,510.735 L57.2885,510.735 L54.988,510.735 L54.988,507.034 L54.727,510.735 L45.706,510.735 L-1.21204928,510.735 Z" id="path-3"></path>
        <polygon id="path-5" points="70 0 0 0 0 29 70 29 70 2.75387138e-14"></polygon>
        <polygon id="path-7" points="94 0 0 0 0 39 94 39 94 3.7034822e-14"></polygon>
    </defs>
    <g id="关于我们-发展历程" stroke="none" stroke-width="1" fill="none" fill-rule="evenodd" transform="translate(-344.000000, -512.000000)">
        <g id="Group-3" transform="translate(344.000000, 512.000000)">
            <g id="Group" transform="translate(5.000000, 0.000000)">
                <g id="Page-1" transform="translate(670.000000, 0.000000)">
                    <polygon id="Fill-1" fill="#3DC3BD" points="23 24.860484 29.0079776 47 114 0"></polygon>
                    <polygon id="Fill-2" fill="#3B9695" points="29.9511936 28.6433792 29 47 114 0"></polygon>
                    <polygon id="Fill-3" fill="#5ADCDB" points="114 0 0 18.4781922 22.5849278 25"></polygon>
                    <polygon id="Fill-4" fill="#5ADCDB" points="30 28.5384716 53.5413914 42 114 0"></polygon>
                </g>
                <g id="Page-1" transform="translate(0.000000, 46.000000)">
                    <g id="Clip-2">
                        <mask id="mask-2" fill="white">
                            <use xlink:href="#path-1"></use>
                        </mask>
                        <use id="Mask" fill="#DFF6F6" xlink:href="#path-1"></use>
                        <mask id="mask-4" fill="white">
                            <use xlink:href="#path-3"></use>
                        </mask>
                        <use fill="#FFFFFF" xlink:href="#path-3"></use>
                    </g>
                </g>
                <circle id="Oval-6" stroke="#FFFFFF" stroke-width="3" fill-opacity="0.650701993" fill="#0ABBB9" cx="450.5" cy="160.5" r="36.5"></circle>
                <circle id="Oval-6-Copy" stroke="#FFFFFF" stroke-width="3" fill-opacity="0.651805933" fill="#0ABBB9" cx="319.5" cy="277.5" r="36.5"></circle>
                <circle id="Oval-6-Copy-2" stroke="#FFFFFF" stroke-width="3" fill-opacity="0.648890399" fill="#0ABBB9" cx="371.5" cy="413.5" r="36.5"></circle>
                <circle id="Oval-6-Copy-3" stroke="#FFFFFF" stroke-width="3" fill-opacity="0.650985054" fill="#0ABBB9" cx="553.5" cy="501.5" r="36.5"></circle>
                <path d="M431.464,151.528 C433.12,151.528 434.488,152.008 435.568,152.968 C436.624,153.928 437.152,155.152 437.152,156.688 C437.152,158.176 436.576,159.52 435.472,160.744 C434.8,161.464 433.6,162.376 431.92,163.504 C430.168,164.656 429.112,165.664 428.728,166.528 L437.176,166.528 L437.176,169 L425.224,169 C425.224,167.248 425.776,165.736 426.928,164.44 C427.552,163.72 428.872,162.664 430.864,161.296 C431.968,160.528 432.736,159.88 433.216,159.376 C433.96,158.536 434.344,157.624 434.344,156.664 C434.344,155.728 434.08,155.032 433.6,154.576 C433.096,154.12 432.352,153.904 431.368,153.904 C430.312,153.904 429.52,154.264 428.992,154.984 C428.464,155.656 428.176,156.688 428.128,158.032 L425.32,158.032 C425.344,156.112 425.896,154.576 427,153.4 C428.128,152.152 429.616,151.528 431.464,151.528 Z M445.913333,151.528 C447.905333,151.528 449.465333,152.344 450.593333,154.024 C451.649333,155.608 452.177333,157.744 452.177333,160.432 C452.177333,163.12 451.649333,165.256 450.593333,166.84 C449.465333,168.496 447.905333,169.336 445.913333,169.336 C443.897333,169.336 442.337333,168.496 441.233333,166.84 C440.177333,165.256 439.649333,163.12 439.649333,160.432 C439.649333,157.744 440.177333,155.608 441.233333,154.024 C442.337333,152.344 443.897333,151.528 445.913333,151.528 Z M445.913333,153.904 C444.545333,153.904 443.585333,154.648 443.033333,156.184 C442.649333,157.216 442.457333,158.632 442.457333,160.432 C442.457333,162.208 442.649333,163.624 443.033333,164.68 C443.585333,166.192 444.545333,166.96 445.913333,166.96 C447.257333,166.96 448.217333,166.192 448.793333,164.68 C449.177333,163.624 449.369333,162.208 449.369333,160.432 C449.369333,158.632 449.177333,157.216 448.793333,156.184 C448.217333,154.648 447.257333,153.904 445.913333,153.904 Z M458.994667,151.864 L461.106667,151.864 L461.106667,169 L458.298667,169 L458.298667,155.248 C457.266667,156.184 455.970667,156.88 454.386667,157.336 L454.386667,154.552 C455.154667,154.36 455.970667,154.024 456.834667,153.544 C457.698667,153.016 458.418667,152.464 458.994667,151.864 Z M464.3,151.864 L475.892,151.864 L475.892,154.12 L469.892,169 L466.916,169 L473.06,154.408 L464.3,154.408 L464.3,151.864 Z" id="2017" fill="#FFFFFF"></path>
                <path d="M299.464,268.528 C301.12,268.528 302.488,269.008 303.568,269.968 C304.624,270.928 305.152,272.152 305.152,273.688 C305.152,275.176 304.576,276.52 303.472,277.744 C302.8,278.464 301.6,279.376 299.92,280.504 C298.168,281.656 297.112,282.664 296.728,283.528 L305.176,283.528 L305.176,286 L293.224,286 C293.224,284.248 293.776,282.736 294.928,281.44 C295.552,280.72 296.872,279.664 298.864,278.296 C299.968,277.528 300.736,276.88 301.216,276.376 C301.96,275.536 302.344,274.624 302.344,273.664 C302.344,272.728 302.08,272.032 301.6,271.576 C301.096,271.12 300.352,270.904 299.368,270.904 C298.312,270.904 297.52,271.264 296.992,271.984 C296.464,272.656 296.176,273.688 296.128,275.032 L293.32,275.032 C293.344,273.112 293.896,271.576 295,270.4 C296.128,269.152 297.616,268.528 299.464,268.528 Z M313.913333,268.528 C315.905333,268.528 317.465333,269.344 318.593333,271.024 C319.649333,272.608 320.177333,274.744 320.177333,277.432 C320.177333,280.12 319.649333,282.256 318.593333,283.84 C317.465333,285.496 315.905333,286.336 313.913333,286.336 C311.897333,286.336 310.337333,285.496 309.233333,283.84 C308.177333,282.256 307.649333,280.12 307.649333,277.432 C307.649333,274.744 308.177333,272.608 309.233333,271.024 C310.337333,269.344 311.897333,268.528 313.913333,268.528 Z M313.913333,270.904 C312.545333,270.904 311.585333,271.648 311.033333,273.184 C310.649333,274.216 310.457333,275.632 310.457333,277.432 C310.457333,279.208 310.649333,280.624 311.033333,281.68 C311.585333,283.192 312.545333,283.96 313.913333,283.96 C315.257333,283.96 316.217333,283.192 316.793333,281.68 C317.177333,280.624 317.369333,279.208 317.369333,277.432 C317.369333,275.632 317.177333,274.216 316.793333,273.184 C316.217333,271.648 315.257333,270.904 313.913333,270.904 Z M326.994667,268.864 L329.106667,268.864 L329.106667,286 L326.298667,286 L326.298667,272.248 C325.266667,273.184 323.970667,273.88 322.386667,274.336 L322.386667,271.552 C323.154667,271.36 323.970667,271.024 324.834667,270.544 C325.698667,270.016 326.418667,269.464 326.994667,268.864 Z M339.02,268.528 C342.38,268.528 344.276,270.088 344.708,273.208 L341.972,273.208 C341.636,271.624 340.628,270.832 338.996,270.832 C337.844,270.832 336.932,271.384 336.26,272.512 C335.588,273.568 335.276,274.888 335.276,276.472 L335.276,276.688 L335.396,276.688 C335.876,275.968 336.476,275.464 337.196,275.128 C337.868,274.792 338.636,274.648 339.5,274.648 C341.18,274.648 342.524,275.176 343.532,276.256 C344.54,277.336 345.044,278.728 345.044,280.408 C345.044,282.136 344.444,283.552 343.292,284.656 C342.14,285.76 340.7,286.336 338.996,286.336 C336.884,286.336 335.276,285.568 334.172,284.056 C333.068,282.568 332.54,280.528 332.54,277.912 C332.54,275.104 333.116,272.848 334.292,271.12 C335.444,269.392 337.028,268.528 339.02,268.528 Z M338.9,276.928 C337.844,276.928 337.028,277.24 336.452,277.888 C335.852,278.512 335.564,279.4 335.564,280.504 C335.564,281.584 335.876,282.448 336.5,283.072 C337.124,283.696 337.916,284.008 338.9,284.008 C339.908,284.008 340.7,283.672 341.324,283 C341.948,282.328 342.26,281.464 342.26,280.408 C342.26,279.352 341.948,278.512 341.372,277.888 C340.748,277.24 339.932,276.928 338.9,276.928 Z" id="2016" fill="#FFFFFF"></path>
                <path d="M351.464,404.528 C353.12,404.528 354.488,405.008 355.568,405.968 C356.624,406.928 357.152,408.152 357.152,409.688 C357.152,411.176 356.576,412.52 355.472,413.744 C354.8,414.464 353.6,415.376 351.92,416.504 C350.168,417.656 349.112,418.664 348.728,419.528 L357.176,419.528 L357.176,422 L345.224,422 C345.224,420.248 345.776,418.736 346.928,417.44 C347.552,416.72 348.872,415.664 350.864,414.296 C351.968,413.528 352.736,412.88 353.216,412.376 C353.96,411.536 354.344,410.624 354.344,409.664 C354.344,408.728 354.08,408.032 353.6,407.576 C353.096,407.12 352.352,406.904 351.368,406.904 C350.312,406.904 349.52,407.264 348.992,407.984 C348.464,408.656 348.176,409.688 348.128,411.032 L345.32,411.032 C345.344,409.112 345.896,407.576 347,406.4 C348.128,405.152 349.616,404.528 351.464,404.528 Z M365.913333,404.528 C367.905333,404.528 369.465333,405.344 370.593333,407.024 C371.649333,408.608 372.177333,410.744 372.177333,413.432 C372.177333,416.12 371.649333,418.256 370.593333,419.84 C369.465333,421.496 367.905333,422.336 365.913333,422.336 C363.897333,422.336 362.337333,421.496 361.233333,419.84 C360.177333,418.256 359.649333,416.12 359.649333,413.432 C359.649333,410.744 360.177333,408.608 361.233333,407.024 C362.337333,405.344 363.897333,404.528 365.913333,404.528 Z M365.913333,406.904 C364.545333,406.904 363.585333,407.648 363.033333,409.184 C362.649333,410.216 362.457333,411.632 362.457333,413.432 C362.457333,415.208 362.649333,416.624 363.033333,417.68 C363.585333,419.192 364.545333,419.96 365.913333,419.96 C367.257333,419.96 368.217333,419.192 368.793333,417.68 C369.177333,416.624 369.369333,415.208 369.369333,413.432 C369.369333,411.632 369.177333,410.216 368.793333,409.184 C368.217333,407.648 367.257333,406.904 365.913333,406.904 Z M378.994667,404.864 L381.106667,404.864 L381.106667,422 L378.298667,422 L378.298667,408.248 C377.266667,409.184 375.970667,409.88 374.386667,410.336 L374.386667,407.552 C375.154667,407.36 375.970667,407.024 376.834667,406.544 C377.698667,406.016 378.418667,405.464 378.994667,404.864 Z M385.788,404.864 L396.228,404.864 L396.228,407.336 L388.044,407.336 L387.564,412.04 L387.636,412.04 C388.164,411.512 388.764,411.128 389.46,410.888 C390.084,410.648 390.78,410.528 391.548,410.528 C393.156,410.528 394.476,411.056 395.484,412.112 C396.492,413.168 397.02,414.632 397.02,416.48 C397.02,418.256 396.348,419.696 395.004,420.824 C393.756,421.832 392.292,422.336 390.588,422.336 C389.028,422.336 387.684,421.904 386.58,421.064 C385.332,420.128 384.66,418.856 384.54,417.272 L387.3,417.272 C387.42,418.208 387.78,418.904 388.404,419.36 C388.932,419.744 389.676,419.96 390.612,419.96 C391.62,419.96 392.484,419.648 393.18,419.024 C393.852,418.4 394.212,417.56 394.212,416.504 C394.212,415.352 393.9,414.44 393.324,413.792 C392.748,413.12 391.884,412.808 390.78,412.808 C390.036,412.808 389.388,412.928 388.86,413.192 C388.26,413.48 387.804,413.912 387.468,414.512 L384.852,414.512 L385.788,404.864 Z" id="2015" fill="#FFFFFF"></path>
                <path d="M533.464,492.528 C535.12,492.528 536.488,493.008 537.568,493.968 C538.624,494.928 539.152,496.152 539.152,497.688 C539.152,499.176 538.576,500.52 537.472,501.744 C536.8,502.464 535.6,503.376 533.92,504.504 C532.168,505.656 531.112,506.664 530.728,507.528 L539.176,507.528 L539.176,510 L527.224,510 C527.224,508.248 527.776,506.736 528.928,505.44 C529.552,504.72 530.872,503.664 532.864,502.296 C533.968,501.528 534.736,500.88 535.216,500.376 C535.96,499.536 536.344,498.624 536.344,497.664 C536.344,496.728 536.08,496.032 535.6,495.576 C535.096,495.12 534.352,494.904 533.368,494.904 C532.312,494.904 531.52,495.264 530.992,495.984 C530.464,496.656 530.176,497.688 530.128,499.032 L527.32,499.032 C527.344,497.112 527.896,495.576 529,494.4 C530.128,493.152 531.616,492.528 533.464,492.528 Z M547.913333,492.528 C549.905333,492.528 551.465333,493.344 552.593333,495.024 C553.649333,496.608 554.177333,498.744 554.177333,501.432 C554.177333,504.12 553.649333,506.256 552.593333,507.84 C551.465333,509.496 549.905333,510.336 547.913333,510.336 C545.897333,510.336 544.337333,509.496 543.233333,507.84 C542.177333,506.256 541.649333,504.12 541.649333,501.432 C541.649333,498.744 542.177333,496.608 543.233333,495.024 C544.337333,493.344 545.897333,492.528 547.913333,492.528 Z M547.913333,494.904 C546.545333,494.904 545.585333,495.648 545.033333,497.184 C544.649333,498.216 544.457333,499.632 544.457333,501.432 C544.457333,503.208 544.649333,504.624 545.033333,505.68 C545.585333,507.192 546.545333,507.96 547.913333,507.96 C549.257333,507.96 550.217333,507.192 550.793333,505.68 C551.177333,504.624 551.369333,503.208 551.369333,501.432 C551.369333,499.632 551.177333,498.216 550.793333,497.184 C550.217333,495.648 549.257333,494.904 547.913333,494.904 Z M560.994667,492.864 L563.106667,492.864 L563.106667,510 L560.298667,510 L560.298667,496.248 C559.266667,497.184 557.970667,497.88 556.386667,498.336 L556.386667,495.552 C557.154667,495.36 557.970667,495.024 558.834667,494.544 C559.698667,494.016 560.418667,493.464 560.994667,492.864 Z M574.412,492.864 L576.98,492.864 L576.98,504.096 L579.524,504.096 L579.524,506.328 L576.98,506.328 L576.98,510 L574.316,510 L574.316,506.328 L566.036,506.328 L566.036,503.664 L574.412,492.864 Z M574.244,496.416 L568.316,504.096 L574.316,504.096 L574.316,496.416 L574.244,496.416 Z" id="2014" fill="#FFFFFF"></path>
                <g id="Page-1" transform="translate(109.000000, 314.000000)">
                    <mask id="mask-6" fill="white">
                        <use xlink:href="#path-5"></use>
                    </mask>
                    <g id="Clip-4"></g>
                    <polygon id="Fill-3" fill="#FFFFFF" mask="url(#mask-6)" points="27.9226244 23.2755763 32.6886849 26.0106164 70 0 0 11.3379051 13.8678906 15.3395757 17.5738139 29"></polygon>
                </g>
                <g id="Page-1-Copy" transform="translate(85.000000, 386.000000)">
                    <mask id="mask-8" fill="white">
                        <use xlink:href="#path-7"></use>
                    </mask>
                    <g id="Clip-4"></g>
                    <polygon id="Fill-3" fill="#FFFFFF" mask="url(#mask-8)" points="37.4960956 31.3016372 43.896234 34.9797945 94 0 0 15.2475276 18.6225959 20.6290845 23.5991215 39"></polygon>
                </g>
            </g>
        </g>
    </g>
</svg>