<?xml version="1.0" encoding="UTF-8"?>
<svg width="60px" height="60px" viewBox="0 0 60 60" version="1.1" xmlns="http://www.w3.org/2000/svg" xmlns:xlink="http://www.w3.org/1999/xlink">
    <!-- Generator: Sketch 48.2 (47327) - http://www.bohemiancoding.com/sketch -->
    <title>业务全覆盖</title>
    <desc>Created with Sketch.</desc>
    <defs></defs>
    <g id="智慧旅游-copy" stroke="none" stroke-width="1" fill="none" fill-rule="evenodd" transform="translate(-534.000000, -1307.000000)" opacity="0.800000012">
        <g id="Group-22" transform="translate(534.000000, 1307.000000)" fill="#FFFFFF" fill-rule="nonzero">
            <g id="全部-5" transform="translate(9.000000, 11.000000)">
                <path d="M20.7839133,2.77658863 L3.68717383,12.1164741 L20.7839133,20.5065407 L37.8806528,12.1164741 L20.7839133,2.77658863 Z M21.6483778,0.149832776 L41.1266387,10.6381271 C42.1754681,11.2374582 42.1754681,12.735786 41.1266387,13.3351171 L21.6483778,23.0742475 C21.1988795,23.2240803 20.7493812,23.2240803 20.2998829,23.0742475 L0.821621987,13.3351171 C-0.227207445,12.735786 -0.227207445,11.2374582 0.821621987,10.6381271 L20.2998829,0.149832776 C20.5995484,-3.49720253e-15 21.1988795,-3.49720253e-15 21.6483778,0.149832776 Z M2.09765886,20.5411371 L20.9765886,29.8307692 L39.8555184,20.5411371 C40.6046823,20.2414716 41.5036789,19.6280936 41.8033445,20.3772575 C42.10301,21.1264214 41.8033445,22.0254181 41.0541806,22.3250836 L20.9765886,32.3638796 L0.898996656,22.3250836 C0.149832776,22.0254181 -0.149832776,21.1264214 0.149832776,20.3772575 C0.599331104,19.6280936 1.49832776,20.2414716 2.09765886,20.5411371 Z M2.09765886,29.5311037 L20.9765886,38.8207358 L39.8555184,29.5311037 C40.6046823,29.2314381 41.5036789,28.6180602 41.8033445,29.3672241 C42.10301,30.116388 41.8033445,31.0153846 41.0541806,31.3150502 L20.9765886,41.3538462 L0.898996656,31.3150502 C0.149832776,31.0153846 -0.149832776,30.116388 0.149832776,29.3672241 C0.599331104,28.6180602 1.49832776,29.2314381 2.09765886,29.5311037 Z" id="Shape"></path>
            </g>
        </g>
    </g>
</svg>