<?xml version="1.0" encoding="UTF-8"?>
<svg width="60px" height="60px" viewBox="0 0 60 60" version="1.1" xmlns="http://www.w3.org/2000/svg" xmlns:xlink="http://www.w3.org/1999/xlink">
    <!-- Generator: Sketch 48.2 (47327) - http://www.bohemiancoding.com/sketch -->
    <title>全方位多终端销售</title>
    <desc>Created with Sketch.</desc>
    <defs>
        <filter x="-15.9%" y="-11.4%" width="131.8%" height="131.8%" filterUnits="objectBoundingBox" id="filter-1">
            <feOffset dx="0" dy="2" in="SourceAlpha" result="shadowOffsetOuter1"></feOffset>
            <feGaussianBlur stdDeviation="2" in="shadowOffsetOuter1" result="shadowBlurOuter1"></feGaussianBlur>
            <feColorMatrix values="0 0 0 0 0   0 0 0 0 0   0 0 0 0 0  0 0 0 0.5 0" type="matrix" in="shadowBlurOuter1" result="shadowMatrixOuter1"></feColorMatrix>
            <feMerge>
                <feMergeNode in="shadowMatrixOuter1"></feMergeNode>
                <feMergeNode in="SourceGraphic"></feMergeNode>
            </feMerge>
        </filter>
    </defs>
    <g id="智慧旅游-copy" stroke="none" stroke-width="1" fill="none" fill-rule="evenodd" transform="translate(-220.000000, -1307.000000)" opacity="0.800000012">
        <g id="Group-21" transform="translate(220.000000, 1307.000000)" fill="#FFFFFF" fill-rule="nonzero">
            <g id="all" filter="url(#filter-1)" transform="translate(8.000000, 7.000000)">
                <path d="M19.8,20.9 L20.9,20.9 L20.9,19.8 L20.9,10.45 C20.9,4.67862437 16.2213756,0 10.45,0 C4.67862437,0 0,4.67862437 0,10.45 C0,16.2213756 4.67862437,20.9 10.45,20.9 L19.8,20.9 Z M2.2,10.45 C2.2,5.89365081 5.89365081,2.2 10.45,2.2 C15.0063491,2.2 18.7,5.89365081 18.7,10.45 L18.7,19.8 L19.8,18.7 L10.45,18.7 C5.89365081,18.7 2.2,15.0063491 2.2,10.45 Z" id="Shape"></path>
                <path d="M19.8,25.3 L18.7,24.2 L18.7,33.55 C18.7,38.1063491 15.0063491,41.8 10.45,41.8 C5.89365081,41.8 2.2,38.1063491 2.2,33.55 C2.2,28.9936509 5.89365081,25.3 10.45,25.3 L19.8,25.3 Z M0,33.55 C0,39.3213756 4.67862437,44 10.45,44 C16.2213756,44 20.9,39.3213756 20.9,33.55 L20.9,24.2 L20.9,23.1 L19.8,23.1 L10.45,23.1 C4.67862437,23.1 0,27.7786244 0,33.55 Z" id="Shape"></path>
                <path d="M24.2,18.7 L25.3,19.8 L25.3,10.45 C25.3,5.89365081 28.9936509,2.2 33.55,2.2 C38.1063491,2.2 41.8,5.89365081 41.8,10.45 C41.8,15.0063491 38.1063491,18.7 33.55,18.7 L24.2,18.7 Z M44,10.45 C44,4.67862437 39.3213756,0 33.55,0 C27.7786244,0 23.1,4.67862437 23.1,10.45 L23.1,19.8 L23.1,20.9 L24.2,20.9 L33.55,20.9 C39.3213756,20.9 44,16.2213756 44,10.45 Z" id="Shape"></path>
                <path d="M44,33.55 C44,27.7786244 39.3213756,23.1 33.55,23.1 L24.2,23.1 L23.1,23.1 L23.1,24.2 L23.1,33.55 C23.1,39.3213756 27.7786244,44 33.55,44 C35.1704875,44 36.7404779,43.6300675 38.1639451,42.9285785 C38.7088812,42.6600322 38.9329395,42.0005746 38.6643934,41.4556387 C38.3958471,40.9107026 37.7363895,40.6866444 37.1914535,40.9551905 C36.0688466,41.5084147 34.831361,41.8 33.55,41.8 C28.9936509,41.8 25.3,38.1063491 25.3,33.55 L25.3,24.2 L24.2,25.3 L33.55,25.3 C38.1063491,25.3 41.8,28.9936509 41.8,33.55 C41.8,34.3522072 41.6858151,35.1379416 41.463469,35.8909136 C41.29142,36.4735553 41.6242711,37.0853532 42.2069129,37.2574022 C42.7895547,37.4294513 43.4013525,37.0966001 43.5734016,36.5139583 C43.8553264,35.559224 44,34.5636885 44,33.55 Z" id="Shape"></path>
            </g>
        </g>
    </g>
</svg>