<?xml version="1.0" encoding="UTF-8"?>
<svg width="40px" height="41px" viewBox="0 0 40 41" version="1.1" xmlns="http://www.w3.org/2000/svg" xmlns:xlink="http://www.w3.org/1999/xlink">
    <!-- Generator: Sketch 48.2 (47327) - http://www.bohemiancoding.com/sketch -->
    <title>Shape@2x</title>
    <desc>Created with Sketch.</desc>
    <defs></defs>
    <g id="项目案例3-copy-6" stroke="none" stroke-width="1" fill="none" fill-rule="evenodd" transform="translate(-209.000000, -404.000000)" opacity="0.699999988">
        <g id="Group-5" transform="translate(194.000000, 404.000000)" fill="#FFFFFF" fill-rule="nonzero">
            <g id="科技" transform="translate(15.000000, 0.000000)">
                <path d="M8.8929385,40.7790433 C4.00455581,40.7790433 0.0318906606,36.8018223 0.0318906606,31.9179954 C0.0318906606,27.0341686 4.00911162,23.0569476 8.8929385,23.0569476 C13.7767654,23.0569476 17.7539863,27.0341686 17.7539863,31.9179954 C17.7539863,36.8018223 13.7813212,40.7790433 8.8929385,40.7790433 Z M8.8929385,24.5102506 C4.80637813,24.5102506 1.48519362,27.8314351 1.48519362,31.9179954 C1.48519362,36.0045558 4.80637813,39.3257403 8.8929385,39.3257403 C12.9794989,39.3257403 16.3006834,36.0045558 16.3006834,31.9179954 C16.3006834,27.8314351 12.9794989,24.5102506 8.8929385,24.5102506 Z M10.3507973,13.6583144 C6.59681093,13.6583144 3.53986333,10.6059226 3.53986333,6.84738041 C3.53986333,3.08883827 6.59225513,0.0364464692 10.3507973,0.0364464692 C14.1047836,0.0364464692 17.1617312,3.08883827 17.1617312,6.84738041 C17.1617312,10.6059226 14.1047836,13.6583144 10.3507973,13.6583144 Z M10.3507973,1.49430524 C7.39863326,1.49430524 4.9977221,3.8952164 4.9977221,6.84738041 C4.9977221,9.79954442 7.39863326,12.2004556 10.3507973,12.2004556 C13.3029613,12.2004556 15.7038724,9.79954442 15.7038724,6.84738041 C15.7038724,3.8952164 13.3029613,1.49430524 10.3507973,1.49430524 Z M33.6719818,35.8405467 C30.2004556,35.8405467 27.3758542,33.0159453 27.3758542,29.5444191 C27.3758542,26.0728929 30.2004556,23.2482916 33.6719818,23.2482916 C37.143508,23.2482916 39.9681093,26.0728929 39.9681093,29.5444191 C39.9681093,33.0159453 37.143508,35.8405467 33.6719818,35.8405467 Z M33.6719818,24.7015945 C31.0022779,24.7015945 28.8291572,26.8747153 28.8291572,29.5444191 C28.8291572,32.214123 31.0022779,34.3872437 33.6719818,34.3872437 C36.3416856,34.3872437 38.5148064,32.214123 38.5148064,29.5444191 C38.5148064,26.8747153 36.3416856,24.7015945 33.6719818,24.7015945 Z M21.7949886,25.1298405 C18.2505695,25.1298405 15.3621868,22.2460137 15.3621868,18.6970387 C15.3621868,15.1480638 18.2460137,12.2642369 21.7949886,12.2642369 C25.3439636,12.2642369 28.2277904,15.1480638 28.2277904,18.6970387 C28.2277904,22.2460137 25.3439636,25.1298405 21.7949886,25.1298405 Z M21.7949886,13.7220957 C19.0523918,13.7220957 16.8154897,15.9544419 16.8154897,18.7015945 C16.8154897,21.4441913 19.047836,23.6810934 21.7949886,23.6810934 C24.5421412,23.6810934 26.7744875,21.4487472 26.7744875,18.7015945 C26.7744875,15.9544419 24.5421412,13.7220957 21.7949886,13.7220957 Z M32.4191344,13.7220957 C29.5034169,13.7220957 27.1252847,11.3485194 27.1252847,8.42824601 C27.1252847,5.50797267 29.498861,3.13439636 32.4191344,3.13439636 C35.3394077,3.13439636 37.7129841,5.51252847 37.7129841,8.42824601 C37.7129841,11.3439636 35.3394077,13.7220957 32.4191344,13.7220957 Z M32.4191344,4.59225513 C30.3052392,4.59225513 28.5831435,6.3143508 28.5831435,8.42824601 C28.5831435,10.5421412 30.3052392,12.2642369 32.4191344,12.2642369 C34.5330296,12.2642369 36.2551253,10.5421412 36.2551253,8.42824601 C36.2551253,6.3143508 34.5375854,4.59225513 32.4191344,4.59225513 Z" id="Shape"></path>
                <path d="M14.9020501,27.0797267 C14.715262,27.0797267 14.5284738,27.0068337 14.3872437,26.8656036 C14.1047836,26.5831435 14.1047836,26.1230068 14.3872437,25.8359909 L17.3667426,22.856492 C17.6492027,22.5740319 18.1093394,22.5740319 18.3963554,22.856492 C18.6788155,23.1389522 18.6788155,23.5990888 18.3963554,23.8861048 L15.4168565,26.8656036 C15.2710706,27.0113895 15.0842825,27.0797267 14.9020501,27.0797267 Z M26.332574,15.6628702 C26.1457859,15.6628702 25.9589977,15.5899772 25.8177677,15.4487472 C25.5353075,15.166287 25.5353075,14.7061503 25.8177677,14.4191344 L28.7425968,11.4943052 C29.0250569,11.2118451 29.4851936,11.2118451 29.7722096,11.4943052 C30.0546697,11.7767654 30.0546697,12.2369021 29.7722096,12.523918 L26.8473804,15.4487472 C26.7061503,15.594533 26.5193622,15.6628702 26.332574,15.6628702 Z M17.9225513,15.1116173 C17.7357631,15.1116173 17.5489749,15.0387244 17.4077449,14.8974943 L14.2505695,11.7403189 C13.9681093,11.4578588 13.9681093,10.9977221 14.2505695,10.7107062 C14.5330296,10.428246 14.9931663,10.428246 15.2801822,10.7107062 L18.4373576,13.8678815 C18.7198178,14.1503417 18.7198178,14.6104784 18.4373576,14.8974943 C18.2961276,15.0432802 18.1093394,15.1116173 17.9225513,15.1116173 Z M29.3439636,26.5330296 C29.1571754,26.5330296 28.9703872,26.4601367 28.8291572,26.3189066 L25.5125285,23.0022779 C25.2300683,22.7198178 25.2300683,22.2596811 25.5125285,21.9726651 C25.7949886,21.690205 26.2551253,21.690205 26.5421412,21.9726651 L29.8587699,25.2892938 C30.1412301,25.571754 30.1412301,26.0318907 29.8587699,26.3189066 C29.7129841,26.4601367 29.5307517,26.5330296 29.3439636,26.5330296 Z" id="Shape"></path>
            </g>
        </g>
    </g>
</svg>