<?xml version="1.0" encoding="UTF-8"?>
<svg width="36px" height="36px" viewBox="0 0 36 36" version="1.1" xmlns="http://www.w3.org/2000/svg" xmlns:xlink="http://www.w3.org/1999/xlink">
    <!-- Generator: Sketch 48.2 (47327) - http://www.bohemiancoding.com/sketch -->
    <title>旅游电商平台</title>
    <desc>Created with Sketch.</desc>
    <defs></defs>
    <g id="项目案例3-copy-6" stroke="none" stroke-width="1" fill="none" fill-rule="evenodd" transform="translate(-211.000000, -417.000000)" opacity="0.699999988">
        <g id="Group-19" transform="translate(211.000000, 417.000000)" stroke="#FFFFFF" stroke-width="1.5">
            <path d="M29.056,14.8 L9.256,14.8 C9.11199928,15.7600048 9.04,16.6719957 9.04,17.536 C9.04,21.2320185 10.0239902,24.2199886 11.992,26.5 C13.9600098,28.7800114 16.6719827,29.92 20.128,29.92 C21.8080084,29.92 23.343993,29.5960032 24.736,28.948 C26.128007,28.2999968 27.6399918,27.2080077 29.272,25.672 L29.56,27.328 C27.9279918,29.4880108 26.0440107,31.1199945 23.908,32.224 C21.7719893,33.3280055 19.2880142,33.88 16.456,33.88 C14.6799911,33.88 13.0360076,33.5080037 11.524,32.764 C10.0119924,32.0199963 8.69200564,30.9760067 7.564,29.632 C6.43599436,28.2879933 5.56000312,26.716009 4.936,24.916 C4.31199688,23.115991 4,21.1600106 4,19.048 C4,16.9359894 4.34799652,14.9560092 5.044,13.108 C5.74000348,11.2599908 6.71199376,9.66400672 7.96,8.32 C9.20800624,6.97599328 10.6959914,5.92000384 12.424,5.152 C14.1520086,4.38399616 16.0239899,4 18.04,4 C19.6240079,4 21.0759934,4.26399736 22.396,4.792 C23.7160066,5.32000264 24.8559952,6.05199532 25.816,6.988 C26.7760048,7.92400468 27.5319972,9.06399328 28.084,10.408 C28.6360028,11.7520067 28.9599995,13.2159921 29.056,14.8 Z M9.616,13.144 L20.056,13.144 C20.7760036,13.144 21.3999974,13.1320001 21.928,13.108 C22.4560026,13.0839999 22.8879983,12.9880008 23.224,12.82 C23.5600017,12.6519992 23.7639996,12.4000017 23.836,12.064 C23.9080004,11.7279983 23.8720007,11.2480031 23.728,10.624 C23.4399986,9.37599376 22.8520044,8.24800504 21.964,7.24 C21.0759956,6.23199496 19.7200091,5.728 17.896,5.728 C15.7359892,5.728 13.9360072,6.3879934 12.496,7.708 C11.0559928,9.0280066 10.0960024,10.8399885 9.616,13.144 Z" id="e"></path>
        </g>
    </g>
</svg>