<?xml version="1.0" encoding="UTF-8"?>
<svg width="36px" height="36px" viewBox="0 0 36 36" version="1.1" xmlns="http://www.w3.org/2000/svg" xmlns:xlink="http://www.w3.org/1999/xlink">
    <!-- Generator: Sketch 48.2 (47327) - http://www.bohemiancoding.com/sketch -->
    <title>旅游分销平台</title>
    <desc>Created with Sketch.</desc>
    <defs></defs>
    <g id="项目案例3-copy-6" stroke="none" stroke-width="1" fill="none" fill-rule="evenodd" transform="translate(-389.000000, -417.000000)" opacity="0.699999988">
        <g id="分销" transform="translate(389.000000, 417.000000)" fill="#FFFFFF" fill-rule="nonzero">
            <path d="M31.5225464,24.713688 L31.2898111,24.6668233 L31.2167339,24.4404426 C30.5217054,22.3108755 29.4326952,21.4306743 27.9790929,19.9540368 C26.748694,18.7053686 25.2561701,17.7069106 23.54362,16.9856696 C21.4402654,16.1000048 19.5410506,15.8569435 18.595812,15.7918094 L18.2177165,15.7655969 L18.2177165,15.3851185 L18.2177165,14.5327811 C18.2177165,14.5126584 18.1989177,14.35353 18.1613199,14.0553959 L18.5425927,13.9886731 C21.4235848,13.4818981 23.5134359,10.9869446 23.5134359,8.05352752 C23.5142303,4.73010027 20.8183143,2.02624115 17.5044188,2.02624115 C14.1905232,2.02624115 11.4946073,4.73010031 11.4946073,8.05352763 C11.4946073,10.9647038 13.5669835,13.4580687 16.4249404,13.9799357 L16.8006529,14.0490414 L16.7553767,14.4295198 C16.7506108,14.4652642 16.7474336,14.4994198 16.7474336,14.5343698 L16.7474336,15.3851185 L16.7474336,15.765597 L16.3685438,15.7918095 C15.4193336,15.8561492 13.5121755,16.0984163 11.4008778,16.9872584 C9.6883277,17.7084993 8.19580382,18.7069573 6.96540494,19.9564198 C5.50862537,21.432263 4.41802647,22.3180244 3.72458669,24.4547404 L3.6515094,24.6763552 L3.42354006,24.7263972 C1.45521956,25.1497687 0.0262411479,26.920304 0.0262411479,28.9378722 C0.0262411479,31.3120893 1.95325711,33.2430769 4.32191398,33.2430769 C6.68898221,33.2430769 8.61599817,31.3120894 8.61599817,28.9378722 C8.61599817,27.042629 7.40386859,25.3904472 5.59838334,24.8264813 L5.1861322,24.6978017 L5.33705264,24.2942881 C6.54282767,21.0868312 8.74706068,19.7252732 11.8901778,18.3757265 C13.7409392,17.5853799 15.4495177,17.3454959 16.3049984,17.2732129 L16.745845,17.2358799 L16.745845,17.6791095 L16.745845,24.3633937 L16.745845,24.6803267 L16.4376495,24.7589642 C14.5233427,25.2387324 13.1857108,26.9568426 13.1857108,28.9362836 C13.1857108,31.3105007 15.1127268,33.2414883 17.479795,33.2414883 C19.8476575,33.2414883 21.7746735,31.3105007 21.7746735,28.9362836 C21.7746735,26.9568426 20.4362473,25.2387324 18.5227347,24.7589642 L18.2161279,24.6819153 L18.2161279,24.3649824 L18.2161279,17.6799038 L18.2161279,17.2366743 L18.6569745,17.2740072 C19.4854484,17.3439072 21.149545,17.5774368 22.9748882,18.3455425 C26.1648701,19.6879402 28.3976986,21.0669732 29.6114168,24.3101745 L29.7607486,24.7097165 L29.3564407,24.8415733 C27.5795508,25.419837 26.3864849,27.0656643 26.3864849,28.9378723 C26.3864849,31.3120894 28.3135009,33.2430769 30.6805691,33.2430769 C33.049226,33.2422826 34.9762419,31.311295 34.9762419,28.9370779 C34.9762419,26.8909142 33.5242283,25.1148188 31.5225464,24.713688 Z M7.14571515,28.9370779 C7.14571515,30.4979132 5.87877761,31.7672337 4.32111964,31.7672337 C2.76266733,31.7672337 1.49652414,30.4971189 1.49652414,28.9370779 C1.49652414,27.3754484 2.76266733,26.1061279 4.32111964,26.1061279 C5.87877764,26.1061279 7.14571515,27.3754483 7.14571515,28.9370779 Z M12.9648903,8.05352763 C12.9648903,5.54189349 15.0015222,3.50208435 17.5052131,3.50208435 C20.0089041,3.50208435 22.0455359,5.54189349 22.0455359,8.05352763 C22.0455359,10.5619845 20.0096984,12.6041766 17.5052131,12.6041766 C15.0023165,12.6041766 12.9648903,10.5619845 12.9648903,8.05352763 Z M20.3067734,28.9370779 C20.3067734,30.4979132 19.0398359,31.7672337 17.4821779,31.7672337 C15.9245199,31.7672337 14.656788,30.4971189 14.656788,28.9370779 C14.656788,27.3754484 15.9245199,26.1061279 17.4821779,26.1061279 C19.0390416,26.1061279 20.3067734,27.3754483 20.3067734,28.9370779 Z M30.6805691,31.768028 C29.1237055,31.768028 27.8559736,30.4979132 27.8559736,28.9378722 C27.8559736,27.3762427 29.1229111,26.1069222 30.6805691,26.1069222 C32.2382271,26.1069222 33.505959,27.3778313 33.505959,28.9378722 C33.5051646,30.4979132 32.2382271,31.768028 30.6805691,31.768028 Z" id="Shape"></path>
        </g>
    </g>
</svg>