<?xml version="1.0" encoding="UTF-8"?>
<svg width="40px" height="36px" viewBox="0 0 40 36" version="1.1" xmlns="http://www.w3.org/2000/svg" xmlns:xlink="http://www.w3.org/1999/xlink">
    <!-- Generator: Sketch 48.2 (47327) - http://www.bohemiancoding.com/sketch -->
    <title>Group33@2x</title>
    <desc>Created with Sketch.</desc>
    <defs></defs>
    <g id="项目案例3-copy-6" stroke="none" stroke-width="1" fill="none" fill-rule="evenodd" transform="translate(-561.000000, -404.000000)" opacity="0.699999988">
        <g id="Group-5" transform="translate(194.000000, 404.000000)" fill="#FFFFFF" fill-rule="nonzero">
            <g id="法律" transform="translate(367.000000, 0.000000)">
                <g id="Group33">
                    <path d="M38.954439,4.80357064 L0.640770692,4.80357064 C0.287242035,4.80357064 0.00441910822,4.5163286 0.00441910822,4.16721906 C0.00441910822,3.81810951 0.291661143,3.53086747 0.640770692,3.53086747 L38.954439,3.53086747 C39.3079677,3.53086747 39.5907906,3.81810951 39.5907906,4.16721906 C39.5907906,4.5163286 39.3035485,4.80357064 38.954439,4.80357064 Z M26.7797958,35.0700429 L12.8154138,35.0700429 C12.4618852,35.0700429 12.1790623,34.7828008 12.1790623,34.4336913 C12.1790623,34.0801626 12.4663043,33.7973397 12.8154138,33.7973397 L26.7797958,33.7973397 C27.1333245,33.7973397 27.4161474,34.0845817 27.4161474,34.4336913 C27.4205665,34.7828008 27.1333245,35.0700429 26.7797958,35.0700429 Z" id="Shape"></path>
                    <path d="M19.7976048,34.7651244 C19.4440762,34.7651244 19.1612533,34.4778824 19.1612533,34.1287728 L19.1612533,0.654028017 C19.1612533,0.300499359 19.4484953,0.0176764329 19.7976048,0.0176764329 C20.1511335,0.0176764329 20.4339564,0.304918467 20.4339564,0.654028017 L20.4339564,34.1243537 C20.4339564,34.4778824 20.1511335,34.7651244 19.7976048,34.7651244 Z M6.3944496,25.6529232 C3.17733881,25.6529232 0.539131203,23.2400901 0.251889169,20.0406558 C0.225374519,19.7401564 0.327014009,19.4396571 0.534712095,19.2142826 C0.74682929,18.9844889 1.04732865,18.8474966 1.36108533,18.8474966 L11.4233948,18.8474966 C11.7371514,18.8474966 12.0376508,18.9800698 12.249768,19.2142826 C12.4574661,19.4396571 12.5591056,19.7401564 12.5325909,20.0406558 C12.249768,23.2400901 9.61156039,25.6529232 6.3944496,25.6529232 Z M1.54226877,20.1246189 C1.85602545,22.5639666 3.90649167,24.3802201 6.3944496,24.3802201 C8.88240753,24.3802201 10.9328737,22.5639666 11.2466304,20.1246189 L1.54226877,20.1246189 Z" id="Shape"></path>
                    <path d="M11.922754,20.1246189 C11.6620266,20.1246189 11.4189757,19.965531 11.3217553,19.7048036 L6.3944496,6.11162667 L1.46272482,19.7048036 C1.3434089,20.0362367 0.976622917,20.2085819 0.645189801,20.0848469 C0.313756684,19.965531 0.141411463,19.598745 0.265146493,19.2673119 L5.49295152,4.86101905 C5.62994388,4.47655663 5.98789164,4.22908657 6.3944496,4.22908657 C6.80100756,4.22908657 7.15453621,4.47655663 7.29594768,4.86101905 L12.5237527,19.2673119 C12.6430686,19.598745 12.4751425,19.9611118 12.1437094,20.0848469 C12.0685846,20.1113615 11.9934597,20.1246189 11.922754,20.1246189 Z M33.4261346,25.6529232 C30.2090238,25.6529232 27.5708162,23.2400901 27.2835742,20.0406558 C27.2570595,19.7401564 27.358699,19.4396571 27.5663971,19.2142826 C27.7785143,18.9844889 28.0790137,18.8474966 28.3927703,18.8474966 L38.4550798,18.8474966 C38.7688364,18.8474966 39.0693358,18.9800698 39.281453,19.2142826 C39.4891511,19.4396571 39.5907906,19.7401564 39.5642759,20.0406558 C39.281453,23.2400901 36.6388263,25.6529232 33.4261346,25.6529232 Z M28.5739538,20.1246189 C28.8877105,22.5639666 30.9381767,24.3802201 33.4261346,24.3802201 C35.9140925,24.3802201 37.9645588,22.5639666 38.2783154,20.1246189 L28.5739538,20.1246189 Z" id="Shape"></path>
                    <path d="M38.954439,20.1246189 C38.6937116,20.1246189 38.4506607,19.965531 38.3534403,19.7048036 L33.4261346,6.11604578 L28.4944098,19.7048036 C28.3750939,20.0362367 28.0083079,20.2085819 27.6768748,20.0848469 C27.3454417,19.965531 27.1730965,19.598745 27.2968315,19.2673119 L32.5246365,4.86101905 C32.6616289,4.47655663 33.0151575,4.22908657 33.4261346,4.22908657 C33.8326926,4.22908657 34.1862212,4.47655663 34.3276327,4.86101905 L39.5510186,19.2673119 C39.6703345,19.598745 39.5024084,19.9611118 39.1709753,20.0848469 C39.1002696,20.1113615 39.0251447,20.1246189 38.954439,20.1246189 Z" id="Shape"></path>
                </g>
            </g>
        </g>
    </g>
</svg>