<?xml version="1.0" encoding="UTF-8"?>
<svg width="40px" height="40px" viewBox="0 0 40 40" version="1.1" xmlns="http://www.w3.org/2000/svg" xmlns:xlink="http://www.w3.org/1999/xlink">
    <!-- Generator: Sketch 48.2 (47327) - http://www.bohemiancoding.com/sketch -->
    <title>Shape2@2x</title>
    <desc>Created with Sketch.</desc>
    <defs></defs>
    <g id="项目案例3-copy-6" stroke="none" stroke-width="1" fill="none" fill-rule="evenodd" transform="translate(-385.000000, -404.000000)" opacity="0.699999988">
        <g id="Group-5" transform="translate(194.000000, 404.000000)" fill="#FFFFFF" fill-rule="nonzero">
            <g id="金融" transform="translate(191.000000, 0.000000)">
                <path d="M38.1202673,14.2494432 C37.8173719,14.2494432 37.5367483,14.0623608 37.4298441,13.7639198 C36.7572383,11.8841871 35.7861915,10.1291759 34.5434298,8.55679287 C34.2939866,8.24053452 34.3474388,7.77728285 34.6636971,7.52783964 C34.9799555,7.27839644 35.4432071,7.33184855 35.6926503,7.6481069 C37.0334076,9.34966592 38.0801782,11.2383073 38.8062361,13.2694878 C38.9443207,13.6525612 38.7438753,14.0712695 38.3652561,14.2048998 C38.285078,14.2360802 38.2004454,14.2494432 38.1202673,14.2494432 Z M4.47216036,32.0935412 C4.24498886,32.0935412 4.02227171,31.9910913 3.87973274,31.7951002 C2.64587973,30.1113586 1.68819599,28.2538976 1.03340757,26.2761693 C0.904231626,25.8930958 1.11358575,25.4788419 1.49665924,25.3496659 C1.87973274,25.22049 2.29398664,25.4298441 2.42316258,25.8129176 C3.02895323,27.6436526 3.91536748,29.363029 5.06013363,30.9265033 C5.30066815,31.2516704 5.22939866,31.7104677 4.90423163,31.9510022 C4.77505568,32.0445434 4.61915367,32.0935412 4.47216036,32.0935412 Z M20,39.9732739 C15.1002227,39.9732739 10.3875278,38.1826281 6.73051225,34.9309577 C6.42761693,34.6636971 6.40089087,34.2004454 6.66815145,33.8975501 C6.93541203,33.5946548 7.3986637,33.5679287 7.70155902,33.8351893 C11.091314,36.8507795 15.4565702,38.5077951 19.9955457,38.5077951 C29.5723831,38.5077951 37.4743875,31.1937639 38.4097996,21.857461 L35.7906459,24.467706 C35.5055679,24.752784 35.0378619,24.752784 34.752784,24.467706 C34.467706,24.1826281 34.467706,23.7193764 34.752784,23.4298441 L39.9643719,18.2316258 L39.9643653,20 C39.9732739,31.0111359 31.0111359,39.9732739 20,39.9732739 Z M0.0267260579,21.7817372 L0.0267260579,20 C0.0267260579,8.98886414 8.98886414,0.0267260579 20,0.0267260579 C24.596882,0.0267260579 29.0824053,1.62583519 32.636971,4.53006682 C32.9487751,4.78841871 32.9977728,5.24721604 32.7394209,5.55902004 C32.4855234,5.87082405 32.0222717,5.91982183 31.7104677,5.66146993 C28.4187082,2.97550111 24.2583519,1.4922049 20,1.4922049 C10.4276169,1.4922049 2.53006682,8.79732739 1.5857461,18.1247216 L4.37861915,15.3095768 C4.6636971,15.0200445 5.12694878,15.0200445 5.41648107,15.3051225 C5.70155902,15.5902004 5.70601336,16.0534521 5.42093541,16.3429844 L0.0267260579,21.7817372 Z" id="Shape"></path>
                <path d="M20.0623608,18.9487751 L12.0089087,10.8997773 C11.7238307,10.6146993 11.7238307,10.1514477 12.0089087,9.86191537 C12.2939866,9.57238307 12.7572383,9.57683742 13.0467706,9.86191537 L20.0623608,16.8775056 L27.0155902,9.92427617 C27.3006682,9.63919822 27.7639198,9.63919822 28.0534521,9.92427617 C28.3429844,10.2093541 28.3385301,10.6726058 28.0534521,10.9621381 L20.0623608,18.9487751 Z" id="Shape"></path>
                <path d="M27.532294,18.6458797 L12.5256125,18.6458797 C12.1202673,18.6458797 11.7951002,18.3162584 11.7951002,17.9153675 C11.7951002,17.5144766 12.1247216,17.1848552 12.5256125,17.1848552 L27.532294,17.1848552 C27.9376392,17.1848552 28.2628062,17.5144766 28.2628062,17.9153675 C28.2628062,18.3162584 27.9376392,18.6458797 27.532294,18.6458797 Z M27.532294,24.3563474 L12.5256125,24.3563474 C12.1202673,24.3563474 11.7951002,24.0267261 11.7951002,23.6258352 C11.7951002,23.2249443 12.1247216,22.8953229 12.5256125,22.8953229 L27.532294,22.8953229 C27.9376392,22.8953229 28.2628062,23.2249443 28.2628062,23.6258352 C28.2628062,24.0267261 27.9376392,24.3563474 27.532294,24.3563474 Z" id="Shape"></path>
                <path d="M19.3318486,31.2828508 L19.3318486,17.9153675 C19.3318486,17.5100223 19.6614699,17.1848552 20.0623608,17.1848552 C20.467706,17.1848552 20.7928731,17.5144766 20.7928731,17.9153675 L20.7928731,31.2828508 C20.7928731,31.688196 20.4632517,32.013363 20.0623608,32.013363 C19.6570156,32.013363 19.3318486,31.6837416 19.3318486,31.2828508 Z" id="Shape"></path>
            </g>
        </g>
    </g>
</svg>