<?xml version="1.0" encoding="UTF-8"?>
<svg width="36px" height="36px" viewBox="0 0 36 36" version="1.1" xmlns="http://www.w3.org/2000/svg" xmlns:xlink="http://www.w3.org/1999/xlink">
    <!-- Generator: Sketch 48.2 (47327) - http://www.bohemiancoding.com/sketch -->
    <title>旅游运营管理平台</title>
    <desc>Created with Sketch.</desc>
    <defs></defs>
    <g id="项目案例3-copy-6" stroke="none" stroke-width="1" fill="none" fill-rule="evenodd" transform="translate(-563.000000, -418.000000)" opacity="0.699999988">
        <g id="设置-2" transform="translate(563.000000, 418.000000)" fill="#FFFFFF" fill-rule="nonzero">
            <path d="M32.0930746,21.5003673 L29.7851285,19.6760545 C29.799103,19.4447498 29.8059866,19.2254707 29.8059866,19.0134898 C29.8059866,18.801509 29.799103,18.581981 29.7850871,18.3501373 L32.091955,16.5261147 L32.1030682,16.5171992 C33.0040285,15.7801178 33.2377383,14.5126695 32.6594766,13.5046406 L29.8181365,8.53470061 C29.3999802,7.80072921 28.6167456,7.34475467 27.7741299,7.34475467 C27.4792973,7.34475467 27.1877821,7.39957446 26.9077119,7.50763827 L24.1979062,8.60892709 C23.8370162,8.36978511 23.4653032,8.15104506 23.0860846,7.95469734 L22.6755168,5.02839074 L22.6738996,5.01727751 C22.4981611,3.87447989 21.4953572,3.01270627 20.3412389,3.01270627 L14.6566513,3.01270623 C13.4871488,3.01270623 12.5055346,3.85888815 12.3226638,5.02474158 L11.9108934,7.95507051 C11.5331262,8.15096207 11.1612059,8.36970216 10.7986157,8.60925881 L8.09453245,7.50921401 L8.08258987,7.50444527 C7.81844313,7.40160636 7.53824851,7.34944045 7.2498019,7.34944045 C6.39010163,7.34944045 5.59720519,7.80359041 5.18116367,8.53366387 L2.34003094,13.5032307 C1.76035942,14.517687 1.99933551,15.7893235 2.90829895,16.5269026 L5.21222267,18.3490176 C5.19808234,18.5775025 5.19111581,18.7974451 5.19111581,19.0135313 C5.19111581,19.2290784 5.19804084,19.4487307 5.21222267,19.6769253 L2.90220325,21.500865 L2.88727503,21.5129319 C1.99170553,22.2533308 1.76239132,23.5193692 2.34007239,24.5198925 L5.18406637,29.4974625 C5.60433754,30.2277433 6.38902348,30.6814786 7.23192949,30.6814786 C7.52941598,30.6814786 7.82126291,30.6253319 8.09934268,30.5146971 L10.801477,29.4164768 C11.1648965,29.6569458 11.5364022,29.87552 11.9124692,30.0703334 L12.3231199,33.0013673 L12.3252348,33.015632 C12.5075251,34.1739384 13.4880196,35.0146466 14.6566514,35.0146466 L20.3396218,35.0146466 C21.48922,35.0146466 22.4932265,34.150302 22.6750607,33.0041455 L23.0864164,30.0697943 C23.468745,29.8713732 23.8402092,29.6530063 24.1973256,29.4168915 L26.9014919,30.5180559 L26.9080022,30.5206683 C27.1813133,30.6293542 27.4710039,30.6844642 27.7691539,30.6844642 C28.6096133,30.6844642 29.3939675,30.2291531 29.8178048,29.4932742 L32.6527175,24.5265686 C33.2343794,23.521484 32.9994256,22.2495158 32.0930746,21.5003673 Z M31.1749054,23.6726324 L28.337173,28.6442311 C28.2187424,28.8498675 28.0010805,28.9776283 27.7691538,28.9776283 C27.6888316,28.9776283 27.6121171,28.9634465 27.5410422,28.935539 L23.976761,27.4841416 L23.5936031,27.7601066 C23.077957,28.1314464 22.5215072,28.4588723 21.9397209,28.7333444 L21.5226842,28.9300653 L20.9883779,32.7426942 C20.9341801,33.0652684 20.6563491,33.3077692 20.3395803,33.3077692 L14.6566513,33.3077692 C14.3354455,33.3077692 14.0653275,33.0760499 14.0121664,32.7559222 L13.4756623,28.9267479 L13.055474,28.7308148 C12.4932603,28.4687414 11.9375568,28.1417717 11.4036652,27.758987 L11.0211293,27.4847222 L7.46605385,28.9296506 C7.39029309,28.959507 7.31150519,28.9746426 7.23188795,28.9746426 C7.00132973,28.9746426 6.77815266,28.8456793 6.66461514,28.6483778 L3.81999914,23.6697711 C3.65964505,23.3920645 3.72250949,23.0414584 3.96894972,22.8330852 L6.99452906,20.4441535 L6.94870769,19.9798025 C6.91445569,19.6326797 6.89782729,19.3166159 6.89782729,19.0134898 C6.89782729,18.7097832 6.91445569,18.3934706 6.94870769,18.0464721 L6.9944876,17.5825359 L3.98031177,15.1987876 C3.72226072,14.9868481 3.65703263,14.6384398 3.82178223,14.3501176 L6.66337113,9.37972139 C6.77367416,9.18619345 7.00929142,9.05619343 7.24971891,9.05619343 C7.32373807,9.05619343 7.39398367,9.06863363 7.45867269,9.09314081 L11.0173143,10.5408475 L11.3998917,10.266873 C11.9311294,9.88645192 12.4880354,9.55890163 13.0551008,9.29330352 L13.4738792,9.09716315 L14.0095954,5.28387078 C14.0642078,4.95130294 14.3295156,4.71950071 14.6565683,4.71950071 L20.3411975,4.71950071 C20.653861,4.71950071 20.9363778,4.96212595 20.9862629,5.27259168 L21.5229329,9.09753637 L21.9423332,9.29359382 C22.5126331,9.56018718 23.0681292,9.88719836 23.5934371,10.2655461 L23.9763462,10.5413452 L27.5277725,9.09786813 C27.6092143,9.0671823 27.6920246,9.0515906 27.7740054,9.0515906 C28.004771,9.0515906 28.219779,9.17731947 28.3356801,9.38075812 L31.1782642,14.3528959 C31.3392403,14.6335052 31.2752977,14.9857286 31.0265768,15.1926504 L28.0063467,17.5806699 L28.0494313,18.0419937 C28.0828539,18.4001054 28.0991091,18.7178694 28.0991091,19.0134898 C28.0991091,19.309442 28.0828125,19.6269158 28.0494313,19.9840737 L28.0062638,20.4456463 L31.0114412,22.8206865 C31.2720634,23.0404218 31.3394063,23.389618 31.1749054,23.6726324 Z" id="Shape"></path>
            <path d="M17.5011015,12.148162 C13.7430435,12.148162 10.6856173,15.2279806 10.6856173,19.0135313 C10.6856173,22.7992064 13.7430021,25.8790665 17.5011015,25.8790665 C21.2582056,25.8790665 24.3148025,22.7992479 24.3148025,19.0135313 C24.3148025,15.2279391 21.2582056,12.148162 17.5011015,12.148162 Z M17.5011015,24.1723549 C14.6841441,24.1723549 12.3923703,21.8581058 12.3923703,19.0135313 C12.3923703,16.1690397 14.6841442,13.854915 17.5011015,13.854915 C20.317105,13.854915 22.6080909,16.1690397 22.6080909,19.0135313 C22.6080909,21.8581058 20.317105,24.1723549 17.5011015,24.1723549 Z" id="Shape"></path>
        </g>
    </g>
</svg>