<?xml version="1.0" encoding="UTF-8"?>
<svg width="406px" height="101px" viewBox="0 0 406 101" version="1.1" xmlns="http://www.w3.org/2000/svg" xmlns:xlink="http://www.w3.org/1999/xlink">
    <!-- Generator: Sketch 48.2 (47327) - http://www.bohemiancoding.com/sketch -->
    <title>终端直采 海量资源 分销商采购55555管理利器@2x</title>
    <desc>Created with Sketch.</desc>
    <defs></defs>
    <g id="智慧旅游-copy" stroke="none" stroke-width="1" fill="none" fill-rule="evenodd" transform="translate(-513.000000, -1860.000000)">
        <g id="Group-Copy-3" transform="translate(513.000000, 1860.000000)" fill="#FFFFFF">
            <path d="M52.9359996,8.274 L53.9439996,8.274 C59.3199996,13.986 65.4519996,18.522 72.4239996,21.798 L71.7099996,23.016 C64.5699996,19.572 58.4799996,15.078 53.4399996,9.618 C48.7779996,14.91 42.6459996,19.53 35.0019996,23.394 L34.3299996,22.134 C41.7639996,18.438 47.9799996,13.818 52.9359996,8.274 Z M41.7639996,21.84 L65.1999996,21.84 L65.1999996,23.226 L54.1539996,23.226 L54.1539996,32.13 L66.9219996,32.13 L66.9219996,33.516 L54.1539996,33.516 L54.1539996,43.134 L70.7439996,43.134 L70.7439996,44.562 L36.1779996,44.562 L36.1779996,43.134 L52.7259996,43.134 L52.7259996,33.516 L39.9159996,33.516 L39.9159996,32.13 L52.7259996,32.13 L52.7259996,23.226 L41.7639996,23.226 L41.7639996,21.84 Z M89.9799997,14.112 L105.394,14.112 C105.352,12.096 105.352,9.996 105.352,7.854 L106.78,7.854 C106.78,10.038 106.78,12.138 106.822,14.112 L112.66,14.112 C111.904,12.264 111.106,10.626 110.224,9.156 L111.568,8.904 C112.408,10.416 113.206,12.18 113.92,14.112 L116.23,14.112 L116.23,15.54 L106.864,15.54 C106.99,23.856 107.41,30.24 108.082,34.608 C110.266,30.576 111.946,25.746 113.08,20.034 L114.382,20.58 C112.954,27.09 110.98,32.424 108.418,36.624 L108.502,37.002 C109.552,41.874 110.812,44.31 112.282,44.352 C113.332,44.184 114.34,41.874 115.264,37.422 L116.356,38.304 C115.264,43.302 113.92,45.822 112.282,45.822 C110.98,45.822 109.846,44.73 108.838,42.546 C108.25,41.328 107.788,39.9 107.41,38.22 C105.142,41.496 102.454,44.058 99.4299997,45.822 L98.5479997,44.73 C101.866,42.798 104.68,40.026 107.032,36.414 C106.78,35.112 106.57,33.726 106.402,32.256 C105.856,27.93 105.52,22.344 105.436,15.54 L89.9799997,15.54 L89.9799997,14.112 Z M91.8279997,20.748 L101.74,20.748 L101.74,31.92 L91.8279997,31.92 L91.8279997,20.748 Z M100.354,30.66 L100.354,22.05 L93.1719997,22.05 L93.1719997,30.66 L100.354,30.66 Z M102.58,35.574 L102.58,36.918 C98.4219997,38.556 93.8859997,39.9 89.0139997,40.95 L88.6779997,39.606 C93.5919997,38.64 98.2119997,37.296 102.58,35.574 Z M78.8499997,19.614 L83.5539997,19.614 L83.5539997,7.854 L84.9399997,7.854 L84.9399997,19.614 L89.5179997,19.614 L89.5179997,21.042 L84.9399997,21.042 L84.9399997,35.7 C86.5359997,35.028 88.0899997,34.272 89.5599997,33.516 L89.5599997,34.986 C86.2839997,36.75 82.7559997,38.178 78.9339997,39.312 L78.5559997,37.884 C80.2779997,37.422 81.9579997,36.876 83.5539997,36.246 L83.5539997,21.042 L78.8499997,21.042 L78.8499997,19.614 Z M142.9,14.574 C141.514,17.304 139.96,19.53 138.238,21.294 L137.146,20.37 C140.17,17.262 142.48,13.062 144.076,7.686 L145.42,8.232 C144.832,10.038 144.202,11.676 143.572,13.188 L158.902,13.188 L158.902,14.574 L142.9,14.574 Z M158.566,26.796 L159.49,27.846 C157.6,29.946 155.206,31.668 152.35,33.012 C154.198,37.674 156.844,41.538 160.33,44.646 L159.448,45.78 C153.232,40.404 149.536,32.508 148.444,22.134 C146.68,22.47 144.916,22.806 143.152,23.058 L143.152,43.638 C145.882,43.008 148.57,42.252 151.216,41.328 L151.468,42.756 C148.654,43.638 145.336,44.52 141.472,45.444 L141.178,44.1 C141.556,43.974 141.766,43.764 141.766,43.428 L141.766,21.924 C146.89,21.336 151.804,20.16 156.424,18.312 L157.222,19.53 C154.87,20.454 152.35,21.21 149.746,21.84 C150.082,25.452 150.796,28.77 151.846,31.752 C154.534,30.45 156.76,28.812 158.566,26.796 Z M122.95,14.448 L137.944,14.448 L137.944,15.834 L128.41,15.834 L128.41,22.764 L136.81,22.764 C136.81,33.18 136.558,39.564 136.096,41.916 C135.676,44.436 133.912,45.696 130.888,45.696 C130.552,45.696 129.964,45.654 129.166,45.612 L128.788,44.31 C129.502,44.352 130.132,44.394 130.636,44.394 C132.904,44.394 134.248,43.512 134.668,41.832 C135.172,39.732 135.424,33.81 135.424,24.15 L128.368,24.15 C128.116,33.978 126.352,41.244 123.16,45.948 L122.11,44.982 C125.302,40.278 126.94,32.676 127.024,22.218 L127.024,15.834 L122.95,15.834 L122.95,14.448 Z M129.166,7.644 C130.216,9.576 131.056,11.34 131.686,12.936 L130.342,13.398 C129.67,11.55 128.788,9.786 127.78,8.022 L129.166,7.644 Z M192.166,15.75 C191.074,18.648 189.688,21.084 188.05,23.1 L187.168,22.05 C189.982,18.438 191.872,13.566 192.88,7.434 L194.308,7.686 C193.888,10.122 193.342,12.306 192.67,14.322 L204.136,14.322 L204.136,15.75 L192.166,15.75 Z M167.764,9.072 C170.116,10.794 172.048,12.516 173.644,14.196 L172.594,15.246 C171.124,13.566 169.192,11.844 166.756,10.038 L167.764,9.072 Z M167.596,19.53 C170.032,21.378 172.048,23.268 173.644,25.2 L172.636,26.208 C171.124,24.36 169.108,22.47 166.588,20.496 L167.596,19.53 Z M172.006,30.66 L173.266,31.164 C171.586,36.246 169.696,40.992 167.638,45.444 L166.294,44.898 C168.52,40.278 170.41,35.532 172.006,30.66 Z M178.642,16.422 L174.778,16.422 L174.778,15.036 L181.414,15.036 C180.784,12.39 180.07,9.996 179.314,7.854 L180.742,7.602 C181.498,9.744 182.17,12.222 182.8,15.036 L188.05,15.036 L188.05,16.422 L180.028,16.422 L180.028,20.034 C180.028,21.378 179.986,22.722 179.902,24.024 L187.084,24.024 C187.084,33.096 186.874,38.724 186.454,40.908 C186.202,43.764 185.068,45.234 182.968,45.234 C182.38,45.234 181.33,45.192 179.86,45.192 L179.524,43.89 C180.826,43.89 181.96,43.932 182.926,43.932 C184.186,43.932 184.9,42.84 185.11,40.698 C185.446,38.85 185.614,33.768 185.656,25.452 L179.818,25.452 C179.23,34.524 177.34,41.37 174.148,45.948 L173.098,44.982 C176.71,39.774 178.558,31.458 178.642,20.034 L178.642,16.422 Z M191.83,21.714 L202.624,21.714 L202.624,23.016 C201.196,24.948 199.6,26.796 197.878,28.56 L197.878,32.172 L204.262,32.172 L204.262,33.516 L197.878,33.516 L197.878,42.504 C197.878,44.436 196.954,45.402 195.106,45.402 L191.662,45.402 L191.326,44.016 C192.334,44.016 193.426,44.058 194.602,44.058 C195.82,44.058 196.45,43.344 196.45,42 L196.45,33.516 L189.31,33.516 L189.31,32.172 L196.45,32.172 L196.45,28.266 C198.634,25.956 200.146,24.192 200.986,23.016 L191.83,23.016 L191.83,21.714 Z M224.002,8.946 L225.22,9.66 C223.246,13.23 221.272,16.17 219.298,18.438 C216.946,21.084 214.174,23.436 210.898,25.536 L210.1,24.276 C213.25,22.428 215.938,20.16 218.206,17.514 C220.39,14.994 222.322,12.138 224.002,8.946 Z M225.556,26.544 L216.106,26.544 L216.106,25.158 L240.592,25.158 C240.508,30.198 240.256,34.23 239.878,37.338 C239.458,40.362 238.786,42.504 237.862,43.764 C236.938,44.94 235.468,45.612 233.452,45.696 L226.228,45.696 L225.85,44.268 C228.286,44.31 230.554,44.352 232.696,44.352 C235.174,44.352 236.812,43.218 237.568,41.034 C238.408,38.766 238.912,33.936 239.164,26.544 L226.942,26.544 C225.934,31.5 224.506,35.364 222.616,38.22 C220.474,41.16 217.282,43.764 212.998,46.116 L212.116,44.94 C216.148,42.756 219.172,40.32 221.188,37.716 C223.162,34.902 224.632,31.164 225.556,26.544 Z M234.292,8.316 C236.896,15.12 241.348,20.412 247.69,24.276 L246.766,25.41 C240.214,21.21 235.636,15.75 233.074,8.988 L234.292,8.316 Z M280.156,7.98 L281.542,7.98 L281.542,20.16 L289.69,20.16 L289.69,42.882 C289.69,44.772 288.724,45.738 286.876,45.738 L282.424,45.738 L282.004,44.31 L286.372,44.394 C287.59,44.394 288.22,43.764 288.22,42.588 L288.22,36.162 L273.394,36.162 L273.394,45.948 L271.966,45.948 L271.966,20.16 L280.156,20.16 L280.156,7.98 Z M273.394,28.854 L273.394,34.818 L288.22,34.818 L288.22,28.854 L273.394,28.854 Z M288.22,27.552 L288.22,21.546 L273.394,21.546 L273.394,27.552 L288.22,27.552 Z M272.134,9.576 C273.562,11.844 274.948,14.28 276.208,16.884 L275.032,17.472 C273.73,14.742 272.344,12.306 270.916,10.206 L272.134,9.576 Z M289.522,9.282 L290.782,9.87 C289.69,12.474 288.262,15.036 286.54,17.514 L285.364,16.884 C287.086,14.322 288.472,11.802 289.522,9.282 Z M259.912,7.938 L261.34,8.232 C260.878,9.954 260.374,11.592 259.828,13.146 L268.48,13.146 L268.48,14.532 L259.366,14.532 C258.19,17.598 256.762,20.412 255.166,22.932 L253.99,22.176 C256.636,18.06 258.61,13.314 259.912,7.938 Z M257.938,21.63 L267.682,21.63 L267.682,22.932 L262.768,22.932 L262.768,29.778 L269.11,29.778 L269.11,31.164 L262.768,31.164 L262.768,43.008 C264.868,42.336 267.052,41.328 269.236,40.026 L269.488,41.412 C267.052,42.84 264.28,43.974 261.13,44.856 L260.5,43.596 C261.046,43.428 261.34,43.176 261.34,42.84 L261.34,31.164 L254.998,31.164 L254.998,29.778 L261.34,29.778 L261.34,22.932 L257.938,22.932 L257.938,21.63 Z M300.064,10.248 L333.58,10.248 L333.58,11.676 L317.326,11.676 L317.326,29.148 L335.176,29.148 L335.176,30.534 L317.326,30.534 L317.326,45.99 L315.898,45.99 L315.898,30.534 L298.384,30.534 L298.384,29.148 L315.898,29.148 L315.898,11.676 L300.064,11.676 L300.064,10.248 Z M303.97,15.498 C305.65,18.522 307.246,21.84 308.716,25.41 L307.372,26.04 C305.902,22.344 304.348,19.026 302.668,16.17 L303.97,15.498 Z M329.632,15.204 L330.976,15.792 C329.59,19.278 327.784,22.68 325.558,25.998 L324.298,25.326 C326.566,21.924 328.33,18.564 329.632,15.204 Z M374.152,29.106 L374.152,46.032 L372.724,46.032 L372.724,43.344 L348.616,43.344 L348.616,46.032 L347.188,46.032 L347.188,29.106 L374.152,29.106 Z M348.616,41.916 L372.724,41.916 L372.724,30.492 L348.616,30.492 L348.616,41.916 Z M343.786,24.066 L343.492,22.722 C348.028,20.538 352.858,15.582 358.024,7.896 L359.41,8.4 C354.958,14.952 350.59,19.656 346.306,22.596 C356.134,22.218 365.038,21.63 372.934,20.79 C370.918,18.06 368.86,15.54 366.76,13.272 L368.062,12.6 C371.926,16.884 375.496,21.546 378.772,26.586 L377.428,27.258 C376.252,25.452 375.118,23.73 373.942,22.134 C364.996,22.974 354.958,23.604 343.786,24.066 Z" id="全域旅游分销平台"></path>
            <path d="M7.68499931,93.394 L7.68499931,94.142 C5.66099931,94.89 3.39499931,95.484 0.842999309,95.924 L0.710999309,95.176 C3.35099931,94.736 5.68299931,94.142 7.68499931,93.394 Z M4.84699931,77.136 L5.55099931,77.422 C4.27499931,80.546 3.02099931,82.966 1.76699931,84.638 C3.08699931,84.462 4.40699931,84.22 5.77099931,83.868 C6.25499931,82.922 6.76099931,81.932 7.26699931,80.876 L7.92699931,81.118 C5.59499931,85.738 3.72499931,88.862 2.31699931,90.49 C3.87899931,90.182 5.39699931,89.742 6.87099931,89.17 L6.87099931,89.896 C5.02299931,90.556 3.19699931,91.04 1.43699931,91.304 L1.21699931,90.6 C1.34899931,90.534 1.48099931,90.468 1.59099931,90.38 C2.69099931,89.192 3.94499931,87.256 5.39699931,84.594 C3.85699931,84.946 2.38299931,85.21 1.01899931,85.43 L0.842999309,84.726 C0.952999309,84.682 1.06299931,84.572 1.15099931,84.44 C2.55899931,82.416 3.79099931,79.974 4.84699931,77.136 Z M12.2169993,88.928 C14.3289993,89.698 16.2649993,90.622 18.0029993,91.722 L17.6069993,92.316 C15.7149993,91.128 13.7789993,90.182 11.8209993,89.522 L12.2169993,88.928 Z M9.55499931,93.02 C13.0529993,93.944 16.2429993,95.066 19.1469993,96.386 L18.7289993,97.024 C15.6049993,95.616 12.3929993,94.494 9.09299931,93.68 L9.55499931,93.02 Z M11.9749993,77.092 L12.7449993,77.18 C12.5249993,78.016 12.2609993,78.786 11.9529993,79.49 L18.7069993,79.49 L18.7069993,80.106 C17.6949993,82.064 16.4409993,83.736 14.9669993,85.144 C16.6609993,86.464 18.5529993,87.586 20.6209993,88.466 L20.2249993,89.126 C18.0909993,88.18 16.1549993,87.014 14.4389993,85.628 C12.5909993,87.234 10.4129993,88.466 7.90499931,89.324 L7.53099931,88.664 C9.97299931,87.872 12.0849993,86.706 13.8889993,85.188 C12.7009993,84.176 11.6009993,83.076 10.6109993,81.888 C9.97299931,82.768 9.24699931,83.604 8.45499931,84.352 L7.97099931,83.736 C9.95099931,81.932 11.2929993,79.71 11.9749993,77.092 Z M14.4169993,84.726 C15.7589993,83.428 16.9029993,81.932 17.8489993,80.216 L11.6009993,80.216 C11.4029993,80.59 11.2049993,80.942 11.0069993,81.272 C12.0189993,82.548 13.1629993,83.692 14.4169993,84.726 Z M23.6569994,81.074 L26.8689994,81.074 C26.5169994,79.776 26.1429994,78.588 25.7249994,77.532 L26.4949994,77.4 C26.8909994,78.478 27.2429994,79.71 27.5949994,81.074 L30.4109994,81.074 L30.4109994,81.822 L23.6569994,81.822 L23.6569994,81.074 Z M24.8669994,83.582 C25.4389994,86.134 25.9669994,89.082 26.4509994,92.404 L25.7909994,92.558 C25.3729994,89.522 24.8449994,86.596 24.2069994,83.78 L24.8669994,83.582 Z M30.4769994,92.8 L30.4769994,93.526 C28.4309994,94.362 26.2089994,95.066 23.8109994,95.616 L23.6349994,94.868 C24.9769994,94.604 26.2749994,94.274 27.5069994,93.878 C28.1889994,90.534 28.6729994,86.948 28.9369994,83.164 L29.6409994,83.274 C29.3329994,87.036 28.8709994,90.49 28.2329994,93.636 C29.0029994,93.372 29.7509994,93.086 30.4769994,92.8 Z M41.4109994,81.69 L41.4109994,78.038 L42.1589994,78.038 L42.1589994,82.372 L32.2149994,82.372 L32.2149994,78.038 L32.9629994,78.038 L32.9629994,81.69 L36.7909994,81.69 L36.7909994,77.158 L37.5389994,77.158 L37.5389994,81.69 L41.4109994,81.69 Z M31.0269994,84.88 L43.5009994,84.88 L43.5009994,85.628 L37.3849994,85.628 C37.1869994,86.596 36.9009994,87.52 36.5049994,88.4 L42.6209994,88.4 L42.6209994,95.638 C42.6209994,96.562 42.2689994,97.024 41.5649994,97.024 L40.5529994,97.024 L40.3549994,96.298 L41.3229994,96.342 C41.7189994,96.342 41.9389994,96.056 41.9389994,95.484 L41.9389994,89.104 L39.1669994,89.104 L39.1669994,96.738 L38.5069994,96.738 L38.5069994,89.104 L35.9989994,89.104 L35.9989994,96.738 L35.3169994,96.738 L35.3169994,89.104 L32.5889994,89.104 L32.5889994,97.024 L31.8849994,97.024 L31.8849994,88.4 L35.7789994,88.4 C36.1749994,87.52 36.4609994,86.596 36.6369994,85.628 L31.0269994,85.628 L31.0269994,84.88 Z M47.3729994,79.468 L56.1069994,79.468 C56.2169994,78.676 56.3049994,77.884 56.3709994,77.092 L57.1409994,77.202 C57.0749994,77.972 56.9869994,78.72 56.8769994,79.468 L65.8089994,79.468 L65.8089994,80.194 L56.7669994,80.194 C56.6349994,81.074 56.4809994,81.888 56.3049994,82.636 L62.8389994,82.636 L62.8389994,95.66 L66.2709994,95.66 L66.2709994,96.386 L46.9329994,96.386 L46.9329994,95.66 L50.2549994,95.66 L50.2549994,82.636 L55.5349994,82.636 C55.7109994,81.844 55.8649994,81.03 55.9969994,80.194 L47.3729994,80.194 L47.3729994,79.468 Z M51.0029994,95.66 L62.0909994,95.66 L62.0909994,92.976 L51.0029994,92.976 L51.0029994,95.66 Z M51.0029994,92.294 L62.0909994,92.294 L62.0909994,89.742 L51.0029994,89.742 L51.0029994,92.294 Z M51.0029994,89.082 L62.0909994,89.082 L62.0909994,86.552 L51.0029994,86.552 L51.0029994,89.082 Z M51.0029994,85.892 L62.0909994,85.892 L62.0909994,83.34 L51.0029994,83.34 L51.0029994,85.892 Z M86.7969995,80.15 L87.4789995,80.502 C86.5109995,82.372 85.3889995,84 84.1129995,85.364 L83.5189995,84.924 C84.7729995,83.604 85.8729995,81.998 86.7969995,80.15 Z M79.0969995,80.524 C79.8009995,81.668 80.4169995,82.966 80.9449995,84.44 L80.1969995,84.638 C79.7349995,83.274 79.1409995,81.998 78.4149995,80.766 L79.0969995,80.524 Z M73.0689995,80.986 C73.8829995,82.24 74.5869995,83.582 75.1809995,85.012 L74.4989995,85.32 C73.8389995,83.78 73.1349995,82.394 72.3649995,81.206 L73.0689995,80.986 Z M87.5669995,77.356 L87.9629995,78.016 C83.7609995,78.918 78.1729995,79.38 71.2209995,79.38 L70.9789995,78.676 C77.8209995,78.654 83.3429995,78.214 87.5669995,77.356 Z M70.8909995,87.674 L79.2069995,87.674 L79.2069995,85.188 L79.9549995,85.188 L79.9549995,87.674 L88.2929995,87.674 L88.2929995,88.422 L81.2749995,88.422 C82.7709995,91.04 85.4769995,93.372 89.4149995,95.418 L88.9089995,96.034 C84.8829995,93.79 82.1109995,91.238 80.5929995,88.422 L79.9549995,88.422 L79.9549995,96.98 L79.2069995,96.98 L79.2069995,88.422 L78.5909995,88.422 C77.0069995,91.634 74.2129995,94.252 70.2089995,96.276 L69.8129995,95.594 C73.6409995,93.768 76.3469995,91.37 77.9309995,88.422 L70.8909995,88.422 L70.8909995,87.674 Z M109.149,79.864 C108.357,81.184 107.455,82.372 106.399,83.406 L105.893,82.834 C107.543,81.25 108.797,79.314 109.677,77.048 L110.403,77.224 C110.139,77.906 109.853,78.544 109.545,79.138 L120.259,79.138 L120.259,79.864 L109.149,79.864 Z M105.541,87.542 L108.093,87.542 C108.269,85.826 108.379,84.088 108.423,82.306 L119.005,82.306 C118.939,84.286 118.873,86.024 118.807,87.542 L120.897,87.542 L120.897,88.268 L118.785,88.268 C118.697,90.336 118.609,91.92 118.521,93.064 L120.545,93.064 L120.545,93.768 L118.455,93.768 C118.367,94.472 118.301,94.912 118.257,95.088 C118.037,95.77 117.597,96.298 116.981,96.65 C116.387,96.914 115.507,97.068 114.319,97.068 L112.669,97.068 L112.449,96.342 C113.109,96.364 113.703,96.386 114.231,96.386 C114.935,96.386 115.595,96.32 116.167,96.188 C116.761,96.012 117.201,95.616 117.487,95 C117.553,94.846 117.619,94.428 117.707,93.768 L107.191,93.768 C107.543,92.008 107.807,90.182 108.027,88.268 L105.541,88.268 L105.541,87.542 Z M108.731,88.268 C108.555,90.028 108.313,91.634 108.027,93.064 L117.773,93.064 C117.861,91.92 117.971,90.314 118.059,88.268 L108.731,88.268 Z M118.103,87.542 C118.147,86.178 118.213,84.682 118.257,83.01 L109.083,83.01 C109.017,84.638 108.929,86.134 108.797,87.542 L118.103,87.542 Z M112.295,83.912 C113.439,84.704 114.385,85.496 115.133,86.288 L114.649,86.794 C113.923,86.024 112.977,85.232 111.811,84.396 L112.295,83.912 Z M112.163,89.236 C113.263,90.072 114.187,90.93 114.935,91.788 L114.429,92.294 C113.725,91.458 112.801,90.6 111.657,89.698 L112.163,89.236 Z M102.087,77.708 C103.473,78.588 104.639,79.49 105.563,80.37 L105.035,80.898 C104.155,80.062 103.011,79.16 101.559,78.236 L102.087,77.708 Z M101.735,83.076 C103.121,84 104.287,84.902 105.211,85.804 L104.683,86.354 C103.803,85.474 102.637,84.55 101.207,83.582 L101.735,83.076 Z M104.771,89.324 L105.409,89.588 C104.419,92.14 103.319,94.538 102.109,96.782 L101.405,96.496 C102.703,94.164 103.825,91.766 104.771,89.324 Z M126.551,86.31 L141.247,86.31 L141.247,91.744 L134.229,91.744 L134.229,93.394 L141.995,93.394 L141.995,94.01 L134.229,94.01 L134.229,95.726 L143.645,95.726 L143.645,96.386 L124.109,96.386 L124.109,95.726 L133.481,95.726 L133.481,94.01 L125.803,94.01 L125.803,93.394 L133.481,93.394 L133.481,91.744 L126.551,91.744 L126.551,86.31 Z M140.521,91.15 L140.521,89.346 L134.229,89.346 L134.229,91.15 L140.521,91.15 Z M133.481,91.15 L133.481,89.346 L127.277,89.346 L127.277,91.15 L133.481,91.15 Z M127.277,88.774 L133.481,88.774 L133.481,86.882 L127.277,86.882 L127.277,88.774 Z M134.229,86.882 L134.229,88.774 L140.521,88.774 L140.521,86.882 L134.229,86.882 Z M127.035,77.532 L140.785,77.532 L140.785,82.746 L127.035,82.746 L127.035,77.532 Z M140.037,82.152 L140.037,80.414 L127.783,80.414 L127.783,82.152 L140.037,82.152 Z M127.783,79.842 L140.037,79.842 L140.037,78.126 L127.783,78.126 L127.783,79.842 Z M124.109,84.22 L143.645,84.22 L143.645,84.88 L124.109,84.88 L124.109,84.22 Z M148.287,77.862 C149.607,78.28 150.839,78.786 151.939,79.38 L151.543,79.996 C150.355,79.336 149.145,78.808 147.913,78.434 L148.287,77.862 Z M155.943,77.092 L156.669,77.18 C156.471,77.774 156.229,78.346 155.943,78.874 L165.205,78.874 L165.205,79.358 C164.897,80.458 164.523,81.514 164.039,82.57 L163.313,82.35 C163.775,81.492 164.149,80.568 164.413,79.556 L159.815,79.556 C159.705,80.216 159.551,80.81 159.331,81.338 C160.475,83.296 162.807,84.638 166.371,85.342 L166.107,86.002 C162.675,85.298 160.299,83.978 159.023,82.02 C158.693,82.636 158.297,83.186 157.813,83.67 C156.713,84.66 154.953,85.43 152.577,85.98 L152.269,85.298 C154.557,84.792 156.229,84.088 157.263,83.186 C158.209,82.306 158.825,81.096 159.089,79.556 L155.503,79.556 C154.887,80.414 154.139,81.184 153.215,81.888 L152.753,81.272 C154.337,80.128 155.393,78.742 155.943,77.092 Z M163.665,86.97 L163.665,93.482 L162.917,93.482 L162.917,87.696 L150.729,87.696 L150.729,93.548 L149.959,93.548 L149.959,86.97 L163.665,86.97 Z M156.603,88.928 L157.373,89.016 C157.065,91.766 156.405,93.658 155.349,94.714 C154.161,95.946 151.697,96.694 147.957,97.002 L147.649,96.342 C151.213,96.122 153.589,95.418 154.755,94.252 C155.789,93.196 156.405,91.414 156.603,88.928 Z M151.741,81.888 L152.181,82.394 C151.081,83.582 149.717,84.726 148.089,85.782 L147.583,85.188 C149.233,84.176 150.619,83.076 151.741,81.888 Z M158.011,93.548 C160.871,94.34 163.489,95.33 165.843,96.474 L165.447,97.112 C162.895,95.836 160.299,94.846 157.615,94.12 L158.011,93.548 Z M171.101,77.73 C172.685,78.874 174.027,79.996 175.083,81.14 L174.577,81.668 C173.565,80.568 172.245,79.424 170.573,78.236 L171.101,77.73 Z M170.705,83.12 C172.201,84.22 173.433,85.32 174.423,86.42 L173.895,86.926 C172.971,85.87 171.739,84.77 170.177,83.626 L170.705,83.12 Z M173.961,88.928 L174.621,89.192 C173.587,91.964 172.443,94.56 171.167,97.002 L170.463,96.694 C171.805,94.186 172.971,91.59 173.961,88.928 Z M179.505,81.646 L182.849,81.646 C183.201,80.788 183.465,79.886 183.619,78.962 L177.393,78.962 L177.393,86.442 C177.305,90.842 176.491,94.362 174.907,97.024 L174.335,96.518 C175.809,94.098 176.579,90.732 176.645,86.442 L176.645,78.258 L189.449,78.258 L189.449,78.962 L184.345,78.962 C184.169,79.908 183.927,80.81 183.575,81.646 L188.173,81.646 L188.173,88.862 L184.279,88.862 L184.279,95.704 C184.279,96.584 183.817,97.046 182.915,97.046 L181.067,97.046 L180.913,96.342 C181.529,96.386 182.101,96.408 182.651,96.408 C183.245,96.408 183.553,96.1 183.553,95.528 L183.553,88.862 L179.505,88.862 L179.505,81.646 Z M187.447,88.202 L187.447,85.606 L180.209,85.606 L180.209,88.202 L187.447,88.202 Z M180.209,84.946 L187.447,84.946 L187.447,82.306 L180.209,82.306 L180.209,84.946 Z M180.385,90.776 L181.089,90.93 C180.495,92.866 179.637,94.538 178.537,95.946 L177.899,95.572 C178.999,94.186 179.835,92.58 180.385,90.776 Z M187.029,90.71 C188.019,92.25 188.877,93.878 189.625,95.638 L188.965,95.924 C188.173,94.032 187.315,92.382 186.369,90.93 L187.029,90.71 Z M208.545,77.686 L209.183,78.06 C208.149,79.93 207.115,81.47 206.081,82.658 C204.849,84.044 203.397,85.276 201.681,86.376 L201.263,85.716 C202.913,84.748 204.321,83.56 205.509,82.174 C206.653,80.854 207.665,79.358 208.545,77.686 Z M209.359,86.904 L204.409,86.904 L204.409,86.178 L217.235,86.178 C217.191,88.818 217.059,90.93 216.861,92.558 C216.641,94.142 216.289,95.264 215.805,95.924 C215.321,96.54 214.551,96.892 213.495,96.936 L209.711,96.936 L209.513,96.188 C210.789,96.21 211.977,96.232 213.099,96.232 C214.397,96.232 215.255,95.638 215.651,94.494 C216.091,93.306 216.355,90.776 216.487,86.904 L210.085,86.904 C209.557,89.5 208.809,91.524 207.819,93.02 C206.697,94.56 205.025,95.924 202.781,97.156 L202.319,96.54 C204.431,95.396 206.015,94.12 207.071,92.756 C208.105,91.282 208.875,89.324 209.359,86.904 Z M213.935,77.356 C215.299,80.92 217.631,83.692 220.953,85.716 L220.469,86.31 C217.037,84.11 214.639,81.25 213.297,77.708 L213.935,77.356 Z M237.959,77.18 L238.685,77.18 L238.685,83.56 L242.953,83.56 L242.953,95.462 C242.953,96.452 242.447,96.958 241.479,96.958 L239.147,96.958 L238.927,96.21 L241.215,96.254 C241.853,96.254 242.183,95.924 242.183,95.308 L242.183,91.942 L234.417,91.942 L234.417,97.068 L233.669,97.068 L233.669,83.56 L237.959,83.56 L237.959,77.18 Z M234.417,88.114 L234.417,91.238 L242.183,91.238 L242.183,88.114 L234.417,88.114 Z M242.183,87.432 L242.183,84.286 L234.417,84.286 L234.417,87.432 L242.183,87.432 Z M233.757,78.016 C234.505,79.204 235.231,80.48 235.891,81.844 L235.275,82.152 C234.593,80.722 233.867,79.446 233.119,78.346 L233.757,78.016 Z M242.865,77.862 L243.525,78.17 C242.953,79.534 242.205,80.876 241.303,82.174 L240.687,81.844 C241.589,80.502 242.315,79.182 242.865,77.862 Z M227.355,77.158 L228.103,77.312 C227.861,78.214 227.597,79.072 227.311,79.886 L231.843,79.886 L231.843,80.612 L227.069,80.612 C226.453,82.218 225.705,83.692 224.869,85.012 L224.253,84.616 C225.639,82.46 226.673,79.974 227.355,77.158 Z M226.321,84.33 L231.425,84.33 L231.425,85.012 L228.851,85.012 L228.851,88.598 L232.173,88.598 L232.173,89.324 L228.851,89.324 L228.851,95.528 C229.951,95.176 231.095,94.648 232.239,93.966 L232.371,94.692 C231.095,95.44 229.643,96.034 227.993,96.496 L227.663,95.836 C227.949,95.748 228.103,95.616 228.103,95.44 L228.103,89.324 L224.781,89.324 L224.781,88.598 L228.103,88.598 L228.103,85.012 L226.321,85.012 L226.321,84.33 Z M253.403,89.412 L260.861,89.412 L260.861,94.208 L253.403,94.208 L253.403,89.412 Z M260.135,93.526 L260.135,90.138 L254.129,90.138 L254.129,93.526 L260.135,93.526 Z M258.925,84.99 C260.817,86.354 262.379,87.718 263.633,89.082 L263.083,89.632 C261.917,88.312 260.355,86.926 258.419,85.474 L258.925,84.99 Z M256.659,76.938 C257.011,77.598 257.363,78.39 257.693,79.27 L266.779,79.27 L266.779,80.018 L261.851,80.018 C261.367,81.272 260.839,82.372 260.223,83.34 L265.349,83.34 L265.349,95.352 C265.349,96.452 264.821,97.002 263.787,97.002 L261.543,97.002 L261.345,96.276 L263.523,96.298 C264.249,96.298 264.623,95.924 264.623,95.198 L264.623,84.044 L249.619,84.044 L249.619,96.936 L248.893,96.936 L248.893,83.34 L253.711,83.34 C253.315,82.13 252.831,81.03 252.237,80.018 L247.507,80.018 L247.507,79.27 L256.923,79.27 C256.571,78.456 256.219,77.73 255.845,77.07 L256.659,76.938 Z M254.481,83.34 L259.431,83.34 C260.025,82.306 260.553,81.206 260.993,80.018 L253.095,80.018 C253.601,80.942 254.063,82.064 254.481,83.34 Z M255.207,85.034 L255.757,85.518 C254.437,87.058 252.831,88.422 250.917,89.588 L250.433,88.972 C252.325,87.85 253.909,86.53 255.207,85.034 Z M287.349,80.15 L288.031,80.502 C287.063,82.372 285.941,84 284.665,85.364 L284.071,84.924 C285.325,83.604 286.425,81.998 287.349,80.15 Z M279.649,80.524 C280.353,81.668 280.969,82.966 281.497,84.44 L280.749,84.638 C280.287,83.274 279.693,81.998 278.967,80.766 L279.649,80.524 Z M273.621,80.986 C274.435,82.24 275.139,83.582 275.733,85.012 L275.051,85.32 C274.391,83.78 273.687,82.394 272.917,81.206 L273.621,80.986 Z M288.119,77.356 L288.515,78.016 C284.313,78.918 278.725,79.38 271.773,79.38 L271.531,78.676 C278.373,78.654 283.895,78.214 288.119,77.356 Z M271.443,87.674 L279.759,87.674 L279.759,85.188 L280.507,85.188 L280.507,87.674 L288.845,87.674 L288.845,88.422 L281.827,88.422 C283.323,91.04 286.029,93.372 289.967,95.418 L289.461,96.034 C285.435,93.79 282.663,91.238 281.145,88.422 L280.507,88.422 L280.507,96.98 L279.759,96.98 L279.759,88.422 L279.143,88.422 C277.559,91.634 274.765,94.252 270.761,96.276 L270.365,95.594 C274.193,93.768 276.899,91.37 278.483,88.422 L271.443,88.422 L271.443,87.674 Z M300.945,78.236 L300.945,91.722 L300.241,91.722 L300.241,78.94 L294.917,78.94 L294.917,91.722 L294.213,91.722 L294.213,78.236 L300.945,78.236 Z M304.817,77.048 L305.565,77.136 C305.323,78.346 304.993,79.468 304.597,80.524 L312.231,80.524 C312.231,87.96 312.099,92.492 311.835,94.164 C311.571,95.946 310.603,96.848 308.887,96.848 C308.315,96.848 307.347,96.826 305.983,96.804 L305.785,96.122 C306.929,96.144 307.941,96.166 308.777,96.166 C310.053,96.166 310.801,95.528 311.043,94.296 C311.329,92.756 311.483,88.4 311.505,81.272 L304.289,81.272 C303.673,82.68 302.925,83.912 302.045,85.012 L301.605,84.418 C303.189,82.416 304.245,79.952 304.817,77.048 Z M307.369,86.75 C308.205,88.554 308.975,90.512 309.701,92.624 L309.063,92.954 C308.865,92.36 308.667,91.81 308.491,91.282 C306.687,91.722 304.707,92.074 302.507,92.294 L302.353,91.634 C303.431,90.446 304.597,87.828 305.851,83.736 L306.533,83.956 C305.411,87.476 304.311,90.028 303.255,91.568 C305.103,91.348 306.775,91.04 308.249,90.644 C307.765,89.324 307.259,88.136 306.731,87.058 L307.369,86.75 Z M297.249,80.92 L297.953,80.92 L297.953,88.158 C297.931,90.556 297.579,92.47 296.919,93.9 C296.259,95.22 295.159,96.276 293.641,97.068 L293.245,96.43 C294.675,95.726 295.731,94.692 296.391,93.35 C296.963,92.03 297.249,90.292 297.249,88.158 L297.249,80.92 Z M298.767,92.558 C300.043,93.834 301.099,95.132 301.957,96.43 L301.429,96.936 C300.637,95.704 299.581,94.406 298.261,93.042 L298.767,92.558 Z M332.207,85.87 L332.207,89.72 L320.767,89.72 L320.767,91.81 L333.197,91.81 L333.197,97.068 L332.449,97.068 L332.449,95.968 L320.767,95.968 L320.767,97.046 L320.041,97.046 L320.041,85.87 L332.207,85.87 Z M320.767,95.264 L332.449,95.264 L332.449,92.47 L320.767,92.47 L320.767,95.264 Z M320.767,89.06 L331.459,89.06 L331.459,86.552 L320.767,86.552 L320.767,89.06 Z M335.221,83.384 L335.221,86.97 L334.495,86.97 L334.495,84.066 L317.731,84.066 L317.731,86.97 L317.005,86.97 L317.005,83.384 L326.069,83.384 C325.783,82.702 325.497,82.086 325.189,81.558 L325.915,81.426 C326.223,81.998 326.531,82.636 326.795,83.384 L335.221,83.384 Z M319.073,79.644 C318.501,80.612 317.819,81.47 317.049,82.24 L316.411,81.844 C317.819,80.436 318.875,78.83 319.579,77.004 L320.305,77.158 C320.041,77.796 319.777,78.39 319.469,78.962 L326.003,78.962 L326.003,79.644 L321.669,79.644 C322.329,80.502 322.835,81.294 323.187,82.042 L322.505,82.306 C322.021,81.404 321.471,80.524 320.833,79.644 L319.073,79.644 Z M328.599,79.644 C328.159,80.48 327.675,81.228 327.125,81.91 L326.465,81.492 C327.565,80.194 328.379,78.698 328.907,77.026 L329.633,77.18 C329.413,77.818 329.193,78.412 328.929,78.962 L335.727,78.962 L335.727,79.644 L331.283,79.644 C331.899,80.436 332.383,81.184 332.735,81.866 L332.053,82.108 C331.613,81.272 331.063,80.436 330.447,79.644 L328.599,79.644 Z M347.563,78.214 L357.727,78.214 L357.727,87.806 L353.019,87.806 L353.019,91.106 L358.255,91.106 L358.255,91.832 L353.019,91.832 L353.019,95.616 L359.113,95.616 L359.113,96.342 L346.023,96.342 L346.023,95.616 L352.271,95.616 L352.271,91.832 L347.035,91.832 L347.035,91.106 L352.271,91.106 L352.271,87.806 L347.563,87.806 L347.563,78.214 Z M356.979,87.102 L356.979,83.384 L353.019,83.384 L353.019,87.102 L356.979,87.102 Z M352.271,87.102 L352.271,83.384 L348.289,83.384 L348.289,87.102 L352.271,87.102 Z M348.289,82.702 L352.271,82.702 L352.271,78.918 L348.289,78.918 L348.289,82.702 Z M353.019,78.918 L353.019,82.702 L356.979,82.702 L356.979,78.918 L353.019,78.918 Z M339.533,85.584 L342.327,85.584 L342.327,79.556 L339.247,79.556 L339.247,78.83 L346.133,78.83 L346.133,79.556 L343.075,79.556 L343.075,85.584 L345.869,85.584 L345.869,86.332 L343.075,86.332 L343.075,92.338 C344.043,91.986 345.011,91.612 345.935,91.194 L345.935,91.942 C343.911,92.822 341.689,93.57 339.313,94.142 L339.137,93.438 C340.237,93.196 341.293,92.91 342.327,92.58 L342.327,86.332 L339.533,86.332 L339.533,85.584 Z M362.479,83.362 L367.275,83.362 L367.275,79.424 C365.823,79.732 364.283,79.93 362.699,80.062 L362.457,79.358 C365.933,79.116 369.013,78.456 371.675,77.378 L372.049,78.016 C370.795,78.522 369.453,78.94 368.045,79.27 L368.045,83.362 L372.313,83.362 L372.313,84.088 L368.045,84.088 L368.045,85.562 C369.453,86.882 370.905,88.378 372.379,90.094 L371.939,90.754 C370.421,88.862 369.123,87.41 368.045,86.354 L368.045,97.112 L367.275,97.112 L367.275,85.628 C366.175,88.268 364.547,90.622 362.413,92.69 L362.083,91.876 C364.591,89.588 366.307,86.992 367.253,84.088 L362.479,84.088 L362.479,83.362 Z M374.667,79.204 L375.415,79.204 L375.415,92.998 L374.667,92.998 L374.667,79.204 Z M378.957,96.892 L375.767,96.892 L375.613,96.166 C376.691,96.188 377.725,96.21 378.715,96.21 C379.529,96.21 379.947,95.77 379.947,94.934 L379.947,77.202 L380.717,77.202 L380.717,95.132 C380.717,96.298 380.123,96.892 378.957,96.892 Z M387.383001,78.148 L393.521001,78.148 L393.521001,82.9 L387.383001,82.9 L387.383001,78.148 Z M392.795001,82.218 L392.795001,78.83 L388.109001,78.83 L388.109001,82.218 L392.795001,82.218 Z M396.623001,78.148 L402.805001,78.148 L402.805001,82.9 L396.623001,82.9 L396.623001,78.148 Z M402.079001,82.218 L402.079001,78.83 L397.349001,78.83 L397.349001,82.218 L402.079001,82.218 Z M385.469001,85.76 L392.971001,85.76 C393.477001,85.078 393.895001,84.374 394.203001,83.626 L394.929001,83.714 C394.621001,84.44 394.269001,85.122 393.829001,85.76 L400.781001,85.76 C400.407001,85.056 399.989001,84.418 399.549001,83.868 L400.231001,83.648 C400.737001,84.308 401.177001,85.012 401.573001,85.76 L404.697001,85.76 L404.697001,86.464 L398.031001,86.464 C399.505001,88.158 401.903001,89.478 405.225001,90.446 L404.895001,91.128 C401.243001,89.962 398.691001,88.4 397.239001,86.464 L393.301001,86.464 C391.563001,88.554 388.901001,90.138 385.337001,91.238 L384.985001,90.6 C388.285001,89.588 390.749001,88.202 392.377001,86.464 L385.469001,86.464 L385.469001,85.76 Z M393.785001,90.6 L393.785001,97.134 L393.059001,97.134 L393.059001,96.012 L388.417001,96.012 L388.417001,97.134 L387.713001,97.134 L387.713001,90.6 L393.785001,90.6 Z M388.417001,95.33 L393.059001,95.33 L393.059001,91.304 L388.417001,91.304 L388.417001,95.33 Z M402.827001,90.6 L402.827001,97.134 L402.101001,97.134 L402.101001,96.012 L397.129001,96.012 L397.129001,97.134 L396.403001,97.134 L396.403001,90.6 L402.827001,90.6 Z M397.129001,95.33 L402.101001,95.33 L402.101001,91.304 L397.129001,91.304 L397.129001,95.33 Z" id="终端直采-海量资源-分销商采购管理利器"></path>
        </g>
    </g>
</svg>