<?xml version="1.0" encoding="UTF-8"?>
<svg width="557px" height="99px" viewBox="0 0 557 99" version="1.1" xmlns="http://www.w3.org/2000/svg" xmlns:xlink="http://www.w3.org/1999/xlink">
    <!-- Generator: Sketch 48.2 (47327) - http://www.bohemiancoding.com/sketch -->
    <title>全网销售 直连游客和分销商 专为景区酒店@2x</title>
    <desc>Created with Sketch.</desc>
    <defs></defs>
    <g id="智慧旅游-copy" stroke="none" stroke-width="1" fill="none" fill-rule="evenodd" transform="translate(-460.000000, -980.000000)">
        <g id="Group-20" transform="translate(460.000000, 980.000000)" fill="#333333">
            <path d="M9.76,79.94 L10.24,79.94 C12.8,82.66 15.72,84.82 19.04,86.38 L18.7,86.96 C15.3,85.32 12.4,83.18 10,80.58 C7.78,83.1 4.86,85.3 1.22,87.14 L0.9,86.54 C4.44,84.78 7.4,82.58 9.76,79.94 Z M4.44,86.4 L15.6,86.4 L15.6,87.06 L10.34,87.06 L10.34,91.3 L16.42,91.3 L16.42,91.96 L10.34,91.96 L10.34,96.54 L18.24,96.54 L18.24,97.22 L1.78,97.22 L1.78,96.54 L9.66,96.54 L9.66,91.96 L3.56,91.96 L3.56,91.3 L9.66,91.3 L9.66,87.06 L4.44,87.06 L4.44,86.4 Z M30.66,93.48 C29.8,92.16 28.98,90.96 28.22,89.9 C27.42,92.08 26.42,93.94 25.26,95.46 L24.8,94.94 C26,93.32 26.98,91.42 27.74,89.24 C26.64,87.76 25.62,86.5 24.66,85.46 L25.1,85.02 C26,85.96 26.96,87.12 28,88.5 C28.52,86.86 28.92,85.08 29.22,83.18 L29.86,83.3 C29.5,85.46 29.04,87.4 28.48,89.14 C29.32,90.3 30.2,91.6 31.12,93.02 L30.66,93.48 Z M36.68,94.36 C35.78,92.88 34.94,91.52 34.14,90.32 C33.28,92.52 32.22,94.4 30.98,95.94 L30.54,95.44 C31.82,93.8 32.88,91.86 33.7,89.66 C32.6,88.06 31.58,86.7 30.62,85.62 L31.1,85.18 C31.98,86.18 32.94,87.42 33.96,88.9 C34.54,87.16 35,85.28 35.32,83.24 L35.98,83.36 C35.58,85.66 35.06,87.74 34.42,89.58 C35.28,90.86 36.18,92.3 37.14,93.9 L36.68,94.36 Z M37.16,97.78 L35.1,97.78 L34.92,97.1 L36.94,97.14 C37.58,97.14 37.9,96.8 37.9,96.12 L37.9,81.44 L23.9,81.44 L23.9,97.82 L23.2,97.82 L23.2,80.76 L38.6,80.76 L38.6,96.28 C38.6,97.28 38.12,97.78 37.16,97.78 Z M55.26,79.8 L55.92,79.8 L55.92,85.6 L59.8,85.6 L59.8,96.42 C59.8,97.32 59.34,97.78 58.46,97.78 L56.34,97.78 L56.14,97.1 L58.22,97.14 C58.8,97.14 59.1,96.84 59.1,96.28 L59.1,93.22 L52.04,93.22 L52.04,97.88 L51.36,97.88 L51.36,85.6 L55.26,85.6 L55.26,79.8 Z M52.04,89.74 L52.04,92.58 L59.1,92.58 L59.1,89.74 L52.04,89.74 Z M59.1,89.12 L59.1,86.26 L52.04,86.26 L52.04,89.12 L59.1,89.12 Z M51.44,80.56 C52.12,81.64 52.78,82.8 53.38,84.04 L52.82,84.32 C52.2,83.02 51.54,81.86 50.86,80.86 L51.44,80.56 Z M59.72,80.42 L60.32,80.7 C59.8,81.94 59.12,83.16 58.3,84.34 L57.74,84.04 C58.56,82.82 59.22,81.62 59.72,80.42 Z M45.62,79.78 L46.3,79.92 C46.08,80.74 45.84,81.52 45.58,82.26 L49.7,82.26 L49.7,82.92 L45.36,82.92 C44.8,84.38 44.12,85.72 43.36,86.92 L42.8,86.56 C44.06,84.6 45,82.34 45.62,79.78 Z M44.68,86.3 L49.32,86.3 L49.32,86.92 L46.98,86.92 L46.98,90.18 L50,90.18 L50,90.84 L46.98,90.84 L46.98,96.48 C47.98,96.16 49.02,95.68 50.06,95.06 L50.18,95.72 C49.02,96.4 47.7,96.94 46.2,97.36 L45.9,96.76 C46.16,96.68 46.3,96.56 46.3,96.4 L46.3,90.84 L43.28,90.84 L43.28,90.18 L46.3,90.18 L46.3,86.92 L44.68,86.92 L44.68,86.3 Z M79.3799999,92.54 L79.3799999,97.98 L78.7199999,97.98 L78.7199999,96.78 L67.3399999,96.78 L67.3399999,97.98 L66.6599999,97.98 L66.6599999,92.54 L79.3799999,92.54 Z M67.3399999,96.14 L78.7199999,96.14 L78.7199999,93.18 L67.3399999,93.18 L67.3399999,96.14 Z M66.5999999,83.94 C65.7999999,84.94 64.8799999,85.9 63.8199999,86.82 L63.5999999,86.16 C65.8199999,84.2 67.3799999,82.04 68.2599999,79.7 L68.9599999,79.84 C68.6799999,80.54 68.3399999,81.22 67.9799999,81.9 L73.8399999,81.9 C73.5199999,81.1 73.1799999,80.4 72.7799999,79.8 L73.4599999,79.68 C73.8399999,80.32 74.1999999,81.06 74.5199999,81.9 L80.6599999,81.9 L80.6599999,82.54 L74.1799999,82.54 L74.1799999,84.56 L79.7799999,84.56 L79.7799999,85.14 L74.1799999,85.14 L74.1799999,87.06 L79.8199999,87.06 L79.8199999,87.68 L74.1799999,87.68 L74.1799999,89.78 L80.8999999,89.78 L80.8999999,90.4 L66.5999999,90.4 L66.5999999,83.94 Z M67.5999999,82.54 C67.4799999,82.72 67.3599999,82.88 67.2599999,83.04 L67.2599999,84.56 L73.4999999,84.56 L73.4999999,82.54 L67.5999999,82.54 Z M73.4999999,89.78 L73.4999999,87.68 L67.2599999,87.68 L67.2599999,89.78 L73.4999999,89.78 Z M73.4999999,87.06 L73.4999999,85.14 L67.2599999,85.14 L67.2599999,87.06 L73.4999999,87.06 Z M92.7799999,81.88 L100.72,81.88 C100.82,81.16 100.9,80.44 100.96,79.72 L101.66,79.82 C101.6,80.52 101.52,81.2 101.42,81.88 L109.54,81.88 L109.54,82.54 L101.32,82.54 C101.2,83.34 101.06,84.08 100.9,84.76 L106.84,84.76 L106.84,96.6 L109.96,96.6 L109.96,97.26 L92.3799999,97.26 L92.3799999,96.6 L95.3999999,96.6 L95.3999999,84.76 L100.2,84.76 C100.36,84.04 100.5,83.3 100.62,82.54 L92.7799999,82.54 L92.7799999,81.88 Z M96.0799999,96.6 L106.16,96.6 L106.16,94.16 L96.0799999,94.16 L96.0799999,96.6 Z M96.0799999,93.54 L106.16,93.54 L106.16,91.22 L96.0799999,91.22 L96.0799999,93.54 Z M96.0799999,90.62 L106.16,90.62 L106.16,88.32 L96.0799999,88.32 L96.0799999,90.62 Z M96.0799999,87.72 L106.16,87.72 L106.16,85.4 L96.0799999,85.4 L96.0799999,87.72 Z M114.34,80.26 C115.72,81.3 116.86,82.32 117.78,83.34 L117.3,83.82 C116.42,82.84 115.28,81.8 113.88,80.72 L114.34,80.26 Z M126.26,97.52 C125.18,97.52 124,97.5 122.74,97.48 C121.46,97.44 120.44,97.32 119.7,97.08 C118.92,96.84 118.2,96.34 117.54,95.54 C117.28,95.18 117.02,95.02 116.78,95.02 C116.18,95.02 115.28,95.96 114.04,97.86 L113.5,97.4 C114.68,95.58 115.68,94.58 116.48,94.38 L116.48,87.6 L113.38,87.6 L113.38,86.92 L117.14,86.92 L117.14,94.4 C117.4,94.5 117.66,94.72 117.94,95.04 C118.44,95.68 119.02,96.12 119.66,96.4 C120.32,96.64 121.24,96.78 122.4,96.82 C123.34,96.84 124.6,96.86 126.16,96.86 C127.04,96.86 127.94,96.84 128.86,96.84 C129.76,96.82 130.46,96.8 130.96,96.8 L130.8,97.52 L126.26,97.52 Z M118.96,82.06 L122.38,82.06 C122.7,81.3 122.98,80.5 123.26,79.68 L123.94,79.82 C123.66,80.62 123.38,81.36 123.1,82.06 L130.5,82.06 L130.5,82.72 L122.82,82.72 C122.1,84.32 121.26,85.74 120.34,86.98 L124.6,86.98 L124.6,84.18 L125.26,84.18 L125.26,86.98 L129.9,86.98 L129.9,87.62 L125.26,87.62 L125.26,90.74 L130.82,90.74 L130.82,91.4 L125.26,91.4 L125.26,95.58 L124.6,95.58 L124.6,91.4 L118.84,91.4 L118.84,90.74 L124.6,90.74 L124.6,87.62 L119.64,87.62 L119.48,86.96 C120.48,85.8 121.34,84.38 122.1,82.72 L118.96,82.72 L118.96,82.06 Z M146.32,83.5 C145.8,84.88 145.14,86.04 144.36,87 L143.94,86.5 C145.28,84.78 146.18,82.46 146.66,79.54 L147.34,79.66 C147.14,80.82 146.88,81.86 146.56,82.82 L152.02,82.82 L152.02,83.5 L146.32,83.5 Z M134.7,80.32 C135.82,81.14 136.74,81.96 137.5,82.76 L137,83.26 C136.3,82.46 135.38,81.64 134.22,80.78 L134.7,80.32 Z M134.62,85.3 C135.78,86.18 136.74,87.08 137.5,88 L137.02,88.48 C136.3,87.6 135.34,86.7 134.14,85.76 L134.62,85.3 Z M136.72,90.6 L137.32,90.84 C136.52,93.26 135.62,95.52 134.64,97.64 L134,97.38 C135.06,95.18 135.96,92.92 136.72,90.6 Z M139.88,83.82 L138.04,83.82 L138.04,83.16 L141.2,83.16 C140.9,81.9 140.56,80.76 140.2,79.74 L140.88,79.62 C141.24,80.64 141.56,81.82 141.86,83.16 L144.36,83.16 L144.36,83.82 L140.54,83.82 L140.54,85.54 C140.54,86.18 140.52,86.82 140.48,87.44 L143.9,87.44 C143.9,91.76 143.8,94.44 143.6,95.48 C143.48,96.84 142.94,97.54 141.94,97.54 C141.66,97.54 141.16,97.52 140.46,97.52 L140.3,96.9 C140.92,96.9 141.46,96.92 141.92,96.92 C142.52,96.92 142.86,96.4 142.96,95.38 C143.12,94.5 143.2,92.08 143.22,88.12 L140.44,88.12 C140.16,92.44 139.26,95.7 137.74,97.88 L137.24,97.42 C138.96,94.94 139.84,90.98 139.88,85.54 L139.88,83.82 Z M146.16,86.34 L151.3,86.34 L151.3,86.96 C150.62,87.88 149.86,88.76 149.04,89.6 L149.04,91.32 L152.08,91.32 L152.08,91.96 L149.04,91.96 L149.04,96.24 C149.04,97.16 148.6,97.62 147.72,97.62 L146.08,97.62 L145.92,96.96 C146.4,96.96 146.92,96.98 147.48,96.98 C148.06,96.98 148.36,96.64 148.36,96 L148.36,91.96 L144.96,91.96 L144.96,91.32 L148.36,91.32 L148.36,89.46 C149.4,88.36 150.12,87.52 150.52,86.96 L146.16,86.96 L146.16,86.34 Z M169.46,92.08 L169.46,97.96 L168.8,97.96 L168.8,96.96 L159.3,96.96 L159.3,97.96 L158.62,97.96 L158.62,92.08 L169.46,92.08 Z M159.3,96.32 L168.8,96.32 L168.8,92.7 L159.3,92.7 L159.3,96.32 Z M161.74,82.9 L162.4,83.06 C162.02,83.66 161.6,84.24 161.16,84.78 L168.94,84.78 L168.94,85.36 C167.94,86.64 166.58,87.78 164.82,88.74 C167.22,89.86 169.94,90.58 172.98,90.86 L172.82,91.5 C169.58,91.18 166.68,90.38 164.14,89.1 C161.74,90.3 158.72,91.24 155.08,91.94 L154.8,91.3 C158.32,90.68 161.2,89.84 163.48,88.76 C162.16,88.02 160.94,87.16 159.84,86.2 C159.02,86.96 158.1,87.66 157.1,88.3 L156.66,87.78 C158.86,86.44 160.56,84.82 161.74,82.9 Z M164.16,88.42 C165.84,87.54 167.16,86.52 168.12,85.4 L160.62,85.4 C160.5,85.52 160.38,85.66 160.26,85.78 C161.44,86.82 162.74,87.7 164.16,88.42 Z M171.7,81.54 L171.7,84.88 L171,84.88 L171,82.18 L156.72,82.18 L156.72,84.88 L156.02,84.88 L156.02,81.54 L163.64,81.54 C163.36,80.88 163.08,80.28 162.76,79.74 L163.48,79.62 C163.8,80.18 164.08,80.82 164.32,81.54 L171.7,81.54 Z M192.6,81.36 L192.6,97.14 L191.92,97.14 L191.92,95.38 L186.22,95.38 L186.22,97.3 L185.54,97.3 L185.54,81.36 L192.6,81.36 Z M186.22,94.74 L191.92,94.74 L191.92,82.02 L186.22,82.02 L186.22,94.74 Z M176.28,85.5 L180.04,85.5 L180.04,81.86 C178.9,82.06 177.72,82.22 176.52,82.32 L176.28,81.68 C179.1,81.48 181.6,80.96 183.76,80.1 L184.1,80.7 C183.02,81.1 181.9,81.44 180.72,81.72 L180.72,85.5 L184.4,85.5 L184.4,86.16 L180.72,86.16 L180.72,87.44 C181.92,88.56 183.12,89.84 184.36,91.32 L183.96,91.88 C182.68,90.26 181.6,89 180.72,88.1 L180.72,97.86 L180.04,97.86 L180.04,87.58 C179.14,89.9 177.82,91.96 176.08,93.76 L175.8,93.06 C177.84,91.04 179.26,88.74 180.04,86.16 L176.28,86.16 L176.28,85.5 Z M203.28,80.26 L203.86,80.6 C202.92,82.3 201.98,83.7 201.04,84.78 C199.92,86.04 198.6,87.16 197.04,88.16 L196.66,87.56 C198.16,86.68 199.44,85.6 200.52,84.34 C201.56,83.14 202.48,81.78 203.28,80.26 Z M204.02,88.64 L199.52,88.64 L199.52,87.98 L211.18,87.98 C211.14,90.38 211.02,92.3 210.84,93.78 C210.64,95.22 210.32,96.24 209.88,96.84 C209.44,97.4 208.74,97.72 207.78,97.76 L204.34,97.76 L204.16,97.08 C205.32,97.1 206.4,97.12 207.42,97.12 C208.6,97.12 209.38,96.58 209.74,95.54 C210.14,94.46 210.38,92.16 210.5,88.64 L204.68,88.64 C204.2,91 203.52,92.84 202.62,94.2 C201.6,95.6 200.08,96.84 198.04,97.96 L197.62,97.4 C199.54,96.36 200.98,95.2 201.94,93.96 C202.88,92.62 203.58,90.84 204.02,88.64 Z M208.18,79.96 C209.42,83.2 211.54,85.72 214.56,87.56 L214.12,88.1 C211,86.1 208.82,83.5 207.6,80.28 L208.18,79.96 Z M230.02,79.8 L230.68,79.8 L230.68,85.6 L234.56,85.6 L234.56,96.42 C234.56,97.32 234.1,97.78 233.22,97.78 L231.1,97.78 L230.9,97.1 L232.98,97.14 C233.56,97.14 233.86,96.84 233.86,96.28 L233.86,93.22 L226.8,93.22 L226.8,97.88 L226.12,97.88 L226.12,85.6 L230.02,85.6 L230.02,79.8 Z M226.8,89.74 L226.8,92.58 L233.86,92.58 L233.86,89.74 L226.8,89.74 Z M233.86,89.12 L233.86,86.26 L226.8,86.26 L226.8,89.12 L233.86,89.12 Z M226.2,80.56 C226.88,81.64 227.54,82.8 228.14,84.04 L227.58,84.32 C226.96,83.02 226.3,81.86 225.62,80.86 L226.2,80.56 Z M234.48,80.42 L235.08,80.7 C234.56,81.94 233.88,83.16 233.06,84.34 L232.5,84.04 C233.32,82.82 233.98,81.62 234.48,80.42 Z M220.38,79.78 L221.06,79.92 C220.84,80.74 220.6,81.52 220.34,82.26 L224.46,82.26 L224.46,82.92 L220.12,82.92 C219.56,84.38 218.88,85.72 218.12,86.92 L217.56,86.56 C218.82,84.6 219.76,82.34 220.38,79.78 Z M219.44,86.3 L224.08,86.3 L224.08,86.92 L221.74,86.92 L221.74,90.18 L224.76,90.18 L224.76,90.84 L221.74,90.84 L221.74,96.48 C222.74,96.16 223.78,95.68 224.82,95.06 L224.94,95.72 C223.78,96.4 222.46,96.94 220.96,97.36 L220.66,96.76 C220.92,96.68 221.06,96.56 221.06,96.4 L221.06,90.84 L218.04,90.84 L218.04,90.18 L221.06,90.18 L221.06,86.92 L219.44,86.92 L219.44,86.3 Z M244.06,90.92 L250.84,90.92 L250.84,95.28 L244.06,95.28 L244.06,90.92 Z M250.18,94.66 L250.18,91.58 L244.72,91.58 L244.72,94.66 L250.18,94.66 Z M249.08,86.9 C250.8,88.14 252.22,89.38 253.36,90.62 L252.86,91.12 C251.8,89.92 250.38,88.66 248.62,87.34 L249.08,86.9 Z M247.02,79.58 C247.34,80.18 247.66,80.9 247.96,81.7 L256.22,81.7 L256.22,82.38 L251.74,82.38 C251.3,83.52 250.82,84.52 250.26,85.4 L254.92,85.4 L254.92,96.32 C254.92,97.32 254.44,97.82 253.5,97.82 L251.46,97.82 L251.28,97.16 L253.26,97.18 C253.92,97.18 254.26,96.84 254.26,96.18 L254.26,86.04 L240.62,86.04 L240.62,97.76 L239.96,97.76 L239.96,85.4 L244.34,85.4 C243.98,84.3 243.54,83.3 243,82.38 L238.7,82.38 L238.7,81.7 L247.26,81.7 C246.94,80.96 246.62,80.3 246.28,79.7 L247.02,79.58 Z M245.04,85.4 L249.54,85.4 C250.08,84.46 250.56,83.46 250.96,82.38 L243.78,82.38 C244.24,83.22 244.66,84.24 245.04,85.4 Z M245.7,86.94 L246.2,87.38 C245,88.78 243.54,90.02 241.8,91.08 L241.36,90.52 C243.08,89.5 244.52,88.3 245.7,86.94 Z M267.04,86.16 L272.9,86.16 C273.2,85.12 273.48,84.04 273.74,82.96 L268.4,82.96 L268.4,82.3 L273.88,82.3 C274.08,81.42 274.28,80.56 274.44,79.68 L275.12,79.74 C274.92,80.66 274.74,81.5 274.58,82.3 L283.62,82.3 L283.62,82.96 L274.44,82.96 C274.16,84.12 273.9,85.18 273.62,86.16 L284.8,86.16 L284.8,86.84 L273.42,86.84 C273.06,88.04 272.68,89.16 272.28,90.16 L282.26,90.16 L282.26,90.76 C281.22,92.48 279.58,94.18 277.32,95.82 C278.72,96.38 280.06,96.98 281.32,97.62 L280.94,98.2 C277.86,96.62 274.68,95.36 271.42,94.44 L271.8,93.9 C273.48,94.38 275.1,94.94 276.62,95.54 C278.72,94.08 280.36,92.5 281.52,90.82 L271.34,90.82 C271.82,89.54 272.28,88.22 272.7,86.84 L267.04,86.84 L267.04,86.16 Z M290.18,80.32 C291.36,81.56 292.28,82.66 292.92,83.62 L292.36,84 C291.62,82.92 290.72,81.82 289.64,80.7 L290.18,80.32 Z M296.96,88.8 C298.5,90.46 299.68,91.92 300.52,93.16 L299.94,93.58 C299.08,92.24 297.9,90.76 296.4,89.14 L296.96,88.8 Z M295.42,79.76 L296.08,79.76 L296.08,81.42 C296.08,82.66 296.02,83.82 295.92,84.92 L304.28,84.92 C304.28,90.44 304.02,93.94 303.54,95.46 C303.02,96.96 302.12,97.72 300.8,97.72 C299.9,97.72 299.14,97.7 298.52,97.68 L298.34,97 C299.22,97.04 300.04,97.06 300.76,97.06 C302.22,96.96 303.06,95.72 303.28,93.36 C303.48,90.98 303.6,88.4 303.6,85.6 L295.84,85.6 C295.56,88.12 295.02,90.26 294.22,92 C293.04,94.44 291.08,96.38 288.34,97.82 L287.96,97.22 C290.64,95.86 292.58,93.9 293.78,91.38 C294.46,89.74 294.92,87.82 295.16,85.6 L288.66,85.6 L288.66,84.92 L295.24,84.92 C295.34,83.82 295.4,82.66 295.42,81.42 L295.42,79.76 Z M311.7,89.36 L323.84,89.36 L323.84,93.02 L318.26,93.02 L318.26,96.6 C318.26,97.42 317.86,97.84 317.06,97.84 L314.76,97.84 L314.62,97.18 C315.38,97.22 316.12,97.24 316.82,97.24 C317.32,97.24 317.58,96.96 317.58,96.42 L317.58,93.02 L311.7,93.02 L311.7,89.36 Z M323.16,92.42 L323.16,89.96 L312.38,89.96 L312.38,92.42 L323.16,92.42 Z M311.46,80.48 L324,80.48 L324,85.66 L317.62,85.66 C317.82,86.12 318.02,86.64 318.22,87.24 L326.36,87.24 L326.36,87.86 L309.08,87.86 L309.08,87.24 L317.52,87.24 C317.3,86.66 317.08,86.14 316.84,85.66 L311.46,85.66 L311.46,80.48 Z M323.32,85.04 L323.32,83.32 L312.14,83.32 L312.14,85.04 L323.32,85.04 Z M312.14,82.72 L323.32,82.72 L323.32,81.06 L312.14,81.06 L312.14,82.72 Z M321.16,94.16 C323.04,94.8 324.86,95.72 326.62,96.94 L326.4,97.56 C324.62,96.34 322.78,95.4 320.86,94.72 L321.16,94.16 Z M313.94,94.1 L314.38,94.58 C313.04,95.78 311.3,96.78 309.18,97.56 L308.78,96.98 C311,96.2 312.72,95.24 313.94,94.1 Z M334.78,83.96 C336.76,85.46 338.58,86.96 340.26,88.46 C341.58,86.88 342.7,85.02 343.62,82.86 L344.22,83.2 C343.26,85.4 342.1,87.32 340.76,88.92 C342.52,90.5 344.08,92.08 345.48,93.66 L344.98,94.16 C343.64,92.6 342.08,91.04 340.32,89.44 C338.48,91.48 336.34,93.04 333.88,94.1 L333.5,93.48 C335.94,92.48 338.04,90.98 339.82,88.98 C338.14,87.48 336.3,85.96 334.28,84.42 L334.78,83.96 Z M331.34,80.66 L346.92,80.66 L346.92,81.32 L332,81.32 L332,96.36 L347.46,96.36 L347.46,97.02 L331.34,97.02 L331.34,80.66 Z M355.84,80.84 L368.44,80.84 L368.44,81.52 L364.12,81.52 L364.12,84.6 L367.74,84.6 L367.74,97.84 L367.1,97.84 L367.1,96.7 L357.18,96.7 L357.18,97.9 L356.52,97.9 L356.52,84.6 L360,84.6 L360,81.52 L355.84,81.52 L355.84,80.84 Z M357.18,96.06 L367.1,96.06 L367.1,93.38 L357.18,93.38 L357.18,96.06 Z M360.04,85.24 L357.18,85.24 L357.18,92.74 L367.1,92.74 L367.1,90.4 L364.76,90.4 C363.88,90.4 363.46,89.96 363.46,89.1 L363.46,85.24 L360.66,85.24 L360.66,86.74 C360.62,88.74 359.84,90.18 358.32,91.1 L357.84,90.7 C359.28,89.86 360,88.54 360.04,86.74 L360.04,85.24 Z M360.68,84.6 L363.44,84.6 L363.44,81.52 L360.68,81.52 L360.68,84.6 Z M367.1,89.78 L367.1,85.24 L364.1,85.24 L364.1,89.04 C364.1,89.52 364.34,89.78 364.84,89.78 L367.1,89.78 Z M351.52,80.2 C352.92,81.2 354.1,82.2 355.06,83.2 L354.58,83.66 C353.68,82.7 352.5,81.72 351.02,80.68 L351.52,80.2 Z M351,85 C352.42,86 353.6,87.02 354.56,88.02 L354.06,88.48 C353.18,87.52 352,86.52 350.52,85.48 L351,85 Z M354.04,90.08 L354.64,90.32 C353.68,92.94 352.58,95.38 351.38,97.66 L350.72,97.4 C352,95 353.12,92.56 354.04,90.08 Z M381.28,83.84 L381.94,83.84 L381.94,86.58 L388.94,86.58 L388.94,87.26 L381.94,87.26 L381.94,90.8 L387.26,90.8 L387.26,97.88 L386.58,97.88 L386.58,96.7 L377.24,96.7 L377.24,97.88 L376.56,97.88 L376.56,90.8 L381.28,90.8 L381.28,83.84 Z M377.24,96.02 L386.58,96.02 L386.58,91.46 L377.24,91.46 L377.24,96.02 Z M380.66,79.66 C381.06,80.34 381.42,81.1 381.76,81.98 L389.22,81.98 L389.22,82.66 L374.14,82.66 L374.14,87.4 C374.06,91.72 373.32,95.2 371.92,97.8 L371.42,97.34 C372.72,94.96 373.4,91.64 373.44,87.4 L373.44,81.98 L381.06,81.98 C380.74,81.16 380.38,80.42 379.96,79.78 L380.66,79.66 Z M397.38,79.76 L398,79.76 L398,80.7 L400.96,80.7 L400.96,81.28 L398,81.28 L398,82.74 L400.66,82.74 L400.66,83.22 C398.98,85.4 396.36,86.88 392.84,87.66 L392.52,87.14 C394,86.82 395.3,86.4 396.42,85.84 C395.76,85.28 394.98,84.7 394.06,84.14 C393.62,84.48 393.18,84.78 392.7,85.06 L392.34,84.56 C393.86,83.72 394.88,82.72 395.42,81.56 L396.06,81.62 C395.88,82.02 395.66,82.38 395.42,82.74 L397.38,82.74 L397.38,79.76 Z M394.96,83.3 L394.46,83.8 C395.44,84.4 396.28,85 396.96,85.56 C398.1,84.92 399.06,84.18 399.82,83.3 L394.96,83.3 Z M402.52,81.96 C403.64,82.48 404.7,83.04 405.74,83.64 C406.74,82.94 407.52,82.14 408.06,81.26 L402.18,81.26 L402.18,80.66 L408.82,80.66 L408.82,81.14 C408.24,82.24 407.4,83.18 406.32,83.98 C407.64,84.78 408.88,85.64 410.06,86.56 L409.7,87.1 C408.38,86.04 407.08,85.12 405.78,84.34 C404.98,84.84 404.06,85.28 403.06,85.66 L402.66,85.14 C403.62,84.8 404.46,84.42 405.2,83.98 C404.2,83.4 403.2,82.88 402.2,82.44 L402.52,81.96 Z M396.74,91.9 L396.74,93.44 L405.78,93.44 L405.78,91.9 L396.74,91.9 Z M405.78,91.4 L405.78,89.86 L396.74,89.86 L396.74,91.4 L405.78,91.4 Z M408,93.32 L408.58,93.6 C407.82,94.54 407,95.38 406.12,96.1 C407.24,96.5 408.32,96.94 409.36,97.42 L409.02,97.94 C406.44,96.72 403.8,95.76 401.08,95.08 L401.4,94.62 C402.84,95 404.2,95.42 405.5,95.88 C406.46,95.08 407.28,94.24 408,93.32 Z M401.08,87.62 C401.38,88.1 401.66,88.68 401.92,89.32 L406.44,89.32 L406.44,94 L396.74,94 L396.74,97.2 C398.42,96.96 400.02,96.7 401.54,96.38 L401.66,96.98 C400.1,97.3 398.18,97.6 395.86,97.86 L395.68,97.36 C395.92,97.3 396.06,97.16 396.06,96.94 L396.06,89.32 L401.28,89.32 C401.02,88.72 400.74,88.2 400.44,87.74 L401.08,87.62 Z M401.32,85.76 C399.18,87.76 396.36,89.3 392.84,90.34 L392.48,89.78 C396.16,88.78 399.02,87.26 401.06,85.22 L401.58,85.22 C403.46,87.1 406.34,88.54 410.22,89.58 L409.86,90.16 C406.02,89 403.18,87.52 401.32,85.76 Z M430.679999,80.88 L430.679999,81.56 L416.339999,81.56 L416.339999,88.04 C416.259999,92.12 415.379999,95.38 413.719999,97.84 L413.219999,97.38 C414.779999,95.14 415.579999,92.04 415.659999,88.04 L415.659999,80.88 L430.679999,80.88 Z M418.059999,85.44 L430.419999,85.44 L430.419999,86.1 L425.099999,86.1 L425.099999,96.12 C425.099999,97.16 424.579999,97.7 423.559999,97.7 L421.439999,97.7 L421.299999,97.04 C422.019999,97.08 422.699999,97.1 423.339999,97.1 C424.059999,97.1 424.419999,96.72 424.419999,95.96 L424.419999,86.1 L418.059999,86.1 L418.059999,85.44 Z M443.919999,82.94 C443.259999,84.24 442.519999,85.3 441.699999,86.14 L441.179999,85.7 C442.619999,84.22 443.719999,82.22 444.479999,79.66 L445.119999,79.92 C444.839999,80.78 444.539999,81.56 444.239999,82.28 L451.539999,82.28 L451.539999,82.94 L443.919999,82.94 Z M451.379999,88.76 L451.819999,89.26 C450.919999,90.26 449.779999,91.08 448.419999,91.72 C449.299999,93.94 450.559999,95.78 452.219999,97.26 L451.799999,97.8 C448.839999,95.24 447.079999,91.48 446.559999,86.54 C445.719999,86.7 444.879999,86.86 444.039999,86.98 L444.039999,96.78 C445.339999,96.48 446.619999,96.12 447.879999,95.68 L447.999999,96.36 C446.659999,96.78 445.079999,97.2 443.239999,97.64 L443.099999,97 C443.279999,96.94 443.379999,96.84 443.379999,96.68 L443.379999,86.44 C445.819999,86.16 448.159999,85.6 450.359999,84.72 L450.739999,85.3 C449.619999,85.74 448.419999,86.1 447.179999,86.4 C447.339999,88.12 447.679999,89.7 448.179999,91.12 C449.459999,90.5 450.519999,89.72 451.379999,88.76 Z M434.419999,82.88 L441.559999,82.88 L441.559999,83.54 L437.019999,83.54 L437.019999,86.84 L441.019999,86.84 C441.019999,91.8 440.899999,94.84 440.679999,95.96 C440.479999,97.16 439.639999,97.76 438.199999,97.76 C438.039999,97.76 437.759999,97.74 437.379999,97.72 L437.199999,97.1 C437.539999,97.12 437.839999,97.14 438.079999,97.14 C439.159999,97.14 439.799999,96.72 439.999999,95.92 C440.239999,94.92 440.359999,92.1 440.359999,87.5 L436.999999,87.5 C436.879999,92.18 436.039999,95.64 434.519999,97.88 L434.019999,97.42 C435.539999,95.18 436.319999,91.56 436.359999,86.58 L436.359999,83.54 L434.419999,83.54 L434.419999,82.88 Z M437.379999,79.64 C437.879999,80.56 438.279999,81.4 438.579999,82.16 L437.939999,82.38 C437.619999,81.5 437.199999,80.66 436.719999,79.82 L437.379999,79.64 Z M467.379999,83.5 C466.859999,84.88 466.199999,86.04 465.419999,87 L464.999999,86.5 C466.339999,84.78 467.239999,82.46 467.719999,79.54 L468.399999,79.66 C468.199999,80.82 467.939999,81.86 467.619999,82.82 L473.079999,82.82 L473.079999,83.5 L467.379999,83.5 Z M455.759999,80.32 C456.879999,81.14 457.799999,81.96 458.559999,82.76 L458.059999,83.26 C457.359999,82.46 456.439999,81.64 455.279999,80.78 L455.759999,80.32 Z M455.679999,85.3 C456.839999,86.18 457.799999,87.08 458.559999,88 L458.079999,88.48 C457.359999,87.6 456.399999,86.7 455.199999,85.76 L455.679999,85.3 Z M457.779999,90.6 L458.379999,90.84 C457.579999,93.26 456.679999,95.52 455.699999,97.64 L455.059999,97.38 C456.119999,95.18 457.019999,92.92 457.779999,90.6 Z M460.939999,83.82 L459.099999,83.82 L459.099999,83.16 L462.259999,83.16 C461.959999,81.9 461.619999,80.76 461.259999,79.74 L461.939999,79.62 C462.299999,80.64 462.619999,81.82 462.919999,83.16 L465.419999,83.16 L465.419999,83.82 L461.599999,83.82 L461.599999,85.54 C461.599999,86.18 461.579999,86.82 461.539999,87.44 L464.959999,87.44 C464.959999,91.76 464.859999,94.44 464.659999,95.48 C464.539999,96.84 463.999999,97.54 462.999999,97.54 C462.719999,97.54 462.219999,97.52 461.519999,97.52 L461.359999,96.9 C461.979999,96.9 462.519999,96.92 462.979999,96.92 C463.579999,96.92 463.919999,96.4 464.019999,95.38 C464.179999,94.5 464.259999,92.08 464.279999,88.12 L461.499999,88.12 C461.219999,92.44 460.319999,95.7 458.799999,97.88 L458.299999,97.42 C460.019999,94.94 460.899999,90.98 460.939999,85.54 L460.939999,83.82 Z M467.219999,86.34 L472.359999,86.34 L472.359999,86.96 C471.679999,87.88 470.919999,88.76 470.099999,89.6 L470.099999,91.32 L473.139999,91.32 L473.139999,91.96 L470.099999,91.96 L470.099999,96.24 C470.099999,97.16 469.659999,97.62 468.779999,97.62 L467.139999,97.62 L466.979999,96.96 C467.459999,96.96 467.979999,96.98 468.539999,96.98 C469.119999,96.98 469.419999,96.64 469.419999,96 L469.419999,91.96 L466.019999,91.96 L466.019999,91.32 L469.419999,91.32 L469.419999,89.46 C470.459999,88.36 471.179999,87.52 471.579999,86.96 L467.219999,86.96 L467.219999,86.34 Z M482.939999,80.76 L482.939999,93.02 L482.299999,93.02 L482.299999,81.4 L477.459999,81.4 L477.459999,93.02 L476.819999,93.02 L476.819999,80.76 L482.939999,80.76 Z M486.459999,79.68 L487.139999,79.76 C486.919999,80.86 486.619999,81.88 486.259999,82.84 L493.199999,82.84 C493.199999,89.6 493.079999,93.72 492.839999,95.24 C492.599999,96.86 491.719999,97.68 490.159999,97.68 C489.639999,97.68 488.759999,97.66 487.519999,97.64 L487.339999,97.02 C488.379999,97.04 489.299999,97.06 490.059999,97.06 C491.219999,97.06 491.899999,96.48 492.119999,95.36 C492.379999,93.96 492.519999,90 492.539999,83.52 L485.979999,83.52 C485.419999,84.8 484.739999,85.92 483.939999,86.92 L483.539999,86.38 C484.979999,84.56 485.939999,82.32 486.459999,79.68 Z M488.779999,88.5 C489.539999,90.14 490.239999,91.92 490.899999,93.84 L490.319999,94.14 C490.139999,93.6 489.959999,93.1 489.799999,92.62 C488.159999,93.02 486.359999,93.34 484.359999,93.54 L484.219999,92.94 C485.199999,91.86 486.259999,89.48 487.399999,85.76 L488.019999,85.96 C486.999999,89.16 485.999999,91.48 485.039999,92.88 C486.719999,92.68 488.239999,92.4 489.579999,92.04 C489.139999,90.84 488.679999,89.76 488.199999,88.78 L488.779999,88.5 Z M479.579999,83.2 L480.219999,83.2 L480.219999,89.78 C480.199999,91.96 479.879999,93.7 479.279999,95 C478.679999,96.2 477.679999,97.16 476.299999,97.88 L475.939999,97.3 C477.239999,96.66 478.199999,95.72 478.799999,94.5 C479.319999,93.3 479.579999,91.72 479.579999,89.78 L479.579999,83.2 Z M480.959999,93.78 C482.119999,94.94 483.079999,96.12 483.859999,97.3 L483.379999,97.76 C482.659999,96.64 481.699999,95.46 480.499999,94.22 L480.959999,93.78 Z M506.199999,79.76 L506.879999,79.94 C506.619999,81.16 506.319999,82.26 505.979999,83.24 L513.979999,83.24 C513.979999,89.58 513.879999,93.5 513.699999,95 C513.499999,96.84 512.479999,97.76 510.639999,97.76 C510.359999,97.76 509.879999,97.74 509.179999,97.72 L508.999999,97.08 C509.619999,97.1 510.159999,97.12 510.619999,97.12 C512.019999,97.12 512.819999,96.38 513.039999,94.92 C513.199999,93.58 513.279999,89.92 513.319999,83.92 L511.219999,83.92 C510.779999,87.44 510.159999,90.18 509.339999,92.18 C508.419999,94.22 507.059999,96.06 505.259999,97.7 L504.819999,97.16 C506.559999,95.6 507.839999,93.88 508.679999,92 C509.559999,89.98 510.179999,87.28 510.579999,83.92 L508.379999,83.92 C507.579999,88.4 506.039999,91.64 503.739999,93.64 L503.279999,93.12 C505.499999,91.2 506.999999,88.14 507.759999,83.92 L505.719999,83.92 C505.179999,85.28 504.539999,86.42 503.819999,87.32 L503.319999,86.88 C504.679999,85.22 505.639999,82.84 506.199999,79.76 Z M498.419999,84.88 C498.139999,85.96 497.759999,87.02 497.279999,88.04 L496.679999,87.86 C497.679999,85.72 498.239999,83.48 498.379999,81.12 L498.979999,81.16 C498.919999,82.2 498.779999,83.2 498.579999,84.2 L500.619999,84.2 L500.619999,79.78 L501.299999,79.78 L501.299999,84.2 L503.339999,84.2 L503.339999,84.88 L501.299999,84.88 L501.299999,90.62 C501.979999,90.3 502.619999,89.94 503.259999,89.58 L503.259999,90.24 C502.619999,90.62 501.959999,90.96 501.299999,91.28 L501.299999,97.9 L500.619999,97.9 L500.619999,91.62 C499.479999,92.14 498.299999,92.6 497.059999,93 L496.899999,92.32 C498.179999,91.96 499.419999,91.5 500.619999,90.96 L500.619999,84.88 L498.419999,84.88 Z M519.659999,80.28 C520.899999,81.3 521.959999,82.32 522.799999,83.32 L522.319999,83.8 C521.539999,82.84 520.499999,81.82 519.179999,80.74 L519.659999,80.28 Z M517.739999,86.16 L521.439999,86.16 L521.439999,95.72 C522.299999,95.08 523.239999,94.26 524.279999,93.26 L524.459999,94 C523.299999,95.12 522.039999,96.14 520.699999,97.02 L520.419999,96.42 C520.639999,96.2 520.759999,96 520.759999,95.8 L520.759999,86.84 L517.739999,86.84 L517.739999,86.16 Z M524.799999,88.44 L534.019999,88.44 L534.019999,89.1 C533.299999,91.18 532.099999,92.92 530.459999,94.36 C531.959999,95.48 533.799999,96.46 535.959999,97.28 L535.579999,97.86 C533.339999,96.98 531.459999,95.94 529.979999,94.78 C528.339999,96.08 526.299999,97.12 523.859999,97.88 L523.479999,97.3 C525.859999,96.54 527.839999,95.56 529.439999,94.34 C527.659999,92.82 526.459999,91.08 525.839999,89.12 L524.799999,89.12 L524.799999,88.44 Z M526.499999,89.12 C527.099999,90.94 528.239999,92.54 529.919999,93.94 C531.499999,92.58 532.639999,90.98 533.339999,89.12 L526.499999,89.12 Z M526.539999,80.74 L532.699999,80.74 L532.699999,85.28 C532.699999,85.84 532.959999,86.12 533.519999,86.12 L535.499999,86.12 L535.499999,86.76 L533.419999,86.76 C532.459999,86.76 531.999999,86.28 531.999999,85.36 L531.999999,81.4 L527.239999,81.4 L527.239999,82.3 C527.239999,84.48 526.239999,86.16 524.279999,87.34 L523.819999,86.82 C525.619999,85.78 526.539999,84.3 526.539999,82.38 L526.539999,80.74 Z M544.879999,86.04 L550.579999,86.04 L550.579999,79.74 L551.299999,79.74 L551.299999,86.04 L556.719999,86.04 L556.719999,86.72 L551.299999,86.72 L551.299999,97.94 L550.579999,97.94 L550.579999,86.72 L544.879999,86.72 L544.879999,86.04 Z M540.499999,80.02 C541.939999,81.1 543.139999,82.2 544.119999,83.3 L543.659999,83.78 C542.739999,82.74 541.519999,81.64 540.019999,80.48 L540.499999,80.02 Z M538.639999,86.12 L542.479999,86.12 L542.479999,95.66 C543.379999,94.96 544.359999,94.1 545.399999,93.1 L545.559999,93.82 C544.379999,95 543.119999,96.04 541.759999,96.96 L541.479999,96.36 C541.699999,96.16 541.819999,95.96 541.819999,95.78 L541.819999,86.8 L538.639999,86.8 L538.639999,86.12 Z" id="全网销售-直连游客和分销商-专为景区酒店"></path>
            <path d="M142.56,27.654 L142.56,35.634 L154.614,35.634 L154.614,27.654 L142.56,27.654 Z M154.614,36.978 L142.56,36.978 L142.56,40.968 L141.132,40.968 L141.132,17.238 L154.614,17.238 L154.614,10.98 L156,10.98 L156,17.238 L169.734,17.238 L169.734,36.978 L156,36.978 L156,43.698 C156,45.882 157.008,46.974 159.066,46.974 L169.356,46.974 C170.7,46.974 171.666,46.68 172.254,46.176 C172.8,45.63 173.178,43.74 173.388,40.464 L174.732,40.926 C174.48,44.412 174.018,46.554 173.346,47.31 C172.674,47.982 171.414,48.36 169.566,48.36 L158.73,48.36 C155.958,48.36 154.614,46.848 154.614,43.908 L154.614,36.978 Z M156,35.634 L168.348,35.634 L168.348,27.654 L156,27.654 L156,35.634 Z M168.348,26.31 L168.348,18.666 L156,18.666 L156,26.31 L168.348,26.31 Z M154.614,18.666 L142.56,18.666 L142.56,26.31 L154.614,26.31 L154.614,18.666 Z M196.693333,34.332 L210.931333,34.332 L210.931333,43.488 L196.693333,43.488 L196.693333,34.332 Z M209.545333,42.186 L209.545333,35.718 L198.079333,35.718 L198.079333,42.186 L209.545333,42.186 Z M207.235333,25.89 C210.847333,28.494 213.829333,31.098 216.223333,33.702 L215.173333,34.752 C212.947333,32.232 209.965333,29.586 206.269333,26.814 L207.235333,25.89 Z M202.909333,10.518 C203.581333,11.778 204.253333,13.29 204.883333,14.97 L222.229333,14.97 L222.229333,16.398 L212.821333,16.398 C211.897333,18.792 210.889333,20.892 209.713333,22.74 L219.499333,22.74 L219.499333,45.672 C219.499333,47.772 218.491333,48.822 216.517333,48.822 L212.233333,48.822 L211.855333,47.436 L216.013333,47.478 C217.399333,47.478 218.113333,46.764 218.113333,45.378 L218.113333,24.084 L189.469333,24.084 L189.469333,48.696 L188.083333,48.696 L188.083333,22.74 L197.281333,22.74 C196.525333,20.43 195.601333,18.33 194.467333,16.398 L185.437333,16.398 L185.437333,14.97 L203.413333,14.97 C202.741333,13.416 202.069333,12.03 201.355333,10.77 L202.909333,10.518 Z M198.751333,22.74 L208.201333,22.74 C209.335333,20.766 210.343333,18.666 211.183333,16.398 L196.105333,16.398 C197.071333,18.162 197.953333,20.304 198.751333,22.74 Z M200.137333,25.974 L201.187333,26.898 C198.667333,29.838 195.601333,32.442 191.947333,34.668 L191.023333,33.492 C194.635333,31.35 197.659333,28.83 200.137333,25.974 Z M234.992667,11.442 C238.016667,13.668 240.494667,15.894 242.510667,18.078 L241.544667,19.086 C239.612667,16.944 237.092667,14.718 233.984667,12.408 L234.992667,11.442 Z M260.318667,48.192 C258.050667,48.192 255.614667,48.15 252.968667,48.108 C250.322667,48.024 248.222667,47.772 246.626667,47.268 C245.030667,46.764 243.518667,45.714 242.174667,44.034 C241.628667,43.278 241.082667,42.942 240.578667,42.942 C239.318667,42.942 237.344667,44.916 234.656667,48.906 L233.480667,47.982 C236.084667,44.118 238.226667,42.018 239.948667,41.598 L239.948667,27.36 L233.438667,27.36 L233.438667,25.932 L241.334667,25.932 L241.334667,41.64 C241.880667,41.85 242.426667,42.312 242.972667,42.984 C244.022667,44.328 245.198667,45.252 246.542667,45.84 C247.970667,46.344 249.860667,46.638 252.296667,46.722 C254.228667,46.764 256.832667,46.806 260.108667,46.806 C262.040667,46.806 263.972667,46.764 265.988667,46.764 C267.920667,46.722 269.432667,46.68 270.524667,46.68 L270.146667,48.192 L260.318667,48.192 Z M247.928667,13.752 L266.534667,13.752 L266.534667,15.18 L247.928667,15.18 L247.928667,13.752 Z M245.450667,23.412 L269.558667,23.412 L269.558667,24.84 L256.202667,24.84 C253.304667,32.652 250.952667,37.566 249.188667,39.54 C255.866667,38.994 261.284667,38.238 265.442667,37.314 C264.224667,34.542 262.838667,31.812 261.284667,29.208 L262.544667,28.83 C264.896667,32.694 266.954667,37.146 268.802667,42.186 L267.500667,42.522 C267.038667,41.178 266.534667,39.918 266.030667,38.658 C261.410667,39.582 255.152667,40.38 247.298667,41.052 L246.920667,39.708 C248.684667,39.162 251.330667,34.206 254.816667,24.84 L245.450667,24.84 L245.450667,23.412 Z M289.84,26.436 L309.286,26.436 L309.286,34.164 L289.84,34.164 L289.84,26.436 Z M307.9,32.946 L307.9,27.654 L291.226,27.654 L291.226,32.946 L307.9,32.946 Z M313.36,37.986 L313.36,49.032 L311.974,49.032 L311.974,47.142 L287.488,47.142 L287.488,49.032 L286.06,49.032 L286.06,37.986 L313.36,37.986 Z M287.488,45.882 L311.974,45.882 L311.974,39.33 L287.488,39.33 L287.488,45.882 Z M281.65,14.256 L291.688,14.256 L291.688,10.98 L293.116,10.98 L293.116,14.256 L305.884,14.256 L305.884,10.98 L307.312,10.98 L307.312,14.256 L317.35,14.256 L317.35,15.558 L307.312,15.558 L307.312,18.582 L305.884,18.582 L305.884,15.558 L293.116,15.558 L293.116,18.582 L291.688,18.582 L291.688,15.558 L281.65,15.558 L281.65,14.256 Z M315.712,21.06 L315.712,28.116 L314.284,28.116 L314.284,22.362 L284.716,22.362 L284.716,28.326 L283.288,28.326 L283.288,21.06 L315.712,21.06 Z M330.617334,13.248 L364.133334,13.248 L364.133334,14.676 L347.879334,14.676 L347.879334,32.148 L365.729334,32.148 L365.729334,33.534 L347.879334,33.534 L347.879334,48.99 L346.451334,48.99 L346.451334,33.534 L328.937334,33.534 L328.937334,32.148 L346.451334,32.148 L346.451334,14.676 L330.617334,14.676 L330.617334,13.248 Z M334.523334,18.498 C336.203334,21.522 337.799334,24.84 339.269334,28.41 L337.925334,29.04 C336.455334,25.344 334.901334,22.026 333.221334,19.17 L334.523334,18.498 Z M360.185334,18.204 L361.529334,18.792 C360.143334,22.278 358.337334,25.68 356.111334,28.998 L354.851334,28.326 C357.119334,24.924 358.883334,21.564 360.185334,18.204 Z M408.648667,32.106 L408.648667,49.032 L407.220667,49.032 L407.220667,46.344 L383.112667,46.344 L383.112667,49.032 L381.684667,49.032 L381.684667,32.106 L408.648667,32.106 Z M383.112667,44.916 L407.220667,44.916 L407.220667,33.492 L383.112667,33.492 L383.112667,44.916 Z M378.282667,27.066 L377.988667,25.722 C382.524667,23.538 387.354667,18.582 392.520667,10.896 L393.906667,11.4 C389.454667,17.952 385.086667,22.656 380.802667,25.596 C390.630667,25.218 399.534667,24.63 407.430667,23.79 C405.414667,21.06 403.356667,18.54 401.256667,16.272 L402.558667,15.6 C406.422667,19.884 409.992667,24.546 413.268667,29.586 L411.924667,30.258 C410.748667,28.452 409.614667,26.73 408.438667,25.134 C399.492667,25.974 389.454667,26.604 378.282667,27.066 Z" id="电商运营平台"></path>
        </g>
    </g>
</svg>