<?xml version="1.0" encoding="UTF-8"?>
<svg width="433px" height="90px" viewBox="0 0 433 90" version="1.1" xmlns="http://www.w3.org/2000/svg" xmlns:xlink="http://www.w3.org/1999/xlink">
    <!-- Generator: Sketch 48.2 (47327) - http://www.bohemiancoding.com/sketch -->
    <title>全域旅游运营管理平台88888@2x</title>
    <desc>Created with Sketch.</desc>
    <defs></defs>
    <g id="智慧旅游-copy" stroke="none" stroke-width="1" fill="none" fill-rule="evenodd" transform="translate(-503.000000, -2760.000000)">
        <g id="Group-Copy-7" transform="translate(503.000000, 2760.000000)" fill="#333333">
            <path d="M19.0459995,1.274 L20.0539995,1.274 C25.4299995,6.986 31.5619995,11.522 38.5339995,14.798 L37.8199995,16.016 C30.6799995,12.572 24.5899995,8.078 19.5499995,2.618 C14.8879995,7.91 8.75599948,12.53 1.11199948,16.394 L0.439999475,15.134 C7.87399948,11.438 14.0899995,6.818 19.0459995,1.274 Z M7.87399948,14.84 L31.3099995,14.84 L31.3099995,16.226 L20.2639995,16.226 L20.2639995,25.13 L33.0319995,25.13 L33.0319995,26.516 L20.2639995,26.516 L20.2639995,36.134 L36.8539995,36.134 L36.8539995,37.562 L2.28799948,37.562 L2.28799948,36.134 L18.8359995,36.134 L18.8359995,26.516 L6.02599948,26.516 L6.02599948,25.13 L18.8359995,25.13 L18.8359995,16.226 L7.87399948,16.226 L7.87399948,14.84 Z M56.0899996,7.112 L71.5039996,7.112 C71.4619996,5.096 71.4619996,2.996 71.4619996,0.854 L72.8899996,0.854 C72.8899996,3.038 72.8899996,5.138 72.9319996,7.112 L78.7699996,7.112 C78.0139996,5.264 77.2159996,3.626 76.3339996,2.156 L77.6779996,1.904 C78.5179996,3.416 79.3159996,5.18 80.0299996,7.112 L82.3399996,7.112 L82.3399996,8.54 L72.9739996,8.54 C73.0999996,16.856 73.5199996,23.24 74.1919996,27.608 C76.3759996,23.576 78.0559996,18.746 79.1899996,13.034 L80.4919996,13.58 C79.0639996,20.09 77.0899996,25.424 74.5279996,29.624 L74.6119996,30.002 C75.6619996,34.874 76.9219996,37.31 78.3919996,37.352 C79.4419996,37.184 80.4499996,34.874 81.3739996,30.422 L82.4659996,31.304 C81.3739996,36.302 80.0299996,38.822 78.3919996,38.822 C77.0899996,38.822 75.9559996,37.73 74.9479996,35.546 C74.3599996,34.328 73.8979996,32.9 73.5199996,31.22 C71.2519996,34.496 68.5639996,37.058 65.5399996,38.822 L64.6579996,37.73 C67.9759996,35.798 70.7899996,33.026 73.1419996,29.414 C72.8899996,28.112 72.6799996,26.726 72.5119996,25.256 C71.9659996,20.93 71.6299996,15.344 71.5459996,8.54 L56.0899996,8.54 L56.0899996,7.112 Z M57.9379996,13.748 L67.8499996,13.748 L67.8499996,24.92 L57.9379996,24.92 L57.9379996,13.748 Z M66.4639996,23.66 L66.4639996,15.05 L59.2819996,15.05 L59.2819996,23.66 L66.4639996,23.66 Z M68.6899996,28.574 L68.6899996,29.918 C64.5319996,31.556 59.9959996,32.9 55.1239996,33.95 L54.7879996,32.606 C59.7019996,31.64 64.3219996,30.296 68.6899996,28.574 Z M44.9599996,12.614 L49.6639996,12.614 L49.6639996,0.854 L51.0499996,0.854 L51.0499996,12.614 L55.6279996,12.614 L55.6279996,14.042 L51.0499996,14.042 L51.0499996,28.7 C52.6459996,28.028 54.1999996,27.272 55.6699996,26.516 L55.6699996,27.986 C52.3939996,29.75 48.8659996,31.178 45.0439996,32.312 L44.6659996,30.884 C46.3879996,30.422 48.0679996,29.876 49.6639996,29.246 L49.6639996,14.042 L44.9599996,14.042 L44.9599996,12.614 Z M109.01,7.574 C107.624,10.304 106.07,12.53 104.348,14.294 L103.256,13.37 C106.28,10.262 108.59,6.062 110.186,0.686 L111.53,1.232 C110.942,3.038 110.312,4.676 109.682,6.188 L125.012,6.188 L125.012,7.574 L109.01,7.574 Z M124.676,19.796 L125.6,20.846 C123.71,22.946 121.316,24.668 118.46,26.012 C120.308,30.674 122.954,34.538 126.44,37.646 L125.558,38.78 C119.342,33.404 115.646,25.508 114.554,15.134 C112.79,15.47 111.026,15.806 109.262,16.058 L109.262,36.638 C111.992,36.008 114.68,35.252 117.326,34.328 L117.578,35.756 C114.764,36.638 111.446,37.52 107.582,38.444 L107.288,37.1 C107.666,36.974 107.876,36.764 107.876,36.428 L107.876,14.924 C113,14.336 117.914,13.16 122.534,11.312 L123.332,12.53 C120.98,13.454 118.46,14.21 115.856,14.84 C116.192,18.452 116.906,21.77 117.956,24.752 C120.644,23.45 122.87,21.812 124.676,19.796 Z M89.0599997,7.448 L104.054,7.448 L104.054,8.834 L94.5199997,8.834 L94.5199997,15.764 L102.92,15.764 C102.92,26.18 102.668,32.564 102.206,34.916 C101.786,37.436 100.022,38.696 96.9979997,38.696 C96.6619997,38.696 96.0739997,38.654 95.2759997,38.612 L94.8979997,37.31 C95.6119997,37.352 96.2419997,37.394 96.7459997,37.394 C99.0139997,37.394 100.358,36.512 100.778,34.832 C101.282,32.732 101.534,26.81 101.534,17.15 L94.4779997,17.15 C94.2259997,26.978 92.4619997,34.244 89.2699997,38.948 L88.2199997,37.982 C91.4119997,33.278 93.0499997,25.676 93.1339997,15.218 L93.1339997,8.834 L89.0599997,8.834 L89.0599997,7.448 Z M95.2759997,0.644 C96.3259997,2.576 97.1659997,4.34 97.7959997,5.936 L96.4519997,6.398 C95.7799997,4.55 94.8979997,2.786 93.8899997,1.022 L95.2759997,0.644 Z M158.276,8.75 C157.184,11.648 155.798,14.084 154.16,16.1 L153.278,15.05 C156.092,11.438 157.982,6.566 158.99,0.434 L160.418,0.686 C159.998,3.122 159.452,5.306 158.78,7.322 L170.246,7.322 L170.246,8.75 L158.276,8.75 Z M133.874,2.072 C136.226,3.794 138.158,5.516 139.754,7.196 L138.704,8.246 C137.234,6.566 135.302,4.844 132.866,3.038 L133.874,2.072 Z M133.706,12.53 C136.142,14.378 138.158,16.268 139.754,18.2 L138.746,19.208 C137.234,17.36 135.218,15.47 132.698,13.496 L133.706,12.53 Z M138.116,23.66 L139.376,24.164 C137.696,29.246 135.806,33.992 133.748,38.444 L132.404,37.898 C134.63,33.278 136.52,28.532 138.116,23.66 Z M144.752,9.422 L140.888,9.422 L140.888,8.036 L147.524,8.036 C146.894,5.39 146.18,2.996 145.424,0.854 L146.852,0.602 C147.608,2.744 148.28,5.222 148.91,8.036 L154.16,8.036 L154.16,9.422 L146.138,9.422 L146.138,13.034 C146.138,14.378 146.096,15.722 146.012,17.024 L153.194,17.024 C153.194,26.096 152.984,31.724 152.564,33.908 C152.312,36.764 151.178,38.234 149.078,38.234 C148.49,38.234 147.44,38.192 145.97,38.192 L145.634,36.89 C146.936,36.89 148.07,36.932 149.036,36.932 C150.296,36.932 151.01,35.84 151.22,33.698 C151.556,31.85 151.724,26.768 151.766,18.452 L145.928,18.452 C145.34,27.524 143.45,34.37 140.258,38.948 L139.208,37.982 C142.82,32.774 144.668,24.458 144.752,13.034 L144.752,9.422 Z M157.94,14.714 L168.734,14.714 L168.734,16.016 C167.306,17.948 165.71,19.796 163.988,21.56 L163.988,25.172 L170.372,25.172 L170.372,26.516 L163.988,26.516 L163.988,35.504 C163.988,37.436 163.064,38.402 161.216,38.402 L157.772,38.402 L157.436,37.016 C158.444,37.016 159.536,37.058 160.712,37.058 C161.93,37.058 162.56,36.344 162.56,35 L162.56,26.516 L155.42,26.516 L155.42,25.172 L162.56,25.172 L162.56,21.266 C164.744,18.956 166.256,17.192 167.096,16.016 L157.94,16.016 L157.94,14.714 Z M178.436,1.442 C181.46,3.668 183.938,5.894 185.954,8.078 L184.988,9.086 C183.056,6.944 180.536,4.718 177.428,2.408 L178.436,1.442 Z M203.762,38.192 C201.494,38.192 199.058,38.15 196.412,38.108 C193.766,38.024 191.666,37.772 190.07,37.268 C188.474,36.764 186.962,35.714 185.618,34.034 C185.072,33.278 184.526,32.942 184.022,32.942 C182.762,32.942 180.788,34.916 178.1,38.906 L176.924,37.982 C179.528,34.118 181.67,32.018 183.392,31.598 L183.392,17.36 L176.882,17.36 L176.882,15.932 L184.778,15.932 L184.778,31.64 C185.324,31.85 185.87,32.312 186.416,32.984 C187.466,34.328 188.642,35.252 189.986,35.84 C191.414,36.344 193.304,36.638 195.74,36.722 C197.672,36.764 200.276,36.806 203.552,36.806 C205.484,36.806 207.416,36.764 209.432,36.764 C211.364,36.722 212.876,36.68 213.968,36.68 L213.59,38.192 L203.762,38.192 Z M191.372,3.752 L209.978,3.752 L209.978,5.18 L191.372,5.18 L191.372,3.752 Z M188.894,13.412 L213.002,13.412 L213.002,14.84 L199.646,14.84 C196.748,22.652 194.396,27.566 192.632,29.54 C199.31,28.994 204.728,28.238 208.886,27.314 C207.668,24.542 206.282,21.812 204.728,19.208 L205.988,18.83 C208.34,22.694 210.398,27.146 212.246,32.186 L210.944,32.522 C210.482,31.178 209.978,29.918 209.474,28.658 C204.854,29.582 198.596,30.38 190.742,31.052 L190.364,29.708 C192.128,29.162 194.774,24.206 198.26,14.84 L188.894,14.84 L188.894,13.412 Z M229.34,16.436 L248.786,16.436 L248.786,24.164 L229.34,24.164 L229.34,16.436 Z M247.4,22.946 L247.4,17.654 L230.726,17.654 L230.726,22.946 L247.4,22.946 Z M252.86,27.986 L252.86,39.032 L251.474,39.032 L251.474,37.142 L226.988,37.142 L226.988,39.032 L225.56,39.032 L225.56,27.986 L252.86,27.986 Z M226.988,35.882 L251.474,35.882 L251.474,29.33 L226.988,29.33 L226.988,35.882 Z M221.15,4.256 L231.188,4.256 L231.188,0.98 L232.616,0.98 L232.616,4.256 L245.384,4.256 L245.384,0.98 L246.812,0.98 L246.812,4.256 L256.85,4.256 L256.85,5.558 L246.812,5.558 L246.812,8.582 L245.384,8.582 L245.384,5.558 L232.616,5.558 L232.616,8.582 L231.188,8.582 L231.188,5.558 L221.15,5.558 L221.15,4.256 Z M255.212,11.06 L255.212,18.116 L253.784,18.116 L253.784,12.362 L224.216,12.362 L224.216,18.326 L222.788,18.326 L222.788,11.06 L255.212,11.06 Z M294.524,17.57 L294.524,24.92 L272.684,24.92 L272.684,28.91 L296.414,28.91 L296.414,38.948 L294.986,38.948 L294.986,36.848 L272.684,36.848 L272.684,38.906 L271.298,38.906 L271.298,17.57 L294.524,17.57 Z M272.684,35.504 L294.986,35.504 L294.986,30.17 L272.684,30.17 L272.684,35.504 Z M272.684,23.66 L293.096,23.66 L293.096,18.872 L272.684,18.872 L272.684,23.66 Z M300.278,12.824 L300.278,19.67 L298.892,19.67 L298.892,14.126 L266.888,14.126 L266.888,19.67 L265.502,19.67 L265.502,12.824 L282.806,12.824 C282.26,11.522 281.714,10.346 281.126,9.338 L282.512,9.086 C283.1,10.178 283.688,11.396 284.192,12.824 L300.278,12.824 Z M269.45,5.684 C268.358,7.532 267.056,9.17 265.586,10.64 L264.368,9.884 C267.056,7.196 269.072,4.13 270.416,0.644 L271.802,0.938 C271.298,2.156 270.794,3.29 270.206,4.382 L282.68,4.382 L282.68,5.684 L274.406,5.684 C275.666,7.322 276.632,8.834 277.304,10.262 L276.002,10.766 C275.078,9.044 274.028,7.364 272.81,5.684 L269.45,5.684 Z M287.636,5.684 C286.796,7.28 285.872,8.708 284.822,10.01 L283.562,9.212 C285.662,6.734 287.216,3.878 288.224,0.686 L289.61,0.98 C289.19,2.198 288.77,3.332 288.266,4.382 L301.244,4.382 L301.244,5.684 L292.76,5.684 C293.936,7.196 294.86,8.624 295.532,9.926 L294.23,10.388 C293.39,8.792 292.34,7.196 291.164,5.684 L287.636,5.684 Z M323.84,2.954 L343.244,2.954 L343.244,21.266 L334.256,21.266 L334.256,27.566 L344.252,27.566 L344.252,28.952 L334.256,28.952 L334.256,36.176 L345.89,36.176 L345.89,37.562 L320.9,37.562 L320.9,36.176 L332.828,36.176 L332.828,28.952 L322.832,28.952 L322.832,27.566 L332.828,27.566 L332.828,21.266 L323.84,21.266 L323.84,2.954 Z M341.816,19.922 L341.816,12.824 L334.256,12.824 L334.256,19.922 L341.816,19.922 Z M332.828,19.922 L332.828,12.824 L325.226,12.824 L325.226,19.922 L332.828,19.922 Z M325.226,11.522 L332.828,11.522 L332.828,4.298 L325.226,4.298 L325.226,11.522 Z M334.256,4.298 L334.256,11.522 L341.816,11.522 L341.816,4.298 L334.256,4.298 Z M308.51,17.024 L313.844,17.024 L313.844,5.516 L307.964,5.516 L307.964,4.13 L321.11,4.13 L321.11,5.516 L315.272,5.516 L315.272,17.024 L320.606,17.024 L320.606,18.452 L315.272,18.452 L315.272,29.918 C317.12,29.246 318.968,28.532 320.732,27.734 L320.732,29.162 C316.868,30.842 312.626,32.27 308.09,33.362 L307.754,32.018 C309.854,31.556 311.87,31.01 313.844,30.38 L313.844,18.452 L308.51,18.452 L308.51,17.024 Z M353.954,3.248 L387.47,3.248 L387.47,4.676 L371.216,4.676 L371.216,22.148 L389.066,22.148 L389.066,23.534 L371.216,23.534 L371.216,38.99 L369.788,38.99 L369.788,23.534 L352.274,23.534 L352.274,22.148 L369.788,22.148 L369.788,4.676 L353.954,4.676 L353.954,3.248 Z M357.86,8.498 C359.54,11.522 361.136,14.84 362.606,18.41 L361.262,19.04 C359.792,15.344 358.238,12.026 356.558,9.17 L357.86,8.498 Z M383.522,8.204 L384.866,8.792 C383.48,12.278 381.674,15.68 379.448,18.998 L378.188,18.326 C380.456,14.924 382.22,11.564 383.522,8.204 Z M428.042,22.106 L428.042,39.032 L426.614,39.032 L426.614,36.344 L402.506,36.344 L402.506,39.032 L401.078,39.032 L401.078,22.106 L428.042,22.106 Z M402.506,34.916 L426.614,34.916 L426.614,23.492 L402.506,23.492 L402.506,34.916 Z M397.676,17.066 L397.382,15.722 C401.918,13.538 406.748,8.582 411.914,0.896 L413.3,1.4 C408.848,7.952 404.48,12.656 400.196,15.596 C410.024,15.218 418.928,14.63 426.824,13.79 C424.808,11.06 422.75,8.54 420.65,6.272 L421.952,5.6 C425.816,9.884 429.386,14.546 432.662,19.586 L431.318,20.258 C430.142,18.452 429.008,16.73 427.832,15.134 C418.886,15.974 408.848,16.604 397.676,17.066 Z" id="全域旅游运营管理平台"></path>
            <path d="M23.3279993,72.622 L28.8279993,72.622 C28.4759993,71.698 28.0799993,70.884 27.6179993,70.18 L28.3659993,70.048 C28.8059993,70.796 29.2019993,71.654 29.5979993,72.622 L34.7019993,72.622 C35.1639993,71.786 35.5159993,70.928 35.7359993,70.026 L36.5059993,70.136 C36.2859993,71.016 35.9339993,71.852 35.4499993,72.622 L40.8839993,72.622 L40.8839993,73.326 L32.4799993,73.326 L32.4799993,76.142 L39.7619993,76.142 L39.7619993,76.846 L32.4799993,76.846 L32.4799993,79.684 L41.6319993,79.684 L41.6319993,80.432 L22.5799993,80.432 L22.5799993,79.684 L31.7319993,79.684 L31.7319993,76.846 L24.5379993,76.846 L24.5379993,76.142 L31.7319993,76.142 L31.7319993,73.326 L23.3279993,73.326 L23.3279993,72.622 Z M31.8859993,81.224 L32.6339993,81.312 C32.5239993,82.104 32.3479993,82.852 32.1279993,83.512 L41.1259993,83.512 L41.1259993,84.26 L32.8099993,84.26 C34.3499993,86.812 37.4739993,88.528 42.1379993,89.43 L41.7419993,90.112 C36.7919993,89.056 33.5579993,87.12 32.0399993,84.26 L31.8199993,84.26 C31.3359993,85.36 30.6539993,86.306 29.7959993,87.098 C28.4099993,88.418 25.9679993,89.452 22.4479993,90.2 L22.1179993,89.452 C25.3959993,88.792 27.7499993,87.846 29.2019993,86.592 C29.9499993,85.932 30.5439993,85.162 30.9839993,84.26 L23.1079993,84.26 L23.1079993,83.512 L31.3139993,83.512 C31.5779993,82.786 31.7539993,82.016 31.8859993,81.224 Z M45.5699994,71.566 L64.6219994,71.566 L64.6219994,72.314 L45.5699994,72.314 L45.5699994,71.566 Z M52.0159994,90.068 L50.3219994,90.068 L50.1239994,89.342 L51.7739994,89.364 C52.4559994,89.364 52.8079994,89.034 52.8079994,88.418 L52.8079994,76.098 L47.4619994,76.098 L47.4619994,90.112 L46.7359994,90.112 L46.7359994,75.372 L53.5339994,75.372 L53.5339994,88.572 C53.5339994,89.562 53.0279994,90.068 52.0159994,90.068 Z M49.0899994,79.024 C50.1459994,80.542 51.0479994,82.148 51.7959994,83.864 L51.1359994,84.128 C50.3219994,82.28 49.4419994,80.652 48.4739994,79.266 L49.0899994,79.024 Z M61.9159994,90.068 L60.2879994,90.068 L60.0899994,89.342 L61.6519994,89.364 C62.3559994,89.364 62.7079994,88.99 62.7079994,88.264 L62.7079994,76.098 L57.3399994,76.098 L57.3399994,90.112 L56.6139994,90.112 L56.6139994,75.372 L63.4339994,75.372 L63.4339994,88.418 C63.4339994,89.518 62.9279994,90.068 61.9159994,90.068 Z M58.9679994,79.002 C60.0239994,80.542 60.9479994,82.192 61.7179994,83.93 L61.0579994,84.194 C60.2439994,82.302 59.3419994,80.652 58.3519994,79.244 L58.9679994,79.002 Z M77.6899995,70.048 L78.4819995,70.048 L78.4819995,74.25 L86.4899995,74.25 L86.4899995,84.128 L85.7199995,84.128 L85.7199995,82.544 L78.4819995,82.544 L78.4819995,90.244 L77.6899995,90.244 L77.6899995,82.544 L70.4739995,82.544 L70.4739995,84.128 L69.7039995,84.128 L69.7039995,74.25 L77.6899995,74.25 L77.6899995,70.048 Z M70.4739995,81.796 L77.6899995,81.796 L77.6899995,74.998 L70.4739995,74.998 L70.4739995,81.796 Z M78.4819995,81.796 L85.7199995,81.796 L85.7199995,74.998 L78.4819995,74.998 L78.4819995,81.796 Z M95.6199996,74.888 L106.51,74.888 L106.51,75.592 L101.45,75.592 L101.45,79.53 L105.828,79.53 L105.828,80.234 L101.45,80.234 L101.45,84.458 L107.148,84.458 L107.148,85.184 L95.0259996,85.184 L95.0259996,84.458 L100.702,84.458 L100.702,80.234 L96.3239996,80.234 L96.3239996,79.53 L100.702,79.53 L100.702,75.592 L95.6199996,75.592 L95.6199996,74.888 Z M109.788,71.434 L109.788,90.046 L109.018,90.046 L109.018,88.902 L93.1119996,88.902 L93.1119996,90.046 L92.3419996,90.046 L92.3419996,71.434 L109.788,71.434 Z M93.1119996,88.198 L109.018,88.198 L109.018,72.182 L93.1119996,72.182 L93.1119996,88.198 Z M104.046,81.048 C104.662,81.884 105.19,82.764 105.652,83.688 L105.058,83.974 C104.552,82.94 104.002,82.038 103.43,81.268 L104.046,81.048 Z M132.118,70.334 L132.646,70.334 C135.462,73.326 138.674,75.702 142.326,77.418 L141.952,78.056 C138.212,76.252 135.022,73.898 132.382,71.038 C129.94,73.81 126.728,76.23 122.724,78.254 L122.372,77.594 C126.266,75.658 129.522,73.238 132.118,70.334 Z M126.266,77.44 L138.542,77.44 L138.542,78.166 L132.756,78.166 L132.756,82.83 L139.444,82.83 L139.444,83.556 L132.756,83.556 L132.756,88.594 L141.446,88.594 L141.446,89.342 L123.34,89.342 L123.34,88.594 L132.008,88.594 L132.008,83.556 L125.298,83.556 L125.298,82.83 L132.008,82.83 L132.008,78.166 L126.266,78.166 L126.266,77.44 Z M151.522,73.392 L159.596,73.392 C159.574,72.336 159.574,71.236 159.574,70.114 L160.322,70.114 C160.322,71.258 160.322,72.358 160.344,73.392 L163.402,73.392 C163.006,72.424 162.588,71.566 162.126,70.796 L162.83,70.664 C163.27,71.456 163.688,72.38 164.062,73.392 L165.272,73.392 L165.272,74.14 L160.366,74.14 C160.432,78.496 160.652,81.84 161.004,84.128 C162.148,82.016 163.028,79.486 163.622,76.494 L164.304,76.78 C163.556,80.19 162.522,82.984 161.18,85.184 L161.224,85.382 C161.774,87.934 162.434,89.21 163.204,89.232 C163.754,89.144 164.282,87.934 164.766,85.602 L165.338,86.064 C164.766,88.682 164.062,90.002 163.204,90.002 C162.522,90.002 161.928,89.43 161.4,88.286 C161.092,87.648 160.85,86.9 160.652,86.02 C159.464,87.736 158.056,89.078 156.472,90.002 L156.01,89.43 C157.748,88.418 159.222,86.966 160.454,85.074 C160.322,84.392 160.212,83.666 160.124,82.896 C159.838,80.63 159.662,77.704 159.618,74.14 L151.522,74.14 L151.522,73.392 Z M152.49,76.868 L157.682,76.868 L157.682,82.72 L152.49,82.72 L152.49,76.868 Z M156.956,82.06 L156.956,77.55 L153.194,77.55 L153.194,82.06 L156.956,82.06 Z M158.122,84.634 L158.122,85.338 C155.944,86.196 153.568,86.9 151.016,87.45 L150.84,86.746 C153.414,86.24 155.834,85.536 158.122,84.634 Z M145.692,76.274 L148.156,76.274 L148.156,70.114 L148.882,70.114 L148.882,76.274 L151.28,76.274 L151.28,77.022 L148.882,77.022 L148.882,84.7 C149.718,84.348 150.532,83.952 151.302,83.556 L151.302,84.326 C149.586,85.25 147.738,85.998 145.736,86.592 L145.538,85.844 C146.44,85.602 147.32,85.316 148.156,84.986 L148.156,77.022 L145.692,77.022 L145.692,76.274 Z M179.242,73.634 C178.516,75.064 177.702,76.23 176.8,77.154 L176.228,76.67 C177.812,75.042 179.022,72.842 179.858,70.026 L180.562,70.312 C180.254,71.258 179.924,72.116 179.594,72.908 L187.624,72.908 L187.624,73.634 L179.242,73.634 Z M187.448,80.036 L187.932,80.586 C186.942,81.686 185.688,82.588 184.192,83.292 C185.16,85.734 186.546,87.758 188.372,89.386 L187.91,89.98 C184.654,87.164 182.718,83.028 182.146,77.594 C181.222,77.77 180.298,77.946 179.374,78.078 L179.374,88.858 C180.804,88.528 182.212,88.132 183.598,87.648 L183.73,88.396 C182.256,88.858 180.518,89.32 178.494,89.804 L178.34,89.1 C178.538,89.034 178.648,88.924 178.648,88.748 L178.648,77.484 C181.332,77.176 183.906,76.56 186.326,75.592 L186.744,76.23 C185.512,76.714 184.192,77.11 182.828,77.44 C183.004,79.332 183.378,81.07 183.928,82.632 C185.336,81.95 186.502,81.092 187.448,80.036 Z M168.792,73.568 L176.646,73.568 L176.646,74.294 L171.652,74.294 L171.652,77.924 L176.052,77.924 C176.052,83.38 175.92,86.724 175.678,87.956 C175.458,89.276 174.534,89.936 172.95,89.936 C172.774,89.936 172.466,89.914 172.048,89.892 L171.85,89.21 C172.224,89.232 172.554,89.254 172.818,89.254 C174.006,89.254 174.71,88.792 174.93,87.912 C175.194,86.812 175.326,83.71 175.326,78.65 L171.63,78.65 C171.498,83.798 170.574,87.604 168.902,90.068 L168.352,89.562 C170.024,87.098 170.882,83.116 170.926,77.638 L170.926,74.294 L168.792,74.294 L168.792,73.568 Z M172.048,70.004 C172.598,71.016 173.038,71.94 173.368,72.776 L172.664,73.018 C172.312,72.05 171.85,71.126 171.322,70.202 L172.048,70.004 Z M205.048,74.25 C204.476,75.768 203.75,77.044 202.892,78.1 L202.43,77.55 C203.904,75.658 204.894,73.106 205.422,69.894 L206.17,70.026 C205.95,71.302 205.664,72.446 205.312,73.502 L211.318,73.502 L211.318,74.25 L205.048,74.25 Z M192.266,70.752 C193.498,71.654 194.51,72.556 195.346,73.436 L194.796,73.986 C194.026,73.106 193.014,72.204 191.738,71.258 L192.266,70.752 Z M192.178,76.23 C193.454,77.198 194.51,78.188 195.346,79.2 L194.818,79.728 C194.026,78.76 192.97,77.77 191.65,76.736 L192.178,76.23 Z M194.488,82.06 L195.148,82.324 C194.268,84.986 193.278,87.472 192.2,89.804 L191.496,89.518 C192.662,87.098 193.652,84.612 194.488,82.06 Z M197.964,74.602 L195.94,74.602 L195.94,73.876 L199.416,73.876 C199.086,72.49 198.712,71.236 198.316,70.114 L199.064,69.982 C199.46,71.104 199.812,72.402 200.142,73.876 L202.892,73.876 L202.892,74.602 L198.69,74.602 L198.69,76.494 C198.69,77.198 198.668,77.902 198.624,78.584 L202.386,78.584 C202.386,83.336 202.276,86.284 202.056,87.428 C201.924,88.924 201.33,89.694 200.23,89.694 C199.922,89.694 199.372,89.672 198.602,89.672 L198.426,88.99 C199.108,88.99 199.702,89.012 200.208,89.012 C200.868,89.012 201.242,88.44 201.352,87.318 C201.528,86.35 201.616,83.688 201.638,79.332 L198.58,79.332 C198.272,84.084 197.282,87.67 195.61,90.068 L195.06,89.562 C196.952,86.834 197.92,82.478 197.964,76.494 L197.964,74.602 Z M204.872,77.374 L210.526,77.374 L210.526,78.056 C209.778,79.068 208.942,80.036 208.04,80.96 L208.04,82.852 L211.384,82.852 L211.384,83.556 L208.04,83.556 L208.04,88.264 C208.04,89.276 207.556,89.782 206.588,89.782 L204.784,89.782 L204.608,89.056 C205.136,89.056 205.708,89.078 206.324,89.078 C206.962,89.078 207.292,88.704 207.292,88 L207.292,83.556 L203.552,83.556 L203.552,82.852 L207.292,82.852 L207.292,80.806 C208.436,79.596 209.228,78.672 209.668,78.056 L204.872,78.056 L204.872,77.374 Z M225.574,72.732 C225.046,73.656 224.43,74.448 223.77,75.086 L223.308,74.536 C224.452,73.458 225.332,71.962 225.97,70.048 L226.674,70.202 C226.454,70.862 226.19,71.478 225.926,72.028 L232.702,72.028 L232.702,72.732 L229.116,72.732 C229.072,73.788 228.984,74.734 228.83,75.592 L233.296,75.592 L233.296,76.318 L228.676,76.318 C228.588,76.692 228.478,77.044 228.368,77.374 C230.106,78.276 231.558,79.178 232.746,80.102 L232.196,80.63 C231.14,79.772 229.776,78.87 228.104,77.946 C227.268,79.662 225.684,81.048 223.352,82.126 L222.868,81.488 C225.156,80.476 226.696,79.134 227.488,77.506 C227.642,77.11 227.774,76.714 227.906,76.318 L223,76.318 L223,75.592 L228.082,75.592 C228.258,74.712 228.346,73.744 228.368,72.732 L225.574,72.732 Z M234.594,71.698 L241.128,71.698 L241.128,79.332 L234.594,79.332 L234.594,71.698 Z M240.38,78.606 L240.38,72.402 L235.32,72.402 L235.32,78.606 L240.38,78.606 Z M239.588,81.466 L239.588,90.134 L238.818,90.134 L238.818,88.924 L227.092,88.924 L227.092,90.134 L226.344,90.134 L226.344,81.466 L239.588,81.466 Z M227.092,88.22 L238.818,88.22 L238.818,85.602 L227.092,85.602 L227.092,88.22 Z M227.092,84.92 L238.818,84.92 L238.818,82.192 L227.092,82.192 L227.092,84.92 Z M262.6,84.392 L247.662,84.392 L247.662,83.754 L261.852,83.754 L261.852,81.752 L248.498,81.752 L248.498,81.136 L261.852,81.136 L261.852,79.222 L247.904,79.222 L247.904,78.584 L250.764,78.584 L250.764,76.956 L246.474,76.956 L246.474,76.296 L250.764,76.296 L250.764,74.558 L247.376,74.558 L247.376,73.92 L250.764,73.92 L250.764,72.182 L246.826,72.182 L246.826,71.522 L250.764,71.522 L250.764,70.136 L251.512,70.136 L251.512,71.522 L255.032,71.522 L255.032,72.182 L251.512,72.182 L251.512,73.92 L254.79,73.92 L254.79,74.558 L251.512,74.558 L251.512,76.296 L255.054,76.296 L255.054,76.956 L251.512,76.956 L251.512,78.584 L259.828,78.584 L259.828,76.956 L256.044,76.956 L256.044,76.296 L259.828,76.296 L259.828,74.558 L256.506,74.558 L256.506,73.92 L259.828,73.92 L259.828,72.182 L256.132,72.182 L256.132,71.522 L259.828,71.522 L259.828,70.136 L260.576,70.136 L260.576,71.522 L264.426,71.522 L264.426,72.182 L260.576,72.182 L260.576,73.92 L263.964,73.92 L263.964,74.558 L260.576,74.558 L260.576,76.296 L264.734,76.296 L264.734,76.956 L260.576,76.956 L260.576,78.584 L262.6,78.584 L262.6,84.392 Z M248.366,85.514 L249.048,85.646 C248.52,87.186 247.75,88.506 246.76,89.65 L246.122,89.254 C247.134,88.176 247.882,86.922 248.366,85.514 Z M258.75,89.76 L252.766,89.76 C251.688,89.76 251.16,89.32 251.16,88.44 L251.16,85.382 L251.886,85.382 L251.886,88.286 C251.886,88.814 252.238,89.078 252.964,89.078 L258.596,89.078 C259.168,89.078 259.542,88.968 259.74,88.792 C260.048,88.506 260.268,87.692 260.356,86.372 L261.06,86.592 C260.95,88.044 260.686,88.968 260.29,89.364 C259.982,89.628 259.454,89.76 258.75,89.76 Z M255.23,84.678 C256.264,85.558 257.056,86.35 257.606,87.032 L257.034,87.45 C256.462,86.702 255.67,85.91 254.68,85.03 L255.23,84.678 Z M262.622,85.272 C263.898,86.636 264.866,87.846 265.526,88.858 L264.976,89.276 C264.272,88.176 263.304,86.966 262.072,85.624 L262.622,85.272 Z M284.732,78.87 L284.732,82.72 L273.292,82.72 L273.292,84.81 L285.722,84.81 L285.722,90.068 L284.974,90.068 L284.974,88.968 L273.292,88.968 L273.292,90.046 L272.566,90.046 L272.566,78.87 L284.732,78.87 Z M273.292,88.264 L284.974,88.264 L284.974,85.47 L273.292,85.47 L273.292,88.264 Z M273.292,82.06 L283.984,82.06 L283.984,79.552 L273.292,79.552 L273.292,82.06 Z M287.746,76.384 L287.746,79.97 L287.02,79.97 L287.02,77.066 L270.256,77.066 L270.256,79.97 L269.53,79.97 L269.53,76.384 L278.594,76.384 C278.308,75.702 278.022,75.086 277.714,74.558 L278.44,74.426 C278.748,74.998 279.056,75.636 279.32,76.384 L287.746,76.384 Z M271.598,72.644 C271.026,73.612 270.344,74.47 269.574,75.24 L268.936,74.844 C270.344,73.436 271.4,71.83 272.104,70.004 L272.83,70.158 C272.566,70.796 272.302,71.39 271.994,71.962 L278.528,71.962 L278.528,72.644 L274.194,72.644 C274.854,73.502 275.36,74.294 275.712,75.042 L275.03,75.306 C274.546,74.404 273.996,73.524 273.358,72.644 L271.598,72.644 Z M281.124,72.644 C280.684,73.48 280.2,74.228 279.65,74.91 L278.99,74.492 C280.09,73.194 280.904,71.698 281.432,70.026 L282.158,70.18 C281.938,70.818 281.718,71.412 281.454,71.962 L288.252,71.962 L288.252,72.644 L283.808,72.644 C284.424,73.436 284.908,74.184 285.26,74.866 L284.578,75.108 C284.138,74.272 283.588,73.436 282.972,72.644 L281.124,72.644 Z M300.088,71.214 L310.252,71.214 L310.252,80.806 L305.544,80.806 L305.544,84.106 L310.78,84.106 L310.78,84.832 L305.544,84.832 L305.544,88.616 L311.638,88.616 L311.638,89.342 L298.548,89.342 L298.548,88.616 L304.796,88.616 L304.796,84.832 L299.56,84.832 L299.56,84.106 L304.796,84.106 L304.796,80.806 L300.088,80.806 L300.088,71.214 Z M309.504,80.102 L309.504,76.384 L305.544,76.384 L305.544,80.102 L309.504,80.102 Z M304.796,80.102 L304.796,76.384 L300.814,76.384 L300.814,80.102 L304.796,80.102 Z M300.814,75.702 L304.796,75.702 L304.796,71.918 L300.814,71.918 L300.814,75.702 Z M305.544,71.918 L305.544,75.702 L309.504,75.702 L309.504,71.918 L305.544,71.918 Z M292.058,78.584 L294.852,78.584 L294.852,72.556 L291.772,72.556 L291.772,71.83 L298.658,71.83 L298.658,72.556 L295.6,72.556 L295.6,78.584 L298.394,78.584 L298.394,79.332 L295.6,79.332 L295.6,85.338 C296.568,84.986 297.536,84.612 298.46,84.194 L298.46,84.942 C296.436,85.822 294.214,86.57 291.838,87.142 L291.662,86.438 C292.762,86.196 293.818,85.91 294.852,85.58 L294.852,79.332 L292.058,79.332 L292.058,78.584 Z M330.338,85.668 L330.338,86.394 C328.314,87.406 326.004,88.242 323.452,88.858 L323.342,88.11 C326.004,87.494 328.336,86.68 330.338,85.668 Z M327.346,70.18 L328.05,70.488 C326.818,73.678 325.564,76.12 324.332,77.814 C325.652,77.638 327.016,77.352 328.402,76.956 L329.634,74.624 L330.316,74.888 C328.072,79.112 326.224,81.994 324.816,83.512 C326.708,83.072 328.534,82.478 330.338,81.686 L330.338,82.412 C328.138,83.336 325.982,83.974 323.892,84.37 L323.694,83.622 C323.826,83.578 323.936,83.49 324.046,83.402 C325.146,82.258 326.466,80.366 327.962,77.726 C326.422,78.1 324.948,78.408 323.584,78.628 L323.386,77.902 C323.496,77.858 323.606,77.748 323.716,77.616 C325.124,75.548 326.334,73.084 327.346,70.18 Z M331.218,79.332 L331.042,78.628 L331.196,78.562 C332.054,77.946 333.198,76.252 334.606,73.48 L330.272,73.48 L330.272,72.754 L336.278,72.754 C335.926,71.742 335.53,70.818 335.09,70.026 L335.838,69.894 C336.256,70.73 336.652,71.676 337.048,72.754 L342.196,72.754 L342.196,73.48 L335.376,73.48 C334.144,75.988 333.066,77.682 332.186,78.562 C334.738,78.364 337.268,78.056 339.776,77.616 C339.16,76.736 338.478,75.856 337.752,74.932 L338.324,74.558 C339.908,76.56 341.14,78.298 341.976,79.772 L341.404,80.212 C341.052,79.574 340.656,78.914 340.216,78.254 C337.444,78.694 334.43,79.068 331.218,79.332 Z M333.264,80.608 L334.012,80.608 C333.924,83.336 333.572,85.36 332.956,86.636 C332.318,87.978 331.262,89.1 329.788,90.024 L329.304,89.43 C330.69,88.572 331.68,87.538 332.274,86.328 C332.846,85.096 333.176,83.204 333.264,80.608 Z M340.744,89.694 L338.984,89.694 C338.038,89.694 337.576,89.144 337.576,88.088 L337.576,80.476 L338.302,80.476 L338.302,88.022 C338.302,88.638 338.522,88.968 338.984,88.968 L340.7,88.968 C341.36,88.968 341.756,88.726 341.888,88.286 C342.042,87.692 342.13,86.57 342.13,84.942 L342.79,85.184 C342.79,87.208 342.658,88.462 342.416,88.968 C342.152,89.43 341.58,89.672 340.744,89.694 Z M350.864,78.276 L361.05,78.276 L361.05,82.324 L350.864,82.324 L350.864,78.276 Z M360.324,81.686 L360.324,78.914 L351.59,78.914 L351.59,81.686 L360.324,81.686 Z M363.184,84.326 L363.184,90.112 L362.458,90.112 L362.458,89.122 L349.632,89.122 L349.632,90.112 L348.884,90.112 L348.884,84.326 L363.184,84.326 Z M349.632,88.462 L362.458,88.462 L362.458,85.03 L349.632,85.03 L349.632,88.462 Z M346.574,71.896 L351.832,71.896 L351.832,70.18 L352.58,70.18 L352.58,71.896 L359.268,71.896 L359.268,70.18 L360.016,70.18 L360.016,71.896 L365.274,71.896 L365.274,72.578 L360.016,72.578 L360.016,74.162 L359.268,74.162 L359.268,72.578 L352.58,72.578 L352.58,74.162 L351.832,74.162 L351.832,72.578 L346.574,72.578 L346.574,71.896 Z M364.416,75.46 L364.416,79.156 L363.668,79.156 L363.668,76.142 L348.18,76.142 L348.18,79.266 L347.432,79.266 L347.432,75.46 L364.416,75.46 Z M376.318001,85.668 L376.318001,86.394 C374.294001,87.406 371.984001,88.242 369.432001,88.858 L369.322001,88.11 C371.984001,87.494 374.316001,86.68 376.318001,85.668 Z M373.326001,70.18 L374.030001,70.488 C372.798001,73.678 371.544001,76.12 370.312001,77.814 C371.632001,77.638 372.996001,77.352 374.382001,76.956 L375.614001,74.624 L376.296001,74.888 C374.052001,79.112 372.204001,81.994 370.796001,83.512 C372.688001,83.072 374.514001,82.478 376.318001,81.686 L376.318001,82.412 C374.118001,83.336 371.962001,83.974 369.872001,84.37 L369.674001,83.622 C369.806001,83.578 369.916001,83.49 370.026001,83.402 C371.126001,82.258 372.446001,80.366 373.942001,77.726 C372.402001,78.1 370.928001,78.408 369.564001,78.628 L369.366001,77.902 C369.476001,77.858 369.586001,77.748 369.696001,77.616 C371.104001,75.548 372.314001,73.084 373.326001,70.18 Z M377.198001,79.332 L377.022001,78.628 L377.176001,78.562 C378.034001,77.946 379.178001,76.252 380.586001,73.48 L376.252001,73.48 L376.252001,72.754 L382.258001,72.754 C381.906001,71.742 381.510001,70.818 381.070001,70.026 L381.818001,69.894 C382.236001,70.73 382.632001,71.676 383.028001,72.754 L388.176001,72.754 L388.176001,73.48 L381.356001,73.48 C380.124001,75.988 379.046001,77.682 378.166001,78.562 C380.718001,78.364 383.248001,78.056 385.756001,77.616 C385.140001,76.736 384.458001,75.856 383.732001,74.932 L384.304001,74.558 C385.888001,76.56 387.120001,78.298 387.956001,79.772 L387.384001,80.212 C387.032001,79.574 386.636001,78.914 386.196001,78.254 C383.424001,78.694 380.410001,79.068 377.198001,79.332 Z M379.244001,80.608 L379.992001,80.608 C379.904001,83.336 379.552001,85.36 378.936001,86.636 C378.298001,87.978 377.242001,89.1 375.768001,90.024 L375.284001,89.43 C376.670001,88.572 377.660001,87.538 378.254001,86.328 C378.826001,85.096 379.156001,83.204 379.244001,80.608 Z M386.724001,89.694 L384.964001,89.694 C384.018001,89.694 383.556001,89.144 383.556001,88.088 L383.556001,80.476 L384.282001,80.476 L384.282001,88.022 C384.282001,88.638 384.502001,88.968 384.964001,88.968 L386.680001,88.968 C387.340001,88.968 387.736001,88.726 387.868001,88.286 C388.022001,87.692 388.110001,86.57 388.110001,84.942 L388.770001,85.184 C388.770001,87.208 388.638001,88.462 388.396001,88.968 C388.132001,89.43 387.560001,89.672 386.724001,89.694 Z M405.710001,70.18 L406.436001,70.18 L406.436001,76.56 L410.704001,76.56 L410.704001,88.462 C410.704001,89.452 410.198001,89.958 409.230001,89.958 L406.898001,89.958 L406.678001,89.21 L408.966001,89.254 C409.604001,89.254 409.934001,88.924 409.934001,88.308 L409.934001,84.942 L402.168001,84.942 L402.168001,90.068 L401.420001,90.068 L401.420001,76.56 L405.710001,76.56 L405.710001,70.18 Z M402.168001,81.114 L402.168001,84.238 L409.934001,84.238 L409.934001,81.114 L402.168001,81.114 Z M409.934001,80.432 L409.934001,77.286 L402.168001,77.286 L402.168001,80.432 L409.934001,80.432 Z M401.508001,71.016 C402.256001,72.204 402.982001,73.48 403.642001,74.844 L403.026001,75.152 C402.344001,73.722 401.618001,72.446 400.870001,71.346 L401.508001,71.016 Z M410.616001,70.862 L411.276001,71.17 C410.704001,72.534 409.956001,73.876 409.054001,75.174 L408.438001,74.844 C409.340001,73.502 410.066001,72.182 410.616001,70.862 Z M395.106001,70.158 L395.854001,70.312 C395.612001,71.214 395.348001,72.072 395.062001,72.886 L399.594001,72.886 L399.594001,73.612 L394.820001,73.612 C394.204001,75.218 393.456001,76.692 392.620001,78.012 L392.004001,77.616 C393.390001,75.46 394.424001,72.974 395.106001,70.158 Z M394.072001,77.33 L399.176001,77.33 L399.176001,78.012 L396.602001,78.012 L396.602001,81.598 L399.924001,81.598 L399.924001,82.324 L396.602001,82.324 L396.602001,88.528 C397.702001,88.176 398.846001,87.648 399.990001,86.966 L400.122001,87.692 C398.846001,88.44 397.394001,89.034 395.744001,89.496 L395.414001,88.836 C395.700001,88.748 395.854001,88.616 395.854001,88.44 L395.854001,82.324 L392.532001,82.324 L392.532001,81.598 L395.854001,81.598 L395.854001,78.012 L394.072001,78.012 L394.072001,77.33 Z" id="美丽中国-全域旅游-智慧管理-统营统销"></path>
        </g>
    </g>
</svg>