<?xml version="1.0" encoding="UTF-8"?>
<svg width="362px" height="82px" viewBox="0 0 362 82" version="1.1" xmlns="http://www.w3.org/2000/svg" xmlns:xlink="http://www.w3.org/1999/xlink">
    <!-- Generator: Sketch 48.2 (47327) - http://www.bohemiancoding.com/sketch -->
    <title>分销商采购管理利器@2x</title>
    <desc>Created with Sketch.</desc>
    <defs></defs>
    <g id="智慧旅游-copy" stroke="none" stroke-width="1" fill="none" fill-rule="evenodd" transform="translate(-537.000000, -1910.000000)">
        <g id="Group-21" transform="translate(537.000000, 1910.000000)">
            <path d="M103.72,15.28 L103.72,16.36 C101.88,17.04 99.8,17.6 97.46,18.02 L97.3,16.9 C99.74,16.5 101.88,15.96 103.72,15.28 Z M100.82,0.66 L101.84,1.06 C100.76,3.74 99.7,5.84 98.62,7.36 C99.62,7.24 100.64,7.04 101.68,6.8 C102.1,5.96 102.54,5.08 102.98,4.14 L103.94,4.5 C102.02,8.38 100.44,11.08 99.22,12.6 C100.48,12.32 101.72,11.96 102.96,11.48 L102.96,12.48 C101.24,13.12 99.56,13.56 97.94,13.8 L97.64,12.8 C97.84,12.72 98.02,12.6 98.16,12.48 C99,11.54 100,9.98 101.16,7.82 C99.96,8.06 98.76,8.28 97.58,8.46 L97.3,7.46 C97.46,7.38 97.62,7.26 97.76,7.06 C98.92,5.24 99.94,3.1 100.82,0.66 Z M107.84,11.4 C109.8,12.08 111.58,12.88 113.2,13.82 L112.66,14.66 C110.9,13.62 109.1,12.82 107.26,12.26 L107.84,11.4 Z M105.42,14.96 C108.6,15.8 111.52,16.82 114.16,18.02 L113.56,18.92 C110.72,17.64 107.8,16.62 104.78,15.88 L105.42,14.96 Z M107.44,0.66 L108.54,0.78 C108.36,1.46 108.14,2.12 107.88,2.72 L113.82,2.72 L113.82,3.6 C112.94,5.32 111.86,6.8 110.58,8.06 C112.06,9.14 113.7,10.06 115.54,10.84 L114.96,11.8 C113.08,10.96 111.36,9.94 109.84,8.74 C108.18,10.16 106.24,11.24 104,12 L103.46,11.06 C105.6,10.38 107.46,9.38 109.02,8.06 C108.06,7.24 107.18,6.36 106.38,5.4 C105.84,6.12 105.24,6.8 104.56,7.42 L103.88,6.54 C105.64,4.94 106.84,2.98 107.44,0.66 Z M109.74,7.4 C110.84,6.34 111.78,5.12 112.58,3.76 L107.4,3.76 L106.92,4.6 C107.76,5.62 108.7,6.56 109.74,7.4 Z M117.26,4.16 L120,4.16 C119.72,3.06 119.4,2.06 119.04,1.14 L120.12,0.96 C120.44,1.9 120.76,2.96 121.04,4.16 L123.48,4.16 L123.48,5.2 L117.26,5.2 L117.26,4.16 Z M118.64,6.58 C119.12,8.9 119.54,11.54 119.9,14.52 L119.02,14.74 C118.66,12.02 118.24,9.4 117.72,6.88 L118.64,6.58 Z M123.5,14.8 L123.5,15.84 C121.64,16.56 119.64,17.18 117.48,17.66 L117.2,16.6 C118.4,16.36 119.58,16.08 120.72,15.76 C121.26,12.8 121.64,9.62 121.88,6.26 L122.86,6.4 C122.6,9.68 122.2,12.7 121.68,15.46 C122.28,15.26 122.9,15.04 123.5,14.8 Z M133.2,4.7 L133.2,1.54 L134.26,1.54 L134.26,5.68 L124.94,5.68 L124.94,1.54 L126,1.54 L126,4.7 L129.04,4.7 L129.04,0.74 L130.12,0.74 L130.12,4.7 L133.2,4.7 Z M124,7.62 L135.34,7.62 L135.34,8.66 L129.94,8.66 C129.78,9.42 129.54,10.16 129.26,10.84 L134.66,10.84 L134.66,17.48 C134.66,18.4 134.28,18.88 133.54,18.88 L132.64,18.88 L132.36,17.9 L133.22,17.94 C133.54,17.94 133.7,17.72 133.7,17.28 L133.7,11.84 L131.54,11.84 L131.54,18.6 L130.62,18.6 L130.62,11.84 L128.7,11.84 L128.7,18.6 L127.76,18.6 L127.76,11.84 L125.66,11.84 L125.66,18.88 L124.66,18.88 L124.66,10.84 L128.22,10.84 C128.52,10.14 128.74,9.42 128.88,8.66 L124,8.66 L124,7.62 Z M137.92,2.68 L145.72,2.68 L145.96,0.66 L147.06,0.82 C147,1.46 146.92,2.08 146.84,2.68 L154.76,2.68 L154.76,3.7 L146.68,3.7 C146.56,4.38 146.42,5.04 146.3,5.64 L152.16,5.64 L152.16,17.4 L155.18,17.4 L155.18,18.4 L137.52,18.4 L137.52,17.4 L140.44,17.4 L140.44,5.64 L145.2,5.64 C145.34,4.98 145.46,4.34 145.58,3.7 L137.92,3.7 L137.92,2.68 Z M141.52,17.4 L151.08,17.4 L151.08,15.3 L141.52,15.3 L141.52,17.4 Z M141.52,14.4 L151.08,14.4 L151.08,12.4 L141.52,12.4 L141.52,14.4 Z M141.52,11.5 L151.08,11.5 L151.08,9.52 L141.52,9.52 L141.52,11.5 Z M141.52,8.62 L151.08,8.62 L151.08,6.62 L141.52,6.62 L141.52,8.62 Z M172.7,3.44 L173.68,3.92 C172.82,5.62 171.8,7.1 170.64,8.34 L169.76,7.72 C170.88,6.52 171.86,5.1 172.7,3.44 Z M166.08,3.78 C166.7,4.82 167.24,6 167.72,7.32 L166.68,7.6 C166.26,6.38 165.72,5.22 165.08,4.12 L166.08,3.78 Z M160.6,4.22 C161.34,5.34 161.98,6.54 162.52,7.82 L161.52,8.28 C160.92,6.86 160.28,5.62 159.58,4.54 L160.6,4.22 Z M173.48,0.86 L174.02,1.78 C170.18,2.58 165.1,3 158.78,3 L158.42,2 C164.54,1.98 169.56,1.6 173.48,0.86 Z M158.4,10.14 L165.8,10.14 L165.8,8.06 L166.88,8.06 L166.88,10.14 L174.3,10.14 L174.3,11.22 L168.2,11.22 C169.56,13.42 171.94,15.38 175.34,17.1 L174.6,18.04 C171.1,16 168.66,13.74 167.28,11.22 L166.88,11.22 L166.88,18.86 L165.8,18.86 L165.8,11.22 L165.42,11.22 C163.98,14.06 161.5,16.38 158,18.2 L157.4,17.2 C160.7,15.66 163.06,13.66 164.5,11.22 L158.4,11.22 L158.4,10.14 Z M194.24,1.66 L205.04,1.66 L205.04,7.88 L194.24,7.88 L194.24,1.66 Z M203.94,6.84 L203.94,2.7 L195.34,2.7 L195.34,6.84 L203.94,6.84 Z M198.38,10.24 L198.38,18.64 L197.32,18.64 L197.32,17.58 L192.7,17.58 L192.7,18.64 L191.64,18.64 L191.64,10.24 L198.38,10.24 Z M192.7,16.56 L197.32,16.56 L197.32,11.26 L192.7,11.26 L192.7,16.56 Z M207.68,10.24 L207.68,18.64 L206.6,18.64 L206.6,17.58 L201.78,17.58 L201.78,18.64 L200.72,18.64 L200.72,10.24 L207.68,10.24 Z M201.78,16.56 L206.6,16.56 L206.6,11.26 L201.78,11.26 L201.78,16.56 Z M220.2,7.06 L220.2,9.62 L219.12,9.62 L219.12,5.82 L218.9,5.82 C217.66,7.66 215.32,9.24 211.88,10.54 L211.3,9.6 C214.58,8.5 216.8,7.24 217.92,5.82 L211.28,5.82 L211.28,4.8 L219.12,4.8 L219.12,0.68 L220.2,0.68 L220.2,4.8 L228.04,4.8 L228.04,5.82 L220.2,5.82 L220.2,6.28 C222.94,7.12 225.44,8.14 227.7,9.34 L227.1,10.26 C224.86,8.94 222.56,7.86 220.2,7.06 Z M219.34,13.68 C218.92,14.56 218.4,15.3 217.78,15.94 C216.44,17.22 214.28,18.2 211.32,18.9 L210.88,17.9 C213.66,17.26 215.68,16.38 216.92,15.24 C217.48,14.68 217.92,14.06 218.28,13.34 L211.12,13.34 L211.12,12.32 L218.72,12.32 C218.92,11.68 219.08,10.98 219.18,10.26 L220.26,10.26 C220.16,11.02 220.02,11.7 219.84,12.32 L228.2,12.32 L228.2,13.34 L220.26,13.34 C222.18,15.58 224.92,17.12 228.5,17.98 L227.94,18.92 C224.08,17.9 221.22,16.16 219.34,13.68 Z M214.66,1 C215.24,1.8 215.76,2.72 216.24,3.76 L215.3,4 C214.88,3.06 214.36,2.16 213.72,1.3 L214.66,1 Z M224.6,0.94 L225.56,1.2 C225.12,2.28 224.56,3.22 223.88,4.04 L222.96,3.72 C223.58,3 224.12,2.06 224.6,0.94 Z M232.64,8.26 L239.12,8.26 L239.12,4.7 L231.72,4.7 L231.72,3.62 L239.12,3.62 L239.12,0.74 L240.2,0.74 L240.2,3.62 L247.78,3.62 L247.78,4.7 L240.2,4.7 L240.2,8.26 L246.86,8.26 L246.86,9.34 L240.2,9.34 L240.2,12.88 L248.26,12.88 L248.26,13.94 L240.2,13.94 L240.2,18.94 L239.12,18.94 L239.12,13.94 L231.12,13.94 L231.12,12.88 L239.12,12.88 L239.12,9.34 L232.64,9.34 L232.64,8.26 Z M253.54,4.88 L265.76,4.88 L265.76,5.78 L253.54,5.78 L253.54,4.88 Z M254.42,7.1 L264.98,7.1 L264.98,10.76 L254.42,10.76 L254.42,7.1 Z M263.96,9.94 L263.96,7.94 L255.46,7.94 L255.46,9.94 L263.96,9.94 Z M266.78,12.04 L266.78,18.96 L265.74,18.96 L265.74,18.18 L253.72,18.18 L253.72,18.98 L252.68,18.98 L252.68,12.04 L266.78,12.04 Z M253.72,17.28 L259.18,17.28 L259.18,15.48 L253.72,15.48 L253.72,17.28 Z M260.24,17.28 L265.74,17.28 L265.74,15.48 L260.24,15.48 L260.24,17.28 Z M253.72,14.64 L259.18,14.64 L259.18,12.92 L253.72,12.92 L253.72,14.64 Z M260.24,12.92 L260.24,14.64 L265.74,14.64 L265.74,12.92 L260.24,12.92 Z M268,2.38 L268,6 L266.96,6 L266.96,3.36 L252.36,3.36 L252.36,6 L251.32,6 L251.32,2.38 L259.28,2.38 C259.04,1.8 258.78,1.26 258.5,0.78 L259.62,0.58 C259.88,1.1 260.14,1.7 260.38,2.38 L268,2.38 Z" id="终端直采-品类丰富" fill="#D4D4D4"></path>
            <path d="M12.716,49.668 L13.76,50.28 C12.068,53.34 10.376,55.86 8.684,57.804 C6.668,60.072 4.292,62.088 1.484,63.888 L0.8,62.808 C3.5,61.224 5.804,59.28 7.748,57.012 C9.62,54.852 11.276,52.404 12.716,49.668 Z M14.048,64.752 L5.948,64.752 L5.948,63.564 L26.936,63.564 C26.864,67.884 26.648,71.34 26.324,74.004 C25.964,76.596 25.388,78.432 24.596,79.512 C23.804,80.52 22.544,81.096 20.816,81.168 L14.624,81.168 L14.3,79.944 C16.388,79.98 18.332,80.016 20.168,80.016 C22.292,80.016 23.696,79.044 24.344,77.172 C25.064,75.228 25.496,71.088 25.712,64.752 L15.236,64.752 C14.372,69 13.148,72.312 11.528,74.76 C9.692,77.28 6.956,79.512 3.284,81.528 L2.528,80.52 C5.984,78.648 8.576,76.56 10.304,74.328 C11.996,71.916 13.256,68.712 14.048,64.752 Z M21.536,49.128 C23.768,54.96 27.584,59.496 33.02,62.808 L32.228,63.78 C26.612,60.18 22.688,55.5 20.492,49.704 L21.536,49.128 Z M64.228,48.84 L65.416,48.84 L65.416,59.28 L72.4,59.28 L72.4,78.756 C72.4,80.376 71.572,81.204 69.988,81.204 L66.172,81.204 L65.812,79.98 L69.556,80.052 C70.6,80.052 71.14,79.512 71.14,78.504 L71.14,72.996 L58.432,72.996 L58.432,81.384 L57.208,81.384 L57.208,59.28 L64.228,59.28 L64.228,48.84 Z M58.432,66.732 L58.432,71.844 L71.14,71.844 L71.14,66.732 L58.432,66.732 Z M71.14,65.616 L71.14,60.468 L58.432,60.468 L58.432,65.616 L71.14,65.616 Z M57.352,50.208 C58.576,52.152 59.764,54.24 60.844,56.472 L59.836,56.976 C58.72,54.636 57.532,52.548 56.308,50.748 L57.352,50.208 Z M72.256,49.956 L73.336,50.46 C72.4,52.692 71.176,54.888 69.7,57.012 L68.692,56.472 C70.168,54.276 71.356,52.116 72.256,49.956 Z M46.876,48.804 L48.1,49.056 C47.704,50.532 47.272,51.936 46.804,53.268 L54.22,53.268 L54.22,54.456 L46.408,54.456 C45.4,57.084 44.176,59.496 42.808,61.656 L41.8,61.008 C44.068,57.48 45.76,53.412 46.876,48.804 Z M45.184,60.54 L53.536,60.54 L53.536,61.656 L49.324,61.656 L49.324,67.524 L54.76,67.524 L54.76,68.712 L49.324,68.712 L49.324,78.864 C51.124,78.288 52.996,77.424 54.868,76.308 L55.084,77.496 C52.996,78.72 50.62,79.692 47.92,80.448 L47.38,79.368 C47.848,79.224 48.1,79.008 48.1,78.72 L48.1,68.712 L42.664,68.712 L42.664,67.524 L48.1,67.524 L48.1,61.656 L45.184,61.656 L45.184,60.54 Z M92.88,68.856 L105.084,68.856 L105.084,76.704 L92.88,76.704 L92.88,68.856 Z M103.896,75.588 L103.896,70.044 L94.068,70.044 L94.068,75.588 L103.896,75.588 Z M101.916,61.62 C105.012,63.852 107.568,66.084 109.62,68.316 L108.72,69.216 C106.812,67.056 104.256,64.788 101.088,62.412 L101.916,61.62 Z M98.208,48.444 C98.784,49.524 99.36,50.82 99.9,52.26 L114.768,52.26 L114.768,53.484 L106.704,53.484 C105.912,55.536 105.048,57.336 104.04,58.92 L112.428,58.92 L112.428,78.576 C112.428,80.376 111.564,81.276 109.872,81.276 L106.2,81.276 L105.876,80.088 L109.44,80.124 C110.628,80.124 111.24,79.512 111.24,78.324 L111.24,60.072 L86.688,60.072 L86.688,81.168 L85.5,81.168 L85.5,58.92 L93.384,58.92 C92.736,56.94 91.944,55.14 90.972,53.484 L83.232,53.484 L83.232,52.26 L98.64,52.26 C98.064,50.928 97.488,49.74 96.876,48.66 L98.208,48.444 Z M94.644,58.92 L102.744,58.92 C103.716,57.228 104.58,55.428 105.3,53.484 L92.376,53.484 C93.204,54.996 93.96,56.832 94.644,58.92 Z M95.832,61.692 L96.732,62.484 C94.572,65.004 91.944,67.236 88.812,69.144 L88.02,68.136 C91.116,66.3 93.708,64.14 95.832,61.692 Z M151.808,53.7 L152.924,54.276 C151.34,57.336 149.504,60 147.416,62.232 L146.444,61.512 C148.496,59.352 150.296,56.724 151.808,53.7 Z M139.208,54.312 C140.36,56.184 141.368,58.308 142.232,60.72 L141.008,61.044 C140.252,58.812 139.28,56.724 138.092,54.708 L139.208,54.312 Z M129.344,55.068 C130.676,57.12 131.828,59.316 132.8,61.656 L131.684,62.16 C130.604,59.64 129.452,57.372 128.192,55.428 L129.344,55.068 Z M153.068,49.128 L153.716,50.208 C146.84,51.684 137.696,52.44 126.32,52.44 L125.924,51.288 C137.12,51.252 146.156,50.532 153.068,49.128 Z M125.78,66.012 L139.388,66.012 L139.388,61.944 L140.612,61.944 L140.612,66.012 L154.256,66.012 L154.256,67.236 L142.772,67.236 C145.22,71.52 149.648,75.336 156.092,78.684 L155.264,79.692 C148.676,76.02 144.14,71.844 141.656,67.236 L140.612,67.236 L140.612,81.24 L139.388,81.24 L139.388,67.236 L138.38,67.236 C135.788,72.492 131.216,76.776 124.664,80.088 L124.016,78.972 C130.28,75.984 134.708,72.06 137.3,67.236 L125.78,67.236 L125.78,66.012 Z M177.436,50.568 L177.436,72.636 L176.284,72.636 L176.284,51.72 L167.572,51.72 L167.572,72.636 L166.42,72.636 L166.42,50.568 L177.436,50.568 Z M183.772,48.624 L184.996,48.768 C184.6,50.748 184.06,52.584 183.412,54.312 L195.904,54.312 C195.904,66.48 195.688,73.896 195.256,76.632 C194.824,79.548 193.24,81.024 190.432,81.024 C189.496,81.024 187.912,80.988 185.68,80.952 L185.356,79.836 C187.228,79.872 188.884,79.908 190.252,79.908 C192.34,79.908 193.564,78.864 193.96,76.848 C194.428,74.328 194.68,67.2 194.716,55.536 L182.908,55.536 C181.9,57.84 180.676,59.856 179.236,61.656 L178.516,60.684 C181.108,57.408 182.836,53.376 183.772,48.624 Z M187.948,64.5 C189.316,67.452 190.576,70.656 191.764,74.112 L190.72,74.652 C190.396,73.68 190.072,72.78 189.784,71.916 C186.832,72.636 183.592,73.212 179.992,73.572 L179.74,72.492 C181.504,70.548 183.412,66.264 185.464,59.568 L186.58,59.928 C184.744,65.688 182.944,69.864 181.216,72.384 C184.24,72.024 186.976,71.52 189.388,70.872 C188.596,68.712 187.768,66.768 186.904,65.004 L187.948,64.5 Z M171.388,54.96 L172.54,54.96 L172.54,66.804 C172.504,70.728 171.928,73.86 170.848,76.2 C169.768,78.36 167.968,80.088 165.484,81.384 L164.836,80.34 C167.176,79.188 168.904,77.496 169.984,75.3 C170.92,73.14 171.388,70.296 171.388,66.804 L171.388,54.96 Z M173.872,74.004 C175.96,76.092 177.688,78.216 179.092,80.34 L178.228,81.168 C176.932,79.152 175.204,77.028 173.044,74.796 L173.872,74.004 Z M231.972,63.06 L231.972,69.36 L213.252,69.36 L213.252,72.78 L233.592,72.78 L233.592,81.384 L232.368,81.384 L232.368,79.584 L213.252,79.584 L213.252,81.348 L212.064,81.348 L212.064,63.06 L231.972,63.06 Z M213.252,78.432 L232.368,78.432 L232.368,73.86 L213.252,73.86 L213.252,78.432 Z M213.252,68.28 L230.748,68.28 L230.748,64.176 L213.252,64.176 L213.252,68.28 Z M236.904,58.992 L236.904,64.86 L235.716,64.86 L235.716,60.108 L208.284,60.108 L208.284,64.86 L207.096,64.86 L207.096,58.992 L221.928,58.992 C221.46,57.876 220.992,56.868 220.488,56.004 L221.676,55.788 C222.18,56.724 222.684,57.768 223.116,58.992 L236.904,58.992 Z M210.48,52.872 C209.544,54.456 208.428,55.86 207.168,57.12 L206.124,56.472 C208.428,54.168 210.156,51.54 211.308,48.552 L212.496,48.804 C212.064,49.848 211.632,50.82 211.128,51.756 L221.82,51.756 L221.82,52.872 L214.728,52.872 C215.808,54.276 216.636,55.572 217.212,56.796 L216.096,57.228 C215.304,55.752 214.404,54.312 213.36,52.872 L210.48,52.872 Z M226.068,52.872 C225.348,54.24 224.556,55.464 223.656,56.58 L222.576,55.896 C224.376,53.772 225.708,51.324 226.572,48.588 L227.76,48.84 C227.4,49.884 227.04,50.856 226.608,51.756 L237.732,51.756 L237.732,52.872 L230.46,52.872 C231.468,54.168 232.26,55.392 232.836,56.508 L231.72,56.904 C231,55.536 230.1,54.168 229.092,52.872 L226.068,52.872 Z M260.48,50.532 L277.112,50.532 L277.112,66.228 L269.408,66.228 L269.408,71.628 L277.976,71.628 L277.976,72.816 L269.408,72.816 L269.408,79.008 L279.38,79.008 L279.38,80.196 L257.96,80.196 L257.96,79.008 L268.184,79.008 L268.184,72.816 L259.616,72.816 L259.616,71.628 L268.184,71.628 L268.184,66.228 L260.48,66.228 L260.48,50.532 Z M275.888,65.076 L275.888,58.992 L269.408,58.992 L269.408,65.076 L275.888,65.076 Z M268.184,65.076 L268.184,58.992 L261.668,58.992 L261.668,65.076 L268.184,65.076 Z M261.668,57.876 L268.184,57.876 L268.184,51.684 L261.668,51.684 L261.668,57.876 Z M269.408,51.684 L269.408,57.876 L275.888,57.876 L275.888,51.684 L269.408,51.684 Z M247.34,62.592 L251.912,62.592 L251.912,52.728 L246.872,52.728 L246.872,51.54 L258.14,51.54 L258.14,52.728 L253.136,52.728 L253.136,62.592 L257.708,62.592 L257.708,63.816 L253.136,63.816 L253.136,73.644 C254.72,73.068 256.304,72.456 257.816,71.772 L257.816,72.996 C254.504,74.436 250.868,75.66 246.98,76.596 L246.692,75.444 C248.492,75.048 250.22,74.58 251.912,74.04 L251.912,63.816 L247.34,63.816 L247.34,62.592 Z M288.268,58.956 L296.116,58.956 L296.116,52.512 C293.74,53.016 291.22,53.34 288.628,53.556 L288.232,52.404 C293.92,52.008 298.96,50.928 303.316,49.164 L303.928,50.208 C301.876,51.036 299.68,51.72 297.376,52.26 L297.376,58.956 L304.36,58.956 L304.36,60.144 L297.376,60.144 L297.376,62.556 C299.68,64.716 302.056,67.164 304.468,69.972 L303.748,71.052 C301.264,67.956 299.14,65.58 297.376,63.852 L297.376,81.456 L296.116,81.456 L296.116,62.664 C294.316,66.984 291.652,70.836 288.16,74.22 L287.62,72.888 C291.724,69.144 294.532,64.896 296.08,60.144 L288.268,60.144 L288.268,58.956 Z M308.212,52.152 L309.436,52.152 L309.436,74.724 L308.212,74.724 L308.212,52.152 Z M315.232,81.096 L310.012,81.096 L309.76,79.908 C311.524,79.944 313.216,79.98 314.836,79.98 C316.168,79.98 316.852,79.26 316.852,77.892 L316.852,48.876 L318.112,48.876 L318.112,78.216 C318.112,80.124 317.14,81.096 315.232,81.096 Z M332.4,50.424 L342.444,50.424 L342.444,58.2 L332.4,58.2 L332.4,50.424 Z M341.256,57.084 L341.256,51.54 L333.588,51.54 L333.588,57.084 L341.256,57.084 Z M347.52,50.424 L357.636,50.424 L357.636,58.2 L347.52,58.2 L347.52,50.424 Z M356.448,57.084 L356.448,51.54 L348.708,51.54 L348.708,57.084 L356.448,57.084 Z M329.268,62.88 L341.544,62.88 C342.372,61.764 343.056,60.612 343.56,59.388 L344.748,59.532 C344.244,60.72 343.668,61.836 342.948,62.88 L354.324,62.88 C353.712,61.728 353.028,60.684 352.308,59.784 L353.424,59.424 C354.252,60.504 354.972,61.656 355.62,62.88 L360.732,62.88 L360.732,64.032 L349.824,64.032 C352.236,66.804 356.16,68.964 361.596,70.548 L361.056,71.664 C355.08,69.756 350.904,67.2 348.528,64.032 L342.084,64.032 C339.24,67.452 334.884,70.044 329.052,71.844 L328.476,70.8 C333.876,69.144 337.908,66.876 340.572,64.032 L329.268,64.032 L329.268,62.88 Z M342.876,70.8 L342.876,81.492 L341.688,81.492 L341.688,79.656 L334.092,79.656 L334.092,81.492 L332.94,81.492 L332.94,70.8 L342.876,70.8 Z M334.092,78.54 L341.688,78.54 L341.688,71.952 L334.092,71.952 L334.092,78.54 Z M357.672,70.8 L357.672,81.492 L356.484,81.492 L356.484,79.656 L348.348,79.656 L348.348,81.492 L347.16,81.492 L347.16,70.8 L357.672,70.8 Z M348.348,78.54 L356.484,78.54 L356.484,71.952 L348.348,71.952 L348.348,78.54 Z" id="分销商采购管理利器" fill="#FFFFFF"></path>
        </g>
    </g>
</svg>