<?xml version="1.0" encoding="UTF-8"?>
<svg width="520px" height="101px" viewBox="0 0 520 101" version="1.1" xmlns="http://www.w3.org/2000/svg" xmlns:xlink="http://www.w3.org/1999/xlink">
    <!-- Generator: Sketch 48.2 (47327) - http://www.bohemiancoding.com/sketch -->
    <title>全域旅游电商平台22222@2x</title>
    <desc>Created with Sketch.</desc>
    <defs></defs>
    <g id="智慧旅游-copy" stroke="none" stroke-width="1" fill="none" fill-rule="evenodd" transform="translate(-460.000000, -980.000000)">
        <g id="Group" transform="translate(459.000000, 980.000000)" fill="#333333">
            <path d="M106.936,11.274 L107.944,11.274 C113.32,16.986 119.452,21.522 126.424,24.798 L125.71,26.016 C118.57,22.572 112.48,18.078 107.44,12.618 C102.778,17.91 96.6459996,22.53 89.0019996,26.394 L88.3299996,25.134 C95.7639996,21.438 101.98,16.818 106.936,11.274 Z M95.7639996,24.84 L119.2,24.84 L119.2,26.226 L108.154,26.226 L108.154,35.13 L120.922,35.13 L120.922,36.516 L108.154,36.516 L108.154,46.134 L124.744,46.134 L124.744,47.562 L90.1779996,47.562 L90.1779996,46.134 L106.726,46.134 L106.726,36.516 L93.9159996,36.516 L93.9159996,35.13 L106.726,35.13 L106.726,26.226 L95.7639996,26.226 L95.7639996,24.84 Z M143.98,17.112 L159.394,17.112 C159.352,15.096 159.352,12.996 159.352,10.854 L160.78,10.854 C160.78,13.038 160.78,15.138 160.822,17.112 L166.66,17.112 C165.904,15.264 165.106,13.626 164.224,12.156 L165.568,11.904 C166.408,13.416 167.206,15.18 167.92,17.112 L170.23,17.112 L170.23,18.54 L160.864,18.54 C160.99,26.856 161.41,33.24 162.082,37.608 C164.266,33.576 165.946,28.746 167.08,23.034 L168.382,23.58 C166.954,30.09 164.98,35.424 162.418,39.624 L162.502,40.002 C163.552,44.874 164.812,47.31 166.282,47.352 C167.332,47.184 168.34,44.874 169.264,40.422 L170.356,41.304 C169.264,46.302 167.92,48.822 166.282,48.822 C164.98,48.822 163.846,47.73 162.838,45.546 C162.25,44.328 161.788,42.9 161.41,41.22 C159.142,44.496 156.454,47.058 153.43,48.822 L152.548,47.73 C155.866,45.798 158.68,43.026 161.032,39.414 C160.78,38.112 160.57,36.726 160.402,35.256 C159.856,30.93 159.52,25.344 159.436,18.54 L143.98,18.54 L143.98,17.112 Z M145.828,23.748 L155.74,23.748 L155.74,34.92 L145.828,34.92 L145.828,23.748 Z M154.354,33.66 L154.354,25.05 L147.172,25.05 L147.172,33.66 L154.354,33.66 Z M156.58,38.574 L156.58,39.918 C152.422,41.556 147.886,42.9 143.014,43.95 L142.678,42.606 C147.592,41.64 152.212,40.296 156.58,38.574 Z M132.85,22.614 L137.554,22.614 L137.554,10.854 L138.94,10.854 L138.94,22.614 L143.518,22.614 L143.518,24.042 L138.94,24.042 L138.94,38.7 C140.536,38.028 142.09,37.272 143.56,36.516 L143.56,37.986 C140.284,39.75 136.756,41.178 132.934,42.312 L132.556,40.884 C134.278,40.422 135.958,39.876 137.554,39.246 L137.554,24.042 L132.85,24.042 L132.85,22.614 Z M196.9,17.574 C195.514,20.304 193.96,22.53 192.238,24.294 L191.146,23.37 C194.17,20.262 196.48,16.062 198.076,10.686 L199.42,11.232 C198.832,13.038 198.202,14.676 197.572,16.188 L212.902,16.188 L212.902,17.574 L196.9,17.574 Z M212.566,29.796 L213.49,30.846 C211.6,32.946 209.206,34.668 206.35,36.012 C208.198,40.674 210.844,44.538 214.33,47.646 L213.448,48.78 C207.232,43.404 203.536,35.508 202.444,25.134 C200.68,25.47 198.916,25.806 197.152,26.058 L197.152,46.638 C199.882,46.008 202.57,45.252 205.216,44.328 L205.468,45.756 C202.654,46.638 199.336,47.52 195.472,48.444 L195.178,47.1 C195.556,46.974 195.766,46.764 195.766,46.428 L195.766,24.924 C200.89,24.336 205.804,23.16 210.424,21.312 L211.222,22.53 C208.87,23.454 206.35,24.21 203.746,24.84 C204.082,28.452 204.796,31.77 205.846,34.752 C208.534,33.45 210.76,31.812 212.566,29.796 Z M176.95,17.448 L191.944,17.448 L191.944,18.834 L182.41,18.834 L182.41,25.764 L190.81,25.764 C190.81,36.18 190.558,42.564 190.096,44.916 C189.676,47.436 187.912,48.696 184.888,48.696 C184.552,48.696 183.964,48.654 183.166,48.612 L182.788,47.31 C183.502,47.352 184.132,47.394 184.636,47.394 C186.904,47.394 188.248,46.512 188.668,44.832 C189.172,42.732 189.424,36.81 189.424,27.15 L182.368,27.15 C182.116,36.978 180.352,44.244 177.16,48.948 L176.11,47.982 C179.302,43.278 180.94,35.676 181.024,25.218 L181.024,18.834 L176.95,18.834 L176.95,17.448 Z M183.166,10.644 C184.216,12.576 185.056,14.34 185.686,15.936 L184.342,16.398 C183.67,14.55 182.788,12.786 181.78,11.022 L183.166,10.644 Z M246.166,18.75 C245.074,21.648 243.688,24.084 242.05,26.1 L241.168,25.05 C243.982,21.438 245.872,16.566 246.88,10.434 L248.308,10.686 C247.888,13.122 247.342,15.306 246.67,17.322 L258.136,17.322 L258.136,18.75 L246.166,18.75 Z M221.764,12.072 C224.116,13.794 226.048,15.516 227.644,17.196 L226.594,18.246 C225.124,16.566 223.192,14.844 220.756,13.038 L221.764,12.072 Z M221.596,22.53 C224.032,24.378 226.048,26.268 227.644,28.2 L226.636,29.208 C225.124,27.36 223.108,25.47 220.588,23.496 L221.596,22.53 Z M226.006,33.66 L227.266,34.164 C225.586,39.246 223.696,43.992 221.638,48.444 L220.294,47.898 C222.52,43.278 224.41,38.532 226.006,33.66 Z M232.642,19.422 L228.778,19.422 L228.778,18.036 L235.414,18.036 C234.784,15.39 234.07,12.996 233.314,10.854 L234.742,10.602 C235.498,12.744 236.17,15.222 236.8,18.036 L242.05,18.036 L242.05,19.422 L234.028,19.422 L234.028,23.034 C234.028,24.378 233.986,25.722 233.902,27.024 L241.084,27.024 C241.084,36.096 240.874,41.724 240.454,43.908 C240.202,46.764 239.068,48.234 236.968,48.234 C236.38,48.234 235.33,48.192 233.86,48.192 L233.524,46.89 C234.826,46.89 235.96,46.932 236.926,46.932 C238.186,46.932 238.9,45.84 239.11,43.698 C239.446,41.85 239.614,36.768 239.656,28.452 L233.818,28.452 C233.23,37.524 231.34,44.37 228.148,48.948 L227.098,47.982 C230.71,42.774 232.558,34.458 232.642,23.034 L232.642,19.422 Z M245.83,24.714 L256.624,24.714 L256.624,26.016 C255.196,27.948 253.6,29.796 251.878,31.56 L251.878,35.172 L258.262,35.172 L258.262,36.516 L251.878,36.516 L251.878,45.504 C251.878,47.436 250.954,48.402 249.106,48.402 L245.662,48.402 L245.326,47.016 C246.334,47.016 247.426,47.058 248.602,47.058 C249.82,47.058 250.45,46.344 250.45,45 L250.45,36.516 L243.31,36.516 L243.31,35.172 L250.45,35.172 L250.45,31.266 C252.634,28.956 254.146,27.192 254.986,26.016 L245.83,26.016 L245.83,24.714 Z M269.56,27.654 L269.56,35.634 L281.614,35.634 L281.614,27.654 L269.56,27.654 Z M281.614,36.978 L269.56,36.978 L269.56,40.968 L268.132,40.968 L268.132,17.238 L281.614,17.238 L281.614,10.98 L283,10.98 L283,17.238 L296.734,17.238 L296.734,36.978 L283,36.978 L283,43.698 C283,45.882 284.008,46.974 286.066,46.974 L296.356,46.974 C297.7,46.974 298.666,46.68 299.254,46.176 C299.8,45.63 300.178,43.74 300.388,40.464 L301.732,40.926 C301.48,44.412 301.018,46.554 300.346,47.31 C299.674,47.982 298.414,48.36 296.566,48.36 L285.73,48.36 C282.958,48.36 281.614,46.848 281.614,43.908 L281.614,36.978 Z M283,35.634 L295.348,35.634 L295.348,27.654 L283,27.654 L283,35.634 Z M295.348,26.31 L295.348,18.666 L283,18.666 L283,26.31 L295.348,26.31 Z M281.614,18.666 L269.56,18.666 L269.56,26.31 L281.614,26.31 L281.614,18.666 Z M319.75,34.332 L333.988,34.332 L333.988,43.488 L319.75,43.488 L319.75,34.332 Z M332.602,42.186 L332.602,35.718 L321.136,35.718 L321.136,42.186 L332.602,42.186 Z M330.292,25.89 C333.904,28.494 336.886,31.098 339.28,33.702 L338.23,34.752 C336.004,32.232 333.022,29.586 329.326,26.814 L330.292,25.89 Z M325.966,10.518 C326.638,11.778 327.31,13.29 327.94,14.97 L345.286,14.97 L345.286,16.398 L335.878,16.398 C334.954,18.792 333.946,20.892 332.77,22.74 L342.556,22.74 L342.556,45.672 C342.556,47.772 341.548,48.822 339.574,48.822 L335.29,48.822 L334.912,47.436 L339.07,47.478 C340.456,47.478 341.17,46.764 341.17,45.378 L341.17,24.084 L312.526,24.084 L312.526,48.696 L311.14,48.696 L311.14,22.74 L320.338,22.74 C319.582,20.43 318.658,18.33 317.524,16.398 L308.494,16.398 L308.494,14.97 L326.47,14.97 C325.798,13.416 325.126,12.03 324.412,10.77 L325.966,10.518 Z M321.808,22.74 L331.258,22.74 C332.392,20.766 333.4,18.666 334.24,16.398 L319.162,16.398 C320.128,18.162 321.01,20.304 321.808,22.74 Z M323.194,25.974 L324.244,26.898 C321.724,29.838 318.658,32.442 315.004,34.668 L314.08,33.492 C317.692,31.35 320.716,28.83 323.194,25.974 Z M354.064,13.248 L387.58,13.248 L387.58,14.676 L371.326,14.676 L371.326,32.148 L389.176,32.148 L389.176,33.534 L371.326,33.534 L371.326,48.99 L369.898,48.99 L369.898,33.534 L352.384,33.534 L352.384,32.148 L369.898,32.148 L369.898,14.676 L354.064,14.676 L354.064,13.248 Z M357.97,18.498 C359.65,21.522 361.246,24.84 362.716,28.41 L361.372,29.04 C359.902,25.344 358.348,22.026 356.668,19.17 L357.97,18.498 Z M383.632,18.204 L384.976,18.792 C383.59,22.278 381.784,25.68 379.558,28.998 L378.298,28.326 C380.566,24.924 382.33,21.564 383.632,18.204 Z M428.152,32.106 L428.152,49.032 L426.724,49.032 L426.724,46.344 L402.616,46.344 L402.616,49.032 L401.188,49.032 L401.188,32.106 L428.152,32.106 Z M402.616,44.916 L426.724,44.916 L426.724,33.492 L402.616,33.492 L402.616,44.916 Z M397.786,27.066 L397.492,25.722 C402.028,23.538 406.858,18.582 412.024,10.896 L413.41,11.4 C408.958,17.952 404.59,22.656 400.306,25.596 C410.134,25.218 419.038,24.63 426.934,23.79 C424.918,21.06 422.86,18.54 420.76,16.272 L422.062,15.6 C425.926,19.884 429.496,24.546 432.772,29.586 L431.428,30.258 C430.252,28.452 429.118,26.73 427.942,25.134 C418.996,25.974 408.958,26.604 397.786,27.066 Z" id="全域旅游电商平台"></path>
            <path d="M2.07599917,82.468 L10.8099992,82.468 C10.9199992,81.676 11.0079992,80.884 11.0739992,80.092 L11.8439992,80.202 C11.7779992,80.972 11.6899992,81.72 11.5799992,82.468 L20.5119992,82.468 L20.5119992,83.194 L11.4699992,83.194 C11.3379992,84.074 11.1839992,84.888 11.0079992,85.636 L17.5419992,85.636 L17.5419992,98.66 L20.9739992,98.66 L20.9739992,99.386 L1.63599917,99.386 L1.63599917,98.66 L4.95799917,98.66 L4.95799917,85.636 L10.2379992,85.636 C10.4139992,84.844 10.5679992,84.03 10.6999992,83.194 L2.07599917,83.194 L2.07599917,82.468 Z M5.70599917,98.66 L16.7939992,98.66 L16.7939992,95.976 L5.70599917,95.976 L5.70599917,98.66 Z M5.70599917,95.294 L16.7939992,95.294 L16.7939992,92.742 L5.70599917,92.742 L5.70599917,95.294 Z M5.70599917,92.082 L16.7939992,92.082 L16.7939992,89.552 L5.70599917,89.552 L5.70599917,92.082 Z M5.70599917,88.892 L16.7939992,88.892 L16.7939992,86.34 L5.70599917,86.34 L5.70599917,88.892 Z M25.7919992,80.686 C27.3099992,81.83 28.5639992,82.952 29.5759992,84.074 L29.0479992,84.602 C28.0799992,83.524 26.8259992,82.38 25.2859992,81.192 L25.7919992,80.686 Z M38.9039992,99.672 C37.7159992,99.672 36.4179992,99.65 35.0319992,99.628 C33.6239992,99.584 32.5019992,99.452 31.6879992,99.188 C30.8299992,98.924 30.0379992,98.374 29.3119992,97.494 C29.0259992,97.098 28.7399992,96.922 28.4759992,96.922 C27.8159992,96.922 26.8259992,97.956 25.4619992,100.046 L24.8679992,99.54 C26.1659992,97.538 27.2659992,96.438 28.1459992,96.218 L28.1459992,88.76 L24.7359992,88.76 L24.7359992,88.012 L28.8719992,88.012 L28.8719992,96.24 C29.1579992,96.35 29.4439992,96.592 29.7519992,96.944 C30.3019992,97.648 30.9399992,98.132 31.6439992,98.44 C32.3699992,98.704 33.3819992,98.858 34.6579992,98.902 C35.6919992,98.924 37.0779992,98.946 38.7939992,98.946 C39.7619992,98.946 40.7519992,98.924 41.7639992,98.924 C42.7539992,98.902 43.5239992,98.88 44.0739992,98.88 L43.8979992,99.672 L38.9039992,99.672 Z M30.8739992,82.666 L34.6359992,82.666 C34.9879992,81.83 35.2959992,80.95 35.6039992,80.048 L36.3519992,80.202 C36.0439992,81.082 35.7359992,81.896 35.4279992,82.666 L43.5679992,82.666 L43.5679992,83.392 L35.1199992,83.392 C34.3279992,85.152 33.4039992,86.714 32.3919992,88.078 L37.0779992,88.078 L37.0779992,84.998 L37.8039992,84.998 L37.8039992,88.078 L42.9079992,88.078 L42.9079992,88.782 L37.8039992,88.782 L37.8039992,92.214 L43.9199992,92.214 L43.9199992,92.94 L37.8039992,92.94 L37.8039992,97.538 L37.0779992,97.538 L37.0779992,92.94 L30.7419992,92.94 L30.7419992,92.214 L37.0779992,92.214 L37.0779992,88.782 L31.6219992,88.782 L31.4459992,88.056 C32.5459992,86.78 33.4919992,85.218 34.3279992,83.392 L30.8739992,83.392 L30.8739992,82.666 Z M60.9699993,84.25 C60.3979993,85.768 59.6719993,87.044 58.8139993,88.1 L58.3519993,87.55 C59.8259993,85.658 60.8159993,83.106 61.3439993,79.894 L62.0919993,80.026 C61.8719993,81.302 61.5859993,82.446 61.2339993,83.502 L67.2399993,83.502 L67.2399993,84.25 L60.9699993,84.25 Z M48.1879993,80.752 C49.4199993,81.654 50.4319993,82.556 51.2679993,83.436 L50.7179993,83.986 C49.9479993,83.106 48.9359993,82.204 47.6599993,81.258 L48.1879993,80.752 Z M48.0999993,86.23 C49.3759993,87.198 50.4319993,88.188 51.2679993,89.2 L50.7399993,89.728 C49.9479993,88.76 48.8919993,87.77 47.5719993,86.736 L48.0999993,86.23 Z M50.4099993,92.06 L51.0699993,92.324 C50.1899993,94.986 49.1999993,97.472 48.1219993,99.804 L47.4179993,99.518 C48.5839993,97.098 49.5739993,94.612 50.4099993,92.06 Z M53.8859993,84.602 L51.8619993,84.602 L51.8619993,83.876 L55.3379993,83.876 C55.0079993,82.49 54.6339993,81.236 54.2379993,80.114 L54.9859993,79.982 C55.3819993,81.104 55.7339993,82.402 56.0639993,83.876 L58.8139993,83.876 L58.8139993,84.602 L54.6119993,84.602 L54.6119993,86.494 C54.6119993,87.198 54.5899993,87.902 54.5459993,88.584 L58.3079993,88.584 C58.3079993,93.336 58.1979993,96.284 57.9779993,97.428 C57.8459993,98.924 57.2519993,99.694 56.1519993,99.694 C55.8439993,99.694 55.2939993,99.672 54.5239993,99.672 L54.3479993,98.99 C55.0299993,98.99 55.6239993,99.012 56.1299993,99.012 C56.7899993,99.012 57.1639993,98.44 57.2739993,97.318 C57.4499993,96.35 57.5379993,93.688 57.5599993,89.332 L54.5019993,89.332 C54.1939993,94.084 53.2039993,97.67 51.5319993,100.068 L50.9819993,99.562 C52.8739993,96.834 53.8419993,92.478 53.8859993,86.494 L53.8859993,84.602 Z M60.7939993,87.374 L66.4479993,87.374 L66.4479993,88.056 C65.6999993,89.068 64.8639993,90.036 63.9619993,90.96 L63.9619993,92.852 L67.3059993,92.852 L67.3059993,93.556 L63.9619993,93.556 L63.9619993,98.264 C63.9619993,99.276 63.4779993,99.782 62.5099993,99.782 L60.7059993,99.782 L60.5299993,99.056 C61.0579993,99.056 61.6299993,99.078 62.2459993,99.078 C62.8839993,99.078 63.2139993,98.704 63.2139993,98 L63.2139993,93.556 L59.4739993,93.556 L59.4739993,92.852 L63.2139993,92.852 L63.2139993,90.806 C64.3579993,89.596 65.1499993,88.672 65.5899993,88.056 L60.7939993,88.056 L60.7939993,87.374 Z M86.4239994,93.688 L86.4239994,100.156 L85.6979994,100.156 L85.6979994,99.056 L75.2479994,99.056 L75.2479994,100.156 L74.4999994,100.156 L74.4999994,93.688 L86.4239994,93.688 Z M75.2479994,98.352 L85.6979994,98.352 L85.6979994,94.37 L75.2479994,94.37 L75.2479994,98.352 Z M77.9319994,83.59 L78.6579994,83.766 C78.2399994,84.426 77.7779994,85.064 77.2939994,85.658 L85.8519994,85.658 L85.8519994,86.296 C84.7519994,87.704 83.2559994,88.958 81.3199994,90.014 C83.9599994,91.246 86.9519994,92.038 90.2959994,92.346 L90.1199994,93.05 C86.5559994,92.698 83.3659994,91.818 80.5719994,90.41 C77.9319994,91.73 74.6099994,92.764 70.6059994,93.534 L70.2979994,92.83 C74.1699994,92.148 77.3379994,91.224 79.8459994,90.036 C78.3939994,89.222 77.0519994,88.276 75.8419994,87.22 C74.9399994,88.056 73.9279994,88.826 72.8279994,89.53 L72.3439994,88.958 C74.7639994,87.484 76.6339994,85.702 77.9319994,83.59 Z M80.5939994,89.662 C82.4419994,88.694 83.8939994,87.572 84.9499994,86.34 L76.6999994,86.34 C76.5679994,86.472 76.4359994,86.626 76.3039994,86.758 C77.6019994,87.902 79.0319994,88.87 80.5939994,89.662 Z M88.8879994,82.094 L88.8879994,85.768 L88.1179994,85.768 L88.1179994,82.798 L72.4099994,82.798 L72.4099994,85.768 L71.6399994,85.768 L71.6399994,82.094 L80.0219994,82.094 C79.7139994,81.368 79.4059994,80.708 79.0539994,80.114 L79.8459994,79.982 C80.1979994,80.598 80.5059994,81.302 80.7699994,82.094 L88.8879994,82.094 Z M111.877999,81.896 L111.877999,99.254 L111.129999,99.254 L111.129999,97.318 L104.859999,97.318 L104.859999,99.43 L104.111999,99.43 L104.111999,81.896 L111.877999,81.896 Z M104.859999,96.614 L111.129999,96.614 L111.129999,82.622 L104.859999,82.622 L104.859999,96.614 Z M93.9259994,86.45 L98.0619994,86.45 L98.0619994,82.446 C96.8079994,82.666 95.5099994,82.842 94.1899994,82.952 L93.9259994,82.248 C97.0279994,82.028 99.7779994,81.456 102.153999,80.51 L102.527999,81.17 C101.339999,81.61 100.107999,81.984 98.8099994,82.292 L98.8099994,86.45 L102.857999,86.45 L102.857999,87.176 L98.8099994,87.176 L98.8099994,88.584 C100.129999,89.816 101.449999,91.224 102.813999,92.852 L102.373999,93.468 C100.965999,91.686 99.7779994,90.3 98.8099994,89.31 L98.8099994,100.046 L98.0619994,100.046 L98.0619994,88.738 C97.0719994,91.29 95.6199994,93.556 93.7059994,95.536 L93.3979994,94.766 C95.6419994,92.544 97.2039994,90.014 98.0619994,87.176 L93.9259994,87.176 L93.9259994,86.45 Z M122.504,92.412 L129.962,92.412 L129.962,97.208 L122.504,97.208 L122.504,92.412 Z M129.236,96.526 L129.236,93.138 L123.23,93.138 L123.23,96.526 L129.236,96.526 Z M128.026,87.99 C129.918,89.354 131.48,90.718 132.734,92.082 L132.184,92.632 C131.018,91.312 129.456,89.926 127.52,88.474 L128.026,87.99 Z M125.76,79.938 C126.112,80.598 126.464,81.39 126.794,82.27 L135.88,82.27 L135.88,83.018 L130.952,83.018 C130.468,84.272 129.94,85.372 129.324,86.34 L134.45,86.34 L134.45,98.352 C134.45,99.452 133.922,100.002 132.888,100.002 L130.644,100.002 L130.446,99.276 L132.624,99.298 C133.35,99.298 133.724,98.924 133.724,98.198 L133.724,87.044 L118.72,87.044 L118.72,99.936 L117.994,99.936 L117.994,86.34 L122.812,86.34 C122.416,85.13 121.932,84.03 121.338,83.018 L116.608,83.018 L116.608,82.27 L126.024,82.27 C125.672,81.456 125.32,80.73 124.946,80.07 L125.76,79.938 Z M123.582,86.34 L128.532,86.34 C129.126,85.306 129.654,84.206 130.094,83.018 L122.196,83.018 C122.702,83.942 123.164,85.064 123.582,86.34 Z M124.308,88.034 L124.858,88.518 C123.538,90.058 121.932,91.422 120.018,92.588 L119.534,91.972 C121.426,90.85 123.01,89.53 124.308,88.034 Z M152.886,91.202 C152.204,91.444 151.522,91.642 150.84,91.818 C151.258,92.962 151.478,94.172 151.522,95.492 C151.522,97.164 151.302,98.352 150.862,99.012 C150.422,99.716 149.322,100.068 147.562,100.068 L146.748,100.068 L146.506,99.43 L147.452,99.43 C148.86,99.386 149.762,99.166 150.136,98.726 C150.554,98.198 150.774,97.12 150.774,95.492 C150.752,94.832 150.686,94.194 150.576,93.622 C148.09,95.734 144.68,97.45 140.368,98.748 L139.994,98.088 C144.526,96.746 148.002,95.008 150.4,92.852 C150.18,92.06 149.872,91.312 149.476,90.63 C147.364,92.39 144.416,93.798 140.632,94.898 L140.258,94.238 C144.108,93.16 147.056,91.774 149.124,90.058 C148.728,89.464 148.31,88.914 147.826,88.43 C147.496,88.606 147.188,88.76 146.902,88.892 C145.252,89.64 143.294,90.322 141.028,90.916 L140.61,90.3 C142.854,89.772 144.79,89.134 146.374,88.43 C147.584,87.88 148.684,87.286 149.652,86.648 L142.568,86.648 L142.568,85.922 L155.922,85.922 L155.922,86.648 L150.708,86.648 C149.916,87.198 149.146,87.682 148.398,88.122 C149.366,89.046 150.092,90.08 150.598,91.224 C152.82,90.652 154.932,89.684 156.912,88.342 L157.44,88.848 C156.208,89.684 154.91,90.388 153.502,90.96 C154.558,94.04 156.318,96.482 158.782,98.264 L158.276,98.858 C155.724,96.878 153.92,94.326 152.886,91.202 Z M149.124,79.982 C149.432,80.686 149.718,81.478 149.982,82.358 L158.276,82.358 L158.276,85.768 L157.55,85.768 L157.55,83.084 L140.918,83.084 L140.918,85.768 L140.17,85.768 L140.17,82.358 L149.234,82.358 C148.97,81.544 148.684,80.796 148.376,80.136 L149.124,79.982 Z M179.088,87.176 L185.534,87.176 C185.864,86.032 186.172,84.844 186.458,83.656 L180.584,83.656 L180.584,82.93 L186.612,82.93 C186.832,81.962 187.052,81.016 187.228,80.048 L187.976,80.114 C187.756,81.126 187.558,82.05 187.382,82.93 L197.326,82.93 L197.326,83.656 L187.228,83.656 C186.92,84.932 186.634,86.098 186.326,87.176 L198.624,87.176 L198.624,87.924 L186.106,87.924 C185.71,89.244 185.292,90.476 184.852,91.576 L195.83,91.576 L195.83,92.236 C194.686,94.128 192.882,95.998 190.396,97.802 C191.936,98.418 193.41,99.078 194.796,99.782 L194.378,100.42 C190.99,98.682 187.492,97.296 183.906,96.284 L184.324,95.69 C186.172,96.218 187.954,96.834 189.626,97.494 C191.936,95.888 193.74,94.15 195.016,92.302 L183.818,92.302 C184.346,90.894 184.852,89.442 185.314,87.924 L179.088,87.924 L179.088,87.176 Z M204.542,80.752 C205.84,82.116 206.852,83.326 207.556,84.382 L206.94,84.8 C206.126,83.612 205.136,82.402 203.948,81.17 L204.542,80.752 Z M212,90.08 C213.694,91.906 214.992,93.512 215.916,94.876 L215.278,95.338 C214.332,93.864 213.034,92.236 211.384,90.454 L212,90.08 Z M210.306,80.136 L211.032,80.136 L211.032,81.962 C211.032,83.326 210.966,84.602 210.856,85.812 L220.052,85.812 C220.052,91.884 219.766,95.734 219.238,97.406 C218.666,99.056 217.676,99.892 216.224,99.892 C215.234,99.892 214.398,99.87 213.716,99.848 L213.518,99.1 C214.486,99.144 215.388,99.166 216.18,99.166 C217.786,99.056 218.71,97.692 218.952,95.096 C219.172,92.478 219.304,89.64 219.304,86.56 L210.768,86.56 C210.46,89.332 209.866,91.686 208.986,93.6 C207.688,96.284 205.532,98.418 202.518,100.002 L202.1,99.342 C205.048,97.846 207.182,95.69 208.502,92.918 C209.25,91.114 209.756,89.002 210.02,86.56 L202.87,86.56 L202.87,85.812 L210.108,85.812 C210.218,84.602 210.284,83.326 210.306,81.962 L210.306,80.136 Z M228.214,90.696 L241.568,90.696 L241.568,94.722 L235.43,94.722 L235.43,98.66 C235.43,99.562 234.99,100.024 234.11,100.024 L231.58,100.024 L231.426,99.298 C232.262,99.342 233.076,99.364 233.846,99.364 C234.396,99.364 234.682,99.056 234.682,98.462 L234.682,94.722 L228.214,94.722 L228.214,90.696 Z M240.82,94.062 L240.82,91.356 L228.962,91.356 L228.962,94.062 L240.82,94.062 Z M227.95,80.928 L241.744,80.928 L241.744,86.626 L234.726,86.626 C234.946,87.132 235.166,87.704 235.386,88.364 L244.34,88.364 L244.34,89.046 L225.332,89.046 L225.332,88.364 L234.616,88.364 C234.374,87.726 234.132,87.154 233.868,86.626 L227.95,86.626 L227.95,80.928 Z M240.996,85.944 L240.996,84.052 L228.698,84.052 L228.698,85.944 L240.996,85.944 Z M228.698,83.392 L240.996,83.392 L240.996,81.566 L228.698,81.566 L228.698,83.392 Z M238.62,95.976 C240.688,96.68 242.69,97.692 244.626,99.034 L244.384,99.716 C242.426,98.374 240.402,97.34 238.29,96.592 L238.62,95.976 Z M230.678,95.91 L231.162,96.438 C229.688,97.758 227.774,98.858 225.442,99.716 L225.002,99.078 C227.444,98.22 229.336,97.164 230.678,95.91 Z M253.602,84.756 C255.78,86.406 257.782,88.056 259.63,89.706 C261.082,87.968 262.314,85.922 263.326,83.546 L263.986,83.92 C262.93,86.34 261.654,88.452 260.18,90.212 C262.116,91.95 263.832,93.688 265.372,95.426 L264.822,95.976 C263.348,94.26 261.632,92.544 259.696,90.784 C257.672,93.028 255.318,94.744 252.612,95.91 L252.194,95.228 C254.878,94.128 257.188,92.478 259.146,90.278 C257.298,88.628 255.274,86.956 253.052,85.262 L253.602,84.756 Z M249.818,81.126 L266.956,81.126 L266.956,81.852 L250.544,81.852 L250.544,98.396 L267.55,98.396 L267.55,99.122 L249.818,99.122 L249.818,81.126 Z M276.768,81.324 L290.628,81.324 L290.628,82.072 L285.876,82.072 L285.876,85.46 L289.858,85.46 L289.858,100.024 L289.154,100.024 L289.154,98.77 L278.242,98.77 L278.242,100.09 L277.516,100.09 L277.516,85.46 L281.344,85.46 L281.344,82.072 L276.768,82.072 L276.768,81.324 Z M278.242,98.066 L289.154,98.066 L289.154,95.118 L278.242,95.118 L278.242,98.066 Z M281.388,86.164 L278.242,86.164 L278.242,94.414 L289.154,94.414 L289.154,91.84 L286.58,91.84 C285.612,91.84 285.15,91.356 285.15,90.41 L285.15,86.164 L282.07,86.164 L282.07,87.814 C282.026,90.014 281.168,91.598 279.496,92.61 L278.968,92.17 C280.552,91.246 281.344,89.794 281.388,87.814 L281.388,86.164 Z M282.092,85.46 L285.128,85.46 L285.128,82.072 L282.092,82.072 L282.092,85.46 Z M289.154,91.158 L289.154,86.164 L285.854,86.164 L285.854,90.344 C285.854,90.872 286.118,91.158 286.668,91.158 L289.154,91.158 Z M272.016,80.62 C273.556,81.72 274.854,82.82 275.91,83.92 L275.382,84.426 C274.392,83.37 273.094,82.292 271.466,81.148 L272.016,80.62 Z M271.444,85.9 C273.006,87 274.304,88.122 275.36,89.222 L274.81,89.728 C273.842,88.672 272.544,87.572 270.916,86.428 L271.444,85.9 Z M274.788,91.488 L275.448,91.752 C274.392,94.634 273.182,97.318 271.862,99.826 L271.136,99.54 C272.544,96.9 273.776,94.216 274.788,91.488 Z M304.752,84.624 L305.478,84.624 L305.478,87.638 L313.178,87.638 L313.178,88.386 L305.478,88.386 L305.478,92.28 L311.33,92.28 L311.33,100.068 L310.582,100.068 L310.582,98.77 L300.308,98.77 L300.308,100.068 L299.56,100.068 L299.56,92.28 L304.752,92.28 L304.752,84.624 Z M300.308,98.022 L310.582,98.022 L310.582,93.006 L300.308,93.006 L300.308,98.022 Z M304.07,80.026 C304.51,80.774 304.906,81.61 305.28,82.578 L313.486,82.578 L313.486,83.326 L296.898,83.326 L296.898,88.54 C296.81,93.292 295.996,97.12 294.456,99.98 L293.906,99.474 C295.336,96.856 296.084,93.204 296.128,88.54 L296.128,82.578 L304.51,82.578 C304.158,81.676 303.762,80.862 303.3,80.158 L304.07,80.026 Z M322.462,80.136 L323.144,80.136 L323.144,81.17 L326.4,81.17 L326.4,81.808 L323.144,81.808 L323.144,83.414 L326.07,83.414 L326.07,83.942 C324.222,86.34 321.34,87.968 317.468,88.826 L317.116,88.254 C318.744,87.902 320.174,87.44 321.406,86.824 C320.68,86.208 319.822,85.57 318.81,84.954 C318.326,85.328 317.842,85.658 317.314,85.966 L316.918,85.416 C318.59,84.492 319.712,83.392 320.306,82.116 L321.01,82.182 C320.812,82.622 320.57,83.018 320.306,83.414 L322.462,83.414 L322.462,80.136 Z M319.8,84.03 L319.25,84.58 C320.328,85.24 321.252,85.9 322,86.516 C323.254,85.812 324.31,84.998 325.146,84.03 L319.8,84.03 Z M328.116,82.556 C329.348,83.128 330.514,83.744 331.658,84.404 C332.758,83.634 333.616,82.754 334.21,81.786 L327.742,81.786 L327.742,81.126 L335.046,81.126 L335.046,81.654 C334.408,82.864 333.484,83.898 332.296,84.778 C333.748,85.658 335.112,86.604 336.41,87.616 L336.014,88.21 C334.562,87.044 333.132,86.032 331.702,85.174 C330.822,85.724 329.81,86.208 328.71,86.626 L328.27,86.054 C329.326,85.68 330.25,85.262 331.064,84.778 C329.964,84.14 328.864,83.568 327.764,83.084 L328.116,82.556 Z M321.758,93.49 L321.758,95.184 L331.702,95.184 L331.702,93.49 L321.758,93.49 Z M331.702,92.94 L331.702,91.246 L321.758,91.246 L321.758,92.94 L331.702,92.94 Z M334.144,95.052 L334.782,95.36 C333.946,96.394 333.044,97.318 332.076,98.11 C333.308,98.55 334.496,99.034 335.64,99.562 L335.266,100.134 C332.428,98.792 329.524,97.736 326.532,96.988 L326.884,96.482 C328.468,96.9 329.964,97.362 331.394,97.868 C332.45,96.988 333.352,96.064 334.144,95.052 Z M326.532,88.782 C326.862,89.31 327.17,89.948 327.456,90.652 L332.428,90.652 L332.428,95.8 L321.758,95.8 L321.758,99.32 C323.606,99.056 325.366,98.77 327.038,98.418 L327.17,99.078 C325.454,99.43 323.342,99.76 320.79,100.046 L320.592,99.496 C320.856,99.43 321.01,99.276 321.01,99.034 L321.01,90.652 L326.752,90.652 C326.466,89.992 326.158,89.42 325.828,88.914 L326.532,88.782 Z M326.796,86.736 C324.442,88.936 321.34,90.63 317.468,91.774 L317.072,91.158 C321.12,90.058 324.266,88.386 326.51,86.142 L327.082,86.142 C329.15,88.21 332.318,89.794 336.586,90.938 L336.19,91.576 C331.966,90.3 328.842,88.672 326.796,86.736 Z M359.092,81.368 L359.092,82.116 L343.318,82.116 L343.318,89.244 C343.23,93.732 342.262,97.318 340.436,100.024 L339.886,99.518 C341.602,97.054 342.482,93.644 342.57,89.244 L342.57,81.368 L359.092,81.368 Z M345.21,86.384 L358.806,86.384 L358.806,87.11 L352.954,87.11 L352.954,98.132 C352.954,99.276 352.382,99.87 351.26,99.87 L348.928,99.87 L348.774,99.144 C349.566,99.188 350.314,99.21 351.018,99.21 C351.81,99.21 352.206,98.792 352.206,97.956 L352.206,87.11 L345.21,87.11 L345.21,86.384 Z M373.656,83.634 C372.93,85.064 372.116,86.23 371.214,87.154 L370.642,86.67 C372.226,85.042 373.436,82.842 374.272,80.026 L374.976,80.312 C374.668,81.258 374.338,82.116 374.008,82.908 L382.038,82.908 L382.038,83.634 L373.656,83.634 Z M381.862,90.036 L382.346,90.586 C381.356,91.686 380.102,92.588 378.606,93.292 C379.574,95.734 380.96,97.758 382.786,99.386 L382.324,99.98 C379.068,97.164 377.132,93.028 376.56,87.594 C375.636,87.77 374.712,87.946 373.788,88.078 L373.788,98.858 C375.218,98.528 376.626,98.132 378.012,97.648 L378.144,98.396 C376.67,98.858 374.932,99.32 372.908,99.804 L372.754,99.1 C372.952,99.034 373.062,98.924 373.062,98.748 L373.062,87.484 C375.746,87.176 378.32,86.56 380.74,85.592 L381.158,86.23 C379.926,86.714 378.606,87.11 377.242,87.44 C377.418,89.332 377.792,91.07 378.342,92.632 C379.75,91.95 380.916,91.092 381.862,90.036 Z M363.206,83.568 L371.06,83.568 L371.06,84.294 L366.066,84.294 L366.066,87.924 L370.466,87.924 C370.466,93.38 370.334,96.724 370.092,97.956 C369.872,99.276 368.948,99.936 367.364,99.936 C367.188,99.936 366.88,99.914 366.462,99.892 L366.264,99.21 C366.638,99.232 366.968,99.254 367.232,99.254 C368.42,99.254 369.124,98.792 369.344,97.912 C369.608,96.812 369.74,93.71 369.74,88.65 L366.044,88.65 C365.912,93.798 364.988,97.604 363.316,100.068 L362.766,99.562 C364.438,97.098 365.296,93.116 365.34,87.638 L365.34,84.294 L363.206,84.294 L363.206,83.568 Z M366.462,80.004 C367.012,81.016 367.452,81.94 367.782,82.776 L367.078,83.018 C366.726,82.05 366.264,81.126 365.736,80.202 L366.462,80.004 Z M399.462,84.25 C398.89,85.768 398.164,87.044 397.306,88.1 L396.844,87.55 C398.318,85.658 399.308,83.106 399.836,79.894 L400.584,80.026 C400.364,81.302 400.078,82.446 399.726,83.502 L405.732,83.502 L405.732,84.25 L399.462,84.25 Z M386.68,80.752 C387.912,81.654 388.924,82.556 389.76,83.436 L389.21,83.986 C388.44,83.106 387.428,82.204 386.152,81.258 L386.68,80.752 Z M386.592,86.23 C387.868,87.198 388.924,88.188 389.76,89.2 L389.232,89.728 C388.44,88.76 387.384,87.77 386.064,86.736 L386.592,86.23 Z M388.902,92.06 L389.562,92.324 C388.682,94.986 387.692,97.472 386.614,99.804 L385.91,99.518 C387.076,97.098 388.066,94.612 388.902,92.06 Z M392.378,84.602 L390.354,84.602 L390.354,83.876 L393.83,83.876 C393.5,82.49 393.126,81.236 392.73,80.114 L393.478,79.982 C393.874,81.104 394.226,82.402 394.556,83.876 L397.306,83.876 L397.306,84.602 L393.104,84.602 L393.104,86.494 C393.104,87.198 393.082,87.902 393.038,88.584 L396.8,88.584 C396.8,93.336 396.69,96.284 396.47,97.428 C396.338,98.924 395.744,99.694 394.644,99.694 C394.336,99.694 393.786,99.672 393.016,99.672 L392.84,98.99 C393.522,98.99 394.116,99.012 394.622,99.012 C395.282,99.012 395.656,98.44 395.766,97.318 C395.942,96.35 396.03,93.688 396.052,89.332 L392.994,89.332 C392.686,94.084 391.696,97.67 390.024,100.068 L389.474,99.562 C391.366,96.834 392.334,92.478 392.378,86.494 L392.378,84.602 Z M399.286,87.374 L404.94,87.374 L404.94,88.056 C404.192,89.068 403.356,90.036 402.454,90.96 L402.454,92.852 L405.798,92.852 L405.798,93.556 L402.454,93.556 L402.454,98.264 C402.454,99.276 401.97,99.782 401.002,99.782 L399.198,99.782 L399.022,99.056 C399.55,99.056 400.122,99.078 400.738,99.078 C401.376,99.078 401.706,98.704 401.706,98 L401.706,93.556 L397.966,93.556 L397.966,92.852 L401.706,92.852 L401.706,90.806 C402.85,89.596 403.642,88.672 404.082,88.056 L399.286,88.056 L399.286,87.374 Z M416.578,81.236 L416.578,94.722 L415.874,94.722 L415.874,81.94 L410.55,81.94 L410.55,94.722 L409.846,94.722 L409.846,81.236 L416.578,81.236 Z M420.45,80.048 L421.198,80.136 C420.956,81.346 420.626,82.468 420.23,83.524 L427.864,83.524 C427.864,90.96 427.732,95.492 427.468,97.164 C427.204,98.946 426.236,99.848 424.52,99.848 C423.948,99.848 422.98,99.826 421.616,99.804 L421.418,99.122 C422.562,99.144 423.574,99.166 424.41,99.166 C425.686,99.166 426.434,98.528 426.676,97.296 C426.962,95.756 427.116,91.4 427.138,84.272 L419.922,84.272 C419.306,85.68 418.558,86.912 417.678,88.012 L417.238,87.418 C418.822,85.416 419.878,82.952 420.45,80.048 Z M423.002,89.75 C423.838,91.554 424.608,93.512 425.334,95.624 L424.696,95.954 C424.498,95.36 424.3,94.81 424.124,94.282 C422.32,94.722 420.34,95.074 418.14,95.294 L417.986,94.634 C419.064,93.446 420.23,90.828 421.484,86.736 L422.166,86.956 C421.044,90.476 419.944,93.028 418.888,94.568 C420.736,94.348 422.408,94.04 423.882,93.644 C423.398,92.324 422.892,91.136 422.364,90.058 L423.002,89.75 Z M412.882,83.92 L413.586,83.92 L413.586,91.158 C413.564,93.556 413.212,95.47 412.552,96.9 C411.892,98.22 410.792,99.276 409.274,100.068 L408.878,99.43 C410.308,98.726 411.364,97.692 412.024,96.35 C412.596,95.03 412.882,93.292 412.882,91.158 L412.882,83.92 Z M414.4,95.558 C415.676,96.834 416.732,98.132 417.59,99.43 L417.062,99.936 C416.27,98.704 415.214,97.406 413.894,96.042 L414.4,95.558 Z M442.164001,80.136 L442.912001,80.334 C442.626001,81.676 442.296001,82.886 441.922001,83.964 L450.722001,83.964 C450.722001,90.938 450.612001,95.25 450.414001,96.9 C450.194001,98.924 449.072001,99.936 447.048001,99.936 C446.740001,99.936 446.212001,99.914 445.442001,99.892 L445.244001,99.188 C445.926001,99.21 446.520001,99.232 447.026001,99.232 C448.566001,99.232 449.446001,98.418 449.688001,96.812 C449.864001,95.338 449.952001,91.312 449.996001,84.712 L447.686001,84.712 C447.202001,88.584 446.520001,91.598 445.618001,93.798 C444.606001,96.042 443.110001,98.066 441.130001,99.87 L440.646001,99.276 C442.560001,97.56 443.968001,95.668 444.892001,93.6 C445.860001,91.378 446.542001,88.408 446.982001,84.712 L444.562001,84.712 C443.682001,89.64 441.988001,93.204 439.458001,95.404 L438.952001,94.832 C441.394001,92.72 443.044001,89.354 443.880001,84.712 L441.636001,84.712 C441.042001,86.208 440.338001,87.462 439.546001,88.452 L438.996001,87.968 C440.492001,86.142 441.548001,83.524 442.164001,80.136 Z M433.606001,85.768 C433.298001,86.956 432.880001,88.122 432.352001,89.244 L431.692001,89.046 C432.792001,86.692 433.408001,84.228 433.562001,81.632 L434.222001,81.676 C434.156001,82.82 434.002001,83.92 433.782001,85.02 L436.026001,85.02 L436.026001,80.158 L436.774001,80.158 L436.774001,85.02 L439.018001,85.02 L439.018001,85.768 L436.774001,85.768 L436.774001,92.082 C437.522001,91.73 438.226001,91.334 438.930001,90.938 L438.930001,91.664 C438.226001,92.082 437.500001,92.456 436.774001,92.808 L436.774001,100.09 L436.026001,100.09 L436.026001,93.182 C434.772001,93.754 433.474001,94.26 432.110001,94.7 L431.934001,93.952 C433.342001,93.556 434.706001,93.05 436.026001,92.456 L436.026001,85.768 L433.606001,85.768 Z M465.682001,84.624 L466.408001,84.624 L466.408001,87.638 L474.108001,87.638 L474.108001,88.386 L466.408001,88.386 L466.408001,92.28 L472.260001,92.28 L472.260001,100.068 L471.512001,100.068 L471.512001,98.77 L461.238001,98.77 L461.238001,100.068 L460.490001,100.068 L460.490001,92.28 L465.682001,92.28 L465.682001,84.624 Z M461.238001,98.022 L471.512001,98.022 L471.512001,93.006 L461.238001,93.006 L461.238001,98.022 Z M465.000001,80.026 C465.440001,80.774 465.836001,81.61 466.210001,82.578 L474.416001,82.578 L474.416001,83.326 L457.828001,83.326 L457.828001,88.54 C457.740001,93.292 456.926001,97.12 455.386001,99.98 L454.836001,99.474 C456.266001,96.856 457.014001,93.204 457.058001,88.54 L457.058001,82.578 L465.440001,82.578 C465.088001,81.676 464.692001,80.862 464.230001,80.158 L465.000001,80.026 Z M479.960001,80.708 C481.324001,81.83 482.490001,82.952 483.414001,84.052 L482.886001,84.58 C482.028001,83.524 480.884001,82.402 479.432001,81.214 L479.960001,80.708 Z M477.848001,87.176 L481.918001,87.176 L481.918001,97.692 C482.864001,96.988 483.898001,96.086 485.042001,94.986 L485.240001,95.8 C483.964001,97.032 482.578001,98.154 481.104001,99.122 L480.796001,98.462 C481.038001,98.22 481.170001,98 481.170001,97.78 L481.170001,87.924 L477.848001,87.924 L477.848001,87.176 Z M485.614001,89.684 L495.756001,89.684 L495.756001,90.41 C494.964001,92.698 493.644001,94.612 491.840001,96.196 C493.490001,97.428 495.514001,98.506 497.890001,99.408 L497.472001,100.046 C495.008001,99.078 492.940001,97.934 491.312001,96.658 C489.508001,98.088 487.264001,99.232 484.580001,100.068 L484.162001,99.43 C486.780001,98.594 488.958001,97.516 490.718001,96.174 C488.760001,94.502 487.440001,92.588 486.758001,90.432 L485.614001,90.432 L485.614001,89.684 Z M487.484001,90.432 C488.144001,92.434 489.398001,94.194 491.246001,95.734 C492.984001,94.238 494.238001,92.478 495.008001,90.432 L487.484001,90.432 Z M487.528001,81.214 L494.304001,81.214 L494.304001,86.208 C494.304001,86.824 494.590001,87.132 495.206001,87.132 L497.384001,87.132 L497.384001,87.836 L495.096001,87.836 C494.040001,87.836 493.534001,87.308 493.534001,86.296 L493.534001,81.94 L488.298001,81.94 L488.298001,82.93 C488.298001,85.328 487.198001,87.176 485.042001,88.474 L484.536001,87.902 C486.516001,86.758 487.528001,85.13 487.528001,83.018 L487.528001,81.214 Z M507.702001,87.044 L513.972001,87.044 L513.972001,80.114 L514.764001,80.114 L514.764001,87.044 L520.726001,87.044 L520.726001,87.792 L514.764001,87.792 L514.764001,100.134 L513.972001,100.134 L513.972001,87.792 L507.702001,87.792 L507.702001,87.044 Z M502.884001,80.422 C504.468001,81.61 505.788001,82.82 506.866001,84.03 L506.360001,84.558 C505.348001,83.414 504.006001,82.204 502.356001,80.928 L502.884001,80.422 Z M500.838001,87.132 L505.062001,87.132 L505.062001,97.626 C506.052001,96.856 507.130001,95.91 508.274001,94.81 L508.450001,95.602 C507.152001,96.9 505.766001,98.044 504.270001,99.056 L503.962001,98.396 C504.204001,98.176 504.336001,97.956 504.336001,97.758 L504.336001,87.88 L500.838001,87.88 L500.838001,87.132 Z" id="直连游客和商家-专为景区酒店餐厅旅游购物"></path>
        </g>
    </g>
</svg>