<?xml version="1.0" encoding="UTF-8"?>
<svg width="484px" height="81px" viewBox="0 0 484 81" version="1.1" xmlns="http://www.w3.org/2000/svg" xmlns:xlink="http://www.w3.org/1999/xlink">
    <!-- Generator: Sketch 48.2 (47327) - http://www.bohemiancoding.com/sketch -->
    <title>政府智慧旅游公共服务平台@2x</title>
    <desc>Created with Sketch.</desc>
    <defs></defs>
    <g id="智慧旅游-copy" stroke="none" stroke-width="1" fill="none" fill-rule="evenodd" transform="translate(-475.000000, -2767.000000)">
        <g id="Group-22" transform="translate(475.000000, 2766.000000)">
            <path d="M159.93,6.92 L164.97,6.92 C165.09,5.96 165.15,4.94 165.17,3.84 L166.21,3.84 C166.21,4.96 166.15,5.98 166.05,6.92 L171.09,6.92 L171.09,7.96 L165.91,7.96 C165.81,8.48 165.71,8.98 165.59,9.44 C167.79,11.22 169.63,13 171.13,14.76 L170.35,15.56 C169.07,13.92 167.37,12.2 165.29,10.38 C164.47,12.5 162.83,14.24 160.35,15.58 L159.69,14.76 C161.97,13.52 163.51,11.94 164.27,10 C164.49,9.36 164.67,8.68 164.81,7.96 L159.93,7.96 L159.93,6.92 Z M173.43,1.74 L173.43,18.92 L172.35,18.92 L172.35,17.92 L158.67,17.92 L158.67,18.92 L157.59,18.92 L157.59,1.74 L173.43,1.74 Z M158.67,16.88 L172.35,16.88 L172.35,2.78 L158.67,2.78 L158.67,16.88 Z M193.85,4.72 C193.85,8.66 193.75,11.04 193.57,11.88 C193.37,12.7 192.55,13.12 191.13,13.12 L190.99,13.12 L190.67,12.08 C190.93,12.08 191.15,12.1 191.35,12.1 C192.01,12.1 192.43,11.86 192.59,11.38 C192.71,10.92 192.79,9.18 192.81,6.14 L189.49,7.16 L189.49,14.88 L188.45,14.88 L188.45,7.48 L185.17,8.5 L185.17,16.58 C185.17,17.24 185.51,17.58 186.23,17.58 L192.03,17.58 C192.51,17.58 192.85,17.44 193.05,17.16 C193.31,16.8 193.49,15.76 193.57,14.04 L194.57,14.36 C194.45,16.36 194.21,17.58 193.81,18.04 C193.49,18.4 192.97,18.6 192.25,18.6 L185.91,18.6 C184.69,18.6 184.09,18 184.09,16.8 L184.09,8.84 L182.23,9.4 L182.23,8.32 L184.09,7.76 L184.09,2.74 L185.17,2.74 L185.17,7.42 L188.45,6.4 L188.45,0.72 L189.49,0.72 L189.49,6.08 L193.85,4.72 Z M182.51,13.26 L182.51,14.36 C180.67,15.2 178.67,15.9 176.55,16.46 L176.27,15.36 C177.17,15.16 178.05,14.94 178.93,14.66 L178.93,7.22 L176.51,7.22 L176.51,6.14 L178.93,6.14 L178.93,0.88 L179.99,0.88 L179.99,6.14 L182.21,6.14 L182.21,7.22 L179.99,7.22 L179.99,14.3 C180.85,14 181.69,13.66 182.51,13.26 Z M198.51,4.36 C198.15,5.18 197.69,5.88 197.17,6.44 L196.29,5.82 C197.33,4.72 197.99,3.2 198.27,1.24 L199.31,1.4 C199.19,2.12 199.05,2.76 198.87,3.34 L201.61,3.34 L201.61,0.76 L202.69,0.76 L202.69,3.34 L206.57,3.34 L206.57,4.36 L202.69,4.36 L202.69,7.28 L207.13,7.28 L207.13,8.3 L202.69,8.3 L202.69,10.72 L206.61,10.72 L206.61,15.94 C206.61,17.02 206.07,17.56 205.01,17.56 L203.91,17.56 L203.63,16.52 L204.67,16.58 C205.27,16.58 205.57,16.28 205.57,15.72 L205.57,11.72 L202.69,11.72 L202.69,19 L201.61,19 L201.61,11.72 L198.67,11.72 L198.67,17.72 L197.61,17.72 L197.61,10.72 L201.61,10.72 L201.61,8.3 L196.65,8.3 L196.65,7.28 L201.61,7.28 L201.61,4.36 L198.51,4.36 Z M208.49,2.58 L209.55,2.58 L209.55,15.02 L208.49,15.02 L208.49,2.58 Z M212.03,18.76 L209.11,18.76 L208.87,17.74 C209.83,17.78 210.77,17.8 211.65,17.8 C212.33,17.8 212.67,17.44 212.67,16.76 L212.67,0.78 L213.75,0.78 L213.75,17.04 C213.75,18.18 213.17,18.76 212.03,18.76 Z M230.57,6.22 L230.57,17.38 L234.39,17.38 L234.39,18.4 L216.85,18.4 L216.85,17.38 L220.61,17.38 L220.61,6.22 L230.57,6.22 Z M221.69,17.38 L229.51,17.38 L229.51,14.62 L221.69,14.62 L221.69,17.38 Z M221.69,13.62 L229.51,13.62 L229.51,10.98 L221.69,10.98 L221.69,13.62 Z M221.69,9.98 L229.51,9.98 L229.51,7.24 L221.69,7.24 L221.69,9.98 Z M233.33,2.8 L233.33,6.64 L232.27,6.64 L232.27,3.8 L218.75,3.8 L218.75,6.64 L217.69,6.64 L217.69,2.8 L225.07,2.8 C224.79,2.08 224.49,1.44 224.15,0.86 L225.29,0.66 C225.59,1.3 225.89,2 226.17,2.8 L233.33,2.8 Z M259.13,3.26 C258.65,4.06 258.11,4.72 257.51,5.28 L256.83,4.48 C257.83,3.56 258.65,2.26 259.25,0.58 L260.25,0.8 C260.05,1.32 259.85,1.82 259.63,2.3 L265.57,2.3 L265.57,3.26 L262.45,3.26 C262.41,4.08 262.33,4.84 262.21,5.52 L266.11,5.52 L266.11,6.52 L261.99,6.52 C261.91,6.78 261.85,7.02 261.77,7.26 C263.33,8.06 264.63,8.88 265.69,9.68 L264.91,10.46 C264.03,9.7 262.87,8.9 261.43,8.06 C260.65,9.52 259.23,10.74 257.17,11.7 L256.45,10.82 C258.53,9.9 259.93,8.72 260.61,7.28 C260.71,7.02 260.81,6.76 260.89,6.52 L256.67,6.52 L256.67,5.52 L261.15,5.52 C261.29,4.8 261.37,4.06 261.39,3.26 L259.13,3.26 Z M267.11,2.1 L273.41,2.1 L273.41,9.24 L267.11,9.24 L267.11,2.1 Z M272.33,8.26 L272.33,3.08 L268.17,3.08 L268.17,8.26 L272.33,8.26 Z M271.99,10.9 L271.99,19 L270.89,19 L270.89,18 L260.63,18 L260.63,19 L259.55,19 L259.55,10.9 L271.99,10.9 Z M260.63,17.02 L270.89,17.02 L270.89,14.98 L260.63,14.98 L260.63,17.02 Z M260.63,14.02 L270.89,14.02 L270.89,11.9 L260.63,11.9 L260.63,14.02 Z M291.99,13.8 L278.19,13.8 L278.19,12.98 L290.95,12.98 L290.95,11.46 L278.99,11.46 L278.99,10.66 L290.95,10.66 L290.95,9.2 L278.41,9.2 L278.41,8.38 L280.87,8.38 L280.87,7.08 L277.13,7.08 L277.13,6.24 L280.87,6.24 L280.87,4.9 L277.93,4.9 L277.93,4.08 L280.87,4.08 L280.87,2.74 L277.47,2.74 L277.47,1.9 L280.87,1.9 L280.87,0.74 L281.95,0.74 L281.95,1.9 L284.99,1.9 L284.99,2.74 L281.95,2.74 L281.95,4.08 L284.75,4.08 L284.75,4.9 L281.95,4.9 L281.95,6.24 L284.99,6.24 L284.99,7.08 L281.95,7.08 L281.95,8.38 L289.09,8.38 L289.09,7.08 L285.81,7.08 L285.81,6.24 L289.09,6.24 L289.09,4.9 L286.23,4.9 L286.23,4.08 L289.09,4.08 L289.09,2.74 L285.89,2.74 L285.89,1.9 L289.09,1.9 L289.09,0.74 L290.17,0.74 L290.17,1.9 L293.51,1.9 L293.51,2.74 L290.17,2.74 L290.17,4.08 L293.09,4.08 L293.09,4.9 L290.17,4.9 L290.17,6.24 L293.79,6.24 L293.79,7.08 L290.17,7.08 L290.17,8.38 L291.99,8.38 L291.99,13.8 Z M278.65,14.72 L279.61,14.94 C279.15,16.34 278.49,17.54 277.63,18.58 L276.77,18.02 C277.61,17.06 278.25,15.96 278.65,14.72 Z M288.31,18.64 L282.87,18.64 C281.79,18.64 281.25,18.16 281.25,17.24 L281.25,14.62 L282.31,14.62 L282.31,17.02 C282.31,17.46 282.59,17.7 283.17,17.7 L288.09,17.7 C288.55,17.7 288.87,17.6 289.03,17.44 C289.29,17.2 289.45,16.54 289.53,15.42 L290.53,15.74 C290.41,17.1 290.15,17.94 289.79,18.26 C289.47,18.5 288.99,18.64 288.31,18.64 Z M285.27,13.92 C286.19,14.72 286.89,15.4 287.39,16 L286.61,16.54 C286.09,15.9 285.37,15.18 284.49,14.4 L285.27,13.92 Z M291.97,14.46 C293.11,15.68 293.99,16.76 294.59,17.68 L293.79,18.26 C293.15,17.26 292.29,16.16 291.19,14.96 L291.97,14.46 Z M311.13,8.62 L311.13,12.36 L300.95,12.36 L300.95,13.98 L312.05,13.98 L312.05,18.94 L310.97,18.94 L310.97,18.04 L300.95,18.04 L300.95,18.92 L299.87,18.92 L299.87,8.62 L311.13,8.62 Z M300.95,17.06 L310.97,17.06 L310.97,14.88 L300.95,14.88 L300.95,17.06 Z M300.95,11.46 L310.07,11.46 L310.07,9.54 L300.95,9.54 L300.95,11.46 Z M313.87,6.28 L313.87,9.72 L312.81,9.72 L312.81,7.22 L298.17,7.22 L298.17,9.72 L297.11,9.72 L297.11,6.28 L305.19,6.28 C304.95,5.74 304.71,5.26 304.47,4.82 L305.53,4.62 C305.79,5.1 306.03,5.66 306.25,6.28 L313.87,6.28 Z M299.25,3.22 C298.75,4.02 298.17,4.78 297.53,5.46 L296.61,4.88 C297.85,3.6 298.77,2.18 299.35,0.6 L300.41,0.82 C300.21,1.3 300.01,1.78 299.79,2.24 L305.41,2.24 L305.41,3.22 L301.79,3.22 C302.31,3.92 302.71,4.56 303.01,5.16 L302.03,5.54 C301.63,4.74 301.15,3.98 300.63,3.22 L299.25,3.22 Z M307.89,3.22 C307.51,3.94 307.09,4.6 306.61,5.2 L305.69,4.6 C306.67,3.42 307.39,2.1 307.85,0.62 L308.87,0.84 C308.71,1.32 308.53,1.8 308.35,2.24 L314.33,2.24 L314.33,3.22 L310.55,3.22 C311.03,3.86 311.41,4.44 311.69,5 L310.71,5.34 C310.33,4.62 309.89,3.9 309.37,3.22 L307.89,3.22 Z M323.95,1.58 L333.47,1.58 L333.47,10.58 L329.25,10.58 L329.25,13.26 L333.87,13.26 L333.87,14.28 L329.25,14.28 L329.25,17.26 L334.63,17.26 L334.63,18.32 L322.67,18.32 L322.67,17.26 L328.17,17.26 L328.17,14.28 L323.55,14.28 L323.55,13.26 L328.17,13.26 L328.17,10.58 L323.95,10.58 L323.95,1.58 Z M332.41,9.6 L332.41,6.58 L329.25,6.58 L329.25,9.6 L332.41,9.6 Z M328.17,9.6 L328.17,6.58 L324.99,6.58 L324.99,9.6 L328.17,9.6 Z M324.99,5.64 L328.17,5.64 L328.17,2.56 L324.99,2.56 L324.99,5.64 Z M329.25,2.56 L329.25,5.64 L332.41,5.64 L332.41,2.56 L329.25,2.56 Z M316.77,8.24 L319.13,8.24 L319.13,3.16 L316.49,3.16 L316.49,2.12 L322.83,2.12 L322.83,3.16 L320.21,3.16 L320.21,8.24 L322.59,8.24 L322.59,9.3 L320.21,9.3 L320.21,14.28 C321.05,13.98 321.85,13.66 322.61,13.34 L322.61,14.4 C320.77,15.18 318.77,15.82 316.63,16.34 L316.37,15.32 C317.33,15.12 318.25,14.9 319.13,14.62 L319.13,9.3 L316.77,9.3 L316.77,8.24 Z" id="因地制宜-智慧管理" fill="#787878"></path>
            <path d="M1.808,52.44 L16.568,52.44 L16.568,53.664 L10.52,53.664 L10.52,62.736 L15.308,62.736 L15.308,63.96 L10.52,63.96 L10.52,74.76 C12.644,74.112 14.66,73.464 16.604,72.816 L16.604,74.004 C12.284,75.516 7.172,76.956 1.196,78.252 L0.872,77.1 L3.464,76.56 L3.464,59.172 L4.652,59.172 L4.652,76.272 C6.236,75.912 7.82,75.516 9.332,75.084 L9.332,53.664 L1.808,53.664 L1.808,52.44 Z M19.088,61.116 C18.152,63.276 17.072,65.256 15.848,67.092 L15.128,66.12 C18.152,61.368 20.168,55.572 21.248,48.66 L22.472,48.804 C22.112,51 21.644,53.088 21.14,55.032 L32.984,55.032 L32.984,56.256 L29.744,56.256 C29.672,62.772 28.196,68.172 25.28,72.42 C27.62,75.876 30.428,78.54 33.668,80.412 L32.948,81.42 C29.636,79.548 26.864,76.884 24.56,73.428 C22.04,76.74 18.62,79.368 14.372,81.312 L13.58,80.304 C18.008,78.396 21.428,75.768 23.876,72.384 C21.932,69.18 20.312,65.436 19.088,61.116 Z M24.56,71.304 C27.152,67.2 28.448,62.196 28.52,56.292 L28.52,56.256 L20.816,56.256 C20.456,57.372 20.096,58.452 19.736,59.496 C20.96,64.104 22.544,68.028 24.56,71.304 Z M55.192,55.608 L56.38,55.86 C55.804,57.948 55.012,60 54.04,61.944 L54.04,81.24 L52.816,81.24 L52.816,64.212 C51.664,66.156 50.296,67.992 48.784,69.756 L48.388,68.46 C51.592,64.536 53.86,60.252 55.192,55.608 Z M57.424,61.836 L68.512,61.836 L68.512,56.112 L69.7,56.112 L69.7,61.836 L73.948,61.836 L73.948,63.06 L69.7,63.06 L69.7,78.36 C69.7,80.196 68.8,81.132 67.072,81.132 L62.212,81.132 L61.96,79.944 C63.616,79.98 65.164,80.016 66.64,80.016 C67.864,80.016 68.512,79.332 68.512,78.036 L68.512,63.06 L57.424,63.06 L57.424,61.836 Z M73.372,52.08 L73.372,53.304 L46.804,53.304 L46.804,62.7 C46.66,70.44 45.148,76.632 42.268,81.312 L41.332,80.484 C44.032,76.236 45.436,70.296 45.58,62.7 L45.58,52.08 L59.116,52.08 C58.612,50.82 58.036,49.704 57.388,48.732 L58.684,48.48 C59.26,49.524 59.836,50.712 60.376,52.08 L73.372,52.08 Z M59.044,66.984 C61.456,69.648 63.292,71.988 64.588,74.004 L63.652,74.688 C62.284,72.528 60.412,70.152 58.072,67.56 L59.044,66.984 Z M87.408,53.016 C86.544,54.528 85.536,55.824 84.456,56.868 L83.7,55.968 C85.572,54.204 87.012,51.756 88.056,48.624 L89.208,48.876 C88.848,49.956 88.416,50.964 87.984,51.864 L99.072,51.864 L99.072,53.016 L93.204,53.016 C93.132,54.744 92.988,56.292 92.736,57.696 L100.044,57.696 L100.044,58.884 L92.484,58.884 C92.34,59.496 92.16,60.072 91.98,60.612 C94.824,62.088 97.2,63.564 99.144,65.076 L98.244,65.94 C96.516,64.536 94.284,63.06 91.548,61.548 C90.18,64.356 87.588,66.624 83.772,68.388 L82.98,67.344 C86.724,65.688 89.244,63.492 90.54,60.828 C90.792,60.18 91.008,59.532 91.224,58.884 L83.196,58.884 L83.196,57.696 L91.512,57.696 C91.8,56.256 91.944,54.672 91.98,53.016 L87.408,53.016 Z M102.168,51.324 L112.86,51.324 L112.86,63.816 L102.168,63.816 L102.168,51.324 Z M111.636,62.628 L111.636,52.476 L103.356,52.476 L103.356,62.628 L111.636,62.628 Z M110.34,67.308 L110.34,81.492 L109.08,81.492 L109.08,79.512 L89.892,79.512 L89.892,81.492 L88.668,81.492 L88.668,67.308 L110.34,67.308 Z M89.892,78.36 L109.08,78.36 L109.08,74.076 L89.892,74.076 L89.892,78.36 Z M89.892,72.96 L109.08,72.96 L109.08,68.496 L89.892,68.496 L89.892,72.96 Z M151.376,72.096 L126.932,72.096 L126.932,71.052 L150.152,71.052 L150.152,67.776 L128.3,67.776 L128.3,66.768 L150.152,66.768 L150.152,63.636 L127.328,63.636 L127.328,62.592 L132.008,62.592 L132.008,59.928 L124.988,59.928 L124.988,58.848 L132.008,58.848 L132.008,56.004 L126.464,56.004 L126.464,54.96 L132.008,54.96 L132.008,52.116 L125.564,52.116 L125.564,51.036 L132.008,51.036 L132.008,48.768 L133.232,48.768 L133.232,51.036 L138.992,51.036 L138.992,52.116 L133.232,52.116 L133.232,54.96 L138.596,54.96 L138.596,56.004 L133.232,56.004 L133.232,58.848 L139.028,58.848 L139.028,59.928 L133.232,59.928 L133.232,62.592 L146.84,62.592 L146.84,59.928 L140.648,59.928 L140.648,58.848 L146.84,58.848 L146.84,56.004 L141.404,56.004 L141.404,54.96 L146.84,54.96 L146.84,52.116 L140.792,52.116 L140.792,51.036 L146.84,51.036 L146.84,48.768 L148.064,48.768 L148.064,51.036 L154.364,51.036 L154.364,52.116 L148.064,52.116 L148.064,54.96 L153.608,54.96 L153.608,56.004 L148.064,56.004 L148.064,58.848 L154.868,58.848 L154.868,59.928 L148.064,59.928 L148.064,62.592 L151.376,62.592 L151.376,72.096 Z M128.084,73.932 L129.2,74.148 C128.336,76.668 127.076,78.828 125.456,80.7 L124.412,80.052 C126.068,78.288 127.292,76.236 128.084,73.932 Z M145.076,80.88 L135.284,80.88 C133.52,80.88 132.656,80.16 132.656,78.72 L132.656,73.716 L133.844,73.716 L133.844,78.468 C133.844,79.332 134.42,79.764 135.608,79.764 L144.824,79.764 C145.76,79.764 146.372,79.584 146.696,79.296 C147.2,78.828 147.56,77.496 147.704,75.336 L148.856,75.696 C148.676,78.072 148.244,79.584 147.596,80.232 C147.092,80.664 146.228,80.88 145.076,80.88 Z M139.316,72.564 C141.008,74.004 142.304,75.3 143.204,76.416 L142.268,77.1 C141.332,75.876 140.036,74.58 138.416,73.14 L139.316,72.564 Z M151.412,73.536 C153.5,75.768 155.084,77.748 156.164,79.404 L155.264,80.088 C154.112,78.288 152.528,76.308 150.512,74.112 L151.412,73.536 Z M182.44,54.492 C181.252,56.832 179.92,58.74 178.444,60.252 L177.508,59.46 C180.1,56.796 182.08,53.196 183.448,48.588 L184.6,49.056 C184.096,50.604 183.556,52.008 183.016,53.304 L196.156,53.304 L196.156,54.492 L182.44,54.492 Z M195.868,64.968 L196.66,65.868 C195.04,67.668 192.988,69.144 190.54,70.296 C192.124,74.292 194.392,77.604 197.38,80.268 L196.624,81.24 C191.296,76.632 188.128,69.864 187.192,60.972 C185.68,61.26 184.168,61.548 182.656,61.764 L182.656,79.404 C184.996,78.864 187.3,78.216 189.568,77.424 L189.784,78.648 C187.372,79.404 184.528,80.16 181.216,80.952 L180.964,79.8 C181.288,79.692 181.468,79.512 181.468,79.224 L181.468,60.792 C185.86,60.288 190.072,59.28 194.032,57.696 L194.716,58.74 C192.7,59.532 190.54,60.18 188.308,60.72 C188.596,63.816 189.208,66.66 190.108,69.216 C192.412,68.1 194.32,66.696 195.868,64.968 Z M165.34,54.384 L178.192,54.384 L178.192,55.572 L170.02,55.572 L170.02,61.512 L177.22,61.512 C177.22,70.44 177.004,75.912 176.608,77.928 C176.248,80.088 174.736,81.168 172.144,81.168 C171.856,81.168 171.352,81.132 170.668,81.096 L170.344,79.98 C170.956,80.016 171.496,80.052 171.928,80.052 C173.872,80.052 175.024,79.296 175.384,77.856 C175.816,76.056 176.032,70.98 176.032,62.7 L169.984,62.7 C169.768,71.124 168.256,77.352 165.52,81.384 L164.62,80.556 C167.356,76.524 168.76,70.008 168.832,61.044 L168.832,55.572 L165.34,55.572 L165.34,54.384 Z M170.668,48.552 C171.568,50.208 172.288,51.72 172.828,53.088 L171.676,53.484 C171.1,51.9 170.344,50.388 169.48,48.876 L170.668,48.552 Z M228.048,55.5 C227.112,57.984 225.924,60.072 224.52,61.8 L223.764,60.9 C226.176,57.804 227.796,53.628 228.66,48.372 L229.884,48.588 C229.524,50.676 229.056,52.548 228.48,54.276 L238.308,54.276 L238.308,55.5 L228.048,55.5 Z M207.132,49.776 C209.148,51.252 210.804,52.728 212.172,54.168 L211.272,55.068 C210.012,53.628 208.356,52.152 206.268,50.604 L207.132,49.776 Z M206.988,58.74 C209.076,60.324 210.804,61.944 212.172,63.6 L211.308,64.464 C210.012,62.88 208.284,61.26 206.124,59.568 L206.988,58.74 Z M210.768,68.28 L211.848,68.712 C210.408,73.068 208.788,77.136 207.024,80.952 L205.872,80.484 C207.78,76.524 209.4,72.456 210.768,68.28 Z M216.456,56.076 L213.144,56.076 L213.144,54.888 L218.832,54.888 C218.292,52.62 217.68,50.568 217.032,48.732 L218.256,48.516 C218.904,50.352 219.48,52.476 220.02,54.888 L224.52,54.888 L224.52,56.076 L217.644,56.076 L217.644,59.172 C217.644,60.324 217.608,61.476 217.536,62.592 L223.692,62.592 C223.692,70.368 223.512,75.192 223.152,77.064 C222.936,79.512 221.964,80.772 220.164,80.772 C219.66,80.772 218.76,80.736 217.5,80.736 L217.212,79.62 C218.328,79.62 219.3,79.656 220.128,79.656 C221.208,79.656 221.82,78.72 222,76.884 C222.288,75.3 222.432,70.944 222.468,63.816 L217.464,63.816 C216.96,71.592 215.34,77.46 212.604,81.384 L211.704,80.556 C214.8,76.092 216.384,68.964 216.456,59.172 L216.456,56.076 Z M227.76,60.612 L237.012,60.612 L237.012,61.728 C235.788,63.384 234.42,64.968 232.944,66.48 L232.944,69.576 L238.416,69.576 L238.416,70.728 L232.944,70.728 L232.944,78.432 C232.944,80.088 232.152,80.916 230.568,80.916 L227.616,80.916 L227.328,79.728 C228.192,79.728 229.128,79.764 230.136,79.764 C231.18,79.764 231.72,79.152 231.72,78 L231.72,70.728 L225.6,70.728 L225.6,69.576 L231.72,69.576 L231.72,66.228 C233.592,64.248 234.888,62.736 235.608,61.728 L227.76,61.728 L227.76,60.612 Z M257.888,49.164 L259.004,49.596 C256.16,57.228 252.416,63.024 247.808,66.948 L246.872,66.12 C251.66,61.98 255.332,56.328 257.888,49.164 Z M268.112,68.244 C271.208,72.204 273.872,76.416 276.104,80.88 L274.988,81.384 C274.34,80.124 273.728,78.936 273.116,77.856 C266.564,78.9 259.292,79.692 251.228,80.196 L250.976,79.044 C254.396,76.38 258.068,70.368 262.028,61.008 L263.216,61.404 C259.76,69.54 256.376,75.408 253.064,78.936 C260.192,78.468 266.672,77.748 272.468,76.776 C270.74,73.788 268.904,71.088 266.96,68.64 L268.112,68.244 Z M267.68,48.948 C269.876,55.932 273.728,61.656 279.2,66.048 L278.372,67.02 C272.756,62.484 268.868,56.652 266.636,49.524 L267.68,48.948 Z M289.924,56.544 L296.98,56.544 L296.98,48.48 L298.204,48.48 L298.204,56.544 L309.796,56.544 L309.796,48.624 L311.02,48.624 L311.02,56.544 L318.112,56.544 L318.112,57.768 L311.02,57.768 L311.02,67.812 L319.876,67.812 L319.876,69 L288.124,69 L288.124,67.812 L296.98,67.812 L296.98,57.768 L289.924,57.768 L289.924,56.544 Z M298.204,67.812 L309.796,67.812 L309.796,57.768 L298.204,57.768 L298.204,67.812 Z M299.536,71.304 L300.436,72.132 C297.376,75.588 293.596,78.612 289.06,81.204 L288.268,80.16 C292.732,77.604 296.476,74.652 299.536,71.304 Z M308.716,71.376 C313.108,74.328 316.744,77.28 319.66,80.232 L318.724,81.132 C315.988,78.324 312.352,75.336 307.816,72.168 L308.716,71.376 Z M332.94,60.288 L332.94,67.488 L340.032,67.488 L340.032,60.288 L332.94,60.288 Z M340.032,59.172 L340.032,51.9 L332.94,51.9 L332.94,59.172 L340.032,59.172 Z M332.904,68.676 C332.76,73.86 331.968,78.144 330.528,81.456 L329.592,80.592 C331.032,77.136 331.788,72.708 331.824,67.38 L331.824,50.712 L341.22,50.712 L341.22,78.72 C341.22,80.448 340.356,81.348 338.664,81.348 L335.784,81.348 L335.496,80.196 C336.504,80.232 337.44,80.268 338.304,80.268 C339.456,80.268 340.032,79.584 340.032,78.288 L340.032,68.676 L332.904,68.676 Z M346.332,65.112 L346.332,81.456 L345.144,81.456 L345.144,50.676 L358.824,50.676 C358.824,54.744 358.608,57.444 358.176,58.74 C357.816,60.144 356.484,60.864 354.216,60.864 L351.516,60.864 L351.192,59.748 C351.804,59.748 352.632,59.784 353.64,59.784 C354.648,59.784 355.404,59.676 355.908,59.532 C356.412,59.388 356.772,58.992 357.024,58.38 C357.384,57.3 357.564,55.14 357.6,51.864 L346.332,51.864 L346.332,63.996 L358.752,63.996 L358.752,65.076 C357.924,69.144 356.556,72.528 354.648,75.264 C356.52,77.136 358.752,78.792 361.38,80.232 L360.768,81.276 C358.032,79.764 355.764,78.072 353.928,76.2 C352.236,78.324 350.22,80.016 347.844,81.312 L347.196,80.304 C349.536,79.008 351.516,77.352 353.136,75.336 C350.472,72.384 348.708,68.964 347.844,65.112 L346.332,65.112 Z M348.96,65.112 C349.788,68.604 351.408,71.7 353.82,74.4 C355.584,71.808 356.844,68.712 357.6,65.112 L348.96,65.112 Z M381.14,48.696 L382.4,48.84 C381.896,49.992 381.32,51.072 380.672,52.08 L396.872,52.08 L396.872,53.088 C394.352,56.004 391.256,58.452 387.548,60.396 C391.868,62.52 396.764,63.888 402.272,64.536 L401.696,65.724 C395.9,65.004 390.752,63.456 386.216,61.08 C381.68,63.24 376.388,64.788 370.304,65.724 L369.764,64.572 C375.596,63.744 380.636,62.34 384.956,60.396 C382.4,58.956 380.06,57.228 377.972,55.284 C376.46,56.724 374.732,58.056 372.716,59.244 L371.96,58.272 C376.496,55.68 379.556,52.476 381.14,48.696 Z M386.288,59.784 C389.78,58.02 392.732,55.824 395.18,53.232 L379.844,53.232 C379.484,53.664 379.16,54.06 378.836,54.42 C381.068,56.508 383.552,58.308 386.288,59.784 Z M384.632,64.356 L385.82,64.356 C385.82,66.084 385.64,67.668 385.352,69.108 L398.42,69.108 C398.348,74.832 397.808,78.252 396.728,79.368 C395.648,80.52 393.812,81.096 391.184,81.096 C390.176,81.096 388.916,81.06 387.44,81.024 L387.116,79.872 C388.628,79.908 389.888,79.944 390.896,79.98 C393.56,79.944 395.252,79.404 395.936,78.36 C396.584,77.28 397.016,74.58 397.16,70.224 L385.064,70.224 C384.74,71.376 384.308,72.456 383.804,73.428 C381.824,76.704 377.576,79.368 371.096,81.42 L370.268,80.412 C376.244,78.612 380.24,76.308 382.328,73.428 C382.94,72.42 383.444,71.376 383.804,70.224 L372.176,70.224 L372.176,69.108 L384.092,69.108 C384.452,67.632 384.632,66.048 384.632,64.356 Z M412.672,50.784 L441.4,50.784 L441.4,52.008 L427.468,52.008 L427.468,66.984 L442.768,66.984 L442.768,68.172 L427.468,68.172 L427.468,81.42 L426.244,81.42 L426.244,68.172 L411.232,68.172 L411.232,66.984 L426.244,66.984 L426.244,52.008 L412.672,52.008 L412.672,50.784 Z M416.02,55.284 C417.46,57.876 418.828,60.72 420.088,63.78 L418.936,64.32 C417.676,61.152 416.344,58.308 414.904,55.86 L416.02,55.284 Z M438.016,55.032 L439.168,55.536 C437.98,58.524 436.432,61.44 434.524,64.284 L433.444,63.708 C435.388,60.792 436.9,57.912 438.016,55.032 Z M479.556,66.948 L479.556,81.456 L478.332,81.456 L478.332,79.152 L457.668,79.152 L457.668,81.456 L456.444,81.456 L456.444,66.948 L479.556,66.948 Z M457.668,77.928 L478.332,77.928 L478.332,68.136 L457.668,68.136 L457.668,77.928 Z M453.528,62.628 L453.276,61.476 C457.164,59.604 461.304,55.356 465.732,48.768 L466.92,49.2 C463.104,54.816 459.36,58.848 455.688,61.368 C464.112,61.044 471.744,60.54 478.512,59.82 C476.784,57.48 475.02,55.32 473.22,53.376 L474.336,52.8 C477.648,56.472 480.708,60.468 483.516,64.788 L482.364,65.364 C481.356,63.816 480.384,62.34 479.376,60.972 C471.708,61.692 463.104,62.232 453.528,62.628 Z" id="政府智慧旅游公共服务平台" fill="#333333"></path>
        </g>
    </g>
</svg>