<?xml version="1.0" encoding="UTF-8"?>
<svg width="557px" height="155px" viewBox="0 0 557 155" version="1.1" xmlns="http://www.w3.org/2000/svg" xmlns:xlink="http://www.w3.org/1999/xlink">
    <!-- Generator: Sketch 48.2 (47327) - http://www.bohemiancoding.com/sketch -->
    <title>全域旅游智慧解决方案@2x</title>
    <desc>Created with Sketch.</desc>
    <defs>
        <path d="M148.866,17.026 L148.866,81.396 L147.144,81.396 L147.144,75.902 L135.008,75.902 L135.008,81.396 L133.286,81.396 L133.286,17.026 L148.866,17.026 Z M135.008,74.18 L147.144,74.18 L147.144,18.83 L135.008,18.83 L135.008,74.18 Z M110.818,23.668 C109.342,29.572 107.456,34.574 105.078,38.756 L103.52,37.69 C107.784,30.556 110.408,20.716 111.556,8.252 L113.36,8.498 C112.868,13.418 112.13,17.928 111.228,21.946 L128.284,21.946 L128.284,23.668 L119.428,23.668 C119.346,31.786 119.018,39.084 118.444,45.48 L128.94,45.48 L128.94,47.284 L118.28,47.284 C118.034,49.416 117.788,51.384 117.542,53.188 C121.56,60.076 125.578,67.948 129.678,76.804 L128.612,78.444 C124.102,68.604 120.33,60.896 117.214,55.484 C115.164,66.964 110.982,76.23 104.586,83.282 L103.438,81.806 C109.342,75.328 113.278,66.718 115.41,56.058 C115.82,53.27 116.23,50.4 116.558,47.284 L105.816,47.284 L105.816,45.48 L116.722,45.48 C117.214,38.92 117.542,31.704 117.624,23.668 L110.818,23.668 Z M80.478,22.11 L89.416,22.11 L89.416,8.252 L91.22,8.252 L91.22,22.11 L99.994,22.11 L99.994,52.696 L91.22,52.696 L91.22,73.934 C94.828,72.622 98.354,71.146 101.634,69.506 C100.322,65.734 98.928,62.044 97.288,58.436 L98.846,57.944 C101.388,63.438 103.684,69.752 105.652,76.804 L104.012,77.214 C103.438,75.082 102.782,73.032 102.126,71.064 C94.582,74.672 86.382,77.624 77.608,79.92 L77.198,78.198 C81.38,77.132 85.48,75.902 89.416,74.59 L89.416,52.696 L80.478,52.696 L80.478,22.11 Z M98.272,50.892 L98.272,23.832 L91.22,23.832 L91.22,50.892 L98.272,50.892 Z M89.416,50.892 L89.416,23.832 L82.282,23.832 L82.282,50.892 L89.416,50.892 Z M173.712,8.17 L175.434,8.17 L175.434,23.914 L186.258,23.914 L186.258,53.762 L175.434,53.762 L175.434,73.36 C179.042,72.212 182.568,71.064 186.012,69.752 C185.028,66.636 183.962,63.602 182.814,60.814 L184.454,60.322 C186.586,65.488 188.472,71.474 190.112,78.198 L188.472,78.69 C187.816,76.148 187.16,73.688 186.504,71.392 C178.304,74.508 169.612,77.05 160.264,79.018 L159.854,77.378 C164.61,76.394 169.284,75.246 173.712,73.934 L173.712,53.762 L163.052,53.762 L163.052,23.914 L173.712,23.914 L173.712,8.17 Z M173.712,25.718 L164.774,25.718 L164.774,51.958 L173.712,51.958 L173.712,25.718 Z M175.434,51.958 L184.536,51.958 L184.536,25.718 L175.434,25.718 L175.434,51.958 Z M199.132,24.98 C197.656,29.572 196.016,33.754 194.212,37.526 L192.654,36.624 C196.262,29.408 198.968,21.044 200.772,11.45 L202.494,11.778 C201.674,15.878 200.69,19.65 199.706,23.176 L212.17,23.176 L212.17,8.17 L213.892,8.17 L213.892,23.176 L230.292,23.176 L230.292,24.98 L213.892,24.98 L213.892,42.118 L232.916,42.118 L232.916,43.84 L216.926,43.84 C220.288,55.484 226.438,65.816 235.458,74.918 L234.31,76.312 C225.044,66.636 218.73,55.812 215.45,43.84 L213.892,43.84 L213.892,82.79 L212.17,82.79 L212.17,43.84 L210.612,43.84 C206.84,57.206 200.116,68.112 190.522,76.558 L189.62,75 C198.804,67.128 205.282,56.714 208.972,43.84 L191.342,43.84 L191.342,42.118 L212.17,42.118 L212.17,24.98 L199.132,24.98 Z M252.35,17.682 C250.382,21.29 248.168,24.324 245.626,26.784 L244.56,25.554 C248.824,21.372 252.186,15.632 254.482,8.334 L256.204,8.662 C255.302,11.286 254.318,13.746 253.252,15.96 L279,15.96 L279,17.682 L265.306,17.682 C265.224,21.946 264.814,25.882 264.158,29.326 L281.214,29.326 L281.214,31.048 L263.83,31.048 C263.42,32.688 263.01,34.164 262.518,35.558 C269.078,39.002 274.572,42.446 279,45.89 L277.688,47.202 C273.588,43.922 268.34,40.478 261.862,36.952 C258.746,43.512 252.842,48.842 243.986,52.942 L242.838,51.466 C251.366,47.694 257.188,42.61 260.14,36.378 C260.796,34.656 261.37,32.852 261.862,31.048 L243.166,31.048 L243.166,29.326 L262.272,29.326 C263.01,25.718 263.42,21.782 263.502,17.682 L252.35,17.682 Z M286.544,14.484 L309.996,14.484 L309.996,42.364 L286.544,42.364 L286.544,14.484 Z M308.192,40.56 L308.192,16.206 L288.266,16.206 L288.266,40.56 L308.192,40.56 Z M304.338,51.056 L304.338,82.79 L302.534,82.79 L302.534,78.034 L257.762,78.034 L257.762,82.79 L256.04,82.79 L256.04,51.056 L304.338,51.056 Z M257.762,76.312 L302.534,76.312 L302.534,65.652 L257.762,65.652 L257.762,76.312 Z M257.762,63.93 L302.534,63.93 L302.534,52.86 L257.762,52.86 L257.762,63.93 Z M374.366,23.258 C372.152,29.08 369.446,34 366.248,37.936 L365.182,36.706 C370.758,29.49 374.612,19.814 376.58,7.514 L378.384,7.842 C377.482,12.926 376.334,17.436 375.022,21.454 L397.982,21.454 L397.982,23.258 L374.366,23.258 Z M326.806,11.04 C331.398,14.402 335.17,17.764 338.286,21.044 L336.974,22.356 C334.022,19.076 330.25,15.714 325.494,12.27 L326.806,11.04 Z M326.478,31.458 C331.234,35.066 335.17,38.756 338.286,42.528 L336.974,43.84 C333.94,40.232 330.004,36.542 325.166,32.688 L326.478,31.458 Z M335.99,53.106 L337.548,53.68 C334.104,63.602 330.332,72.95 326.232,81.642 L324.592,80.986 C329.02,71.884 332.792,62.618 335.99,53.106 Z M348.782,24.57 L340.992,24.57 L340.992,22.848 L354.44,22.848 C353.128,17.354 351.652,12.516 350.094,8.252 L351.898,7.924 C353.374,12.27 354.85,17.272 356.162,22.848 L366.576,22.848 L366.576,24.57 L350.504,24.57 L350.504,32.114 C350.504,34.902 350.422,37.69 350.258,40.314 L364.526,40.314 C364.526,57.616 364.116,68.358 363.296,72.458 C362.886,78.198 360.672,81.15 356.736,81.15 C355.588,81.15 353.538,81.068 350.668,81.068 L350.258,79.428 C352.8,79.428 355.014,79.51 356.9,79.51 C359.524,79.51 361.082,77.214 361.574,72.704 C362.23,68.85 362.64,58.682 362.722,42.118 L350.176,42.118 C349.028,60.076 345.338,73.524 339.024,82.544 L337.794,81.396 C345.01,71.146 348.618,54.746 348.782,32.114 L348.782,24.57 Z M374.284,35.804 L394.948,35.804 L394.948,37.526 C392.078,41.298 388.88,44.988 385.436,48.596 L385.436,56.304 L398.228,56.304 L398.228,58.026 L385.436,58.026 L385.436,76.476 C385.436,79.756 383.714,81.478 380.27,81.478 L373.792,81.478 L373.382,79.674 C375.35,79.674 377.4,79.756 379.696,79.756 C382.32,79.756 383.632,78.444 383.632,75.82 L383.632,58.026 L369.2,58.026 L369.2,56.304 L383.632,56.304 L383.632,48.104 C388.224,43.43 391.258,39.904 392.898,37.526 L374.284,37.526 L374.284,35.804 Z M437.67,15.304 L475.308,15.304 L475.308,17.026 L437.67,17.026 L437.67,15.304 Z M435.046,36.87 L479.162,36.87 L479.162,38.592 L464.894,38.592 L464.894,76.722 C464.894,80.412 462.762,82.298 458.58,82.298 L446.362,82.298 L446.034,80.576 C450.134,80.658 454.152,80.74 458.006,80.74 C461.368,80.74 463.09,79.264 463.09,76.312 L463.09,38.592 L435.046,38.592 L435.046,36.87 Z M426.846,9.646 L428.404,10.302 C423.484,19.65 416.268,27.604 406.674,34.082 L406.182,32.36 C415.858,25.472 422.746,17.928 426.846,9.646 Z M430.782,28.178 L432.34,28.916 C429.47,34.246 426.026,39.084 422.09,43.512 L422.09,82.708 L420.368,82.708 L420.368,45.398 C416.432,49.498 411.922,53.188 406.92,56.55 L406.428,54.664 C417.908,46.71 426.026,37.854 430.782,28.178 Z" id="path-1"></path>
        <filter x="-4.0%" y="-18.5%" width="108.0%" height="142.2%" filterUnits="objectBoundingBox" id="filter-2">
            <feOffset dx="0" dy="2" in="SourceAlpha" result="shadowOffsetOuter1"></feOffset>
            <feGaussianBlur stdDeviation="5" in="shadowOffsetOuter1" result="shadowBlurOuter1"></feGaussianBlur>
            <feColorMatrix values="0 0 0 0 0   0 0 0 0 0   0 0 0 0 0  0 0 0 0.769474638 0" type="matrix" in="shadowBlurOuter1"></feColorMatrix>
        </filter>
        <path d="M17.616,120.304 L18.384,120.304 C22.48,124.656 27.152,128.112 32.464,130.608 L31.92,131.536 C26.48,128.912 21.84,125.488 18,121.328 C14.448,125.36 9.776,128.88 3.952,131.824 L3.44,130.864 C9.104,128.048 13.84,124.528 17.616,120.304 Z M9.104,130.64 L26.96,130.64 L26.96,131.696 L18.544,131.696 L18.544,138.48 L28.272,138.48 L28.272,139.536 L18.544,139.536 L18.544,146.864 L31.184,146.864 L31.184,147.952 L4.848,147.952 L4.848,146.864 L17.456,146.864 L17.456,139.536 L7.696,139.536 L7.696,138.48 L17.456,138.48 L17.456,131.696 L9.104,131.696 L9.104,130.64 Z M70.4,124.752 L82.144,124.752 C82.112,123.216 82.112,121.616 82.112,119.984 L83.2,119.984 C83.2,121.648 83.2,123.248 83.232,124.752 L87.68,124.752 C87.104,123.344 86.496,122.096 85.824,120.976 L86.848,120.784 C87.488,121.936 88.096,123.28 88.64,124.752 L90.4,124.752 L90.4,125.84 L83.264,125.84 C83.36,132.176 83.68,137.04 84.192,140.368 C85.856,137.296 87.136,133.616 88,129.264 L88.992,129.68 C87.904,134.64 86.4,138.704 84.448,141.904 L84.512,142.192 C85.312,145.904 86.272,147.76 87.392,147.792 C88.192,147.664 88.96,145.904 89.664,142.512 L90.496,143.184 C89.664,146.992 88.64,148.912 87.392,148.912 C86.4,148.912 85.536,148.08 84.768,146.416 C84.32,145.488 83.968,144.4 83.68,143.12 C81.952,145.616 79.904,147.568 77.6,148.912 L76.928,148.08 C79.456,146.608 81.6,144.496 83.392,141.744 C83.2,140.752 83.04,139.696 82.912,138.576 C82.496,135.28 82.24,131.024 82.176,125.84 L70.4,125.84 L70.4,124.752 Z M71.808,129.808 L79.36,129.808 L79.36,138.32 L71.808,138.32 L71.808,129.808 Z M78.304,137.36 L78.304,130.8 L72.832,130.8 L72.832,137.36 L78.304,137.36 Z M80,141.104 L80,142.128 C76.832,143.376 73.376,144.4 69.664,145.2 L69.408,144.176 C73.152,143.44 76.672,142.416 80,141.104 Z M61.92,128.944 L65.504,128.944 L65.504,119.984 L66.56,119.984 L66.56,128.944 L70.048,128.944 L70.048,130.032 L66.56,130.032 L66.56,141.2 C67.776,140.688 68.96,140.112 70.08,139.536 L70.08,140.656 C67.584,142 64.896,143.088 61.984,143.952 L61.696,142.864 C63.008,142.512 64.288,142.096 65.504,141.616 L65.504,130.032 L61.92,130.032 L61.92,128.944 Z M135.28,125.104 C134.224,127.184 133.04,128.88 131.728,130.224 L130.896,129.52 C133.2,127.152 134.96,123.952 136.176,119.856 L137.2,120.272 C136.752,121.648 136.272,122.896 135.792,124.048 L147.472,124.048 L147.472,125.104 L135.28,125.104 Z M147.216,134.416 L147.92,135.216 C146.48,136.816 144.656,138.128 142.48,139.152 C143.888,142.704 145.904,145.648 148.56,148.016 L147.888,148.88 C143.152,144.784 140.336,138.768 139.504,130.864 C138.16,131.12 136.816,131.376 135.472,131.568 L135.472,147.248 C137.552,146.768 139.6,146.192 141.616,145.488 L141.808,146.576 C139.664,147.248 137.136,147.92 134.192,148.624 L133.968,147.6 C134.256,147.504 134.416,147.344 134.416,147.088 L134.416,130.704 C138.32,130.256 142.064,129.36 145.584,127.952 L146.192,128.88 C144.4,129.584 142.48,130.16 140.496,130.64 C140.752,133.392 141.296,135.92 142.096,138.192 C144.144,137.2 145.84,135.952 147.216,134.416 Z M120.08,125.008 L131.504,125.008 L131.504,126.064 L124.24,126.064 L124.24,131.344 L130.64,131.344 C130.64,139.28 130.448,144.144 130.096,145.936 C129.776,147.856 128.432,148.816 126.128,148.816 C125.872,148.816 125.424,148.784 124.816,148.752 L124.528,147.76 C125.072,147.792 125.552,147.824 125.936,147.824 C127.664,147.824 128.688,147.152 129.008,145.872 C129.392,144.272 129.584,139.76 129.584,132.4 L124.208,132.4 C124.016,139.888 122.672,145.424 120.24,149.008 L119.44,148.272 C121.872,144.688 123.12,138.896 123.184,130.928 L123.184,126.064 L120.08,126.064 L120.08,125.008 Z M124.816,119.824 C125.616,121.296 126.256,122.64 126.736,123.856 L125.712,124.208 C125.2,122.8 124.528,121.456 123.76,120.112 L124.816,119.824 Z M197.376,126 C196.544,128.208 195.488,130.064 194.24,131.6 L193.568,130.8 C195.712,128.048 197.152,124.336 197.92,119.664 L199.008,119.856 C198.688,121.712 198.272,123.376 197.76,124.912 L206.496,124.912 L206.496,126 L197.376,126 Z M178.784,120.912 C180.576,122.224 182.048,123.536 183.264,124.816 L182.464,125.616 C181.344,124.336 179.872,123.024 178.016,121.648 L178.784,120.912 Z M178.656,128.88 C180.512,130.288 182.048,131.728 183.264,133.2 L182.496,133.968 C181.344,132.56 179.808,131.12 177.888,129.616 L178.656,128.88 Z M182.016,137.36 L182.976,137.744 C181.696,141.616 180.256,145.232 178.688,148.624 L177.664,148.208 C179.36,144.688 180.8,141.072 182.016,137.36 Z M187.072,126.512 L184.128,126.512 L184.128,125.456 L189.184,125.456 C188.704,123.44 188.16,121.616 187.584,119.984 L188.672,119.792 C189.248,121.424 189.76,123.312 190.24,125.456 L194.24,125.456 L194.24,126.512 L188.128,126.512 L188.128,129.264 C188.128,130.288 188.096,131.312 188.032,132.304 L193.504,132.304 C193.504,139.216 193.344,143.504 193.024,145.168 C192.832,147.344 191.968,148.464 190.368,148.464 C189.92,148.464 189.12,148.432 188,148.432 L187.744,147.44 C188.736,147.44 189.6,147.472 190.336,147.472 C191.296,147.472 191.84,146.64 192,145.008 C192.256,143.6 192.384,139.728 192.416,133.392 L187.968,133.392 C187.52,140.304 186.08,145.52 183.648,149.008 L182.848,148.272 C185.6,144.304 187.008,137.968 187.072,129.264 L187.072,126.512 Z M197.12,130.544 L205.344,130.544 L205.344,131.536 C204.256,133.008 203.04,134.416 201.728,135.76 L201.728,138.512 L206.592,138.512 L206.592,139.536 L201.728,139.536 L201.728,146.384 C201.728,147.856 201.024,148.592 199.616,148.592 L196.992,148.592 L196.736,147.536 C197.504,147.536 198.336,147.568 199.232,147.568 C200.16,147.568 200.64,147.024 200.64,146 L200.64,139.536 L195.2,139.536 L195.2,138.512 L200.64,138.512 L200.64,135.536 C202.304,133.776 203.456,132.432 204.096,131.536 L197.12,131.536 L197.12,130.544 Z M239.696,123.792 C238.928,125.136 238.032,126.288 237.072,127.216 L236.4,126.416 C238.064,124.848 239.344,122.672 240.272,119.888 L241.296,120.112 C240.976,121.072 240.592,121.968 240.208,122.768 L250.064,122.768 L250.064,123.792 L244.848,123.792 C244.784,125.328 244.656,126.704 244.432,127.952 L250.928,127.952 L250.928,129.008 L244.208,129.008 C244.08,129.552 243.92,130.064 243.76,130.544 C246.288,131.856 248.4,133.168 250.128,134.512 L249.328,135.28 C247.792,134.032 245.808,132.72 243.376,131.376 C242.16,133.872 239.856,135.888 236.464,137.456 L235.76,136.528 C239.088,135.056 241.328,133.104 242.48,130.736 C242.704,130.16 242.896,129.584 243.088,129.008 L235.952,129.008 L235.952,127.952 L243.344,127.952 C243.6,126.672 243.728,125.264 243.76,123.792 L239.696,123.792 Z M252.816,122.288 L262.32,122.288 L262.32,133.392 L252.816,133.392 L252.816,122.288 Z M261.232,132.336 L261.232,123.312 L253.872,123.312 L253.872,132.336 L261.232,132.336 Z M260.08,136.496 L260.08,149.104 L258.96,149.104 L258.96,147.344 L241.904,147.344 L241.904,149.104 L240.816,149.104 L240.816,136.496 L260.08,136.496 Z M241.904,146.32 L258.96,146.32 L258.96,142.512 L241.904,142.512 L241.904,146.32 Z M241.904,141.52 L258.96,141.52 L258.96,137.552 L241.904,137.552 L241.904,141.52 Z M318.112,140.752 L296.384,140.752 L296.384,139.824 L317.024,139.824 L317.024,136.912 L297.6,136.912 L297.6,136.016 L317.024,136.016 L317.024,133.232 L296.736,133.232 L296.736,132.304 L300.896,132.304 L300.896,129.936 L294.656,129.936 L294.656,128.976 L300.896,128.976 L300.896,126.448 L295.968,126.448 L295.968,125.52 L300.896,125.52 L300.896,122.992 L295.168,122.992 L295.168,122.032 L300.896,122.032 L300.896,120.016 L301.984,120.016 L301.984,122.032 L307.104,122.032 L307.104,122.992 L301.984,122.992 L301.984,125.52 L306.752,125.52 L306.752,126.448 L301.984,126.448 L301.984,128.976 L307.136,128.976 L307.136,129.936 L301.984,129.936 L301.984,132.304 L314.08,132.304 L314.08,129.936 L308.576,129.936 L308.576,128.976 L314.08,128.976 L314.08,126.448 L309.248,126.448 L309.248,125.52 L314.08,125.52 L314.08,122.992 L308.704,122.992 L308.704,122.032 L314.08,122.032 L314.08,120.016 L315.168,120.016 L315.168,122.032 L320.768,122.032 L320.768,122.992 L315.168,122.992 L315.168,125.52 L320.096,125.52 L320.096,126.448 L315.168,126.448 L315.168,128.976 L321.216,128.976 L321.216,129.936 L315.168,129.936 L315.168,132.304 L318.112,132.304 L318.112,140.752 Z M297.408,142.384 L298.4,142.576 C297.632,144.816 296.512,146.736 295.072,148.4 L294.144,147.824 C295.616,146.256 296.704,144.432 297.408,142.384 Z M312.512,148.56 L303.808,148.56 C302.24,148.56 301.472,147.92 301.472,146.64 L301.472,142.192 L302.528,142.192 L302.528,146.416 C302.528,147.184 303.04,147.568 304.096,147.568 L312.288,147.568 C313.12,147.568 313.664,147.408 313.952,147.152 C314.4,146.736 314.72,145.552 314.848,143.632 L315.872,143.952 C315.712,146.064 315.328,147.408 314.752,147.984 C314.304,148.368 313.536,148.56 312.512,148.56 Z M307.392,141.168 C308.896,142.448 310.048,143.6 310.848,144.592 L310.016,145.2 C309.184,144.112 308.032,142.96 306.592,141.68 L307.392,141.168 Z M318.144,142.032 C320,144.016 321.408,145.776 322.368,147.248 L321.568,147.856 C320.544,146.256 319.136,144.496 317.344,142.544 L318.144,142.032 Z M368.688,136.496 C368.112,137.808 367.408,138.928 366.576,139.824 L365.904,139.024 C367.344,137.424 368.336,135.248 368.88,132.496 L369.84,132.688 C369.648,133.712 369.392,134.64 369.104,135.472 L373.104,135.472 L373.104,132.144 L374.16,132.144 L374.16,135.472 L379.536,135.472 L379.536,136.496 L374.16,136.496 L374.16,141.456 L380.208,141.456 L380.208,142.512 L374.16,142.512 L374.16,149.136 L373.104,149.136 L373.104,142.512 L365.904,142.512 L365.904,141.456 L373.104,141.456 L373.104,136.496 L368.688,136.496 Z M370.96,123.28 L366.192,123.28 L366.192,122.32 L378.896,122.32 C378.864,126.32 378.608,128.72 378.128,129.488 C377.648,130.256 376.816,130.672 375.6,130.672 C374.832,130.672 373.936,130.64 372.912,130.64 L372.624,129.616 C373.712,129.68 374.608,129.712 375.344,129.712 C376.4,129.68 377.072,129.328 377.36,128.656 C377.616,127.952 377.776,126.16 377.84,123.28 L372.016,123.28 C371.728,124.976 371.248,126.416 370.544,127.568 C369.712,128.88 368.528,130.064 366.928,131.12 L366.32,130.256 C367.888,129.264 369.04,128.112 369.808,126.768 C370.384,125.712 370.768,124.56 370.96,123.28 Z M354.704,134.928 L354.704,138.864 C354.704,139.248 354.672,139.664 354.672,140.048 L358.64,140.048 L358.64,134.928 L354.704,134.928 Z M354.608,141.04 C354.352,144.368 353.616,147.12 352.336,149.296 L351.568,148.56 C352.912,146.032 353.616,142.832 353.68,138.928 L353.68,127.952 L358.992,127.952 C359.952,126.672 360.848,125.264 361.648,123.696 L356.208,123.696 C355.184,125.744 353.936,127.536 352.464,129.136 L351.792,128.336 C353.904,126 355.536,123.152 356.688,119.824 L357.712,120.08 C357.392,120.976 357.04,121.872 356.656,122.704 L362.832,122.704 L362.832,123.536 C361.936,125.328 361.072,126.8 360.208,127.952 L364.656,127.952 L364.656,146.864 C364.656,148.176 364.048,148.848 362.832,148.848 L360.592,148.848 L360.336,147.856 C361.104,147.888 361.84,147.92 362.48,147.92 C363.248,147.92 363.664,147.44 363.664,146.512 L363.664,141.04 L359.632,141.04 L359.632,148.752 L358.64,148.752 L358.64,141.04 L354.608,141.04 Z M363.664,140.048 L363.664,134.928 L359.632,134.928 L359.632,140.048 L363.664,140.048 Z M363.664,133.904 L363.664,128.944 L359.632,128.944 L359.632,133.904 L363.664,133.904 Z M358.64,128.944 L354.704,128.944 L354.704,133.904 L358.64,133.904 L358.64,128.944 Z M419.616,125.168 L426.496,125.168 L426.496,120.048 L427.552,120.048 L427.552,125.168 L435.008,125.168 L435.008,134.672 L438.144,134.672 L438.144,135.728 L427.904,135.728 C430.048,140.912 433.6,145.04 438.592,148.08 L437.888,148.88 C432.64,145.488 428.992,141.136 426.912,135.76 C425.568,141.872 422.112,146.288 416.544,149.008 L415.872,148.112 C421.216,145.648 424.544,141.52 425.824,135.728 L418.304,135.728 L418.304,134.672 L426.048,134.672 C426.304,133.072 426.464,131.44 426.496,129.712 L426.496,126.224 L419.616,126.224 L419.616,125.168 Z M427.552,126.224 L427.552,129.488 C427.552,131.344 427.392,133.072 427.136,134.672 L433.92,134.672 L433.92,126.224 L427.552,126.224 Z M410.976,121.424 C413.28,124.144 415.04,126.512 416.288,128.496 L415.392,129.136 C414.112,126.992 412.32,124.592 410.08,121.968 L410.976,121.424 Z M415.68,134.512 L416.64,134.896 C414.912,139.6 412.96,144.016 410.848,148.144 L409.824,147.696 C412.064,143.408 414.016,138.992 415.68,134.512 Z M468.464,125.104 L482.672,125.104 C482,123.408 481.136,121.808 480.08,120.336 L481.136,119.952 C482.096,121.36 482.992,123.056 483.824,125.104 L495.952,125.104 L495.952,126.192 L478.768,126.192 C478.704,127.536 478.608,129.616 478.448,132.464 L478.384,133.072 L491.792,133.072 C491.76,138.512 491.6,142.192 491.344,144.048 C490.832,147.056 489.328,148.656 486.8,148.784 C485.776,148.784 484.528,148.752 483.088,148.688 L482.736,147.696 C484.304,147.728 485.616,147.76 486.672,147.76 C488.752,147.664 490,146.224 490.384,143.44 C490.576,141.712 490.672,138.608 490.672,134.128 L478.256,134.128 C477.904,136.912 477.136,139.44 475.952,141.68 C474.352,144.336 472.176,146.768 469.424,149.008 L468.624,148.272 C472.016,145.392 474.32,142.672 475.536,140.112 C476.624,137.584 477.264,134.768 477.456,131.664 C477.584,129.072 477.648,127.248 477.68,126.192 L468.464,126.192 L468.464,125.104 Z M538.016,125.008 L539.04,125.328 C538.304,126.352 537.632,127.312 537.024,128.176 L552.64,128.176 L552.64,129.136 L547.072,129.136 C545.728,131.024 544.224,132.496 542.56,133.584 C545.632,134.416 548.832,135.376 552.096,136.528 L551.456,137.392 C548.096,136.176 544.736,135.152 541.376,134.256 C538.016,135.92 533.536,136.752 527.904,136.816 L527.296,135.92 C532.544,135.92 536.768,135.216 539.968,133.872 C537.536,133.232 535.072,132.656 532.608,132.208 C533.44,131.184 534.272,130.16 535.072,129.136 L527.424,129.136 L527.424,128.176 L535.776,128.176 C536.544,127.12 537.312,126.064 538.016,125.008 Z M541.248,133.232 C543.232,132.08 544.8,130.704 545.92,129.136 L536.32,129.136 C535.552,130.096 534.88,130.928 534.24,131.664 C536.512,132.08 538.848,132.592 541.248,133.232 Z M552.576,122.896 L552.576,126.896 L551.52,126.896 L551.52,123.888 L528.48,123.888 L528.48,126.896 L527.424,126.896 L527.424,122.896 L539.808,122.896 C539.36,121.872 538.88,120.976 538.336,120.144 L539.52,119.952 C540,120.784 540.448,121.776 540.896,122.896 L552.576,122.896 Z M526.432,139.408 L539.52,139.408 L539.52,136.56 L540.608,136.56 L540.608,139.408 L553.6,139.408 L553.6,140.432 L541.952,140.432 C544.352,143.152 548.32,145.296 553.856,146.832 L553.408,147.76 C547.392,145.904 543.232,143.472 540.928,140.432 L540.608,140.432 L540.608,149.04 L539.52,149.04 L539.52,140.432 L539.2,140.432 C537.216,143.376 533.088,145.904 526.88,148.016 L526.272,147.024 C532.288,145.136 536.288,142.928 538.208,140.432 L526.432,140.432 L526.432,139.408 Z" id="path-3"></path>
        <filter x="-1.3%" y="-16.9%" width="102.5%" height="147.2%" filterUnits="objectBoundingBox" id="filter-4">
            <feOffset dx="0" dy="2" in="SourceAlpha" result="shadowOffsetOuter1"></feOffset>
            <feGaussianBlur stdDeviation="2" in="shadowOffsetOuter1" result="shadowBlurOuter1"></feGaussianBlur>
            <feColorMatrix values="0 0 0 0 0   0 0 0 0 0   0 0 0 0 0  0 0 0 0.718240489 0" type="matrix" in="shadowBlurOuter1"></feColorMatrix>
        </filter>
    </defs>
    <g id="智慧旅游-copy" stroke="none" stroke-width="1" fill="none" fill-rule="evenodd" transform="translate(-441.000000, -264.000000)">
        <g id="Group-14" transform="translate(441.000000, 264.000000)">
            <g id="蜘蛛智游行">
                <use fill="black" fill-opacity="1" filter="url(#filter-2)" xlink:href="#path-1"></use>
                <use fill="#FFFFFF" fill-rule="evenodd" xlink:href="#path-1"></use>
            </g>
            <g id="全域旅游智慧解决方案">
                <use fill="black" fill-opacity="1" filter="url(#filter-4)" xlink:href="#path-3"></use>
                <use fill="#FFFFFF" fill-rule="evenodd" xlink:href="#path-3"></use>
            </g>
        </g>
    </g>
</svg>