<?xml version="1.0" encoding="UTF-8"?>
<svg width="45px" height="45px" viewBox="0 0 45 45" version="1.1" xmlns="http://www.w3.org/2000/svg" xmlns:xlink="http://www.w3.org/1999/xlink">
    <!-- Generator: Sketch 46.2 (44496) - http://www.bohemiancoding.com/sketch -->
    <title>审批</title>
    <desc>Created with Sketch.</desc>
    <defs></defs>
    <g id="蜘蛛差旅" stroke="none" stroke-width="1" fill="none" fill-rule="evenodd">
        <g id="关于我们-核心业务" transform="translate(-418.000000, -872.000000)" fill-rule="nonzero" fill="#0ABBB9">
            <g id="Group" transform="translate(418.000000, 872.000000)">
                <g id="Page-1-Copy-6">
                    <path d="M12.4944547,38.0258128 L6.04707819,38.0258128 C4.35880825,38.0258128 2.99000514,36.6570096 2.99000514,34.9687397 L2.99000514,6.04518004 C2.99000514,4.35878937 4.35903818,2.99021605 6.04707819,2.99021605 L28.4620988,2.99021605 C30.149544,2.99021605 31.5170628,4.35819428 31.5170628,6.04518004 L31.5170628,13.9984208 C31.5170628,14.7060356 32.0906979,15.2796708 32.7983128,15.2796708 C33.5059276,15.2796708 34.0795628,14.7060356 34.0795628,13.9984208 L34.0795628,6.04518004 C34.0795628,2.9431573 31.5649665,0.427716049 28.4620988,0.427716049 L6.04707819,0.427716049 C2.94400113,0.427716049 0.427505144,2.94336701 0.427505144,6.04518004 L0.427505144,34.9687397 C0.427505144,38.0722393 2.94357858,40.5883128 6.04707819,40.5883128 L12.4944547,40.5883128 C13.2020696,40.5883128 13.7757047,40.0146776 13.7757047,39.3070628 C13.7757047,38.5994479 13.2020696,38.0258128 12.4944547,38.0258128 Z" id="Stroke-1"></path>
                    <path d="M25.9240638,8.71123457 L25.9240638,11.2737346 L6.80760288,11.2737346 L6.80760288,8.71123457 L25.9240638,8.71123457 Z M25.9240638,11.2737346 L6.80760288,11.2737346 C5.09926955,11.2737346 5.09926955,8.71123457 6.80760288,8.71123457 L25.9240638,8.71123457 C27.6323971,8.71123457 27.6323971,11.2737346 25.9240638,11.2737346 Z" id="Stroke-3"></path>
                    <path d="M22.298179,14.4575617 L22.298179,17.0200617 L6.80718107,17.0200617 L6.80718107,14.4575617 L22.298179,14.4575617 Z M22.298179,17.0200617 L6.80718107,17.0200617 C5.09884774,17.0200617 5.09884774,14.4575617 6.80718107,14.4575617 L22.298179,14.4575617 C24.0065123,14.4575617 24.0065123,17.0200617 22.298179,17.0200617 Z" id="Stroke-5"></path>
                    <path d="M18.0790175,20.1914455 L18.0790175,22.7539455 L6.80612654,22.7539455 L6.80612654,20.1914455 L18.0790175,20.1914455 Z M18.0790175,22.7539455 L6.80612654,22.7539455 C5.09779321,22.7539455 5.09779321,20.1914455 6.80612654,20.1914455 L18.0790175,20.1914455 C19.7873508,20.1914455 19.7873508,22.7539455 18.0790175,22.7539455 Z" id="Stroke-7"></path>
                    <path d="M42.107464,31.9253755 C42.107464,26.2256858 37.4886094,21.6068313 31.7889198,21.6068313 C26.0892301,21.6068313 21.4703755,26.2256858 21.4703755,31.9253755 C21.4703755,37.6250652 26.0892301,42.2439198 31.7889198,42.2439198 C37.4886094,42.2439198 42.107464,37.6250652 42.107464,31.9253755 Z M44.669964,31.9253755 C44.669964,39.0402949 38.9038391,44.8064198 31.7889198,44.8064198 C24.6740004,44.8064198 18.9078755,39.0402949 18.9078755,31.9253755 C18.9078755,24.8104562 24.6740004,19.0443313 31.7889198,19.0443313 C38.9038391,19.0443313 44.669964,24.8104562 44.669964,31.9253755 Z" id="Stroke-9"></path>
                    <path d="M26.3312299,30.2204622 C25.8309743,29.7199994 25.0197317,29.7198314 24.5192688,30.220087 C24.0188059,30.7203426 24.0186379,31.5315852 24.5188936,32.0320481 L29.6101487,37.1254123 C30.1105264,37.6259973 30.9220102,37.6260253 31.4224225,37.1254748 L39.0593052,29.486483 C39.5595954,28.9860547 39.5594834,28.1748121 39.0590551,27.6745219 C38.5586267,27.1742318 37.7473841,27.1743438 37.247094,27.6747721 L30.5163794,34.4073454 L26.3312299,30.2204622 Z" id="Stroke-11"></path>
                </g>
            </g>
        </g>
    </g>
</svg>