<?xml version="1.0" encoding="UTF-8"?>
<svg width="54px" height="47px" viewBox="0 0 54 47" version="1.1" xmlns="http://www.w3.org/2000/svg" xmlns:xlink="http://www.w3.org/1999/xlink">
    <!-- Generator: Sketch 46.2 (44496) - http://www.bohemiancoding.com/sketch -->
    <title>分析</title>
    <desc>Created with Sketch.</desc>
    <defs></defs>
    <g id="蜘蛛差旅" stroke="none" stroke-width="1" fill="none" fill-rule="evenodd">
        <g id="关于我们-核心业务" transform="translate(-986.000000, -877.000000)" fill-rule="nonzero" fill="#0ABBB9">
            <g id="Group-3" transform="translate(927.000000, 842.000000)">
                <g id="Group-9" transform="translate(59.000000, 35.000000)">
                    <path d="M44.994243,35.163798 L53.4136801,43.6503439 C54.1908878,44.3898332 54.1908878,45.6460329 53.4406363,46.399741 C52.6917355,47.1817684 51.441238,47.2089077 50.6897532,46.4268214 L42.2139371,37.9260568 C40.5748357,39.294295 38.7409332,40.4255355 36.7402429,41.248744 C34.2099426,42.3104841 31.4590595,42.8966359 28.5556007,42.8966359 C22.316327,42.8966359 16.3695192,40.1175625 12.3117596,35.3016189 C10.2687264,32.901317 13.3684544,30.6544116 15.7026029,33.2363704 C19.0100522,36.8798924 23.6513343,38.9451999 28.5556007,38.9451999 C30.9319747,38.9451999 33.1827293,38.4710865 35.2244706,37.6194407 C37.3507803,36.7407735 39.2680767,35.4562544 40.8660096,33.8509006 L40.8941991,33.8225812 C42.4921908,32.2031267 43.7990086,30.2782361 44.687741,28.1279705 C45.5213864,26.1039031 45.9946175,23.8286193 45.9946175,21.4412971 C45.9946175,19.1106136 45.5341891,16.8777499 44.7148146,14.8383428 L44.6877997,14.7545647 C43.8259648,12.6480761 42.547454,10.7348672 40.9917465,9.15653477 L40.8942579,9.05989495 C39.2680767,7.45454111 37.3507803,6.14300065 35.2245293,5.27589717 C33.1968828,4.39722996 30.9320922,3.93721732 28.5556595,3.93721732 C21.4558428,3.93721732 15.342306,8.29190925 12.6452765,14.3911919 C12.3118771,15.1178195 11.6449608,15.5507518 10.852425,15.5507518 L10.8396223,15.5507518 C10.1445164,15.5507518 9.5752062,15.2144593 9.19934634,14.6578659 C8.82483722,14.0845758 8.78249426,13.4145869 9.06074801,12.7716784 C12.4234018,5.19347603 20.0938794,0 28.5556595,0 C31.43087,0 34.1971986,0.586210797 36.7403016,1.64653492 C39.3527039,2.72231669 41.7138085,4.32767053 43.6592357,6.28088054 L43.7695271,6.37999831 C45.6881742,8.347368 47.2168668,10.6651898 48.286423,13.2341689 L48.3274739,13.3449684 C49.3560379,15.8586068 49.9125455,18.5654659 49.9125455,21.4411791 C49.9125455,24.3438547 49.3277897,27.1087094 48.2863643,29.6210499 C47.466931,31.6309576 46.3550318,33.5016875 44.9943017,35.163739 L44.994243,35.163798 Z M1.16839562,26.9271705 C0.515574022,26.9271705 0,26.4092212 0,25.7405893 C0,25.0976807 0.515574022,24.554008 1.16833689,24.554008 L9.81094081,24.554008 L14.9805996,15.8149478 C15.1374847,15.5429075 15.3964039,15.3454275 15.6993939,15.2667168 C16.0023839,15.188006 16.3241383,15.2346387 16.5926273,15.3961752 C16.7592977,15.495352 16.8837425,15.6332319 16.9811724,15.7878084 L22.0110583,23.8981788 L24.5118772,21.2454215 C24.9569187,20.7854679 25.7071115,20.7570895 26.1791093,21.2183411 C26.276598,21.3303796 26.3740866,21.4412971 26.4304656,21.5817139 L29.3467858,27.485062 L32.9467011,12.1726648 C33.0992767,11.5296973 33.7380035,11.1535218 34.3780224,11.3067413 C34.5857437,11.3622001 34.7665675,11.4601379 34.9191431,11.6147734 L40.2413775,17.0298484 C40.6851271,17.4756424 40.6851271,18.2305894 40.2272828,18.7060007 C39.7694385,19.1388739 39.0178949,19.1388739 38.5600507,18.6762654 L34.7395526,14.7957458 L30.8613835,31.1981433 C30.7922018,31.5330788 30.5562323,31.8397539 30.2356356,31.9660111 C29.6519957,32.2881438 28.9581819,32.0497302 28.6812202,31.4648763 L25.0685021,24.1069751 L22.7062229,26.5909371 C22.622829,26.6900549 22.5382018,26.772653 22.4278517,26.816489 C21.8725775,27.1643452 21.1634356,26.9981459 20.8158827,26.4531162 L16.0078716,18.7060007 L11.5051291,26.2984217 C11.3127359,26.6899959 10.9228987,26.9271115 10.4778572,26.9271115 L1.16833689,26.9271115 L1.16833689,26.9271705 L1.16839562,26.9271705 Z" id="Shape"></path>
                </g>
            </g>
        </g>
    </g>
</svg>