<?xml version="1.0" encoding="UTF-8"?>
<svg width="45px" height="46px" viewBox="0 0 45 46" version="1.1" xmlns="http://www.w3.org/2000/svg" xmlns:xlink="http://www.w3.org/1999/xlink">
    <!-- Generator: Sketch 46.2 (44496) - http://www.bohemiancoding.com/sketch -->
    <title>预订</title>
    <desc>Created with Sketch.</desc>
    <defs></defs>
    <g id="蜘蛛差旅" stroke="none" stroke-width="1" fill="none" fill-rule="evenodd">
        <g id="关于我们-核心业务" transform="translate(-609.000000, -872.000000)" fill-rule="nonzero" fill="#0ABBB9">
            <g id="Group-6" transform="translate(545.000000, 842.000000)">
                <g id="Group-22" transform="translate(64.000000, 30.000000)">
                    <path d="M32.5134815,45.1872764 C32.0584968,45.1874174 31.6566876,44.8885029 31.523038,44.4504641 L25.6703455,25.2677198 L18.6818955,31.2319626 L18.7666183,41.6054548 C18.7688672,41.8819128 18.6620735,42.1479658 18.469695,42.3451731 L16.7395664,44.1189118 C16.4929971,44.3718775 16.1357388,44.4813882 15.7910562,44.4096595 C15.4463737,44.3379309 15.1614599,44.0947838 15.0346186,43.7641112 L11.2900285,34.0146243 L1.23975449,29.6664017 C0.926382096,29.5306145 0.699430558,29.2481936 0.632879757,28.9112005 C0.566328957,28.5742073 0.668704163,28.2258113 0.90663391,27.9795798 L2.62994272,26.1997648 C2.83733597,25.9857881 3.12579815,25.8715358 3.42235002,25.8859129 L13.9639113,26.4058292 L19.9013266,19.0688806 L0.722761843,12.93371 C0.379779731,12.8242447 0.117790728,12.5433213 0.0307679358,12.1917045 C-0.0562548561,11.8400876 0.0441621533,11.4681771 0.296000284,11.2093738 L3.58812341,7.82278502 C3.80857384,7.59651932 4.11899797,7.48313556 4.43220374,7.51448101 L28.0827155,9.91275335 L34.7847343,3.14697292 C37.4538957,0.426923123 40.0128913,0 41.3005204,0 L41.3194059,0 C42.5152301,0 43.5717732,0.356121516 44.149357,0.938121293 C45.5440044,2.34279347 45.4750196,6.35021727 41.7175768,10.2112825 C41.7146915,10.2139244 41.7120685,10.2192081 41.7097078,10.2218499 L34.9486716,17.0203893 L36.8403768,40.6728814 C36.8645319,40.9742139 36.7578531,41.2713032 36.5479127,41.487364 L33.2534289,44.8736887 C33.0586256,45.0740978 32.7919431,45.1871171 32.5134815,45.1872764 L32.5134815,45.1872764 Z M26.1996662,22.4052742 C26.6543602,22.4054812 27.0557587,22.7043276 27.1893229,23.1420865 L32.9916538,42.1607719 L34.7367335,40.3672192 L32.8445037,16.7078583 C32.8199541,16.4026455 32.9298785,16.1019966 33.1450991,15.8857143 L40.2418789,8.75113146 C41.9832864,6.96048485 42.5960184,5.38911187 42.8037598,4.38626523 C43.0597642,3.14987896 42.7691362,2.5142496 42.6836265,2.42284156 C42.3025051,2.0445285 39.4096021,1.41022007 36.2551863,4.62667367 C36.2537623,4.62814795 36.2522745,4.6295583 36.2507272,4.63090063 L29.2006367,11.7380082 C28.9807973,11.9596734 28.6736682,12.0700607 28.3641631,12.0386509 L4.72020877,9.64090688 L2.95414511,11.4577078 L21.9803138,17.5432116 C22.3073018,17.6476284 22.5617331,17.9083565 22.6597379,18.2394504 C22.7577427,18.5705443 22.6866014,18.9290332 22.469765,19.1967462 L15.2392123,28.1317505 C15.0312087,28.3890667 14.714613,28.5304058 14.3854269,28.5148189 L3.78747115,27.9922607 L3.44307169,28.3478539 L12.5078859,32.2696817 C12.763792,32.3804828 12.9646726,32.590329 13.0652727,32.8519457 L16.3875603,41.5024226 L16.6915656,41.19042 L16.6065805,30.7603922 C16.6038609,30.4507577 16.738051,30.1559542 16.9727508,29.9559486 L25.5300152,22.6522873 C25.7172132,22.4927927 25.9544728,22.4052751 26.1996662,22.4052742 Z" id="Shape"></path>
                </g>
            </g>
        </g>
    </g>
</svg>