<?xml version="1.0" encoding="UTF-8"?>
<svg width="53px" height="42px" viewBox="0 0 53 42" version="1.1" xmlns="http://www.w3.org/2000/svg" xmlns:xlink="http://www.w3.org/1999/xlink">
    <!-- Generator: Sketch 46.2 (44496) - http://www.bohemiancoding.com/sketch -->
    <title>管理</title>
    <desc>Created with Sketch.</desc>
    <defs></defs>
    <g id="蜘蛛差旅" stroke="none" stroke-width="1" fill="none" fill-rule="evenodd">
        <g id="关于我们-核心业务" transform="translate(-796.000000, -876.000000)" fill-rule="nonzero" fill="#0ABBB9">
            <g id="Group-4" transform="translate(736.000000, 842.000000)">
                <g id="Group-5" transform="translate(60.000000, 34.000000)">
                    <g id="Page-1">
                        <path d="M16.7289295,23.3203915 C11.2469952,23.3203915 6.80386507,18.7909623 6.80386507,13.207751 C6.80386507,7.62310451 11.2461888,3.09511063 16.7289295,3.09511063 C20.3128259,3.09511063 23.5636238,5.04711138 25.326514,8.150104 C25.7067419,8.81937095 26.5456302,9.04677393 27.2002235,8.65802277 C27.8548169,8.2692716 28.077234,7.41157844 27.6970062,6.74231148 C25.4479966,2.78366438 21.298926,0.292279488 16.7289295,0.292279488 C9.73404608,0.292279488 4.06248576,6.07321572 4.06248576,13.207751 C4.06248576,20.3407658 9.73476957,26.1232226 16.7289295,26.1232226 C17.4859405,26.1232226 18.0996192,25.4957875 18.0996192,24.721807 C18.0996192,23.9478266 17.4859405,23.3203915 16.7289295,23.3203915 Z M3.03935532,40.0738817 C3.03935532,32.3697495 9.16769725,26.1232226 16.7289295,26.1232226 C17.4859405,26.1232226 18.0996192,25.4957875 18.0996192,24.721807 C18.0996192,23.9478266 17.4859405,23.3203915 16.7289295,23.3203915 C7.6555545,23.3203915 0.297976012,30.8198607 0.297976012,40.0738817 C0.297976012,40.8478621 0.911654674,41.4752973 1.66866567,41.4752973 C2.42567666,41.4752973 3.03935532,40.8478621 3.03935532,40.0738817 Z" id="Stroke-1"></path>
                        <path d="M39.1596426,25.1946114 C39.159642,23.5259463 37.825096,22.1693554 36.1705208,22.1678051 C34.5154005,22.1662544 33.1772372,23.5217378 33.1772366,25.1904461 C33.1757185,26.8587188 34.5111207,28.2157014 36.1663584,28.2172523 C37.820818,28.2188025 39.1581238,26.8637107 39.1596426,25.1946114 Z M41.9010213,25.1959152 C41.8980892,28.4187417 39.3279663,31.023047 36.1638461,31.0200823 C32.9994504,31.0171174 30.4329272,28.4091185 30.4358579,25.1891423 C30.4358579,21.9674821 33.0080381,19.3620097 36.173033,19.3649752 C39.3365527,19.3679393 41.9010213,21.9747695 41.9010213,25.1959152 Z" id="Stroke-3"></path>
                        <path d="M51.4860271,21.6094363 C51.7295624,21.8222361 51.8925019,22.115529 51.9465453,22.438374 C52.1084708,23.4056854 52.1931286,24.3082908 52.1931239,25.2070619 C52.1908178,26.100962 52.1053585,27.0063465 51.9443205,27.968357 C51.8899156,28.2933612 51.7251679,28.5883446 51.4790532,28.8014253 C51.1272152,29.1060389 50.7347718,29.3583001 50.3031863,29.5512397 L47.7764859,30.6797237 C47.0067023,31.0241034 46.5472642,31.8302262 46.6361277,32.6705385 L46.9344096,35.4578688 C46.9856833,35.9414311 46.9637114,36.4207844 46.8756386,36.8908046 C46.8156209,37.2111024 46.6482246,37.4999711 46.4022877,37.7076464 C45.0146616,38.8793924 43.4204951,39.8053645 41.6833632,40.4540051 C41.3874241,40.5645081 41.0632861,40.5674035 40.7655038,40.4622041 C40.3294224,40.308147 39.9161885,40.0881234 39.5307135,39.8016887 L37.3015479,38.1452968 C36.6235815,37.6395661 35.695613,37.6391838 35.0137875,38.1454928 L32.7800063,39.801379 C32.3999052,40.0807834 31.9924543,40.2961558 31.5593859,40.4524037 C31.2586287,40.5609147 30.9302754,40.5587989 30.6308798,40.4464208 C28.8955037,39.7950477 27.3018952,38.8665504 25.9152586,37.6931801 C25.669905,37.4855621 25.5029229,37.1970692 25.4429965,36.8772587 C25.3546796,36.4059357 25.3349129,35.9229436 25.3888223,35.4429425 L25.687231,32.654455 C25.7787471,31.8134473 25.3213482,31.0075352 24.5517974,30.6632586 L22.0315667,29.5321535 C21.5930234,29.3374649 21.1979714,29.0817094 20.8449109,28.7698899 C20.6054829,28.5584294 20.4449768,28.2687947 20.3906226,27.9501227 C20.2282542,26.9981766 20.1433055,26.0854358 20.1433103,25.1770925 C20.1456405,24.273836 20.2312387,23.3612058 20.3928475,22.4137128 C20.4479972,22.090377 20.6123967,21.7970888 20.857381,21.5849868 C21.2138282,21.2763826 21.6041343,21.0234134 22.0332479,20.8329148 L24.5617169,19.703641 C25.329935,19.3612784 25.7882966,18.5567692 25.6979489,17.7146283 L25.4020245,14.9262856 C25.350106,14.4366414 25.3714943,13.9527373 25.4625899,13.483948 C25.5240418,13.1677088 25.6902667,12.8828062 25.9332387,12.6772753 C27.3173021,11.5064909 28.9134767,10.5797094 30.653071,9.93014927 C30.9529414,9.8181784 31.281634,9.81673656 31.5824331,9.92607254 C32.0176682,10.084274 32.4268516,10.3009397 32.8057207,10.5824657 L35.0348863,12.2388576 C35.7138548,12.7453359 36.6418251,12.7464828 37.3214002,12.2418443 L39.554203,10.5827755 C39.9336144,10.303878 40.3427012,10.0884599 40.7770483,9.93175069 C41.0778055,9.82323972 41.4061588,9.8253555 41.7055544,9.9377336 C43.4377871,10.5879269 45.0320397,11.5177812 46.4187697,12.6908212 C46.6622264,12.8967621 46.8286143,13.182378 46.8897744,13.4993319 C46.9813184,13.9737464 47.0020125,14.4599514 46.9475044,14.9422129 L46.6469523,17.7321954 C46.55567,18.5697506 47.0142128,19.3766433 47.7820051,19.7207134 L50.3080742,20.8534294 C50.740141,21.0465842 51.1340852,21.3019115 51.4860271,21.6094363 Z M49.2084081,23.4208741 L46.6812253,22.2876595 C44.8178404,21.4526226 43.6979121,19.4818974 43.9222431,17.4235727 L44.2234191,14.6279694 C44.2283854,14.5840136 44.2318414,14.5402163 44.2338057,14.4965611 C43.3371085,13.8033545 42.3434387,13.2247433 41.2771722,12.7746421 C41.2371036,12.7998649 41.198094,12.8264132 41.1601734,12.8542824 L38.9327246,14.5093956 C37.2902639,15.7290533 35.0588933,15.7262954 33.4211723,14.5046304 L31.1940485,12.8497587 C31.1554128,12.8210497 31.1159394,12.793879 31.0755753,12.7681883 C30.0054258,13.2174681 29.0113759,13.7937305 28.1172283,14.4840439 C28.1190413,14.5303227 28.1224298,14.5769955 28.1274208,14.6240654 L28.4231573,17.4106467 C28.6444579,19.4733926 27.5232386,21.4413397 25.6581069,22.2725501 L23.127866,23.402612 C23.0868234,23.4208326 23.0465555,23.440484 23.0069546,23.4616111 C22.9274393,24.0535325 22.8861254,24.623809 22.8846849,25.1807889 C22.8846849,25.7400458 22.925332,26.3102205 23.0049575,26.9035825 C23.0448271,26.9246519 23.0859353,26.9445935 23.1284328,26.9634628 L25.652204,28.0961457 C27.5178387,28.9307786 28.6362848,30.9014202 28.4120737,32.9618383 L28.1131283,35.7551805 C28.1080896,35.8000605 28.1045801,35.8447785 28.1025777,35.8893535 C28.9982041,36.5814655 29.9907952,37.1587938 31.0579717,37.609057 C31.097888,37.58379 31.1369839,37.557096 31.1752823,37.5289469 L33.4037096,35.8770165 C35.0464527,34.6571491 37.2778216,34.6580684 38.9152619,35.879524 L41.1423857,37.5343957 C41.1813967,37.5633836 41.2207197,37.5906079 41.2603952,37.6161242 C42.3290852,37.1673531 43.3225141,36.5912468 44.2189718,35.8997995 C44.2173033,35.8535915 44.2140348,35.8074408 44.2091461,35.7613343 L43.9108222,32.9736078 C43.6928072,30.9120363 44.8133551,28.9459405 46.6783273,28.1116043 L49.2053615,26.982971 C49.24737,26.9641912 49.2884488,26.9441338 49.3286349,26.9228018 C49.4087738,26.3226038 49.4503233,25.7547212 49.4517493,25.2033655 C49.4517493,24.6494034 49.4108663,24.0826615 49.3304151,23.4806042 C49.2905955,23.4593539 49.2499338,23.4394383 49.2084081,23.4208741 Z" id="Stroke-5"></path>
                    </g>
                </g>
            </g>
        </g>
    </g>
</svg>