<?xml version="1.0" encoding="UTF-8"?>
<svg width="48px" height="44px" viewBox="0 0 48 44" version="1.1" xmlns="http://www.w3.org/2000/svg" xmlns:xlink="http://www.w3.org/1999/xlink">
    <!-- Generator: Sketch 48.2 (47327) - http://www.bohemiancoding.com/sketch -->
    <title>Shape</title>
    <desc>Created with Sketch.</desc>
    <defs></defs>
    <g id="关于我们-核心业务" stroke="none" stroke-width="1" fill="none" fill-rule="evenodd" transform="translate(-1180.000000, -878.000000)">
        <g id="Group-8" transform="translate(1118.000000, 842.000000)" fill="#0ABBB9" fill-rule="nonzero">
            <g id="会议-开会-讨论" transform="translate(62.000000, 36.000000)">
                <path d="M25.5,26.0950847 L26.25,26.0950847 C26.6653846,26.0950847 27,26.4277985 27,26.8408225 L27,38.7726264 C27,39.1856504 26.6653846,39.5183642 26.25,39.5183642 L25.5,39.5183642 C25.0846154,39.5183642 24.75,39.1856504 24.75,38.7726264 L24.75,26.8408225 C24.75,26.4277985 25.0846154,26.0950847 25.5,26.0950847 Z M21.75,26.0950847 L22.5,26.0950847 C22.9153846,26.0950847 23.25,26.4277985 23.25,26.8408225 L23.25,38.7726264 C23.25,39.1856504 22.9153846,39.5183642 22.5,39.5183642 L21.75,39.5183642 C21.3346154,39.5183642 21,39.1856504 21,38.7726264 L21,26.8408225 C21,26.4277985 21.3346154,26.0950847 21.75,26.0950847 Z M4.5,4.46869004 C3.66923077,4.46869004 3,5.13411757 3,5.96016554 C3,6.78047706 3.675,7.45164103 4.5,7.45164103 C5.33076923,7.45164103 6,6.78047706 6,5.96016554 C6,5.13985402 5.33076923,4.46869004 4.5,4.46869004 Z M4.5,9.69459072 C2.42884615,9.69459072 0.75,8.02528545 0.75,5.96590198 C0.75,3.90651851 2.42884615,2.23721324 4.5,2.23721324 C6.57115385,2.23721324 8.25,3.90651851 8.25,5.96590198 C8.25,8.01954901 6.57115385,9.69459072 4.5,9.69459072 Z M15,32.0609867 L6.75,27.5865602 L6.75,14.9090185 C6.75,14.9090185 6.53653846,13.417543 4.5,13.417543 C2.65961538,13.417543 2.25,14.9090185 2.25,14.9090185 L2.25,26.0950847 C2.25,26.0950847 2.12307692,27.2538465 3,27.5865602 L14.25,32.8067245 L14.25,41.7555774 L15,41.7555774 L15,32.0609867 Z M17.25,32.8067245 L17.25,41.7555774 C17.25,41.7555774 17.0826923,44.1476747 14.25,43.9927907 C12.0807692,43.8723253 12,41.7555774 12,41.7555774 L12,34.2982 L2.25,29.8237735 C2.25,29.8237735 0.0288461538,28.9919891 0,26.8408225 L0,14.1632808 C0,14.1632808 1.03269231,11.2204849 4.5,11.1803298 C8.09423077,11.1401747 9,14.1632808 9,14.1632808 L9,26.0950847 L15.75,29.8237735 C15.75,29.8237735 17.1980769,30.334317 17.25,32.8067245 Z M24,2.22574035 C23.1692308,2.22574035 22.5,2.89116788 22.5,3.71147941 C22.5,4.53179093 23.175,5.19721846 24,5.19721846 C24.825,5.19721846 25.5,4.53179093 25.5,3.71147941 C25.5,2.89116788 24.8307692,2.22574035 24,2.22574035 Z M24,7.42869526 C21.9288462,7.42869526 20.25,5.76512643 20.25,3.71147941 C20.25,1.66356882 21.9288462,-7.10542736e-15 24,-7.10542736e-15 C26.0711538,-7.10542736e-15 27.75,1.66356882 27.75,3.71147941 C27.75,5.76512643 26.0711538,7.42869526 24,7.42869526 Z M27,12.6259137 C27,12.6259137 26.8673077,11.0942831 24,11.1401747 C20.9076923,11.1860662 21,12.6259137 21,12.6259137 L21,21.6206582 L27,21.6206582 L27,12.6259137 L27,12.6259137 Z M35.25,23.8636079 L12.75,23.8636079 C12.75,23.8636079 12,23.7374062 12,22.8367844 C12,21.7124413 12.75,21.6206582 12.75,21.6206582 L18.75,21.6206582 L18.75,11.880176 C18.75,11.880176 18.7211538,8.93738008 24,8.90869786 C28.8403846,8.88001564 29.25,11.880176 29.25,11.880176 L29.25,21.6206582 L35.25,21.6206582 C35.25,21.6206582 36,21.9074805 36,22.7163191 C36,23.4735297 35.25,23.8636079 35.25,23.8636079 L35.25,23.8636079 Z M43.5,4.4629536 C42.6692308,4.4629536 42,5.12838113 42,5.94869265 C42,6.76900417 42.6692308,7.4344317 43.5,7.4344317 C44.325,7.4344317 45,6.76900417 45,5.94869265 C45,5.12838113 44.325,4.4629536 43.5,4.4629536 Z M43.5,9.66017205 C41.4288462,9.66017205 39.75,7.99660323 39.75,5.94869265 C39.75,3.90078206 41.4288462,2.23721324 43.5,2.23721324 C45.5711538,2.23721324 47.25,3.90078206 47.25,5.94869265 C47.25,7.99660323 45.5711538,9.66017205 43.5,9.66017205 Z M45.75,26.0090381 L45.75,14.863127 C45.75,14.863127 45.3403846,13.3773879 43.5057692,13.3773879 C41.4634615,13.3773879 41.2557692,14.863127 41.2557692,14.863127 L41.2557692,27.4947771 L33.0057692,31.9519943 L33.0057692,41.6121663 L33.7557692,41.6121663 L33.7557692,32.697732 L45.0057692,27.5005136 C45.8711538,27.1620633 45.75,26.0090381 45.75,26.0090381 L45.75,26.0090381 Z M48,26.7490394 C47.9711538,28.8944695 45.75,29.7205175 45.75,29.7205175 L36,34.1777346 L36,41.6064299 C36,41.6064299 35.9192308,43.7174413 33.75,43.8321702 C30.9173077,43.9870542 30.75,41.6064299 30.75,41.6064299 L30.75,32.697732 C30.8019231,30.231061 32.25,29.7262539 32.25,29.7262539 L39,26.0147745 L39,14.1231257 C39,14.1231257 39.9057692,11.1114924 43.5,11.1516476 C46.9673077,11.1918027 48,14.1231257 48,14.1231257 L48,26.7490394 L48,26.7490394 Z" id="Shape"></path>
            </g>
        </g>
    </g>
</svg>