<?xml version="1.0" encoding="UTF-8"?>
<svg width="70px" height="70px" viewBox="0 0 70 70" version="1.1" xmlns="http://www.w3.org/2000/svg" xmlns:xlink="http://www.w3.org/1999/xlink">
    <!-- Generator: Sketch 48.2 (47327) - http://www.bohemiancoding.com/sketch -->
    <title>政府合作</title>
    <desc>Created with Sketch.</desc>
    <defs></defs>
    <g id="首页" stroke="none" stroke-width="1" fill="none" fill-rule="evenodd" transform="translate(-1128.000000, -3617.000000)">
        <g id="assessed-Badge-Copy" transform="translate(1128.000000, 3617.000000)" fill="#33D2D0" fill-rule="nonzero">
            <g id="企业-3" transform="translate(1.000000, 4.000000)">
                <path d="M62.474004,55.8177594 L57.5649722,55.8177594 L57.5649722,4.52139342 C57.5649722,2.06443982 55.5659504,0.0658545778 53.1089968,0.0658545778 C53.0075575,0.0658545778 52.9067005,0.0761149156 52.8076626,0.0966356622 L24.1499226,5.98440299 C21.7704673,6.07318052 19.8617511,8.03610916 19.8617511,10.4369584 L19.8617511,18.3894574 L11.506697,20.1057011 C9.12738731,20.1944786 7.21852558,22.1574073 7.21852558,24.5582565 L7.21852558,55.8177594 L1.52585045,55.8177594 C0.698255004,55.8177594 0.0276937956,56.4883206 0.0276937956,57.3160617 C0.0276937956,58.1435116 0.698255004,58.8140727 1.52585045,58.8140727 L8.71675499,58.8140727 C9.54435044,58.8140727 10.2148389,58.1435115 10.2148389,57.3160617 L10.2148389,24.5582564 C10.2148389,23.7535829 10.869391,23.0991036 11.6740644,23.0991036 C11.7755036,23.0991036 11.8764335,23.0888432 11.9754713,23.0683953 L40.5917334,17.1898696 C41.337901,17.2542697 41.9249968,17.8814608 41.9249968,18.6437103 L41.9249968,57.3161343 C41.9249968,58.1435843 42.5956307,58.8141454 43.4231534,58.8141454 L56.0668883,58.8141454 L56.2678748,58.8141454 L62.4740768,58.8141454 C63.3015995,58.8141454 63.9723062,58.1435842 63.9723062,57.3161343 C63.9722335,56.4883205 63.3015268,55.8177594 62.474004,55.8177594 Z M54.5686589,55.8177594 L44.9213101,55.8177594 L44.9213101,18.6436375 C44.9213101,16.1866839 42.9227977,14.1881714 40.465844,14.1881714 C40.364332,14.1881714 40.2634022,14.1984318 40.1643643,14.2188797 L22.8579915,17.7739091 L22.8579916,10.4369583 C22.8579916,9.63228487 23.512471,8.97780551 24.3171444,8.97780551 C24.4185836,8.97780551 24.5195135,8.96754517 24.6184785,8.94709724 L53.2353227,3.06762553 C53.9809082,3.13195285 54.5685861,3.75914404 54.5685861,4.52146624 L54.5686589,55.8177594 Z" id="Shape"></path>
                <path d="M33.1984598,30.0130514 L18.695273,32.4299824 C18.287042,32.4978026 18.0109586,32.8840575 18.0792881,33.2917063 C18.1401953,33.6585321 18.4577568,33.9178788 18.8171601,33.9178788 C18.8581287,33.9178788 18.8996068,33.9144587 18.9410847,33.9076184 L33.4442716,31.4906147 C33.8524297,31.4227945 34.1284405,31.0366852 34.0602564,30.6288908 C33.9923635,30.2197866 33.6002144,29.9447219 33.1984598,30.0130514 Z" id="Shape"></path>
                <path d="M33.1984598,39.3131493 L18.695273,41.7291343 C18.287042,41.7969545 18.0109586,42.1832094 18.0792881,42.5908582 C18.1401953,42.9575383 18.4577568,43.2170306 18.8171601,43.2170306 C18.8581287,43.2170306 18.8996068,43.2136105 18.9410847,43.2067703 L33.4442716,40.7907853 C33.8524297,40.7229651 34.1284405,40.3367102 34.0602564,39.9290614 C33.9923635,39.5204666 33.6002144,39.2439465 33.1984598,39.3131493 Z" id="Shape"></path>
                <path d="M33.1984598,48.6133198 L18.695273,51.0303236 C18.287042,51.0981437 18.0109586,51.4842531 18.0792881,51.8919019 C18.1401953,52.2587276 18.4577568,52.5182198 18.8171601,52.5182198 C18.8581287,52.5182198 18.8996068,52.5147997 18.9410847,52.5079595 L33.4442716,50.0909557 C33.8524297,50.0231356 34.1284405,49.6368806 34.0602564,49.2290863 C33.9923635,48.8204916 33.6002144,48.5436077 33.1984598,48.6133198 Z" id="Shape"></path>
            </g>
        </g>
    </g>
</svg>