<?xml version="1.0" encoding="UTF-8"?>
<svg width="70px" height="70px" viewBox="0 0 70 70" version="1.1" xmlns="http://www.w3.org/2000/svg" xmlns:xlink="http://www.w3.org/1999/xlink">
    <!-- Generator: Sketch 48.2 (47327) - http://www.bohemiancoding.com/sketch -->
    <title>资本热奉</title>
    <desc>Created with Sketch.</desc>
    <defs></defs>
    <g id="首页" stroke="none" stroke-width="1" fill="none" fill-rule="evenodd" transform="translate(-512.000000, -3617.000000)">
        <g id="trade-5-copy" transform="translate(512.000000, 3617.000000)" fill="#33D2D0" fill-rule="nonzero">
            <path d="M67,33 C67,15.326888 52.673112,1 35,1 C17.326888,1 3,15.326888 3,33 C3,50.673112 17.326888,65 35,65 C42.1054012,65 48.8616857,62.6762607 54.3932517,58.4559508 C55.0041504,57.9898656 55.1215448,57.1167976 54.6554596,56.5058989 C54.1893743,55.8950003 53.3163062,55.7776057 52.7054076,56.2436911 C47.6546198,60.0971911 41.4901264,62.2173913 35,62.2173913 C18.8636804,62.2173913 5.78260869,49.1363196 5.78260869,33 C5.78260869,16.8636804 18.8636804,3.78260869 35,3.78260869 C51.1363196,3.78260869 64.2173913,16.8636804 64.2173913,33 C64.2173913,38.4404608 62.7294196,43.658814 59.957398,48.2000816 C59.557054,48.8559454 59.7641939,49.7121711 60.4200577,50.1125149 C61.0759216,50.5128589 61.9321472,50.3057191 62.3324911,49.6498552 C65.3691688,44.6750147 67,38.9556496 67,33 Z" id="Shape"></path>
            <path d="M37.4876208,53.741244 C37.4876208,53.741244 37.4943841,54.8111166 36.0961872,54.8111166 C34.6979902,54.8111166 34.4486714,53.741244 34.4486714,53.741244 L34.4486714,48.9337259 C28.9021461,48.3358968 25.3484377,45.7370399 23.7874396,41.1370773 C23.7874396,41.1370773 23.0821387,39.5510802 24.6867882,38.9637854 C26.291438,38.3764908 27.1502113,39.816878 27.1502113,39.816878 C28.4455077,43.3208207 30.8783034,45.2222207 34.4486714,45.5211352 L34.4486714,33.9631642 C30.5793888,33.0332079 28.0677141,31.8209616 26.9135719,30.3263889 C25.7594296,28.8318161 25.1823672,27.1712048 25.1823672,25.3445048 C25.1823672,20.5286594 28.2711044,17.6059834 34.4486714,16.5763889 L34.4486714,12.4663346 C34.4486714,12.4663346 34.766908,11.3635224 35.8960767,11.3635224 C37.0252453,11.3635224 37.4876208,12.4663346 37.4876208,12.4663346 L37.4876208,16.5763889 C42.3864979,17.0081542 45.5997811,19.2001613 47.1275664,23.1524759 C47.1275664,23.1524759 47.1275664,24.4225449 45.9163459,24.7637001 C44.7051253,25.1048554 43.7398852,24.2484904 43.7398852,24.2484904 C42.8265353,21.5416531 40.742468,20.0803151 37.4876208,19.8644324 L37.4876208,30.5256642 C44.3460488,31.7545351 47.7752113,34.8432724 47.7752113,39.7919686 C47.7752113,41.9175831 46.994724,43.8895592 45.4337259,45.7079559 C43.8727277,47.5263527 41.2240526,48.6015986 37.4876208,48.9337259 L37.4876208,53.741244 Z M34.4486714,19.8644324 C32.7382161,19.9972833 31.3723632,20.5203759 30.3510719,21.4337259 C29.3297806,22.3470759 28.8191426,23.5012008 28.8191426,24.8961352 C28.8191426,27.6361852 30.6956334,29.3632211 34.4486714,30.0772947 L34.4486714,19.8644324 Z M37.4876208,45.5211352 C39.5135971,45.4381034 41.0953294,44.8817987 42.2328653,43.8522041 C43.3704012,42.8226096 43.9391607,41.5854541 43.9391607,40.1407006 C43.9391607,37.0685233 41.7886688,35.2335477 37.4876208,34.6357186 L37.4876208,45.5211352 Z" id="Shape"></path>
        </g>
    </g>
</svg>