<?xml version="1.0" encoding="UTF-8"?>
<svg width="70px" height="70px" viewBox="0 0 70 70" version="1.1" xmlns="http://www.w3.org/2000/svg" xmlns:xlink="http://www.w3.org/1999/xlink">
    <!-- Generator: Sketch 48.2 (47327) - http://www.bohemiancoding.com/sketch -->
    <title>政府合作</title>
    <desc>Created with Sketch.</desc>
    <defs></defs>
    <g id="首页" stroke="none" stroke-width="1" fill="none" fill-rule="evenodd" transform="translate(-1128.000000, -3617.000000)">
        <g id="assessed-Badge-Copy" transform="translate(1128.000000, 3617.000000)" fill="#33D2D0" fill-rule="nonzero">
            <path d="M46.2608187,22.9590643 C46.2608187,23.2210526 46.1298246,23.4830409 45.9988304,23.7450292 L34.7333333,44.7040935 C34.2093567,45.7520468 33.0304093,46.4070175 31.7204678,46.4070175 C30.6725145,46.4070175 29.7555555,46.014035 29.2315789,45.2280701 L23.0748537,38.1543859 C22.8128654,37.8923976 22.6818713,37.4994151 22.6818713,37.1064327 C22.6818713,36.1894736 23.4678362,35.4035087 24.3847952,35.4035087 C24.6467835,35.4035087 24.9087718,35.5345028 25.1707601,35.665497 L30.8035086,38.6783626 L43.1169589,21.9111111 C43.5099414,21.5181286 43.9029238,21.2561403 44.5578946,21.2561403 C45.4748538,21.3871345 46.2608187,22.0421053 46.2608187,22.9590643 Z" id="Shape"></path>
            <path d="M34.471345,4.61988306 C35.7812865,4.61988306 37.0912281,5.14385965 38.0081871,6.06081875 L43.5099415,11.5625731 L51.2385965,11.5625731 C53.9894737,11.5625731 56.3473684,13.7894737 56.3473684,16.6713451 L56.3473684,24.4000001 L61.8491228,29.9017544 C63.8140351,31.8666667 63.8140351,35.1415205 61.8491228,37.1064328 L56.3473684,42.6081872 L56.3473684,50.3368422 C56.3473684,53.0877194 54.1204678,55.4456141 51.2385965,55.4456141 L43.5099415,55.4456141 L38.0081871,60.9473685 C37.0912281,61.7333333 35.7812866,62.2573099 34.471345,62.2573099 C33.1614034,62.2573099 31.8514619,61.7333333 30.9345029,60.8163742 L25.4327485,55.3146198 L17.7040935,55.3146198 C14.9532163,55.3146198 12.5953216,53.0877192 12.5953216,50.2058479 L12.5953216,42.4771929 L7.09356721,36.9754385 C5.12865493,35.0105263 5.12865493,31.7356725 7.09356721,29.7707602 L12.5953216,24.2690058 L12.5953216,16.5403508 C12.5953217,13.7894737 14.8222222,11.5625731 17.7040936,11.5625731 L25.4327486,11.5625731 L30.934503,6.06081869 C31.851462,5.14385965 33.1614035,4.61988306 34.471345,4.61988306 Z M34.471345,2 C32.3754386,2 30.4105263,2.78596491 29.1005848,4.22690061 L24.3847953,8.94269008 L17.7040935,8.94269008 C13.5122806,8.94269008 9.97543854,12.3485381 9.97543854,16.6713451 L9.97543854,23.3520468 L5.25964906,28.0678363 C2.24678354,31.0807018 2.24678354,35.9274854 5.25964906,38.9403509 L9.97543854,43.6561404 L9.97543854,50.3368422 C9.97543854,54.5286551 13.3812865,58.0654972 17.7040935,58.0654972 L24.3847953,58.0654972 L29.1005848,62.7812866 C30.5415204,64.0912281 32.3754386,64.877193 34.471345,64.877193 C36.5672514,64.877193 38.4011696,64.0912281 39.8421053,62.6502924 L44.5578947,57.9345029 L51.2385965,57.9345029 C55.4304094,57.9345029 58.9672515,54.5286549 58.9672515,50.2058479 L58.9672515,43.5251462 L63.683041,38.8093567 C66.6959065,35.7964912 66.6959065,30.9497076 63.683041,27.936842 L58.9672515,23.2210526 L58.9672515,16.5403508 C58.9672515,12.3485379 55.5614035,8.81169582 51.2385965,8.81169582 L44.5578947,8.81169582 L39.8421053,4.09590635 C38.5321638,2.78596491 36.5672515,2 34.471345,2 Z" id="Shape"></path>
        </g>
    </g>
</svg>