<?xml version="1.0" encoding="UTF-8"?>
<svg width="70px" height="70px" viewBox="0 0 70 70" version="1.1" xmlns="http://www.w3.org/2000/svg" xmlns:xlink="http://www.w3.org/1999/xlink">
    <!-- Generator: Sketch 48.2 (47327) - http://www.bohemiancoding.com/sketch -->
    <title>研究实力</title>
    <desc>Created with Sketch.</desc>
    <defs></defs>
    <g id="首页" stroke="none" stroke-width="1" fill="none" fill-rule="evenodd" transform="translate(-222.000000, -3617.000000)">
        <g id="assessed-Badge-Copy-2" transform="translate(222.000000, 3617.000000)" fill="#33D2D0" fill-rule="nonzero">
            <g id="ship-2" transform="translate(3.000000, 5.000000)">
                <path d="M13.9041986,52.9677034 L4.15526891,25.9923234 L3.49404307,27.7155624 L32.1215745,12.5126558 L30.7622827,12.4831396 L58.0764787,28.5420177 L57.5029102,26.7610213 L51.2371056,41.04249 C50.9254064,41.7529372 51.2456242,42.5828877 51.9523322,42.896236 C52.6590402,43.2095846 53.4846224,42.8876724 53.7963215,42.1772251 L60.0621262,27.8957566 C60.3490284,27.2418288 60.1022563,26.4755731 59.4885578,26.1147603 L32.1743618,10.0558823 C31.7568284,9.81040121 31.2427582,9.79923847 30.81507,10.026366 L2.18753864,25.2292724 C1.57008521,25.5571767 1.28785649,26.2927007 1.5263128,26.9525115 L11.2752425,53.9278915 C11.5389956,54.6576987 12.3413215,55.0343791 13.0672878,54.7692304 C13.793254,54.5040818 14.1679517,53.6975107 13.9041986,52.9677034 Z" id="Shape"></path>
                <path d="M30.1123829,12.6754538 L30.1123829,50.6359116 C30.1123829,51.4123924 30.7385321,52.0418546 31.5109261,52.0418546 C32.2833201,52.0418546 32.9094693,51.4123924 32.9094693,50.6359116 L32.9094693,12.6754538 C32.9094693,11.898973 32.2833201,11.2695109 31.5109261,11.2695109 C30.7385321,11.2695109 30.1123829,11.898973 30.1123829,12.6754538 Z" id="Shape"></path>
                <path d="M12.6305932,21.0114578 L12.6305932,7.05168228 L11.230323,8.45762408 L50.389532,8.50623614 L48.9927159,7.10029433 L48.9927159,22.517054 C48.9927159,23.2935347 49.6188651,23.9229969 50.3912591,23.9229969 C51.1636531,23.9229969 51.7898023,23.2935347 51.7898023,22.517054 L51.7898023,7.10029433 C51.7898023,6.32449145 51.1647052,5.69531057 50.3929862,5.69435253 L11.233777,5.64574047 C10.4607089,5.64478078 9.83350676,6.27452336 9.83350676,7.05168228 L9.83350676,21.0114578 C9.83350676,21.7879385 10.4596559,22.4174006 11.2320499,22.4174006 C12.004444,22.4174006 12.6305932,21.7879385 12.6305932,21.0114578 Z" id="Shape"></path>
                <path d="M0.577464752,52.7288327 C1.15212381,53.1833626 2.12135501,53.8365364 3.37335657,54.4875856 C5.49583181,55.5912868 7.66181744,56.2596832 9.78110381,56.2596832 C9.9751088,56.2596832 10.1695484,56.2480653 10.3646304,56.2252082 C11.3518277,56.1095414 12.3083173,55.7245538 13.4378991,55.0635207 C13.8515219,54.8214679 14.2698901,54.5550272 14.8498834,54.1703226 C15.0081535,54.0653434 15.5814267,53.68262 15.5588659,53.6976538 C15.8441845,53.5075267 16.0628054,53.3632648 16.2786055,53.2233284 C20.1483216,50.7139963 23.0832172,49.9530188 27.2880598,51.1939745 C30.021428,52.000661 32.1104071,52.7832157 34.0903608,53.6799893 C34.2486459,53.7516807 37.2542378,55.1931032 38.0448372,55.4954013 C39.4225116,56.0221767 40.7224439,56.2596832 42.4310468,56.2596832 C44.2073975,56.2596831 45.0360167,55.956405 49.1140805,54.1472734 C54.3550322,51.8222556 57.2791485,51.5062193 60.8099484,53.8457341 C61.454858,54.2730526 62.3222476,54.0938939 62.747317,53.4455718 C63.1723864,52.7972498 62.9941706,51.925271 62.3492608,51.4979525 C57.8106438,48.4906561 54.0111601,48.9013014 47.9848201,51.5747372 C44.3936543,53.1678686 43.6288304,53.4477973 42.4310465,53.4477974 C41.0604281,53.4477974 40.0975425,53.2718717 39.0392189,52.867205 C38.3745091,52.6130427 35.4950143,51.232094 35.2393371,51.1162912 C33.1441054,50.167305 30.9347129,49.339642 28.0759557,48.4959503 C22.9635269,46.9871427 19.2510024,47.9497487 14.7624297,50.8603807 C10.5820545,53.5711606 11.0143875,53.3181586 10.0408217,53.4322282 C9.95199587,53.4426357 9.86560707,53.4477974 9.78110381,53.4477974 C8.17693029,53.4477974 6.41796058,52.9050011 4.65845784,51.990048 C4.02872708,51.6625839 3.44538281,51.3110761 2.92552254,50.9607375 C2.61945589,50.7544764 2.40790707,50.5987426 2.30703057,50.5189538 C1.70000118,50.0388204 0.820730107,50.1442935 0.343123698,50.7545347 C-0.134482776,51.364776 -0.0295647003,52.2486993 0.577464752,52.7288327 Z" id="Shape"></path>
                <path d="M21.0218523,6.59955655 L21.0218523,1.42791076 L19.623309,2.83385362 L43.3985432,2.83385362 L42,1.42791076 L42,7.05168228 C42,7.82816311 42.6261492,8.45762514 43.3985432,8.45762514 C44.1709372,8.45762514 44.7970863,7.82816311 44.7970863,7.05168228 L44.7970863,1.42791076 C44.7970863,0.651429927 44.1709372,0.0219678356 43.3985432,0.0219678356 L19.623309,0.0219678356 C18.8509151,0.0219678356 18.2247659,0.651429927 18.2247659,1.42791076 L18.2247659,6.59955655 C18.2247659,7.37603738 18.8509151,8.00549941 19.623309,8.00549941 C20.3957031,8.00549941 21.0218523,7.37603738 21.0218523,6.59955655 Z" id="Shape"></path>
            </g>
        </g>
    </g>
</svg>