<?xml version="1.0" encoding="UTF-8"?>
<svg width="70px" height="70px" viewBox="0 0 70 70" version="1.1" xmlns="http://www.w3.org/2000/svg" xmlns:xlink="http://www.w3.org/1999/xlink">
    <!-- Generator: Sketch 48.2 (47327) - http://www.bohemiancoding.com/sketch -->
    <title>业界认可</title>
    <desc>Created with Sketch.</desc>
    <defs></defs>
    <g id="首页" stroke="none" stroke-width="1" fill="none" fill-rule="evenodd" transform="translate(-814.000000, -3617.000000)">
        <g id="good-copy" transform="translate(814.000000, 3617.000000)" fill="#33D2D0" fill-rule="nonzero">
            <path d="M50.1265752,62.8137113 L29.7045159,62.8137113 C28.8729417,62.8137113 28.1961269,62.1531636 28.1961269,61.34175 C28.1961269,60.5303365 28.8729417,59.8718275 29.7045159,59.8718275 L50.1265752,59.8718275 C54.4660307,59.8718275 56.5625056,57.5456395 57.5529662,55.5945773 C57.6024893,55.4763311 57.6189969,55.3682786 57.6437584,55.2398387 C57.8315333,54.3081403 58.149306,52.7444363 60.2354637,50.2755374 C61.7397257,48.4936896 61.4817932,46.6017505 61.1784647,44.4121572 C61.0835455,43.7169511 60.9886264,43.0258225 60.9494207,42.3408101 C60.7760901,39.4193136 61.5519509,38.1573413 62.6290768,36.4081131 C62.8251054,36.0941491 63.0355783,35.7516429 63.2604954,35.3683621 C64.2488925,33.6843732 64.1931791,31.5946776 63.1119263,29.7802101 C61.7913122,27.5620747 59.3069069,26.2348631 56.4696499,26.2348631 C51.4430624,26.2348631 45.648868,26.4040775 45.5931546,26.4040775 C45.0917339,26.422426 44.6976131,26.2307856 44.4025384,25.8943956 C44.1033367,25.5580056 43.9815926,25.1074468 44.0620676,24.6711591 C44.0827021,24.5692227 45.9748946,14.4469409 45.9748946,9.99843753 C45.9748946,5.43576546 42.4711402,4.94443214 40.9689417,4.94443214 C38.5938997,4.94443214 36.6625015,7.44187329 36.6625015,10.5142356 C36.6625015,14.3327721 36.6625015,15.6212479 34.6196766,18.4081883 C31.8009908,22.2532283 26.4793286,28.7058008 22.4700266,28.7058008 L19.9299079,28.7058008 L19.9299079,61.3397113 C19.9299079,62.1531636 19.2530931,62.8116726 18.4215189,62.8116726 L9.78800409,62.8116726 C6.62472057,62.8116726 4.04952303,60.301999 4.04952303,57.2174044 L4.04952303,31.3581852 C4.04952303,28.2756293 6.62265711,25.7659558 9.78800409,25.7659558 L22.4720901,25.7659558 C24.2672999,25.7659558 28.2559672,22.0391619 32.1641597,16.7017734 C33.6457236,14.6813945 33.6457236,14.206371 33.6457236,10.5162743 C33.6457236,5.74157458 36.8605937,2.00458714 40.9668782,2.00458714 C44.6687247,2.00458714 48.9916725,4.10039897 48.9916725,10.0004763 C48.9916725,13.5764042 47.9083562,20.2308107 47.3512221,23.4214192 C49.4910297,23.370451 53.1454166,23.2970568 56.4696499,23.2970568 C60.3943501,23.2970568 63.8568352,25.1686086 65.7222027,28.3062102 C67.3482088,31.038105 67.4080491,34.2266747 65.881089,36.8301297 C65.6437912,37.2337978 65.423001,37.5926138 65.2187185,37.9249264 C64.2179406,39.5477534 63.842391,40.1552942 63.9620716,42.1715957 C63.9992139,42.7811752 64.0879427,43.4009483 64.1704811,44.0207215 C64.4985711,46.4039939 64.9071361,49.3703424 62.5651095,52.1430117 C60.9638649,54.041067 60.7472016,55.1052827 60.6027595,55.8086437 C60.5346653,56.1450337 60.4624442,56.4936561 60.2849867,56.8443173 C58.3164463,60.7117833 54.7198362,62.8137113 50.1265752,62.8137113 Z M9.78800409,28.7078395 C8.28993245,28.7078395 7.06836438,29.8964176 7.06836438,31.3581852 L7.06836438,57.2214818 C7.06836438,58.6852882 8.28993245,59.8738663 9.78800409,59.8738663 L16.91313,59.8738663 L16.91313,28.7078395 L9.78800409,28.7078395 Z" id="Shape"></path>
        </g>
    </g>
</svg>