<?xml version="1.0" encoding="UTF-8"?>
<svg width="70px" height="70px" viewBox="0 0 70 70" version="1.1" xmlns="http://www.w3.org/2000/svg" xmlns:xlink="http://www.w3.org/1999/xlink">
    <!-- Generator: Sketch 48.2 (47327) - http://www.bohemiancoding.com/sketch -->
    <title>研究实力</title>
    <desc>Created with Sketch.</desc>
    <defs></defs>
    <g id="首页" stroke="none" stroke-width="1" fill="none" fill-rule="evenodd" transform="translate(-222.000000, -3617.000000)">
        <g id="assessed-Badge-Copy-2" transform="translate(222.000000, 3617.000000)" stroke="#33D2D0" stroke-width="2.5">
            <g id="Group-36" transform="translate(1.000000, 2.000000)">
                <path d="M32.116818,2.31762383 L25.8540207,8.58042114 L16.9970878,8.58042114 C15.4783047,8.58042114 14.2470878,9.81163807 14.2470878,11.3304211 L14.2470878,20.187354 L7.98429049,26.4501513 C6.91034869,27.5240931 6.91034869,29.2652968 7.98429049,30.3392386 L14.2470878,36.6020359 L14.2470878,45.4589688 C14.2470878,46.9777519 15.4783047,48.2089688 16.9970878,48.2089688 L25.3362537,48.2089688 L25.8540207,48.2089688 L32.116818,54.4717661 C33.1907598,55.5457079 34.9319635,55.5457079 36.0059053,54.4717661 L42.2687026,48.2089688 L51.1256355,48.2089688 C52.6444186,48.2089688 53.8756355,46.9777519 53.8756355,45.4589688 L53.8756355,36.6020359 L60.1384328,30.3392386 C61.2123746,29.2652968 61.2123746,27.5240931 60.1384328,26.4501513 L53.8756355,20.187354 L53.8756355,11.3304211 C53.8756355,9.81163807 52.6444186,8.58042114 51.1256355,8.58042114 L42.2687026,8.58042114 L36.0059053,2.31762383 C34.9319635,1.24368203 33.1907598,1.24368203 32.116818,2.31762383 Z" id="Combined-Shape"></path>
                <path d="M41.5555556,48.1666667 L53.6077408,61.5101575 C53.9779297,61.9200094 54.6102777,61.9521627 55.0201297,61.5819738 C55.1520885,61.4627853 55.2498797,61.3105662 55.3034261,61.1410026 L57.4654738,54.2945183 C57.5574683,54.0032022 57.7775785,53.7699172 58.0630611,53.6611619 L66.1647095,50.5748197 C66.6808128,50.3782089 66.9398126,49.8004399 66.7432019,49.2843366 C66.6993094,49.1691189 66.6344883,49.0630117 66.5520083,48.9713672 L54.7777778,35.8888889" id="Path-3"></path>
                <path d="M0,48.1666667 L12.0521852,61.5101575 C12.4223741,61.9200094 13.0547222,61.9521627 13.4645741,61.5819738 C13.5965329,61.4627853 13.6943241,61.3105662 13.7478705,61.1410026 L15.9099182,54.2945183 C16.0019128,54.0032022 16.2220229,53.7699172 16.5075055,53.6611619 L24.6091539,50.5748197 C25.1252572,50.3782089 25.3842571,49.8004399 25.1876463,49.2843366 C25.1437539,49.1691189 25.0789327,49.0630117 24.9964527,48.9713672 L13.2222222,35.8888889" id="Path-3-Copy" transform="translate(12.986111, 49.347222) scale(-1, 1) translate(-12.986111, -49.347222) "></path>
            </g>
        </g>
    </g>
</svg>