<?xml version="1.0" encoding="UTF-8"?>
<svg width="274px" height="78px" viewBox="0 0 274 78" version="1.1" xmlns="http://www.w3.org/2000/svg" xmlns:xlink="http://www.w3.org/1999/xlink">
    <!-- Generator: Sketch 48.2 (47327) - http://www.bohemiancoding.com/sketch -->
    <title>关于我们 copy</title>
    <desc>Created with Sketch.</desc>
    <defs></defs>
    <g id="首页" stroke="none" stroke-width="1" fill="none" fill-rule="evenodd" transform="translate(-122.000000, -3445.000000)">
        <g id="Group-32-Copy" transform="translate(121.000000, 3445.000000)" fill="#FFFFFF">
            <path d="M0.58,60.84 L17.38,60.84 L17.38,61.54 L6.6,61.54 L5.64,65.56 L14.42,65.56 L12.72,76.48 L17.96,76.48 L17.96,77.14 L0.28,77.14 L0.28,76.48 L12.04,76.48 L12.74,72.1 L3.38,72.1 L5.88,61.54 L0.58,61.54 L0.58,60.84 Z M12.84,71.44 L13.68,66.22 L5.48,66.22 L4.22,71.44 L12.84,71.44 Z M28.3,64.34 L33.36,64.34 C34.18,62.94 34.86,61.44 35.42,59.82 L36.06,60.06 C35.4,61.8 34.72,63.22 34.04,64.34 L37.5,64.34 L37.5,65.02 L33.14,65.02 L33.14,66.02 C33.14,67.14 33.06,68.2 32.94,69.2 L37.84,69.2 L37.84,69.88 L33.28,69.88 C33.74,72.32 35.34,74.82 38.1,77.36 L37.64,77.84 C34.84,75.24 33.22,72.66 32.78,70.12 C32.1,73.7 30.48,76.3 27.92,77.9 L27.5,77.36 C29.98,75.86 31.54,73.36 32.16,69.88 L28,69.88 L28,69.2 L32.26,69.2 C32.4,68.24 32.48,67.24 32.48,66.18 L32.48,65.02 L28.3,65.02 L28.3,64.34 Z M29.86,60 C30.72,61.22 31.38,62.28 31.86,63.18 L31.32,63.56 C30.84,62.58 30.18,61.5 29.32,60.34 L29.86,60 Z M20.02,60.8 L27.8,60.8 L27.8,61.46 L26.22,61.46 L26.22,73.26 C26.78,73.1 27.32,72.92 27.84,72.76 L27.84,73.44 L26.22,73.92 L26.22,78.1 L25.56,78.1 L25.56,74.1 C23.86,74.56 22.08,74.96 20.24,75.28 L20.06,74.64 C20.54,74.56 21.02,74.46 21.5,74.38 L21.5,61.46 L20.02,61.46 L20.02,60.8 Z M22.16,74.24 C23.32,74.02 24.46,73.76 25.56,73.46 L25.56,69.9 L22.16,69.9 L22.16,74.24 Z M22.16,69.26 L25.56,69.26 L25.56,65.74 L22.16,65.74 L22.16,69.26 Z M22.16,65.08 L25.56,65.08 L25.56,61.46 L22.16,61.46 L22.16,65.08 Z M48.76,73.48 C47.9,72.16 47.08,70.96 46.32,69.9 C45.52,72.08 44.52,73.94 43.36,75.46 L42.9,74.94 C44.1,73.32 45.08,71.42 45.84,69.24 C44.74,67.76 43.72,66.5 42.76,65.46 L43.2,65.02 C44.1,65.96 45.06,67.12 46.1,68.5 C46.62,66.86 47.02,65.08 47.32,63.18 L47.96,63.3 C47.6,65.46 47.14,67.4 46.58,69.14 C47.42,70.3 48.3,71.6 49.22,73.02 L48.76,73.48 Z M54.78,74.36 C53.88,72.88 53.04,71.52 52.24,70.32 C51.38,72.52 50.32,74.4 49.08,75.94 L48.64,75.44 C49.92,73.8 50.98,71.86 51.8,69.66 C50.7,68.06 49.68,66.7 48.72,65.62 L49.2,65.18 C50.08,66.18 51.04,67.42 52.06,68.9 C52.64,67.16 53.1,65.28 53.42,63.24 L54.08,63.36 C53.68,65.66 53.16,67.74 52.52,69.58 C53.38,70.86 54.28,72.3 55.24,73.9 L54.78,74.36 Z M55.26,77.78 L53.2,77.78 L53.02,77.1 L55.04,77.14 C55.68,77.14 56,76.8 56,76.12 L56,61.44 L42,61.44 L42,77.82 L41.3,77.82 L41.3,60.76 L56.7,60.76 L56.7,76.28 C56.7,77.28 56.22,77.78 55.26,77.78 Z M60.68,61.48 L64.5,61.48 L64.5,59.72 L65.18,59.72 L65.18,61.48 L72.8,61.48 L72.8,59.72 L73.48,59.72 L73.48,61.48 L77.3,61.48 L77.3,62.1 L73.48,62.1 L73.48,69.32 L77.62,69.32 L77.62,69.96 L72.92,69.96 C73.92,71.48 75.58,72.68 77.9,73.54 L77.62,74.14 C75.02,73.08 73.24,71.68 72.24,69.96 L65.7,69.96 C64.7,71.72 62.96,73.18 60.52,74.3 L60.16,73.72 C62.44,72.76 64.06,71.5 65.04,69.96 L60.36,69.96 L60.36,69.32 L64.5,69.32 L64.5,62.1 L60.68,62.1 L60.68,61.48 Z M65.18,69.32 L72.8,69.32 L72.8,67.28 L65.18,67.28 L65.18,69.32 Z M65.18,66.66 L72.8,66.66 L72.8,64.72 L65.18,64.72 L65.18,66.66 Z M65.18,64.12 L72.8,64.12 L72.8,62.1 L65.18,62.1 L65.18,64.12 Z M68.66,70.98 L69.34,70.98 L69.34,72.9 L73.66,72.9 L73.66,73.52 L69.34,73.52 L69.34,76.52 L76.46,76.52 L76.46,77.2 L61.4,77.2 L61.4,76.52 L68.66,76.52 L68.66,73.52 L64.3,73.52 L64.3,72.9 L68.66,72.9 L68.66,70.98 Z M83.34,66.1 L88.62,66.1 C88.76,65.08 88.84,63.98 88.84,62.8 L89.52,62.8 C89.52,64 89.46,65.1 89.34,66.1 L94.66,66.1 L94.66,66.78 L89.24,66.78 C89.14,67.38 89.02,67.94 88.88,68.46 C91.16,70.3 93.08,72.16 94.62,74.04 L94.14,74.54 C92.74,72.8 90.94,70.96 88.7,69.04 L88.7,69.06 C87.9,71.34 86.2,73.18 83.6,74.58 L83.16,74.04 C85.52,72.8 87.12,71.16 87.92,69.14 C88.16,68.42 88.36,67.62 88.52,66.78 L83.34,66.78 L83.34,66.1 Z M96.74,60.92 L96.74,77.86 L96.06,77.86 L96.06,76.76 L81.94,76.76 L81.94,77.86 L81.26,77.86 L81.26,60.92 L96.74,60.92 Z M81.94,76.08 L96.06,76.08 L96.06,61.6 L81.94,61.6 L81.94,76.08 Z M114.68,66.92 L109.54,66.92 L109.54,76.28 C109.54,76.68 109.76,76.88 110.24,76.88 L114.62,76.88 C115.44,76.88 115.96,76.68 116.16,76.32 C116.38,75.84 116.54,75 116.62,73.76 L117.28,73.98 C117.16,75.58 116.92,76.62 116.54,77.06 C116.22,77.38 115.62,77.54 114.7,77.54 L110.1,77.54 C109.26,77.54 108.84,77.16 108.84,76.4 L108.84,66.3 L115.36,66.3 L115.36,71.3 C115.34,72.32 114.86,72.84 113.9,72.86 C113.16,72.86 112.44,72.82 111.72,72.78 L111.52,72.14 C112.28,72.18 113.04,72.22 113.76,72.22 C114.36,72.22 114.68,71.88 114.68,71.2 L114.68,66.92 Z M112.02,60.06 L112.58,60.06 C114.26,61.88 115.96,63.86 117.64,66 L117.18,66.48 C115.42,64.2 113.8,62.28 112.36,60.7 C110.72,63.1 108.9,65.22 106.92,67.02 L106.52,66.48 C108.56,64.64 110.38,62.5 112.02,60.06 Z M119.24,61.52 L119.92,61.52 L119.92,74.16 L119.24,74.16 L119.24,61.52 Z M122.42,77.72 L119.18,77.72 L119.04,77.06 C120.14,77.1 121.18,77.12 122.18,77.12 C122.7,77.12 122.98,76.8 122.98,76.18 L122.98,59.82 L123.66,59.82 L123.66,76.36 C123.66,77.26 123.24,77.72 122.42,77.72 Z M143.6,60.04 L143.94,60.66 C142.14,61.5 140.1,61.98 137.82,62.1 L137.82,66.36 L144.78,66.36 L144.78,67.02 L142.4,67.02 L142.4,78.02 L141.74,78.02 L141.74,67.02 L137.82,67.02 L137.82,69.96 C137.72,73.28 136.98,75.92 135.6,77.9 L135.1,77.38 C136.36,75.6 137.04,73.12 137.14,69.96 L137.14,61.54 C139.5,61.48 141.66,60.98 143.6,60.04 Z M126.96,61.72 L131.18,61.72 C130.86,60.92 130.5,60.22 130.1,59.6 L130.82,59.48 C131.18,60.12 131.54,60.88 131.86,61.72 L135.8,61.72 L135.8,62.4 L126.96,62.4 L126.96,61.72 Z M126.78,66.26 L129.36,66.26 C129.04,65.3 128.6,64.4 128.04,63.56 L128.68,63.34 C129.18,64.14 129.62,65.12 130.02,66.26 L132.62,66.26 C133.18,65.3 133.64,64.3 134.04,63.24 L134.68,63.46 C134.26,64.5 133.78,65.44 133.26,66.26 L135.94,66.26 L135.94,66.92 L131.8,66.92 L131.8,69.86 L135.58,69.86 L135.58,70.5 L131.8,70.5 L131.8,76.64 C131.8,77.54 131.34,78 130.44,78 L129.32,78 L129.18,77.34 C129.54,77.36 129.9,77.38 130.22,77.38 C130.82,77.38 131.12,77.08 131.12,76.5 L131.12,70.5 L127.06,70.5 L127.06,69.86 L131.12,69.86 L131.12,66.92 L126.78,66.92 L126.78,66.26 Z M128.82,71.92 L129.48,72.06 C128.9,74.08 128.08,75.84 127.02,77.34 L126.44,76.96 C127.5,75.52 128.3,73.84 128.82,71.92 Z M133.7,71.76 C134.44,73.12 135,74.36 135.4,75.48 L134.82,75.7 C134.34,74.42 133.78,73.16 133.1,71.92 L133.7,71.76 Z M162.34,63.24 L162.34,76.2 L164.14,76.2 L164.14,76.88 L147.18,76.88 L147.18,76.2 L149.02,76.2 L149.02,63.24 L153.54,63.24 C154.1,62.2 154.52,61.08 154.78,59.9 L155.5,60 C155.22,61.18 154.82,62.26 154.28,63.24 L162.34,63.24 Z M149.68,76.2 L153.22,76.2 L153.22,63.92 L149.68,63.92 L149.68,76.2 Z M153.88,76.2 L157.46,76.2 L157.46,63.92 L153.88,63.92 L153.88,76.2 Z M158.12,76.2 L161.68,76.2 L161.68,63.92 L158.12,63.92 L158.12,76.2 Z M167.7,60.22 C169.08,61.22 170.24,62.24 171.16,63.26 L170.68,63.72 C169.8,62.76 168.64,61.76 167.22,60.68 L167.7,60.22 Z M167.54,64.94 C168.86,65.94 169.96,66.92 170.86,67.92 L170.38,68.4 C169.54,67.44 168.44,66.44 167.06,65.4 L167.54,64.94 Z M169.86,70.5 L170.44,70.74 C169.62,73.22 168.7,75.56 167.68,77.74 L167,77.46 C168.1,75.18 169.06,72.86 169.86,70.5 Z M171.86,62.06 L177.8,62.06 C177.48,61.18 177.1,60.4 176.7,59.72 L177.38,59.6 C177.78,60.32 178.14,61.14 178.48,62.06 L184.42,62.06 L184.42,62.72 L171.86,62.72 L171.86,62.06 Z M173.68,68.72 C173.04,69.84 172.26,70.86 171.36,71.78 L170.96,71.24 C172.9,69.2 174.22,66.68 174.92,63.72 L175.58,63.8 C175.28,65.12 174.86,66.36 174.32,67.52 L174.32,77.96 L173.68,77.96 L173.68,68.72 Z M179.44,68.26 C180.3,68.92 181.04,69.58 181.64,70.26 C182.1,69.1 182.44,67.84 182.66,66.52 L178.78,66.52 C178.44,67.52 178.04,68.42 177.6,69.24 C178.18,70.86 178.94,72.26 179.88,73.46 C180.48,72.64 180.98,71.78 181.4,70.86 C180.76,70.14 179.96,69.42 179,68.66 L179.44,68.26 Z M178.8,63.72 L179.48,63.86 C179.34,64.58 179.18,65.24 178.98,65.88 L183.32,65.88 L183.32,66.46 C182.82,69.46 181.82,71.96 180.3,73.96 C181.54,75.44 183.06,76.56 184.88,77.32 L184.5,77.9 C182.66,77.08 181.12,75.94 179.9,74.48 C178.78,75.82 177.4,76.92 175.8,77.78 L175.46,77.2 C177.06,76.34 178.4,75.26 179.48,73.98 C178.56,72.8 177.8,71.44 177.22,69.9 C176.8,70.54 176.36,71.14 175.88,71.66 L175.44,71.14 C177.1,69.32 178.22,66.84 178.8,63.72 Z M195.42,77.68 L193.78,77.68 L193.64,77.02 C194.18,77.06 194.7,77.08 195.18,77.08 C195.84,77.08 196.18,76.72 196.18,76.04 L196.18,70.38 C195.24,70.78 194.28,71.14 193.3,71.46 L193.14,70.78 C194.18,70.48 195.2,70.12 196.18,69.72 L196.18,64.36 L193.5,64.36 L193.5,63.7 L196.18,63.7 L196.18,59.78 L196.86,59.78 L196.86,63.7 L199.24,63.7 L199.24,64.36 L196.86,64.36 L196.86,69.42 C197.7,69.02 198.52,68.6 199.32,68.14 L199.32,68.8 C198.52,69.26 197.7,69.68 196.86,70.08 L196.86,76.2 C196.86,77.18 196.38,77.68 195.42,77.68 Z M200.2,62.92 L205.22,62.92 L205.22,59.8 L205.9,59.8 L205.9,62.92 L210.94,62.92 L210.94,63.58 L205.9,63.58 L205.9,67.5 L210.12,67.5 L210.12,68.14 C209.32,70.52 208.02,72.52 206.26,74.16 C207.7,75.4 209.46,76.46 211.54,77.34 L211.18,77.9 C209.02,76.94 207.22,75.82 205.8,74.58 C204.16,75.98 202.16,77.1 199.8,77.94 L199.46,77.34 C201.8,76.54 203.76,75.46 205.32,74.14 C203.48,72.42 202.26,70.42 201.64,68.18 L200.56,68.18 L200.56,67.5 L205.22,67.5 L205.22,63.58 L200.2,63.58 L200.2,62.92 Z M202.3,68.18 C202.9,70.3 204.06,72.14 205.78,73.74 C207.44,72.18 208.66,70.34 209.42,68.18 L202.3,68.18 Z M213.94,64.76 L221.98,64.76 L221.98,59.72 L222.66,59.72 L222.66,64.76 L230.72,64.76 L230.72,65.42 L223.64,65.42 C225.04,69.1 227.58,72.36 231.28,75.2 L230.84,75.76 C227,72.7 224.38,69.26 222.98,65.42 L222.66,65.42 L222.66,77.86 L221.98,77.86 L221.98,65.42 L221.68,65.42 C220.16,69.74 217.48,73.26 213.64,75.98 L213.28,75.38 C216.92,72.86 219.5,69.54 221,65.42 L213.94,65.42 L213.94,64.76 Z M225.84,59.78 C227.14,61.08 228.12,62.24 228.8,63.24 L228.26,63.62 C227.54,62.54 226.56,61.38 225.3,60.12 L225.84,59.78 Z M242.68,76.48 L251.46,76.48 L251.46,77.12 L242,77.12 L242,60.92 L251.2,60.92 L251.2,61.58 L242.68,61.58 L242.68,76.48 Z M244.3,64.26 C245.48,65.7 246.58,67.16 247.6,68.62 C248.36,66.9 248.94,65.02 249.36,62.98 L250,63.1 C249.5,65.38 248.84,67.42 248,69.22 C249.1,70.82 250.08,72.4 250.94,73.98 L250.46,74.46 C249.64,72.96 248.72,71.44 247.68,69.88 C246.76,71.68 245.64,73.24 244.36,74.54 L243.92,74.04 C245.24,72.68 246.36,71.1 247.28,69.28 C246.24,67.76 245.08,66.24 243.84,64.7 L244.3,64.26 Z M238.96,61.58 L233.52,61.58 L233.52,60.9 L239.66,60.9 L238.64,69.14 L240.26,69.14 C240.26,73.46 240.06,75.96 239.68,76.64 C239.32,77.28 238.52,77.62 237.28,77.62 C236.76,77.62 236.22,77.6 235.66,77.6 L235.46,76.98 C236.26,77.02 236.8,77.04 237.12,77.04 C238.3,77.04 239,76.68 239.24,76 C239.46,75.28 239.58,73.22 239.58,69.78 L234.1,69.78 L235.04,63.24 L235.68,63.3 L234.8,69.14 L237.96,69.14 L238.96,61.58 Z M238.16,72.22 L238.16,72.88 C236.72,73.32 235.06,73.66 233.22,73.94 L233.12,73.28 C235.04,73.02 236.72,72.66 238.16,72.22 Z M254.26,61.42 L261.22,61.42 L261.22,62.08 L254.26,62.08 L254.26,61.42 Z M253.44,66.82 L262.02,66.82 L262.02,67.5 L257.22,67.5 C256.22,71.14 255.36,73.58 254.66,74.84 C256.64,74.52 258.62,73.98 260.58,73.22 C260,71.98 259.4,70.86 258.8,69.84 L259.4,69.54 C260.4,71.3 261.34,73.18 262.22,75.22 L261.62,75.52 C261.36,74.92 261.1,74.34 260.86,73.78 C258.7,74.56 256.34,75.18 253.8,75.66 L253.64,75 C253.7,74.98 253.74,74.96 253.78,74.94 C254.48,74.06 255.4,71.58 256.56,67.5 L253.44,67.5 L253.44,66.82 Z M265.5,59.82 L266.18,59.82 L266.18,64.12 L270.62,64.12 C270.62,69.96 270.52,73.58 270.34,74.98 C270.16,76.78 269.28,77.68 267.7,77.68 C267.34,77.68 266.72,77.66 265.84,77.64 L265.68,77.02 C266.44,77.04 267.12,77.06 267.68,77.06 C268.82,77.06 269.48,76.32 269.66,74.88 C269.82,73.64 269.92,70.28 269.96,64.8 L266.18,64.8 L266.18,65.14 C266.12,70.94 264.72,75.16 261.98,77.84 L261.46,77.4 C264.1,74.86 265.46,70.78 265.5,65.14 L265.5,64.8 L262.52,64.8 L262.52,64.12 L265.5,64.12 L265.5,59.82 Z" id="互联网基因-创新血液-技术驱动"></path>
            <path d="M11.18,1.022 C13.028,3.332 14.75,5.852 16.262,8.582 L15.002,9.212 C13.364,6.398 11.642,3.878 9.878,1.694 L11.18,1.022 Z M28.652,0.602 L30.038,0.98 C28.904,4.424 27.434,7.49 25.67,10.178 L35.372,10.178 L35.372,11.606 L20.714,11.606 L20.714,14.672 C20.714,16.898 20.504,18.998 20.126,20.93 L37.808,20.93 L37.808,22.358 L21.596,22.358 C23.738,28.952 29.45,34.034 38.774,37.604 L37.976,38.864 C28.19,34.916 22.226,29.414 20.126,22.358 L19.832,22.358 C19.076,25.382 17.9,27.986 16.262,30.212 C13.448,33.824 8.786,36.638 2.276,38.738 L1.478,37.52 C7.862,35.504 12.524,32.69 15.38,29.036 C16.724,27.104 17.69,24.878 18.362,22.358 L2.192,22.358 L2.192,20.93 L18.656,20.93 C19.034,18.998 19.244,16.898 19.286,14.672 L19.286,11.606 L4.586,11.606 L4.586,10.178 L24.074,10.178 C25.796,7.574 27.308,4.382 28.652,0.602 Z M46.292,2.912 L77.414,2.912 L77.414,4.34 L63.092,4.34 L63.092,17.654 L80.354,17.654 L80.354,19.124 L63.092,19.124 L63.092,35 C63.092,37.394 61.874,38.612 59.48,38.612 L53.138,38.612 L52.844,37.184 C54.986,37.268 57.044,37.31 59.018,37.31 C60.782,37.31 61.664,36.428 61.664,34.664 L61.664,19.124 L43.646,19.124 L43.646,17.654 L61.664,17.654 L61.664,4.34 L46.292,4.34 L46.292,2.912 Z M104.462,20.888 L104.462,22.358 C101.774,23.282 98.96,24.122 95.978,24.878 L95.978,35.504 C95.978,37.436 94.928,38.444 92.828,38.444 L88.25,38.444 L87.956,37.058 C89.468,37.142 90.938,37.184 92.366,37.184 C93.794,37.184 94.55,36.47 94.55,35.126 L94.55,25.214 C91.61,25.886 88.544,26.516 85.352,27.02 L85.142,25.634 C88.46,25.088 91.61,24.458 94.55,23.786 L94.55,14.336 L85.268,14.336 L85.268,12.95 L94.55,12.95 L94.55,5.348 C92.114,5.852 89.51,6.314 86.78,6.65 L86.486,5.264 C92.66,4.55 98.078,3.29 102.698,1.526 L103.202,2.912 C100.976,3.71 98.582,4.424 95.978,5.012 L95.978,12.95 L107.822,12.95 C107.57,9.338 107.444,5.348 107.444,0.98 L108.872,0.98 C108.872,5.474 108.998,9.464 109.25,12.95 L122.732,12.95 L122.732,14.336 L109.376,14.336 C109.67,17.738 110.09,20.636 110.678,23.03 C111.014,24.542 111.434,25.928 111.854,27.188 C114.29,24.458 116.432,21.266 118.196,17.57 L119.456,18.242 C117.524,22.316 115.172,25.802 112.4,28.7 C113.114,30.548 113.912,32.186 114.794,33.53 C116.348,35.714 117.65,36.848 118.658,36.848 C119.918,36.806 120.926,34.16 121.766,28.868 L123.026,29.54 C122.06,35.42 120.674,38.36 118.91,38.36 C117.314,38.36 115.634,37.058 113.786,34.538 C112.862,33.152 112.022,31.556 111.308,29.792 C108.074,32.9 104.336,35.294 100.136,36.974 L99.338,35.714 C103.706,34.034 107.528,31.598 110.762,28.322 C110.174,26.726 109.67,25.046 109.25,23.198 C108.662,20.636 108.242,17.696 107.948,14.336 L95.978,14.336 L95.978,23.45 C99.002,22.694 101.858,21.812 104.462,20.888 Z M113.492,1.568 C116.6,3.752 119.162,5.936 121.262,8.162 L120.254,9.17 C118.28,7.07 115.676,4.844 112.484,2.492 L113.492,1.568 Z M159.566,38.738 L155.282,38.738 L154.904,37.352 L159.272,37.394 C160.784,37.394 161.54,36.47 161.54,34.664 L161.54,5.558 L150.536,5.558 L150.536,4.172 L162.968,4.172 L162.968,35.042 C162.968,37.478 161.834,38.738 159.566,38.738 Z M143.564,0.938 C145.706,3.542 147.344,5.81 148.52,7.784 L147.386,8.624 C146.168,6.482 144.53,4.172 142.43,1.652 L143.564,0.938 Z M137.18,0.812 L138.482,1.4 C137.306,4.886 135.878,8.12 134.156,11.102 L134.156,39.116 L132.728,39.116 L132.728,13.412 C131.048,15.932 129.2,18.242 127.142,20.384 L126.68,18.914 C131.594,13.496 135.08,7.448 137.18,0.812 Z M140.792,8.036 L142.22,8.036 L142.22,38.948 L140.792,38.948 L140.792,8.036 Z" id="关于我们"></path>
        </g>
    </g>
</svg>