<?xml version="1.0" encoding="UTF-8"?>
<svg width="336px" height="79px" viewBox="0 0 336 79" version="1.1" xmlns="http://www.w3.org/2000/svg" xmlns:xlink="http://www.w3.org/1999/xlink">
    <!-- Generator: Sketch 48.2 (47327) - http://www.bohemiancoding.com/sketch -->
    <title>商务合作</title>
    <desc>Created with Sketch.</desc>
    <defs></defs>
    <g id="首页" stroke="none" stroke-width="1" fill="none" fill-rule="evenodd" transform="translate(-120.000000, -5021.000000)">
        <g id="Group-34-Copy" transform="translate(118.000000, 5021.000000)" fill="#333333">
            <path d="M10.24,60.78 L17.18,60.78 L17.18,70.06 L10.24,70.06 L10.24,60.78 Z M16.5,69.42 L16.5,67.14 L10.92,67.14 L10.92,69.42 L16.5,69.42 Z M10.92,66.52 L16.5,66.52 L16.5,64.34 L10.92,64.34 L10.92,66.52 Z M10.92,63.7 L16.5,63.7 L16.5,61.42 L10.92,61.42 L10.92,63.7 Z M5.6,65.06 L5.6,70.58 L4.92,70.58 L4.92,64.2 C3.98,66.2 2.7,68.02 1.1,69.64 L0.82,68.98 C2.58,67.32 3.94,65.36 4.86,63.12 L1.3,63.12 L1.3,62.44 L4.92,62.44 L4.92,60 L5.6,60 L5.6,62.44 L8.56,62.44 L8.56,63.12 L5.6,63.12 L5.6,64.4 C6.72,65.28 7.86,66.26 9.02,67.38 L8.62,67.96 C7.46,66.72 6.44,65.76 5.6,65.06 Z M3.44,71.9 L4.1,72.06 C3.54,73.98 2.76,75.62 1.76,77 L1.16,76.62 C2.18,75.26 2.94,73.7 3.44,71.9 Z M12.42,77.48 L7.62,77.48 C6.6,77.48 6.1,76.94 6.1,75.86 L6.1,71.58 L6.78,71.58 L6.78,75.72 C6.78,76.44 7.12,76.8 7.84,76.8 L12.3,76.8 C12.94,76.8 13.36,76.68 13.6,76.48 C13.94,76.14 14.16,75.24 14.28,73.78 L14.92,73.98 C14.8,75.58 14.54,76.6 14.1,77.02 C13.78,77.32 13.22,77.48 12.42,77.48 Z M9.52,71.3 C10.56,72.4 11.38,73.36 11.94,74.18 L11.38,74.58 C10.78,73.7 9.98,72.72 8.98,71.66 L9.52,71.3 Z M15.8,71.5 C17.18,73.24 18.24,74.76 18.96,76.08 L18.4,76.48 C17.64,75.08 16.58,73.52 15.26,71.84 L15.8,71.5 Z M29.98,66.46 C32.16,65.14 34.22,63.62 36.14,61.86 L22.46,61.86 L22.46,61.2 L37.08,61.2 L37.08,61.86 C35.2,63.62 33.04,65.26 30.64,66.82 L30.64,76.3 C30.64,77.26 30.14,77.74 29.14,77.74 C27.94,77.74 26.88,77.72 26,77.7 L25.8,77.02 C26.76,77.06 27.82,77.08 28.94,77.08 C29.62,77.08 29.98,76.76 29.98,76.16 L29.98,66.46 Z M51.68,70.06 C51.32,70.88 50.88,71.58 50.36,72.14 L49.94,71.64 C50.84,70.64 51.46,69.28 51.8,67.56 L52.4,67.68 C52.28,68.32 52.12,68.9 51.94,69.42 L54.44,69.42 L54.44,67.34 L55.1,67.34 L55.1,69.42 L58.46,69.42 L58.46,70.06 L55.1,70.06 L55.1,73.16 L58.88,73.16 L58.88,73.82 L55.1,73.82 L55.1,77.96 L54.44,77.96 L54.44,73.82 L49.94,73.82 L49.94,73.16 L54.44,73.16 L54.44,70.06 L51.68,70.06 Z M53.1,61.8 L50.12,61.8 L50.12,61.2 L58.06,61.2 C58.04,63.7 57.88,65.2 57.58,65.68 C57.28,66.16 56.76,66.42 56,66.42 C55.52,66.42 54.96,66.4 54.32,66.4 L54.14,65.76 C54.82,65.8 55.38,65.82 55.84,65.82 C56.5,65.8 56.92,65.58 57.1,65.16 C57.26,64.72 57.36,63.6 57.4,61.8 L53.76,61.8 C53.58,62.86 53.28,63.76 52.84,64.48 C52.32,65.3 51.58,66.04 50.58,66.7 L50.2,66.16 C51.18,65.54 51.9,64.82 52.38,63.98 C52.74,63.32 52.98,62.6 53.1,61.8 Z M42.94,69.08 L42.94,71.54 C42.94,71.78 42.92,72.04 42.92,72.28 L45.4,72.28 L45.4,69.08 L42.94,69.08 Z M42.88,72.9 C42.72,74.98 42.26,76.7 41.46,78.06 L40.98,77.6 C41.82,76.02 42.26,74.02 42.3,71.58 L42.3,64.72 L45.62,64.72 C46.22,63.92 46.78,63.04 47.28,62.06 L43.88,62.06 C43.24,63.34 42.46,64.46 41.54,65.46 L41.12,64.96 C42.44,63.5 43.46,61.72 44.18,59.64 L44.82,59.8 C44.62,60.36 44.4,60.92 44.16,61.44 L48.02,61.44 L48.02,61.96 C47.46,63.08 46.92,64 46.38,64.72 L49.16,64.72 L49.16,76.54 C49.16,77.36 48.78,77.78 48.02,77.78 L46.62,77.78 L46.46,77.16 C46.94,77.18 47.4,77.2 47.8,77.2 C48.28,77.2 48.54,76.9 48.54,76.32 L48.54,72.9 L46.02,72.9 L46.02,77.72 L45.4,77.72 L45.4,72.9 L42.88,72.9 Z M48.54,72.28 L48.54,69.08 L46.02,69.08 L46.02,72.28 L48.54,72.28 Z M48.54,68.44 L48.54,65.34 L46.02,65.34 L46.02,68.44 L48.54,68.44 Z M45.4,65.34 L42.94,65.34 L42.94,68.44 L45.4,68.44 L45.4,65.34 Z M61.62,60.74 L78.4,60.74 L78.4,61.4 L70.36,61.4 L70.36,63.7 L76.68,63.7 L76.68,71.14 L70.18,71.14 C69.94,72.72 69.46,73.96 68.76,74.86 C71.66,76.22 75.12,76.98 79.14,77.14 L78.96,77.78 C74.84,77.62 71.28,76.8 68.32,75.34 C67,76.62 64.68,77.44 61.36,77.84 L61.06,77.22 C64.24,76.88 66.46,76.16 67.7,75.04 C66.34,74.3 65.1,73.44 64.02,72.48 L64.56,72.1 C65.64,73.06 66.82,73.88 68.14,74.56 C68.82,73.68 69.26,72.54 69.5,71.14 L63.4,71.14 L63.4,63.7 L69.68,63.7 L69.68,61.4 L61.62,61.4 L61.62,60.74 Z M76.02,70.52 L76.02,67.7 L70.36,67.7 L70.36,68.78 C70.34,69.4 70.3,69.98 70.26,70.52 L76.02,70.52 Z M69.58,70.52 C69.64,69.96 69.68,69.38 69.68,68.78 L69.68,67.7 L64.08,67.7 L64.08,70.52 L69.58,70.52 Z M64.08,67.08 L69.68,67.08 L69.68,64.34 L64.08,64.34 L64.08,67.08 Z M70.36,64.34 L70.36,67.08 L76.02,67.08 L76.02,64.34 L70.36,64.34 Z M90.26,59.78 L90.86,60.1 C90.32,60.7 89.72,61.26 89.08,61.74 L95.52,61.74 L95.52,62.32 C93.36,66.16 89.34,68.3 83.5,68.74 L83.18,68.1 C85.22,67.96 87.02,67.62 88.6,67.1 C87.88,66.18 87.12,65.38 86.32,64.68 L86.92,64.38 C87.76,65.14 88.54,65.98 89.24,66.86 C91.64,65.88 93.48,64.38 94.72,62.38 L88.16,62.38 C86.6,63.34 84.74,64.04 82.56,64.52 L82.16,63.92 C85.76,63.2 88.46,61.82 90.26,59.78 Z M88.78,72.24 C89.64,73.12 90.44,74.1 91.2,75.14 C93.8,74.04 95.8,72.38 97.2,70.18 L90.66,70.18 C88.86,71.08 86.7,71.7 84.18,72.06 L83.78,71.46 C88.14,70.98 91.38,69.6 93.52,67.3 L94.1,67.64 C93.44,68.34 92.68,68.96 91.84,69.52 L98.06,69.52 L98.06,70.08 C95.26,74.88 90.02,77.34 82.32,77.48 L82.04,76.8 C85.36,76.76 88.2,76.28 90.58,75.4 C89.8,74.32 89,73.38 88.16,72.54 L88.78,72.24 Z M119.3,59.74 L119.96,59.74 L119.96,61.3 L125.16,61.3 L125.16,61.9 L119.96,61.9 L119.96,63.8 L124.42,63.8 L124.42,64.4 L119.96,64.4 L119.96,66.32 L125.7,66.32 L125.7,66.94 L113.62,66.94 L113.62,66.32 L119.3,66.32 L119.3,64.4 L114.94,64.4 L114.94,63.8 L119.3,63.8 L119.3,61.9 L114.16,61.9 L114.16,61.3 L119.3,61.3 L119.3,59.74 Z M116,71.98 L116,74 L123.34,74 L123.34,71.98 L116,71.98 Z M123.34,71.4 L123.34,69.36 L116,69.36 L116,71.4 L123.34,71.4 Z M116,74.6 L116,77.9 L115.34,77.9 L115.34,68.74 L124,68.74 L124,76.54 C124,77.38 123.52,77.8 122.6,77.8 L120.92,77.8 L120.74,77.14 L122.4,77.18 C123.02,77.18 123.34,76.92 123.34,76.4 L123.34,74.6 L116,74.6 Z M109.56,60.06 C110.98,61.12 112.18,62.18 113.14,63.24 L112.68,63.74 C111.76,62.72 110.56,61.64 109.08,60.52 L109.56,60.06 Z M107.62,66.12 L111.38,66.12 L111.38,75.62 C112.14,74.98 112.94,74.2 113.78,73.28 L113.96,74.02 C112.92,75.14 111.8,76.14 110.64,77.02 L110.34,76.42 C110.58,76.18 110.72,75.96 110.72,75.76 L110.72,66.8 L107.62,66.8 L107.62,66.12 Z M130.26,67.74 L130.26,71.54 L136,71.54 L136,67.74 L130.26,67.74 Z M136,72.18 L130.26,72.18 L130.26,74.08 L129.58,74.08 L129.58,62.78 L136,62.78 L136,59.8 L136.66,59.8 L136.66,62.78 L143.2,62.78 L143.2,72.18 L136.66,72.18 L136.66,75.38 C136.66,76.42 137.14,76.94 138.12,76.94 L143.02,76.94 C143.66,76.94 144.12,76.8 144.4,76.56 C144.66,76.3 144.84,75.4 144.94,73.84 L145.58,74.06 C145.46,75.72 145.24,76.74 144.92,77.1 C144.6,77.42 144,77.6 143.12,77.6 L137.96,77.6 C136.64,77.6 136,76.88 136,75.48 L136,72.18 Z M136.66,71.54 L142.54,71.54 L142.54,67.74 L136.66,67.74 L136.66,71.54 Z M142.54,67.1 L142.54,63.46 L136.66,63.46 L136.66,67.1 L142.54,67.1 Z M136,63.46 L130.26,63.46 L130.26,67.1 L136,67.1 L136,63.46 Z M153.98,65.86 L159.74,65.86 L159.74,61.98 C158.18,62.18 156.46,62.28 154.6,62.28 L154.38,61.64 C158.66,61.62 162.1,61.12 164.74,60.12 L165.08,60.72 C163.74,61.24 162.2,61.64 160.44,61.9 L160.44,65.86 L165.86,65.86 L165.86,66.54 L160.44,66.54 L160.44,70.44 L164.28,70.44 L164.28,77.84 L163.6,77.84 L163.6,76.64 L156.62,76.64 L156.62,77.84 L155.94,77.84 L155.94,70.44 L159.74,70.44 L159.74,66.54 L153.98,66.54 L153.98,65.86 Z M156.62,75.96 L163.6,75.96 L163.6,71.1 L156.62,71.1 L156.62,75.96 Z M149.54,60.02 C150.98,61.1 152.18,62.2 153.16,63.3 L152.7,63.78 C151.78,62.74 150.56,61.64 149.06,60.48 L149.54,60.02 Z M147.62,66.12 L151.46,66.12 L151.46,75.68 C152.3,75.04 153.22,74.26 154.24,73.3 L154.42,74.04 C153.26,75.16 152.04,76.14 150.74,77 L150.46,76.38 C150.68,76.18 150.8,76 150.8,75.84 L150.8,66.8 L147.62,66.8 L147.62,66.12 Z M168.98,65.98 L175.84,65.98 L175.84,71.72 L168.98,71.72 L168.98,65.98 Z M175.16,71.08 L175.16,66.64 L169.68,66.64 L169.68,71.08 L175.16,71.08 Z M176.66,73.52 L176.66,74.2 C174.04,74.92 171.2,75.5 168.14,75.98 L167.96,75.28 C171.04,74.86 173.94,74.28 176.66,73.52 Z M183.48,77.86 C182.56,77.82 181.68,77.18 180.82,75.92 C180.46,75.4 180.16,74.84 179.9,74.22 C178.7,75.76 177.38,76.98 175.92,77.86 L175.54,77.28 C177.08,76.36 178.44,75.08 179.62,73.48 C179.3,72.64 179.06,71.74 178.86,70.78 C178.44,68.68 178.22,66.18 178.22,63.28 L167.86,63.28 L167.86,62.6 L178.22,62.6 L178.22,59.78 L178.9,59.78 L178.9,62.6 L182.72,62.6 C182.34,61.7 181.9,60.9 181.42,60.18 L182.1,60.06 C182.56,60.8 183,61.64 183.4,62.6 L185.44,62.6 L185.44,63.28 L178.9,63.28 C178.94,66.02 179.14,68.42 179.52,70.48 C179.68,71.32 179.88,72.08 180.1,72.78 C181.42,70.78 182.5,68.34 183.38,65.46 L183.98,65.8 C183.02,68.92 181.82,71.5 180.38,73.56 C180.66,74.28 180.96,74.92 181.3,75.48 C182.08,76.58 182.78,77.14 183.4,77.14 C184.04,77.14 184.6,75.86 185.04,73.32 L185.62,73.7 C185.12,76.46 184.4,77.86 183.48,77.86 Z M196.96,62.76 L196.96,76.94 L196.28,76.94 L196.28,75.58 L189.16,75.58 L189.16,76.94 L188.52,76.94 L188.52,62.76 L192.38,62.76 L192.38,59.66 L193.06,59.66 L193.06,62.76 L196.96,62.76 Z M189.16,74.92 L192.38,74.92 L192.38,69.34 L189.16,69.34 L189.16,74.92 Z M193.06,74.92 L196.28,74.92 L196.28,69.34 L193.06,69.34 L193.06,74.92 Z M189.16,68.7 L192.38,68.7 L192.38,63.42 L189.16,63.42 L189.16,68.7 Z M193.06,63.42 L193.06,68.7 L196.28,68.7 L196.28,63.42 L193.06,63.42 Z M199.04,61.1 L204.9,61.1 L204.9,61.62 C204.3,63.78 203.64,65.8 202.94,67.66 C204.3,69.7 204.98,71.34 205,72.6 C205,73.48 204.76,74.12 204.3,74.48 C203.8,74.84 202.8,75.02 201.3,75.02 L201.12,74.34 C201.36,74.36 201.58,74.38 201.78,74.38 C202.86,74.34 203.56,74.2 203.86,73.98 C204.18,73.7 204.36,73.24 204.36,72.6 C204.34,71.36 203.62,69.72 202.22,67.66 C202.9,65.96 203.56,64 204.2,61.76 L199.72,61.76 L199.72,77.92 L199.04,77.92 L199.04,61.1 Z M212.3,59.7 L212.92,59.98 C212.36,61.62 211.7,63.16 210.9,64.58 L210.9,77.94 L210.24,77.94 L210.24,65.68 C209.46,66.9 208.58,68.02 207.58,69.06 L207.36,68.34 C209.66,65.76 211.3,62.88 212.3,59.7 Z M215.62,60.84 L216.3,60.92 C216.1,62.1 215.84,63.2 215.52,64.2 L219.34,64.2 L219.34,59.78 L220.02,59.78 L220.02,64.2 L224.92,64.2 L224.92,64.88 L220.02,64.88 L220.02,70.5 L225.64,70.5 L225.64,71.16 L220.02,71.16 L220.02,77.82 L219.34,77.82 L219.34,71.16 L213.1,71.16 L213.1,70.5 L219.34,70.5 L219.34,64.88 L215.28,64.88 C214.76,66.24 214.12,67.46 213.36,68.54 L212.94,68 C214.26,66.04 215.14,63.64 215.62,60.84 Z M235.96,64.34 L241.02,64.34 C241.84,62.94 242.52,61.44 243.08,59.82 L243.72,60.06 C243.06,61.8 242.38,63.22 241.7,64.34 L245.16,64.34 L245.16,65.02 L240.8,65.02 L240.8,66.02 C240.8,67.14 240.72,68.2 240.6,69.2 L245.5,69.2 L245.5,69.88 L240.94,69.88 C241.4,72.32 243,74.82 245.76,77.36 L245.3,77.84 C242.5,75.24 240.88,72.66 240.44,70.12 C239.76,73.7 238.14,76.3 235.58,77.9 L235.16,77.36 C237.64,75.86 239.2,73.36 239.82,69.88 L235.66,69.88 L235.66,69.2 L239.92,69.2 C240.06,68.24 240.14,67.24 240.14,66.18 L240.14,65.02 L235.96,65.02 L235.96,64.34 Z M237.52,60 C238.38,61.22 239.04,62.28 239.52,63.18 L238.98,63.56 C238.5,62.58 237.84,61.5 236.98,60.34 L237.52,60 Z M227.68,60.8 L235.46,60.8 L235.46,61.46 L233.88,61.46 L233.88,73.26 C234.44,73.1 234.98,72.92 235.5,72.76 L235.5,73.44 L233.88,73.92 L233.88,78.1 L233.22,78.1 L233.22,74.1 C231.52,74.56 229.74,74.96 227.9,75.28 L227.72,74.64 C228.2,74.56 228.68,74.46 229.16,74.38 L229.16,61.46 L227.68,61.46 L227.68,60.8 Z M229.82,74.24 C230.98,74.02 232.12,73.76 233.22,73.46 L233.22,69.9 L229.82,69.9 L229.82,74.24 Z M229.82,69.26 L233.22,69.26 L233.22,65.74 L229.82,65.74 L229.82,69.26 Z M229.82,65.08 L233.22,65.08 L233.22,61.46 L229.82,61.46 L229.82,65.08 Z M255.86,77.84 L253.66,77.84 L253.52,77.18 C254.24,77.2 254.94,77.22 255.62,77.22 C256.24,77.22 256.56,76.92 256.56,76.34 L256.56,70.66 C254.6,70.78 252.44,70.9 250.08,71 L249.88,70.38 C250.12,70.34 250.32,70.3 250.52,70.24 C252.48,69.42 254.68,68.06 257.16,66.16 C255.16,66.32 253.02,66.44 250.72,66.56 L250.56,65.92 C250.72,65.9 250.9,65.86 251.06,65.8 C252.46,65.12 254.02,63.84 255.74,61.96 C253.82,62.1 251.78,62.18 249.58,62.18 L249.38,61.56 C255.14,61.54 259.8,61.06 263.38,60.14 L263.74,60.74 C261.72,61.28 259.34,61.66 256.62,61.9 C254.98,63.76 253.4,65.12 251.88,65.96 C253.9,65.84 255.9,65.72 257.9,65.58 C258.88,64.78 259.88,63.92 260.92,63 L261.56,63.32 C257.82,66.72 254.52,69.06 251.68,70.34 C255.76,70.14 259.18,69.9 261.94,69.58 C261.38,68.84 260.76,68.08 260.1,67.32 L260.62,67 C262.26,68.88 263.5,70.52 264.36,71.92 L263.8,72.32 C263.4,71.62 262.92,70.9 262.38,70.16 C260.88,70.32 259.16,70.48 257.22,70.62 L257.22,76.52 C257.22,77.4 256.76,77.84 255.86,77.84 Z M260.08,72.3 C262.12,73.82 263.84,75.32 265.24,76.84 L264.74,77.34 C263.46,75.86 261.74,74.34 259.6,72.74 L260.08,72.3 Z M253.06,72.46 L253.56,72.9 C252.18,74.54 250.48,75.98 248.44,77.22 L248.02,76.66 C250.02,75.46 251.7,74.06 253.06,72.46 Z M276.88,69.28 L276.88,69.98 C275.6,70.42 274.26,70.82 272.84,71.18 L272.84,76.24 C272.84,77.16 272.34,77.64 271.34,77.64 L269.16,77.64 L269.02,76.98 C269.74,77.02 270.44,77.04 271.12,77.04 C271.8,77.04 272.16,76.7 272.16,76.06 L272.16,71.34 C270.76,71.66 269.3,71.96 267.78,72.2 L267.68,71.54 C269.26,71.28 270.76,70.98 272.16,70.66 L272.16,66.16 L267.74,66.16 L267.74,65.5 L272.16,65.5 L272.16,61.88 C271,62.12 269.76,62.34 268.46,62.5 L268.32,61.84 C271.26,61.5 273.84,60.9 276.04,60.06 L276.28,60.72 C275.22,61.1 274.08,61.44 272.84,61.72 L272.84,65.5 L278.48,65.5 C278.36,63.78 278.3,61.88 278.3,59.8 L278.98,59.8 C278.98,61.94 279.04,63.84 279.16,65.5 L285.58,65.5 L285.58,66.16 L279.22,66.16 C279.36,67.78 279.56,69.16 279.84,70.3 C280,71.02 280.2,71.68 280.4,72.28 C281.56,70.98 282.58,69.46 283.42,67.7 L284.02,68.02 C283.1,69.96 281.98,71.62 280.66,73 C281,73.88 281.38,74.66 281.8,75.3 C282.54,76.34 283.16,76.88 283.64,76.88 C284.24,76.86 284.72,75.6 285.12,73.08 L285.72,73.4 C285.26,76.2 284.6,77.6 283.76,77.6 C283,77.6 282.2,76.98 281.32,75.78 C280.88,75.12 280.48,74.36 280.14,73.52 C278.6,75 276.82,76.14 274.82,76.94 L274.44,76.34 C276.52,75.54 278.34,74.38 279.88,72.82 C279.6,72.06 279.36,71.26 279.16,70.38 C278.88,69.16 278.68,67.76 278.54,66.16 L272.84,66.16 L272.84,70.5 C274.28,70.14 275.64,69.72 276.88,69.28 Z M281.18,60.08 C282.66,61.12 283.88,62.16 284.88,63.22 L284.4,63.7 C283.46,62.7 282.22,61.64 280.7,60.52 L281.18,60.08 Z M303.12,77.78 L301.08,77.78 L300.9,77.12 L302.98,77.14 C303.7,77.14 304.06,76.7 304.06,75.84 L304.06,61.98 L298.82,61.98 L298.82,61.32 L304.74,61.32 L304.74,76.02 C304.74,77.18 304.2,77.78 303.12,77.78 Z M295.5,59.78 C296.52,61.02 297.3,62.1 297.86,63.04 L297.32,63.44 C296.74,62.42 295.96,61.32 294.96,60.12 L295.5,59.78 Z M292.46,59.72 L293.08,60 C292.52,61.66 291.84,63.2 291.02,64.62 L291.02,77.96 L290.34,77.96 L290.34,65.72 C289.54,66.92 288.66,68.02 287.68,69.04 L287.46,68.34 C289.8,65.76 291.46,62.88 292.46,59.72 Z M294.18,63.16 L294.86,63.16 L294.86,77.88 L294.18,77.88 L294.18,63.16 Z" id="想了解更多-请电话或邮件联系我们"></path>
            <path d="M13.86,24.332 L28.098,24.332 L28.098,33.488 L13.86,33.488 L13.86,24.332 Z M26.712,32.186 L26.712,25.718 L15.246,25.718 L15.246,32.186 L26.712,32.186 Z M24.402,15.89 C28.014,18.494 30.996,21.098 33.39,23.702 L32.34,24.752 C30.114,22.232 27.132,19.586 23.436,16.814 L24.402,15.89 Z M20.076,0.518 C20.748,1.778 21.42,3.29 22.05,4.97 L39.396,4.97 L39.396,6.398 L29.988,6.398 C29.064,8.792 28.056,10.892 26.88,12.74 L36.666,12.74 L36.666,35.672 C36.666,37.772 35.658,38.822 33.684,38.822 L29.4,38.822 L29.022,37.436 L33.18,37.478 C34.566,37.478 35.28,36.764 35.28,35.378 L35.28,14.084 L6.636,14.084 L6.636,38.696 L5.25,38.696 L5.25,12.74 L14.448,12.74 C13.692,10.43 12.768,8.33 11.634,6.398 L2.604,6.398 L2.604,4.97 L20.58,4.97 C19.908,3.416 19.236,2.03 18.522,0.77 L20.076,0.518 Z M15.918,12.74 L25.368,12.74 C26.502,10.766 27.51,8.666 28.35,6.398 L13.272,6.398 C14.238,8.162 15.12,10.304 15.918,12.74 Z M17.304,15.974 L18.354,16.898 C15.834,19.838 12.768,22.442 9.114,24.668 L8.19,23.492 C11.802,21.35 14.826,18.83 17.304,15.974 Z M57.33,0.812 L58.8,0.98 C58.212,2.324 57.54,3.584 56.784,4.76 L75.684,4.76 L75.684,5.936 C72.744,9.338 69.132,12.194 64.806,14.462 C69.846,16.94 75.558,18.536 81.984,19.292 L81.312,20.678 C74.55,19.838 68.544,18.032 63.252,15.26 C57.96,17.78 51.786,19.586 44.688,20.678 L44.058,19.334 C50.862,18.368 56.742,16.73 61.782,14.462 C58.8,12.782 56.07,10.766 53.634,8.498 C51.87,10.178 49.854,11.732 47.502,13.118 L46.62,11.984 C51.912,8.96 55.482,5.222 57.33,0.812 Z M63.336,13.748 C67.41,11.69 70.854,9.128 73.71,6.104 L55.818,6.104 C55.398,6.608 55.02,7.07 54.642,7.49 C57.246,9.926 60.144,12.026 63.336,13.748 Z M61.404,19.082 L62.79,19.082 C62.79,21.098 62.58,22.946 62.244,24.626 L77.49,24.626 C77.406,31.304 76.776,35.294 75.516,36.596 C74.256,37.94 72.114,38.612 69.048,38.612 C67.872,38.612 66.402,38.57 64.68,38.528 L64.302,37.184 C66.066,37.226 67.536,37.268 68.712,37.31 C71.82,37.268 73.794,36.638 74.592,35.42 C75.348,34.16 75.852,31.01 76.02,25.928 L61.908,25.928 C61.53,27.272 61.026,28.532 60.438,29.666 C58.128,33.488 53.172,36.596 45.612,38.99 L44.646,37.814 C51.618,35.714 56.28,33.026 58.716,29.666 C59.43,28.49 60.018,27.272 60.438,25.928 L46.872,25.928 L46.872,24.626 L60.774,24.626 C61.194,22.904 61.404,21.056 61.404,19.082 Z M104.496,0.938 L105.504,0.938 C110.964,7.448 117.222,12.572 124.362,16.31 L123.606,17.612 C116.34,13.706 110.124,8.582 105,2.24 C100.254,8.204 93.996,13.328 86.226,17.696 L85.512,16.394 C93.114,12.236 99.456,7.07 104.496,0.938 Z M117.6,22.862 L117.6,38.948 L116.172,38.948 L116.172,35.966 L93.828,35.966 L93.828,38.948 L92.4,38.948 L92.4,22.862 L117.6,22.862 Z M93.828,34.538 L116.172,34.538 L116.172,24.29 L93.828,24.29 L93.828,34.538 Z M94.29,14.756 L115.71,14.756 L115.71,16.142 L94.29,16.142 L94.29,14.756 Z M145.614,8.792 C143.682,12.908 141.33,16.562 138.642,19.754 L137.634,18.62 C141.792,13.706 144.984,7.742 147.168,0.77 L148.554,1.106 C147.882,3.332 147.084,5.432 146.244,7.406 L165.774,7.406 L165.774,8.792 L150.57,8.792 L150.57,17.276 L163.674,17.276 L163.674,18.704 L150.57,18.704 L150.57,27.314 L164.178,27.314 L164.178,28.7 L150.57,28.7 L150.57,38.99 L149.142,38.99 L149.142,8.792 L145.614,8.792 Z M133.728,13.244 C132.09,15.596 130.284,17.822 128.268,19.838 L127.806,18.368 C132.678,13.16 136.164,7.322 138.264,0.938 L139.566,1.568 C138.39,4.97 136.92,8.12 135.156,11.018 L135.156,38.99 L133.728,38.99 L133.728,13.244 Z" id="商务合作"></path>
        </g>
    </g>
</svg>