<?xml version="1.0" encoding="UTF-8"?>
<svg width="60px" height="60px" viewBox="0 0 60 60" version="1.1" xmlns="http://www.w3.org/2000/svg" xmlns:xlink="http://www.w3.org/1999/xlink">
    <!-- Generator: Sketch 48.2 (47327) - http://www.bohemiancoding.com/sketch -->
    <title>会计</title>
    <desc>Created with Sketch.</desc>
    <defs>
        <filter x="-11.7%" y="-8.3%" width="123.3%" height="123.3%" filterUnits="objectBoundingBox" id="filter-1">
            <feOffset dx="0" dy="2" in="SourceAlpha" result="shadowOffsetOuter1"></feOffset>
            <feGaussianBlur stdDeviation="2" in="shadowOffsetOuter1" result="shadowBlurOuter1"></feGaussianBlur>
            <feColorMatrix values="0 0 0 0 0   0 0 0 0 0   0 0 0 0 0  0 0 0 0.5 0" type="matrix" in="shadowBlurOuter1" result="shadowMatrixOuter1"></feColorMatrix>
            <feMerge>
                <feMergeNode in="shadowMatrixOuter1"></feMergeNode>
                <feMergeNode in="SourceGraphic"></feMergeNode>
            </feMerge>
        </filter>
    </defs>
    <g id="首页" stroke="none" stroke-width="1" fill="none" fill-rule="evenodd" transform="translate(-537.000000, -2454.000000)">
        <g id="Group-5" transform="translate(121.000000, 2144.000000)" fill="#FFFFFF" fill-rule="nonzero">
            <g id="商业" filter="url(#filter-1)" transform="translate(416.000000, 310.000000)">
                <path d="M29.8003458,32.5583839 L21.6025301,24.3605682 C21.2775066,24.0355447 21.2775066,23.5118956 21.6025301,23.1928911 C21.9275537,22.8738865 22.4512027,22.8678675 22.7702073,23.1928911 L29.8003458,30.2170107 L36.7642759,23.2530806 C37.0892994,22.9280571 37.6129484,22.9280571 37.931953,23.2530806 C38.2569765,23.5781041 38.2569765,24.1017532 37.931953,24.4207577 L29.8003458,32.5583839 Z" id="Shape"></path>
                <path d="M37.3541334,32.2153035 L22.1863687,32.2153035 C21.7289282,32.2153035 21.361772,31.8481473 21.361772,31.3907067 C21.361772,30.9332662 21.7289282,30.56611 22.1863687,30.56611 L37.3481144,30.56611 C37.8055549,30.56611 38.1727112,30.9332662 38.1727112,31.3907067 C38.1787301,31.8421283 37.8055549,32.2153035 37.3541334,32.2153035 Z M37.3541334,37.9874806 L22.1863687,37.9874806 C21.7289282,37.9874806 21.361772,37.6203244 21.361772,37.1628838 C21.361772,36.7054433 21.7289282,36.3382871 22.1863687,36.3382871 L37.3481144,36.3382871 C37.8055549,36.3382871 38.1727112,36.7054433 38.1727112,37.1628838 C38.1787301,37.6143054 37.8055549,37.9874806 37.3541334,37.9874806 Z" id="Shape"></path>
                <path d="M29.8003458,45.7218368 C29.3429053,45.7218368 28.9757491,45.3546806 28.9757491,44.89724 L28.9757491,31.3907067 C28.9757491,30.9332662 29.3429053,30.56611 29.8003458,30.56611 C30.2577863,30.56611 30.6249425,30.9332662 30.6249425,31.3907067 L30.6249425,44.89724 C30.6249425,45.3486616 30.2577863,45.7218368 29.8003458,45.7218368 Z" id="Shape"></path>
                <path d="M55.9888157,29.3984329 C55.8022281,29.3984329 55.6216595,29.3382433 55.4651667,29.2118453 L30.432336,8.68119241 C30.0591608,8.37422574 29.5234739,8.37422574 29.1502988,8.68119241 L4.26794196,29.0673904 C3.91282366,29.3563002 3.39519359,29.3021296 3.10628379,28.9530303 C2.81737398,28.597912 2.87154457,28.0802819 3.22064392,27.7913721 L28.1030007,7.40517411 C29.0840903,6.6046532 30.4985445,6.6046532 31.479634,7.40517411 L56.5124647,27.935827 C56.867583,28.2247368 56.9157346,28.7483858 56.6268248,29.0974852 C56.4643131,29.2961107 56.2295739,29.3984329 55.9888157,29.3984329 Z" id="Shape"></path>
                <path d="M44.3601961,51.8310753 L15.180306,51.8310753 C12.6944779,51.8310753 10.6721093,49.8087067 10.6721093,47.3228786 L10.6721093,22.0733656 C10.6721093,21.6159251 11.0392655,21.2487689 11.496706,21.2487689 C11.9541465,21.2487689 12.3213027,21.6159251 12.3213027,22.0733656 L12.3213027,47.3168596 C12.3213027,48.8938256 13.60334,50.1758629 15.180306,50.1758629 L44.3601961,50.1758629 C45.9371621,50.1758629 47.2191994,48.8938256 47.2191994,47.3168596 L47.2191994,22.0733656 C47.2191994,21.6159251 47.5863556,21.2487689 48.0437961,21.2487689 C48.5012366,21.2487689 48.8683928,21.6159251 48.8683928,22.0733656 L48.8683928,47.3168596 C48.8683928,49.8026877 46.8460242,51.8310753 44.3601961,51.8310753 Z" id="Shape"></path>
            </g>
        </g>
    </g>
</svg>