<?xml version="1.0" encoding="UTF-8"?>
<svg width="56px" height="56px" viewBox="0 0 56 56" version="1.1" xmlns="http://www.w3.org/2000/svg" xmlns:xlink="http://www.w3.org/1999/xlink">
    <!-- Generator: Sketch 48.2 (47327) - http://www.bohemiancoding.com/sketch -->
    <title>助理</title>
    <desc>Created with Sketch.</desc>
    <defs></defs>
    <g id="首页" stroke="none" stroke-width="1" fill="none" fill-rule="evenodd" transform="translate(-842.000000, -2437.000000)" opacity="0.800000012">
        <g id="Group-5" transform="translate(120.000000, 2122.000000)" fill="#FFFFFF" fill-rule="nonzero">
            <g id="金融" transform="translate(722.000000, 315.000000)">
                <path d="M50.6503341,19.811804 C50.2717149,19.811804 49.9209354,19.577951 49.7873051,19.2048998 C48.9465479,16.8552339 47.7327394,14.6614699 46.1792873,12.6959911 C45.8674833,12.3006682 45.9342984,11.7216036 46.3296214,11.4097996 C46.7249443,11.0979955 47.3040089,11.1648107 47.6158129,11.5601336 C49.2917595,13.6870824 50.6002227,16.0478842 51.5077951,18.5868597 C51.6804009,19.0657016 51.4298441,19.5890869 50.9565702,19.7561247 C50.8563474,19.7951002 50.7505568,19.811804 50.6503341,19.811804 Z M8.59020045,42.1169265 C8.30623608,42.1169265 8.02783964,41.9888641 7.84966592,41.7438753 C6.30734967,39.6391982 5.11024499,37.3173719 4.29175947,34.8452116 C4.13028953,34.3663697 4.39198218,33.8485523 4.87082405,33.6870824 C5.34966592,33.5256125 5.8674833,33.7873051 6.02895323,34.266147 C6.78619154,36.5545657 7.89420935,38.7037862 9.32516704,40.6581292 C9.62583519,41.064588 9.53674833,41.6380846 9.13028953,41.9387528 C8.9688196,42.0556793 8.77394209,42.1169265 8.59020045,42.1169265 Z M28,51.9665924 C21.8752784,51.9665924 15.9844098,49.7282851 11.4131403,45.6636971 C11.0345212,45.3296214 11.0011136,44.7505568 11.3351893,44.3719376 C11.669265,43.9933185 12.2483296,43.9599109 12.6269488,44.2939866 C16.8641425,48.0634744 22.3207127,50.1347439 27.9944321,50.1347439 C39.9654788,50.1347439 49.8429844,40.9922049 51.0122494,29.3218263 L47.7383073,32.5846325 C47.3819599,32.94098 46.7973274,32.94098 46.44098,32.5846325 C46.0846325,32.2282851 46.0846325,31.6492205 46.44098,31.2873051 L52.9554649,24.7895323 L52.9554566,27 C52.9665924,40.7639198 41.7639198,51.9665924 28,51.9665924 Z M3.03340757,29.2271715 L3.03340757,27 C3.03340757,13.2360802 14.2360802,2.03340757 28,2.03340757 C33.7461024,2.03340757 39.3530067,4.03229399 43.7962138,7.66258352 C44.1859688,7.98552339 44.247216,8.55902004 43.9242762,8.94877506 C43.6069042,9.33853007 43.0278396,9.39977728 42.6380846,9.07683742 C38.5233853,5.71937639 33.3229399,3.86525612 28,3.86525612 C16.0345212,3.86525612 6.16258352,12.9966592 4.98218263,24.655902 L8.47327394,21.136971 C8.82962138,20.7750557 9.40868597,20.7750557 9.77060134,21.1314031 C10.1269488,21.4877506 10.1325167,22.0668151 9.77616927,22.4287305 L3.03340757,29.2271715 Z" id="Shape"></path>
                <path d="M28.077951,25.6859688 L18.0111359,15.6247216 C17.6547884,15.2683742 17.6547884,14.6893096 18.0111359,14.3273942 C18.3674833,13.9654788 18.9465479,13.9710468 19.3084633,14.3273942 L28.077951,23.096882 L36.7694878,14.4053452 C37.1258352,14.0489978 37.7048998,14.0489978 38.0668151,14.4053452 C38.4287305,14.7616927 38.4231626,15.3407572 38.0668151,15.7026726 L28.077951,25.6859688 Z" id="Shape"></path>
                <path d="M37.4153675,25.3073497 L18.6570156,25.3073497 C18.1503341,25.3073497 17.7438753,24.8953229 17.7438753,24.3942094 C17.7438753,23.8930958 18.155902,23.481069 18.6570156,23.481069 L37.4153675,23.481069 C37.922049,23.481069 38.3285078,23.8930958 38.3285078,24.3942094 C38.3285078,24.8953229 37.922049,25.3073497 37.4153675,25.3073497 Z M37.4153675,32.4454343 L18.6570156,32.4454343 C18.1503341,32.4454343 17.7438753,32.0334076 17.7438753,31.532294 C17.7438753,31.0311804 18.155902,30.6191537 18.6570156,30.6191537 L37.4153675,30.6191537 C37.922049,30.6191537 38.3285078,31.0311804 38.3285078,31.532294 C38.3285078,32.0334076 37.922049,32.4454343 37.4153675,32.4454343 Z" id="Shape"></path>
                <path d="M27.1648107,41.1035635 L27.1648107,24.3942094 C27.1648107,23.8875278 27.5768374,23.481069 28.077951,23.481069 C28.5846325,23.481069 28.9910913,23.8930958 28.9910913,24.3942094 L28.9910913,41.1035635 C28.9910913,41.610245 28.5790646,42.0167038 28.077951,42.0167038 C27.5712695,42.0167038 27.1648107,41.6046771 27.1648107,41.1035635 Z" id="Shape"></path>
            </g>
        </g>
    </g>
</svg>