<?xml version="1.0" encoding="UTF-8"?>
<svg width="60px" height="60px" viewBox="0 0 60 60" version="1.1" xmlns="http://www.w3.org/2000/svg" xmlns:xlink="http://www.w3.org/1999/xlink">
    <!-- Generator: Sketch 48.2 (47327) - http://www.bohemiancoding.com/sketch -->
    <title>出行/预订人[员工]</title>
    <desc>Created with Sketch.</desc>
    <defs>
        <filter x="-11.7%" y="-8.3%" width="123.3%" height="123.3%" filterUnits="objectBoundingBox" id="filter-1">
            <feOffset dx="0" dy="2" in="SourceAlpha" result="shadowOffsetOuter1"></feOffset>
            <feGaussianBlur stdDeviation="2" in="shadowOffsetOuter1" result="shadowBlurOuter1"></feGaussianBlur>
            <feColorMatrix values="0 0 0 0 0   0 0 0 0 0   0 0 0 0 0  0 0 0 0.5 0" type="matrix" in="shadowBlurOuter1" result="shadowMatrixOuter1"></feColorMatrix>
            <feMerge>
                <feMergeNode in="shadowMatrixOuter1"></feMergeNode>
                <feMergeNode in="SourceGraphic"></feMergeNode>
            </feMerge>
        </filter>
    </defs>
    <g id="首页" stroke="none" stroke-width="1" fill="none" fill-rule="evenodd" transform="translate(-1146.000000, -2452.000000)" opacity="0.900000036">
        <g id="Group-5" transform="translate(121.000000, 2144.000000)" fill="#E6E6E6" fill-rule="nonzero">
            <g id="公文包" filter="url(#filter-1)" transform="translate(1025.000000, 308.000000)">
                <path d="M50.9861818,18.7294417 L39.2162168,18.7294417 L39.2162168,15.5643956 C39.2162168,12.5657083 36.1952912,10.0399141 32.2493882,10.0399141 L27.9046244,10.0399141 C23.9990248,10.0399141 20.7509709,12.5153433 20.7509709,15.5643956 L20.7509709,18.7294416 L9.7109262,18.7294417 C7.17575654,18.7294417 5.02978626,20.608209 5.02978626,22.8961845 L5.02978626,26.4194449 L5.02978626,29.1349222 L5.02978626,31.5857691 C5.02978626,31.9861734 5.24988285,32.3542778 5.60312358,32.5431035 C5.69407777,32.5919249 6.65907268,32.8939432 7.20216816,33.3430546 L7.20216816,51.1372632 C7.20216816,52.3141225 8.19723341,53.487666 9.43937849,53.487666 L50.7146341,53.487666 C51.9917659,53.487666 52.8221875,52.2643292 52.8221875,51.1372632 L52.8221875,33.342883 C53.9083784,32.8943434 54.3288487,32.5929539 54.4212321,32.543618 C54.7739011,32.3542778 54.9945694,31.9862306 54.9945694,31.5857691 L54.9945694,29.1349222 L54.9945694,26.4194449 L54.9945694,22.8962416 C54.9945694,20.5318326 53.4014703,18.7294417 50.9861818,18.7294417 Z M22.9233528,15.5644528 C22.9233528,13.7638341 25.2623221,12.2123532 27.9046244,12.2123532 L32.2493882,12.2123532 C34.9038673,12.2123532 37.043835,13.8248894 37.043835,15.5644528 L37.043835,18.7294988 L22.9233528,18.7294988 L22.9233528,15.5644528 Z M50.6498056,51.1260582 C50.6498056,51.2013484 50.7082313,51.3152269 50.6355708,51.3152269 L9.60482251,51.3152269 C9.56874955,51.3152269 9.37455006,51.2263308 9.37455006,51.1372059 L9.37455006,34.3342323 C13.1762183,35.930247 19.1502685,38.1325849 25.0957347,38.9712386 L25.0957347,39.9968315 C25.0957347,41.1949573 26.2588737,42.1111307 27.4569994,42.1111307 L32.8879541,42.1111307 C34.0860799,42.1111307 34.8714531,41.1949001 34.8714531,39.9968315 L34.8714531,38.9741541 C41.3885988,38.1338997 47.3912328,35.9289321 50.6498057,34.3332033 L50.6498056,51.1260582 Z M26.6982229,40.4893315 L26.6982229,33.9572116 L33.4575232,33.9572116 L33.4594485,40.4893315 L26.6982229,40.4893315 Z M52.8221875,30.9211917 C51.1929011,31.9816571 43.0464691,35.6162806 34.8714531,36.7785621 L34.8714531,34.5658769 C34.8714531,33.3677511 34.0860227,32.3354123 32.8879541,32.3354123 L27.4569994,32.3354123 C26.2588736,32.3354123 25.0957346,33.3677511 25.0957346,34.5658769 L25.0957346,36.7802772 C17.4923981,35.6221118 9.37455,31.9832579 7.20216816,30.9211918 L7.20216816,29.1349222 L7.20216816,26.4194449 L7.20216816,22.8962416 C7.20216816,21.7018318 8.55630525,20.9018807 9.7109262,20.9018807 L50.9861818,20.9018807 C52.1991141,20.9018807 52.8221875,21.7373902 52.8221875,22.8962416 L52.8221875,26.4194448 L52.8221875,29.1349221 L52.8221875,30.9211917 Z" id="Shape"></path>
            </g>
        </g>
    </g>
</svg>