<?xml version="1.0" encoding="UTF-8"?>
<svg width="56px" height="56px" viewBox="0 0 56 56" version="1.1" xmlns="http://www.w3.org/2000/svg" xmlns:xlink="http://www.w3.org/1999/xlink">
    <!-- Generator: Sketch 48.2 (47327) - http://www.bohemiancoding.com/sketch -->
    <title>管理层</title>
    <desc>Created with Sketch.</desc>
    <defs></defs>
    <g id="首页" stroke="none" stroke-width="1" fill="none" fill-rule="evenodd" transform="translate(-244.000000, -2437.000000)" opacity="0.800000012">
        <g id="Group-5" transform="translate(120.000000, 2122.000000)" fill="#FFFFFF" fill-rule="nonzero">
            <g id="科技" transform="translate(124.000000, 315.000000)">
                <path d="M12.8938497,51.7305406 C6.90558087,51.7305406 2.03906606,46.8802711 2.03906606,40.9243847 C2.03906606,34.9684982 6.91116173,30.1182288 12.8938497,30.1182288 C18.8765376,30.1182288 23.7486333,34.9684982 23.7486333,40.9243847 C23.7486333,46.8802711 18.8821185,51.7305406 12.8938497,51.7305406 Z M12.8938497,31.8905495 C7.88781321,31.8905495 3.81936219,35.9407745 3.81936219,40.9243847 C3.81936219,45.9079949 7.88781321,49.9582199 12.8938497,49.9582199 C17.8998861,49.9582199 21.9683371,45.9079949 21.9683371,40.9243847 C21.9683371,35.9407745 17.8998861,31.8905495 12.8938497,31.8905495 Z M14.6797267,18.6564809 C10.0810934,18.6564809 6.33633257,14.9340519 6.33633257,10.3504639 C6.33633257,5.76687594 10.0755125,2.04444691 14.6797267,2.04444691 C19.2783599,2.04444691 23.0231207,5.76687594 23.0231207,10.3504639 C23.0231207,14.9340519 19.2783599,18.6564809 14.6797267,18.6564809 Z M14.6797267,3.82232346 C11.0633257,3.82232346 8.12220957,6.7502639 8.12220957,10.3504639 C8.12220957,13.9506639 11.0633257,16.8786044 14.6797267,16.8786044 C18.2961276,16.8786044 21.2372437,13.9506639 21.2372437,10.3504639 C21.2372437,6.7502639 18.2961276,3.82232346 14.6797267,3.82232346 Z M43.2481777,45.7079838 C38.9955581,45.7079838 35.5354214,42.263348 35.5354214,38.0297794 C35.5354214,33.7962109 38.9955581,30.3515751 43.2481777,30.3515751 C47.5007973,30.3515751 50.9609339,33.7962109 50.9609339,38.0297794 C50.9609339,42.263348 47.5007973,45.7079838 43.2481777,45.7079838 Z M43.2481777,32.1238958 C39.9777904,32.1238958 37.3157175,34.774043 37.3157175,38.0297794 C37.3157175,41.2855159 39.9777904,43.9356631 43.2481777,43.9356631 C46.5185649,43.9356631 49.1806378,41.2855159 49.1806378,38.0297794 C49.1806378,34.774043 46.5185649,32.1238958 43.2481777,32.1238958 Z M28.698861,32.646147 C24.3569476,32.646147 20.8186788,29.129285 20.8186788,24.8012667 C20.8186788,20.4732485 24.3513667,16.9563865 28.698861,16.9563865 C33.0463554,16.9563865 36.5790433,20.4732485 36.5790433,24.8012667 C36.5790433,29.129285 33.0463554,32.646147 28.698861,32.646147 Z M28.698861,18.734263 C25.33918,18.734263 22.5989749,21.4566365 22.5989749,24.8068226 C22.5989749,28.1514529 25.3335991,30.8793822 28.698861,30.8793822 C32.064123,30.8793822 34.7987472,28.1570087 34.7987472,24.8068226 C34.7987472,21.4566365 32.064123,18.734263 28.698861,18.734263 Z M41.7134396,18.734263 C38.1416856,18.734263 35.2284738,15.8396578 35.2284738,12.2783488 C35.2284738,8.71703984 38.1361048,5.82243458 41.7134396,5.82243458 C45.2907745,5.82243458 48.1984055,8.7225957 48.1984055,12.2783488 C48.1984055,15.8341019 45.2907745,18.734263 41.7134396,18.734263 Z M41.7134396,7.60031113 C39.123918,7.60031113 37.0143508,9.7004278 37.0143508,12.2783488 C37.0143508,14.8562698 39.123918,16.9563865 41.7134396,16.9563865 C44.3029613,16.9563865 46.4125285,14.8562698 46.4125285,12.2783488 C46.4125285,9.7004278 44.3085421,7.60031113 41.7134396,7.60031113 Z" id="Shape"></path>
                <path d="M20.2550114,35.0240569 C20.0261959,35.0240569 19.7973804,34.9351631 19.6243736,34.7629313 C19.2783599,34.4184677 19.2783599,33.8573254 19.6243736,33.507306 L23.2742597,29.8737708 C23.6202733,29.5293072 24.1839408,29.5293072 24.5355353,29.8737708 C24.881549,30.2182343 24.881549,30.7793766 24.5355353,31.1293961 L20.8856492,34.7629313 C20.7070615,34.9407189 20.478246,35.0240569 20.2550114,35.0240569 Z M34.2574032,21.1010612 C34.0285877,21.1010612 33.7997722,21.0121673 33.6267654,20.8399356 C33.2807517,20.495472 33.2807517,19.9343297 33.6267654,19.5843102 L37.2096811,16.0174454 C37.5556948,15.6729818 38.1193622,15.6729818 38.4709567,16.0174454 C38.8169704,16.361909 38.8169704,16.9230513 38.4709567,17.2730707 L34.888041,20.8399356 C34.7150342,21.0177232 34.4862187,21.1010612 34.2574032,21.1010612 Z M23.9551253,20.4288016 C23.7263098,20.4288016 23.4974943,20.3399078 23.3244875,20.167676 L19.4569476,16.3174621 C19.1109339,15.9729985 19.1109339,15.4118562 19.4569476,15.0618368 C19.8029613,14.7173732 20.3666287,14.7173732 20.7182232,15.0618368 L24.5857631,18.9120507 C24.9317768,19.2565143 24.9317768,19.8176565 24.5857631,20.167676 C24.4127563,20.3454636 24.1839408,20.4288016 23.9551253,20.4288016 Z M37.9463554,34.3573532 C37.7175399,34.3573532 37.4887244,34.2684594 37.3157175,34.0962276 L33.2528474,30.0515584 C32.9068337,29.7070948 32.9068337,29.1459526 33.2528474,28.7959331 C33.598861,28.4514695 34.1625285,28.4514695 34.514123,28.7959331 L38.5769932,32.8406023 C38.9230068,33.1850658 38.9230068,33.7462081 38.5769932,34.0962276 C38.3984055,34.2684594 38.1751708,34.3573532 37.9463554,34.3573532 Z" id="Shape"></path>
            </g>
        </g>
    </g>
</svg>