<?xml version="1.0" encoding="UTF-8"?>
<svg width="56px" height="56px" viewBox="0 0 56 56" version="1.1" xmlns="http://www.w3.org/2000/svg" xmlns:xlink="http://www.w3.org/1999/xlink">
    <!-- Generator: Sketch 48.2 (47327) - http://www.bohemiancoding.com/sketch -->
    <title>员工</title>
    <desc>Created with Sketch.</desc>
    <defs></defs>
    <g id="首页" stroke="none" stroke-width="1" fill="none" fill-rule="evenodd" transform="translate(-1142.000000, -2437.000000)" opacity="0.800000012">
        <g id="Group-5" transform="translate(120.000000, 2122.000000)" fill="#FFFFFF" fill-rule="nonzero">
            <g id="法律" transform="translate(1022.000000, 315.000000)">
                <path d="M52.5884926,8.37955721 L0.865040435,8.37955721 C0.387776747,8.37955721 0.0059657961,7.99178046 0.0059657961,7.52048257 C0.0059657961,7.04918467 0.393742543,6.66140793 0.865040435,6.66140793 L52.5884926,6.66140793 C53.0657563,6.66140793 53.4475673,7.04918467 53.4475673,7.52048257 C53.4475673,7.99178046 53.0597905,8.37955721 52.5884926,8.37955721 Z M36.1527244,49.2392947 L17.3008087,49.2392947 C16.823545,49.2392947 16.4417341,48.851518 16.4417341,48.3802201 C16.4417341,47.9029564 16.8295108,47.5211454 17.3008087,47.5211454 L36.1527244,47.5211454 C36.6299881,47.5211454 37.011799,47.9089222 37.011799,48.3802201 C37.0177648,48.851518 36.6299881,49.2392947 36.1527244,49.2392947 Z" id="Shape"></path>
                <path d="M26.7267665,48.8276548 C26.2495029,48.8276548 25.8676919,48.439878 25.8676919,47.9685801 L25.8676919,2.77767467 C25.8676919,2.30041098 26.2554686,1.91860003 26.7267665,1.91860003 C27.2040302,1.91860003 27.5858412,2.30637677 27.5858412,2.77767467 L27.5858412,47.9626143 C27.5858412,48.439878 27.2040302,48.8276548 26.7267665,48.8276548 Z M8.63250696,36.5261832 C4.2894074,36.5261832 0.727827124,33.2688585 0.340050378,28.9496222 C0.304255601,28.543948 0.441468912,28.1382739 0.721861328,27.8340183 C1.00821954,27.5237969 1.41389368,27.3388572 1.8374652,27.3388572 L15.4215829,27.3388572 C15.8451544,27.3388572 16.2508286,27.5178311 16.5371868,27.8340183 C16.8175792,28.1382739 16.9547925,28.543948 16.9189977,28.9496222 C16.5371868,33.2688585 12.9756065,36.5261832 8.63250696,36.5261832 Z M2.08206284,29.0629723 C2.50563436,32.3560917 5.27376375,34.8080339 8.63250696,34.8080339 C11.9912502,34.8080339 14.7593796,32.3560917 15.1829511,29.0629723 L2.08206284,29.0629723 Z" id="Shape"></path>
                <path d="M16.0957179,29.0629723 C15.7437359,29.0629723 15.4156171,28.8482036 15.2843696,28.4962217 L8.63250696,10.1454329 L1.97467851,28.4962217 C1.81360202,28.9436564 1.31844094,29.1763224 0.871006231,29.0092801 C0.423571523,28.8482036 0.190905475,28.3530426 0.357947766,27.9056078 L7.41548456,8.45711255 C7.60042423,7.93808829 8.08365372,7.60400371 8.63250696,7.60400371 C9.1813602,7.60400371 9.65862389,7.93808829 9.84952936,8.45711255 L16.9070662,27.9056078 C17.0681426,28.3530426 16.8414424,28.8422378 16.3940077,29.0092801 C16.2925892,29.0450749 16.1911706,29.0629723 16.0957179,29.0629723 Z M45.1252817,36.5261832 C40.7821822,36.5261832 37.2206019,33.2688585 36.8328251,28.9496222 C36.7970304,28.543948 36.9342437,28.1382739 37.2146361,27.8340183 C37.5009943,27.5237969 37.9066684,27.3388572 38.33024,27.3388572 L51.9143577,27.3388572 C52.3379292,27.3388572 52.7436033,27.5178311 53.0299616,27.8340183 C53.310354,28.1382739 53.4475673,28.543948 53.4117725,28.9496222 C53.0299616,33.2688585 49.4624155,36.5261832 45.1252817,36.5261832 Z M38.5748376,29.0629723 C38.9984091,32.3560917 41.7665385,34.8080339 45.1252817,34.8080339 C48.4840249,34.8080339 51.2521543,32.3560917 51.6757258,29.0629723 L38.5748376,29.0629723 Z" id="Shape"></path>
                <path d="M52.5884926,29.0629723 C52.2365107,29.0629723 51.9083919,28.8482036 51.7771444,28.4962217 L45.1252817,10.1513986 L38.4674533,28.4962217 C38.3063768,28.9436564 37.8112157,29.1763224 37.363781,29.0092801 C36.9163463,28.8482036 36.6836802,28.3530426 36.8507225,27.9056078 L43.9082593,8.45711255 C44.093199,7.93808829 44.5704627,7.60400371 45.1252817,7.60400371 C45.674135,7.60400371 46.1513986,7.93808829 46.3423041,8.45711255 L53.3938751,27.9056078 C53.5549516,28.3530426 53.3282514,28.8422378 52.8808167,29.0092801 C52.7853639,29.0450749 52.6839454,29.0629723 52.5884926,29.0629723 Z" id="Shape"></path>
            </g>
        </g>
    </g>
</svg>