<?xml version="1.0" encoding="UTF-8"?>
<svg width="56px" height="56px" viewBox="0 0 56 56" version="1.1" xmlns="http://www.w3.org/2000/svg" xmlns:xlink="http://www.w3.org/1999/xlink">
    <!-- Generator: Sketch 48.2 (47327) - http://www.bohemiancoding.com/sketch -->
    <title>会计</title>
    <desc>Created with Sketch.</desc>
    <defs>
        <filter x="-12.5%" y="-8.9%" width="125.0%" height="125.0%" filterUnits="objectBoundingBox" id="filter-1">
            <feOffset dx="0" dy="2" in="SourceAlpha" result="shadowOffsetOuter1"></feOffset>
            <feGaussianBlur stdDeviation="2" in="shadowOffsetOuter1" result="shadowBlurOuter1"></feGaussianBlur>
            <feColorMatrix values="0 0 0 0 0   0 0 0 0 0   0 0 0 0 0  0 0 0 0.5 0" type="matrix" in="shadowBlurOuter1" result="shadowMatrixOuter1"></feColorMatrix>
            <feMerge>
                <feMergeNode in="shadowMatrixOuter1"></feMergeNode>
                <feMergeNode in="SourceGraphic"></feMergeNode>
            </feMerge>
        </filter>
    </defs>
    <g id="首页" stroke="none" stroke-width="1" fill="none" fill-rule="evenodd" transform="translate(-538.000000, -2435.000000)">
        <g id="Group-5" transform="translate(120.000000, 2122.000000)" fill="#FFFFFF" fill-rule="nonzero">
            <g id="商业" filter="url(#filter-1)" transform="translate(418.000000, 313.000000)">
                <path d="M27.8003458,29.5583839 L19.6025301,21.3605682 C19.2775066,21.0355447 19.2775066,20.5118956 19.6025301,20.1928911 C19.9275537,19.8738865 20.4512027,19.8678675 20.7702073,20.1928911 L27.8003458,27.2170107 L34.7642759,20.2530806 C35.0892994,19.9280571 35.6129484,19.9280571 35.931953,20.2530806 C36.2569765,20.5781041 36.2569765,21.1017532 35.931953,21.4207577 L27.8003458,29.5583839 Z" id="Shape"></path>
                <path d="M35.3541334,29.2153035 L20.1863687,29.2153035 C19.7289282,29.2153035 19.361772,28.8481473 19.361772,28.3907067 C19.361772,27.9332662 19.7289282,27.56611 20.1863687,27.56611 L35.3481144,27.56611 C35.8055549,27.56611 36.1727112,27.9332662 36.1727112,28.3907067 C36.1787301,28.8421283 35.8055549,29.2153035 35.3541334,29.2153035 Z M35.3541334,34.9874806 L20.1863687,34.9874806 C19.7289282,34.9874806 19.361772,34.6203244 19.361772,34.1628838 C19.361772,33.7054433 19.7289282,33.3382871 20.1863687,33.3382871 L35.3481144,33.3382871 C35.8055549,33.3382871 36.1727112,33.7054433 36.1727112,34.1628838 C36.1787301,34.6143054 35.8055549,34.9874806 35.3541334,34.9874806 Z" id="Shape"></path>
                <path d="M27.8003458,42.7218368 C27.3429053,42.7218368 26.9757491,42.3546806 26.9757491,41.89724 L26.9757491,28.3907067 C26.9757491,27.9332662 27.3429053,27.56611 27.8003458,27.56611 C28.2577863,27.56611 28.6249425,27.9332662 28.6249425,28.3907067 L28.6249425,41.89724 C28.6249425,42.3486616 28.2577863,42.7218368 27.8003458,42.7218368 Z" id="Shape"></path>
                <path d="M53.9888157,26.3984329 C53.8022281,26.3984329 53.6216595,26.3382433 53.4651667,26.2118453 L28.432336,5.68119241 C28.0591608,5.37422574 27.5234739,5.37422574 27.1502988,5.68119241 L2.26794196,26.0673904 C1.91282366,26.3563002 1.39519359,26.3021296 1.10628379,25.9530303 C0.817373985,25.597912 0.871544573,25.0802819 1.22064392,24.7913721 L26.1030007,4.40517411 C27.0840903,3.6046532 28.4985445,3.6046532 29.479634,4.40517411 L54.5124647,24.935827 C54.867583,25.2247368 54.9157346,25.7483858 54.6268248,26.0974852 C54.4643131,26.2961107 54.2295739,26.3984329 53.9888157,26.3984329 Z" id="Shape"></path>
                <path d="M42.3601961,48.8310753 L13.180306,48.8310753 C10.6944779,48.8310753 8.67210926,46.8087067 8.67210926,44.3228786 L8.67210926,19.0733656 C8.67210926,18.6159251 9.03926547,18.2487689 9.49670599,18.2487689 C9.95414651,18.2487689 10.3213027,18.6159251 10.3213027,19.0733656 L10.3213027,44.3168596 C10.3213027,45.8938256 11.60334,47.1758629 13.180306,47.1758629 L42.3601961,47.1758629 C43.9371621,47.1758629 45.2191994,45.8938256 45.2191994,44.3168596 L45.2191994,19.0733656 C45.2191994,18.6159251 45.5863556,18.2487689 46.0437961,18.2487689 C46.5012366,18.2487689 46.8683928,18.6159251 46.8683928,19.0733656 L46.8683928,44.3168596 C46.8683928,46.8026877 44.8460242,48.8310753 42.3601961,48.8310753 Z" id="Shape"></path>
            </g>
        </g>
    </g>
</svg>