<?xml version="1.0" encoding="UTF-8"?>
<svg width="60px" height="60px" viewBox="0 0 60 60" version="1.1" xmlns="http://www.w3.org/2000/svg" xmlns:xlink="http://www.w3.org/1999/xlink">
    <!-- Generator: Sketch 48.2 (47327) - http://www.bohemiancoding.com/sketch -->
    <title>管理层</title>
    <desc>Created with Sketch.</desc>
    <defs>
        <filter x="-11.7%" y="-8.3%" width="123.3%" height="123.3%" filterUnits="objectBoundingBox" id="filter-1">
            <feOffset dx="0" dy="2" in="SourceAlpha" result="shadowOffsetOuter1"></feOffset>
            <feGaussianBlur stdDeviation="2" in="shadowOffsetOuter1" result="shadowBlurOuter1"></feGaussianBlur>
            <feColorMatrix values="0 0 0 0 0   0 0 0 0 0   0 0 0 0 0  0 0 0 0.5 0" type="matrix" in="shadowBlurOuter1" result="shadowMatrixOuter1"></feColorMatrix>
            <feMerge>
                <feMergeNode in="shadowMatrixOuter1"></feMergeNode>
                <feMergeNode in="SourceGraphic"></feMergeNode>
            </feMerge>
        </filter>
    </defs>
    <g id="首页" stroke="none" stroke-width="1" fill="none" fill-rule="evenodd" transform="translate(-240.000000, -2457.000000)" opacity="0.9">
        <g id="Group-5" transform="translate(121.000000, 2144.000000)">
            <g id="Group-35" filter="url(#filter-1)" transform="translate(119.000000, 313.000000)">
                <path d="M29.9722222,27.4166667 L29.9722222,32.1388889" id="Line-6-Copy-2" stroke="#FFFFFF" stroke-width="1.5" stroke-linecap="square"></path>
                <path d="M12.3333333,32.3333333 L46.6748779,32.3333333 C47.7794474,32.3333333 48.6748779,33.2287638 48.6748779,34.3333333 C48.6748779,34.3346304 48.6748766,34.3359275 48.6748741,34.3372246 L48.6666667,38.5555556 L47.1666667,38.5555556 L47.1666667,33.8333333 L11.8333333,33.8333333 L11.8333333,38.5555556 L10.3333333,38.5555556 L10.3333333,34.3333333 C10.3333333,33.2287638 11.2287638,32.3333333 12.3333333,32.3333333 Z" id="Combined-Shape" fill="#FFFFFF"></path>
                <path d="M29.9722222,33.0833333 L29.9722222,37.8055556" id="Line-6-Copy-4" stroke="#FFFFFF" stroke-width="1.5" stroke-linecap="square"></path>
                <path d="M29.8286984,26.5782945 C24.958162,26.5782945 21,22.6333456 21,17.7891472 C21,12.9449489 24.9627011,9 29.8286984,9 C34.6946957,9 38.6573968,12.9449489 38.6573968,17.7891472 C38.6573968,22.6333456 34.6992348,26.5782945 29.8286984,26.5782945 Z" id="Path" stroke="#FFFFFF" stroke-width="1.5"></path>
                <path d="M10.4739623,53.0565866 C6.90246535,53.0565866 4,50.1638102 4,46.6116266 C4,43.059443 6.90579387,40.1666667 10.4739623,40.1666667 C14.0421307,40.1666667 16.9479246,43.059443 16.9479246,46.6116266 C16.9479246,50.1638102 14.0454592,53.0565866 10.4739623,53.0565866 Z" id="Path-Copy" stroke="#FFFFFF" stroke-width="1.5"></path>
                <path d="M29.3628512,53.0565866 C25.7913542,53.0565866 22.8888889,50.1638102 22.8888889,46.6116266 C22.8888889,43.059443 25.7946828,40.1666667 29.3628512,40.1666667 C32.9310196,40.1666667 35.8368135,43.059443 35.8368135,46.6116266 C35.8368135,50.1638102 32.9343481,53.0565866 29.3628512,53.0565866 Z" id="Path-Copy-2" stroke="#FFFFFF" stroke-width="1.5"></path>
                <path d="M48.2517401,53.0565866 C44.6802431,53.0565866 41.7777778,50.1638102 41.7777778,46.6116266 C41.7777778,43.059443 44.6835716,40.1666667 48.2517401,40.1666667 C51.8199085,40.1666667 54.7257024,43.059443 54.7257024,46.6116266 C54.7257024,50.1638102 51.823237,53.0565866 48.2517401,53.0565866 Z" id="Path-Copy-3" stroke="#FFFFFF" stroke-width="1.5"></path>
            </g>
        </g>
    </g>
</svg>