<?xml version="1.0" encoding="UTF-8"?>
<svg width="60px" height="60px" viewBox="0 0 60 60" version="1.1" xmlns="http://www.w3.org/2000/svg" xmlns:xlink="http://www.w3.org/1999/xlink">
    <!-- Generator: Sketch 48.2 (47327) - http://www.bohemiancoding.com/sketch -->
    <title>行政助理/秘书[行政部]</title>
    <desc>Created with Sketch.</desc>
    <defs>
        <filter x="-11.7%" y="-8.3%" width="123.3%" height="123.3%" filterUnits="objectBoundingBox" id="filter-1">
            <feOffset dx="0" dy="2" in="SourceAlpha" result="shadowOffsetOuter1"></feOffset>
            <feGaussianBlur stdDeviation="2" in="shadowOffsetOuter1" result="shadowBlurOuter1"></feGaussianBlur>
            <feColorMatrix values="0 0 0 0 0   0 0 0 0 0   0 0 0 0 0  0 0 0 0.5 0" type="matrix" in="shadowBlurOuter1" result="shadowMatrixOuter1"></feColorMatrix>
            <feMerge>
                <feMergeNode in="shadowMatrixOuter1"></feMergeNode>
                <feMergeNode in="SourceGraphic"></feMergeNode>
            </feMerge>
        </filter>
    </defs>
    <g id="首页" stroke="none" stroke-width="1" fill="none" fill-rule="evenodd" transform="translate(-835.000000, -2447.000000)" opacity="0.800328351">
        <g id="Group-5" transform="translate(121.000000, 2144.000000)" fill="#FFFFFF" fill-rule="nonzero">
            <g id="办公电脑" filter="url(#filter-1)" transform="translate(714.000000, 303.000000)">
                <path d="M52.7522936,33.559633 L52.7522936,37.5963303 C52.7522936,39.7981651 50.9174312,41.6330275 48.7155963,41.6330275 L10.9174312,41.6330275 C8.71559633,41.6330275 6.88073394,39.7981651 6.88073394,37.5963303 L6.88073394,33.559633 L52.7522936,33.559633 Z M52.7522936,10.8715596 L52.7522936,31.3577982 L7.24770642,31.3577982 L7.24770642,10.8715596 C7.24770642,8.66972477 9.08256881,6.83486239 11.2844037,6.83486239 L49.0825688,6.83486239 C50.9174312,7.20183486 52.7522936,8.66972477 52.7522936,10.8715596 Z M34.7706422,51.1743119 L27.0642202,51.1743119 L27.0642202,43.4678899 L34.7706422,43.4678899 L34.7706422,51.1743119 Z M49.0825688,43.4678899 C52.3853211,43.4678899 54.9541284,40.8990826 54.9541284,37.5963303 L54.9541284,10.8715596 C54.9541284,7.56880734 52.3853211,5 49.0825688,5 L10.9174312,5 C7.6146789,5 5.04587156,7.56880734 5.04587156,10.8715596 L5.04587156,37.5963303 C5.04587156,40.8990826 7.6146789,43.4678899 10.9174312,43.4678899 L24.8623853,43.4678899 L24.8623853,51.1743119 L20.8256881,51.1743119 C20.0917431,51.1743119 19.7247706,51.5412844 19.7247706,52.2752294 C19.7247706,53.0091743 20.0917431,53.3761468 20.8256881,53.3761468 L40.6422018,53.3761468 C41.3761468,53.3761468 41.7431193,53.0091743 41.7431193,52.2752294 C41.7431193,51.5412844 41.3761468,51.1743119 40.6422018,51.1743119 L36.6055046,51.1743119 L36.6055046,43.4678899 L49.0825688,43.4678899 Z" id="Shape"></path>
            </g>
        </g>
    </g>
</svg>