<?xml version="1.0" encoding="UTF-8"?>
<svg width="115px" height="102px" viewBox="0 0 115 102" version="1.1" xmlns="http://www.w3.org/2000/svg" xmlns:xlink="http://www.w3.org/1999/xlink">
    <!-- Generator: Sketch 48.2 (47327) - http://www.bohemiancoding.com/sketch -->
    <title>商务合作</title>
    <desc>Created with Sketch.</desc>
    <defs></defs>
    <g id="关于我们-商务合作" stroke="none" stroke-width="1" fill="none" fill-rule="evenodd" transform="translate(-763.000000, -568.000000)">
        <g id="合作" transform="translate(763.000000, 568.000000)" fill="#0ABBB9" fill-rule="nonzero">
            <path d="M16.6120365,60.8500526 L13.9123168,64.0319088 C11.2134884,67.2128793 11.6203626,71.9648469 14.820542,74.6466592 C16.9048255,76.3930483 19.6571313,76.8226698 22.070301,76.0373926 C21.9022927,78.3600059 22.8082897,80.7269101 24.7361516,82.3421983 C26.6706981,83.9636871 29.1819098,84.4500009 31.4627228,83.8835206 C31.0224251,86.4315745 31.9070312,89.136418 34.0389986,90.9235547 C36.0256856,92.5884486 38.6215699,93.061918 40.9500671,92.4228007 C40.6644084,94.8499405 41.5681773,97.3687624 43.5887333,99.0620025 C46.7893584,101.744258 51.5711332,101.340325 54.2690703,98.1593545 L56.227236,95.8518 L59.8521155,99.6506281 C62.7323215,102.669051 67.5301395,102.795723 70.5667671,99.9336468 C72.2223397,98.3741652 73.0057842,96.2490893 72.9175465,94.148816 C75.5985491,95.2538732 78.7978372,94.774646 81.0394333,92.6624144 C82.9744256,90.8394022 83.7226641,88.2430712 83.2712254,85.8181459 C85.6371566,86.3257193 88.2054109,85.7034326 90.0936104,83.9242682 C92.3628366,81.7863478 93.0059029,78.5845607 91.9867119,75.8433986 C95.0643388,76.4129791 98.3616689,75.5687952 100.804697,73.2625695 C104.851157,69.4420388 105.0156,63.08497 101.171017,59.062473 L100.807816,58.6860006 L106.157789,53.1691295 C118.261517,40.687076 117.893414,20.8177478 105.334236,8.788347 C92.7759499,-3.24149685 72.7838529,-2.87565419 60.6801245,9.60595641 L57.5249554,12.8595639 L53.4776041,8.98987042 C40.9090677,-3.02934359 20.9169707,-2.64578456 8.82393793,9.84557011 C-3.26954055,22.3369248 -2.88405726,42.2062529 9.68403347,54.2254668 L16.6120365,60.8500526 Z M16.4498216,72.7266499 C14.3160715,70.9386273 14.0451191,67.7709442 15.8441894,65.6502973 L28.8735231,50.2933232 C30.6725935,48.1726763 33.8602948,47.9033877 35.9940449,49.6909674 C37.951765,51.3319442 38.3359113,54.132456 36.996747,56.2216564 C36.9512911,56.272148 36.9018245,56.3177676 36.85726,56.3700308 L23.8279263,71.727005 C23.6518964,71.9342862 23.4910184,72.1482111 23.3417272,72.3678938 C21.5114617,74.2586712 18.4971164,74.4420354 16.4498216,72.7266499 Z M26.365431,80.4221889 C24.4068195,78.7807693 24.0226733,75.9784858 25.3640659,73.8892853 C25.4086305,73.8396795 25.4572057,73.7949458 25.500879,73.7435683 L38.5302127,58.3865943 C38.7049057,58.1801988 38.865338,57.9676026 39.0141836,57.7496916 C40.8440036,55.855371 43.8610227,55.6711209 45.9092088,57.3869493 C48.0425132,59.1754147 48.3139113,62.3430978 46.5143952,64.4641878 L33.4850615,79.8211618 C31.6864367,81.9409229 28.499181,82.2097686 26.365431,80.4221889 Z M35.6682781,89.0035454 C33.5349738,87.2155228 33.2635757,84.0478397 35.0626461,81.9271928 L48.0919798,66.5702187 C49.8910502,64.4495718 53.0787515,64.1802832 55.2120559,65.9678629 C57.223699,67.6544592 57.5779871,70.5652554 56.104238,72.6699576 C55.9700987,72.8063734 55.8355138,72.9419035 55.7098418,73.0898351 L42.6809537,88.4468091 C42.5851399,88.5601938 42.5018042,88.6793362 42.4135664,88.7962641 C40.5721597,90.5479682 37.6612042,90.6733113 35.6682781,89.0035454 Z M52.3385345,96.5405231 C50.5394641,98.6607272 47.3522085,98.9300157 45.2184585,97.1419931 C43.2054784,95.4549538 42.8520815,92.5410574 44.3293959,90.4359122 C44.4621982,90.301268 44.5954462,90.1670666 44.7197812,90.0204638 L57.7486694,74.6634898 C57.8444832,74.5509909 57.9269275,74.4327344 58.0147196,74.3162493 C59.8561263,72.5627737 62.7693101,72.4365446 64.7626819,74.1063106 C66.8959863,75.894776 67.1673843,79.0624592 65.3683139,81.183549 L52.3385345,96.5405231 Z M68.8287502,98.1106345 C66.8041833,100.019128 63.6053409,99.9345326 61.6855005,97.9219554 L57.8667654,93.9193893 L64.4222087,86.1932896 L69.0185951,91.0112507 C70.938881,93.0233849 70.8542084,96.2021409 68.8287502,98.1106345 Z M62.499249,11.3483593 C73.6350355,-0.134492135 92.0277113,-0.471988587 103.582404,10.5958575 C115.136206,21.6623748 115.474897,39.9429893 104.338665,51.4258408 L99.0564301,56.8727323 L74.9425591,31.9015386 L74.8930924,31.948044 L73.99378,31.0542541 L64.9605483,38.5048646 C55.8136771,46.048486 43.2469233,46.7695414 33.4895179,41.2628573 L62.499249,11.3483593 Z M10.6435079,11.5862014 C21.7694903,0.0936058399 40.1621661,-0.258949441 51.7257722,10.7991526 L55.7717865,14.6670744 L31.3049643,39.8964838 L31.3018448,39.8947123 L29.484503,41.7004511 C40.4233143,49.5465791 55.71207,49.3959902 66.5746759,40.4372755 L73.8721188,34.4185888 L99.3389693,60.7911457 C102.221849,63.8073541 102.098851,68.5752665 99.0640061,71.4408858 C96.0986817,74.2409548 91.455057,74.1798334 88.5539056,71.3616052 C88.4861675,71.2960547 88.4144186,71.236262 88.348463,71.1676112 L72.6060404,54.6971647 C72.5944536,54.6812199 72.5855407,54.6635036 72.5726169,54.6475589 C72.2885324,54.2947123 71.8355347,54.120872 71.3865723,54.1924077 C70.9376099,54.2639435 70.5619945,54.5698115 70.4031308,54.9932356 C70.2442671,55.4166596 70.3266808,55.8922707 70.6189076,56.238487 C70.6848631,56.3195393 70.7615142,56.3859756 70.8417303,56.4457682 L86.7298791,73.0978074 L88.5454384,75.0014291 C90.4657243,77.0140063 90.3810517,80.1927622 88.3555935,82.100813 C86.3778193,83.96413 83.2854861,83.9220537 81.3531677,82.0454494 C81.3068206,82.0002727 81.2573539,81.9595251 81.2123437,81.9121338 L63.7127413,63.5712838 C63.6989263,63.5522387 63.6891221,63.531422 63.6735246,63.5128198 C63.38944,63.1599732 62.9364423,62.9861329 62.48748,63.0576687 C62.0385176,63.1292044 61.6629021,63.4350725 61.5040384,63.8584965 C61.3451747,64.2819206 61.4275885,64.7575317 61.7198152,65.1037479 C61.7603689,65.1529108 61.8067161,65.1941013 61.8530632,65.2357347 L61.8441503,65.2441499 L79.491707,83.7400182 C79.5046307,83.7533055 79.5153262,83.7683644 79.5282499,83.7825374 C81.4084277,85.7968862 81.3135053,88.9441956 79.3018621,90.839845 C77.2772952,92.7483387 74.0784527,92.6637431 72.1586124,90.6511658 L66.0617381,84.2608788 L67.2988496,82.8023804 C69.9981236,79.6214099 69.591695,74.8694423 66.39107,72.18763 C64.4048286,70.5222932 61.8089443,70.0492667 59.4800016,70.688384 C59.7656603,68.2612442 58.8618915,65.7424223 56.8408897,64.0491822 C54.9063431,62.4281364 52.3951315,61.9418225 50.1143185,62.5078599 C50.5546161,59.959806 49.6700101,57.2549625 47.5380425,55.4678258 C45.4537591,53.7214368 42.7014533,53.2913724 40.2882837,54.0766495 C40.456292,51.7544791 39.5502949,49.3875748 37.6224331,47.7722867 C34.421808,45.0900315 29.6400332,45.4939643 26.9416505,48.6749347 L18.2439897,58.9264999 L11.4354198,52.4157418 C-0.127295005,41.3580826 -0.481583087,23.077911 10.6435079,11.5862014 Z" id="Shape"></path>
        </g>
    </g>
</svg>