<?xml version="1.0" encoding="UTF-8"?>
<svg width="136px" height="33px" viewBox="0 0 136 33" version="1.1" xmlns="http://www.w3.org/2000/svg" xmlns:xlink="http://www.w3.org/1999/xlink">
    <!-- Generator: Sketch 48.2 (47327) - http://www.bohemiancoding.com/sketch -->
    <title>logo</title>
    <desc>Created with Sketch.</desc>
    <defs>
        <polygon id="path-1" points="84.83 8.33885 84.83 0.36935 0.3336 0.36935 0.3336 8.33885 84.83 8.33885"></polygon>
        <polygon id="path-3" points="5.09155253e-16 18.3517285 5.09155253e-16 0.0620560976 11.5296465 0.0620560976 11.5296465 18.3517285"></polygon>
        <path d="M12.137021,8.14050599 C12.137021,8.1537233 12.1369668,8.16692466 12.1368584,8.18010976 C12.1353982,8.52580488 12.095177,8.85996341 12.0161947,9.17695122 L12.0161947,9.17909756 C12.0134071,9.18969512 12.0106195,9.20082927 12.0078319,9.2125 C12.0065044,9.21491463 12.0065044,9.21759756 12.0065044,9.2197439 C12.0038496,9.22886585 12.0011947,9.2379878 11.9982743,9.24710976 C11.9968142,9.25059756 11.9968142,9.25341463 11.9954867,9.25743902 C11.9928319,9.26535366 11.9912389,9.27447561 11.9884513,9.28346341 C11.9872566,9.28976829 11.9857965,9.29687805 11.9830088,9.3039878 C11.9800885,9.31082927 11.9787611,9.31713415 11.9775664,9.32357317 C11.9759735,9.3297439 11.9730531,9.33671951 11.9719912,9.34221951 C11.9703982,9.34704878 11.9692035,9.35134146 11.9677434,9.35617073 C11.9649558,9.36328049 11.9636283,9.37079268 11.9608407,9.37723171 C11.9593805,9.38004878 11.9593805,9.38367073 11.9580531,9.38554878 C11.8388496,9.77028049 11.6585841,10.126439 11.4148673,10.4450366 C11.4120796,10.4471829 11.4120796,10.4501341 11.409292,10.4521463 C11.405177,10.4577805 11.399469,10.4640854 11.3954867,10.4695854 C11.3924336,10.4740122 11.3897788,10.4772317 11.3871239,10.4808537 C11.3830088,10.4856829 11.3787611,10.4907805 11.3747788,10.4962805 C11.3676106,10.5055366 11.3609735,10.5130488 11.3539381,10.5221707 C11.3482301,10.5296829 11.3413274,10.5381341 11.3345575,10.5452439 C11.3316372,10.5495366 11.3276549,10.5543659 11.3247345,10.5577195 C11.3204867,10.5620122 11.319292,10.5646951 11.3149115,10.5675122 C11.3110619,10.5731463 11.3066814,10.5782439 11.3025664,10.583878 C11.3011062,10.5850854 11.2997788,10.586561 11.2984513,10.5879024 C11.0904425,10.8329878 10.8480531,11.0409146 10.5805752,11.2147683 C10.5779204,11.2161098 10.5763274,11.2173171 10.575,11.2189268 C10.5679646,11.2230854 10.5626549,11.226439 10.5570796,11.2299268 C10.554292,11.2315366 10.5513717,11.2335488 10.5487168,11.2363659 C10.5431416,11.2391829 10.5376991,11.2418659 10.5318584,11.2454878 C10.5250885,11.2503171 10.5169912,11.2552805 10.5084956,11.2601098 C10.505708,11.2622561 10.5031858,11.2635976 10.5003982,11.264939 C10.4932301,11.2693659 10.4876549,11.2735244 10.4807522,11.276878 C10.4779646,11.2792927 10.475177,11.2805 10.4738496,11.2818415 C10.4656195,11.286 10.4585841,11.289622 10.4516814,11.2943171 C10.450354,11.295122 10.4475664,11.2963293 10.4459735,11.2972683 C10.1605752,11.463878 9.84876106,11.5927927 9.5149115,11.683878 C8.18455752,8.95641463 5.92977876,6.14510976 3.00424779,3.8022439 C2.06216814,3.04592683 1.08225664,2.36459756 0.0846902655,1.7637561 C0.122123894,1.70003659 0.162212389,1.63765854 0.203761062,1.57756098 C0.250884956,1.51021951 0.30079646,1.44220732 0.353495575,1.37862195 C1.06300885,0.507743902 2.18827434,0.0959146341 3.46884956,0.0924268293 L3.49646018,0.0924268293 C5.25066372,0.0959146341 7.2949115,0.861353659 8.97438053,2.26023171 C8.98977876,2.27217073 9.00358407,2.28397561 9.01738938,2.29685366 C9.02004425,2.29806098 9.02442478,2.30235366 9.02840708,2.30436585 C9.03942478,2.31496341 9.05070796,2.32462195 9.0630531,2.33454878 C9.06584071,2.33656098 9.06849558,2.33857317 9.07128319,2.34152439 C9.08535398,2.354 9.10048673,2.36687805 9.11429204,2.37921951 C9.11429204,2.37921951 9.11575221,2.37921951 9.11575221,2.38002439 C9.12942478,2.39115854 9.14336283,2.40309756 9.15597345,2.41570732 C9.15862832,2.41691463 9.16287611,2.42 9.16579646,2.42254878 C9.21,2.46064634 9.25287611,2.50115854 9.29721239,2.53965854 L9.29721239,2.54032927 C11.0969627,4.17051157 12.1370137,6.30872233 12.137021,8.14048535 L12.137021,8.14050599 Z" id="path-5"></path>
        <linearGradient x1="71.5685375%" y1="16.8169493%" x2="37.0411672%" y2="50%" id="linearGradient-7">
            <stop stop-color="#D25B16" offset="0%"></stop>
            <stop stop-color="#BC391F" offset="100%"></stop>
        </linearGradient>
        <polygon id="path-8" points="0.071980352 0.112280488 26.7952427 0.112280488 26.7952427 23.9663521 0.071980352 23.9663521 0.071980352 0.112280488"></polygon>
        <path d="M0.0727199542,5.5743977 C0.072719963,5.55811683 0.0727719812,5.54185818 0.0728761062,5.52562195 C0.0744690265,5.10185366 0.113230088,4.69297561 0.189424779,4.3030122 L0.189424779,4.301 C0.192212389,4.28289024 0.19619469,4.26518293 0.200575221,4.24707317 L0.200575221,4.24573171 C0.204823009,4.2274878 0.207610619,4.21071951 0.21159292,4.19247561 L0.21159292,4.1889878 C0.215840708,4.17141463 0.218628319,4.15397561 0.224070796,4.13626829 L0.224070796,4.13506098 C0.22699115,4.11815854 0.232300885,4.10004878 0.236681416,4.08193902 L0.236681416,4.07965854 C0.240663717,4.06208537 0.244911504,4.04384146 0.249026549,4.02707317 C0.250486726,4.02653659 0.250486726,4.02586585 0.250486726,4.0242561 C0.254469027,4.0074878 0.258849558,3.99085366 0.262831858,3.97328049 C0.262831858,3.97167073 0.262831858,3.97126829 0.264159292,3.96965854 C0.29880531,3.83121951 0.340619469,3.69452439 0.386283186,3.56078049 C0.387610619,3.55595122 0.389070796,3.55112195 0.391858407,3.54602439 C0.394513274,3.53489024 0.398628319,3.5237561 0.402743363,3.51262195 C0.405530973,3.50618293 0.407123894,3.49907317 0.409778761,3.49357317 C0.413893805,3.48364634 0.416681416,3.4725122 0.420929204,3.46285366 C0.423716814,3.4557439 0.426504425,3.44809756 0.429159292,3.44058537 C0.432079646,3.43186585 0.434867257,3.42220732 0.438716814,3.41308537 C0.441769912,3.40463415 0.444424779,3.39631707 0.448539823,3.38853659 C0.451327434,3.37928049 0.455575221,3.37096341 0.458362832,3.36197561 C0.462477876,3.35271951 0.465,3.34520732 0.469380531,3.3367561 C0.472168142,3.32763415 0.474955752,3.31931707 0.479070796,3.31086585 C0.48199115,3.3017439 0.485973451,3.29329268 0.490221239,3.28497561 C0.49300885,3.27665854 0.49579646,3.2687439 0.499646018,3.2594878 C0.504159292,3.25117073 0.506681416,3.24204878 0.511061947,3.23292683 C0.515044248,3.22541463 0.517831858,3.21615854 0.522212389,3.20864634 C0.524867257,3.19952439 0.528982301,3.19120732 0.533097345,3.1827561 C0.535884956,3.17417073 0.54,3.16652439 0.542654867,3.1590122 C0.547035398,3.1497561 0.552477876,3.14063415 0.555265487,3.1315122 C0.559513274,3.12386585 0.562300885,3.11554878 0.565088496,3.10843902 C0.570530973,3.09918293 0.573318584,3.09046341 0.578893805,3.08134146 C0.581548673,3.07342683 0.58579646,3.06578049 0.589911504,3.05786585 C0.594159292,3.0487439 0.598141593,3.03989024 0.602389381,3.03157317 C0.605176991,3.02365854 0.609292035,3.01534146 0.61340708,3.00823171 C0.617787611,2.99910976 0.621769912,2.99012195 0.626150442,2.98234146 C0.63,2.97335366 0.634380531,2.96637805 0.637035398,2.95792683 C0.642610619,2.94960976 0.646858407,2.9404878 0.650973451,2.93257317 C0.655221239,2.9242561 0.65920354,2.91741463 0.661858407,2.9095 C0.666106195,2.90064634 0.671681416,2.89206098 0.675663717,2.88280488 C0.680044248,2.87609756 0.684292035,2.86818293 0.688274336,2.85973171 C0.692522124,2.85141463 0.696504425,2.84229268 0.702212389,2.83464634 C0.704867257,2.82713415 0.710442478,2.81989024 0.714557522,2.81237805 C0.719070796,2.80312195 0.724380531,2.794 0.728495575,2.78568293 C0.732610619,2.77857317 0.736725664,2.77092683 0.740973451,2.76314634 C0.746548673,2.7555 0.75079646,2.74637805 0.754911504,2.7372561 C0.759026549,2.73041463 0.763141593,2.72330488 0.767389381,2.71565854 C0.772964602,2.70734146 0.776946903,2.69821951 0.782522124,2.68976829 C0.786637168,2.68265854 0.790884956,2.6750122 0.794867257,2.66790244 C0.800575221,2.65958537 0.806017699,2.65113415 0.81159292,2.64214634 C0.815973451,2.63530488 0.818495575,2.62819512 0.82420354,2.62095122 C0.828318584,2.61196341 0.833893805,2.60431707 0.839469027,2.59519512 C0.843451327,2.58889024 0.847699115,2.5812439 0.851814159,2.57413415 C0.857522124,2.56514634 0.863097345,2.55669512 0.868539823,2.54904878 C0.872522124,2.54140244 0.876902655,2.53429268 0.882345133,2.52718293 C0.886460177,2.51886585 0.892168142,2.51041463 0.897610619,2.50209756 C0.903185841,2.4952561 0.907168142,2.48814634 0.911548673,2.4805 C0.91699115,2.47258537 0.922433628,2.46507317 0.92800885,2.45715854 C0.932256637,2.44884146 0.937964602,2.44240244 0.941814159,2.4347561 C0.947389381,2.42643902 0.954424779,2.41865854 0.958672566,2.41060976 C0.964115044,2.40390244 0.968230088,2.39719512 0.973672566,2.38914634 C0.979247788,2.38163415 0.984823009,2.37237805 0.990530973,2.36486585 C0.996106195,2.35762195 1.0000885,2.35078049 1.00433628,2.34447561 C1.01110619,2.33535366 1.01668142,2.32703659 1.02371681,2.31912195 C1.0279646,2.31228049 1.03353982,2.30678049 1.03752212,2.29967073 C1.04455752,2.29068293 1.05146018,2.28156098 1.05676991,2.27243902 C1.06261062,2.26693902 1.06539823,2.26063415 1.06938053,2.25580488 C1.07761062,2.24587805 1.08477876,2.23595122 1.09154867,2.22629268 C1.09566372,2.22119512 1.10004425,2.21569512 1.10389381,2.21086585 C1.11384956,2.19610976 1.12606195,2.18135366 1.13734513,2.16740244 C1.19415929,2.09576829 1.25097345,2.02789024 1.31070796,1.96095122 C2.40384956,0.726402439 4.11411504,0.136829268 6.15265487,0.113487805 L6.42690265,0.113487805 C9.28314159,0.150780488 12.7336726,1.26271951 16.0138938,3.2415122 C17.0102655,3.84168293 17.9913717,4.5227439 18.9334513,5.27785366 C18.9572124,5.29730488 18.9823009,5.31689024 19.005531,5.33593902 C19.0169469,5.34506098 19.0265044,5.35270732 19.0373894,5.36102439 C19.05,5.37162195 19.0638053,5.38289024 19.0780088,5.39321951 C19.0900885,5.40368293 19.1026991,5.41428049 19.1165044,5.42541463 C19.1263274,5.43386585 19.1373451,5.44164634 19.1471681,5.45076829 C19.1609735,5.46257317 19.1747788,5.47317073 19.1885841,5.48497561 C19.1984071,5.49181707 19.2079646,5.50053659 19.2177876,5.50871951 C19.2330531,5.5199878 19.2468584,5.53259756 19.2621239,5.54373171 C19.2690265,5.55084146 19.2787168,5.55915854 19.2870796,5.56546341 C19.3023451,5.57820732 19.3173451,5.5900122 19.3314159,5.60262195 C19.3397788,5.60973171 19.3492035,5.61684146 19.3563717,5.62354878 C19.3728319,5.63629268 19.3870354,5.64876829 19.4020354,5.6629878 C19.4102655,5.66768293 19.4158407,5.67318293 19.4228761,5.67881707 C19.4393363,5.69290244 19.4561947,5.70765854 19.4727876,5.72107317 C19.4755752,5.7237561 19.4794248,5.72670732 19.4823451,5.72939024 C19.6125664,5.8392561 19.7415929,5.95059756 19.8691593,6.06193902 L19.870354,6.06328049 C22.1666814,8.08137805 23.9847345,10.3774268 25.1807522,12.6411463 C25.1820796,12.6439634 25.1848673,12.6482561 25.1863274,12.6510732 C25.1961504,12.670122 25.205708,12.6874268 25.2153982,12.7064756 C25.2165929,12.7098293 25.2181858,12.7127805 25.2195133,12.7166707 C25.2293363,12.7350488 25.2390265,12.7524878 25.2485841,12.7707317 C25.2500442,12.7751585 25.2529646,12.7790488 25.2556195,12.7832073 C25.2654425,12.8014512 25.2736726,12.8192927 25.2832301,12.8371341 C25.284823,12.8400854 25.285885,12.8435732 25.2874779,12.8465244 C25.2973009,12.865439 25.3068584,12.8842195 25.3166814,12.903 C25.3166814,12.9052805 25.3193363,12.9072927 25.320531,12.9095732 C25.3583628,12.9852317 25.3968584,13.0612927 25.4330973,13.1384268 C25.4386726,13.1467439 25.4426549,13.1568049 25.4470354,13.1657927 C25.4510177,13.1741098 25.4551327,13.1817561 25.4595133,13.1916829 C25.4634956,13.1993293 25.4677434,13.2084512 25.4731858,13.2175732 C25.4828761,13.2399756 25.4941593,13.2630488 25.5035841,13.2855854 L25.505177,13.2859878 C26.0248673,14.3728415 26.394823,15.4462805 26.6026991,16.4699512 C26.6040265,16.471561 26.6040265,16.4742439 26.6040265,16.4762561 C26.6081416,16.4978537 26.6122566,16.5205244 26.6165044,16.5419878 C26.6176991,16.5472195 26.6176991,16.5519146 26.619292,16.5567439 C26.6232743,16.5744512 26.6260619,16.5917561 26.6303097,16.61 C26.6315044,16.6171098 26.6330973,16.6247561 26.6344248,16.631061 C26.6357522,16.6413902 26.6373451,16.652122 26.6401327,16.6617805 C26.6414602,16.6731829 26.644115,16.6844512 26.645708,16.6947805 C26.6469027,16.7065854 26.6496903,16.7178537 26.6523451,16.7292561 C26.6539381,16.7417317 26.6551327,16.7528659 26.6580531,16.7656098 C26.6595133,16.7724512 26.660708,16.7802317 26.6623009,16.7865366 C26.6649558,16.8026341 26.6662832,16.818061 26.6690708,16.8346951 C26.6719912,16.8411341 26.6719912,16.8495854 26.6733186,16.8558902 C26.6761062,16.8733293 26.6786283,16.8900976 26.6815487,16.9068659 C26.6831416,16.9119634 26.6831416,16.9159878 26.6843363,16.9210854 C26.6869912,16.9377195 26.6885841,16.9551585 26.6925664,16.9721951 L26.6925664,16.9799756 C26.695354,16.9994268 26.6981416,17.0190122 26.7009292,17.0384634 C26.7009292,17.0412805 26.7025221,17.0443659 26.7038496,17.0469146 C26.705177,17.0666341 26.7078319,17.0868902 26.7106195,17.1058049 C26.7106195,17.1087561 26.7120796,17.1113049 26.7120796,17.1145244 C26.7177876,17.1562439 26.7232301,17.1983659 26.7272124,17.2396829 C26.7272124,17.2402195 26.7272124,17.2410244 26.7288053,17.2410244 C26.7314602,17.2624878 26.7342478,17.2838171 26.7371681,17.3047439 L26.7371681,17.306622 C26.8895575,18.629439 26.7440708,19.8490976 26.2631416,20.8813537 C26.2631416,20.8820244 26.2618142,20.8820244 26.2618142,20.8836341 C26.2533186,20.8995976 26.2465487,20.9151585 26.2381858,20.9317927 L26.2381858,20.9344756 C26.2299558,20.9492317 26.2229204,20.9655976 26.2146903,20.9803537 C26.2146903,20.9822317 26.2130973,20.9838415 26.2117699,20.9863902 C26.2047345,21.0006098 26.1980973,21.0144268 26.1897345,21.0299878 C26.1897345,21.032 26.1881416,21.0348171 26.1854867,21.0368293 C26.1783186,21.0507805 26.1718142,21.0648659 26.1647788,21.0789512 C26.1633186,21.0817683 26.1618584,21.0845854 26.1606637,21.087939 C26.1524336,21.1012195 26.1452655,21.1153049 26.1383628,21.1287195 C26.1370354,21.1314024 26.1355752,21.1348902 26.1342478,21.1377073 C26.1260177,21.1501829 26.1204425,21.1644024 26.1118142,21.176878 C26.1107522,21.1811707 26.1078319,21.1846585 26.1065044,21.1880122 C26.0996018,21.2007561 26.0926991,21.2135 26.0842035,21.2257073 C26.0830088,21.2302683 26.0800885,21.233622 26.0788938,21.2377805 C26.0718584,21.2495854 26.0634956,21.2624634 26.0567257,21.2742683 C26.0551327,21.2790976 26.0523451,21.2833902 26.049823,21.2867439 C26.0426549,21.2989512 26.035885,21.3104878 26.0288496,21.3233659 C26.0260619,21.3268537 26.0232743,21.3316829 26.020354,21.3365122 C26.0137168,21.3477805 26.0068142,21.3597195 25.9997788,21.3701829 C25.9969912,21.3756829 25.9940708,21.3805122 25.9914159,21.3857439 C25.984646,21.3960732 25.9776106,21.407878 25.9705752,21.4187439 C25.9677876,21.4242439 25.9638053,21.4290732 25.9610177,21.4337683 C25.9539823,21.4450366 25.9472124,21.4556341 25.9387168,21.4652927 C25.9359292,21.4717317 25.9319469,21.4772317 25.9291593,21.4827317 C25.9222566,21.4926585 25.915354,21.5033902 25.9099115,21.5129146 C25.9056637,21.5186829 25.9012832,21.5248537 25.8974336,21.5304878 C25.8902655,21.5404146 25.8846903,21.5500732 25.8780531,21.5598659 C25.8736726,21.5661707 25.8694248,21.5723415 25.8654425,21.5789146 C25.8584071,21.5872317 25.8528319,21.5970244 25.8460619,21.6069512 C25.8418142,21.613122 25.8375664,21.619561 25.8319912,21.6264024 C25.8252212,21.6355244 25.8197788,21.6446463 25.8126106,21.6529634 C25.8086283,21.6607439 25.8029204,21.6670488 25.7989381,21.6740244 C25.7919027,21.6824756 25.7863274,21.690122 25.7795575,21.6992439 C25.7753097,21.7068902 25.7697345,21.7134634 25.764292,21.7209756 C25.7572566,21.7294268 25.7531416,21.7361341 25.7461062,21.7448537 C25.7406637,21.7531707 25.7336283,21.761622 25.7281858,21.7692683 C25.7226106,21.7762439 25.7169027,21.7834878 25.7115929,21.7903293 C25.7004425,21.8049512 25.6879646,21.8205122 25.6769469,21.8351341 C25.6684513,21.8464024 25.660354,21.8575366 25.650531,21.8678659 C25.6449558,21.8757805 25.6381858,21.8834268 25.6326106,21.890939 C25.6296903,21.894561 25.6269027,21.8972439 25.6255752,21.9001951 C25.6174779,21.9093171 25.6104425,21.9185732 25.6035398,21.927561 C25.600885,21.9291707 25.600885,21.930378 25.5979646,21.9323902 C25.5910619,21.9415122 25.5840265,21.9507683 25.5756637,21.9597561 C25.574469,21.9609634 25.5730088,21.9632439 25.5716814,21.9641829 C25.564646,21.9729024 25.5576106,21.9821585 25.5493805,21.9904756 C25.5480531,21.9927561 25.5464602,21.9947683 25.5453982,21.9959756 C25.5370354,22.0052317 25.5288053,22.0151585 25.520177,22.0242805 C25.520177,22.0249512 25.5188496,22.0261585 25.5188496,22.0270976 C25.5091593,22.0367561 25.5007965,22.0464146 25.4925664,22.0564756 C25.4911062,22.0564756 25.4911062,22.0576829 25.4911062,22.0576829 C25.4816814,22.0682805 25.4731858,22.0772683 25.4649558,22.0878659 L25.4634956,22.0878659 C24.3603982,23.3106098 22.6738938,23.9168171 20.6742478,23.9632317 L20.1613274,23.9632317 C18.795,23.931439 17.2985841,23.6542927 15.7518584,23.1481585 C15.7490708,23.1473537 15.7449558,23.145878 15.740708,23.1452073 C15.715885,23.137561 15.6907965,23.1291098 15.6659735,23.1206585 C15.6590708,23.1186463 15.6521681,23.1159634 15.6438053,23.1138171 C15.6215044,23.1060366 15.5981416,23.0975854 15.5758407,23.089939 C15.5662832,23.0869878 15.5564602,23.084439 15.5482301,23.0809512 C15.5261947,23.0733049 15.5036283,23.0661951 15.4829204,23.0584146 C15.4717699,23.055061 15.4623451,23.0507683 15.4511947,23.0471463 C15.4318142,23.0408415 15.4123009,23.034 15.3930531,23.0267561 C15.3789823,23.0227317 15.365177,23.0183049 15.3529646,23.0136098 C15.3349115,23.0065 15.3183186,23.001 15.3014602,22.994561 C15.2848673,22.9897317 15.269469,22.9842317 15.2557965,22.9785976 C15.2392035,22.9729634 15.2226106,22.9671951 15.2057522,22.9611585 C15.1906195,22.9556585 15.1737611,22.9504268 15.1587611,22.9443902 C15.1423009,22.9380854 15.124115,22.9316463 15.1075221,22.9253415 C15.0922566,22.9205122 15.0769912,22.9142073 15.0615929,22.909378 C15.0465929,22.9030732 15.0285398,22.8966341 15.0119469,22.8895244 C14.9966814,22.8840244 14.9800885,22.8783902 14.965885,22.8727561 C14.9494248,22.8672561 14.9328319,22.8609512 14.9175664,22.8553171 C14.8993805,22.8484756 14.8829204,22.8427073 14.8664602,22.8358659 C14.8510619,22.8307683 14.8371239,22.8239268 14.8234513,22.8195 C14.8053982,22.8127927 14.7873451,22.8047439 14.7694248,22.7987073 C14.7541593,22.792939 14.7388938,22.7865 14.7249558,22.7816707 C14.7069027,22.7748293 14.6888496,22.7670488 14.6709292,22.7607439 C14.6569912,22.7545732 14.6431858,22.7494756 14.6293805,22.7447805 C14.61,22.737 14.5907522,22.7292195 14.5726991,22.7217073 C14.5600885,22.7164756 14.5462832,22.7116463 14.5323451,22.7061463 C14.5129646,22.6978293 14.4922566,22.689378 14.4726106,22.6824024 C14.4603982,22.6766341 14.449115,22.6726098 14.4367699,22.6683171 C14.4175221,22.66 14.3966814,22.6515488 14.3770354,22.6432317 C14.3646903,22.6384024 14.350885,22.6318293 14.3369469,22.6261951 C14.3175664,22.6193537 14.2995133,22.6110366 14.2801327,22.6033902 C14.2663274,22.597622 14.2538496,22.5927927 14.2400442,22.5871585 C14.220531,22.5788415 14.199823,22.5705244 14.1805752,22.5618049 C14.1678319,22.5561707 14.155354,22.5513415 14.1443363,22.5465122 C14.1236283,22.5381951 14.1013274,22.5282683 14.0806195,22.5199512 C14.0696018,22.5156585 14.0584513,22.5100244 14.0474336,22.506 C14.0251327,22.4967439 14.0045575,22.4869512 13.9837168,22.4776951 C13.9711062,22.4738049 13.9600885,22.4681707 13.9490708,22.4626707 C13.9266372,22.4542195 13.9061947,22.4444268 13.8852212,22.4351707 C13.8727434,22.430878 13.8629204,22.425378 13.8517699,22.4212195 C13.8297345,22.4112927 13.8076991,22.4013659 13.7853982,22.3918415 C13.7742478,22.3867439 13.764823,22.3833902 13.7534071,22.3778902 C13.7300442,22.3679634 13.7078761,22.3576341 13.685708,22.3469024 C13.675885,22.3435488 13.6663274,22.3392561 13.6566372,22.3349634 C13.634469,22.3245 13.6121681,22.3143049 13.5888053,22.3035732 C13.5789823,22.2995488 13.5679646,22.2939146 13.5569469,22.289622 C13.534646,22.2791585 13.5124779,22.2692317 13.4904425,22.259439 C13.4806195,22.2544756 13.469469,22.2497805 13.4597788,22.2446829 C13.4361504,22.2343537 13.4139823,22.2242927 13.3919469,22.2139634 C13.3821239,22.2091341 13.3711062,22.2041707 13.3612832,22.1993415 C13.3364602,22.188878 13.3144248,22.1766707 13.2907965,22.1663415 C13.2809735,22.1619146 13.2727434,22.1570854 13.2645133,22.1538659 C13.2407522,22.1424634 13.2159292,22.1305244 13.1924336,22.120061 C13.1826106,22.1157683 13.1743805,22.1110732 13.1644248,22.1066463 C13.1410619,22.0949756 13.1147788,22.0830366 13.0896903,22.0710976 C13.0829204,22.0676098 13.075885,22.0634512 13.0675221,22.0605 C13.0412389,22.0480244 13.0149558,22.0340732 12.9885398,22.022 C12.9829646,22.0186463 12.9761947,22.0158293 12.9691593,22.0130122 C12.9399558,21.9975854 12.9110177,21.9836341 12.8818142,21.9696829 C12.8776991,21.9680732 12.8763717,21.966061 12.8735841,21.9653902 C12.8443805,21.9507683 12.8167699,21.9366829 12.7890265,21.9227317 C12.7834513,21.9199146 12.7780088,21.9176341 12.7724336,21.9144146 C12.7420354,21.8995244 12.710177,21.8840976 12.6795133,21.8678659 C12.6781858,21.867061 12.6767257,21.867061 12.675531,21.8659878 C12.6447345,21.8504268 12.6130088,21.8344634 12.5811504,21.8185 C12.579823,21.8176951 12.5783628,21.8170244 12.5754425,21.8154146 C12.3456637,21.6979024 12.1141593,21.574622 11.884115,21.4470488 C11.8826549,21.4458415 11.88,21.4450366 11.8786726,21.4428902 C11.8480088,21.4267927 11.8176106,21.4094878 11.7869469,21.3932561 C11.780177,21.3884268 11.7732743,21.384939 11.7649115,21.3813171 C11.7400885,21.3658902 11.715,21.351939 11.6885841,21.3378537 C11.680354,21.3331585 11.6734513,21.3288659 11.6652212,21.3240366 C11.6415929,21.3104878 11.6165044,21.2966707 11.5916814,21.2833902 C11.5806637,21.2762805 11.5708407,21.2707805 11.559823,21.2643415 C11.5377876,21.2517317 11.5154867,21.2385854 11.4933186,21.2257073 C11.4837611,21.2202073 11.4739381,21.2145732 11.4630531,21.208939 C11.4404867,21.1959268 11.4184513,21.182378 11.3964159,21.1699024 C11.3865929,21.1644024 11.3755752,21.1572927 11.3645575,21.1517927 C11.3421239,21.1377073 11.3199558,21.1252317 11.2980531,21.1116829 C11.2870354,21.1060488 11.2770796,21.1000122 11.2659292,21.0937073 C11.2452212,21.0808293 11.2231858,21.068622 11.2023451,21.055878 C11.1897345,21.0479634 11.1775221,21.041122 11.1649115,21.0334756 C11.145531,21.0214024 11.124823,21.0089268 11.1039823,20.9977927 C11.0913717,20.9893415 11.0791593,20.981561 11.0650885,20.9739146 C11.0473009,20.9626463 11.0276549,20.9500366 11.0082743,20.9389024 C10.994469,20.9305854 10.9806637,20.9226707 10.9668584,20.9138171 C10.9488053,20.9022805 10.9291593,20.8904756 10.9099115,20.8792073 C10.8961062,20.8707561 10.8834956,20.862439 10.8683628,20.854122 C10.8515044,20.8421829 10.8323894,20.8310488 10.8142035,20.8199146 C10.8003982,20.8113293 10.7851327,20.8020732 10.77,20.7932195 C10.7519469,20.7818171 10.7354867,20.7706829 10.715708,20.7595488 C10.7020354,20.7504268 10.6882301,20.7413049 10.6744248,20.7329878 C10.6563717,20.7217195 10.6381858,20.7097805 10.6201327,20.6994512 C10.6051327,20.6895244 10.5911947,20.6804024 10.5760619,20.6712805 C10.5593363,20.6601463 10.539823,20.6474024 10.5220354,20.6370732 C10.5078319,20.6278171 10.4941593,20.6181585 10.4787611,20.6090366 C10.4621681,20.5979024 10.444115,20.5871707 10.4275221,20.5760366 C10.4122566,20.5657073 10.3972566,20.5557805 10.3818584,20.5458537 C10.3639381,20.5348537 10.3472124,20.5243902 10.329292,20.5124512 C10.315354,20.5033293 10.3000885,20.4936707 10.2850885,20.4837439 C10.2682301,20.4731463 10.2516372,20.4612073 10.2335841,20.4507439 C10.2184513,20.4402805 10.2031858,20.4296829 10.1865929,20.4201585 C10.1714602,20.4080854 10.1547345,20.3973537 10.1381416,20.3871585 C10.1214159,20.3764268 10.1061504,20.3659634 10.090885,20.3556341 C10.0744248,20.3450366 10.0590265,20.3337683 10.0425664,20.323439 C10.0270354,20.3128415 10.0105752,20.3015732 9.99371681,20.2911098 C9.97712389,20.2799756 9.96185841,20.2692439 9.94539823,20.2582439 C9.93026549,20.2477805 9.91353982,20.2370488 9.89840708,20.2259146 C9.88154867,20.2149146 9.8650885,20.2044512 9.84969027,20.1930488 C9.83469027,20.1824512 9.81783186,20.1714512 9.80269912,20.1607195 C9.78584071,20.1497195 9.76938053,20.1376463 9.75278761,20.1265122 C9.73752212,20.1160488 9.72106195,20.1050488 9.70566372,20.0943171 C9.69053097,20.0831829 9.67513274,20.0725854 9.65986726,20.062122 C9.64340708,20.0501829 9.62681416,20.0390488 9.6100885,20.0269756 C9.59482301,20.0167805 9.5779646,20.0055122 9.5629646,19.9949146 C9.54610619,19.9836463 9.53110619,19.9718415 9.51424779,19.9605732 C9.49778761,19.9486341 9.48265487,19.9391098 9.46738938,19.9275732 C9.45079646,19.916439 9.43553097,19.9053049 9.41893805,19.892561 C9.40353982,19.8822317 9.3869469,19.8702927 9.37168142,19.8599634 C9.35641593,19.8472195 9.33982301,19.8359512 9.32336283,19.8241463 C9.30783186,19.8136829 9.29415929,19.8032195 9.27876106,19.7931585 C9.26230088,19.7806829 9.24424779,19.7680732 9.22765487,19.7553293 C9.21238938,19.745 9.19845133,19.7344024 9.18318584,19.723939 C9.16672566,19.7113293 9.15,19.6995244 9.13327434,19.6869146 C9.11814159,19.6756463 9.10433628,19.6657195 9.09039823,19.6555244 C9.07247788,19.6426463 9.05561947,19.6301707 9.0379646,19.6168902 C9.02362832,19.605622 9.00876106,19.5956951 8.99336283,19.5838902 C8.97809735,19.5718171 8.96004425,19.5594756 8.94345133,19.5468659 C8.92964602,19.5362683 8.91584071,19.5258049 8.90057522,19.5146707 C8.88384956,19.5019268 8.8659292,19.4887805 8.84933628,19.4752317 C8.83539823,19.4657073 8.82013274,19.454439 8.80632743,19.4430366 C8.78827434,19.4306951 8.77168142,19.4171463 8.75482301,19.4048049 C8.7410177,19.394878 8.72721239,19.3837439 8.71340708,19.3738171 C8.69535398,19.3606707 8.67730088,19.3464512 8.65938053,19.3325 C8.6470354,19.3225732 8.63429204,19.3129146 8.62048673,19.3017805 C8.60256637,19.2886341 8.58464602,19.2744146 8.56672566,19.2596585 C8.55292035,19.25 8.53871681,19.2394024 8.52650442,19.228939 C8.50845133,19.2149878 8.49026549,19.2022439 8.47380531,19.1884268 C8.45840708,19.1756829 8.44300885,19.1645488 8.42800885,19.1518049 C8.41154867,19.1398659 8.39469027,19.1272561 8.37955752,19.1155854 C8.36415929,19.1029756 8.34889381,19.0917073 8.33522124,19.0789634 C8.31862832,19.0663537 8.30323009,19.0540122 8.28663717,19.0412683 C8.25477876,19.0161829 8.22424779,18.9915 8.19384956,18.9668171 C8.17181416,18.9488415 8.14938053,18.9318049 8.12734513,18.9138293 C8.11752212,18.9067195 8.1079646,18.8984024 8.09946903,18.8912927 C8.08566372,18.8801585 8.07172566,18.8688902 8.05924779,18.858561 C8.04823009,18.8506463 8.03986726,18.8423293 8.02884956,18.833878 C8.01769912,18.8248902 8.00535398,18.8150976 7.99420354,18.8053049 C7.97336283,18.7878659 7.95132743,18.7702927 7.93048673,18.7527195 C7.92066372,18.7456098 7.91123894,18.7371585 7.90287611,18.7303171 C7.89026549,18.7191829 7.87659292,18.7085854 7.86265487,18.6973171 C7.85561947,18.6918171 7.84725664,18.6847073 7.83915929,18.6777317 C7.82535398,18.6659268 7.80982301,18.6533171 7.79455752,18.641378 C7.79190265,18.638561 7.78765487,18.6350732 7.78353982,18.6322561 C7.73243363,18.5889268 7.67960177,18.544122 7.62836283,18.5005244 C7.62584071,18.4978415 7.62292035,18.4965 7.62013274,18.4936829 C7.60207965,18.4782561 7.58548673,18.4643049 7.56743363,18.4487439 C7.56743363,18.4480732 7.56597345,18.4474024 7.56464602,18.4474024 C3.00382005,14.5571852 0.0727260763,9.43943236 0.0727199542,5.57441394 L0.0727199542,5.57440214 L0.0727199542,5.5743977 Z" id="path-10"></path>
        <linearGradient x1="27.1551341%" y1="-4.60018853%" x2="53.6757445%" y2="43.9768472%" id="linearGradient-12">
            <stop stop-color="#D25B16" offset="0%"></stop>
            <stop stop-color="#BA421E" offset="100%"></stop>
        </linearGradient>
    </defs>
    <g id="首页" stroke="none" stroke-width="1" fill="none" fill-rule="evenodd" transform="translate(-165.000000, -19.000000)">
        <g id="logo" transform="translate(165.000000, 19.000000)">
            <g id="Group-19" transform="translate(50.500000, 5.019600)" fill="#FFFFFF">
                <path d="M52.2285,13.184 L52.2285,14.7225 L52.2285,13.184 Z M52.2285,14.7225 L55.1785,14.7225 L55.1785,13.184 L52.2285,13.184 L52.2285,14.7225 Z M25.8195,8.773 L27.3735,8.773 L27.0955,12.469 C27.046,13.098 26.849,13.61 26.508,14.0075 C26.1155,14.456 25.612,14.761 24.9945,14.9235 L24.9945,13.293 C25.1805,13.181 25.306,13.081 25.3735,12.9915 C25.4855,12.84 25.555,12.5425 25.5835,12.1 L25.8195,8.773 Z M30.97,8.773 L32.524,8.773 L32.717,11.6045 C32.729,12.1145 32.7505,12.4245 32.784,12.5375 C32.88,12.884 33.059,13.128 33.323,13.2685 L33.323,14.9235 C32.8015,14.8005 32.353,14.5505 31.9785,14.176 C31.524,13.7165 31.275,13.136 31.2305,12.436 L30.97,8.773 Z M45.171,7.0165 L46.9605,7.0165 L47.2385,7.831 L50.633,7.831 L50.633,9.3865 L47.776,9.3865 L48.5735,11.688 C48.7745,12.2715 49.106,12.6945 49.5655,12.9575 C49.8,13.091 50.1555,13.176 50.633,13.2095 L50.633,14.7645 C49.8025,14.696 49.1625,14.5285 48.7085,14.26 C48.0075,13.84 47.475,13.145 47.1115,12.1755 L45.171,7.0165 Z M52.2285,8.2605 L55.1785,8.2605 L55.1785,6.706 L52.2285,6.706 L52.2285,8.2605 Z M44.6585,4.4955 C44.1035,4.4955 43.6975,4.5655 43.439,4.706 C42.997,4.9525 42.776,5.3785 42.776,5.983 L42.776,13.2175 C42.776,13.5365 42.835,13.7975 42.9525,13.9995 C43.2275,14.4755 43.622,14.7135 44.137,14.7135 L46.49,14.7135 L46.49,13.16 L44.792,13.16 C44.485,13.16 44.3295,13.0155 44.3295,12.73 L44.3295,6.6135 C44.3295,6.2265 44.521,6.034 44.9015,6.034 L50.633,6.034 L50.633,4.4955 L44.6585,4.4955 Z M61.825,4.059 L65.682,4.059 C67.065,4.059 67.758,4.535 67.758,5.4875 C67.758,5.863 67.62,6.2825 67.345,6.7475 C67.1715,7.0445 66.839,7.5515 66.345,8.2685 L67.732,8.2685 L67.732,9.815 L66.042,9.815 L66.0515,12.0835 C66.057,14.0775 65.093,15.0385 63.1605,14.9655 L62.5985,14.941 L62.5985,13.3775 L63.1945,13.3775 C63.6325,13.3775 63.929,13.308 64.0855,13.167 C64.32,12.9595 64.437,12.5575 64.437,11.957 L64.437,9.815 L61.724,9.815 L61.724,8.2685 L64.5305,8.2685 C64.782,7.91 64.9735,7.641 65.1015,7.462 C65.7295,6.594 66.042,6.081 66.042,5.9235 C66.042,5.722 65.906,5.622 65.631,5.622 L61.825,5.622 L61.825,4.059 Z M75.186,3.857 L76.673,3.857 C76.5445,4.288 76.337,5.0395 76.051,6.1095 C75.748,7.218 75.3895,8.1595 74.976,8.933 C75.457,9.593 76.0205,10.218 76.6645,10.807 L76.6645,12.5625 C75.8465,12.08 75.031,11.3105 74.2195,10.2515 C73.826,10.773 73.4545,11.196 73.101,11.521 C72.794,11.8175 72.3535,12.164 71.7815,12.5625 L71.7815,10.7555 C72.5165,10.1505 73.062,9.5455 73.421,8.941 C73.062,8.1335 72.774,7.375 72.5555,6.664 C72.2915,5.784 72.031,4.849 71.774,3.857 L73.244,3.857 C73.654,5.4425 73.973,6.577 74.202,7.2595 C74.437,6.622 74.764,5.4875 75.186,3.857 L75.186,3.857 Z M80.883,3.857 L82.3445,3.857 C82.1155,4.7425 81.919,5.462 81.756,6.0165 C81.47,6.997 81.1145,7.969 80.69,8.933 C81.1095,9.61 81.6645,10.224 82.353,10.773 L82.353,12.571 C81.8155,12.229 81.291,11.7975 80.7815,11.2765 C80.3895,10.879 80.097,10.5375 79.908,10.2515 C79.179,11.221 78.3615,11.988 77.454,12.554 L77.454,10.781 C78.1715,10.1815 78.7235,9.563 79.1095,8.9235 C78.6725,7.8875 78.3665,7.083 78.193,6.513 C78.043,6.0195 77.8015,5.1335 77.4715,3.857 L78.942,3.857 C79.228,5.028 79.543,6.1845 79.8905,7.328 C79.903,7.289 80.2335,6.131 80.883,3.857 L80.883,3.857 Z M52.2285,2.4875 L55.1785,2.4875 L55.1785,0.933 L52.2285,0.933 L52.2285,2.4875 Z M13.2805,13.2095 C13.236,13.1195 13.2145,12.8985 13.2145,12.5455 L13.2145,2.9665 C13.2145,2.5795 13.3495,2.3865 13.6175,2.3865 L14.139,2.3865 C14.402,2.3865 14.534,2.5795 14.534,2.9665 L14.534,12.747 C14.534,12.9985 14.4965,13.167 14.425,13.252 C14.3345,13.3525 14.189,13.4025 13.9885,13.4025 L13.6515,13.4025 C13.472,13.4025 13.3495,13.3375 13.2805,13.2095 L13.2805,13.2095 Z M13.433,0.807 C12.3235,0.807 11.7685,1.319 11.7685,2.3445 L11.7685,13.293 C11.7685,14.3855 12.3155,14.932 13.407,14.932 L14.508,14.932 C15.1915,14.932 15.6555,14.6185 15.895,13.9915 C15.956,13.8285 15.987,13.5235 15.987,13.075 L15.987,2.5125 C15.987,1.9355 15.8615,1.518 15.6095,1.2605 C15.313,0.958 14.875,0.807 14.298,0.807 L13.433,0.807 Z M61.968,0.706 C61.8565,1.434 61.6125,2.0305 61.2365,2.496 L61.2365,4.2185 C61.616,3.9945 61.851,3.8515 61.9345,3.7905 C62.1245,3.65 62.34,3.4255 62.5815,3.117 L67.7655,3.117 L67.7655,1.5625 L63.27,1.5625 L63.4125,0.697 L61.968,0.706 Z M71.732,0.6635 C71.031,0.6635 70.48,0.8665 70.077,1.2695 C69.6675,1.684 69.4625,2.202 69.4625,2.823 L69.4625,14.8815 L71.0175,14.8815 L71.0175,3.2355 C71.0175,2.546 71.3765,2.202 72.093,2.202 L82.252,2.202 C82.981,2.202 83.3435,2.546 83.3435,3.2355 L83.353,12.5115 C83.353,12.7255 83.2575,12.915 83.0675,13.083 C82.8775,13.252 82.6645,13.335 82.4285,13.335 L81.244,13.335 L81.244,14.8815 L82.6805,14.8815 C83.3815,14.8815 83.935,14.664 84.3445,14.2255 C84.725,13.8175 84.9165,13.319 84.9165,12.73 L84.9165,2.8735 C84.9165,2.1565 84.6955,1.6025 84.252,1.21 C83.833,0.846 83.249,0.6635 82.504,0.6635 L71.732,0.6635 Z M28.3475,0.6555 L28.3475,2.2855 L27.1885,2.2775 C27.2495,1.8405 27.3,1.404 27.34,0.966 L25.81,0.966 C25.716,1.913 25.6415,2.4875 25.592,2.6895 C25.496,3.0865 25.2385,3.3755 24.8195,3.5545 L24.81,5.176 C25.298,5.0535 25.6875,4.885 25.9785,4.672 C26.252,4.4765 26.5245,4.191 26.794,3.815 L28.3475,3.815 L28.3475,6.1095 L24.911,6.1095 L24.911,7.664 L28.3475,7.664 L28.3475,14.915 L29.903,14.915 L29.903,7.664 L33.365,7.664 L33.365,6.1095 L29.903,6.1095 L29.903,3.815 L33.365,3.815 L33.365,2.2855 L29.903,2.2855 L29.903,0.6555 L28.3475,0.6555 Z M2.4585,9.3945 C2.1785,9.39 2.0385,9.204 2.0385,8.839 L2.0385,4.0255 C2.0385,3.857 2.079,3.718 2.157,3.6095 C2.235,3.4995 2.335,3.4455 2.4585,3.4455 L2.5935,3.4455 L2.5855,9.4025 L2.4585,9.3945 Z M4.0895,3.4455 L4.2065,3.437 C4.336,3.431 4.4345,3.4565 4.5005,3.5125 C4.596,3.591 4.6435,3.778 4.6435,4.075 L4.6435,8.789 C4.6435,9.193 4.514,9.3945 4.258,9.3945 L4.0895,9.3945 L4.0895,3.4455 Z M2.5935,0.6395 L2.5935,1.8655 L2.2065,1.8655 C1.708,1.877 1.3215,2.0285 1.0465,2.3195 C0.8,2.583 0.677,2.944 0.677,3.4025 L0.677,9.4955 C0.677,9.9655 0.8255,10.33 1.1235,10.5885 C1.448,10.862 1.8175,10.9885 2.231,10.9655 L2.316,10.9575 L2.5935,10.9575 L2.5935,13.3775 L0.475,13.3775 L0.475,14.941 L4.072,14.932 C4.851,14.932 5.3965,14.761 5.7105,14.419 C6.0975,14.005 6.293,13.4615 6.3,12.789 L6.308,11.773 L5.022,11.773 L5.022,12.2765 C5.022,12.6075 4.9575,12.8595 4.8295,13.0325 C4.7215,13.184 4.472,13.2985 4.08,13.3775 L4.08,10.9575 L4.534,10.9575 C5.073,10.9575 5.475,10.783 5.7445,10.436 C5.963,10.156 6.072,9.7785 6.072,9.302 L6.072,3.4705 C6.072,2.9715 5.941,2.583 5.677,2.3025 C5.402,2.011 5.0275,1.8655 4.5515,1.8655 L4.08,1.8655 L4.08,0.6395 L2.5935,0.6395 Z M19.651,9.2435 C19.511,9.1875 19.441,9.0195 19.441,8.7395 L19.441,4.092 C19.441,3.7285 19.62,3.54 19.9785,3.5295 L20.2145,3.5295 L20.2145,9.277 L19.9205,9.286 C19.9055,9.2865 19.8925,9.2865 19.879,9.2865 C19.794,9.2865 19.7185,9.2725 19.651,9.2435 L19.651,9.2435 Z M22.2225,9.286 L21.7685,9.277 L21.7685,3.5295 L22.088,3.5295 C22.4285,3.524 22.601,3.723 22.601,4.1255 L22.601,8.748 C22.601,9.1065 22.477,9.286 22.2335,9.286 L22.2225,9.286 Z M20.2145,0.6145 L20.2145,1.9835 L19.5835,1.9835 C18.453,1.9835 17.8855,2.493 17.8855,3.5125 L17.8855,9.3945 C17.8855,9.843 18.015,10.193 18.274,10.445 C18.5365,10.703 18.852,10.832 19.2225,10.832 L20.2145,10.823 L20.2145,13.3525 L17.7765,13.3525 L17.7765,14.9065 L21.6095,14.9065 C22.0635,14.9065 22.395,14.8875 22.6095,14.848 C23.0015,14.7745 23.3345,14.616 23.6095,14.369 C24.0795,13.9375 24.3195,13.2825 24.3315,12.4025 L24.34,11.7555 L22.76,11.7635 L22.768,12.1425 C22.7795,12.9375 22.4465,13.3415 21.7685,13.3525 L21.7685,10.823 L22.55,10.832 C23.0605,10.8365 23.4465,10.7225 23.7105,10.4865 C24.0015,10.2285 24.147,9.784 24.147,9.1505 L24.147,3.4705 C24.147,3.0395 24.026,2.692 23.7845,2.429 C23.5105,2.1325 23.116,1.9835 22.601,1.9835 L21.7685,1.9835 L21.7685,0.6145 L20.2145,0.6145 Z M57.2365,0.622 L57.2365,1.6385 L55.842,1.6385 L55.842,3.194 L56.564,3.194 L56.1865,11.705 C56.1635,12.254 56.1165,12.6855 56.044,12.9985 C56.005,13.167 55.909,13.302 55.759,13.4025 L55.75,14.9915 C56.018,14.9065 56.215,14.834 56.3375,14.773 C56.685,14.61 56.963,14.3465 57.169,13.9825 C57.4615,13.4725 57.635,12.6125 57.6905,11.4035 L57.9085,6.3615 L58.5815,6.3615 L58.8075,6.3525 C58.9425,6.3525 59.0545,6.4095 59.1445,6.5195 C59.212,6.599 59.2455,6.826 59.2455,7.202 L59.2455,13.075 C59.2455,13.293 59.1865,13.428 59.0695,13.478 C58.9965,13.506 58.862,13.5235 58.665,13.5285 L58.5555,13.5285 L58.5555,14.9065 L59.397,14.915 C59.991,14.915 60.3925,14.742 60.607,14.3945 C60.7365,14.176 60.8,13.7715 60.8,13.184 L60.7915,6.302 C60.7915,5.804 60.678,5.462 60.456,5.2775 C60.204,5.0695 59.7945,4.9635 59.2285,4.958 L57.9505,4.95 L58.0355,3.21 L60.816,3.194 L60.816,1.6385 L58.7915,1.6385 L58.7915,0.6145 L57.2365,0.622 Z M7.1555,0.597 C7.1005,1.146 7.0165,1.586 6.9035,1.916 C6.809,2.1905 6.646,2.4505 6.417,2.698 L6.417,4.6305 C6.898,4.428 7.2645,4.1815 7.518,3.8905 C7.6565,3.7285 7.839,3.462 8.0635,3.092 L8.1555,3.084 L8.1555,6.6385 L6.568,6.655 L6.568,8.193 L8.1555,8.193 C7.9545,10.467 7.402,12.067 6.5005,12.9915 L6.4925,14.831 C7.1315,14.366 7.646,13.8285 8.038,13.2175 C8.2955,12.8095 8.604,12.13 8.9625,11.1845 C9.294,12.198 9.6825,13.013 10.13,13.6295 C10.4895,14.1165 10.937,14.548 11.475,14.9235 L11.475,13.1085 C10.9155,12.436 10.5045,11.7335 10.2485,10.9995 C9.9225,10.042 9.732,9.106 9.677,8.193 L11.391,8.193 L11.391,6.6385 L9.685,6.6385 L9.685,3.092 L11.4155,3.092 L11.4155,1.5465 L8.6435,1.5465 L8.82,0.597 L7.1555,0.597 Z M37.683,0.4795 L37.683,1.504 L35.1035,1.504 L35.1035,3.0415 L36.415,3.0415 L35.9105,11.1005 C35.8485,12.1195 35.5805,12.7635 35.1035,13.0325 L35.1035,14.7645 C35.7865,14.596 36.3,14.265 36.641,13.7715 C37.0845,13.1395 37.343,12.263 37.423,11.143 L37.758,6.6465 L39.566,6.6465 C39.9245,6.6465 40.1035,6.789 40.1035,7.076 L40.1035,12.714 C40.1035,12.8095 40.0725,12.8985 40.0115,12.982 C39.9215,13.095 39.818,13.1505 39.7005,13.1505 L38.633,13.1505 L38.633,14.7135 L40.052,14.7135 C41.1275,14.7135 41.667,14.1805 41.667,13.1165 L41.667,6.5965 C41.667,5.61 41.1005,5.1175 39.9685,5.1175 L37.861,5.1175 L38.0025,3.0415 L41.8015,3.0415 L41.8015,1.504 L39.246,1.504 L39.246,0.4795 L37.683,0.4795 Z M43.633,0.471 C43.505,1.053 43.386,1.4905 43.2795,1.7815 C43.1895,2.0165 43.079,2.1875 42.943,2.294 C42.8095,2.4015 42.6045,2.4785 42.331,2.5285 L42.331,4.083 C42.8125,4.034 43.2275,3.908 43.5735,3.706 C43.7865,3.583 44.07,3.331 44.423,2.949 L50.5815,2.949 L50.5815,1.3945 L44.986,1.3945 C45.075,1.098 45.1555,0.7905 45.23,0.471 L43.633,0.471 Z" id="Fill-1"></path>
            </g>
            <g id="Group-59" transform="translate(51.000000, 21.019600)">
                <mask id="mask-2" fill="white">
                    <use xlink:href="#path-1"></use>
                </mask>
                <g id="Clip-58"></g>
                <path d="M84.8301,8.21285 L83.8801,8.21285 L83.8801,5.13685 C83.8801,4.55435 83.7896,4.13935 83.6081,3.88835 C83.4271,3.63885 83.1296,3.51285 82.7151,3.51285 C82.3666,3.51285 82.0686,3.67635 81.8191,4.00285 C81.5711,4.32785 81.4471,4.71485 81.4471,5.16035 L81.4471,8.21285 L80.4986,8.21285 L80.4986,5.03985 C80.4986,4.02235 80.1051,3.51285 79.3206,3.51285 C78.9581,3.51285 78.6591,3.66835 78.4221,3.97785 C78.1846,4.28835 78.0661,4.68385 78.0661,5.16485 L78.0661,8.21285 L77.1161,8.21285 L77.1161,2.85435 L78.0661,2.85435 L78.0661,3.70135 L78.0866,3.70135 C78.4661,3.05335 79.0231,2.72835 79.7561,2.72835 C80.1146,2.72835 80.4326,2.82685 80.7061,3.02385 C80.9811,3.22035 81.1711,3.48785 81.2771,3.82435 C81.6766,3.09285 82.2696,2.72835 83.0606,2.72835 C84.2381,2.72835 84.8301,3.45485 84.8301,4.90835 L84.8301,8.21285 Z M71.1146,5.56185 C71.1146,6.18035 71.2696,6.66485 71.5826,7.02085 C71.8936,7.37585 72.3116,7.55435 72.8386,7.55435 C73.3811,7.55435 73.7956,7.38135 74.0796,7.03385 C74.3641,6.68635 74.5066,6.18635 74.5066,5.53885 C74.5066,4.88535 74.3641,4.38585 74.0796,4.03685 C73.7956,3.68785 73.3811,3.51285 72.8386,3.51285 C72.3061,3.51285 71.8856,3.69685 71.5771,4.06085 C71.2686,4.42585 71.1146,4.92635 71.1146,5.56185 L71.1146,5.56185 Z M70.1461,5.59135 C70.1461,4.70685 70.3926,4.00885 70.8856,3.49635 C71.3806,2.98385 72.0501,2.72835 72.8981,2.72835 C73.7011,2.72835 74.3331,2.97585 74.7886,3.46685 C75.2456,3.96035 75.4746,4.64085 75.4746,5.50935 C75.4746,6.35485 75.2306,7.03885 74.7426,7.55685 C74.2551,8.07885 73.6011,8.33885 72.7816,8.33885 C71.9786,8.33885 71.3411,8.08685 70.8626,7.58285 C70.3826,7.07785 70.1461,6.41585 70.1461,5.59135 L70.1461,5.59135 Z M68.9231,7.97185 C68.5136,8.21585 68.0191,8.33885 67.4426,8.33885 C66.6661,8.33885 66.0436,8.08985 65.5716,7.59285 C65.0986,7.09485 64.8641,6.45235 64.8641,5.65985 C64.8641,4.78085 65.1191,4.07335 65.6256,3.53435 C66.1351,2.99635 66.8171,2.72835 67.6691,2.72835 C68.1591,2.72835 68.5796,2.81535 68.9286,2.99035 L68.9286,3.92985 C68.5501,3.65135 68.1301,3.51285 67.6691,3.51285 C67.1256,3.51285 66.6851,3.70135 66.3441,4.07785 C66.0031,4.45335 65.8331,4.95485 65.8331,5.58135 C65.8331,6.19785 65.9936,6.68185 66.3146,7.03035 C66.6361,7.37935 67.0701,7.55435 67.6161,7.55435 C68.0771,7.55435 68.5136,7.40285 68.9231,7.09785 L68.9231,7.97185 Z M62.2576,7.71335 C62.2576,7.53985 62.3176,7.39285 62.4371,7.27335 C62.5556,7.15285 62.7041,7.09335 62.8831,7.09335 C63.0641,7.09335 63.2136,7.15435 63.3336,7.27585 C63.4521,7.39535 63.5111,7.54285 63.5111,7.71335 C63.5111,7.88185 63.4521,8.02585 63.3336,8.14685 C63.2136,8.26885 63.0626,8.32785 62.8781,8.32785 C62.6996,8.32785 62.5531,8.26885 62.4346,8.14685 C62.3161,8.02585 62.2576,7.88185 62.2576,7.71335 L62.2576,7.71335 Z M61.3076,3.79385 C61.1491,3.68185 60.9301,3.62535 60.6541,3.62535 C60.2861,3.62535 59.9816,3.79685 59.7431,4.14135 C59.5036,4.48485 59.3846,4.93785 59.3846,5.49935 L59.3846,8.21285 L58.4361,8.21285 L58.4361,2.85435 L59.3846,2.85435 L59.3846,3.94485 L59.4046,3.94485 C59.6756,3.15585 60.1436,2.76235 60.8091,2.76235 C61.0251,2.76235 61.1921,2.78685 61.3076,2.83485 L61.3076,3.79385 Z M56.4401,8.21285 L55.4846,8.21285 L55.4846,7.36985 L55.4656,7.36985 C55.1071,8.01585 54.5556,8.33885 53.8136,8.33885 C52.5441,8.33885 51.9091,7.57935 51.9091,6.06135 L51.9091,2.85435 L52.8496,2.85435 L52.8496,5.92135 C52.8496,7.00935 53.2661,7.55435 54.0991,7.55435 C54.5111,7.55435 54.8471,7.40085 55.1016,7.09635 C55.3566,6.79085 55.4846,6.40485 55.4846,5.94085 L55.4846,2.85435 L56.4401,2.85435 L56.4401,8.21285 Z M46.0141,5.56185 C46.0141,6.18035 46.1696,6.66485 46.4821,7.02085 C46.7936,7.37585 47.2111,7.55435 47.7391,7.55435 C48.2811,7.55435 48.6946,7.38135 48.9791,7.03385 C49.2636,6.68635 49.4061,6.18635 49.4061,5.53885 C49.4061,4.88535 49.2636,4.38585 48.9791,4.03685 C48.6946,3.68785 48.2811,3.51285 47.7391,3.51285 C47.2071,3.51285 46.7851,3.69685 46.4781,4.06085 C46.1681,4.42585 46.0141,4.92635 46.0141,5.56185 L46.0141,5.56185 Z M45.0456,5.59135 C45.0456,4.70685 45.2921,4.00885 45.7866,3.49635 C46.2811,2.98385 46.9511,2.72835 47.7976,2.72835 C48.6006,2.72835 49.2326,2.97585 49.6881,3.46685 C50.1451,3.96035 50.3756,4.64085 50.3756,5.50935 C50.3756,6.35485 50.1301,7.03885 49.6421,7.55685 C49.1541,8.07885 48.5011,8.33885 47.6816,8.33885 C46.8796,8.33885 46.2406,8.08685 45.7621,7.58285 C45.2826,7.07785 45.0456,6.41585 45.0456,5.59135 L45.0456,5.59135 Z M44.0561,8.16035 C43.8501,8.27235 43.5706,8.32785 43.2206,8.32785 C42.2596,8.32785 41.7796,7.79685 41.7796,6.73435 L41.7796,3.63885 L40.8596,3.63885 L40.8596,2.85435 L41.7796,2.85435 L41.7796,1.56485 L42.7246,1.26535 L42.7246,2.85435 L44.0561,2.85435 L44.0561,3.63885 L42.7246,3.63885 L42.7246,6.56535 C42.7246,6.91785 42.7851,7.16935 42.9036,7.32135 C43.0226,7.47335 43.2221,7.54985 43.4996,7.54985 C43.7126,7.54985 43.9001,7.48835 44.0561,7.36985 L44.0561,8.16035 Z M40.0696,8.21285 L35.6236,8.21285 L35.6236,7.89885 L38.7366,3.63885 L35.9121,3.63885 L35.9121,2.85435 L40.0896,2.85435 L40.0896,3.16385 L36.9941,7.42685 L40.0696,7.42685 L40.0696,8.21285 Z M33.3501,8.21285 L34.2986,8.21285 L34.2986,2.85435 L33.3501,2.85435 L33.3501,8.21285 Z M33.2366,0.96435 C33.2366,0.79685 33.2951,0.65585 33.4096,0.54135 C33.5256,0.42535 33.6656,0.36935 33.8341,0.36935 C34.0056,0.36935 34.1511,0.42535 34.2681,0.53785 C34.3851,0.65235 34.4441,0.79435 34.4441,0.96435 C34.4441,1.13335 34.3851,1.27235 34.2681,1.38485 C34.1511,1.49535 34.0056,1.55185 33.8341,1.55185 C33.6631,1.55185 33.5201,1.49535 33.4081,1.38485 C33.2951,1.27235 33.2366,1.13335 33.2366,0.96435 L33.2366,0.96435 Z M31.9406,8.21285 L27.4931,8.21285 L27.4931,7.89885 L30.6066,3.63885 L27.7831,3.63885 L27.7831,2.85435 L31.9596,2.85435 L31.9596,3.16385 L28.8636,7.42685 L31.9406,7.42685 L31.9406,8.21285 Z M25.2061,7.71335 C25.2061,7.53985 25.2656,7.39285 25.3851,7.27335 C25.5041,7.15285 25.6521,7.09335 25.8316,7.09335 C26.0121,7.09335 26.1616,7.15435 26.2816,7.27585 C26.4006,7.39535 26.4611,7.54285 26.4611,7.71335 C26.4611,7.88185 26.4006,8.02585 26.2816,8.14685 C26.1616,8.26885 26.0106,8.32785 25.8261,8.32785 C25.6486,8.32785 25.5016,8.26885 25.3826,8.14685 C25.2641,8.02585 25.2061,7.88185 25.2061,7.71335 L25.2061,7.71335 Z M24.2036,2.85435 L22.6041,8.21285 L21.6161,8.21285 L20.5496,4.45335 C20.5056,4.29185 20.4761,4.12035 20.4626,3.94035 L20.4446,3.94035 C20.4341,4.07485 20.3966,4.24385 20.3316,4.44385 L19.1796,8.21285 L18.2201,8.21285 L16.6106,2.85435 L17.5996,2.85435 L18.6701,6.82685 C18.7036,6.94585 18.7281,7.10935 18.7426,7.31585 L18.7816,7.31585 C18.7956,7.13935 18.8251,6.97085 18.8736,6.81185 L20.0271,2.85435 L20.9041,2.85435 L22.0281,6.83235 C22.0606,6.94785 22.0866,7.11285 22.1066,7.32685 L22.1501,7.32685 C22.1551,7.18385 22.1836,7.01885 22.2371,6.83235 L23.2816,2.85435 L24.2036,2.85435 Z M16.0636,2.85435 L14.4651,8.21285 L13.4776,8.21285 L12.4116,4.45335 C12.3671,4.29185 12.3361,4.12035 12.3236,3.94035 L12.3051,3.94035 C12.2956,4.07485 12.2576,4.24385 12.1931,4.44385 L11.0396,8.21285 L10.0811,8.21285 L8.4721,2.85435 L9.4616,2.85435 L10.5316,6.82685 C10.5636,6.94585 10.5896,7.10935 10.6041,7.31585 L10.6431,7.31585 C10.6566,7.13935 10.6861,6.97085 10.7351,6.81185 L11.8886,2.85435 L12.7646,2.85435 L13.8901,6.83235 C13.9211,6.94785 13.9476,7.11285 13.9681,7.32685 L14.0096,7.32685 C14.0166,7.18385 14.0446,7.01885 14.0976,6.83235 L15.1431,2.85435 L16.0636,2.85435 Z M7.9251,2.85435 L6.3266,8.21285 L5.3391,8.21285 L4.2716,4.45335 C4.2281,4.29185 4.1971,4.12035 4.1851,3.94035 L4.1661,3.94035 C4.1571,4.07485 4.1181,4.24385 4.0546,4.44385 L2.9011,8.21285 L1.9416,8.21285 L0.3336,2.85435 L1.3211,2.85435 L2.3916,6.82685 C2.4251,6.94585 2.4496,7.10935 2.4641,7.31585 L2.5046,7.31585 C2.5166,7.13935 2.5476,6.97085 2.5951,6.81185 L3.7501,2.85435 L4.6261,2.85435 L5.7511,6.83235 C5.7821,6.94785 5.8081,7.11285 5.8281,7.32685 L5.8711,7.32685 C5.8781,7.18385 5.9061,7.01885 5.9586,6.83235 L7.0046,2.85435 L7.9251,2.85435 Z" id="Fill-57" fill="#FFFFFF" mask="url(#mask-2)"></path>
            </g>
            <g id="Group-15">
                <g id="Group-18" transform="translate(0.000000, 1.497476)">
                    <path d="M6.79659292,18.7937415 C5.44261062,19.9197659 5.14738938,22.787278 4.83570796,25.8248878 C4.64853982,27.656522 4.45446903,29.5541561 4.00141593,30.6136439 C3.95575221,30.7206927 3.95575221,30.8388756 4.00141593,30.9495463 C4.05690265,31.0708146 4.16761062,31.1723634 4.30765487,31.2228024 C4.58641593,31.3222049 4.92026549,31.1898024 5.02261062,30.9453878 C5.52716814,29.7655707 5.72097345,27.8916805 5.92061947,25.9080585 C6.18,23.4011317 6.47216814,20.5589732 7.4449115,19.5830585 C7.50185841,19.5285951 7.58084071,19.5016317 7.65862832,19.5206805 C8.50247788,19.7060707 10.6822566,21.7047171 12.264823,23.4963756 C12.485177,23.5798146 12.7068584,23.6680829 12.9453982,23.7639976 C13.0146903,23.7457537 13.0839823,23.7178512 13.1406637,23.6757293 C13.2516372,23.5937659 13.3181416,23.4782659 13.3332743,23.3506927 C13.3457522,23.2333146 13.3056637,23.1127171 13.2209735,23.0161317 C11.3863274,20.9210341 8.95420354,18.6481927 7.63911504,18.5514732 L7.53225664,18.5474488 C7.17053097,18.5474488 6.93225664,18.6830707 6.79659292,18.7937415" id="Fill-1" fill="#FFFFFF"></path>
                    <path d="M7.97721239,23.290528 C7.61548673,23.3044793 7.47676991,23.3928817 7.39247788,23.4476134 C7.15672566,23.59665 7.03911504,23.8213451 7.05995575,24.0845402 C7.09858407,24.6412476 7.70986726,25.3955524 8.78774336,26.6810768 C9.91871681,28.02415 11.3253982,29.7011134 11.3585841,30.7302841 C11.3696018,30.9936134 11.620354,31.1989915 11.9211504,31.1897354 C12.2219469,31.179272 12.4575664,30.9551134 12.4478761,30.6905768 C12.4006195,29.3678939 10.9482743,27.6370037 9.66650442,26.1097476 C9.29920354,25.6705524 8.83938053,25.118272 8.52756637,24.6989305 C8.47207965,24.6209915 8.46650442,24.5117963 8.51761062,24.4305037 C8.57309735,24.3480037 8.67292035,24.3046744 8.76730088,24.3276134 C9.68309735,24.5341988 11.1687611,25.0411378 12.5516814,25.6238695 C12.8191593,25.738028 13.1670796,25.6182354 13.2862832,25.3816012 C13.340177,25.2737476 13.3513274,25.1516744 13.309646,25.0427476 C13.2611947,24.9173207 13.1616372,24.8164427 13.0284956,24.7598329 C12.4989823,24.5363451 12.0223009,24.3500159 11.5887611,24.1834061 C11.2643363,24.2219061 10.9262389,24.1168695 10.7045575,23.8830524 L10.6876991,23.8669549 C9.33809735,23.4126012 8.53858407,23.2893207 8.07159292,23.2893207 C8.03973451,23.2893207 8.00774336,23.2893207 7.97721239,23.290528" id="Fill-3" fill="#FFFFFF"></path>
                    <path d="M36.9943407,18.5514463 C35.677792,18.647361 33.2499159,20.9210073 31.4122168,23.0161049 C31.3304469,23.1126902 31.2891637,23.2332878 31.3028363,23.3506659 C31.3153142,23.4783732 31.3819513,23.5932024 31.4941195,23.6757024 C31.5509336,23.7178244 31.6216858,23.7457268 31.6923053,23.7639707 C31.9264646,23.6680561 32.1509336,23.5804585 32.3673053,23.4963488 C33.9523938,21.7046902 36.1309779,19.7060439 36.9761549,19.5206537 L37.0234115,19.5170317 L37.1884115,19.5830317 C38.1624823,20.5589463 38.4535885,23.4011049 38.7127035,25.9080317 C38.9163319,27.8924585 39.109208,29.7655439 39.6120398,30.9454951 C39.7158451,31.1897756 40.0473053,31.322178 40.3256681,31.2235805 C40.4670398,31.1723366 40.5780133,31.0728 40.6319071,30.9495195 C40.6791637,30.8388488 40.6791637,30.7206659 40.6319071,30.6136171 C40.178854,29.5542634 39.9862434,27.6564951 39.7977478,25.8252634 C39.4859336,22.7864463 39.1907124,19.919739 37.8355354,18.7937146 C37.6996062,18.6830439 37.4600044,18.5482268 37.0982788,18.5482268 C37.0635,18.5482268 37.0289867,18.5494341 36.9943407,18.5514463" id="Fill-5" fill="#FFFFFF"></path>
                    <path d="M33.5299248,18.8988049 C33.4480221,18.9941829 33.4066062,19.1139756 33.4205442,19.2301463 C33.4327566,19.3574512 33.5007212,19.4695976 33.615677,19.5520976 C33.6420929,19.5751707 33.6724912,19.1795732 33.7059425,18.7846463 C33.709792,18.7516463 33.7128451,18.7189146 33.7156327,18.6859146 C33.6531106,18.7587561 33.590854,18.8302561 33.5299248,18.8988049 M33.8097478,18.0158537 C33.8151903,18.0131707 33.8236858,18.0123659 33.8305885,18.0123659 C33.8972257,18.0123659 33.9637301,18.1369878 34.0287743,18.3107073 C33.9235088,18.439622 33.8181106,18.5654512 33.7156327,18.6859146 C33.7445708,18.3331098 33.7778894,18.0083415 33.8097478,18.0158537 M39.1119159,12.8399512 C37.9116504,12.925939 35.786031,16.1623537 34.0287743,18.3107073 C34.070323,18.4248659 34.1133319,18.5598171 34.1547478,18.6950366 C34.2673142,19.0554878 34.3778894,19.4163415 34.484615,19.3742195 C36.069969,17.5962439 38.2498805,13.984622 39.0938628,13.8019146 L39.1421814,13.7977561 L39.3059867,13.863622 C40.2800575,14.8328293 41.7228451,23.7162683 42.2881991,26.1545122 C42.770323,28.238878 43.3897035,29.6458049 43.8926681,30.8181098 C43.9967389,31.0601098 44.3293938,31.1919756 44.6077566,31.0925732 C44.7505885,31.0428049 44.8573142,30.943939 44.9128009,30.8194512 C44.9596593,30.7130732 44.9596593,30.5932805 44.9128009,30.4882439 C44.4609425,29.4349268 43.8913407,28.1732805 43.3717832,26.071878 C42.6428894,23.1309878 41.3097478,14.1989878 39.9543053,13.0815488 C39.8185088,12.970878 39.5787743,12.8364634 39.2142611,12.8364634 C39.181208,12.8364634 39.1477566,12.8376707 39.1119159,12.8399512" id="Fill-7" fill="#FFFFFF"></path>
                    <g id="Group-11" transform="translate(0.000000, 12.341463)">
                        <mask id="mask-4" fill="white">
                            <use xlink:href="#path-3"></use>
                        </mask>
                        <g id="Clip-10"></g>
                        <path d="M11.2407743,6.01184878 C11.2739602,6.40690976 11.3058186,6.80116585 11.3336947,6.7793 C11.4471903,6.69532439 11.5151549,6.58519024 11.5277655,6.4565439 C11.5387832,6.33889756 11.5013496,6.22192195 11.416792,6.12533659 C11.3558628,6.05598293 11.2934735,5.98448293 11.2325442,5.91190976 C11.2351991,5.9453122 11.2381195,5.97884878 11.2407743,6.01184878 M10.9192699,5.53643415 C10.9829867,5.36298293 11.0494912,5.23809268 11.1159956,5.23809268 C11.123031,5.23809268 11.1298009,5.24010488 11.1381637,5.24372683 C11.1700221,5.23527561 11.2006858,5.55950732 11.2325442,5.91190976 C11.1286062,5.79144634 11.0246681,5.66601951 10.9192699,5.53643415 M4.99347345,0.309287805 C3.6384292,1.4240439 2.30236726,10.3553732 1.57626106,13.2976049 C1.05511062,15.399678 0.488561947,16.660922 0.0353761062,17.7139707 C-0.011880531,17.8198122 -0.011880531,17.9388 0.0353761062,18.0465195 C0.0905973451,18.1719463 0.195995575,18.2692024 0.337367257,18.3183 C0.617323009,18.4177024 0.952765487,18.286239 1.05245575,18.0454463 C1.55966814,16.8701902 2.17506637,15.4670195 2.66011062,13.3817146 C3.22665929,10.9442756 4.66785398,2.0585561 5.6395354,1.08934878 L5.80559735,1.02415366 L5.85564159,1.02723902 C6.69816372,1.21182439 8.87661504,4.82358049 10.4621018,6.60222683 C10.5688274,6.64287317 10.6794027,6.28282439 10.7917035,5.92156829 C10.833385,5.78661707 10.8762611,5.65126341 10.9192699,5.53643415 C9.16068584,3.38821463 7.03493363,0.151665854 5.83480088,0.0650073171 C5.79882743,0.0628609756 5.76550885,0.0620560976 5.73232301,0.0620560976 C5.37059735,0.0620560976 5.12926991,0.195129268 4.99347345,0.309287805" id="Fill-9" fill="#FFFFFF" mask="url(#mask-4)"></path>
                    </g>
                    <path d="M33.6047257,23.8948976 L33.5909204,23.9123366 C33.377469,24.1554098 33.0421593,24.2717146 32.7177345,24.2478366 C32.2895044,24.4263854 31.818531,24.6316293 31.2988407,24.8744341 C31.1670265,24.9360073 31.0701239,25.0398366 31.0284425,25.1656659 C30.992469,25.2806293 31.0036195,25.3996171 31.0618938,25.5033122 C31.1918496,25.7384707 31.5425575,25.8435073 31.8059204,25.7190195 C33.1653451,25.0901415 34.6275133,24.5286049 35.5391947,24.2883488 L35.5976018,24.2808366 C35.6723363,24.2808366 35.7442832,24.314239 35.7900796,24.380239 C35.8455664,24.4597878 35.8455664,24.5679098 35.7927345,24.6518854 C35.4975133,25.0831659 35.0597257,25.646178 34.7090177,26.0928854 C33.4799469,27.6712512 32.0914513,29.456739 32.0914513,30.7787512 C32.0914513,31.0448976 32.3366283,31.2589951 32.6374248,31.2589951 C32.9354336,31.2589951 33.1807434,31.0448976 33.1807434,30.7787512 C33.1807434,29.7507878 34.5235752,28.0227146 35.6042389,26.6384585 C36.6353894,25.3148366 37.2214513,24.5385317 37.2412301,23.9783366 C37.2478673,23.7155439 37.1230885,23.4963488 36.883354,23.3557634 C36.7989292,23.3051902 36.6560973,23.220678 36.2945044,23.220678 C35.8427788,23.220678 35.0334425,23.3592512 33.6047257,23.8948976" id="Fill-12" fill="#FFFFFF"></path>
                    <path d="M23.9818673,1.37862195 C22.2953628,3.44568293 23.5812478,7.3242561 26.506646,9.75471951 C29.4250088,12.1851829 33.302708,12.5962073 34.982177,10.5221707 C36.6672212,8.45497561 35.5281504,4.69136585 32.6027522,2.26023171 C30.9204956,0.857731707 28.8694779,0.0924268293 27.1136814,0.0924268293 C25.8247434,0.0924268293 24.6940354,0.503317073 23.9818673,1.37862195" id="Fill-14" fill="#D25B16"></path>
                    <path d="M23.9818673,1.37862195 C22.2953628,3.44568293 23.5812478,7.3242561 26.506646,9.75471951 C29.4250088,12.1851829 33.302708,12.5962073 34.982177,10.5221707 C36.6672212,8.45497561 35.5281504,4.69136585 32.6027522,2.26023171 C30.9204956,0.857731707 28.8694779,0.0924268293 27.1136814,0.0924268293 C25.8247434,0.0924268293 24.6940354,0.503317073 23.9818673,1.37862195" id="Fill-16" fill="#D25B16"></path>
                </g>
                <g id="Group-21" transform="translate(23.628319, 1.497476)">
                    <mask id="mask-6" fill="white">
                        <use xlink:href="#path-5"></use>
                    </mask>
                    <g id="Clip-20"></g>
                    <path d="M3.46884956,0.0924268293 C2.18827434,0.0959146341 1.06300885,0.507743902 0.353495575,1.37862195 C0.30079646,1.44220732 0.250884956,1.51021951 0.203761062,1.57756098 C0.162212389,1.63765854 0.122123894,1.70003659 0.0846902655,1.7637561 C1.08225664,2.36459756 2.06216814,3.04592683 3.00424779,3.8022439 C5.92977876,6.14510976 8.18455752,8.95641463 9.5149115,11.683878 C9.84876106,11.5927927 10.1605752,11.463878 10.4459735,11.2972683 C10.4475664,11.2963293 10.450354,11.295122 10.4516814,11.2943171 C10.4585841,11.289622 10.4656195,11.286 10.4738496,11.2818415 C10.475177,11.2805 10.4779646,11.2792927 10.4807522,11.276878 C10.4876549,11.2735244 10.4932301,11.2693659 10.5003982,11.264939 C10.5031858,11.2635976 10.505708,11.2622561 10.5084956,11.2601098 C10.5169912,11.2552805 10.5250885,11.2503171 10.5318584,11.2454878 C10.5376991,11.2418659 10.5431416,11.2391829 10.5487168,11.2363659 C10.5513717,11.2335488 10.554292,11.2315366 10.5570796,11.2299268 C10.5626549,11.226439 10.5679646,11.2230854 10.575,11.2189268 C10.5763274,11.2173171 10.5779204,11.2161098 10.5805752,11.2147683 C10.8480531,11.0409146 11.0904425,10.8329878 11.2984513,10.5879024 C11.2997788,10.586561 11.3011062,10.5850854 11.3025664,10.583878 C11.3066814,10.5782439 11.3110619,10.5731463 11.3149115,10.5675122 C11.319292,10.5646951 11.3204867,10.5620122 11.3247345,10.5577195 C11.3276549,10.5543659 11.3316372,10.5495366 11.3345575,10.5452439 C11.3413274,10.5381341 11.3482301,10.5296829 11.3539381,10.5221707 C11.3609735,10.5130488 11.3676106,10.5055366 11.3747788,10.4962805 C11.3787611,10.4907805 11.3830088,10.4856829 11.3871239,10.4808537 C11.3897788,10.4772317 11.3924336,10.4740122 11.3954867,10.4695854 C11.399469,10.4640854 11.405177,10.4577805 11.409292,10.4521463 C11.4120796,10.4501341 11.4120796,10.4471829 11.4148673,10.4450366 C11.6585841,10.126439 11.8388496,9.77028049 11.9580531,9.38554878 C11.9593805,9.38367073 11.9593805,9.38004878 11.9608407,9.37723171 C11.9636283,9.37079268 11.9649558,9.36328049 11.9677434,9.35617073 C11.9692035,9.35134146 11.9703982,9.34704878 11.9719912,9.34221951 C11.9730531,9.33671951 11.9759735,9.3297439 11.9775664,9.32357317 C11.9787611,9.31713415 11.9800885,9.31082927 11.9830088,9.3039878 C11.9857965,9.29687805 11.9872566,9.28976829 11.9884513,9.28346341 C11.9912389,9.27447561 11.9928319,9.26535366 11.9954867,9.25743902 C11.9968142,9.25341463 11.9968142,9.25059756 11.9982743,9.24710976 C12.0011947,9.2379878 12.0038496,9.22886585 12.0065044,9.2197439 C12.0065044,9.21759756 12.0065044,9.21491463 12.0078319,9.2125 C12.0106195,9.20082927 12.0134071,9.18969512 12.0161947,9.17909756 L12.0161947,9.17695122 C12.095177,8.85996341 12.1353982,8.52580488 12.1368584,8.18010976 C12.1519912,6.33962195 11.1099558,4.18228049 9.29721239,2.54032927 L9.29721239,2.53965854 C9.25287611,2.50115854 9.21,2.46064634 9.16579646,2.42254878 C9.16287611,2.42 9.15862832,2.41691463 9.15597345,2.41570732 C9.14336283,2.40309756 9.12942478,2.39115854 9.11575221,2.38002439 C9.11575221,2.37921951 9.11429204,2.37921951 9.11429204,2.37921951 C9.10048673,2.36687805 9.08535398,2.354 9.07128319,2.34152439 C9.06849558,2.33857317 9.06584071,2.33656098 9.0630531,2.33454878 C9.05070796,2.32462195 9.03942478,2.31496341 9.02840708,2.30436585 C9.02442478,2.30235366 9.02004425,2.29806098 9.01738938,2.29685366 C9.00358407,2.28397561 8.98977876,2.27217073 8.97438053,2.26023171 C7.2949115,0.861353659 5.25066372,0.0959146341 3.49646018,0.0924268293 L3.46884956,0.0924268293 Z" id="Fill-19" fill="url(#linearGradient-7)" mask="url(#mask-6)"></path>
                </g>
                <g id="Group-24" transform="translate(7.699115, 0.021866)">
                    <mask id="mask-9" fill="white">
                        <use xlink:href="#path-8"></use>
                    </mask>
                    <g id="Clip-23"></g>
                    <path d="M1.13743805,2.1674561 C-1.82818142,5.9442122 1.67637611,13.7418707 8.19380973,18.9668707 C14.7096504,24.192139 22.7112876,25.6127488 25.6769071,21.8351878 C28.6495619,18.0510537 25.4564204,10.5027732 18.9335442,5.27790732 C14.8331018,1.99373659 10.0216858,0.1122 6.27726106,0.1122 C4.07398673,0.1122 2.23894248,0.764017073 1.13743805,2.1674561" id="Fill-22" fill="#D25B16" mask="url(#mask-9)"></path>
                </g>
                <g id="Group-28" transform="translate(7.699115, 0.021866)">
                    <mask id="mask-11" fill="white">
                        <use xlink:href="#path-10"></use>
                    </mask>
                    <g id="Clip-27"></g>
                    <path d="M6.15265487,0.113487805 C4.11411504,0.136829268 2.40384956,0.726402439 1.31070796,1.96095122 C1.25097345,2.02789024 1.19415929,2.09576829 1.13734513,2.16740244 C1.12606195,2.18135366 1.11384956,2.19610976 1.10389381,2.21086585 C1.10004425,2.21569512 1.09566372,2.22119512 1.09154867,2.22629268 C1.08477876,2.23595122 1.07761062,2.24587805 1.06938053,2.25580488 C1.06539823,2.26063415 1.06261062,2.26693902 1.05676991,2.27243902 C1.05146018,2.28156098 1.04455752,2.29068293 1.03752212,2.29967073 C1.03353982,2.30678049 1.0279646,2.31228049 1.02371681,2.31912195 C1.01668142,2.32703659 1.01110619,2.33535366 1.00433628,2.34447561 C1.0000885,2.35078049 0.996106195,2.35762195 0.990530973,2.36486585 C0.984823009,2.37237805 0.979247788,2.38163415 0.973672566,2.38914634 C0.968230088,2.39719512 0.964115044,2.40390244 0.958672566,2.41060976 C0.954424779,2.41865854 0.947389381,2.42643902 0.941814159,2.4347561 C0.937964602,2.44240244 0.932256637,2.44884146 0.92800885,2.45715854 C0.922433628,2.46507317 0.91699115,2.47258537 0.911548673,2.4805 C0.907168142,2.48814634 0.903185841,2.4952561 0.897610619,2.50209756 C0.892168142,2.51041463 0.886460177,2.51886585 0.882345133,2.52718293 C0.876902655,2.53429268 0.872522124,2.54140244 0.868539823,2.54904878 C0.863097345,2.55669512 0.857522124,2.56514634 0.851814159,2.57413415 C0.847699115,2.5812439 0.843451327,2.58889024 0.839469027,2.59519512 C0.833893805,2.60431707 0.828318584,2.61196341 0.82420354,2.62095122 C0.818495575,2.62819512 0.815973451,2.63530488 0.81159292,2.64214634 C0.806017699,2.65113415 0.800575221,2.65958537 0.794867257,2.66790244 C0.790884956,2.6750122 0.786637168,2.68265854 0.782522124,2.68976829 C0.776946903,2.69821951 0.772964602,2.70734146 0.767389381,2.71565854 C0.763141593,2.72330488 0.759026549,2.73041463 0.754911504,2.7372561 C0.75079646,2.74637805 0.746548673,2.7555 0.740973451,2.76314634 C0.736725664,2.77092683 0.732610619,2.77857317 0.728495575,2.78568293 C0.724380531,2.794 0.719070796,2.80312195 0.714557522,2.81237805 C0.710442478,2.81989024 0.704867257,2.82713415 0.702212389,2.83464634 C0.696504425,2.84229268 0.692522124,2.85141463 0.688274336,2.85973171 C0.684292035,2.86818293 0.680044248,2.87609756 0.675663717,2.88280488 C0.671681416,2.89206098 0.666106195,2.90064634 0.661858407,2.9095 C0.65920354,2.91741463 0.655221239,2.9242561 0.650973451,2.93257317 C0.646858407,2.9404878 0.642610619,2.94960976 0.637035398,2.95792683 C0.634380531,2.96637805 0.63,2.97335366 0.626150442,2.98234146 C0.621769912,2.99012195 0.617787611,2.99910976 0.61340708,3.00823171 C0.609292035,3.01534146 0.605176991,3.02365854 0.602389381,3.03157317 C0.598141593,3.03989024 0.594159292,3.0487439 0.589911504,3.05786585 C0.58579646,3.06578049 0.581548673,3.07342683 0.578893805,3.08134146 C0.573318584,3.09046341 0.570530973,3.09918293 0.565088496,3.10843902 C0.562300885,3.11554878 0.559513274,3.12386585 0.555265487,3.1315122 C0.552477876,3.14063415 0.547035398,3.1497561 0.542654867,3.1590122 C0.54,3.16652439 0.535884956,3.17417073 0.533097345,3.1827561 C0.528982301,3.19120732 0.524867257,3.19952439 0.522212389,3.20864634 C0.517831858,3.21615854 0.515044248,3.22541463 0.511061947,3.23292683 C0.506681416,3.24204878 0.504159292,3.25117073 0.499646018,3.2594878 C0.49579646,3.2687439 0.49300885,3.27665854 0.490221239,3.28497561 C0.485973451,3.29329268 0.48199115,3.3017439 0.479070796,3.31086585 C0.474955752,3.31931707 0.472168142,3.32763415 0.469380531,3.3367561 C0.465,3.34520732 0.462477876,3.35271951 0.458362832,3.36197561 C0.455575221,3.37096341 0.451327434,3.37928049 0.448539823,3.38853659 C0.444424779,3.39631707 0.441769912,3.40463415 0.438716814,3.41308537 C0.434867257,3.42220732 0.432079646,3.43186585 0.429159292,3.44058537 C0.426504425,3.44809756 0.423716814,3.4557439 0.420929204,3.46285366 C0.416681416,3.4725122 0.413893805,3.48364634 0.409778761,3.49357317 C0.407123894,3.49907317 0.405530973,3.50618293 0.402743363,3.51262195 C0.398628319,3.5237561 0.394513274,3.53489024 0.391858407,3.54602439 C0.389070796,3.55112195 0.387610619,3.55595122 0.386283186,3.56078049 C0.340619469,3.69452439 0.29880531,3.83121951 0.264159292,3.96965854 C0.262831858,3.97126829 0.262831858,3.97167073 0.262831858,3.97328049 C0.258849558,3.99085366 0.254469027,4.0074878 0.250486726,4.0242561 C0.250486726,4.02586585 0.250486726,4.02653659 0.249026549,4.02707317 C0.244911504,4.04384146 0.240663717,4.06208537 0.236681416,4.07965854 L0.236681416,4.08193902 C0.232300885,4.10004878 0.22699115,4.11815854 0.224070796,4.13506098 L0.224070796,4.13626829 C0.218628319,4.15397561 0.215840708,4.17141463 0.21159292,4.1889878 L0.21159292,4.19247561 C0.207610619,4.21071951 0.204823009,4.2274878 0.200575221,4.24573171 L0.200575221,4.24707317 C0.19619469,4.26518293 0.192212389,4.28289024 0.189424779,4.301 L0.189424779,4.3030122 C0.113230088,4.69297561 0.0744690265,5.10185366 0.0728761062,5.52562195 C0.0480530973,9.39628049 2.98460177,14.5407927 7.56464602,18.4474024 C7.56597345,18.4474024 7.56743363,18.4480732 7.56743363,18.4487439 C7.58548673,18.4643049 7.60207965,18.4782561 7.62013274,18.4936829 C7.62292035,18.4965 7.62584071,18.4978415 7.62836283,18.5005244 C7.67960177,18.544122 7.73243363,18.5889268 7.78353982,18.6322561 C7.78765487,18.6350732 7.79190265,18.638561 7.79455752,18.641378 C7.80982301,18.6533171 7.82535398,18.6659268 7.83915929,18.6777317 C7.84725664,18.6847073 7.85561947,18.6918171 7.86265487,18.6973171 C7.87659292,18.7085854 7.89026549,18.7191829 7.90287611,18.7303171 C7.91123894,18.7371585 7.92066372,18.7456098 7.93048673,18.7527195 C7.95132743,18.7702927 7.97336283,18.7878659 7.99420354,18.8053049 C8.00535398,18.8150976 8.01769912,18.8248902 8.02884956,18.833878 C8.03986726,18.8423293 8.04823009,18.8506463 8.05924779,18.858561 C8.07172566,18.8688902 8.08566372,18.8801585 8.09946903,18.8912927 C8.1079646,18.8984024 8.11752212,18.9067195 8.12734513,18.9138293 C8.14938053,18.9318049 8.17181416,18.9488415 8.19384956,18.9668171 C8.22424779,18.9915 8.25477876,19.0161829 8.28663717,19.0412683 C8.30323009,19.0540122 8.31862832,19.0663537 8.33522124,19.0789634 C8.34889381,19.0917073 8.36415929,19.1029756 8.37955752,19.1155854 C8.39469027,19.1272561 8.41154867,19.1398659 8.42800885,19.1518049 C8.44300885,19.1645488 8.45840708,19.1756829 8.47380531,19.1884268 C8.49026549,19.2022439 8.50845133,19.2149878 8.52650442,19.228939 C8.53871681,19.2394024 8.55292035,19.25 8.56672566,19.2596585 C8.58464602,19.2744146 8.60256637,19.2886341 8.62048673,19.3017805 C8.63429204,19.3129146 8.6470354,19.3225732 8.65938053,19.3325 C8.67730088,19.3464512 8.69535398,19.3606707 8.71340708,19.3738171 C8.72721239,19.3837439 8.7410177,19.394878 8.75482301,19.4048049 C8.77168142,19.4171463 8.78827434,19.4306951 8.80632743,19.4430366 C8.82013274,19.454439 8.83539823,19.4657073 8.84933628,19.4752317 C8.8659292,19.4887805 8.88384956,19.5019268 8.90057522,19.5146707 C8.91584071,19.5258049 8.92964602,19.5362683 8.94345133,19.5468659 C8.96004425,19.5594756 8.97809735,19.5718171 8.99336283,19.5838902 C9.00876106,19.5956951 9.02362832,19.605622 9.0379646,19.6168902 C9.05561947,19.6301707 9.07247788,19.6426463 9.09039823,19.6555244 C9.10433628,19.6657195 9.11814159,19.6756463 9.13327434,19.6869146 C9.15,19.6995244 9.16672566,19.7113293 9.18318584,19.723939 C9.19845133,19.7344024 9.21238938,19.745 9.22765487,19.7553293 C9.24424779,19.7680732 9.26230088,19.7806829 9.27876106,19.7931585 C9.29415929,19.8032195 9.30783186,19.8136829 9.32336283,19.8241463 C9.33982301,19.8359512 9.35641593,19.8472195 9.37168142,19.8599634 C9.3869469,19.8702927 9.40353982,19.8822317 9.41893805,19.892561 C9.43553097,19.9053049 9.45079646,19.916439 9.46738938,19.9275732 C9.48265487,19.9391098 9.49778761,19.9486341 9.51424779,19.9605732 C9.53110619,19.9718415 9.54610619,19.9836463 9.5629646,19.9949146 C9.5779646,20.0055122 9.59482301,20.0167805 9.6100885,20.0269756 C9.62681416,20.0390488 9.64340708,20.0501829 9.65986726,20.062122 C9.67513274,20.0725854 9.69053097,20.0831829 9.70566372,20.0943171 C9.72106195,20.1050488 9.73752212,20.1160488 9.75278761,20.1265122 C9.76938053,20.1376463 9.78584071,20.1497195 9.80269912,20.1607195 C9.81783186,20.1714512 9.83469027,20.1824512 9.84969027,20.1930488 C9.8650885,20.2044512 9.88154867,20.2149146 9.89840708,20.2259146 C9.91353982,20.2370488 9.93026549,20.2477805 9.94539823,20.2582439 C9.96185841,20.2692439 9.97712389,20.2799756 9.99371681,20.2911098 C10.0105752,20.3015732 10.0270354,20.3128415 10.0425664,20.323439 C10.0590265,20.3337683 10.0744248,20.3450366 10.090885,20.3556341 C10.1061504,20.3659634 10.1214159,20.3764268 10.1381416,20.3871585 C10.1547345,20.3973537 10.1714602,20.4080854 10.1865929,20.4201585 C10.2031858,20.4296829 10.2184513,20.4402805 10.2335841,20.4507439 C10.2516372,20.4612073 10.2682301,20.4731463 10.2850885,20.4837439 C10.3000885,20.4936707 10.315354,20.5033293 10.329292,20.5124512 C10.3472124,20.5243902 10.3639381,20.5348537 10.3818584,20.5458537 C10.3972566,20.5557805 10.4122566,20.5657073 10.4275221,20.5760366 C10.444115,20.5871707 10.4621681,20.5979024 10.4787611,20.6090366 C10.4941593,20.6181585 10.5078319,20.6278171 10.5220354,20.6370732 C10.539823,20.6474024 10.5593363,20.6601463 10.5760619,20.6712805 C10.5911947,20.6804024 10.6051327,20.6895244 10.6201327,20.6994512 C10.6381858,20.7097805 10.6563717,20.7217195 10.6744248,20.7329878 C10.6882301,20.7413049 10.7020354,20.7504268 10.715708,20.7595488 C10.7354867,20.7706829 10.7519469,20.7818171 10.77,20.7932195 C10.7851327,20.8020732 10.8003982,20.8113293 10.8142035,20.8199146 C10.8323894,20.8310488 10.8515044,20.8421829 10.8683628,20.854122 C10.8834956,20.862439 10.8961062,20.8707561 10.9099115,20.8792073 C10.9291593,20.8904756 10.9488053,20.9022805 10.9668584,20.9138171 C10.9806637,20.9226707 10.994469,20.9305854 11.0082743,20.9389024 C11.0276549,20.9500366 11.0473009,20.9626463 11.0650885,20.9739146 C11.0791593,20.981561 11.0913717,20.9893415 11.1039823,20.9977927 C11.124823,21.0089268 11.145531,21.0214024 11.1649115,21.0334756 C11.1775221,21.041122 11.1897345,21.0479634 11.2023451,21.055878 C11.2231858,21.068622 11.2452212,21.0808293 11.2659292,21.0937073 C11.2770796,21.1000122 11.2870354,21.1060488 11.2980531,21.1116829 C11.3199558,21.1252317 11.3421239,21.1377073 11.3645575,21.1517927 C11.3755752,21.1572927 11.3865929,21.1644024 11.3964159,21.1699024 C11.4184513,21.182378 11.4404867,21.1959268 11.4630531,21.208939 C11.4739381,21.2145732 11.4837611,21.2202073 11.4933186,21.2257073 C11.5154867,21.2385854 11.5377876,21.2517317 11.559823,21.2643415 C11.5708407,21.2707805 11.5806637,21.2762805 11.5916814,21.2833902 C11.6165044,21.2966707 11.6415929,21.3104878 11.6652212,21.3240366 C11.6734513,21.3288659 11.680354,21.3331585 11.6885841,21.3378537 C11.715,21.351939 11.7400885,21.3658902 11.7649115,21.3813171 C11.7732743,21.384939 11.780177,21.3884268 11.7869469,21.3932561 C11.8176106,21.4094878 11.8480088,21.4267927 11.8786726,21.4428902 C11.88,21.4450366 11.8826549,21.4458415 11.884115,21.4470488 C12.1141593,21.574622 12.3456637,21.6979024 12.5754425,21.8154146 C12.5783628,21.8170244 12.579823,21.8176951 12.5811504,21.8185 C12.6130088,21.8344634 12.6447345,21.8504268 12.675531,21.8659878 C12.6767257,21.867061 12.6781858,21.867061 12.6795133,21.8678659 C12.710177,21.8840976 12.7420354,21.8995244 12.7724336,21.9144146 C12.7780088,21.9176341 12.7834513,21.9199146 12.7890265,21.9227317 C12.8167699,21.9366829 12.8443805,21.9507683 12.8735841,21.9653902 C12.8763717,21.966061 12.8776991,21.9680732 12.8818142,21.9696829 C12.9110177,21.9836341 12.9399558,21.9975854 12.9691593,22.0130122 C12.9761947,22.0158293 12.9829646,22.0186463 12.9885398,22.022 C13.0149558,22.0340732 13.0412389,22.0480244 13.0675221,22.0605 C13.075885,22.0634512 13.0829204,22.0676098 13.0896903,22.0710976 C13.1147788,22.0830366 13.1410619,22.0949756 13.1644248,22.1066463 C13.1743805,22.1110732 13.1826106,22.1157683 13.1924336,22.120061 C13.2159292,22.1305244 13.2407522,22.1424634 13.2645133,22.1538659 C13.2727434,22.1570854 13.2809735,22.1619146 13.2907965,22.1663415 C13.3144248,22.1766707 13.3364602,22.188878 13.3612832,22.1993415 C13.3711062,22.2041707 13.3821239,22.2091341 13.3919469,22.2139634 C13.4139823,22.2242927 13.4361504,22.2343537 13.4597788,22.2446829 C13.469469,22.2497805 13.4806195,22.2544756 13.4904425,22.259439 C13.5124779,22.2692317 13.534646,22.2791585 13.5569469,22.289622 C13.5679646,22.2939146 13.5789823,22.2995488 13.5888053,22.3035732 C13.6121681,22.3143049 13.634469,22.3245 13.6566372,22.3349634 C13.6663274,22.3392561 13.675885,22.3435488 13.685708,22.3469024 C13.7078761,22.3576341 13.7300442,22.3679634 13.7534071,22.3778902 C13.764823,22.3833902 13.7742478,22.3867439 13.7853982,22.3918415 C13.8076991,22.4013659 13.8297345,22.4112927 13.8517699,22.4212195 C13.8629204,22.425378 13.8727434,22.430878 13.8852212,22.4351707 C13.9061947,22.4444268 13.9266372,22.4542195 13.9490708,22.4626707 C13.9600885,22.4681707 13.9711062,22.4738049 13.9837168,22.4776951 C14.0045575,22.4869512 14.0251327,22.4967439 14.0474336,22.506 C14.0584513,22.5100244 14.0696018,22.5156585 14.0806195,22.5199512 C14.1013274,22.5282683 14.1236283,22.5381951 14.1443363,22.5465122 C14.155354,22.5513415 14.1678319,22.5561707 14.1805752,22.5618049 C14.199823,22.5705244 14.220531,22.5788415 14.2400442,22.5871585 C14.2538496,22.5927927 14.2663274,22.597622 14.2801327,22.6033902 C14.2995133,22.6110366 14.3175664,22.6193537 14.3369469,22.6261951 C14.350885,22.6318293 14.3646903,22.6384024 14.3770354,22.6432317 C14.3966814,22.6515488 14.4175221,22.66 14.4367699,22.6683171 C14.449115,22.6726098 14.4603982,22.6766341 14.4726106,22.6824024 C14.4922566,22.689378 14.5129646,22.6978293 14.5323451,22.7061463 C14.5462832,22.7116463 14.5600885,22.7164756 14.5726991,22.7217073 C14.5907522,22.7292195 14.61,22.737 14.6293805,22.7447805 C14.6431858,22.7494756 14.6569912,22.7545732 14.6709292,22.7607439 C14.6888496,22.7670488 14.7069027,22.7748293 14.7249558,22.7816707 C14.7388938,22.7865 14.7541593,22.792939 14.7694248,22.7987073 C14.7873451,22.8047439 14.8053982,22.8127927 14.8234513,22.8195 C14.8371239,22.8239268 14.8510619,22.8307683 14.8664602,22.8358659 C14.8829204,22.8427073 14.8993805,22.8484756 14.9175664,22.8553171 C14.9328319,22.8609512 14.9494248,22.8672561 14.965885,22.8727561 C14.9800885,22.8783902 14.9966814,22.8840244 15.0119469,22.8895244 C15.0285398,22.8966341 15.0465929,22.9030732 15.0615929,22.909378 C15.0769912,22.9142073 15.0922566,22.9205122 15.1075221,22.9253415 C15.124115,22.9316463 15.1423009,22.9380854 15.1587611,22.9443902 C15.1737611,22.9504268 15.1906195,22.9556585 15.2057522,22.9611585 C15.2226106,22.9671951 15.2392035,22.9729634 15.2557965,22.9785976 C15.269469,22.9842317 15.2848673,22.9897317 15.3014602,22.994561 C15.3183186,23.001 15.3349115,23.0065 15.3529646,23.0136098 C15.365177,23.0183049 15.3789823,23.0227317 15.3930531,23.0267561 C15.4123009,23.034 15.4318142,23.0408415 15.4511947,23.0471463 C15.4623451,23.0507683 15.4717699,23.055061 15.4829204,23.0584146 C15.5036283,23.0661951 15.5261947,23.0733049 15.5482301,23.0809512 C15.5564602,23.084439 15.5662832,23.0869878 15.5758407,23.089939 C15.5981416,23.0975854 15.6215044,23.1060366 15.6438053,23.1138171 C15.6521681,23.1159634 15.6590708,23.1186463 15.6659735,23.1206585 C15.6907965,23.1291098 15.715885,23.137561 15.740708,23.1452073 C15.7449558,23.145878 15.7490708,23.1473537 15.7518584,23.1481585 C17.2985841,23.6542927 18.795,23.931439 20.1613274,23.9632317 L20.6742478,23.9632317 C22.6738938,23.9168171 24.3603982,23.3106098 25.4634956,22.0878659 L25.4649558,22.0878659 C25.4731858,22.0772683 25.4816814,22.0682805 25.4911062,22.0576829 C25.4911062,22.0576829 25.4911062,22.0564756 25.4925664,22.0564756 C25.5007965,22.0464146 25.5091593,22.0367561 25.5188496,22.0270976 C25.5188496,22.0261585 25.520177,22.0249512 25.520177,22.0242805 C25.5288053,22.0151585 25.5370354,22.0052317 25.5453982,21.9959756 C25.5464602,21.9947683 25.5480531,21.9927561 25.5493805,21.9904756 C25.5576106,21.9821585 25.564646,21.9729024 25.5716814,21.9641829 C25.5730088,21.9632439 25.574469,21.9609634 25.5756637,21.9597561 C25.5840265,21.9507683 25.5910619,21.9415122 25.5979646,21.9323902 C25.600885,21.930378 25.600885,21.9291707 25.6035398,21.927561 C25.6104425,21.9185732 25.6174779,21.9093171 25.6255752,21.9001951 C25.6269027,21.8972439 25.6296903,21.894561 25.6326106,21.890939 C25.6381858,21.8834268 25.6449558,21.8757805 25.650531,21.8678659 C25.660354,21.8575366 25.6684513,21.8464024 25.6769469,21.8351341 C25.6879646,21.8205122 25.7004425,21.8049512 25.7115929,21.7903293 C25.7169027,21.7834878 25.7226106,21.7762439 25.7281858,21.7692683 C25.7336283,21.761622 25.7406637,21.7531707 25.7461062,21.7448537 C25.7531416,21.7361341 25.7572566,21.7294268 25.764292,21.7209756 C25.7697345,21.7134634 25.7753097,21.7068902 25.7795575,21.6992439 C25.7863274,21.690122 25.7919027,21.6824756 25.7989381,21.6740244 C25.8029204,21.6670488 25.8086283,21.6607439 25.8126106,21.6529634 C25.8197788,21.6446463 25.8252212,21.6355244 25.8319912,21.6264024 C25.8375664,21.619561 25.8418142,21.613122 25.8460619,21.6069512 C25.8528319,21.5970244 25.8584071,21.5872317 25.8654425,21.5789146 C25.8694248,21.5723415 25.8736726,21.5661707 25.8780531,21.5598659 C25.8846903,21.5500732 25.8902655,21.5404146 25.8974336,21.5304878 C25.9012832,21.5248537 25.9056637,21.5186829 25.9099115,21.5129146 C25.915354,21.5033902 25.9222566,21.4926585 25.9291593,21.4827317 C25.9319469,21.4772317 25.9359292,21.4717317 25.9387168,21.4652927 C25.9472124,21.4556341 25.9539823,21.4450366 25.9610177,21.4337683 C25.9638053,21.4290732 25.9677876,21.4242439 25.9705752,21.4187439 C25.9776106,21.407878 25.984646,21.3960732 25.9914159,21.3857439 C25.9940708,21.3805122 25.9969912,21.3756829 25.9997788,21.3701829 C26.0068142,21.3597195 26.0137168,21.3477805 26.020354,21.3365122 C26.0232743,21.3316829 26.0260619,21.3268537 26.0288496,21.3233659 C26.035885,21.3104878 26.0426549,21.2989512 26.049823,21.2867439 C26.0523451,21.2833902 26.0551327,21.2790976 26.0567257,21.2742683 C26.0634956,21.2624634 26.0718584,21.2495854 26.0788938,21.2377805 C26.0800885,21.233622 26.0830088,21.2302683 26.0842035,21.2257073 C26.0926991,21.2135 26.0996018,21.2007561 26.1065044,21.1880122 C26.1078319,21.1846585 26.1107522,21.1811707 26.1118142,21.176878 C26.1204425,21.1644024 26.1260177,21.1501829 26.1342478,21.1377073 C26.1355752,21.1348902 26.1370354,21.1314024 26.1383628,21.1287195 C26.1452655,21.1153049 26.1524336,21.1012195 26.1606637,21.087939 C26.1618584,21.0845854 26.1633186,21.0817683 26.1647788,21.0789512 C26.1718142,21.0648659 26.1783186,21.0507805 26.1854867,21.0368293 C26.1881416,21.0348171 26.1897345,21.032 26.1897345,21.0299878 C26.1980973,21.0144268 26.2047345,21.0006098 26.2117699,20.9863902 C26.2130973,20.9838415 26.2146903,20.9822317 26.2146903,20.9803537 C26.2229204,20.9655976 26.2299558,20.9492317 26.2381858,20.9344756 L26.2381858,20.9317927 C26.2465487,20.9151585 26.2533186,20.8995976 26.2618142,20.8836341 C26.2618142,20.8820244 26.2631416,20.8820244 26.2631416,20.8813537 C26.7440708,19.8490976 26.8895575,18.629439 26.7371681,17.306622 L26.7371681,17.3047439 C26.7342478,17.2838171 26.7314602,17.2624878 26.7288053,17.2410244 C26.7272124,17.2410244 26.7272124,17.2402195 26.7272124,17.2396829 C26.7232301,17.1983659 26.7177876,17.1562439 26.7120796,17.1145244 C26.7120796,17.1113049 26.7106195,17.1087561 26.7106195,17.1058049 C26.7078319,17.0868902 26.705177,17.0666341 26.7038496,17.0469146 C26.7025221,17.0443659 26.7009292,17.0412805 26.7009292,17.0384634 C26.6981416,17.0190122 26.695354,16.9994268 26.6925664,16.9799756 L26.6925664,16.9721951 C26.6885841,16.9551585 26.6869912,16.9377195 26.6843363,16.9210854 C26.6831416,16.9159878 26.6831416,16.9119634 26.6815487,16.9068659 C26.6786283,16.8900976 26.6761062,16.8733293 26.6733186,16.8558902 C26.6719912,16.8495854 26.6719912,16.8411341 26.6690708,16.8346951 C26.6662832,16.818061 26.6649558,16.8026341 26.6623009,16.7865366 C26.660708,16.7802317 26.6595133,16.7724512 26.6580531,16.7656098 C26.6551327,16.7528659 26.6539381,16.7417317 26.6523451,16.7292561 C26.6496903,16.7178537 26.6469027,16.7065854 26.645708,16.6947805 C26.644115,16.6844512 26.6414602,16.6731829 26.6401327,16.6617805 C26.6373451,16.652122 26.6357522,16.6413902 26.6344248,16.631061 C26.6330973,16.6247561 26.6315044,16.6171098 26.6303097,16.61 C26.6260619,16.5917561 26.6232743,16.5744512 26.619292,16.5567439 C26.6176991,16.5519146 26.6176991,16.5472195 26.6165044,16.5419878 C26.6122566,16.5205244 26.6081416,16.4978537 26.6040265,16.4762561 C26.6040265,16.4742439 26.6040265,16.471561 26.6026991,16.4699512 C26.394823,15.4462805 26.0248673,14.3728415 25.505177,13.2859878 L25.5035841,13.2855854 C25.4941593,13.2630488 25.4828761,13.2399756 25.4731858,13.2175732 C25.4677434,13.2084512 25.4634956,13.1993293 25.4595133,13.1916829 C25.4551327,13.1817561 25.4510177,13.1741098 25.4470354,13.1657927 C25.4426549,13.1568049 25.4386726,13.1467439 25.4330973,13.1384268 C25.3968584,13.0612927 25.3583628,12.9852317 25.320531,12.9095732 C25.3193363,12.9072927 25.3166814,12.9052805 25.3166814,12.903 C25.3068584,12.8842195 25.2973009,12.865439 25.2874779,12.8465244 C25.285885,12.8435732 25.284823,12.8400854 25.2832301,12.8371341 C25.2736726,12.8192927 25.2654425,12.8014512 25.2556195,12.7832073 C25.2529646,12.7790488 25.2500442,12.7751585 25.2485841,12.7707317 C25.2390265,12.7524878 25.2293363,12.7350488 25.2195133,12.7166707 C25.2181858,12.7127805 25.2165929,12.7098293 25.2153982,12.7064756 C25.205708,12.6874268 25.1961504,12.670122 25.1863274,12.6510732 C25.1848673,12.6482561 25.1820796,12.6439634 25.1807522,12.6411463 C23.9847345,10.3774268 22.1666814,8.08137805 19.870354,6.06328049 L19.8691593,6.06193902 C19.7415929,5.95059756 19.6125664,5.8392561 19.4823451,5.72939024 C19.4794248,5.72670732 19.4755752,5.7237561 19.4727876,5.72107317 C19.4561947,5.70765854 19.4393363,5.69290244 19.4228761,5.67881707 C19.4158407,5.67318293 19.4102655,5.66768293 19.4020354,5.6629878 C19.3870354,5.64876829 19.3728319,5.63629268 19.3563717,5.62354878 C19.3492035,5.61684146 19.3397788,5.60973171 19.3314159,5.60262195 C19.3173451,5.5900122 19.3023451,5.57820732 19.2870796,5.56546341 C19.2787168,5.55915854 19.2690265,5.55084146 19.2621239,5.54373171 C19.2468584,5.53259756 19.2330531,5.5199878 19.2177876,5.50871951 C19.2079646,5.50053659 19.1984071,5.49181707 19.1885841,5.48497561 C19.1747788,5.47317073 19.1609735,5.46257317 19.1471681,5.45076829 C19.1373451,5.44164634 19.1263274,5.43386585 19.1165044,5.42541463 C19.1026991,5.41428049 19.0900885,5.40368293 19.0780088,5.39321951 C19.0638053,5.38289024 19.05,5.37162195 19.0373894,5.36102439 C19.0265044,5.35270732 19.0169469,5.34506098 19.005531,5.33593902 C18.9823009,5.31689024 18.9572124,5.29730488 18.9334513,5.27785366 C17.9913717,4.5227439 17.0102655,3.84168293 16.0138938,3.2415122 C12.7336726,1.26271951 9.28314159,0.150780488 6.42690265,0.113487805 L6.15265487,0.113487805 Z" id="Fill-26" fill="url(#linearGradient-12)" mask="url(#mask-11)"></path>
                </g>
                <path d="M10.6589204,25.4169514 C10.8707788,25.7593522 11.2046283,25.9232896 11.5290531,25.8876346 C11.2103363,25.7016252 10.9152478,25.5350467 10.6420619,25.3924268 L10.6589204,25.4169514 Z" id="Fill-29" fill="#EEEDEE"></path>
                <path d="M31.7531814,25.888044 C32.0776062,25.9216552 32.4114558,25.7590752 32.6263673,25.4169207 L32.6413673,25.3923732 C32.3685796,25.5362593 32.072031,25.7026159 31.7531814,25.888044" id="Fill-31" fill="#C6C8C8"></path>
                <path d="M10.1959381,23.5646963 C10.1737699,30.2245256 15.5158938,29.91505 22.1068673,29.9354402 C22.6942566,29.9381232 23.2776637,29.9417451 23.8432832,29.9429524 C24.1050531,30.7596354 24.1689027,31.6460744 22.9630619,32.8784768 C26.2793894,33.0249646 27.6514248,31.4011232 27.9754513,29.8065256 C31.5925752,29.4440622 34.0369115,28.1423061 34.0495221,23.6426354 C34.0716903,16.9876354 33.3803628,9.83481829 22.1594336,9.79215976 C22.1331504,9.79162317 22.1052743,9.79162317 22.0789912,9.79162317 C12.052885,9.79095244 10.2167788,16.9287451 10.1959381,23.5646963" id="Fill-33" fill="#E3AA38"></path>
                <path d="M14.5832124,5.70155488 C10.8597611,6.35484756 8.50383186,10.7481402 9.32431858,15.5150305 C10.1420177,20.2816524 13.8183451,23.6159939 17.5432566,22.9647134 C21.2655133,22.3122256 23.6158673,17.9204085 22.7996283,13.1527134 C22.0500265,8.78517683 18.8998938,5.62106707 15.5158673,5.62106707 C15.2068407,5.62106707 14.8950265,5.64695732 14.5832124,5.70155488" id="Fill-35" fill="#FFFFFF"></path>
                <path d="M26.1270133,15.5858732 C25.4810841,19.2278122 27.2605088,22.599178 30.1028097,23.1147024 C32.9464381,23.6299585 35.7774558,21.0972756 36.423385,17.4569463 C37.0705088,13.8148732 35.2912168,10.4421659 32.4461283,9.92744634 C32.1996239,9.88250732 31.952854,9.86090976 31.7059513,9.86090976 C29.1312611,9.86171463 26.7171903,12.2619951 26.1270133,15.5858732" id="Fill-37" fill="#FFFFFF"></path>
                <path d="M14.4004248,14.3267488 C14.3976372,15.2553098 15.1390088,16.0073341 16.0550708,16.0128341 C16.9708673,16.013639 17.7207345,15.2652366 17.7207345,14.3378829 C17.7263097,13.4137488 16.9834779,12.659578 16.0674159,12.6547488 C15.1488319,12.6534073 14.4032124,13.4018098 14.4004248,14.3267488" id="Fill-39" fill="#3C3A39"></path>
                <path d="M16.0562788,15.8350366 C15.6587124,15.8350366 15.2858363,15.6775488 15.0074735,15.3934268 C14.7272522,15.1097073 14.5736681,14.7285976 14.5764558,14.3283049 C14.5764558,13.5019634 15.2457478,12.8325732 16.0645088,12.8325732 C16.8849956,12.8344512 17.5488451,13.5096098 17.5475177,14.3379634 C17.5475177,15.1635 16.8783584,15.8350366 16.0578717,15.8350366 L16.0578717,16.0129146 L16.0562788,15.8350366 Z M14.227208,14.3266951 C14.2229602,14.8220976 14.4142434,15.2910732 14.7592434,15.642 C15.1043761,15.9919878 15.565792,16.1866341 16.0536239,16.187439 L16.0578717,16.187439 C17.0692434,16.187439 17.8953053,15.3588171 17.8953053,14.3379634 C17.9008805,13.3165732 17.0805265,12.4851341 16.0633142,12.4803049 C15.0544646,12.4803049 14.2299956,13.31 14.227208,14.3266951 Z" id="Fill-41" fill="#3C3A39"></path>
                <path d="M29.6150973,16.5149439 C29.6123097,17.4435049 30.3520885,18.1962 31.2723982,18.1990171 C32.1843451,18.2025049 32.9338142,17.454639 32.9338142,16.5248707 C32.9381947,15.6026146 32.1980177,14.8456268 31.2820885,14.844822 L31.2737257,14.844822 C30.3604513,14.844822 29.617885,15.5914805 29.6150973,16.5149439" id="Fill-43" fill="#3C3A39"></path>
                <path d="M31.2724513,18.0231646 C30.873292,18.0231646 30.5005487,17.8651402 30.2205929,17.5791402 C29.9406372,17.2958232 29.7882478,16.9175305 29.7910354,16.5149573 C29.7910354,15.6917012 30.4560796,15.0221768 31.2820088,15.0221768 C31.6771858,15.0221768 32.0496637,15.1796646 32.3312124,15.46325 C32.6124956,15.7469695 32.7622301,16.1249939 32.7594425,16.5248841 C32.7578496,17.3524329 32.0941327,18.0231646 31.2737788,18.0231646 L31.2737788,18.1990305 L31.2724513,18.0231646 Z M29.4403274,16.5149573 C29.4403274,17.0100915 29.6289558,17.4763841 29.973823,17.8277134 C30.3190885,18.1809207 30.7803717,18.37275 31.2724513,18.3739573 L31.2737788,18.3739573 C32.2826283,18.3739573 33.1059027,17.54775 33.109885,16.5248841 C33.1113451,16.0327012 32.9216549,15.5664085 32.5763894,15.2146768 C32.2299292,14.8630793 31.7740885,14.6677622 31.2764336,14.6677622 C30.2662566,14.6677622 29.443115,15.4963841 29.4403274,16.5149573 Z" id="Fill-45" fill="#3C3A39"></path>
                <path d="M19.8589115,24.8954146 C19.8991327,25.0107805 19.9490442,25.1516341 20.0294867,25.3063049 C20.108469,25.4580244 20.2053717,25.6262439 20.3343982,25.7941951 C20.459177,25.9736829 20.6281593,26.132378 20.8025841,26.3097195 C20.9966549,26.4602317 21.2005487,26.6403902 21.4458584,26.7625976 C21.6813451,26.9076098 21.9516106,27.0076829 22.2301062,27.0967561 C22.5071416,27.1842195 22.8051504,27.2164146 23.0933363,27.2514268 C23.1737788,27.2487439 23.2555487,27.2502195 23.3358584,27.2507561 C23.548115,27.2527683 23.7599735,27.2542439 23.9609469,27.206622 C24.0996637,27.1842195 24.2394425,27.1563171 24.3740442,27.1254634 C24.5098407,27.1010488 24.6400619,27.0660366 24.7619204,27.0133171 C25.0085575,26.9148537 25.244177,26.8229634 25.4519204,26.7151098 C25.6571416,26.5898171 25.8443097,26.4700244 26.0146195,26.3487561 C26.188115,26.2405 26.3251062,26.1115854 26.4428496,25.9897805 C26.5605929,25.8761585 26.6605487,25.7676341 26.7408584,25.6795 C26.9016106,25.4986707 26.9805929,25.3859878 26.9805929,25.3859878 C26.9805929,25.3859878 26.8377611,25.3979268 26.6050619,25.4352195 C26.4901062,25.4531951 26.3515221,25.475061 26.1975398,25.5057805 C26.0452832,25.5444146 25.8760354,25.5821098 25.689,25.6025 C25.5034248,25.6298659 25.3066991,25.6680976 25.1082478,25.7138415 C24.9047522,25.7452317 24.6913009,25.7585122 24.479177,25.7941951 C24.2658584,25.8455732 24.0453717,25.8167317 23.8279381,25.8497317 C23.7225398,25.8656951 23.6146195,25.8559024 23.5064336,25.8522805 L23.1808142,25.8474512 C23.0740885,25.8466463 22.9701504,25.8196829 22.8634248,25.8117683 C22.7568319,25.7941951 22.6485133,25.8026463 22.5473628,25.7691098 C22.4476726,25.7452317 22.3437345,25.7249756 22.2411239,25.7061951 C22.138646,25.6899634 22.0442655,25.6473049 21.944708,25.6234268 C21.7422743,25.5766098 21.5636018,25.487 21.3737788,25.4266341 C21.2005487,25.3383659 21.0190885,25.2754512 20.8652389,25.1815488 C20.7028938,25.1046829 20.5588673,25.0170854 20.424531,24.9407561 C20.2955044,24.860939 20.1735133,24.7923902 20.0808584,24.7278659 C19.9824956,24.6634756 19.9076283,24.6094146 19.8549292,24.5780244 L19.7718319,24.5234268 C19.7718319,24.5234268 19.7786018,24.6634756 19.8589115,24.8954146" id="Fill-47" fill="#3C3A39"></path>
            </g>
        </g>
    </g>
</svg>