<?xml version="1.0" encoding="UTF-8"?>
<svg width="30px" height="29px" viewBox="0 0 30 29" version="1.1" xmlns="http://www.w3.org/2000/svg" xmlns:xlink="http://www.w3.org/1999/xlink">
    <!-- Generator: Sketch 48.2 (47327) - http://www.bohemiancoding.com/sketch -->
    <title>引号</title>
    <desc>Created with Sketch.</desc>
    <defs></defs>
    <g id="Artboard-2" stroke="none" stroke-width="1" fill="none" fill-rule="evenodd" transform="translate(-498.000000, -244.000000)" opacity="0.300000012">
        <g id="Group" transform="translate(498.000000, 244.000000)" fill="#FFFFFF" fill-rule="nonzero">
            <g id="双引号002-copy-2" transform="translate(15.000000, 14.500000) scale(-1, -1) translate(-15.000000, -14.500000) ">
                <path d="M1.39467572,0.00684177948 L13.3859029,0.00684177948 C13.6573695,0.00684177948 13.8774473,0.230660626 13.8774473,0.506741737 L13.8774473,11.2086911 C13.9769181,15.5641832 12.9102666,19.2698962 10.707209,22.223487 C8.51098834,25.1678523 5.13488223,27.4278091 0.672686288,28.9405519 C0.52276524,28.9913599 0.358008472,28.9657741 0.229849432,28.8718384 C0.101690393,28.7779026 0.0257244105,28.6269783 0.0257244105,28.4662832 L0.0257244105,24.0046305 C0.0257244105,23.8207582 0.124971703,23.6517466 0.284142751,23.5645368 C2.73614528,22.2210784 4.5712148,20.6250796 5.73840948,18.8208951 C6.81109354,17.1627724 7.35174777,15.2745594 7.3482176,13.2017469 L1.39472044,13.2017469 C1.12325384,13.2017469 0.903175983,12.977928 0.903175983,12.7018469 L0.903175983,0.506741825 C0.903131266,0.230660626 1.12320913,0.00684177948 1.39467572,0.00684177948 Z M17.7729819,0.00684177948 L29.4717848,0.00684177948 C29.7432514,0.00684177948 29.9633292,0.230660626 29.9633292,0.506741737 L29.9633292,11.2086911 C30.0627552,15.5625926 29.0222003,19.2668059 26.8705762,22.2189878 C24.7235546,25.1648983 21.420778,27.4259459 17.0541204,28.9394157 C16.9039313,28.9914053 16.7384148,28.9665921 16.6094961,28.8727472 C16.4805327,28.7789024 16.4040305,28.6275236 16.4040305,28.4662377 L16.4040305,24.0045851 C16.4040305,23.8237121 16.5001051,23.6569274 16.6552544,23.5684905 C19.0101545,22.2262137 20.771984,20.6315328 21.891901,18.8286208 C22.9231166,17.168453 23.4411151,15.2774678 23.4345016,13.2017014 L17.7730712,13.2017014 C17.5016046,13.2017014 17.2815268,12.9778825 17.2815268,12.7018014 L17.2815268,0.506696305 C17.2814374,0.230660626 17.5015153,0.00684177948 17.7729819,0.00684177948 Z" id="Shape"></path>
            </g>
        </g>
    </g>
</svg>