<?xml version="1.0" encoding="UTF-8"?>
<svg width="208px" height="78px" viewBox="0 0 208 78" version="1.1" xmlns="http://www.w3.org/2000/svg" xmlns:xlink="http://www.w3.org/1999/xlink">
    <!-- Generator: Sketch 48.2 (47327) - http://www.bohemiancoding.com/sketch -->
    <title>合作伙伴</title>
    <desc>Created with Sketch.</desc>
    <defs></defs>
    <g id="首页" stroke="none" stroke-width="1" fill="none" fill-rule="evenodd" transform="translate(-119.000000, -4111.000000)">
        <g id="Group-33-Copy" transform="translate(119.000000, 4111.000000)" fill="#333333">
            <path d="M1.04,60.88 L17,60.88 L17,61.56 L9.26,61.56 L9.26,69.88 L17.76,69.88 L17.76,70.54 L9.26,70.54 L9.26,77.9 L8.58,77.9 L8.58,70.54 L0.24,70.54 L0.24,69.88 L8.58,69.88 L8.58,61.56 L1.04,61.56 L1.04,60.88 Z M2.9,63.38 C3.7,64.82 4.46,66.4 5.16,68.1 L4.52,68.4 C3.82,66.64 3.08,65.06 2.28,63.7 L2.9,63.38 Z M15.12,63.24 L15.76,63.52 C15.1,65.18 14.24,66.8 13.18,68.38 L12.58,68.06 C13.66,66.44 14.5,64.84 15.12,63.24 Z M35.42,69.86 L35.42,77.92 L34.74,77.92 L34.74,76.64 L23.26,76.64 L23.26,77.92 L22.58,77.92 L22.58,69.86 L35.42,69.86 Z M23.26,75.96 L34.74,75.96 L34.74,70.52 L23.26,70.52 L23.26,75.96 Z M20.96,67.46 L20.82,66.82 C22.98,65.78 25.28,63.42 27.74,59.76 L28.4,60 C26.28,63.12 24.2,65.36 22.16,66.76 C26.84,66.58 31.08,66.3 34.84,65.9 C33.88,64.6 32.9,63.4 31.9,62.32 L32.52,62 C34.36,64.04 36.06,66.26 37.62,68.66 L36.98,68.98 C36.42,68.12 35.88,67.3 35.32,66.54 C31.06,66.94 26.28,67.24 20.96,67.46 Z M46.96,68.28 L50.46,68.28 L50.46,65.6 C49.54,65.72 48.54,65.78 47.48,65.78 L47.26,65.18 C49.96,65.16 52.16,64.78 53.84,64.06 L54.16,64.58 C53.28,64.98 52.28,65.3 51.14,65.5 L51.14,68.28 L54.64,68.28 L54.64,68.92 L51.14,68.92 L51.14,71.26 L53.72,71.26 L53.72,75.86 L48,75.86 L48,71.26 L50.46,71.26 L50.46,68.92 L46.96,68.92 L46.96,68.28 Z M53.06,75.24 L53.06,71.86 L48.66,71.86 L48.66,75.24 L53.06,75.24 Z M55.18,77.78 L53.2,77.78 L53.02,77.12 L55.04,77.14 C55.7,77.14 56.04,76.78 56.04,76.08 L56.04,61.62 L48.02,61.62 L48.02,60.94 L56.72,60.94 L56.72,76.26 C56.72,77.26 56.2,77.78 55.18,77.78 Z M41.34,63.08 L42.02,63.08 L42.02,77.92 L41.34,77.92 L41.34,63.08 Z M43.5,59.68 C44.4,60.64 45.2,61.68 45.92,62.84 L45.3,63.16 C44.58,61.96 43.76,60.9 42.86,59.96 L43.5,59.68 Z M44.16,64.3 C45.2,65.06 46.06,65.8 46.74,66.56 L46.3,67 C45.66,66.28 44.8,65.52 43.72,64.72 L44.16,64.3 Z M43.68,67.64 C44.72,68.4 45.56,69.14 46.24,69.9 L45.8,70.34 C45.16,69.62 44.3,68.88 43.24,68.08 L43.68,67.64 Z M45.96,71.58 L46.52,71.8 C45.76,73.68 44.94,75.42 44.04,77.06 L43.4,76.78 C44.4,75.08 45.24,73.34 45.96,71.58 Z M67.86,60.42 C69.06,60.8 70.18,61.26 71.18,61.8 L70.82,62.36 C69.74,61.76 68.64,61.28 67.52,60.94 L67.86,60.42 Z M74.82,59.72 L75.48,59.8 C75.3,60.34 75.08,60.86 74.82,61.34 L83.24,61.34 L83.24,61.78 C82.96,62.78 82.62,63.74 82.18,64.7 L81.52,64.5 C81.94,63.72 82.28,62.88 82.52,61.96 L78.34,61.96 C78.24,62.56 78.1,63.1 77.9,63.58 C78.94,65.36 81.06,66.58 84.3,67.22 L84.06,67.82 C80.94,67.18 78.78,65.98 77.62,64.2 C77.32,64.76 76.96,65.26 76.52,65.7 C75.52,66.6 73.92,67.3 71.76,67.8 L71.48,67.18 C73.56,66.72 75.08,66.08 76.02,65.26 C76.88,64.46 77.44,63.36 77.68,61.96 L74.42,61.96 C73.86,62.74 73.18,63.44 72.34,64.08 L71.92,63.52 C73.36,62.48 74.32,61.22 74.82,59.72 Z M81.84,68.7 L81.84,74.62 L81.16,74.62 L81.16,69.36 L70.08,69.36 L70.08,74.68 L69.38,74.68 L69.38,68.7 L81.84,68.7 Z M75.42,70.48 L76.12,70.56 C75.84,73.06 75.24,74.78 74.28,75.74 C73.2,76.86 70.96,77.54 67.56,77.82 L67.28,77.22 C70.52,77.02 72.68,76.38 73.74,75.32 C74.68,74.36 75.24,72.74 75.42,70.48 Z M71,64.08 L71.4,64.54 C70.4,65.62 69.16,66.66 67.68,67.62 L67.22,67.08 C68.72,66.16 69.98,65.16 71,64.08 Z M76.7,74.68 C79.3,75.4 81.68,76.3 83.82,77.34 L83.46,77.92 C81.14,76.76 78.78,75.86 76.34,75.2 L76.7,74.68 Z M87.7,60.3 C89.14,61.34 90.36,62.36 91.32,63.4 L90.86,63.88 C89.94,62.88 88.74,61.84 87.22,60.76 L87.7,60.3 Z M87.34,65.2 C88.7,66.2 89.82,67.2 90.72,68.2 L90.24,68.66 C89.4,67.7 88.28,66.7 86.86,65.66 L87.34,65.2 Z M90.3,70.48 L90.9,70.72 C89.96,73.24 88.92,75.6 87.76,77.82 L87.12,77.54 C88.34,75.26 89.4,72.9 90.3,70.48 Z M95.34,63.86 L98.38,63.86 C98.7,63.08 98.94,62.26 99.08,61.42 L93.42,61.42 L93.42,68.22 C93.34,72.22 92.6,75.42 91.16,77.84 L90.64,77.38 C91.98,75.18 92.68,72.12 92.74,68.22 L92.74,60.78 L104.38,60.78 L104.38,61.42 L99.74,61.42 C99.58,62.28 99.36,63.1 99.04,63.86 L103.22,63.86 L103.22,70.42 L99.68,70.42 L99.68,76.64 C99.68,77.44 99.26,77.86 98.44,77.86 L96.76,77.86 L96.62,77.22 C97.18,77.26 97.7,77.28 98.2,77.28 C98.74,77.28 99.02,77 99.02,76.48 L99.02,70.42 L95.34,70.42 L95.34,63.86 Z M102.56,69.82 L102.56,67.46 L95.98,67.46 L95.98,69.82 L102.56,69.82 Z M95.98,66.86 L102.56,66.86 L102.56,64.46 L95.98,64.46 L95.98,66.86 Z M96.14,72.16 L96.78,72.3 C96.24,74.06 95.46,75.58 94.46,76.86 L93.88,76.52 C94.88,75.26 95.64,73.8 96.14,72.16 Z M102.18,72.1 C103.08,73.5 103.86,74.98 104.54,76.58 L103.94,76.84 C103.22,75.12 102.44,73.62 101.58,72.3 L102.18,72.1 Z M115.42,59.94 L115.9,59.94 C118.46,62.66 121.38,64.82 124.7,66.38 L124.36,66.96 C120.96,65.32 118.06,63.18 115.66,60.58 C113.44,63.1 110.52,65.3 106.88,67.14 L106.56,66.54 C110.1,64.78 113.06,62.58 115.42,59.94 Z M110.1,66.4 L121.26,66.4 L121.26,67.06 L116,67.06 L116,71.3 L122.08,71.3 L122.08,71.96 L116,71.96 L116,76.54 L123.9,76.54 L123.9,77.22 L107.44,77.22 L107.44,76.54 L115.32,76.54 L115.32,71.96 L109.22,71.96 L109.22,71.3 L115.32,71.3 L115.32,67.06 L110.1,67.06 L110.1,66.4 Z M138.92,70.92 L145.7,70.92 L145.7,75.28 L138.92,75.28 L138.92,70.92 Z M145.04,74.66 L145.04,71.58 L139.58,71.58 L139.58,74.66 L145.04,74.66 Z M143.94,66.9 C145.66,68.14 147.08,69.38 148.22,70.62 L147.72,71.12 C146.66,69.92 145.24,68.66 143.48,67.34 L143.94,66.9 Z M141.88,59.58 C142.2,60.18 142.52,60.9 142.82,61.7 L151.08,61.7 L151.08,62.38 L146.6,62.38 C146.16,63.52 145.68,64.52 145.12,65.4 L149.78,65.4 L149.78,76.32 C149.78,77.32 149.3,77.82 148.36,77.82 L146.32,77.82 L146.14,77.16 L148.12,77.18 C148.78,77.18 149.12,76.84 149.12,76.18 L149.12,66.04 L135.48,66.04 L135.48,77.76 L134.82,77.76 L134.82,65.4 L139.2,65.4 C138.84,64.3 138.4,63.3 137.86,62.38 L133.56,62.38 L133.56,61.7 L142.12,61.7 C141.8,60.96 141.48,60.3 141.14,59.7 L141.88,59.58 Z M139.9,65.4 L144.4,65.4 C144.94,64.46 145.42,63.46 145.82,62.38 L138.64,62.38 C139.1,63.22 139.52,64.24 139.9,65.4 Z M140.56,66.94 L141.06,67.38 C139.86,68.78 138.4,70.02 136.66,71.08 L136.22,70.52 C137.94,69.5 139.38,68.3 140.56,66.94 Z M153.58,63.94 L156.84,63.94 L156.84,59.78 L157.52,59.78 L157.52,63.94 L160.28,63.94 L160.28,64.6 L157.52,64.6 L157.52,65.88 C158.48,66.92 159.48,68.14 160.5,69.5 L160.12,70.1 C159.12,68.6 158.24,67.42 157.52,66.58 L157.52,77.8 L156.84,77.8 L156.84,66.28 C156.08,68.72 154.98,70.9 153.54,72.78 L153.24,72.1 C154.96,69.9 156.16,67.4 156.84,64.6 L153.58,64.6 L153.58,63.94 Z M159.7,77.38 C160.62,76.06 161.26,74.62 161.62,73.08 C161.88,71.76 162.02,70.2 162.02,68.36 L162.02,60.84 L167.82,60.84 L167.82,75.96 C167.82,76.48 168.06,76.76 168.56,76.76 L169.3,76.76 C169.64,76.76 169.92,76.7 170.12,76.62 C170.36,76.48 170.52,76.2 170.6,75.78 C170.68,75.26 170.72,74.16 170.72,72.5 L171.38,72.7 C171.38,74.02 171.32,75.04 171.24,75.76 C171.16,76.44 170.96,76.92 170.62,77.16 C170.34,77.32 169.9,77.4 169.3,77.4 L168.58,77.4 C167.6,77.4 167.12,76.92 167.12,75.96 L167.12,61.52 L162.7,61.52 L162.7,68.36 C162.7,70.54 162.52,72.28 162.18,73.6 C161.82,75.1 161.18,76.52 160.24,77.88 L159.7,77.38 Z M182.58,59.78 L183.18,60.1 C182.64,60.7 182.04,61.26 181.4,61.74 L187.84,61.74 L187.84,62.32 C185.68,66.16 181.66,68.3 175.82,68.74 L175.5,68.1 C177.54,67.96 179.34,67.62 180.92,67.1 C180.2,66.18 179.44,65.38 178.64,64.68 L179.24,64.38 C180.08,65.14 180.86,65.98 181.56,66.86 C183.96,65.88 185.8,64.38 187.04,62.38 L180.48,62.38 C178.92,63.34 177.06,64.04 174.88,64.52 L174.48,63.92 C178.08,63.2 180.78,61.82 182.58,59.78 Z M181.1,72.24 C181.96,73.12 182.76,74.1 183.52,75.14 C186.12,74.04 188.12,72.38 189.52,70.18 L182.98,70.18 C181.18,71.08 179.02,71.7 176.5,72.06 L176.1,71.46 C180.46,70.98 183.7,69.6 185.84,67.3 L186.42,67.64 C185.76,68.34 185,68.96 184.16,69.52 L190.38,69.52 L190.38,70.08 C187.58,74.88 182.34,77.34 174.64,77.48 L174.36,76.8 C177.68,76.76 180.52,76.28 182.9,75.4 C182.12,74.32 181.32,73.38 180.48,72.54 L181.1,72.24 Z" id="平台阔-资源全-商机多"></path>
            <path d="M19.496,0.938 L20.504,0.938 C25.964,7.448 32.222,12.572 39.362,16.31 L38.606,17.612 C31.34,13.706 25.124,8.582 20,2.24 C15.254,8.204 8.996,13.328 1.226,17.696 L0.512,16.394 C8.114,12.236 14.456,7.07 19.496,0.938 Z M32.6,22.862 L32.6,38.948 L31.172,38.948 L31.172,35.966 L8.828,35.966 L8.828,38.948 L7.4,38.948 L7.4,22.862 L32.6,22.862 Z M8.828,34.538 L31.172,34.538 L31.172,24.29 L8.828,24.29 L8.828,34.538 Z M9.29,14.756 L30.71,14.756 L30.71,16.142 L9.29,16.142 L9.29,14.756 Z M60.614,8.792 C58.682,12.908 56.33,16.562 53.642,19.754 L52.634,18.62 C56.792,13.706 59.984,7.742 62.168,0.77 L63.554,1.106 C62.882,3.332 62.084,5.432 61.244,7.406 L80.774,7.406 L80.774,8.792 L65.57,8.792 L65.57,17.276 L78.674,17.276 L78.674,18.704 L65.57,18.704 L65.57,27.314 L79.178,27.314 L79.178,28.7 L65.57,28.7 L65.57,38.99 L64.142,38.99 L64.142,8.792 L60.614,8.792 Z M48.728,13.244 C47.09,15.596 45.284,17.822 43.268,19.838 L42.806,18.368 C47.678,13.16 51.164,7.322 53.264,0.938 L54.566,1.568 C53.39,4.97 51.92,8.12 50.156,11.018 L50.156,38.99 L48.728,38.99 L48.728,13.244 Z M91.064,13.496 C89.552,15.764 87.83,17.906 85.94,19.88 L85.478,18.41 C90.098,13.244 93.416,7.49 95.432,1.106 L96.734,1.694 C95.6,5.096 94.172,8.246 92.492,11.186 L92.492,38.948 L91.064,38.948 L91.064,13.496 Z M101.228,8.246 L102.614,8.414 C102.11,13.286 100.892,17.654 98.96,21.434 L97.616,21.014 C99.548,17.318 100.766,13.034 101.228,8.246 Z M110.174,1.232 C110.174,4.76 110.132,8.246 110.048,11.606 C110.048,12.782 109.964,13.916 109.88,15.05 C111.434,24.794 115.718,32.312 122.732,37.604 L121.766,38.654 C115.214,33.53 111.098,26.81 109.418,18.536 C107.99,26.684 103.958,33.488 97.364,38.906 L96.398,37.814 C104.252,31.514 108.326,23.03 108.662,12.404 C108.704,8.582 108.746,4.844 108.746,1.232 L110.174,1.232 Z M119.834,7.616 L121.178,7.952 C120.17,12.74 118.91,16.982 117.356,20.594 L116.012,20.09 C117.482,16.814 118.742,12.656 119.834,7.616 Z M142.262,3.122 C143.69,5.642 144.992,8.582 146.084,11.942 L144.74,12.278 C143.732,9.254 142.472,6.356 140.96,3.542 L142.262,3.122 Z M160.826,2.366 L162.212,2.744 C161.12,6.44 159.776,9.674 158.096,12.446 L156.752,11.942 C158.306,9.422 159.65,6.23 160.826,2.366 Z M139.532,15.176 L150.788,15.176 L150.788,0.98 L152.216,0.98 L152.216,15.176 L163.808,15.176 L163.808,16.562 L152.216,16.562 L152.216,25.046 L164.942,25.046 L164.942,26.432 L152.216,26.432 L152.216,38.99 L150.788,38.99 L150.788,26.432 L138.272,26.432 L138.272,25.046 L150.788,25.046 L150.788,16.562 L139.532,16.562 L139.532,15.176 Z M136.676,0.854 L137.978,1.442 C136.886,4.886 135.5,8.078 133.862,11.018 L133.862,39.116 L132.476,39.116 L132.476,13.37 C130.922,15.806 129.158,18.116 127.226,20.258 L126.764,18.746 C131.384,13.37 134.702,7.406 136.676,0.854 Z" id="合作伙伴"></path>
        </g>
    </g>
</svg>