<?xml version="1.0" encoding="UTF-8"?>
<svg width="234px" height="78px" viewBox="0 0 234 78" version="1.1" xmlns="http://www.w3.org/2000/svg" xmlns:xlink="http://www.w3.org/1999/xlink">
    <!-- Generator: Sketch 48.2 (47327) - http://www.bohemiancoding.com/sketch -->
    <title>产品服务</title>
    <desc>Created with Sketch.</desc>
    <defs>
        <rect id="path-1" x="0" y="0" width="1440" height="1721"></rect>
    </defs>
    <g id="首页" stroke="none" stroke-width="1" fill="none" fill-rule="evenodd" transform="translate(-122.000000, -1866.000000)">
        <g id="地图-3" opacity="0.5" transform="translate(0.000000, 1774.000000)">
            <g id="Rectangle-2">
                <g id="Mask">
                    <g>
                        <mask id="mask-2" fill="white">
                            <use xlink:href="#path-1"></use>
                        </mask>
                        <use fill="#F5F5F5" xlink:href="#path-1"></use>
                        <g mask="url(#mask-2)">
                            <g transform="translate(-2.000000, 0.000000)"></g>
                        </g>
                    </g>
                </g>
            </g>
        </g>
        <g id="Group-26-Copy" transform="translate(121.000000, 1866.000000)" fill="#333333">
            <path d="M1.38,61.18 L16.68,61.18 L16.68,61.86 L13.1,61.86 L13.1,67.96 L17.76,67.96 L17.76,68.62 L13.1,68.62 L13.1,77.8 L12.42,77.8 L12.42,68.62 L5.9,68.62 C5.76,70.78 5.38,72.54 4.78,73.94 C4.02,75.58 2.8,76.88 1.08,77.84 L0.68,77.24 C2.32,76.34 3.52,75.06 4.28,73.38 C4.78,72.08 5.1,70.5 5.22,68.62 L0.26,68.62 L0.26,67.96 L5.26,67.96 C5.26,67.58 5.28,67.22 5.28,66.86 L5.28,61.86 L1.38,61.86 L1.38,61.18 Z M5.96,61.86 L5.96,66.86 C5.96,67.24 5.94,67.6 5.94,67.96 L12.42,67.96 L12.42,61.86 L5.96,61.86 Z M30.82,66.36 C30.38,67.24 29.88,68 29.34,68.68 L28.92,68.16 C30.52,66.06 31.62,63.22 32.18,59.66 L32.86,59.78 C32.66,60.94 32.4,62.02 32.12,63.02 L38.54,63.02 L38.54,63.7 L36.78,63.7 C36.7,67.34 35.88,70.38 34.36,72.84 C35.68,74.82 37.26,76.34 39.1,77.38 L38.7,77.96 C36.84,76.88 35.26,75.38 33.98,73.44 C32.76,75.2 31.18,76.68 29.24,77.84 L28.86,77.24 C30.84,76.08 32.42,74.6 33.58,72.84 C32.46,71.02 31.54,68.86 30.82,66.36 Z M31.9,63.7 C31.7,64.34 31.46,64.96 31.22,65.52 C31.9,68.14 32.8,70.38 33.96,72.22 C35.34,69.86 36.06,67.02 36.12,63.7 L31.9,63.7 Z M21.1,63.04 L25.28,63.04 C24.88,61.94 24.4,60.88 23.86,59.84 L24.54,59.64 C25.16,60.9 25.64,62.04 26,63.04 L29.18,63.04 L29.18,63.7 L24.08,63.7 L24.08,65.9 C24.08,66.4 24.06,66.9 24.04,67.38 L27.88,67.38 C27.88,72.02 27.78,74.88 27.58,75.92 C27.4,77.04 26.7,77.6 25.46,77.6 C25.18,77.6 24.74,77.58 24.12,77.58 L23.94,76.94 C24.48,76.96 24.94,76.98 25.34,76.98 C26.22,76.98 26.74,76.6 26.9,75.86 C27.1,74.92 27.2,72.32 27.2,68.04 L24,68.04 C23.76,72.42 22.84,75.68 21.24,77.84 L20.7,77.38 C22.48,75 23.38,71.18 23.42,65.9 L23.42,63.7 L21.1,63.7 L21.1,63.04 Z M45.3,64.48 C44.5,66.36 43.48,67.94 42.24,69.2 L41.8,68.66 C43.8,66.6 45.14,63.8 45.86,60.24 L46.54,60.38 C46.26,61.62 45.94,62.78 45.56,63.82 L50.82,63.82 L50.82,59.9 L51.48,59.9 L51.48,63.82 L58.38,63.82 L58.38,64.48 L51.48,64.48 L51.48,69.92 L57.96,69.92 L57.96,70.6 L51.48,70.6 L51.48,76.52 L59.64,76.52 L59.64,77.2 L42.22,77.2 L42.22,76.52 L50.82,76.52 L50.82,70.6 L44.64,70.6 L44.64,69.92 L50.82,69.92 L50.82,64.48 L45.3,64.48 Z M71.3999999,59.6 L72.0799999,59.68 C71.9799999,60.56 71.8199999,61.38 71.6199999,62.12 L79.6599999,62.12 L79.6599999,62.78 L72.7399999,62.78 C73.7599999,65.34 76.3999999,67.32 80.6799999,68.7 L80.3199999,69.28 C75.8399999,67.72 73.0799999,65.54 72.0799999,62.78 L71.3999999,62.78 C70.9599999,64.02 70.3399999,65.1 69.5399999,65.98 C69.3799999,66.14 69.2399999,66.3 69.0799999,66.46 C70.0399999,67.12 71.1199999,68 72.2799999,69.12 L71.8199999,69.6 C70.6199999,68.44 69.5599999,67.54 68.5999999,66.86 C67.2799999,67.88 65.3999999,68.7 62.9399999,69.34 L62.6599999,68.7 C65.5799999,67.96 67.6999999,66.9 68.9999999,65.54 C69.6999999,64.78 70.2599999,63.86 70.6599999,62.78 L63.5599999,62.78 L63.5599999,62.12 L70.8799999,62.12 C71.1199999,61.32 71.2799999,60.48 71.3999999,59.6 Z M64.9399999,71.38 L65.5999999,71.54 C65.1199999,73.6 64.4199999,75.38 63.5399999,76.88 L62.9399999,76.52 C63.8199999,75.04 64.4999999,73.32 64.9399999,71.38 Z M71.7799999,70.74 C72.4999999,71.82 73.1199999,72.98 73.6399999,74.22 L73.0199999,74.5 C72.4599999,73.16 71.8399999,71.96 71.1599999,70.92 L71.7799999,70.74 Z M77.6799999,71.12 C78.6799999,72.64 79.5599999,74.26 80.2999999,75.98 L79.6799999,76.26 C78.8799999,74.38 77.9999999,72.74 77.0199999,71.32 L77.6799999,71.12 Z M74.3999999,77.48 L69.3599999,77.48 C68.3599999,77.48 67.8799999,76.96 67.8799999,75.94 L67.8799999,71.34 L68.5599999,71.34 L68.5599999,75.8 C68.5599999,76.46 68.8799999,76.8 69.5599999,76.8 L74.2599999,76.8 C74.7999999,76.8 75.1799999,76.68 75.3799999,76.44 C75.6599999,76.08 75.8599999,75.08 75.9599999,73.46 L76.5999999,73.66 C76.4999999,75.42 76.2599999,76.52 75.8799999,76.96 C75.5799999,77.3 75.0799999,77.48 74.3999999,77.48 Z M87.4999999,64.64 L89.4799999,64.64 C89.1999999,63.98 88.8399999,63.36 88.4199999,62.8 L88.9799999,62.58 C89.4199999,63.14 89.7999999,63.84 90.1199999,64.64 L91.8999999,64.64 C92.0999999,63.86 92.2799999,63.06 92.3999999,62.22 L93.0599999,62.3 C92.9399999,63.14 92.7599999,63.92 92.5599999,64.64 L94.5999999,64.64 C95.1799999,63.96 95.5799999,63.26 95.8199999,62.54 L96.3999999,62.7 C96.1999999,63.38 95.8399999,64.02 95.3399999,64.64 L97.6599999,64.64 L97.6599999,65.22 L92.3799999,65.22 C92.1599999,65.86 91.8999999,66.48 91.6199999,67.04 L98.3799999,67.04 L98.3799999,67.64 L95.1799999,67.64 C95.9399999,68.98 97.2399999,70.16 99.1199999,71.2 L98.6999999,71.7 C96.7199999,70.5 95.3399999,69.14 94.5799999,67.64 L91.2999999,67.64 C90.9199999,68.28 90.4999999,68.88 90.0199999,69.42 L95.4999999,69.42 L95.4999999,71.38 C95.4999999,72.1 95.0199999,72.48 94.0799999,72.48 C93.4799999,72.48 92.8999999,72.46 92.3199999,72.42 L92.1599999,71.86 C92.7599999,71.9 93.3599999,71.94 93.9599999,71.94 C94.5599999,71.94 94.8799999,71.72 94.8799999,71.32 L94.8799999,69.98 L90.4199999,69.98 L90.4199999,73.56 C90.4199999,74.04 90.6799999,74.3 91.1999999,74.3 L95.1799999,74.3 C95.8599999,74.3 96.2999999,74.18 96.4999999,73.96 C96.6799999,73.66 96.8199999,73.14 96.8999999,72.4 L97.4999999,72.58 C97.3999999,73.62 97.1799999,74.28 96.8399999,74.56 C96.5599999,74.76 96.0199999,74.88 95.2399999,74.88 L91.0999999,74.88 C90.2199999,74.88 89.7799999,74.46 89.7799999,73.66 L89.7799999,69.68 C88.8599999,70.66 87.7799999,71.46 86.5399999,72.1 L86.1999999,71.56 C88.0799999,70.64 89.5399999,69.34 90.5799999,67.64 L86.7599999,67.64 L86.7599999,67.04 L90.9199999,67.04 C91.2399999,66.46 91.4999999,65.86 91.7199999,65.22 L87.4999999,65.22 L87.4999999,64.64 Z M85.3799999,77 L85.3799999,78 L84.6999999,78 L84.6999999,60.7 L100.5,60.7 L100.5,78 L99.8199999,78 L99.8199999,77 L85.3799999,77 Z M99.8199999,76.4 L99.8199999,61.3 L85.3799999,61.3 L85.3799999,76.4 L99.8199999,76.4 Z M129.42,67.3 L123.62,67.3 L123.62,66.62 L129.86,66.62 L129.86,63.3 L130.54,63.3 L130.54,66.62 L133.6,66.62 L133.6,67.3 L130.54,67.3 L130.54,74.98 C130.54,76.04 130.04,76.58 129.04,76.58 L127.08,76.58 L126.94,75.9 C127.58,75.94 128.2,75.96 128.8,75.96 C129.5,75.96 129.86,75.58 129.86,74.82 L129.86,67.68 C128.76,70.32 126.6,72.58 123.38,74.5 L123.02,73.92 C126.3,72.02 128.42,69.82 129.42,67.3 Z M134.62,77.78 L132.9,77.78 L132.72,77.12 L134.48,77.14 C135.2,77.14 135.58,76.68 135.58,75.76 L135.58,61.6 L127.56,61.6 L127.56,60.94 L136.26,60.94 L136.26,75.94 C136.26,77.16 135.7,77.78 134.62,77.78 Z M120.96,63.08 L121.64,63.08 L121.64,77.92 L120.96,77.92 L120.96,63.08 Z M123.12,59.7 C124.08,60.74 124.94,61.9 125.68,63.16 L125.08,63.46 C124.28,62.16 123.42,61 122.48,59.98 L123.12,59.7 Z M149.28,59.78 L149.76,59.78 C152.36,62.88 155.34,65.32 158.74,67.1 L158.38,67.72 C154.92,65.86 151.96,63.42 149.52,60.4 C147.26,63.24 144.28,65.68 140.58,67.76 L140.24,67.14 C143.86,65.16 146.88,62.7 149.28,59.78 Z M155.52,70.22 L155.52,77.88 L154.84,77.88 L154.84,76.46 L144.2,76.46 L144.2,77.88 L143.52,77.88 L143.52,70.22 L155.52,70.22 Z M144.2,75.78 L154.84,75.78 L154.84,70.9 L144.2,70.9 L144.2,75.78 Z M144.42,66.36 L154.62,66.36 L154.62,67.02 L144.42,67.02 L144.42,66.36 Z M161.68,65.42 L166.04,65.42 L166.04,61.84 C164.72,62.12 163.32,62.3 161.88,62.42 L161.66,61.78 C164.82,61.56 167.62,60.96 170.04,59.98 L170.38,60.56 C169.24,61.02 168.02,61.4 166.74,61.7 L166.74,65.42 L170.62,65.42 L170.62,66.08 L166.74,66.08 L166.74,67.42 C168.02,68.62 169.34,69.98 170.68,71.54 L170.28,72.14 C168.9,70.42 167.72,69.1 166.74,68.14 L166.74,77.92 L166.04,77.92 L166.04,67.48 C165.04,69.88 163.56,72.02 161.62,73.9 L161.32,73.16 C163.6,71.08 165.16,68.72 166.02,66.08 L161.68,66.08 L161.68,65.42 Z M172.76,61.64 L173.44,61.64 L173.44,74.18 L172.76,74.18 L172.76,61.64 Z M176.66,77.72 L173.76,77.72 L173.62,77.06 C174.6,77.08 175.54,77.1 176.44,77.1 C177.18,77.1 177.56,76.7 177.56,75.94 L177.56,59.82 L178.26,59.82 L178.26,76.12 C178.26,77.18 177.72,77.72 176.66,77.72 Z M190.46,64.92 L196.9,64.92 L196.9,65.56 L194.08,65.56 L194.08,69.04 L196.6,69.04 L196.6,69.66 L194.08,69.66 L194.08,73.54 L197.2,73.54 L197.2,74.2 L190.26,74.2 L190.26,73.54 L193.4,73.54 L193.4,69.66 L190.82,69.66 L190.82,69.04 L193.4,69.04 L193.4,65.56 L190.46,65.56 L190.46,64.92 Z M188.16,63.04 L188.82,63.04 L188.82,77.78 L188.16,77.78 L188.16,63.04 Z M197.86,77.84 L195.84,77.84 L195.66,77.2 L197.72,77.22 C198.38,77.22 198.72,76.84 198.72,76.08 L198.72,61.48 L193.2,61.48 L193.2,60.8 L199.4,60.8 L199.4,76.26 C199.4,77.3 198.88,77.84 197.86,77.84 Z M188.98,59.8 C190.22,60.72 191.26,61.66 192.1,62.58 L191.62,63.06 C190.86,62.18 189.82,61.22 188.5,60.22 L188.98,59.8 Z M183.66,60.2 C184.9,61.06 185.92,61.92 186.76,62.76 L186.28,63.24 C185.5,62.42 184.48,61.56 183.2,60.66 L183.66,60.2 Z M183.22,65.02 C184.46,65.98 185.5,66.94 186.34,67.9 L185.86,68.38 C185.06,67.46 184.02,66.5 182.74,65.48 L183.22,65.02 Z M185.88,70.2 L186.48,70.44 C185.64,72.98 184.72,75.36 183.7,77.6 L183.08,77.34 C184.16,75.02 185.08,72.64 185.88,70.2 Z M213.26,71.36 L217.28,71.36 L217.28,68.18 L213.72,68.18 L213.6,67.56 C214.4,66.28 215.12,64.7 215.76,62.86 L213.44,62.86 L213.44,62.24 L215.96,62.24 C216.2,61.44 216.44,60.62 216.66,59.74 L217.3,59.88 C217.08,60.72 216.86,61.5 216.64,62.24 L220.84,62.24 L220.84,62.86 L216.44,62.86 C215.84,64.64 215.14,66.2 214.34,67.56 L217.28,67.56 L217.28,64.62 L217.92,64.62 L217.92,67.56 L220.66,67.56 L220.66,68.18 L217.92,68.18 L217.92,71.36 L221.2,71.36 L221.2,72 L217.92,72 L217.92,75.82 L217.28,75.82 L217.28,72 L213.26,72 L213.26,71.36 Z M210.18,60.3 C211.18,61.48 211.94,62.5 212.46,63.38 L211.94,63.76 C211.38,62.8 210.6,61.76 209.64,60.64 L210.18,60.3 Z M218.52,76.88 C219.48,76.88 220.38,76.86 221.24,76.86 L221.06,77.54 L218.46,77.54 C217.86,77.54 217.24,77.52 216.62,77.5 C215.64,77.48 214.82,77.36 214.14,77.12 C213.44,76.84 212.84,76.4 212.36,75.8 C212.1,75.48 211.88,75.32 211.68,75.32 C211.28,75.32 210.56,76.14 209.54,77.78 L209.1,77.28 C210.02,75.8 210.8,74.94 211.4,74.72 L211.4,67.34 L209.46,67.34 L209.46,66.7 L212.04,66.7 L212.04,74.72 C212.22,74.8 212.42,74.94 212.62,75.18 C213.06,75.74 213.58,76.16 214.2,76.46 C214.76,76.66 215.44,76.8 216.24,76.84 C217,76.86 217.76,76.88 218.52,76.88 Z M205.52,59.8 L206.18,59.94 C206,60.78 205.8,61.56 205.58,62.32 L209.1,62.32 L209.1,62.98 L205.38,62.98 C204.9,64.46 204.36,65.78 203.72,66.96 L203.2,66.62 C204.24,64.66 205,62.38 205.52,59.8 Z M204.74,66.22 L208.66,66.22 L208.66,66.86 L206.76,66.86 L206.76,70.1 L209.24,70.1 L209.24,70.76 L206.76,70.76 L206.76,76.44 C207.46,76.16 208.18,75.72 208.94,75.14 L209.08,75.78 C208.18,76.42 207.16,76.98 206,77.42 L205.72,76.82 C205.96,76.7 206.08,76.54 206.08,76.32 L206.08,70.76 L203.6,70.76 L203.6,70.1 L206.08,70.1 L206.08,66.86 L204.74,66.86 L204.74,66.22 Z" id="开放生态圈-闭合利润链"></path>
            <path d="M19.412,0.308 C20.252,1.862 21.008,3.668 21.68,5.684 L36.758,5.684 L36.758,7.07 L29.072,7.07 C28.526,9.842 27.686,12.446 26.552,14.966 L37.64,14.966 L37.64,16.352 L6.896,16.352 L6.896,23.408 C6.728,29.876 5.174,35.084 2.192,38.99 L1.142,38.024 C3.872,34.496 5.3,29.624 5.426,23.408 L5.426,14.966 L14.162,14.966 L12.062,7.07 L3.998,7.07 L3.998,5.684 L20.252,5.684 C19.538,3.752 18.782,2.03 17.942,0.56 L19.412,0.308 Z M15.632,14.966 L25.082,14.966 C26.342,12.488 27.182,9.842 27.644,7.07 L13.49,7.07 L15.632,14.966 Z M50.912,3.164 L72.962,3.164 L72.962,15.47 L50.912,15.47 L50.912,3.164 Z M71.492,14.042 L71.492,4.592 L52.382,4.592 L52.382,14.042 L71.492,14.042 Z M59.018,21.266 L59.018,38.36 L57.59,38.36 L57.59,36.008 L46.922,36.008 L46.922,38.36 L45.494,38.36 L45.494,21.266 L59.018,21.266 Z M46.922,34.622 L57.59,34.622 L57.59,22.652 L46.922,22.652 L46.922,34.622 Z M78.464,21.266 L78.464,38.36 L77.036,38.36 L77.036,36.008 L65.99,36.008 L65.99,38.36 L64.562,38.36 L64.562,21.266 L78.464,21.266 Z M65.99,34.622 L77.036,34.622 L77.036,22.652 L65.99,22.652 L65.99,34.622 Z M89.93,14.336 L89.93,22.736 L98.204,22.736 L98.204,14.336 L89.93,14.336 Z M98.204,13.034 L98.204,4.55 L89.93,4.55 L89.93,13.034 L98.204,13.034 Z M89.888,24.122 C89.72,30.17 88.796,35.168 87.116,39.032 L86.024,38.024 C87.704,33.992 88.586,28.826 88.628,22.61 L88.628,3.164 L99.59,3.164 L99.59,35.84 C99.59,37.856 98.582,38.906 96.608,38.906 L93.248,38.906 L92.912,37.562 C94.088,37.604 95.18,37.646 96.188,37.646 C97.532,37.646 98.204,36.848 98.204,35.336 L98.204,24.122 L89.888,24.122 Z M105.554,19.964 L105.554,39.032 L104.168,39.032 L104.168,3.122 L120.128,3.122 C120.128,7.868 119.876,11.018 119.372,12.53 C118.952,14.168 117.398,15.008 114.752,15.008 L111.602,15.008 L111.224,13.706 C111.938,13.706 112.904,13.748 114.08,13.748 C115.256,13.748 116.138,13.622 116.726,13.454 C117.314,13.286 117.734,12.824 118.028,12.11 C118.448,10.85 118.658,8.33 118.7,4.508 L105.554,4.508 L105.554,18.662 L120.044,18.662 L120.044,19.922 C119.078,24.668 117.482,28.616 115.256,31.808 C117.44,33.992 120.044,35.924 123.11,37.604 L122.396,38.822 C119.204,37.058 116.558,35.084 114.416,32.9 C112.442,35.378 110.09,37.352 107.318,38.864 L106.562,37.688 C109.292,36.176 111.602,34.244 113.492,31.892 C110.384,28.448 108.326,24.458 107.318,19.964 L105.554,19.964 Z M108.62,19.964 C109.586,24.038 111.476,27.65 114.29,30.8 C116.348,27.776 117.818,24.164 118.7,19.964 L108.62,19.964 Z M140.33,0.812 L141.8,0.98 C141.212,2.324 140.54,3.584 139.784,4.76 L158.684,4.76 L158.684,5.936 C155.744,9.338 152.132,12.194 147.806,14.462 C152.846,16.94 158.558,18.536 164.984,19.292 L164.312,20.678 C157.55,19.838 151.544,18.032 146.252,15.26 C140.96,17.78 134.786,19.586 127.688,20.678 L127.058,19.334 C133.862,18.368 139.742,16.73 144.782,14.462 C141.8,12.782 139.07,10.766 136.634,8.498 C134.87,10.178 132.854,11.732 130.502,13.118 L129.62,11.984 C134.912,8.96 138.482,5.222 140.33,0.812 Z M146.336,13.748 C150.41,11.69 153.854,9.128 156.71,6.104 L138.818,6.104 C138.398,6.608 138.02,7.07 137.642,7.49 C140.246,9.926 143.144,12.026 146.336,13.748 Z M144.404,19.082 L145.79,19.082 C145.79,21.098 145.58,22.946 145.244,24.626 L160.49,24.626 C160.406,31.304 159.776,35.294 158.516,36.596 C157.256,37.94 155.114,38.612 152.048,38.612 C150.872,38.612 149.402,38.57 147.68,38.528 L147.302,37.184 C149.066,37.226 150.536,37.268 151.712,37.31 C154.82,37.268 156.794,36.638 157.592,35.42 C158.348,34.16 158.852,31.01 159.02,25.928 L144.908,25.928 C144.53,27.272 144.026,28.532 143.438,29.666 C141.128,33.488 136.172,36.596 128.612,38.99 L127.646,37.814 C134.618,35.714 139.28,33.026 141.716,29.666 C142.43,28.49 143.018,27.272 143.438,25.928 L129.872,25.928 L129.872,24.626 L143.774,24.626 C144.194,22.904 144.404,21.056 144.404,19.082 Z" id="产品服务"></path>
        </g>
    </g>
</svg>