<?xml version="1.0" encoding="UTF-8"?>
<svg width="50px" height="50px" viewBox="0 0 50 50" version="1.1" xmlns="http://www.w3.org/2000/svg" xmlns:xlink="http://www.w3.org/1999/xlink">
    <!-- Generator: Sketch 48.2 (47327) - http://www.bohemiancoding.com/sketch -->
    <title>3</title>
    <desc>Created with Sketch.</desc>
    <defs></defs>
    <g id="首页" stroke="none" stroke-width="1" fill="none" fill-rule="evenodd" transform="translate(-742.000000, -809.000000)" opacity="0.699999988">
        <g id="Group-23" transform="translate(742.000000, 809.000000)" fill="#0ABBB9" fill-rule="nonzero">
            <path d="M24.3022494,28.1664869 C24.7270434,30.4730379 24.0263457,32.9381712 22.1990602,34.7208969 L19.1311444,37.7139993 C16.1659445,40.6068905 11.3585245,40.6068905 8.39332467,37.7139993 C5.42812482,34.8211081 5.42812482,30.1309207 8.39332467,27.2380295 L11.4612405,24.2449271 C13.2884346,22.4622905 15.815139,21.7786353 18.1792971,22.1929812 C18.238829,22.1268013 18.3004392,22.0624287 18.3640398,21.9999554 L19.9468895,20.4557048 C16.5445642,19.3404151 12.6374736,20.1041858 9.92725976,22.748309 L6.8593439,25.7414114 C3.04688537,29.4607666 3.04688537,35.4911285 6.8593439,39.2104836 C10.6716654,42.9298388 16.852758,42.9298388 20.6650795,39.2104836 L23.7329953,36.2173812 C26.4432092,33.5732134 27.2260249,29.7613556 26.0828126,26.4419987 L24.5000086,27.9862939 C24.4359819,28.0483058 24.3700315,28.1083981 24.3022494,28.1664869 Z M28.334892,4.78951637 L25.2669761,7.78261877 C22.5568079,10.4266974 21.7739922,14.2385552 22.9171132,17.5579567 L24.5000086,16.0136615 C24.5640388,15.951623 24.6300048,15.8915156 24.6978134,15.8334239 C24.2731108,13.5269176 24.9738541,11.0618734 26.8010482,9.27928137 L29.8689641,6.28608985 C32.8340726,3.39319865 37.641584,3.39319865 40.6067838,6.28608985 C43.5718923,9.17898104 43.5718923,13.8691685 40.6067838,16.7620597 L37.5388679,19.7552512 C35.7116282,21.5378878 33.1848325,22.2214538 30.8206286,21.8070634 C30.761127,21.8731988 30.6995473,21.9375268 30.6359773,21.9999554 L29.0531277,23.5442061 C32.4555442,24.6594958 36.3626348,23.8957697 39.0727574,21.251691 L42.1407646,18.2585886 C45.9530861,14.5392334 45.9530861,8.50891608 42.1407189,4.78951637 C38.3283974,1.07016121 32.1473048,1.07016121 28.334892,4.78951637 Z M19.8981119,26.4896313 C20.3216728,26.902997 21.0083948,26.902997 21.4320927,26.4896313 L29.1019965,19.006853 C29.5255574,18.5934874 29.5255574,17.9235561 29.1019965,17.5103241 C28.6782987,17.0970921 27.9914853,17.0970921 27.5680158,17.5103241 L19.8981119,24.9931915 C19.4745511,25.4063344 19.4745511,26.0763993 19.8981119,26.4896313 Z" id="Shape"></path>
        </g>
    </g>
</svg>