<?xml version="1.0" encoding="UTF-8"?>
<svg width="50px" height="50px" viewBox="0 0 50 50" version="1.1" xmlns="http://www.w3.org/2000/svg" xmlns:xlink="http://www.w3.org/1999/xlink">
    <!-- Generator: Sketch 48.2 (47327) - http://www.bohemiancoding.com/sketch -->
    <title>4</title>
    <desc>Created with Sketch.</desc>
    <defs></defs>
    <g id="首页" stroke="none" stroke-width="1" fill="none" fill-rule="evenodd" transform="translate(-1063.000000, -809.000000)" opacity="0.699999988">
        <g id="用户组" transform="translate(1063.000000, 809.000000)" fill="#0ABBB9" fill-rule="nonzero">
            <path d="M28.6775068,25.6932864 C28.3378638,26.1649913 27.9735693,26.6183357 27.5861517,27.0514174 C29.5632171,28.1543825 30.9040261,30.2714466 30.9040261,32.6971749 C30.9040261,36.2570383 28.016897,39.1529077 24.467778,39.1529077 L14.1697365,39.1529077 C10.6206175,39.1529077 7.73339939,36.2570383 7.73339939,32.6971749 C7.73339939,30.2714913 9.07416383,28.1544718 11.0512293,27.051462 C10.6638115,26.6183649 10.299517,26.1650057 9.9598742,25.6932864 C7.59694105,27.1252788 6.01705173,29.7260597 6.01705173,32.6971302 C6.01705173,37.2133076 9.66718998,40.8743174 14.1697365,40.8743174 L24.467778,40.8743174 C28.9702355,40.8743174 32.6202847,37.2133076 32.6202847,32.6971302 C32.6202847,29.7260597 31.0404399,27.1252788 28.6775068,25.6932864 Z M19.318646,29.6844847 C24.03868,29.6844847 30.04583,23.7109948 30.04583,16.3425773 C30.04583,8.97398107 25.2430751,3.00058053 19.318646,3.00058053 C13.3942614,3.00058053 8.59150644,8.97398107 8.59150644,16.3425773 C8.59150644,23.7109948 14.5987901,29.6844847 19.318646,29.6844847 Z M19.3215844,4.72212418 C24.2900482,4.72212418 28.3322872,9.93476059 28.3322872,16.3425773 C28.3322427,22.9731394 22.8660732,27.9628517 19.3215844,27.9628517 C15.7770066,27.9628517 10.3107035,22.9731394 10.3107035,16.3425773 C10.3107035,9.93476059 14.3531205,4.72212418 19.3215844,4.72212418 Z M40.4549526,21.4275414 C40.0832872,21.9490819 39.6781417,22.4285116 39.2405401,22.860293 C40.8428237,23.1510499 42.0601301,24.5503986 42.0601301,26.2413974 C42.0601301,28.1429058 40.5233376,29.6844847 38.6274348,29.6844847 L33.8676876,29.6844847 C34.0439482,30.2381331 34.1662487,30.8147794 34.2432263,31.405939 L38.6274348,31.405939 C41.4712445,31.405939 43.7764332,29.093727 43.7764332,26.2413974 C43.7764778,24.0368963 42.3932844,22.1687461 40.4549526,21.4275414 Z M41.2019785,13.3298871 C41.2019785,7.62522792 37.744084,3.00058053 33.4784363,3.00058053 C31.4382394,3.00058053 29.5881937,4.0664809 28.2074935,5.79454436 C28.5747957,6.24918979 28.9117788,6.73741673 29.2295731,7.2451138 C30.3167877,5.68643155 31.8191206,4.72212418 33.4784363,4.72212418 C36.7962217,4.72212418 39.4857199,8.57595978 39.4857199,13.3298871 C39.4857199,18.083725 36.7962217,21.9374713 33.4784363,21.9374713 C32.5843114,21.9374713 31.7386703,21.649885 30.9761064,21.1478146 C30.7949485,21.704053 30.5829817,22.2425182 30.3476857,22.7671847 C31.3052982,23.3364181 32.362906,23.659015 33.4784363,23.659015 C37.7440395,23.659015 41.2019785,19.0345462 41.2019785,13.3298871 Z" id="Shape"></path>
        </g>
    </g>
</svg>