<?xml version="1.0" encoding="UTF-8"?>
<svg width="50px" height="50px" viewBox="0 0 50 50" version="1.1" xmlns="http://www.w3.org/2000/svg" xmlns:xlink="http://www.w3.org/1999/xlink">
    <!-- Generator: Sketch 48.2 (47327) - http://www.bohemiancoding.com/sketch -->
    <title>2</title>
    <desc>Created with Sketch.</desc>
    <defs></defs>
    <g id="首页" stroke="none" stroke-width="1" fill="none" fill-rule="evenodd" transform="translate(-436.000000, -809.000000)" opacity="0.699999988">
        <g id="收藏-2" transform="translate(436.000000, 809.000000)" fill="#0ABBB9" fill-rule="nonzero">
            <path d="M24.4895678,2.00111111 C13.1746156,2.00111111 4.00200444,10.9501333 4.00200444,21.9891111 C4.00200444,33.0280889 13.17457,41.9770667 24.4895678,41.9770667 C35.8046111,41.9770667 44.9772222,33.0281333 44.9772222,21.9891111 C44.9772222,10.9500889 35.8046567,2.00111111 24.4895678,2.00111111 Z M24.4895678,40.2388889 C14.1584333,40.2388889 5.78345444,32.0681778 5.78345444,21.9891111 C5.78345444,11.91 14.1584333,3.73924444 24.4895678,3.73924444 C34.8207022,3.73924444 43.1956811,11.9099556 43.1956811,21.9891111 C43.1956811,32.0681778 34.8207022,40.2388889 24.4895678,40.2388889 Z M28.0782067,17.6323556 L25.3845978,9.55808889 C25.2653891,9.20021897 24.9234664,8.95799482 24.5377656,8.95817778 C24.1468286,8.95974875 23.8051348,9.20495502 23.6883367,9.56493333 L21.0747233,17.6323111 L12.4171633,17.6323111 C12.0290703,17.6322952 11.6856382,17.8774382 11.56819,18.2383111 C11.4505596,18.5994972 11.5864216,18.9934012 11.9039344,19.2117333 L18.6329456,23.8413778 L16.13641,31.8324444 C16.0260198,32.1853201 16.1560869,32.567733 16.4608111,32.7862222 C16.76617,33.0061778 17.1794044,33.0128889 17.4908222,32.8032444 L24.5938444,28.0693778 L31.4912289,32.7973778 C31.6411131,32.9002128 31.8199,32.9553642 32.0031367,32.9552889 C32.1900967,32.9552889 32.3771022,32.8975111 32.5346789,32.7837333 C32.8429171,32.5600121 32.969478,32.1687393 32.8486933,31.8129333 L30.20597,24.0398667 L37.2941411,19.2142667 C37.6131419,18.9970007 37.7508655,18.6029922 37.6343956,18.2408444 C37.5175715,17.8787804 37.1735346,17.6324746 36.7844656,17.6323556 L28.0782067,17.6323556 Z M28.6415011,22.9850222 C28.31833,23.2056889 28.1817089,23.6061333 28.3056656,23.9711111 L30.3085611,29.8626667 L25.1127222,26.3007556 C24.8092456,26.0919108 24.4045692,26.0895167 24.0985189,26.2947556 L18.5798733,29.9728889 L20.5249589,23.7471556 C20.637174,23.3881059 20.5005898,22.9993323 20.1862078,22.7829333 L15.2260733,19.3704889 L21.72758,19.3704889 C22.1160322,19.3704889 22.4600678,19.1243556 22.5770089,18.7637333 L24.55043,12.6728 L26.5846678,18.7704889 C26.7038445,19.128394 27.0457747,19.3706593 27.4315,19.3704889 L33.9512744,19.3704889 L28.6415011,22.9850222 Z" id="Shape"></path>
        </g>
    </g>
</svg>