<?xml version="1.0" encoding="UTF-8"?>
<svg width="50px" height="50px" viewBox="0 0 50 50" version="1.1" xmlns="http://www.w3.org/2000/svg" xmlns:xlink="http://www.w3.org/1999/xlink">
    <!-- Generator: Sketch 48.2 (47327) - http://www.bohemiancoding.com/sketch -->
    <title>1</title>
    <desc>Created with Sketch.</desc>
    <defs></defs>
    <g id="首页" stroke="none" stroke-width="1" fill="none" fill-rule="evenodd" transform="translate(-160.000000, -809.000000)" opacity="0.699999988">
        <g id="流波动" transform="translate(160.000000, 809.000000)" fill="#0ABBB9" fill-rule="nonzero">
            <path d="M25.48843,2 C14.172981,2 5,10.9493393 5,21.9888914 C5,33.0283539 14.172981,41.9776932 25.48843,41.9776932 C36.8039709,41.9776932 45.9769518,33.0283539 45.9769518,21.9888914 C45.9769518,10.9493393 36.8039709,2 25.48843,2 Z M25.48843,40.2395521 C15.1569351,40.2395521 6.7815028,32.0683987 6.7815028,21.9888914 C6.7815028,11.9092945 15.1569351,3.73823068 25.48843,3.73823068 C35.8200168,3.73823068 44.195449,11.9092945 44.195449,21.9888914 C44.195449,32.0683987 35.8199709,40.2395521 25.48843,40.2395521 Z M37.6076719,19.3816797 C35.0164076,19.3816797 33.7676753,21.4529451 32.6663684,23.2806271 C31.521215,25.1805151 30.7181568,26.3342889 29.2263628,26.3342889 C27.7363135,26.3342889 26.9338063,25.1808287 25.7898925,23.2810302 C24.6885857,21.4533483 23.4407716,19.3816349 20.8506551,19.3816349 C18.2597581,19.3816349 17.0119899,21.4533483 15.9106831,23.2805823 C14.765897,25.1808287 13.9632979,26.3342441 12.4724222,26.3342441 C10.9827402,26.3342441 10.180187,25.1807839 9.03622732,23.2809854 C8.89242889,23.0424188 8.74491153,22.8003135 8.59271109,22.5596417 C8.64160806,23.9525196 8.86029003,25.3017693 9.24173236,26.5863382 C10.0503001,27.4454199 11.0573942,28.0723852 12.4724222,28.0723852 C15.0633191,28.0723852 16.3110873,26.0006719 17.4123942,24.1734378 C18.5571803,22.2731019 19.3596876,21.1196865 20.8506551,21.1196865 C22.3407962,21.1196865 23.1432116,22.2731467 24.2874009,24.1731243 C25.3886159,26.0007167 26.63643,28.07243 29.2263628,28.07243 C31.8181781,28.07243 33.0664513,26.0007167 34.1680336,24.1731243 C35.3133247,22.2731467 36.1163371,21.1196865 37.6077178,21.1196865 C39.0991904,21.1196865 39.9020649,22.2731467 41.047402,24.1731243 C41.3402329,24.6587682 41.6495006,25.1565062 41.9870963,25.6309966 C42.1861736,24.7695857 42.3077044,23.8819709 42.3627536,22.9751848 C41.303411,21.2296529 40.0561937,19.3816797 37.6076719,19.3816797 Z" id="Shape"></path>
        </g>
    </g>
</svg>