<?xml version="1.0" encoding="UTF-8"?>
<svg width="50px" height="50px" viewBox="0 0 50 50" version="1.1" xmlns="http://www.w3.org/2000/svg" xmlns:xlink="http://www.w3.org/1999/xlink">
    <!-- Generator: Sketch 48.2 (47327) - http://www.bohemiancoding.com/sketch -->
    <title>个有用户</title>
    <desc>Created with Sketch.</desc>
    <defs></defs>
    <g id="首页" stroke="none" stroke-width="1" fill="none" fill-rule="evenodd" transform="translate(-540.000000, -1571.000000)">
        <g id="个人-" transform="translate(540.000000, 1571.000000)" fill="#ADADAD" fill-rule="nonzero">
            <path d="M24,43 C14.651808,43 6,42.389536 6,37.96672 C6,34.442944 11.703216,30.474016 18.711024,29.118784 C19.306032,28.97992 19.810704,28.492912 20.000208,27.853792 C20.207328,27.150784 20.002416,26.410384 19.436064,25.824208 C19.416192,25.804336 19.398576,25.784512 19.38312,25.76248 C17.159568,23.558752 15.724944,19.880752 15.724944,16.354816 C15.724992,10.84768 19.127568,7 24,7 C28.872432,7 32.277168,10.84768 32.277168,16.354816 C32.277168,19.935856 30.798432,23.66896 28.508784,25.866064 C27.977712,26.425792 27.779376,27.157408 27.98208,27.851584 C28.169376,28.486288 28.667424,28.971088 29.282256,29.118736 C36.27912,30.460816 42,34.431904 42,37.96672 C42,42.389536 33.348192,43 24,43 Z M20.54016,24.922864 C21.397392,25.866064 21.703728,27.10456 21.36216,28.257136 C21.029376,29.385424 20.125872,30.24928 19.006368,30.509344 C12.16824,31.831504 7.423584,35.498512 7.423584,37.96672 C7.423584,41.578624 19.898832,41.578624 24,41.578624 C28.09896,41.578624 40.576416,41.578624 40.576416,37.96672 C40.576416,35.489728 35.816352,31.818304 28.980432,30.509344 C27.841104,30.233872 26.948592,29.372224 26.620224,28.25272 C26.272032,27.075904 26.602608,25.808752 27.501696,24.863392 C29.548944,22.899904 30.855792,19.56784 30.855792,16.354816 C30.855792,11.682928 28.037184,8.421424 24,8.421424 C19.964976,8.421424 17.144208,11.682928 17.144208,16.354816 C17.144208,19.5568 18.444432,22.877824 20.449776,24.819328 C20.482896,24.852352 20.513712,24.887584 20.54016,24.922864 Z" id="Shape"></path>
        </g>
    </g>
</svg>