<?xml version="1.0" encoding="UTF-8"?>
<svg width="50px" height="50px" viewBox="0 0 50 50" version="1.1" xmlns="http://www.w3.org/2000/svg" xmlns:xlink="http://www.w3.org/1999/xlink">
    <!-- Generator: Sketch 48.2 (47327) - http://www.bohemiancoding.com/sketch -->
    <title>更多</title>
    <desc>Created with Sketch.</desc>
    <defs></defs>
    <g id="首页" stroke="none" stroke-width="1" fill="none" fill-rule="evenodd" transform="translate(-1145.000000, -1565.000000)">
        <g id="更多-2" transform="translate(1145.000000, 1565.000000)" fill="#ADADAD" fill-rule="nonzero">
            <path d="M13.5105643,20.0364857 C11.0417993,20.0364857 9.04045987,22.0377432 9.04045987,24.506362 C9.04045987,26.9750708 11.0417994,28.9762833 13.5105643,28.9762833 C15.9793292,28.9762833 17.9806687,26.9750708 17.9806687,24.506362 C17.9806687,22.0377431 15.9793742,20.0364857 13.5105643,20.0364857 Z M13.5105643,27.6009748 C11.8013882,27.6009748 10.4158697,26.2148391 10.4158697,24.506362 C10.4158697,22.7965372 11.8013433,21.4118392 13.5105643,21.4118392 C15.2197853,21.4118392 16.6052589,22.7965821 16.6052589,24.506362 C16.605214,26.214884 15.2197404,27.6009748 13.5105643,27.6009748 Z M38.2680761,20.0364857 C35.7993561,20.0364857 33.7980166,22.0377432 33.7980166,24.506362 C33.7980166,26.9750708 35.7993561,28.9762833 38.2680761,28.9762833 C40.7368411,28.9762833 42.7381805,26.9750708 42.7381805,24.506362 C42.7381805,22.0377431 40.7368411,20.0364857 38.2680761,20.0364857 Z M38.2680761,27.6009748 C36.5588551,27.6009748 35.1733815,26.2148391 35.1733815,24.506362 C35.1733815,22.7965372 36.5588551,21.4118392 38.2680761,21.4118392 C39.9772522,21.4118392 41.3628156,22.7965821 41.3628156,24.506362 C41.3627707,26.214884 39.9772522,27.6009748 38.2680761,27.6009748 Z M25.8893427,20.0364857 C23.4205777,20.0364857 21.4192382,22.0377432 21.4192382,24.506362 C21.4192382,26.9750708 23.4205777,28.9762833 25.8893427,28.9762833 C28.3581076,28.9762833 30.3594471,26.9750708 30.3594471,24.506362 C30.3594471,22.0377431 28.3581076,20.0364857 25.8893427,20.0364857 Z M25.8893427,27.6009748 C24.1801217,27.6009748 22.7946481,26.2148391 22.7946481,24.506362 C22.7946481,22.7965372 24.1801217,21.4118392 25.8893427,21.4118392 C27.5985187,21.4118392 28.9840373,22.7965821 28.9840373,24.506362 C28.9840373,26.214884 27.5985187,27.6009748 25.8893427,27.6009748 Z" id="Shape"></path>
        </g>
    </g>
</svg>