<?xml version="1.0" encoding="UTF-8"?>
<svg width="50px" height="50px" viewBox="0 0 50 50" version="1.1" xmlns="http://www.w3.org/2000/svg" xmlns:xlink="http://www.w3.org/1999/xlink">
    <!-- Generator: Sketch 48.2 (47327) - http://www.bohemiancoding.com/sketch -->
    <title>酒店</title>
    <desc>Created with Sketch.</desc>
    <defs></defs>
    <g id="首页" stroke="none" stroke-width="1" fill="none" fill-rule="evenodd" transform="translate(-240.000000, -1317.000000)">
        <g id="酒店-17" transform="translate(240.000000, 1317.000000)" fill="#999999" fill-rule="nonzero">
            <path d="M14.4890762,19.7333453 L17.9846816,19.7333453 L17.9846816,21.0110493 L14.4890762,21.0110493 L14.4890762,19.7333453 Z M19.7927534,19.7333453 L23.2883587,19.7333453 L23.2883587,21.0110493 L19.7927534,21.0110493 L19.7927534,19.7333453 Z M14.4890762,15.5627265 L17.9846816,15.5627265 L17.9846816,16.8404305 L14.4890762,16.8404305 L14.4890762,15.5627265 Z M19.7927534,15.5627265 L23.2883587,15.5627265 L23.2883587,16.8404305 L19.7927534,16.8404305 L19.7927534,15.5627265 Z M14.4890762,23.8798565 L17.9846816,23.8798565 L17.9846816,25.1575605 L14.4890762,25.1575605 L14.4890762,23.8798565 Z M19.7927534,23.8798565 L23.2883587,23.8798565 L23.2883587,25.1575605 L19.7927534,25.1575605 L19.7927534,23.8798565 Z" id="Shape"></path>
            <path d="M42.0199821,41.5025291 L42.0199821,24.0245022 C42.0199821,23.3253812 41.4413991,22.7467982 40.742278,22.7467982 L29.7733094,22.7467982 L29.7733094,8.28222422 C29.7733094,7.58310314 29.1947265,7.00452018 28.4956054,7.00452018 L9.2818296,7.00452018 C8.58270852,7.00452018 8.00412556,7.58310314 8.00412556,8.28222422 L8.00412556,41.5025291 L4.02636771,41.5025291 L4.02636771,42.7802332 L45.9977399,42.7802332 L45.9977399,41.5025291 L42.0199821,41.5025291 Z M9.25772197,41.5025291 L9.25772197,9.24652915 C9.25772197,8.74026906 9.66755157,8.30633184 10.1979193,8.30633184 L27.5554081,8.30633184 C28.0616682,8.30633184 28.4956054,8.71616143 28.4956054,9.24652915 L28.4956054,41.5025291 L9.25772197,41.5025291 Z M40.742278,41.5025291 L29.7733094,41.5025291 L29.7733094,24.0245022 L39.464574,24.0245022 C40.1636951,24.0245022 40.742278,24.6030852 40.742278,25.3022063 L40.742278,41.5025291 Z" id="Shape"></path>
        </g>
    </g>
</svg>