<?xml version="1.0" encoding="UTF-8"?>
<svg width="50px" height="50px" viewBox="0 0 50 50" version="1.1" xmlns="http://www.w3.org/2000/svg" xmlns:xlink="http://www.w3.org/1999/xlink">
    <!-- Generator: Sketch 48.2 (47327) - http://www.bohemiancoding.com/sketch -->
    <title>景区</title>
    <desc>Created with Sketch.</desc>
    <defs></defs>
    <g id="首页" stroke="none" stroke-width="1" fill="none" fill-rule="evenodd" transform="translate(-540.000000, -1317.000000)">
        <g id="景点-8" transform="translate(540.000000, 1317.000000)" fill="#999999" fill-rule="nonzero">
            <path d="M40.0589286,28.2446429 L31.4598684,12.1433315 C31.2010338,11.6626953 30.7121241,11.3641183 30.1800752,11.3641183 C29.6480263,11.3641183 29.1519267,11.6626953 28.900282,12.1433315 L26.0531015,17.4885882 L23.2850094,12.4419085 C22.9542763,11.8374721 22.3503289,11.4806362 21.6672932,11.4806362 C20.9842575,11.4806362 20.3803102,11.8374721 20.0495771,12.4419085 L7.46015038,35.4469029 C7.14379699,36.0294922 7.15098684,36.7140346 7.48171992,37.2893415 C7.81964286,37.8646484 8.40921053,38.2069196 9.07786654,38.2069196 L34.2782895,38.2069196 C34.9397556,38.2069196 35.5365132,37.8646484 35.8744361,37.2820592 C36.2051692,36.7067522 36.2195489,36.0222098 35.8960056,35.4396205 L33.1638628,30.4511998 L38.7791353,30.4511998 C39.2968045,30.4511998 39.7641447,30.1817522 40.0301692,29.7302455 C40.3033835,29.2714565 40.3105733,28.7179967 40.0589286,28.2446429 Z M34.7959586,36.065904 C34.9397556,36.3280692 34.8390977,36.5611049 34.7887688,36.6484933 C34.7384398,36.7358817 34.587453,36.9397879 34.2782895,36.9397879 L9.07786654,36.9397879 C8.76870301,36.9397879 8.61771617,36.7358817 8.56738722,36.6484933 C8.51705827,36.5611049 8.41640038,36.3353516 8.56019737,36.065904 L21.1496241,13.068192 C21.3006109,12.7914621 21.5594455,12.7623326 21.6672932,12.7623326 C21.775141,12.7623326 22.0339756,12.7914621 22.1849624,13.068192 L27.3832237,22.557115 L31.718703,30.4657645 L34.7959586,36.065904 Z M38.9516917,29.082115 C38.9229323,29.1258092 38.8726034,29.1840681 38.7791353,29.1840681 L32.4592575,29.1840681 L32.3945489,29.0602679 L26.7720865,18.8139788 L30.0075188,12.7477679 C30.1009868,12.5657087 30.2591635,12.5657087 30.3598214,12.7477679 L38.9588816,28.8490792 C39.0092105,28.9583147 38.9732613,29.0529855 38.9516917,29.082115 Z" id="Shape"></path>
        </g>
    </g>
</svg>