<?xml version="1.0" encoding="UTF-8"?>
<svg width="50px" height="50px" viewBox="0 0 50 50" version="1.1" xmlns="http://www.w3.org/2000/svg" xmlns:xlink="http://www.w3.org/1999/xlink">
    <!-- Generator: Sketch 48.2 (47327) - http://www.bohemiancoding.com/sketch -->
    <title>企业</title>
    <desc>Created with Sketch.</desc>
    <defs></defs>
    <g id="首页" stroke="none" stroke-width="1" fill="none" fill-rule="evenodd" transform="translate(-240.000000, -1571.000000)">
        <g id="企业-2" transform="translate(240.000000, 1571.000000)" fill="#999999" fill-rule="nonzero">
            <path d="M15.5045204,34.7522718 C15.2069921,34.7522718 14.9657784,34.511058 14.9657784,34.2135298 L14.9657784,18.3966643 C14.9657784,18.0991361 15.2069921,17.8579223 15.5045204,17.8579223 C15.8020487,17.8579223 16.0432625,18.0991361 16.0432625,18.3966643 L16.0432625,34.2135298 C16.0432625,34.511058 15.8020487,34.7522718 15.5045204,34.7522718 Z" id="Shape"></path>
            <path d="M21.6728351,34.7522718 C21.3753068,34.7522718 21.1340931,34.511058 21.1340931,34.2135298 L21.1340931,20.8238192 C21.1340931,20.5262909 21.3753068,20.2850772 21.6728351,20.2850772 C21.9703634,20.2850772 22.2115772,20.5262909 22.2115772,20.8238192 L22.2115772,34.2135298 C22.2125157,34.511058 21.971302,34.7522718 21.6728351,34.7522718 Z" id="Shape"></path>
            <path d="M27.6543734,34.7522718 C27.3568451,34.7522718 27.1156314,34.511058 27.1156314,34.2135298 L27.1156314,22.1781829 C27.1156314,21.8806546 27.3568451,21.6394409 27.6543734,21.6394409 C27.9519017,21.6394409 28.1931155,21.8806546 28.1931155,22.1781829 L28.1931155,34.2125912 C28.1931155,34.511058 27.9519017,34.7522718 27.6543734,34.7522718 Z" id="Shape"></path>
            <path d="M33.0708896,34.7522718 C32.7733613,34.7522718 32.5321476,34.511058 32.5321476,34.2135298 L32.5321476,18.3966643 C32.5321476,18.0991361 32.7733613,17.8579223 33.0708896,17.8579223 C33.3684179,17.8579223 33.6096316,18.0991361 33.6096316,18.3966643 L33.6096316,34.2135298 C33.6096316,34.511058 33.3684179,34.7522718 33.0708896,34.7522718 Z" id="Shape"></path>
            <path d="M42.8865067,44.9921248 L5.40826941,44.9921248 C4.94273624,44.9921248 4.56355194,44.6129405 4.56355194,44.1474073 L4.56355194,38.6454808 C4.56355194,38.1799477 4.94273624,37.8007634 5.40826941,37.8007634 L42.8855681,37.8007634 C43.3511012,37.8007634 43.7302855,38.1799477 43.7302855,38.6454808 L43.7302855,44.1474073 C43.7312242,44.6129405 43.3520399,44.9921248 42.8865067,44.9921248 Z M5.64197459,43.9137021 L42.6528015,43.9137021 L42.6528015,38.879186 L5.64197459,38.879186 L5.64197459,43.9137021 Z" id="Shape"></path>
            <path d="M11.8168593,26.1962223 C11.8168593,26.4890577 11.5775227,26.7283943 11.2846873,26.7283943 L4.3364168,26.7283944 C4.04358141,26.7283944 3.94409246,26.5341094 4.11491312,26.2966499 L4.86201879,25.2576474 C5.03283946,25.0201879 5.30596477,24.626925 5.46833824,24.3838341 C5.46833824,24.3838341 12.4194245,13.9966249 14.960147,10.474153 C15.7081912,9.4370277 16.5463387,9.03344042 17.6885844,9.03344042 C20.9745354,9.03344042 27.5454988,9.03344042 30.8305112,9.03344042 C31.948354,9.03344042 32.8400002,9.54402522 33.5589487,10.593352 C35.6153664,13.5977305 40.7352929,21.0753573 43.2140694,24.6963796 C44.0634798,25.9362371 44.3018778,26.2844485 44.3018778,26.2844485 C44.467067,26.5256622 44.3628852,26.7237015 44.0700498,26.7237015 L43.7528114,26.7237015 C43.459976,26.7237015 42.9813028,26.7237015 42.6884674,26.7237015 L37.093622,26.7237015 C36.8007866,26.7237015 36.56145,26.4843649 36.56145,26.1915295 L36.56145,26.1774509 C36.56145,25.8846155 36.8007866,25.6452789 37.093622,25.6452789 L42.0145706,25.6452789 C42.3074059,25.6452789 42.4115878,25.4472396 42.2463986,25.2060258 C42.2463986,25.2060258 35.1395089,14.8122466 32.6691796,11.2024872 C32.1529634,10.4488115 31.586064,10.1118631 30.8305112,10.1118631 C27.5445602,10.1118631 20.9735968,10.1118631 17.6885844,10.1118631 C16.8889185,10.1118631 16.3670709,10.3671555 15.8339603,11.1048754 C13.2575719,14.6733374 6.20418098,25.2079029 6.20418098,25.2079029 C6.04180751,25.4509938 6.14786646,25.6499717 6.43976332,25.6499717 L11.2846873,25.6499717 C11.5775227,25.6499717 11.8168593,25.8893083 11.8168593,26.1821437 L11.8168593,26.1962223 Z" id="Shape"></path>
        </g>
    </g>
</svg>