<?xml version="1.0" encoding="UTF-8"?>
<svg width="50px" height="50px" viewBox="0 0 50 50" version="1.1" xmlns="http://www.w3.org/2000/svg" xmlns:xlink="http://www.w3.org/1999/xlink">
    <!-- Generator: Sketch 48.2 (47327) - http://www.bohemiancoding.com/sketch -->
    <title>航空公司</title>
    <desc>Created with Sketch.</desc>
    <defs></defs>
    <g id="首页" stroke="none" stroke-width="1" fill="none" fill-rule="evenodd" transform="translate(-1145.000000, -1317.000000)">
        <g id="飞机-19" transform="translate(1145.000000, 1317.000000)" fill="#ADADAD" fill-rule="nonzero">
            <path d="M32.677084,40 C30.9152304,40 30.5603246,38.8990074 30.5603246,38.8990074 L24.1170948,26.6699752 L19.2836161,31.4578164 L19.2836161,37.3086849 L16.0598887,39.9662531 L14.4501375,31.9851117 L6.39293139,28.7960298 L9.08007511,26.1384615 L14.4501375,26.1384615 L18.7470324,21.8863524 L6.92951512,14.9682382 C6.92951512,14.9682382 5.30708873,14.116129 6.39293139,12.31067 C6.70558648,11.7875931 7.53369995,11.6568238 8.27308698,11.6568238 C8.9871236,11.6568238 9.61665884,11.7791563 9.61665884,11.7791563 L25.1944873,14.9682382 L32.7151097,7.52282878 C32.7151097,7.52282878 33.9446047,6 35.8543357,6 C36.8092013,6 37.9330695,6.37965261 39.1583395,7.52282878 C42.6566964,10.7878412 39.1583395,13.3736973 39.1583395,13.3736973 L31.6377171,21.3506203 L34.8614446,37.8359801 C34.8614446,37.8359801 34.9459459,39.7637717 33.2516934,39.9620347 C33.044665,39.9873449 32.8545369,40 32.677084,40 Z M32.677084,38.3548387 C32.7911609,38.3548387 32.917913,38.346402 33.0531151,38.3295285 C33.0826906,38.3253102 33.103816,38.3210918 33.1122661,38.3210918 C33.1122661,38.3210918 33.1122661,38.3210918 33.1122661,38.3210918 C33.1545168,38.2578164 33.1967675,38.101737 33.2094427,37.9794045 L30.0195158,21.6627792 C29.9181141,21.1439206 30.0744417,20.6081886 30.4377976,20.2200993 L37.95842,12.2431762 C38.0260211,12.171464 38.0978472,12.1039702 38.1781235,12.0491315 C38.1865737,12.0449132 39.0146871,11.3657568 39.0611629,10.5600496 C39.0949634,10.0074442 38.7442827,9.39156328 38.0302461,8.72506203 C37.2612836,8.00794045 36.5261217,7.64094293 35.8501107,7.64094293 C34.7811683,7.64094293 33.9910804,8.55210918 33.9910804,8.55210918 C33.9530548,8.59851117 33.9108041,8.64491315 33.8685534,8.68709677 L26.3479311,16.1325062 C26.035276,16.4404467 25.6169942,16.6091811 25.1860372,16.6091811 C25.0761854,16.6091811 24.9663336,16.5965261 24.8564818,16.5754342 L9.29977869,13.3905707 C9.29555362,13.3905707 8.80122058,13.2977667 8.26041178,13.2977667 C7.98155724,13.2977667 7.79987928,13.3230769 7.69425257,13.3441687 C7.66467708,13.4158809 7.65622695,13.4538462 7.65200188,13.4538462 C7.66467708,13.4707196 7.6900275,13.5002481 7.71537791,13.5171216 C7.72805312,13.52134 7.70692777,13.5129032 7.74917846,13.5424318 L19.5666957,20.4563275 C20.0103279,20.7136476 20.3060828,21.160794 20.3694588,21.6712159 C20.4328348,22.1774194 20.259607,22.6836228 19.8962511,23.046402 L15.6078063,27.3069479 C15.2993763,27.61067 14.8810945,27.7836228 14.4501375,27.7836228 L9.75608611,27.7836228 L9.34202937,28.192804 L15.0585474,30.4580645 C15.5782308,30.6647643 15.958487,31.116129 16.0683388,31.6645161 L17.1330561,36.9501241 L17.6358393,36.5325062 L17.6358393,31.4578164 C17.6358393,31.0191067 17.8132922,30.5972705 18.1217222,30.28933 L22.9552009,25.5014888 C23.2636309,25.1935484 23.6819127,25.0248139 24.1128697,25.0248139 C24.1973711,25.0248139 24.2776474,25.0290323 24.3663738,25.0416873 C24.8818322,25.1218362 25.3296895,25.4424318 25.5747435,25.9022333 L32.0179733,38.1354839 C32.0348736,38.1692308 32.0517739,38.1987593 32.0644491,38.2325062 C32.1278251,38.2746898 32.3095031,38.3548387 32.677084,38.3548387 Z" id="Shape"></path>
        </g>
    </g>
</svg>