<?xml version="1.0" encoding="UTF-8"?>
<svg width="50px" height="50px" viewBox="0 0 50 50" version="1.1" xmlns="http://www.w3.org/2000/svg" xmlns:xlink="http://www.w3.org/1999/xlink">
    <!-- Generator: Sketch 48.2 (47327) - http://www.bohemiancoding.com/sketch -->
    <title>政府合作</title>
    <desc>Created with Sketch.</desc>
    <defs></defs>
    <g id="首页" stroke="none" stroke-width="1" fill="none" fill-rule="evenodd" transform="translate(-845.000000, -1571.000000)">
        <g id="政府机构" transform="translate(845.000000, 1571.000000)" fill="#787878" fill-rule="nonzero">
            <path d="M46.7164016,37.3818659 L44.5897142,37.3818659 L42.5189922,32.8486637 L44.086025,32.8486637 C44.2539214,32.8486637 44.3658523,32.7367328 44.3658523,32.5688364 C44.3658524,32.4009401 44.2539214,32.2890092 44.086025,32.2890091 L41.9033721,32.2890091 L41.9033721,13.8763732 L44.4218178,13.8763732 C44.5897142,13.8763732 44.7016451,13.7644423 44.7016451,13.5965459 C44.7016451,13.4286495 44.5337487,13.3167186 44.3658523,13.3167186 L39.1050992,13.3167186 L39.1050992,8.55965459 C39.2170301,8.55965459 39.3289611,8.44772368 39.328961,8.27982728 C39.328961,8.11193088 39.2170301,8 39.0491337,8 L9.44340602,8 C9.27550965,8 9.16357874,8.11193091 9.16357874,8.27982728 C9.16357874,8.39175819 9.27550965,8.50368912 9.38744056,8.55965459 L9.38744056,13.3167186 L4.57441111,13.3167186 C4.40651474,13.3167186 4.29458383,13.4286495 4.2945838,13.5965459 C4.29458377,13.7644423 4.40651471,13.8763732 4.57441111,13.8763732 L6.58916763,13.8763732 L6.58916763,32.2890091 L4.23861836,32.2890091 C4.07072199,32.2890091 3.95879108,32.40094 3.95879105,32.5688364 C3.95879102,32.7367328 4.07072196,32.8486637 4.23861836,32.8486637 L5.52582392,32.8486637 L3.45510193,37.3818659 L2.27982728,37.3818659 C2.11193091,37.3818659 2,37.4937968 2,37.6616932 C2,37.8295896 2.11193091,37.9415205 2.27982728,37.9415205 L46.7164016,37.9415205 C46.884298,37.9415205 46.9962289,37.8295896 46.9962289,37.6616932 C46.9962289,37.4937968 46.8283325,37.3818659 46.7164016,37.3818659 Z M9.94709515,8.55965459 L38.5454446,8.55965459 L38.5454446,13.3167186 L9.94709515,13.3167186 L9.94709515,8.55965459 Z M7.20478766,13.8763732 L41.3437175,13.8763732 L41.3437175,32.2890091 L33.1167951,32.2890091 L33.1167951,19.8646773 C33.1167951,19.6967809 33.0048642,19.58485 32.8369678,19.58485 C32.6690714,19.5848499 32.5571405,19.6967809 32.5571405,19.8646773 L32.5571405,32.2890091 L24.7779417,32.2890091 L24.7779417,19.8646773 C24.7779417,19.6967809 24.6660108,19.58485 24.4981144,19.58485 C24.3302181,19.5848499 24.2182872,19.6967809 24.2182872,19.8646773 L24.2182872,32.2890091 L16.4390884,32.2890091 L16.4390884,19.6408154 C16.4390884,19.4729191 16.3271575,19.3609882 16.1592611,19.3609881 C15.9913647,19.3609881 15.8794338,19.472919 15.8794338,19.6408154 L15.8794338,32.2890091 L7.20478766,32.2890091 L7.20478766,13.8763732 Z M6.14144395,32.8486637 L41.8474067,32.8486637 L43.9181287,37.3818659 L4.12668743,37.3818659 L6.14144395,32.8486637 Z" id="Shape"></path>
        </g>
    </g>
</svg>