<?xml version="1.0" encoding="UTF-8"?>
<svg width="50px" height="50px" viewBox="0 0 50 50" version="1.1" xmlns="http://www.w3.org/2000/svg" xmlns:xlink="http://www.w3.org/1999/xlink">
    <!-- Generator: Sketch 48.2 (47327) - http://www.bohemiancoding.com/sketch -->
    <title>旅行社</title>
    <desc>Created with Sketch.</desc>
    <defs></defs>
    <g id="首页" stroke="none" stroke-width="1" fill="none" fill-rule="evenodd" transform="translate(-842.000000, -1317.000000)">
        <g id="旗子-3" transform="translate(842.000000, 1317.000000)" fill="#999999" fill-rule="nonzero">
            <path d="M41.9699526,16.0150158 C41.9699526,15.6143946 41.6454584,15.2889581 41.2443018,15.2889581 L33.9848523,15.2889581 C33.182689,15.2889581 32.5331294,14.6384349 32.5331294,13.8372138 C32.5331294,12.233287 31.2331894,10.9333683 29.6296409,10.9333683 L13.6593972,10.9333683 L13.6578982,8.7483355 C13.6534012,8.351476 13.3320834,8.02978696 12.9333537,8.02978696 C12.534981,8.02978696 12.2133062,8.351476 12.2089877,8.7483355 L12.207453,38.5183229 L10.755723,38.5183229 C10.3543523,38.5183229 10.0296796,38.8438165 10.0296796,39.244402 C10.0296796,39.645059 10.3541739,39.9701243 10.755723,39.9701243 L15.1111201,39.9701243 C15.5124908,39.9701243 15.8371992,39.645059 15.8371992,39.244402 C15.8371992,38.8438165 15.5124908,38.5183229 15.1111201,38.5183229 L13.6593972,38.5183229 L13.6593972,31.9850595 L29.6296337,31.9850595 C30.4310189,31.9850595 31.0813637,32.6346191 31.0813637,33.4369965 C31.1025993,35.0217721 32.3953585,36.3408777 33.9852091,36.3408777 L41.2443017,36.3408777 C41.6456368,36.3408777 41.9701596,36.0155982 41.9701596,35.6147986 L41.9701596,16.0150158 L41.9699526,16.0150158 Z M29.6281347,30.5259845 L13.6578982,30.5259845 L13.6578982,12.378153 L29.6281347,12.378153 C30.4293415,12.378153 31.0798575,13.028298 31.0798575,13.8302685 L31.0798575,30.9288471 C30.6508699,30.6793091 30.1602739,30.5259845 29.6281347,30.5259845 Z M32.5318017,33.4295088 L32.5318017,16.3306946 C32.9600114,16.5805966 33.4523205,16.7335501 33.983703,16.7335501 L40.5169021,16.7335501 L40.5169021,34.8815886 L33.983703,34.8815886 C33.182325,34.8815886 32.5318017,34.2311082 32.5318017,33.4295088 Z" id="Shape"></path>
        </g>
    </g>
</svg>