<?xml version="1.0" encoding="UTF-8"?>
<svg width="658px" height="89px" viewBox="0 0 658 89" version="1.1" xmlns="http://www.w3.org/2000/svg" xmlns:xlink="http://www.w3.org/1999/xlink">
    <!-- Generator: Sketch 48.2 (47327) - http://www.bohemiancoding.com/sketch -->
    <title>平台资源</title>
    <desc>Created with Sketch.</desc>
    <defs></defs>
    <g id="首页" stroke="none" stroke-width="1" fill="none" fill-rule="evenodd" transform="translate(-122.000000, -1036.000000)">
        <g id="Group-25-Copy" transform="translate(121.000000, 1033.000000)" fill="#333333">
            <path d="M4.92,70.66 L16.16,70.66 L15.9,73.38 L18.64,73.38 L18.64,74.04 L15.84,74.04 L15.58,76.78 L3.94,76.78 L4.38,74.04 L1.42,74.04 L1.42,73.38 L4.48,73.38 L4.92,70.66 Z M4.68,76.18 L9.36,76.18 L9.68,74 L5.04,74 L4.68,76.18 Z M5.14,73.4 L9.76,73.4 L10.08,71.28 L5.5,71.28 L5.14,73.4 Z M10.72,71.28 L10.4,73.4 L15.26,73.4 L15.48,71.28 L10.72,71.28 Z M15.2,74 L10.32,74 L10,76.18 L14.98,76.18 L15.2,74 Z M16.08,78.72 L16.08,84.68 L15.38,84.68 L15.38,79.36 L4.76,79.36 L4.76,84.76 L4.08,84.76 L4.08,78.72 L16.08,78.72 Z M10.8,84.44 C13.58,85.26 16.12,86.24 18.4,87.4 L18.02,88 C15.56,86.72 13.02,85.72 10.42,85 L10.8,84.44 Z M10.06,80.76 L10.72,80.82 C10.44,82.78 9.64,84.36 8.28,85.56 C7.08,86.62 4.98,87.46 1.94,88.06 L1.66,87.42 C4.5,86.88 6.52,86.1 7.76,85.08 C9,84.04 9.78,82.6 10.06,80.76 Z M22.82,77.48 L37.24,77.48 L37.24,78.14 L33.96,78.14 L33.96,81.42 L38.38,81.42 L38.38,82.04 L33.96,82.04 L33.96,86.52 C33.96,87.4 33.54,87.84 32.7,87.84 L29.64,87.84 L29.5,87.18 C30.54,87.22 31.52,87.24 32.46,87.24 C33,87.24 33.28,86.94 33.28,86.36 L33.28,82.04 L32.38,82.04 C30.4,84.38 26.94,86.3 21.98,87.8 L21.6,87.2 C26.3,85.88 29.64,84.16 31.6,82.04 L22.78,82.04 C23.26,80.86 23.62,79.8 23.86,78.88 L24.56,78.94 C24.26,79.9 23.96,80.72 23.68,81.42 L33.28,81.42 L33.28,78.14 L22.82,78.14 L22.82,77.48 Z M29.78,69.54 C30.1,70.12 30.4,70.78 30.68,71.5 L38.18,71.5 L38.18,74.14 L37.5,74.14 L37.5,72.14 L22.48,72.14 L22.48,74.24 L21.8,74.24 L21.8,71.5 L30,71.5 C29.72,70.82 29.4,70.2 29.08,69.66 L29.78,69.54 Z M31.36,73.22 C33.54,73.94 35.54,74.82 37.34,75.86 L36.98,76.42 C35.06,75.28 33.06,74.38 31.02,73.72 L31.36,73.22 Z M28.4,73.22 L28.82,73.68 C27.28,74.82 25.28,75.78 22.82,76.54 L22.52,75.94 C24.88,75.26 26.84,74.34 28.4,73.22 Z M50.8,72.94 C50.14,74.24 49.4,75.3 48.58,76.14 L48.06,75.7 C49.5,74.22 50.6,72.22 51.36,69.66 L52,69.92 C51.72,70.78 51.42,71.56 51.12,72.28 L58.42,72.28 L58.42,72.94 L50.8,72.94 Z M58.26,78.76 L58.7,79.26 C57.8,80.26 56.66,81.08 55.3,81.72 C56.18,83.94 57.44,85.78 59.1,87.26 L58.68,87.8 C55.72,85.24 53.96,81.48 53.44,76.54 C52.6,76.7 51.76,76.86 50.92,76.98 L50.92,86.78 C52.22,86.48 53.5,86.12 54.76,85.68 L54.88,86.36 C53.54,86.78 51.96,87.2 50.12,87.64 L49.98,87 C50.16,86.94 50.26,86.84 50.26,86.68 L50.26,76.44 C52.7,76.16 55.04,75.6 57.24,74.72 L57.62,75.3 C56.5,75.74 55.3,76.1 54.06,76.4 C54.22,78.12 54.56,79.7 55.06,81.12 C56.34,80.5 57.4,79.72 58.26,78.76 Z M41.3,72.88 L48.44,72.88 L48.44,73.54 L43.9,73.54 L43.9,76.84 L47.9,76.84 C47.9,81.8 47.78,84.84 47.56,85.96 C47.36,87.16 46.52,87.76 45.08,87.76 C44.92,87.76 44.64,87.74 44.26,87.72 L44.08,87.1 C44.42,87.12 44.72,87.14 44.96,87.14 C46.04,87.14 46.68,86.72 46.88,85.92 C47.12,84.92 47.24,82.1 47.24,77.5 L43.88,77.5 C43.76,82.18 42.92,85.64 41.4,87.88 L40.9,87.42 C42.42,85.18 43.2,81.56 43.24,76.58 L43.24,73.54 L41.3,73.54 L41.3,72.88 Z M44.26,69.64 C44.76,70.56 45.16,71.4 45.46,72.16 L44.82,72.38 C44.5,71.5 44.08,70.66 43.6,69.82 L44.26,69.64 Z M73.36,73.5 C72.84,74.88 72.18,76.04 71.4,77 L70.98,76.5 C72.32,74.78 73.22,72.46 73.7,69.54 L74.38,69.66 C74.18,70.82 73.92,71.86 73.6,72.82 L79.06,72.82 L79.06,73.5 L73.36,73.5 Z M61.74,70.32 C62.86,71.14 63.78,71.96 64.54,72.76 L64.04,73.26 C63.34,72.46 62.42,71.64 61.26,70.78 L61.74,70.32 Z M61.66,75.3 C62.82,76.18 63.78,77.08 64.54,78 L64.06,78.48 C63.34,77.6 62.38,76.7 61.18,75.76 L61.66,75.3 Z M63.76,80.6 L64.36,80.84 C63.56,83.26 62.66,85.52 61.68,87.64 L61.04,87.38 C62.1,85.18 63,82.92 63.76,80.6 Z M66.92,73.82 L65.08,73.82 L65.08,73.16 L68.24,73.16 C67.94,71.9 67.6,70.76 67.24,69.74 L67.92,69.62 C68.28,70.64 68.6,71.82 68.9,73.16 L71.4,73.16 L71.4,73.82 L67.58,73.82 L67.58,75.54 C67.58,76.18 67.56,76.82 67.52,77.44 L70.94,77.44 C70.94,81.76 70.84,84.44 70.64,85.48 C70.52,86.84 69.98,87.54 68.98,87.54 C68.7,87.54 68.2,87.52 67.5,87.52 L67.34,86.9 C67.96,86.9 68.5,86.92 68.96,86.92 C69.56,86.92 69.9,86.4 70,85.38 C70.16,84.5 70.24,82.08 70.26,78.12 L67.48,78.12 C67.2,82.44 66.3,85.7 64.78,87.88 L64.28,87.42 C66,84.94 66.88,80.98 66.92,75.54 L66.92,73.82 Z M73.2,76.34 L78.34,76.34 L78.34,76.96 C77.66,77.88 76.9,78.76 76.08,79.6 L76.08,81.32 L79.12,81.32 L79.12,81.96 L76.08,81.96 L76.08,86.24 C76.08,87.16 75.64,87.62 74.76,87.62 L73.12,87.62 L72.96,86.96 C73.44,86.96 73.96,86.98 74.52,86.98 C75.1,86.98 75.4,86.64 75.4,86 L75.4,81.96 L72,81.96 L72,81.32 L75.4,81.32 L75.4,79.46 C76.44,78.36 77.16,77.52 77.56,76.96 L73.2,76.96 L73.2,76.34 Z M88.64,71.32 L97.94,71.32 L97.94,71.98 L88.64,71.98 L88.64,71.32 Z M88.02,76.52 L98.86,76.52 L98.86,77.2 L95.44,77.2 L95.44,86.36 C95.44,87.32 94.88,87.82 93.8,87.82 L90.82,87.82 L90.68,87.16 C91.68,87.18 92.64,87.2 93.56,87.2 C94.34,87.2 94.74,86.86 94.74,86.2 L94.74,77.2 L88.02,77.2 L88.02,76.52 Z M85.88,70 L86.5,70.28 C85.32,72.56 83.54,74.5 81.18,76.1 L80.96,75.42 C83.26,73.8 84.9,72 85.88,70 Z M86.84,74.52 L87.46,74.82 C86.8,76.06 85.98,77.22 85.02,78.3 L85.02,87.92 L84.36,87.92 L84.36,79 C83.42,79.92 82.38,80.78 81.24,81.56 L81.04,80.86 C83.76,78.98 85.68,76.86 86.84,74.52 Z M107.5,70.04 L108.16,70.04 L108.16,86.2 L111.8,86.2 L111.8,70.04 L112.46,70.04 L112.46,86.2 L118.76,86.2 L118.76,86.88 L101.24,86.88 L101.24,86.2 L107.5,86.2 L107.5,70.04 Z M117.42,73.52 L118.04,73.7 C117.22,77.24 116.16,80.34 114.86,83.02 L114.24,82.78 C115.46,80.36 116.52,77.28 117.42,73.52 Z M102.48,73.48 C103.56,76.24 104.52,79.42 105.38,83 L104.74,83.16 C103.98,79.88 103.04,76.72 101.88,73.68 L102.48,73.48 Z M128.7,69.74 L129.42,69.74 L129.42,76.22 L136.82,76.22 L136.82,76.88 L129.42,76.88 L129.42,86.28 L138.82,86.28 L138.82,86.96 L121.22,86.96 L121.22,86.28 L128.7,86.28 L128.7,69.74 Z M141.2,71.06 L158.78,71.06 L158.78,71.74 L149.8,71.74 L149.8,75.4 C152.36,76.76 154.94,78.34 157.58,80.14 L157.18,80.74 C154.3,78.74 151.84,77.18 149.8,76.1 L149.8,87.98 L149.14,87.98 L149.14,71.74 L141.2,71.74 L141.2,71.06 Z M173.36,73.5 C172.84,74.88 172.18,76.04 171.4,77 L170.98,76.5 C172.32,74.78 173.22,72.46 173.7,69.54 L174.38,69.66 C174.18,70.82 173.92,71.86 173.6,72.82 L179.06,72.82 L179.06,73.5 L173.36,73.5 Z M161.74,70.32 C162.86,71.14 163.78,71.96 164.54,72.76 L164.04,73.26 C163.34,72.46 162.42,71.64 161.26,70.78 L161.74,70.32 Z M161.66,75.3 C162.82,76.18 163.78,77.08 164.54,78 L164.06,78.48 C163.34,77.6 162.38,76.7 161.18,75.76 L161.66,75.3 Z M163.76,80.6 L164.36,80.84 C163.56,83.26 162.66,85.52 161.68,87.64 L161.04,87.38 C162.1,85.18 163,82.92 163.76,80.6 Z M166.92,73.82 L165.08,73.82 L165.08,73.16 L168.24,73.16 C167.94,71.9 167.6,70.76 167.24,69.74 L167.92,69.62 C168.28,70.64 168.6,71.82 168.9,73.16 L171.4,73.16 L171.4,73.82 L167.58,73.82 L167.58,75.54 C167.58,76.18 167.56,76.82 167.52,77.44 L170.94,77.44 C170.94,81.76 170.84,84.44 170.64,85.48 C170.52,86.84 169.98,87.54 168.98,87.54 C168.7,87.54 168.2,87.52 167.5,87.52 L167.34,86.9 C167.96,86.9 168.5,86.92 168.96,86.92 C169.56,86.92 169.9,86.4 170,85.38 C170.16,84.5 170.24,82.08 170.26,78.12 L167.48,78.12 C167.2,82.44 166.3,85.7 164.78,87.88 L164.28,87.42 C166,84.94 166.88,80.98 166.92,75.54 L166.92,73.82 Z M173.2,76.34 L178.34,76.34 L178.34,76.96 C177.66,77.88 176.9,78.76 176.08,79.6 L176.08,81.32 L179.12,81.32 L179.12,81.96 L176.08,81.96 L176.08,86.24 C176.08,87.16 175.64,87.62 174.76,87.62 L173.12,87.62 L172.96,86.96 C173.44,86.96 173.96,86.98 174.52,86.98 C175.1,86.98 175.4,86.64 175.4,86 L175.4,81.96 L172,81.96 L172,81.32 L175.4,81.32 L175.4,79.46 C176.44,78.36 177.16,77.52 177.56,76.96 L173.2,76.96 L173.2,76.34 Z M180,78.44 L200,78.44 L200,79.16 L180,79.16 L180,78.44 Z M206.32,70.84 L218.92,70.84 L218.92,71.52 L214.6,71.52 L214.6,74.6 L218.22,74.6 L218.22,87.84 L217.58,87.84 L217.58,86.7 L207.66,86.7 L207.66,87.9 L207,87.9 L207,74.6 L210.48,74.6 L210.48,71.52 L206.32,71.52 L206.32,70.84 Z M207.66,86.06 L217.58,86.06 L217.58,83.38 L207.66,83.38 L207.66,86.06 Z M210.52,75.24 L207.66,75.24 L207.66,82.74 L217.58,82.74 L217.58,80.4 L215.24,80.4 C214.36,80.4 213.94,79.96 213.94,79.1 L213.94,75.24 L211.14,75.24 L211.14,76.74 C211.1,78.74 210.32,80.18 208.8,81.1 L208.32,80.7 C209.76,79.86 210.48,78.54 210.52,76.74 L210.52,75.24 Z M211.16,74.6 L213.92,74.6 L213.92,71.52 L211.16,71.52 L211.16,74.6 Z M217.58,79.78 L217.58,75.24 L214.58,75.24 L214.58,79.04 C214.58,79.52 214.82,79.78 215.32,79.78 L217.58,79.78 Z M202,70.2 C203.4,71.2 204.58,72.2 205.54,73.2 L205.06,73.66 C204.16,72.7 202.98,71.72 201.5,70.68 L202,70.2 Z M201.48,75 C202.9,76 204.08,77.02 205.04,78.02 L204.54,78.48 C203.66,77.52 202.48,76.52 201,75.48 L201.48,75 Z M204.52,80.08 L205.12,80.32 C204.16,82.94 203.06,85.38 201.86,87.66 L201.2,87.4 C202.48,85 203.6,82.56 204.52,80.08 Z M230.86,73.84 L231.52,73.84 L231.52,76.58 L238.52,76.58 L238.52,77.26 L231.52,77.26 L231.52,80.8 L236.84,80.8 L236.84,87.88 L236.16,87.88 L236.16,86.7 L226.82,86.7 L226.82,87.88 L226.14,87.88 L226.14,80.8 L230.86,80.8 L230.86,73.84 Z M226.82,86.02 L236.16,86.02 L236.16,81.46 L226.82,81.46 L226.82,86.02 Z M230.24,69.66 C230.64,70.34 231,71.1 231.34,71.98 L238.8,71.98 L238.8,72.66 L223.72,72.66 L223.72,77.4 C223.64,81.72 222.9,85.2 221.5,87.8 L221,87.34 C222.3,84.96 222.98,81.64 223.02,77.4 L223.02,71.98 L230.64,71.98 C230.32,71.16 229.96,70.42 229.54,69.78 L230.24,69.66 Z M243.42,83.48 C244.06,83.92 244.76,84.56 245.56,85.38 C246.24,86.1 246.78,86.74 247.18,87.3 L246.64,87.78 C246.22,87.18 245.68,86.54 245.04,85.86 C244.26,85.02 243.56,84.4 242.94,83.96 L243.42,83.48 Z M263.98,79.36 L276.12,79.36 L276.12,83.02 L270.54,83.02 L270.54,86.6 C270.54,87.42 270.14,87.84 269.34,87.84 L267.04,87.84 L266.9,87.18 C267.66,87.22 268.4,87.24 269.1,87.24 C269.6,87.24 269.86,86.96 269.86,86.42 L269.86,83.02 L263.98,83.02 L263.98,79.36 Z M275.44,82.42 L275.44,79.96 L264.66,79.96 L264.66,82.42 L275.44,82.42 Z M263.74,70.48 L276.28,70.48 L276.28,75.66 L269.9,75.66 C270.1,76.12 270.3,76.64 270.5,77.24 L278.64,77.24 L278.64,77.86 L261.36,77.86 L261.36,77.24 L269.8,77.24 C269.58,76.66 269.36,76.14 269.12,75.66 L263.74,75.66 L263.74,70.48 Z M275.6,75.04 L275.6,73.32 L264.42,73.32 L264.42,75.04 L275.6,75.04 Z M264.42,72.72 L275.6,72.72 L275.6,71.06 L264.42,71.06 L264.42,72.72 Z M273.44,84.16 C275.32,84.8 277.14,85.72 278.9,86.94 L278.68,87.56 C276.9,86.34 275.06,85.4 273.14,84.72 L273.44,84.16 Z M266.22,84.1 L266.66,84.58 C265.32,85.78 263.58,86.78 261.46,87.56 L261.06,86.98 C263.28,86.2 265,85.24 266.22,84.1 Z M286.16,73.96 C288.14,75.46 289.96,76.96 291.64,78.46 C292.96,76.88 294.08,75.02 295,72.86 L295.6,73.2 C294.64,75.4 293.48,77.32 292.14,78.92 C293.9,80.5 295.46,82.08 296.86,83.66 L296.36,84.16 C295.02,82.6 293.46,81.04 291.7,79.44 C289.86,81.48 287.72,83.04 285.26,84.1 L284.88,83.48 C287.32,82.48 289.42,80.98 291.2,78.98 C289.52,77.48 287.68,75.96 285.66,74.42 L286.16,73.96 Z M282.72,70.66 L298.3,70.66 L298.3,71.32 L283.38,71.32 L283.38,86.36 L298.84,86.36 L298.84,87.02 L282.72,87.02 L282.72,70.66 Z M303.42,83.48 C304.06,83.92 304.76,84.56 305.56,85.38 C306.24,86.1 306.78,86.74 307.18,87.3 L306.64,87.78 C306.22,87.18 305.68,86.54 305.04,85.86 C304.26,85.02 303.56,84.4 302.94,83.96 L303.42,83.48 Z M330.8,72.94 C330.14,74.24 329.4,75.3 328.58,76.14 L328.06,75.7 C329.5,74.22 330.6,72.22 331.36,69.66 L332,69.92 C331.72,70.78 331.42,71.56 331.12,72.28 L338.42,72.28 L338.42,72.94 L330.8,72.94 Z M338.26,78.76 L338.7,79.26 C337.8,80.26 336.66,81.08 335.3,81.72 C336.18,83.94 337.44,85.78 339.1,87.26 L338.68,87.8 C335.72,85.24 333.96,81.48 333.44,76.54 C332.6,76.7 331.76,76.86 330.92,76.98 L330.92,86.78 C332.22,86.48 333.5,86.12 334.76,85.68 L334.88,86.36 C333.54,86.78 331.96,87.2 330.12,87.64 L329.98,87 C330.16,86.94 330.26,86.84 330.26,86.68 L330.26,76.44 C332.7,76.16 335.04,75.6 337.24,74.72 L337.62,75.3 C336.5,75.74 335.3,76.1 334.06,76.4 C334.22,78.12 334.56,79.7 335.06,81.12 C336.34,80.5 337.4,79.72 338.26,78.76 Z M321.3,72.88 L328.44,72.88 L328.44,73.54 L323.9,73.54 L323.9,76.84 L327.9,76.84 C327.9,81.8 327.78,84.84 327.56,85.96 C327.36,87.16 326.52,87.76 325.08,87.76 C324.92,87.76 324.64,87.74 324.26,87.72 L324.08,87.1 C324.42,87.12 324.72,87.14 324.96,87.14 C326.04,87.14 326.68,86.72 326.88,85.92 C327.12,84.92 327.24,82.1 327.24,77.5 L323.88,77.5 C323.76,82.18 322.92,85.64 321.4,87.88 L320.9,87.42 C322.42,85.18 323.2,81.56 323.24,76.58 L323.24,73.54 L321.3,73.54 L321.3,72.88 Z M324.26,69.64 C324.76,70.56 325.16,71.4 325.46,72.16 L324.82,72.38 C324.5,71.5 324.08,70.66 323.6,69.82 L324.26,69.64 Z M348.64,71.32 L357.94,71.32 L357.94,71.98 L348.64,71.98 L348.64,71.32 Z M348.02,76.52 L358.86,76.52 L358.86,77.2 L355.44,77.2 L355.44,86.36 C355.44,87.32 354.88,87.82 353.8,87.82 L350.82,87.82 L350.68,87.16 C351.68,87.18 352.64,87.2 353.56,87.2 C354.34,87.2 354.74,86.86 354.74,86.2 L354.74,77.2 L348.02,77.2 L348.02,76.52 Z M345.88,70 L346.5,70.28 C345.32,72.56 343.54,74.5 341.18,76.1 L340.96,75.42 C343.26,73.8 344.9,72 345.88,70 Z M346.84,74.52 L347.46,74.82 C346.8,76.06 345.98,77.22 345.02,78.3 L345.02,87.92 L344.36,87.92 L344.36,79 C343.42,79.92 342.38,80.78 341.24,81.56 L341.04,80.86 C343.76,78.98 345.68,76.86 346.84,74.52 Z M372.98,69.8 L373.66,69.8 L373.66,76.16 L378.5,76.16 L378.5,76.84 L373.66,76.84 L373.66,86.52 L379,86.52 L379,87.2 L367.52,87.2 L367.52,86.52 L372.98,86.52 L372.98,76.84 L368.18,76.84 L368.18,76.16 L372.98,76.16 L372.98,69.8 Z M364.32,78.68 C363.4,79.68 362.34,80.68 361.14,81.68 L360.92,81 C363.98,78.44 365.96,75.98 366.84,73.58 L361.42,73.58 L361.42,72.92 L367.52,72.92 L367.52,73.52 C367,75 366.14,76.46 364.98,77.9 L364.98,78.06 C366.18,78.78 367.26,79.62 368.24,80.58 L367.86,81.16 C366.9,80.16 365.94,79.38 364.98,78.78 L364.98,87.86 L364.32,87.86 L364.32,78.68 Z M364.28,69.68 C364.74,70.6 365.1,71.44 365.38,72.2 L364.76,72.42 C364.44,71.54 364.06,70.7 363.62,69.88 L364.28,69.68 Z M383.42,83.48 C384.06,83.92 384.76,84.56 385.56,85.38 C386.24,86.1 386.78,86.74 387.18,87.3 L386.64,87.78 C386.22,87.18 385.68,86.54 385.04,85.86 C384.26,85.02 383.56,84.4 382.94,83.96 L383.42,83.48 Z M409.56,72.58 L413.7,72.58 C413.4,71.54 413.06,70.62 412.68,69.82 L413.38,69.68 C413.74,70.52 414.08,71.5 414.4,72.58 L418.52,72.58 L418.52,73.26 L409.56,73.26 L409.56,72.58 Z M400.98,78.7 L402.52,78.7 L402.52,72.06 L404.54,72.06 C404.88,71.3 405.12,70.52 405.28,69.7 L405.96,69.8 C405.8,70.6 405.54,71.36 405.22,72.06 L408.36,72.06 L408.36,86.38 C408.36,87.3 407.92,87.78 407.04,87.78 L405.36,87.78 L405.2,87.12 C405.78,87.14 406.32,87.16 406.82,87.16 C407.42,87.16 407.72,86.82 407.72,86.14 L407.72,79.36 L403.16,79.36 C403.12,82.92 402.56,85.8 401.52,88 L401,87.52 C401.96,85.36 402.48,82.64 402.52,79.36 L400.98,79.36 L400.98,78.7 Z M407.72,78.7 L407.72,72.7 L403.16,72.7 L403.16,78.7 L407.72,78.7 Z M404.74,74.18 C405.4,75.08 405.98,76.12 406.5,77.28 L405.94,77.44 C405.48,76.38 404.9,75.36 404.2,74.36 L404.74,74.18 Z M404.78,80.9 C405.42,81.98 405.98,83.2 406.48,84.6 L405.9,84.76 C405.46,83.48 404.9,82.26 404.22,81.1 L404.78,80.9 Z M408.94,87.44 C409.7,86.48 410.24,85.42 410.58,84.26 C410.88,83.22 411.04,81.78 411.04,79.92 L411.04,76.04 L416.24,76.04 L416.24,86.46 C416.24,86.82 416.4,87.02 416.74,87.02 L417.4,87.02 C417.64,87.02 417.84,86.98 417.98,86.92 C418.14,86.88 418.26,86.8 418.3,86.72 C418.46,86.56 418.56,85.52 418.56,83.58 L419.2,83.78 C419.2,84.94 419.16,85.84 419.08,86.48 C419,86.94 418.86,87.26 418.62,87.46 C418.38,87.58 418,87.64 417.48,87.64 L416.72,87.64 C415.94,87.64 415.56,87.26 415.56,86.52 L415.56,76.7 L411.7,76.7 L411.7,79.92 C411.7,81.76 411.54,83.26 411.24,84.38 C410.92,85.54 410.34,86.72 409.48,87.9 L408.94,87.44 Z M423.26,80.2 L436.78,80.2 L436.78,80.88 L430.34,80.88 L430.34,86.54 L438.44,86.54 L438.44,87.22 L421.6,87.22 L421.6,86.54 L429.64,86.54 L429.64,80.88 L423.26,80.88 L423.26,80.2 Z M431.68,74.38 C433.8,75.4 435.74,76.64 437.5,78.1 L437.12,78.66 C435.24,77.08 433.3,75.84 431.3,74.94 L431.68,74.38 Z M427.86,74.56 L428.3,75.06 C426.8,76.5 424.86,77.68 422.48,78.64 L422.16,78.02 C424.44,77.14 426.34,76 427.86,74.56 Z M429.72,69.68 C430.02,70.36 430.3,71.12 430.56,71.98 L438.28,71.98 L438.28,75.64 L437.6,75.64 L437.6,72.64 L422.42,72.64 L422.42,75.62 L421.74,75.62 L421.74,71.98 L429.88,71.98 C429.62,71.16 429.32,70.44 429,69.8 L429.72,69.68 Z M447.16,69.98 L447.78,70.22 C446.2,74.46 444.12,77.68 441.56,79.86 L441.04,79.4 C443.7,77.1 445.74,73.96 447.16,69.98 Z M452.84,80.58 C454.56,82.78 456.04,85.12 457.28,87.6 L456.66,87.88 C456.3,87.18 455.96,86.52 455.62,85.92 C451.98,86.5 447.94,86.94 443.46,87.22 L443.32,86.58 C445.22,85.1 447.26,81.76 449.46,76.56 L450.12,76.78 C448.2,81.3 446.32,84.56 444.48,86.52 C448.44,86.26 452.04,85.86 455.26,85.32 C454.3,83.66 453.28,82.16 452.2,80.8 L452.84,80.58 Z M452.6,69.86 C453.82,73.74 455.96,76.92 459,79.36 L458.54,79.9 C455.42,77.38 453.26,74.14 452.02,70.18 L452.6,69.86 Z M463.24,78.48 L471.5,78.48 L471.5,84.08 L463.24,84.08 L463.24,78.48 Z M470.84,83.44 L470.84,79.14 L463.92,79.14 L463.92,83.44 L470.84,83.44 Z M475.2,87.78 L472.48,87.78 L472.3,87.12 L475.06,87.14 C475.86,87.14 476.28,86.66 476.28,85.74 L476.28,71.54 L462.36,71.54 L462.36,70.86 L476.96,70.86 L476.96,85.92 C476.96,87.16 476.36,87.78 475.2,87.78 Z M461.94,74.76 L473.68,74.76 L473.68,75.42 L461.94,75.42 L461.94,74.76 Z M483.42,83.48 C484.06,83.92 484.76,84.56 485.56,85.38 C486.24,86.1 486.78,86.74 487.18,87.3 L486.64,87.78 C486.22,87.18 485.68,86.54 485.04,85.86 C484.26,85.02 483.56,84.4 482.94,83.96 L483.42,83.48 Z M506.06,69.76 L506.68,69.76 L506.68,70.7 L509.64,70.7 L509.64,71.28 L506.68,71.28 L506.68,72.74 L509.34,72.74 L509.34,73.22 C507.66,75.4 505.04,76.88 501.52,77.66 L501.2,77.14 C502.68,76.82 503.98,76.4 505.1,75.84 C504.44,75.28 503.66,74.7 502.74,74.14 C502.3,74.48 501.86,74.78 501.38,75.06 L501.02,74.56 C502.54,73.72 503.56,72.72 504.1,71.56 L504.74,71.62 C504.56,72.02 504.34,72.38 504.1,72.74 L506.06,72.74 L506.06,69.76 Z M503.64,73.3 L503.14,73.8 C504.12,74.4 504.96,75 505.64,75.56 C506.78,74.92 507.74,74.18 508.5,73.3 L503.64,73.3 Z M511.2,71.96 C512.32,72.48 513.38,73.04 514.42,73.64 C515.42,72.94 516.2,72.14 516.74,71.26 L510.86,71.26 L510.86,70.66 L517.5,70.66 L517.5,71.14 C516.92,72.24 516.08,73.18 515,73.98 C516.32,74.78 517.56,75.64 518.74,76.56 L518.38,77.1 C517.06,76.04 515.76,75.12 514.46,74.34 C513.66,74.84 512.74,75.28 511.74,75.66 L511.34,75.14 C512.3,74.8 513.14,74.42 513.88,73.98 C512.88,73.4 511.88,72.88 510.88,72.44 L511.2,71.96 Z M505.42,81.9 L505.42,83.44 L514.46,83.44 L514.46,81.9 L505.42,81.9 Z M514.46,81.4 L514.46,79.86 L505.42,79.86 L505.42,81.4 L514.46,81.4 Z M516.68,83.32 L517.26,83.6 C516.5,84.54 515.68,85.38 514.8,86.1 C515.92,86.5 517,86.94 518.04,87.42 L517.7,87.94 C515.12,86.72 512.48,85.76 509.76,85.08 L510.08,84.62 C511.52,85 512.88,85.42 514.18,85.88 C515.14,85.08 515.96,84.24 516.68,83.32 Z M509.76,77.62 C510.06,78.1 510.34,78.68 510.6,79.32 L515.12,79.32 L515.12,84 L505.42,84 L505.42,87.2 C507.1,86.96 508.7,86.7 510.22,86.38 L510.34,86.98 C508.78,87.3 506.86,87.6 504.54,87.86 L504.36,87.36 C504.6,87.3 504.74,87.16 504.74,86.94 L504.74,79.32 L509.96,79.32 C509.7,78.72 509.42,78.2 509.12,77.74 L509.76,77.62 Z M510,75.76 C507.86,77.76 505.04,79.3 501.52,80.34 L501.16,79.78 C504.84,78.78 507.7,77.26 509.74,75.22 L510.26,75.22 C512.14,77.1 515.02,78.54 518.9,79.58 L518.54,80.16 C514.7,79 511.86,77.52 510,75.76 Z M538.46,70.88 L538.46,71.56 L524.12,71.56 L524.12,78.04 C524.04,82.12 523.16,85.38 521.5,87.84 L521,87.38 C522.56,85.14 523.36,82.04 523.44,78.04 L523.44,70.88 L538.46,70.88 Z M525.84,75.44 L538.2,75.44 L538.2,76.1 L532.88,76.1 L532.88,86.12 C532.88,87.16 532.36,87.7 531.34,87.7 L529.22,87.7 L529.08,87.04 C529.8,87.08 530.48,87.1 531.12,87.1 C531.84,87.1 532.2,86.72 532.2,85.96 L532.2,76.1 L525.84,76.1 L525.84,75.44 Z M543.42,83.48 C544.06,83.92 544.76,84.56 545.56,85.38 C546.24,86.1 546.78,86.74 547.18,87.3 L546.64,87.78 C546.22,87.18 545.68,86.54 545.04,85.86 C544.26,85.02 543.56,84.4 542.94,83.96 L543.42,83.48 Z M570.8,72.94 C570.14,74.24 569.4,75.3 568.58,76.14 L568.06,75.7 C569.5,74.22 570.6,72.22 571.36,69.66 L572,69.92 C571.72,70.78 571.42,71.56 571.12,72.28 L578.42,72.28 L578.42,72.94 L570.8,72.94 Z M578.26,78.76 L578.7,79.26 C577.8,80.26 576.66,81.08 575.3,81.72 C576.18,83.94 577.44,85.78 579.1,87.26 L578.68,87.8 C575.72,85.24 573.96,81.48 573.44,76.54 C572.6,76.7 571.76,76.86 570.92,76.98 L570.92,86.78 C572.22,86.48 573.5,86.12 574.76,85.68 L574.88,86.36 C573.54,86.78 571.96,87.2 570.12,87.64 L569.98,87 C570.16,86.94 570.26,86.84 570.26,86.68 L570.26,76.44 C572.7,76.16 575.04,75.6 577.24,74.72 L577.62,75.3 C576.5,75.74 575.3,76.1 574.06,76.4 C574.22,78.12 574.56,79.7 575.06,81.12 C576.34,80.5 577.4,79.72 578.26,78.76 Z M561.3,72.88 L568.44,72.88 L568.44,73.54 L563.9,73.54 L563.9,76.84 L567.9,76.84 C567.9,81.8 567.78,84.84 567.56,85.96 C567.36,87.16 566.52,87.76 565.08,87.76 C564.92,87.76 564.64,87.74 564.26,87.72 L564.08,87.1 C564.42,87.12 564.72,87.14 564.96,87.14 C566.04,87.14 566.68,86.72 566.88,85.92 C567.12,84.92 567.24,82.1 567.24,77.5 L563.88,77.5 C563.76,82.18 562.92,85.64 561.4,87.88 L560.9,87.42 C562.42,85.18 563.2,81.56 563.24,76.58 L563.24,73.54 L561.3,73.54 L561.3,72.88 Z M564.26,69.64 C564.76,70.56 565.16,71.4 565.46,72.16 L564.82,72.38 C564.5,71.5 564.08,70.66 563.6,69.82 L564.26,69.64 Z M593.36,73.5 C592.84,74.88 592.18,76.04 591.4,77 L590.98,76.5 C592.32,74.78 593.22,72.46 593.7,69.54 L594.38,69.66 C594.18,70.82 593.92,71.86 593.6,72.82 L599.06,72.82 L599.06,73.5 L593.36,73.5 Z M581.74,70.32 C582.86,71.14 583.78,71.96 584.54,72.76 L584.04,73.26 C583.34,72.46 582.42,71.64 581.26,70.78 L581.74,70.32 Z M581.66,75.3 C582.82,76.18 583.78,77.08 584.54,78 L584.06,78.48 C583.34,77.6 582.38,76.7 581.18,75.76 L581.66,75.3 Z M583.76,80.6 L584.36,80.84 C583.56,83.26 582.66,85.52 581.68,87.64 L581.04,87.38 C582.1,85.18 583,82.92 583.76,80.6 Z M586.92,73.82 L585.08,73.82 L585.08,73.16 L588.24,73.16 C587.94,71.9 587.6,70.76 587.24,69.74 L587.92,69.62 C588.28,70.64 588.6,71.82 588.9,73.16 L591.4,73.16 L591.4,73.82 L587.58,73.82 L587.58,75.54 C587.58,76.18 587.56,76.82 587.52,77.44 L590.94,77.44 C590.94,81.76 590.84,84.44 590.64,85.48 C590.52,86.84 589.98,87.54 588.98,87.54 C588.7,87.54 588.2,87.52 587.5,87.52 L587.34,86.9 C587.96,86.9 588.5,86.92 588.96,86.92 C589.56,86.92 589.9,86.4 590,85.38 C590.16,84.5 590.24,82.08 590.26,78.12 L587.48,78.12 C587.2,82.44 586.3,85.7 584.78,87.88 L584.28,87.42 C586,84.94 586.88,80.98 586.92,75.54 L586.92,73.82 Z M593.2,76.34 L598.34,76.34 L598.34,76.96 C597.66,77.88 596.9,78.76 596.08,79.6 L596.08,81.32 L599.12,81.32 L599.12,81.96 L596.08,81.96 L596.08,86.24 C596.08,87.16 595.64,87.62 594.76,87.62 L593.12,87.62 L592.96,86.96 C593.44,86.96 593.96,86.98 594.52,86.98 C595.1,86.98 595.4,86.64 595.4,86 L595.4,81.96 L592,81.96 L592,81.32 L595.4,81.32 L595.4,79.46 C596.44,78.36 597.16,77.52 597.56,76.96 L593.2,76.96 L593.2,76.34 Z M608.02,70.76 L608.02,83.02 L607.38,83.02 L607.38,71.4 L602.54,71.4 L602.54,83.02 L601.9,83.02 L601.9,70.76 L608.02,70.76 Z M611.54,69.68 L612.22,69.76 C612,70.86 611.7,71.88 611.34,72.84 L618.28,72.84 C618.28,79.6 618.16,83.72 617.92,85.24 C617.68,86.86 616.8,87.68 615.24,87.68 C614.72,87.68 613.84,87.66 612.6,87.64 L612.42,87.02 C613.46,87.04 614.38,87.06 615.14,87.06 C616.3,87.06 616.98,86.48 617.2,85.36 C617.46,83.96 617.6,80 617.62,73.52 L611.06,73.52 C610.5,74.8 609.82,75.92 609.02,76.92 L608.62,76.38 C610.06,74.56 611.02,72.32 611.54,69.68 Z M613.86,78.5 C614.62,80.14 615.32,81.92 615.98,83.84 L615.4,84.14 C615.22,83.6 615.04,83.1 614.88,82.62 C613.24,83.02 611.44,83.34 609.44,83.54 L609.3,82.94 C610.28,81.86 611.34,79.48 612.48,75.76 L613.1,75.96 C612.08,79.16 611.08,81.48 610.12,82.88 C611.8,82.68 613.32,82.4 614.66,82.04 C614.22,80.84 613.76,79.76 613.28,78.78 L613.86,78.5 Z M604.66,73.2 L605.3,73.2 L605.3,79.78 C605.28,81.96 604.96,83.7 604.36,85 C603.76,86.2 602.76,87.16 601.38,87.88 L601.02,87.3 C602.32,86.66 603.28,85.72 603.88,84.5 C604.4,83.3 604.66,81.72 604.66,79.78 L604.66,73.2 Z M606.04,83.78 C607.2,84.94 608.16,86.12 608.94,87.3 L608.46,87.76 C607.74,86.64 606.78,85.46 605.58,84.22 L606.04,83.78 Z M630.38,69.76 L631.06,69.94 C630.8,71.16 630.5,72.26 630.16,73.24 L638.16,73.24 C638.16,79.58 638.06,83.5 637.88,85 C637.68,86.84 636.66,87.76 634.82,87.76 C634.54,87.76 634.06,87.74 633.36,87.72 L633.18,87.08 C633.8,87.1 634.34,87.12 634.8,87.12 C636.2,87.12 637,86.38 637.22,84.92 C637.38,83.58 637.46,79.92 637.5,73.92 L635.4,73.92 C634.96,77.44 634.34,80.18 633.52,82.18 C632.6,84.22 631.24,86.06 629.44,87.7 L629,87.16 C630.74,85.6 632.02,83.88 632.86,82 C633.74,79.98 634.36,77.28 634.76,73.92 L632.56,73.92 C631.76,78.4 630.22,81.64 627.92,83.64 L627.46,83.12 C629.68,81.2 631.18,78.14 631.94,73.92 L629.9,73.92 C629.36,75.28 628.72,76.42 628,77.32 L627.5,76.88 C628.86,75.22 629.82,72.84 630.38,69.76 Z M622.6,74.88 C622.32,75.96 621.94,77.02 621.46,78.04 L620.86,77.86 C621.86,75.72 622.42,73.48 622.56,71.12 L623.16,71.16 C623.1,72.2 622.96,73.2 622.76,74.2 L624.8,74.2 L624.8,69.78 L625.48,69.78 L625.48,74.2 L627.52,74.2 L627.52,74.88 L625.48,74.88 L625.48,80.62 C626.16,80.3 626.8,79.94 627.44,79.58 L627.44,80.24 C626.8,80.62 626.14,80.96 625.48,81.28 L625.48,87.9 L624.8,87.9 L624.8,81.62 C623.66,82.14 622.48,82.6 621.24,83 L621.08,82.32 C622.36,81.96 623.6,81.5 624.8,80.96 L624.8,74.88 L622.6,74.88 Z M650.86,73.84 L651.52,73.84 L651.52,76.58 L658.52,76.58 L658.52,77.26 L651.52,77.26 L651.52,80.8 L656.84,80.8 L656.84,87.88 L656.16,87.88 L656.16,86.7 L646.82,86.7 L646.82,87.88 L646.14,87.88 L646.14,80.8 L650.86,80.8 L650.86,73.84 Z M646.82,86.02 L656.16,86.02 L656.16,81.46 L646.82,81.46 L646.82,86.02 Z M650.24,69.66 C650.64,70.34 651,71.1 651.34,71.98 L658.8,71.98 L658.8,72.66 L643.72,72.66 L643.72,77.4 C643.64,81.72 642.9,85.2 641.5,87.8 L641,87.34 C642.3,84.96 642.98,81.64 643.02,77.4 L643.02,71.98 L650.64,71.98 C650.32,71.16 649.96,70.42 649.54,69.78 L650.24,69.66 Z" id="贯穿旅游行业上下游—酒店、景区、旅行社、"></path>
            <path d="M4.284,13.248 L37.8,13.248 L37.8,14.676 L21.546,14.676 L21.546,32.148 L39.396,32.148 L39.396,33.534 L21.546,33.534 L21.546,48.99 L20.118,48.99 L20.118,33.534 L2.604,33.534 L2.604,32.148 L20.118,32.148 L20.118,14.676 L4.284,14.676 L4.284,13.248 Z M8.19,18.498 C9.87,21.522 11.466,24.84 12.936,28.41 L11.592,29.04 C10.122,25.344 8.568,22.026 6.888,19.17 L8.19,18.498 Z M33.852,18.204 L35.196,18.792 C33.81,22.278 32.004,25.68 29.778,28.998 L28.518,28.326 C30.786,24.924 32.55,21.564 33.852,18.204 Z M76.482,32.106 L76.482,49.032 L75.054,49.032 L75.054,46.344 L50.946,46.344 L50.946,49.032 L49.518,49.032 L49.518,32.106 L76.482,32.106 Z M50.946,44.916 L75.054,44.916 L75.054,33.492 L50.946,33.492 L50.946,44.916 Z M46.116,27.066 L45.822,25.722 C50.358,23.538 55.188,18.582 60.354,10.896 L61.74,11.4 C57.288,17.952 52.92,22.656 48.636,25.596 C58.464,25.218 67.368,24.63 75.264,23.79 C73.248,21.06 71.19,18.54 69.09,16.272 L70.392,15.6 C74.256,19.884 77.826,24.546 81.102,29.586 L79.758,30.258 C78.582,28.452 77.448,26.73 76.272,25.134 C67.326,25.974 57.288,26.604 46.116,27.066 Z M88.62,12.282 C91.14,13.08 93.492,14.046 95.592,15.18 L94.836,16.356 C92.568,15.096 90.258,14.088 87.906,13.374 L88.62,12.282 Z M103.236,10.812 L104.622,10.98 C104.244,12.114 103.782,13.206 103.236,14.214 L120.918,14.214 L120.918,15.138 C120.33,17.238 119.616,19.254 118.692,21.27 L117.306,20.85 C118.188,19.212 118.902,17.448 119.406,15.516 L110.628,15.516 C110.418,16.776 110.124,17.91 109.704,18.918 C111.888,22.656 116.34,25.218 123.144,26.562 L122.64,27.822 C116.088,26.478 111.552,23.958 109.116,20.22 C108.486,21.396 107.73,22.446 106.806,23.37 C104.706,25.26 101.346,26.73 96.81,27.78 L96.222,26.478 C100.59,25.512 103.782,24.168 105.756,22.446 C107.562,20.766 108.738,18.456 109.242,15.516 L102.396,15.516 C101.22,17.154 99.792,18.624 98.028,19.968 L97.146,18.792 C100.17,16.608 102.186,13.962 103.236,10.812 Z M117.978,29.67 L117.978,42.102 L116.55,42.102 L116.55,31.056 L93.282,31.056 L93.282,42.228 L91.812,42.228 L91.812,29.67 L117.978,29.67 Z M104.496,33.408 L105.966,33.576 C105.378,38.826 104.118,42.438 102.102,44.454 C99.834,46.806 95.13,48.234 87.99,48.822 L87.402,47.562 C94.206,47.142 98.742,45.798 100.968,43.572 C102.942,41.556 104.118,38.154 104.496,33.408 Z M95.214,19.968 L96.054,20.934 C93.954,23.202 91.35,25.386 88.242,27.402 L87.276,26.268 C90.426,24.336 93.072,22.236 95.214,19.968 Z M107.184,42.228 C112.644,43.74 117.642,45.63 122.136,47.814 L121.38,49.032 C116.508,46.596 111.552,44.706 106.428,43.32 L107.184,42.228 Z M130.284,12.03 C133.308,14.214 135.87,16.356 137.886,18.54 L136.92,19.548 C134.988,17.448 132.468,15.264 129.276,12.996 L130.284,12.03 Z M129.528,22.32 C132.384,24.42 134.736,26.52 136.626,28.62 L135.618,29.586 C133.854,27.57 131.502,25.47 128.52,23.286 L129.528,22.32 Z M135.744,33.408 L137.004,33.912 C135.03,39.204 132.846,44.16 130.41,48.822 L129.066,48.234 C131.628,43.446 133.854,38.49 135.744,33.408 Z M146.328,19.506 L152.712,19.506 C153.384,17.868 153.888,16.146 154.182,14.382 L142.296,14.382 L142.296,28.662 C142.128,37.062 140.574,43.782 137.55,48.864 L136.458,47.898 C139.272,43.278 140.742,36.852 140.868,28.662 L140.868,13.038 L165.312,13.038 L165.312,14.382 L155.568,14.382 C155.232,16.188 154.77,17.91 154.098,19.506 L162.876,19.506 L162.876,33.282 L155.442,33.282 L155.442,46.344 C155.442,48.024 154.56,48.906 152.838,48.906 L149.31,48.906 L149.016,47.562 C150.192,47.646 151.284,47.688 152.334,47.688 C153.468,47.688 154.056,47.1 154.056,46.008 L154.056,33.282 L146.328,33.282 L146.328,19.506 Z M161.49,32.022 L161.49,27.066 L147.672,27.066 L147.672,32.022 L161.49,32.022 Z M147.672,25.806 L161.49,25.806 L161.49,20.766 L147.672,20.766 L147.672,25.806 Z M148.008,36.936 L149.352,37.23 C148.218,40.926 146.58,44.118 144.48,46.806 L143.262,46.092 C145.362,43.446 146.958,40.38 148.008,36.936 Z M160.692,36.81 C162.582,39.75 164.22,42.858 165.648,46.218 L164.388,46.764 C162.876,43.152 161.238,40.002 159.432,37.23 L160.692,36.81 Z" id="平台资源"></path>
        </g>
    </g>
</svg>