<?xml version="1.0" encoding="UTF-8"?>
<svg width="560px" height="171px" viewBox="0 0 560 171" version="1.1" xmlns="http://www.w3.org/2000/svg" xmlns:xlink="http://www.w3.org/1999/xlink">
    <!-- Generator: Sketch 48.2 (47327) - http://www.bohemiancoding.com/sketch -->
    <title>用技术提升行业效率 优化资源配置 copy</title>
    <desc>Created with Sketch.</desc>
    <defs></defs>
    <g id="首页" stroke="none" stroke-width="1" fill="none" fill-rule="evenodd" transform="translate(-437.000000, -242.000000)">
        <g id="Group-22-Copy" transform="translate(437.000000, 239.000000)" fill="#FFFFFF">
            <path d="M230.012,12.368 L230.012,40.88 L228.896,40.88 L228.896,38.54 L224,38.54 L224,40.88 L222.884,40.88 L222.884,12.368 L230.012,12.368 Z M224,37.352 L228.896,37.352 L228.896,13.556 L224,13.556 L224,37.352 Z M213.344,15.788 C212.696,18.2 211.832,20.252 210.824,21.944 L209.816,21.224 C211.688,18.164 212.912,13.952 213.416,8.588 L214.604,8.768 C214.388,10.892 214.064,12.836 213.632,14.6 L220.868,14.6 L220.868,15.788 L217.124,15.788 C217.088,19.136 216.944,22.124 216.728,24.788 L221.12,24.788 L221.12,26.012 L216.62,26.012 C216.512,26.876 216.404,27.668 216.296,28.424 C218.024,31.34 219.752,34.688 221.48,38.468 L220.688,39.62 C218.888,35.408 217.34,32.132 216.08,29.828 C215.144,34.688 213.308,38.648 210.536,41.708 L209.744,40.7 C212.336,37.856 214.064,34.148 215,29.576 C215.18,28.424 215.324,27.236 215.468,26.012 L210.968,26.012 L210.968,24.788 L215.576,24.788 C215.792,22.052 215.936,19.064 215.972,15.788 L213.344,15.788 Z M199.7,14.6 L203.588,14.6 L203.588,8.624 L204.812,8.624 L204.812,14.6 L208.556,14.6 L208.556,28.388 L204.74,28.388 L204.74,37.172 C206.18,36.632 207.584,36.056 208.952,35.408 C208.412,33.824 207.8,32.312 207.152,30.836 L208.16,30.476 C209.276,32.888 210.248,35.624 211.112,38.72 L210.068,39.008 C209.816,38.108 209.564,37.244 209.312,36.452 C206,38.036 202.472,39.296 198.692,40.304 L198.368,39.116 C200.168,38.684 201.896,38.18 203.588,37.604 L203.588,28.388 L199.7,28.388 L199.7,14.6 Z M207.512,27.236 L207.512,15.716 L204.668,15.716 L204.668,27.236 L207.512,27.236 Z M203.66,27.236 L203.66,15.716 L200.78,15.716 L200.78,27.236 L203.66,27.236 Z M247.76,8.624 L248.984,8.624 L248.984,15.392 L253.628,15.392 L253.628,28.856 L248.948,28.856 L248.948,36.956 C250.388,36.524 251.792,36.056 253.124,35.552 C252.728,34.256 252.296,32.996 251.828,31.808 L252.836,31.484 C253.592,33.356 254.276,35.444 254.888,37.748 C258.812,34.364 261.548,29.936 263.132,24.536 L255.68,24.536 L255.68,23.348 L264.644,23.348 L264.644,16.256 L259.244,16.256 C258.632,18.164 257.948,19.928 257.156,21.512 L256.112,20.864 C257.696,17.732 258.848,14.096 259.64,9.992 L260.792,10.244 C260.432,11.936 260.072,13.52 259.64,15.032 L264.644,15.032 L264.644,8.624 L265.832,8.624 L265.832,15.032 L272.852,15.032 L272.852,16.256 L265.832,16.256 L265.832,23.348 L274.04,23.348 L274.04,24.536 L267.308,24.536 C268.748,29.432 271.34,33.824 275.12,37.676 L274.292,38.648 C270.44,34.436 267.812,29.72 266.372,24.536 L265.832,24.536 L265.832,41.492 L264.644,41.492 L264.644,24.536 L264.104,24.536 C262.448,30.368 259.568,35.12 255.464,38.792 L254.924,37.928 C255.068,38.36 255.176,38.828 255.284,39.26 L254.24,39.548 C253.988,38.54 253.736,37.532 253.448,36.596 C249.92,37.892 246.14,39.008 242.108,39.872 L241.82,38.72 C243.872,38.324 245.852,37.856 247.76,37.316 L247.76,28.856 L243.152,28.856 L243.152,15.392 L247.76,15.392 L247.76,8.624 Z M247.796,16.544 L244.268,16.544 L244.268,27.704 L247.796,27.704 L247.796,16.544 Z M248.912,27.704 L252.512,27.704 L252.512,16.544 L248.912,16.544 L248.912,27.704 Z M302.84,14.492 C301.652,16.832 300.32,18.74 298.844,20.252 L297.908,19.46 C300.5,16.796 302.48,13.196 303.848,8.588 L305,9.056 C304.496,10.604 303.956,12.008 303.416,13.304 L316.556,13.304 L316.556,14.492 L302.84,14.492 Z M316.268,24.968 L317.06,25.868 C315.44,27.668 313.388,29.144 310.94,30.296 C312.524,34.292 314.792,37.604 317.78,40.268 L317.024,41.24 C311.696,36.632 308.528,29.864 307.592,20.972 C306.08,21.26 304.568,21.548 303.056,21.764 L303.056,39.404 C305.396,38.864 307.7,38.216 309.968,37.424 L310.184,38.648 C307.772,39.404 304.928,40.16 301.616,40.952 L301.364,39.8 C301.688,39.692 301.868,39.512 301.868,39.224 L301.868,20.792 C306.26,20.288 310.472,19.28 314.432,17.696 L315.116,18.74 C313.1,19.532 310.94,20.18 308.708,20.72 C308.996,23.816 309.608,26.66 310.508,29.216 C312.812,28.1 314.72,26.696 316.268,24.968 Z M285.74,14.384 L298.592,14.384 L298.592,15.572 L290.42,15.572 L290.42,21.512 L297.62,21.512 C297.62,30.44 297.404,35.912 297.008,37.928 C296.648,40.088 295.136,41.168 292.544,41.168 C292.256,41.168 291.752,41.132 291.068,41.096 L290.744,39.98 C291.356,40.016 291.896,40.052 292.328,40.052 C294.272,40.052 295.424,39.296 295.784,37.856 C296.216,36.056 296.432,30.98 296.432,22.7 L290.384,22.7 C290.168,31.124 288.656,37.352 285.92,41.384 L285.02,40.556 C287.756,36.524 289.16,30.008 289.232,21.044 L289.232,15.572 L285.74,15.572 L285.74,14.384 Z M291.068,8.552 C291.968,10.208 292.688,11.72 293.228,13.088 L292.076,13.484 C291.5,11.9 290.744,10.388 289.88,8.876 L291.068,8.552 Z M350.647999,15.5 C349.711999,17.984 348.523999,20.072 347.119999,21.8 L346.363999,20.9 C348.775999,17.804 350.395999,13.628 351.259999,8.372 L352.483999,8.588 C352.123999,10.676 351.655999,12.548 351.079999,14.276 L360.907999,14.276 L360.907999,15.5 L350.647999,15.5 Z M329.731999,9.776 C331.747999,11.252 333.403999,12.728 334.771999,14.168 L333.871999,15.068 C332.611999,13.628 330.955999,12.152 328.867999,10.604 L329.731999,9.776 Z M329.587999,18.74 C331.675999,20.324 333.403999,21.944 334.771999,23.6 L333.907999,24.464 C332.611999,22.88 330.883999,21.26 328.723999,19.568 L329.587999,18.74 Z M333.367999,28.28 L334.447999,28.712 C333.007999,33.068 331.387999,37.136 329.623999,40.952 L328.471999,40.484 C330.379999,36.524 331.999999,32.456 333.367999,28.28 Z M339.055999,16.076 L335.743999,16.076 L335.743999,14.888 L341.431999,14.888 C340.891999,12.62 340.279999,10.568 339.631999,8.732 L340.855999,8.516 C341.503999,10.352 342.079999,12.476 342.619999,14.888 L347.119999,14.888 L347.119999,16.076 L340.243999,16.076 L340.243999,19.172 C340.243999,20.324 340.207999,21.476 340.135999,22.592 L346.291999,22.592 C346.291999,30.368 346.111999,35.192 345.751999,37.064 C345.535999,39.512 344.563999,40.772 342.763999,40.772 C342.259999,40.772 341.359999,40.736 340.099999,40.736 L339.811999,39.62 C340.927999,39.62 341.899999,39.656 342.727999,39.656 C343.807999,39.656 344.419999,38.72 344.599999,36.884 C344.887999,35.3 345.031999,30.944 345.067999,23.816 L340.063999,23.816 C339.559999,31.592 337.939999,37.46 335.203999,41.384 L334.303999,40.556 C337.399999,36.092 338.983999,28.964 339.055999,19.172 L339.055999,16.076 Z M350.359999,20.612 L359.611999,20.612 L359.611999,21.728 C358.387999,23.384 357.019999,24.968 355.543999,26.48 L355.543999,29.576 L361.015999,29.576 L361.015999,30.728 L355.543999,30.728 L355.543999,38.432 C355.543999,40.088 354.751999,40.916 353.167999,40.916 L350.215999,40.916 L349.927999,39.728 C350.791999,39.728 351.727999,39.764 352.735999,39.764 C353.779999,39.764 354.319999,39.152 354.319999,38 L354.319999,30.728 L348.199999,30.728 L348.199999,29.576 L354.319999,29.576 L354.319999,26.228 C356.191999,24.248 357.487999,22.736 358.207999,21.728 L350.359999,21.728 L350.359999,20.612 Z" id="蜘蛛旅游" opacity="0.900000036"></path>
            <path d="M46.51,111.18 C43.15,106.07 40.14,101.59 37.34,97.74 C34.4,105.72 30.83,112.44 26.63,117.9 L25.58,116.78 C29.92,111.04 33.49,104.18 36.29,96.34 C32.23,90.81 28.52,86.33 25.16,82.83 L26.21,81.78 C29.5,85.21 33.07,89.48 36.85,94.66 C38.81,88.64 40.42,82.13 41.54,75.06 L43.01,75.34 C41.75,82.97 40,89.9 37.9,96.13 C40.98,100.33 44.2,105.02 47.56,110.2 L46.51,111.18 Z M67.79,114.19 C64.43,108.59 61.28,103.62 58.34,99.28 C55.26,107.26 51.41,114.05 46.86,119.58 L45.88,118.53 C50.5,112.65 54.35,105.72 57.29,97.74 C53.23,91.86 49.59,87.03 46.23,83.32 L47.35,82.27 C50.64,85.98 54.14,90.6 57.92,96.06 C60.16,89.69 61.84,82.76 63.1,75.27 L64.57,75.55 C63.17,83.67 61.28,91.02 58.97,97.6 C62.05,102.22 65.34,107.47 68.84,113.21 L67.79,114.19 Z M68.98,126.09 L61.77,126.09 L61.28,124.55 L68.49,124.62 C70.87,124.62 72.06,123.36 72.06,120.91 L72.06,68.55 L21.94,68.55 L21.94,126.16 L20.4,126.16 L20.4,67.01 L73.6,67.01 L73.6,121.19 C73.6,124.41 72.06,126.09 68.98,126.09 Z M127.873333,104.25 L142.293333,104.25 L142.293333,92.28 L129.553333,92.28 L129.343333,90.81 C132.283333,86.05 134.943333,80.38 137.183333,73.66 L128.783333,73.66 L128.783333,72.19 L137.673333,72.19 C138.583333,69.32 139.423333,66.31 140.263333,63.16 L141.733333,63.44 C140.963333,66.52 140.123333,69.39 139.213333,72.19 L154.403333,72.19 L154.403333,73.66 L138.723333,73.66 C136.483333,80.17 133.963333,85.91 131.023333,90.88 L142.293333,90.88 L142.293333,80.31 L143.763333,80.31 L143.763333,90.88 L153.843333,90.88 L153.843333,92.28 L143.763333,92.28 L143.763333,104.25 L155.663333,104.25 L155.663333,105.72 L143.763333,105.72 L143.763333,119.72 L142.293333,119.72 L142.293333,105.72 L127.873333,105.72 L127.873333,104.25 Z M116.813333,65.33 C120.453333,69.39 123.183333,72.96 125.003333,76.04 L123.813333,76.95 C121.783333,73.59 119.053333,70.02 115.553333,66.1 L116.813333,65.33 Z M146.493333,123.71 C149.713333,123.71 152.793333,123.64 155.733333,123.64 L155.313333,125.25 L146.353333,125.25 C144.253333,125.25 142.153333,125.18 139.913333,125.11 C136.413333,125.04 133.543333,124.55 131.233333,123.71 C128.713333,122.73 126.613333,121.19 124.933333,119.02 C124.023333,117.83 123.253333,117.27 122.553333,117.27 C121.013333,117.27 118.353333,120.14 114.713333,126.02 L113.663333,124.97 C117.023333,119.51 119.823333,116.5 121.923333,115.94 L121.923333,89.34 L114.713333,89.34 L114.713333,87.8 L123.393333,87.8 L123.393333,115.94 C124.093333,116.15 124.933333,116.78 125.773333,117.76 C127.383333,119.72 129.273333,121.19 131.443333,122.24 C133.333333,122.94 135.713333,123.43 138.513333,123.57 C141.173333,123.64 143.833333,123.71 146.493333,123.71 Z M101.343333,63.44 L102.813333,63.72 C102.113333,66.8 101.413333,69.74 100.573333,72.54 L113.453333,72.54 L113.453333,74.01 L100.153333,74.01 C98.4733335,79.19 96.4433335,83.95 94.2033335,88.22 L93.0133335,87.45 C96.6533335,80.59 99.4533335,72.61 101.343333,63.44 Z M98.1933335,86.12 L111.773333,86.12 L111.773333,87.59 L104.843333,87.59 L104.843333,99.77 L113.803333,99.77 L113.803333,101.31 L104.843333,101.31 L104.843333,122.38 C107.433333,121.33 110.163333,119.72 113.033333,117.62 L113.313333,119.09 C110.233333,121.33 106.733333,123.22 102.813333,124.76 L102.183333,123.43 C102.883333,123.08 103.303333,122.52 103.303333,121.82 L103.303333,101.31 L94.3433335,101.31 L94.3433335,99.77 L103.303333,99.77 L103.303333,87.59 L98.1933335,87.59 L98.1933335,86.12 Z M204.126667,73.87 C201.886667,78.63 199.296667,82.48 196.426667,85.42 L195.236667,84.51 C200.206667,79.26 204.056667,72.12 206.716667,63.02 L208.116667,63.51 C207.136667,66.73 206.016667,69.74 204.826667,72.4 L231.076667,72.4 L231.076667,73.87 L204.126667,73.87 Z M230.866667,94.94 L231.916667,96.06 C228.766667,99.63 224.706667,102.57 219.736667,104.95 C222.816667,113.07 227.366667,119.72 233.386667,125.04 L232.476667,126.16 C221.976667,117.06 215.816667,103.76 213.996667,86.26 C210.846667,86.96 207.626667,87.59 204.336667,88.01 L204.336667,123.64 C209.096667,122.52 213.856667,121.12 218.546667,119.51 L218.756667,121.05 C214.136667,122.52 208.676667,123.99 202.376667,125.53 L202.026667,124.13 C202.586667,123.99 202.866667,123.71 202.866667,123.43 L202.866667,86.82 C211.406667,85.84 219.526667,83.81 227.226667,80.73 L228.066667,81.99 C224.146667,83.53 219.876667,84.86 215.396667,85.98 C216.026667,92.35 217.286667,98.16 219.176667,103.41 C223.866667,101.24 227.786667,98.44 230.866667,94.94 Z M171.436667,74.5 L196.286667,74.5 L196.286667,75.97 L179.976667,75.97 L179.976667,88.22 L194.186667,88.22 C194.186667,105.37 193.766667,115.87 192.926667,119.72 C192.226667,123.85 189.356667,125.95 184.456667,125.95 C183.896667,125.95 182.916667,125.88 181.586667,125.88 L181.236667,124.48 C182.356667,124.55 183.406667,124.62 184.246667,124.62 C188.166667,124.62 190.476667,123.15 191.316667,120.21 C192.156667,116.43 192.646667,106.28 192.646667,89.76 L179.906667,89.76 C179.486667,106.35 176.546667,118.6 171.156667,126.44 L170.106667,125.46 C175.566667,117.41 178.366667,104.46 178.506667,86.54 L178.506667,75.97 L171.436667,75.97 L171.436667,74.5 Z M181.166667,62.88 C182.986667,65.96 184.456667,68.83 185.506667,71.42 L184.036667,71.98 C182.846667,69.04 181.376667,66.1 179.696667,63.3 L181.166667,62.88 Z M290.53,75.83 C288.64,80.8 286.33,85 283.6,88.36 L282.69,87.31 C287.45,81.15 290.74,72.89 292.42,62.39 L293.96,62.67 C293.19,67.01 292.21,70.86 291.09,74.29 L310.69,74.29 L310.69,75.83 L290.53,75.83 Z M249.93,65.4 C253.85,68.27 257.07,71.14 259.73,73.94 L258.61,75.06 C256.09,72.26 252.87,69.39 248.81,66.45 L249.93,65.4 Z M249.65,82.83 C253.71,85.91 257.07,89.06 259.73,92.28 L258.61,93.4 C256.02,90.32 252.66,87.17 248.53,83.88 L249.65,82.83 Z M257.77,101.31 L259.1,101.8 C256.16,110.27 252.94,118.25 249.44,125.67 L248.04,125.11 C251.82,117.34 255.04,109.43 257.77,101.31 Z M268.69,76.95 L262.04,76.95 L262.04,75.48 L273.52,75.48 C272.4,70.79 271.14,66.66 269.81,63.02 L271.35,62.74 C272.61,66.45 273.87,70.72 274.99,75.48 L283.88,75.48 L283.88,76.95 L270.16,76.95 L270.16,83.39 C270.16,85.77 270.09,88.15 269.95,90.39 L282.13,90.39 C282.13,105.16 281.78,114.33 281.08,117.83 C280.73,122.73 278.84,125.25 275.48,125.25 C274.5,125.25 272.75,125.18 270.3,125.18 L269.95,123.78 C272.12,123.78 274.01,123.85 275.62,123.85 C277.86,123.85 279.19,121.89 279.61,118.04 C280.17,114.75 280.52,106.07 280.59,91.93 L269.88,91.93 C268.9,107.26 265.75,118.74 260.36,126.44 L259.31,125.46 C265.47,116.71 268.55,102.71 268.69,83.39 L268.69,76.95 Z M290.46,86.54 L308.1,86.54 L308.1,88.01 C305.65,91.23 302.92,94.38 299.98,97.46 L299.98,104.04 L310.9,104.04 L310.9,105.51 L299.98,105.51 L299.98,121.26 C299.98,124.06 298.51,125.53 295.57,125.53 L290.04,125.53 L289.69,123.99 C291.37,123.99 293.12,124.06 295.08,124.06 C297.32,124.06 298.44,122.94 298.44,120.7 L298.44,105.51 L286.12,105.51 L286.12,104.04 L298.44,104.04 L298.44,97.04 C302.36,93.05 304.95,90.04 306.35,88.01 L290.46,88.01 L290.46,86.54 Z M336.893334,79.33 C334.093334,85.98 330.453334,91.51 326.113334,95.99 L325.203334,94.87 C332.343334,87.52 337.173334,77.51 339.693334,64.91 L341.163334,65.19 C340.183334,69.81 338.993334,74.08 337.453334,77.86 L356.983334,77.86 L356.983334,63.79 L358.453334,63.79 L358.453334,77.86 L382.883334,77.86 L382.883334,79.33 L358.453334,79.33 L358.453334,99.35 L381.413334,99.35 L381.413334,100.89 L358.453334,100.89 L358.453334,122.52 L387.293334,122.52 L387.293334,124.06 L326.603334,124.06 L326.603334,122.52 L356.983334,122.52 L356.983334,100.89 L335.073334,100.89 L335.073334,99.35 L356.983334,99.35 L356.983334,79.33 L336.893334,79.33 Z M433.306667,62.81 L434.846667,62.95 C434.426667,66.17 433.866667,69.18 433.096667,71.84 L461.586667,71.84 L461.586667,73.31 L436.806667,73.31 C440.446667,82.69 449.896667,89.83 465.156667,94.87 L464.386667,96.2 C448.636667,90.74 438.976667,83.11 435.336667,73.31 L432.606667,73.31 C431.066667,77.72 428.826667,81.5 426.026667,84.72 C425.396667,85.42 424.766667,86.05 424.066667,86.68 C427.496667,88.99 431.346667,92.21 435.616667,96.34 L434.566667,97.39 C430.086667,93.05 426.166667,89.83 422.876667,87.59 C418.256667,91.23 411.676667,94.1 402.996667,96.34 L402.436667,94.94 C412.796667,92.28 420.216667,88.57 424.836667,83.74 C427.496667,80.87 429.526667,77.37 430.996667,73.31 L405.516667,73.31 L405.516667,71.84 L431.486667,71.84 C432.326667,69.04 432.886667,66.03 433.306667,62.81 Z M410.626667,103.97 L412.096667,104.25 C410.346667,111.46 407.896667,117.69 404.816667,122.94 L403.486667,122.17 C406.636667,116.99 409.016667,110.9 410.626667,103.97 Z M433.726667,101.8 C436.246667,105.58 438.486667,109.71 440.306667,114.05 L438.906667,114.68 C436.876667,109.99 434.706667,105.79 432.326667,102.15 L433.726667,101.8 Z M454.306667,103.06 C457.876667,108.38 460.956667,114.12 463.616667,120.14 L462.216667,120.77 C459.416667,114.19 456.266667,108.45 452.836667,103.48 L454.306667,103.06 Z M443.176667,125.04 L425.606667,125.04 C422.456667,125.04 420.916667,123.43 420.916667,120.21 L420.916667,103.83 L422.456667,103.83 L422.456667,119.93 C422.456667,122.31 423.646667,123.5 426.096667,123.5 L442.896667,123.5 C444.926667,123.5 446.326667,123.08 447.026667,122.24 C448.146667,120.91 448.846667,117.27 449.266667,111.25 L450.666667,111.67 C450.316667,117.76 449.476667,121.61 448.216667,123.22 C447.236667,124.41 445.556667,125.04 443.176667,125.04 Z M493.530001,80.52 L500.810001,80.52 C499.690001,78.07 498.360001,75.83 496.820001,73.73 L498.150001,73.24 C499.760001,75.2 501.160001,77.65 502.420001,80.52 L509.070001,80.52 C509.910001,77.72 510.540001,74.85 510.960001,71.77 L512.500001,71.91 C512.080001,74.99 511.450001,77.86 510.610001,80.52 L518.310001,80.52 C520.410001,78.14 521.950001,75.62 522.860001,73.03 L524.330001,73.38 C523.490001,75.83 522.090001,78.21 520.130001,80.52 L528.810001,80.52 L528.810001,81.99 L510.190001,81.99 C509.350001,84.51 508.370001,86.82 507.320001,88.92 L531.470001,88.92 L531.470001,90.46 L519.710001,90.46 C522.370001,95.36 527.130001,99.77 533.990001,103.55 L533.010001,104.74 C525.870001,100.47 520.900001,95.71 518.240001,90.46 L506.480001,90.46 C502.490001,97.32 496.890001,102.64 489.610001,106.28 L488.840001,105.02 C495.840001,101.59 501.160001,96.76 504.800001,90.46 L490.730001,90.46 L490.730001,88.92 L505.640001,88.92 C506.830001,86.68 507.810001,84.37 508.650001,81.99 L493.530001,81.99 L493.530001,80.52 Z M485.480001,123.29 L485.480001,126.93 L483.940001,126.93 L483.940001,66.73 L538.540001,66.73 L538.540001,126.93 L537.000001,126.93 L537.000001,123.29 L485.480001,123.29 Z M537.000001,121.82 L537.000001,68.2 L485.480001,68.2 L485.480001,121.82 L537.000001,121.82 Z M519.850001,98.72 L503.330001,98.72 L503.330001,111.74 C503.330001,113.56 504.240001,114.54 506.130001,114.54 L520.900001,114.54 C523.280001,114.54 524.820001,114.12 525.520001,113.28 C526.220001,112.16 526.640001,110.27 526.920001,107.61 L528.390001,108.03 C528.110001,111.6 527.340001,113.91 526.220001,114.89 C525.240001,115.59 523.490001,116.01 520.830001,116.01 L506.200001,116.01 C503.260001,116.01 501.790001,114.61 501.790001,111.81 L501.790001,97.18 L521.390001,97.18 L521.390001,103.9 C521.390001,106.28 519.780001,107.54 516.560001,107.54 C514.460001,107.54 512.430001,107.47 510.330001,107.33 L509.910001,105.86 C512.080001,106 514.250001,106.14 516.490001,106.14 C518.730001,106.14 519.850001,105.37 519.850001,103.97 L519.850001,98.72 Z" id="网链旅游生态圈-copy-3"></path>
            <path d="M105.654,160.414 L105.654,163.582 C105.654,163.672 105.636,163.762 105.636,163.87 L110.586,163.87 L110.586,160.414 L105.654,160.414 Z M105.582,164.788 C105.402,167.128 104.718,169.054 103.548,170.566 L102.828,169.9 C104.016,168.262 104.628,166.174 104.664,163.654 L104.664,155.122 L117.804,155.122 L117.804,168.586 C117.804,169.756 117.21,170.35 116.04,170.35 L113.97,170.35 L113.718,169.396 C114.438,169.432 115.104,169.45 115.716,169.45 C116.454,169.45 116.832,169.036 116.832,168.226 L116.832,164.788 L111.558,164.788 L111.558,170.152 L110.586,170.152 L110.586,164.788 L105.582,164.788 Z M116.832,163.87 L116.832,160.414 L111.558,160.414 L111.558,163.87 L116.832,163.87 Z M116.832,159.514 L116.832,156.076 L111.558,156.076 L111.558,159.514 L116.832,159.514 Z M110.586,156.076 L105.654,156.076 L105.654,159.514 L110.586,159.514 L110.586,156.076 Z M128.226,170.548 L126.732,170.548 L126.534,169.648 C127.002,169.684 127.452,169.702 127.884,169.702 C128.424,169.702 128.694,169.414 128.694,168.838 L128.694,164.176 C127.92,164.5 127.128,164.788 126.318,165.04 L126.066,164.086 C126.966,163.834 127.848,163.546 128.694,163.222 L128.694,158.704 L126.408,158.704 L126.408,157.75 L128.694,157.75 L128.694,154.366 L129.666,154.366 L129.666,157.75 L131.664,157.75 L131.664,158.704 L129.666,158.704 L129.666,162.808 C130.368,162.484 131.052,162.124 131.736,161.728 L131.736,162.682 C131.052,163.078 130.368,163.42 129.666,163.744 L129.666,169.072 C129.666,170.044 129.18,170.548 128.226,170.548 Z M132.42,157.066 L136.83,157.066 L136.83,154.384 L137.802,154.384 L137.802,157.066 L142.212,157.066 L142.212,157.984 L137.802,157.984 L137.802,161.206 L141.492,161.206 L141.492,162.088 C140.808,164.158 139.728,165.904 138.216,167.344 C139.44,168.352 140.952,169.216 142.752,169.972 L142.248,170.764 C140.376,169.936 138.81,169 137.55,167.92 C136.11,169.108 134.346,170.08 132.294,170.8 L131.826,169.972 C133.824,169.288 135.498,168.406 136.866,167.308 C135.3,165.796 134.256,164.086 133.716,162.142 L132.744,162.142 L132.744,161.206 L136.83,161.206 L136.83,157.984 L132.42,157.984 L132.42,157.066 Z M134.634,162.142 C135.138,163.87 136.11,165.4 137.514,166.732 C138.882,165.436 139.89,163.906 140.538,162.142 L134.634,162.142 Z M150.204,158.722 L157.314,158.722 L157.314,154.294 L158.286,154.294 L158.286,158.722 L165.414,158.722 L165.414,159.64 L159.384,159.64 C160.59,162.772 162.768,165.58 165.936,168.028 L165.288,168.838 C161.976,166.102 159.708,163.024 158.466,159.64 L158.286,159.64 L158.286,170.728 L157.314,170.728 L157.314,159.64 L157.134,159.64 C155.802,163.456 153.462,166.57 150.132,168.982 L149.592,168.136 C152.688,165.958 154.902,163.132 156.234,159.64 L150.204,159.64 L150.204,158.722 Z M161.166,154.33 C162.282,155.482 163.146,156.49 163.74,157.354 L162.966,157.894 C162.336,156.958 161.472,155.932 160.392,154.816 L161.166,154.33 Z M175.17,170.584 L173.55,170.584 L173.334,169.648 C173.856,169.684 174.36,169.72 174.828,169.72 C175.314,169.72 175.566,169.468 175.566,168.982 L175.566,164.14 C174.828,164.446 174.072,164.716 173.298,164.95 L173.046,163.978 C173.91,163.762 174.756,163.492 175.566,163.186 L175.566,158.848 L173.262,158.848 L173.262,157.894 L175.566,157.894 L175.566,154.402 L176.538,154.402 L176.538,157.894 L178.482,157.894 L178.482,158.848 L176.538,158.848 L176.538,162.772 C177.114,162.502 177.69,162.214 178.248,161.908 L178.248,162.898 C177.672,163.186 177.114,163.474 176.538,163.726 L176.538,169.216 C176.538,170.116 176.07,170.584 175.17,170.584 Z M180.012,155.014 L187.716,155.014 L187.716,161.08 L180.012,161.08 L180.012,155.014 Z M186.744,160.252 L186.744,158.47 L180.966,158.47 L180.966,160.252 L186.744,160.252 Z M180.966,157.678 L186.744,157.678 L186.744,155.842 L180.966,155.842 L180.966,157.678 Z M178.698,162.556 L188.94,162.556 L188.94,163.456 L184.332,163.456 L184.332,165.778 L188.238,165.778 L188.238,166.66 L184.332,166.66 L184.332,169.324 C185.088,169.432 185.988,169.504 187.068,169.504 C187.986,169.504 188.76,169.468 189.39,169.432 L189.12,170.404 C188.4,170.404 187.734,170.386 187.14,170.368 C184.764,170.368 183.144,170.134 182.298,169.684 C181.578,169.288 180.93,168.496 180.354,167.344 C179.922,168.568 179.274,169.702 178.41,170.728 L177.69,170.08 C179.13,168.388 179.904,166.48 180.03,164.356 L180.912,164.464 C180.876,165.112 180.786,165.724 180.642,166.318 C181.254,167.668 181.974,168.532 182.766,168.91 C182.946,168.982 183.144,169.054 183.378,169.126 L183.378,163.456 L178.698,163.456 L178.698,162.556 Z M205.014,154.51 L205.5,155.32 C204.42,155.788 203.304,156.166 202.116,156.49 L202.116,161.278 L207.3,161.278 L207.3,154.51 L208.272,154.51 L208.272,161.278 L212.538,161.278 L212.538,162.25 L208.272,162.25 L208.272,170.746 L207.3,170.746 L207.3,162.25 L202.098,162.25 C201.918,166.102 200.46,168.928 197.688,170.746 L196.95,170.098 C199.578,168.442 200.964,165.814 201.126,162.25 L196.644,162.25 L196.644,161.278 L201.144,161.278 L201.144,156.724 C199.92,156.994 198.642,157.192 197.31,157.3 L197.004,156.4 C200.118,156.13 202.782,155.5 205.014,154.51 Z M226.704,155.608 L235.2,155.608 L235.2,156.562 L226.704,156.562 L226.704,155.608 Z M226.182,160.234 L236.028,160.234 L236.028,161.188 L233.04,161.188 L233.04,169.234 C233.04,170.188 232.482,170.674 231.402,170.674 L228.756,170.674 L228.54,169.738 C229.422,169.774 230.268,169.81 231.078,169.81 C231.726,169.81 232.05,169.54 232.05,169 L232.05,161.188 L226.182,161.188 L226.182,160.234 Z M224.04,154.51 L224.922,154.924 C223.896,156.94 222.294,158.704 220.098,160.198 L219.792,159.226 C221.754,157.84 223.176,156.274 224.04,154.51 Z M224.904,158.614 L225.768,159.028 C225.21,160.108 224.526,161.116 223.698,162.052 L223.698,170.764 L222.744,170.764 L222.744,163.042 C221.952,163.762 221.106,164.446 220.188,165.076 L219.882,164.104 C222.204,162.484 223.878,160.666 224.904,158.614 Z M248.970001,154.546 L249.924001,154.546 L249.924001,168.964 L252.840001,168.964 L252.840001,154.546 L253.794001,154.546 L253.794001,168.964 L259.320001,168.964 L259.320001,169.918 L243.480001,169.918 L243.480001,168.964 L248.970001,168.964 L248.970001,154.546 Z M257.898001,157.768 L258.762001,158.002 C258.042001,161.17 257.124001,163.924 255.990001,166.3 L255.108001,165.976 C256.170001,163.816 257.106001,161.08 257.898001,157.768 Z M244.812001,157.714 C245.766001,160.18 246.612001,163.006 247.368001,166.192 L246.468001,166.408 C245.820001,163.51 244.974001,160.702 243.966001,158.002 L244.812001,157.714 Z M269.256001,158.326 L270.120001,158.74 C269.364001,160.396 268.464001,161.836 267.438001,163.042 L266.646001,162.484 C267.654001,161.332 268.536001,159.946 269.256001,158.326 Z M274.008001,161.53 C273.126001,160.432 272.280001,159.532 271.488001,158.83 L272.118001,158.236 C272.838001,158.812 273.684001,159.694 274.656001,160.882 L274.008001,161.53 Z M268.968001,162.79 C269.760001,163.438 270.516001,164.104 271.218001,164.788 C271.686001,163.906 272.064001,162.952 272.370001,161.926 L273.234001,162.304 C272.892001,163.492 272.460001,164.554 271.956001,165.508 C272.748001,166.3 273.504001,167.092 274.188001,167.902 L273.522001,168.64 C272.838001,167.83 272.136001,167.074 271.452001,166.372 C270.336001,168.172 268.878001,169.576 267.096001,170.584 L266.502001,169.72 C268.248001,168.748 269.652001,167.38 270.732001,165.652 C269.940001,164.878 269.130001,164.158 268.320001,163.51 L268.968001,162.79 Z M270.750001,154.186 C271.074001,154.816 271.362001,155.536 271.632001,156.346 L275.052001,156.346 L275.052001,157.3 L266.808001,157.3 L266.808001,156.346 L270.678001,156.346 C270.390001,155.608 270.084001,154.942 269.760001,154.366 L270.750001,154.186 Z M277.338001,158.326 C277.194001,158.812 277.050001,159.28 276.906001,159.712 C277.374001,161.692 277.986001,163.42 278.742001,164.878 C279.714001,163.006 280.236001,160.828 280.290001,158.326 L277.338001,158.326 Z M278.202001,165.814 C277.464001,164.41 276.852001,162.826 276.366001,161.044 C276.006001,161.8 275.628001,162.502 275.214001,163.114 L274.602001,162.358 C275.862001,160.342 276.726001,157.642 277.194001,154.222 L278.148001,154.402 C278.004001,155.446 277.806001,156.436 277.590001,157.354 L282.846001,157.354 L282.846001,158.326 L281.226001,158.326 C281.136001,161.242 280.488001,163.762 279.282001,165.85 C280.344001,167.614 281.622001,168.946 283.116001,169.864 L282.522001,170.71 C281.028001,169.756 279.768001,168.424 278.724001,166.732 C277.590001,168.352 276.096001,169.702 274.242001,170.782 L273.684001,169.9 C275.628001,168.838 277.122001,167.47 278.202001,165.814 Z M290.550001,155.932 L297.786001,155.932 C297.498001,155.32 297.210001,154.78 296.886001,154.294 L297.876001,154.114 C298.182001,154.654 298.470001,155.266 298.740001,155.932 L305.850001,155.932 L305.850001,156.868 L298.344001,156.868 C297.768001,158.056 297.084001,158.974 296.310001,159.658 C297.246001,159.586 298.182001,159.514 299.118001,159.424 C299.550001,158.884 300.000001,158.308 300.468001,157.696 L301.314001,158.074 C299.478001,160.414 297.876001,162.142 296.508001,163.222 C297.876001,163.078 299.190001,162.88 300.450001,162.664 C300.216001,162.142 299.982001,161.656 299.748001,161.224 L300.594001,160.954 C301.188001,162.016 301.710001,163.15 302.142001,164.356 L301.278001,164.752 C301.098001,164.284 300.936001,163.834 300.774001,163.42 C299.946001,163.564 299.100001,163.708 298.272001,163.816 L298.686001,163.816 L298.686001,166.138 L306.174001,166.138 L306.174001,167.056 L298.686001,167.056 L298.686001,170.836 L297.714001,170.836 L297.714001,167.056 L290.262001,167.056 L290.262001,166.138 L297.714001,166.138 L297.714001,163.888 C296.832001,163.978 295.950001,164.068 295.050001,164.14 L294.852001,163.276 L295.230001,163.168 C296.148001,162.628 297.210001,161.656 298.434001,160.252 C297.390001,160.36 296.274001,160.45 295.104001,160.522 L294.924001,159.73 C295.950001,159.046 296.760001,158.092 297.336001,156.868 L290.550001,156.868 L290.550001,155.932 Z M293.592001,161.278 L294.330001,161.836 C293.394001,162.988 292.404001,163.942 291.378001,164.698 L290.730001,163.978 C291.792001,163.204 292.746001,162.304 293.592001,161.278 Z M291.558001,157.696 C292.566001,158.416 293.430001,159.154 294.132001,159.91 L293.448001,160.594 C292.800001,159.874 291.954001,159.118 290.892001,158.326 L291.558001,157.696 Z M302.862001,161.296 C303.978001,162.196 304.932001,163.096 305.688001,163.996 L304.968001,164.698 C304.284001,163.816 303.366001,162.88 302.214001,161.908 L302.862001,161.296 Z M304.500001,157.624 L305.274001,158.2 C304.464001,159.154 303.618001,159.946 302.736001,160.576 L302.106001,159.874 C302.988001,159.244 303.780001,158.488 304.500001,157.624 Z M327.270001,160.126 C326.586001,161.116 325.812001,162.052 324.966001,162.916 L324.660001,161.962 C326.676001,159.73 328.134001,157.228 329.016001,154.42 L329.898001,154.816 C329.448001,156.148 328.890001,157.408 328.242001,158.578 L328.242001,170.764 L327.270001,170.764 L327.270001,160.126 Z M329.736001,158.848 L333.552001,158.848 C333.570001,158.434 333.588001,158.02 333.588001,157.606 L333.588001,154.402 L334.542001,154.402 L334.542001,157.606 L334.506001,158.848 L340.662001,158.848 L340.662001,159.784 L336.792001,159.784 L336.792001,168.946 C336.792001,169.342 336.990001,169.558 337.422001,169.558 L339.114001,169.558 C339.330001,169.558 339.528001,169.45 339.672001,169.27 C339.852001,168.946 339.978001,167.92 340.032001,166.192 L340.914001,166.48 C340.806001,168.352 340.626001,169.522 340.374001,169.954 C340.122001,170.278 339.780001,170.458 339.348001,170.476 L337.152001,170.476 C336.288001,170.476 335.874001,170.026 335.874001,169.126 L335.874001,159.784 L334.452001,159.784 C334.056001,164.644 332.544001,168.298 329.898001,170.71 L329.160001,170.08 C331.680001,167.812 333.138001,164.392 333.498001,159.784 L329.736001,159.784 L329.736001,158.848 Z M336.918001,154.78 C338.052001,155.572 338.988001,156.364 339.744001,157.156 L339.078001,157.822 C338.394001,157.066 337.458001,156.256 336.270001,155.392 L336.918001,154.78 Z M353.820001,154.222 L354.738001,154.654 C354.090001,156.202 353.262001,157.642 352.272001,158.974 L352.272001,170.8 L351.300001,170.8 L351.300001,160.18 C350.436001,161.152 349.482001,162.088 348.438001,162.952 L348.132001,161.944 C350.760001,159.676 352.650001,157.102 353.820001,154.222 Z M361.938001,170.458 L358.428001,170.458 C357.312001,170.458 356.754001,169.882 356.754001,168.766 L356.754001,162.934 C355.908001,163.42 355.062001,163.87 354.198001,164.284 L353.730001,163.348 C354.792001,162.88 355.800001,162.358 356.754001,161.8 L356.754001,154.42 L357.726001,154.42 L357.726001,161.188 C359.706001,159.892 361.452001,158.38 362.928001,156.688 L363.594001,157.444 C361.938001,159.298 359.976001,160.936 357.726001,162.34 L357.726001,168.622 C357.726001,169.216 358.032001,169.522 358.662001,169.522 L361.776001,169.522 C362.280001,169.522 362.658001,169.36 362.892001,169.072 C363.126001,168.748 363.270001,167.65 363.342001,165.76 L364.242001,166.048 C364.134001,168.118 363.936001,169.378 363.630001,169.828 C363.306001,170.242 362.748001,170.458 361.938001,170.458 Z M372.864001,154.816 C373.944001,155.158 374.934001,155.572 375.834001,156.058 L375.312001,156.868 C374.358001,156.292 373.368001,155.86 372.360001,155.554 L372.864001,154.816 Z M378.858001,154.294 L379.812001,154.402 C379.668001,154.852 379.488001,155.266 379.290001,155.662 L386.688001,155.662 L386.688001,156.274 C386.472001,157.174 386.166001,158.038 385.788001,158.884 L384.852001,158.614 C385.194001,158.002 385.464001,157.3 385.680001,156.544 L382.296001,156.544 C382.206001,157.012 382.080001,157.462 381.936001,157.858 C382.908001,159.352 384.780001,160.378 387.588001,160.918 L387.246001,161.764 C384.546001,161.224 382.638001,160.198 381.558001,158.686 C381.306001,159.082 381.018001,159.46 380.694001,159.784 C379.812001,160.612 378.372001,161.26 376.392001,161.728 L376.014001,160.846 C377.832001,160.45 379.146001,159.91 379.956001,159.19 C380.676001,158.542 381.144001,157.66 381.378001,156.544 L378.750001,156.544 C378.264001,157.228 377.670001,157.84 376.950001,158.38 L376.356001,157.606 C377.598001,156.706 378.426001,155.59 378.858001,154.294 Z M385.464001,162.358 L385.464001,167.704 L384.474001,167.704 L384.474001,163.276 L375.042001,163.276 L375.042001,167.812 L374.052001,167.812 L374.052001,162.358 L385.464001,162.358 Z M379.398001,164.122 L380.388001,164.212 C380.136001,166.48 379.596001,168.028 378.732001,168.838 C377.796001,169.828 375.744001,170.458 372.594001,170.71 L372.198001,169.828 C375.078001,169.666 376.986001,169.144 377.922001,168.262 C378.750001,167.434 379.254001,166.066 379.398001,164.122 Z M375.492001,158.164 L376.068001,158.83 C375.168001,159.784 374.052001,160.684 372.720001,161.512 L372.072001,160.774 C373.440001,159.964 374.574001,159.1 375.492001,158.164 Z M380.856001,167.704 C383.196001,168.316 385.320001,169.09 387.246001,170.008 L386.724001,170.818 C384.654001,169.81 382.530001,169.018 380.352001,168.442 L380.856001,167.704 Z M396.156001,154.762 C397.452001,155.68 398.532001,156.598 399.396001,157.534 L398.730001,158.2 C397.938001,157.318 396.858001,156.382 395.490001,155.392 L396.156001,154.762 Z M395.832001,159.172 C397.038001,160.054 398.046001,160.936 398.856001,161.836 L398.190001,162.502 C397.452001,161.656 396.444001,160.756 395.166001,159.802 L395.832001,159.172 Z M398.190001,163.96 L399.036001,164.302 C398.208001,166.57 397.290001,168.712 396.282001,170.692 L395.364001,170.296 C396.444001,168.244 397.398001,166.12 398.190001,163.96 Z M402.870001,157.966 L405.534001,157.966 C405.786001,157.354 405.984001,156.706 406.092001,156.04 L401.376001,156.04 L401.376001,161.692 C401.304001,165.436 400.638001,168.46 399.342001,170.728 L398.604001,170.08 C399.774001,168.064 400.386001,165.256 400.440001,161.692 L400.440001,155.158 L411.078001,155.158 L411.078001,156.04 L407.010001,156.04 C406.866001,156.706 406.686001,157.354 406.434001,157.966 L410.088001,157.966 L410.088001,164.086 L406.992001,164.086 L406.992001,169.414 C406.992001,170.278 406.560001,170.71 405.732001,170.71 L404.220001,170.71 L404.022001,169.81 C404.490001,169.846 404.958001,169.882 405.408001,169.882 C405.840001,169.882 406.074001,169.648 406.074001,169.198 L406.074001,164.086 L402.870001,164.086 L402.870001,157.966 Z M409.206001,163.276 L409.206001,161.422 L403.752001,161.422 L403.752001,163.276 L409.206001,163.276 Z M403.752001,160.648 L409.206001,160.648 L409.206001,158.758 L403.752001,158.758 L403.752001,160.648 Z M403.446001,165.508 L404.346001,165.688 C403.878001,167.29 403.194001,168.676 402.312001,169.828 L401.520001,169.324 C402.384001,168.208 403.032001,166.93 403.446001,165.508 Z M409.260001,165.436 C410.034001,166.696 410.700001,168.028 411.276001,169.45 L410.448001,169.81 C409.836001,168.262 409.152001,166.894 408.432001,165.706 L409.260001,165.436 Z M434.712001,165.958 C434.604001,167.794 434.388001,169 434.100001,169.54 C433.812001,170.08 433.254001,170.35 432.444001,170.35 L429.006001,170.35 C428.142001,170.35 427.710001,169.792 427.710001,168.712 L427.710001,161.296 L432.732001,161.296 L432.732001,156.148 L427.332001,156.148 L427.332001,155.212 L433.668001,155.212 L433.668001,162.232 L428.682001,162.232 L428.682001,168.406 C428.682001,169.072 428.898001,169.414 429.330001,169.432 L432.282001,169.432 C432.858001,169.432 433.236001,169.162 433.416001,168.658 C433.560001,168.154 433.686001,167.164 433.758001,165.652 L434.712001,165.958 Z M418.566001,155.194 L426.630001,155.194 L426.630001,156.13 L424.182001,156.13 L424.182001,158.506 L426.324001,158.506 L426.324001,170.692 L425.424001,170.692 L425.424001,169.63 L419.970001,169.63 L419.970001,170.692 L419.088001,170.692 L419.088001,158.506 L421.086001,158.506 L421.086001,156.13 L418.566001,156.13 L418.566001,155.194 Z M419.970001,168.694 L425.424001,168.694 L425.424001,166.696 L419.970001,166.696 L419.970001,168.694 Z M421.248001,159.406 L419.970001,159.406 L419.970001,165.796 L425.424001,165.796 L425.424001,163.96 L424.326001,163.96 C423.624001,163.96 423.282001,163.564 423.282001,162.79 L423.282001,159.406 L421.950001,159.406 L421.950001,160.72 C421.932001,162.646 421.518001,164.05 420.726001,164.932 L420.168001,164.446 C420.870001,163.672 421.230001,162.43 421.248001,160.72 L421.248001,159.406 Z M421.932001,158.506 L423.318001,158.506 L423.318001,156.13 L421.932001,156.13 L421.932001,158.506 Z M425.424001,163.186 L425.424001,159.406 L424.002001,159.406 L424.002001,162.628 C424.002001,162.988 424.164001,163.186 424.488001,163.186 L425.424001,163.186 Z M442.290001,159.478 L449.436001,159.478 L449.544001,158.29 L443.586001,158.29 L443.586001,155.068 L456.438001,155.068 L456.438001,158.29 L450.534001,158.29 C450.498001,158.686 450.444001,159.082 450.390001,159.478 L457.716001,159.478 L457.716001,160.252 L450.282001,160.252 C450.210001,160.666 450.120001,161.062 450.048001,161.44 L455.376001,161.44 L455.376001,169.468 L458.022001,169.468 L458.022001,170.26 L441.984001,170.26 L441.984001,169.468 L444.630001,169.468 L444.630001,161.44 L449.094001,161.44 C449.184001,161.044 449.256001,160.648 449.328001,160.252 L442.290001,160.252 L442.290001,159.478 Z M445.602001,169.468 L454.422001,169.468 L454.422001,168.082 L445.602001,168.082 L445.602001,169.468 Z M445.602001,167.416 L454.422001,167.416 L454.422001,166.102 L445.602001,166.102 L445.602001,167.416 Z M445.602001,165.454 L454.422001,165.454 L454.422001,164.122 L445.602001,164.122 L445.602001,165.454 Z M445.602001,163.474 L454.422001,163.474 L454.422001,162.16 L445.602001,162.16 L445.602001,163.474 Z M455.502001,157.552 L455.502001,155.842 L452.478001,155.842 L452.478001,157.552 L455.502001,157.552 Z M451.596001,157.552 L451.596001,155.842 L448.428001,155.842 L448.428001,157.552 L451.596001,157.552 Z M447.528001,157.552 L447.528001,155.842 L444.504001,155.842 L444.504001,157.552 L447.528001,157.552 Z" id="用技术提升行业效率-优化资源配置" opacity="0.699999988"></path>
        </g>
    </g>
</svg>