<?xml version="1.0" encoding="UTF-8"?>
<svg width="12px" height="16px" viewBox="0 0 12 16" version="1.1" xmlns="http://www.w3.org/2000/svg" xmlns:xlink="http://www.w3.org/1999/xlink">
    <!-- Generator: Sketch 48.2 (47327) - http://www.bohemiancoding.com/sketch -->
    <title>地标</title>
    <desc>Created with Sketch.</desc>
    <defs></defs>
    <g id="差旅首页2" stroke="none" stroke-width="1" fill="none" fill-rule="evenodd" transform="translate(-1259.000000, -3768.000000)">
        <g id="Group-6" transform="translate(120.000000, 3757.000000)" fill="#A0A0A0" fill-rule="nonzero">
            <g id="Group-19" transform="translate(1139.000000, 10.000000)">
                <g id="地图-copy" transform="translate(0.000000, 1.000000)">
                    <path d="M0.0255554473,6.18422896 C0.0255554473,6.09649924 0.0212962061,6.01316519 0.0127777236,5.9342268 C0.00425924121,5.85528842 0,5.77195437 0,5.68422465 C0,4.89474901 0.149055621,4.15791119 0.447166864,3.4737112 C0.745278107,2.78951121 1.14985256,2.18863609 1.66089022,1.67108584 C2.17192788,1.1535356 2.76815037,0.74563832 3.44955767,0.447394004 C4.13096498,0.149149688 4.86346537,1.83534964e-05 5.64705882,0 C6.43065228,-1.83534964e-05 7.16315266,0.149112981 7.84455997,0.447394004 C8.52596728,0.745675027 9.12218977,1.15357231 9.63322743,1.67108584 C10.1442651,2.18859938 10.5488395,2.7894745 10.8469508,3.4737112 C11.145062,4.1579479 11.2941176,4.89478571 11.2941176,5.68422465 L11.2941176,6.00002409 C11.2941176,6.10528139 11.2855992,6.21054787 11.2685622,6.31582352 C11.1663582,7.24564836 10.9662006,8.13599482 10.6680894,8.98686291 C10.3699781,9.837731 9.99095023,10.6579029 9.53100564,11.4473785 C9.07106105,12.2368542 8.54297751,12.9956244 7.94675503,13.7236893 C7.35053254,14.4517541 6.71171765,15.1491136 6.03031034,15.8157676 C5.91105158,15.9385892 5.78328326,16 5.64700536,16 C5.51072746,16 5.38295914,15.9385892 5.26370038,15.8157676 C4.56525611,15.1490952 3.91793164,14.4473401 3.32172698,13.7105023 C2.72552231,12.9736645 2.19743877,12.2017347 1.73747637,11.3947132 C1.27751396,10.5876916 0.898486042,9.74997376 0.600392621,8.88155973 C0.302299199,8.01314569 0.110651166,7.11402626 0.0254485207,6.18420143 L0.0255554473,6.18422896 Z M5.63379163,3.33333333 C5.27966664,3.33333333 4.95210381,3.39251948 4.65110312,3.51089177 C4.35010244,3.62926406 4.08894498,3.79411322 3.86763075,4.00543925 C3.64631653,4.21676528 3.46925403,4.46615723 3.33644327,4.75361511 C3.2036325,5.04107299 3.13723638,5.34542351 3.13725491,5.66666667 C3.13727343,5.98790982 3.20366955,6.29226034 3.33644327,6.57971822 C3.46921698,6.8671761 3.64627948,7.11656805 3.86763075,7.32789408 C4.08898203,7.53922011 4.35013948,7.70406927 4.65110312,7.82244156 C4.95206676,7.94081385 5.2796296,8 5.63379163,8 C5.98795367,8 6.31993427,7.94081385 6.62973344,7.82244156 C6.93953261,7.70406927 7.20511709,7.53922011 7.42648688,7.32789408 C7.64785668,7.11656805 7.82491917,6.8671761 7.95767437,6.57971822 C8.09042956,6.29226034 8.15682568,5.98790982 8.15686273,5.66666667 C8.15689978,5.34542351 8.09050366,5.04107299 7.95767437,4.75361511 C7.82484508,4.46615723 7.64778259,4.21676528 7.42648688,4.00543925 C7.20519118,3.79411322 6.9396067,3.62926406 6.62973344,3.51089177 C6.31986018,3.39251948 5.98787958,3.33333333 5.63379163,3.33333333 Z" id="Shape"></path>
                </g>
            </g>
        </g>
    </g>
</svg>