<?xml version="1.0" encoding="UTF-8"?>
<svg width="320px" height="150px" viewBox="0 0 320 150" version="1.1" xmlns="http://www.w3.org/2000/svg" xmlns:xlink="http://www.w3.org/1999/xlink">
    <!-- Generator: Sketch 48.2 (47327) - http://www.bohemiancoding.com/sketch -->
    <title>member-3@2x</title>
    <desc>Created with Sketch.</desc>
    <defs>
        <linearGradient x1="60.1848279%" y1="4.24401467%" x2="39.7437659%" y2="100%" id="linearGradient-1">
            <stop stop-color="#E8D6AC" offset="0%"></stop>
            <stop stop-color="#C09E61" offset="100%"></stop>
        </linearGradient>
    </defs>
    <g id="白金会员文字更新" stroke="none" stroke-width="1" fill="none" fill-rule="evenodd">
        <g id="member-3">
            <g id="Rectangle-5-Copy">
                <g id="Mask">
                    <g id="path-3-link" fill="#000000" fill-rule="nonzero">
                        <rect id="path-3" x="0" y="0" width="320" height="540" rx="5"></rect>
                    </g>
                    <g id="path-3-link" fill="#FFFFFF">
                        <rect id="path-3" x="0" y="0" width="320" height="540" rx="5"></rect>
                    </g>
                </g>
            </g>
            <path d="M5,0 L315,0 C317.76142,0 320,2.23858 320,5 L320,150 L0,150 L0,5 C0,2.23858 2.23858,0 5,0 Z" id="Rectangle-5-Copy-2" fill="url(#linearGradient-1)" fill-rule="nonzero"></path>
            <g id="黄金会员企业" transform="translate(88.000000, 110.000000)" fill="#FFFFFF">
                <path d="M1.736,2.48 L6.656,2.48 L6.656,0.44 L8.312,0.44 L8.312,2.48 L13.592,2.48 L13.592,0.416 L15.248,0.416 L15.248,2.48 L20.36,2.48 L20.36,4.016 L15.248,4.016 L15.248,6.176 L21.632,6.176 L21.632,7.736 L11.84,7.736 L11.84,9.584 L18.896,9.584 L18.896,17.96 L3.104,17.96 L3.104,9.584 L10.16,9.584 L10.16,7.736 L0.392,7.736 L0.392,6.176 L6.656,6.176 L6.656,4.016 L1.736,4.016 L1.736,2.48 Z M13.592,6.176 L13.592,4.016 L8.312,4.016 L8.312,6.176 L13.592,6.176 Z M17.216,16.472 L17.216,14.456 L11.84,14.456 L11.84,16.472 L17.216,16.472 Z M10.16,16.472 L10.16,14.456 L4.784,14.456 L4.784,16.472 L10.16,16.472 Z M4.784,13.016 L10.16,13.016 L10.16,11.048 L4.784,11.048 L4.784,13.016 Z M11.84,11.048 L11.84,13.016 L17.216,13.016 L17.216,11.048 L11.84,11.048 Z M13.88,18.248 C16.712,18.968 19.304,19.88 21.656,20.936 L20.744,22.376 C18.248,21.152 15.68,20.192 13.04,19.496 L13.88,18.248 Z M7.688,18.104 L8.696,19.256 C6.68,20.504 4.136,21.536 1.088,22.352 L0.368,20.84 C3.32,20.144 5.768,19.232 7.688,18.104 Z M28.712,7.256 C27.56,7.952 26.36,8.6 25.112,9.176 L24.104,7.736 C28.28,5.864 31.688,3.488 34.328,0.584 L35.72,0.584 C38.024,3.44 41.408,5.792 45.872,7.664 L44.888,9.104 C43.616,8.576 42.44,7.976 41.336,7.328 L41.336,8.648 L35.888,8.648 L35.888,12.104 L44.432,12.104 L44.432,13.712 L35.888,13.712 L35.888,20.12 L38.552,20.12 C39.368,18.56 40.088,16.88 40.712,15.08 L42.296,15.632 C41.696,17.312 41.024,18.824 40.304,20.12 L45.272,20.12 L45.272,21.776 L24.752,21.776 L24.752,20.12 L29.72,20.12 C29.216,18.584 28.568,17.168 27.8,15.824 L29.36,15.248 C30.104,16.592 30.776,18.224 31.4,20.12 L34.16,20.12 L34.16,13.712 L25.592,13.712 L25.592,12.104 L34.16,12.104 L34.16,8.648 L28.712,8.648 L28.712,7.256 Z M40.928,7.088 C38.576,5.696 36.608,4.064 35.024,2.216 C33.224,4.088 31.208,5.72 28.976,7.088 L40.928,7.088 Z M58.376,0.392 L59.624,0.392 C62.672,3.8 66.176,6.488 70.136,8.456 L69.2,10.112 C65.216,8.024 61.832,5.288 59,1.928 C56.408,5.096 52.976,7.832 48.704,10.136 L47.792,8.48 C52.016,6.32 55.544,3.632 58.376,0.392 Z M53.144,7.76 L64.928,7.76 L64.928,9.392 L53.144,9.392 L53.144,7.76 Z M49.376,12.584 L68.672,12.584 L68.672,14.264 L57.368,14.264 C56.216,16.52 54.824,18.488 53.192,20.192 C57.104,19.952 60.824,19.616 64.376,19.136 C63.56,18.08 62.672,16.976 61.688,15.872 L63.032,15.008 C65.216,17.456 66.896,19.568 68.072,21.368 L66.632,22.376 C66.224,21.728 65.792,21.08 65.312,20.408 C61.568,21.008 56.84,21.488 51.104,21.824 L50.624,20.312 C51.056,20.192 51.344,20.048 51.536,19.856 C53.072,18.08 54.368,16.232 55.4,14.264 L49.376,14.264 L49.376,12.584 Z M91.088,9.104 L91.088,18.056 L89.384,18.056 L89.384,10.688 L76.64,10.688 L76.64,18.344 L74.936,18.344 L74.936,9.104 L91.088,9.104 Z M76.376,1.28 L89.648,1.28 L89.648,7.304 L76.376,7.304 L76.376,1.28 Z M87.968,5.792 L87.968,2.816 L78.056,2.816 L78.056,5.792 L87.968,5.792 Z M82.352,12.248 L84.104,12.392 C83.768,15.92 83.024,18.296 81.872,19.544 C80.624,21.032 77.768,21.992 73.304,22.4 L72.632,20.84 C76.52,20.6 79.112,19.832 80.384,18.512 C81.488,17.288 82.16,15.2 82.352,12.248 Z M84.728,17.816 C87.848,18.704 90.704,19.784 93.296,21.032 L92.36,22.472 C89.6,21.032 86.768,19.928 83.864,19.112 L84.728,17.816 Z M106.376,0.464 L107.624,0.464 C110.672,3.824 114.176,6.464 118.136,8.384 L117.2,10.04 C113.216,8 109.832,5.312 107,2 C104.408,5.12 100.976,7.808 96.704,10.064 L95.792,8.408 C100.016,6.296 103.544,3.632 106.376,0.464 Z M106.808,6.8 L108.56,6.8 L108.56,12.2 L115.112,12.2 L115.112,13.856 L108.56,13.856 L108.56,19.76 L116.84,19.76 L116.84,21.44 L96.872,21.44 L96.872,19.76 L100.496,19.76 L100.496,10.256 L102.2,10.256 L102.2,19.76 L106.808,19.76 L106.808,6.8 Z M127.52,0.632 L129.272,0.632 L129.272,19.712 L132.68,19.712 L132.68,0.632 L134.432,0.632 L134.432,19.712 L141.632,19.712 L141.632,21.392 L120.368,21.392 L120.368,19.712 L127.52,19.712 L127.52,0.632 Z M139.448,5 L140.984,5.432 C140.024,9.608 138.824,13.256 137.36,16.4 L135.8,15.848 C137.192,13.016 138.416,9.392 139.448,5 Z M122.432,4.952 C123.68,8.192 124.808,11.912 125.792,16.112 L124.208,16.52 C123.344,12.68 122.264,8.984 120.968,5.432 L122.432,4.952 Z"></path>
            </g>
            <g id="Group-5-Copy" transform="translate(101.000000, 13.000000)" fill="#FFFFFF" fill-rule="nonzero">
                <g id="会员-copy">
                    <path d="M76.6099987,7.58907056e-16 C76.6099987,7.58907056e-16 76.3350999,5.19507657 78.8091894,7.71058733 C81.283279,10.1714131 86.5613367,9.897988 86.5613367,9.897988 C86.5613367,9.897988 81.3932385,9.73393295 78.919149,12.1947587 C76.4450594,14.6555844 76.6099987,19.795976 76.6099987,19.795976 C76.6099987,19.795976 76.774938,14.4915294 74.2458687,11.9213336 C71.8267589,9.51519288 66.6586607,9.897988 66.6586607,9.897988 C66.6586607,9.897988 71.4419005,9.95267301 73.9159901,7.54653228 C76.4450594,4.97633651 76.6099987,0 76.6099987,0 Z M97.5572902,10.9916883 C97.5572902,10.9916883 97.3923509,14.5462144 99.041744,16.2414499 C100.746117,17.9366854 104.319802,17.7179454 104.319802,17.7179454 C104.319802,17.7179454 100.801097,17.6085753 99.0967237,19.3038108 C97.3923509,20.9990464 97.5023105,24.4988874 97.5023105,24.4988874 C97.5023105,24.4988874 97.61227,20.8896763 95.9078972,19.1397558 C94.2585042,17.4992053 90.739799,17.7726304 90.739799,17.7726304 C90.739799,17.7726304 94.0385851,17.8273154 95.6879781,16.1320799 C97.4473307,14.4368444 97.5572902,10.9916883 97.5572902,10.9916883 Z M17.5572902,21 C17.5572902,21 17.3923509,24.5545261 19.041744,26.2497616 C20.7461168,27.9449971 24.3198017,27.726257 24.3198017,27.726257 C24.3198017,27.726257 20.8010965,27.616887 19.0967237,29.3121225 C17.3923509,31.007358 17.5023105,34.5071991 17.5023105,34.5071991 C17.5023105,34.5071991 17.61227,30.897988 15.9078972,29.1480675 C14.2585042,27.507517 10.739799,27.7809421 10.739799,27.7809421 C10.739799,27.7809421 14.0385851,27.8356271 15.6879781,26.1403916 C17.4473307,24.445156 17.5572902,21 17.5572902,21 Z M10.8344029,28 C10.8344029,28 10.5901786,33.2631579 13.0324215,35.7732794 C15.5560724,38.2834008 20.8475986,37.9595142 20.8475986,37.9595142 C20.8475986,37.9595142 15.6374805,37.7975709 13.1138296,40.3076923 C10.5901786,42.8178138 10.7529948,48 10.7529948,48 C10.7529948,48 10.915811,42.6558704 8.39216001,40.0647773 C5.94991715,37.6356275 0.739799025,38.0404858 0.739799025,38.0404858 C0.739799025,38.0404858 5.62428476,38.1214575 8.06652763,35.611336 C10.6715867,33.1012146 10.8344029,28 10.8344029,28 Z" id="Shape"></path>
                    <path d="M80.8895498,21.8473377 L37.3736081,21.8473377 L21.0649309,38.0685828 L59.1315789,75.9701457 L97.198227,38.0685828 L80.8895498,21.8473377 Z M77.8316728,40.7201325 C77.8316728,41.1100662 77.5572479,41.4220132 77.204416,41.4220132 L76.5771592,41.4220132 C75.6754775,41.4220132 75.714681,41.5779868 75.283442,42.123894 C72.0295472,46.3741722 59.1707825,63.1803179 59.1707825,63.1803179 C59.1707825,63.1413245 59.1315789,63.1413245 59.1315789,63.1023311 L59.1315789,63.1803179 C59.1315789,63.1803179 46.2336107,46.3741722 43.0189195,42.123894 C42.5876804,41.5779868 42.626884,41.4220132 41.7252023,41.4220132 L41.0979455,41.4220132 C40.7451135,41.4220132 40.4706886,41.1100662 40.4706886,40.7201325 L40.4706886,37.2497219 C40.4706886,36.8597881 40.7843171,36.5478411 41.0979455,36.5478411 L47.5273278,36.5478411 C47.8801598,36.5478411 48.389806,36.5868344 48.821045,37.2497219 L59.1315789,51.3263311 L59.1315789,51.3653245 C59.1315789,51.3263311 59.1707825,51.3263311 59.1707825,51.3263311 L69.4813164,37.2497219 C69.9125555,36.6258278 70.4222016,36.5478411 70.7750336,36.5478411 L77.204416,36.5478411 C77.5572479,36.5478411 77.8316728,36.8597881 77.8316728,37.2497219 L77.8316728,40.7201325 Z" id="Shape"></path>
                </g>
            </g>
        </g>
    </g>
</svg>