<?xml version="1.0" encoding="UTF-8"?>
<svg width="320px" height="150px" viewBox="0 0 320 150" version="1.1" xmlns="http://www.w3.org/2000/svg" xmlns:xlink="http://www.w3.org/1999/xlink">
    <!-- Generator: Sketch 48.2 (47327) - http://www.bohemiancoding.com/sketch -->
    <title>member-1@2x</title>
    <desc>Created with Sketch.</desc>
    <defs>
        <linearGradient x1="58.5720438%" y1="0%" x2="45.4974656%" y2="106.150004%" id="linearGradient-1">
            <stop stop-color="#ADDEE3" offset="0%"></stop>
            <stop stop-color="#93D0DA" offset="100%"></stop>
        </linearGradient>
    </defs>
    <g id="白金会员文字更新" stroke="none" stroke-width="1" fill="none" fill-rule="evenodd">
        <g id="member-1">
            <g id="Rectangle-5">
                <g id="Mask">
                    <g id="path-3-link" fill="#000000" fill-rule="nonzero">
                        <rect id="path-3" x="0" y="0" width="320" height="540" rx="5"></rect>
                    </g>
                    <g id="path-3-link" fill="#FFFFFF">
                        <rect id="path-3" x="0" y="0" width="320" height="540" rx="5"></rect>
                    </g>
                </g>
            </g>
            <path d="M5,0 L315,0 C317.761424,0 320,2.23858 320,5 L320,150 L0,150 L0,5 C0,2.23858 2.238576,0 5,0 Z" id="Rectangle-5" fill="url(#linearGradient-1)" fill-rule="nonzero"></path>
            <g id="普通会员企业" transform="translate(88.000000, 110.000000)" fill="#FFFFFF">
                <path d="M7.856,4.592 L1.352,4.592 L1.352,2.984 L6.464,2.984 C6.08,2.144 5.672,1.376 5.24,0.68 L7.04,0.392 C7.472,1.16 7.904,2.024 8.288,2.984 L13.328,2.984 C13.904,2.096 14.432,1.184 14.888,0.224 L16.544,0.8 C16.136,1.616 15.704,2.336 15.224,2.984 L20.648,2.984 L20.648,4.592 L14.12,4.592 L14.12,9.296 L21.56,9.296 L21.56,10.928 L0.44,10.928 L0.44,9.296 L7.856,9.296 L7.856,4.592 Z M12.464,4.592 L9.512,4.592 L9.512,9.296 L12.464,9.296 L12.464,4.592 Z M18.056,5.216 L19.448,5.864 C18.92,6.968 18.224,8.024 17.384,9.032 L16.016,8.336 C16.88,7.28 17.552,6.248 18.056,5.216 Z M4.376,5.264 C5,6.248 5.528,7.304 5.984,8.408 L4.52,9.056 C4.04,7.808 3.488,6.728 2.864,5.768 L4.376,5.264 Z M18.32,12.68 L18.32,22.376 L16.664,22.376 L16.664,21.248 L5.288,21.248 L5.288,22.376 L3.632,22.376 L3.632,12.68 L18.32,12.68 Z M5.288,19.784 L16.664,19.784 L16.664,17.696 L5.288,17.696 L5.288,19.784 Z M5.288,16.304 L16.664,16.304 L16.664,14.12 L5.288,14.12 L5.288,16.304 Z M26.024,0.776 C27.68,2.024 29.072,3.272 30.2,4.52 L28.976,5.72 C27.968,4.52 26.6,3.248 24.848,1.904 L26.024,0.776 Z M40.064,21.968 C38.744,21.968 37.304,21.944 35.768,21.92 C34.208,21.896 32.936,21.752 31.976,21.488 C31.016,21.2 30.152,20.6 29.408,19.736 C29.072,19.328 28.76,19.136 28.472,19.136 C27.896,19.136 26.936,20.24 25.616,22.448 L24.32,21.272 C25.592,19.256 26.72,18.032 27.704,17.6 L27.704,10.304 L24.296,10.304 L24.296,8.72 L29.312,8.72 L29.312,17.696 C29.504,17.84 29.696,18.008 29.912,18.248 C30.488,18.944 31.112,19.448 31.784,19.76 C32.552,20.096 33.632,20.288 35.072,20.336 C36.344,20.36 37.928,20.384 39.824,20.384 C40.928,20.384 42.08,20.36 43.256,20.336 C44.408,20.312 45.296,20.288 45.92,20.24 L45.512,21.968 L40.064,21.968 Z M35.768,3.08 C36.776,3.68 37.712,4.28 38.528,4.88 C39.776,4.232 40.928,3.512 41.984,2.696 L31.328,2.696 L31.328,1.232 L44.312,1.232 L44.312,2.48 C42.872,3.728 41.312,4.808 39.632,5.72 L40.016,6.032 L44.768,6.032 L44.768,16.76 C44.768,17.984 44.096,18.608 42.752,18.608 L40.76,18.608 L40.376,17.144 L42.272,17.216 C42.848,17.216 43.136,16.928 43.136,16.4 L43.136,14.6 L39.104,14.6 L39.104,18.728 L37.496,18.728 L37.496,14.6 L33.488,14.6 L33.488,18.8 L31.856,18.8 L31.856,6.032 L37.856,6.032 C36.944,5.384 35.888,4.736 34.712,4.112 L35.768,3.08 Z M33.488,11.072 L33.488,13.184 L37.496,13.184 L37.496,11.072 L33.488,11.072 Z M39.104,11.072 L39.104,13.184 L43.136,13.184 L43.136,11.072 L39.104,11.072 Z M43.136,9.632 L43.136,7.472 L39.104,7.472 L39.104,9.632 L43.136,9.632 Z M37.496,9.632 L37.496,7.472 L33.488,7.472 L33.488,9.632 L37.496,9.632 Z M58.376,0.392 L59.624,0.392 C62.672,3.8 66.176,6.488 70.136,8.456 L69.2,10.112 C65.216,8.024 61.832,5.288 59,1.928 C56.408,5.096 52.976,7.832 48.704,10.136 L47.792,8.48 C52.016,6.32 55.544,3.632 58.376,0.392 Z M53.144,7.76 L64.928,7.76 L64.928,9.392 L53.144,9.392 L53.144,7.76 Z M49.376,12.584 L68.672,12.584 L68.672,14.264 L57.368,14.264 C56.216,16.52 54.824,18.488 53.192,20.192 C57.104,19.952 60.824,19.616 64.376,19.136 C63.56,18.08 62.672,16.976 61.688,15.872 L63.032,15.008 C65.216,17.456 66.896,19.568 68.072,21.368 L66.632,22.376 C66.224,21.728 65.792,21.08 65.312,20.408 C61.568,21.008 56.84,21.488 51.104,21.824 L50.624,20.312 C51.056,20.192 51.344,20.048 51.536,19.856 C53.072,18.08 54.368,16.232 55.4,14.264 L49.376,14.264 L49.376,12.584 Z M91.088,9.104 L91.088,18.056 L89.384,18.056 L89.384,10.688 L76.64,10.688 L76.64,18.344 L74.936,18.344 L74.936,9.104 L91.088,9.104 Z M76.376,1.28 L89.648,1.28 L89.648,7.304 L76.376,7.304 L76.376,1.28 Z M87.968,5.792 L87.968,2.816 L78.056,2.816 L78.056,5.792 L87.968,5.792 Z M82.352,12.248 L84.104,12.392 C83.768,15.92 83.024,18.296 81.872,19.544 C80.624,21.032 77.768,21.992 73.304,22.4 L72.632,20.84 C76.52,20.6 79.112,19.832 80.384,18.512 C81.488,17.288 82.16,15.2 82.352,12.248 Z M84.728,17.816 C87.848,18.704 90.704,19.784 93.296,21.032 L92.36,22.472 C89.6,21.032 86.768,19.928 83.864,19.112 L84.728,17.816 Z M106.376,0.464 L107.624,0.464 C110.672,3.824 114.176,6.464 118.136,8.384 L117.2,10.04 C113.216,8 109.832,5.312 107,2 C104.408,5.12 100.976,7.808 96.704,10.064 L95.792,8.408 C100.016,6.296 103.544,3.632 106.376,0.464 Z M106.808,6.8 L108.56,6.8 L108.56,12.2 L115.112,12.2 L115.112,13.856 L108.56,13.856 L108.56,19.76 L116.84,19.76 L116.84,21.44 L96.872,21.44 L96.872,19.76 L100.496,19.76 L100.496,10.256 L102.2,10.256 L102.2,19.76 L106.808,19.76 L106.808,6.8 Z M127.52,0.632 L129.272,0.632 L129.272,19.712 L132.68,19.712 L132.68,0.632 L134.432,0.632 L134.432,19.712 L141.632,19.712 L141.632,21.392 L120.368,21.392 L120.368,19.712 L127.52,19.712 L127.52,0.632 Z M139.448,5 L140.984,5.432 C140.024,9.608 138.824,13.256 137.36,16.4 L135.8,15.848 C137.192,13.016 138.416,9.392 139.448,5 Z M122.432,4.952 C123.68,8.192 124.808,11.912 125.792,16.112 L124.208,16.52 C123.344,12.68 122.264,8.984 120.968,5.432 L122.432,4.952 Z"></path>
            </g>
            <g id="Group-5" opacity="0.800000012" transform="translate(122.000000, 34.000000)" fill="#FFFFFF" fill-rule="nonzero">
                <g id="会员-copy">
                    <path d="M59.704384,0.8014329 L16.3229844,0.8014329 L0.0647301289,16.9725253 L38.0136842,54.7569047 L75.9626383,16.9725253 L59.704384,0.8014329 Z M56.6559613,19.615877 C56.6559613,20.0046052 56.382385,20.3155877 56.0306439,20.3155877 L55.4053264,20.3155877 C54.5064325,20.3155877 54.5455149,20.471079 54.1156091,21.0152984 C50.8717747,25.2524356 38.0527666,42.0066203 38.0527666,42.0066203 C38.0527666,41.9677475 38.0136842,41.9677475 38.0136842,41.9288746 L38.0136842,42.0066203 C38.0136842,42.0066203 25.1555937,25.2524356 21.9508416,21.0152984 C21.5209359,20.471079 21.5600182,20.3155877 20.6611244,20.3155877 L20.0358069,20.3155877 C19.6840658,20.3155877 19.4104894,20.0046052 19.4104894,19.615877 L19.4104894,16.1561961 C19.4104894,15.767468 19.7231482,15.4564854 20.0358069,15.4564854 L26.445311,15.4564854 C26.7970521,15.4564854 27.3051225,15.4953582 27.7350283,16.1561961 L38.0136842,30.1892835 L38.0136842,30.2281564 C38.0136842,30.1892835 38.0527666,30.1892835 38.0527666,30.1892835 L48.3314225,16.1561961 C48.7613283,15.5342311 49.2693987,15.4564854 49.6211398,15.4564854 L56.0306439,15.4564854 C56.382385,15.4564854 56.6559613,15.767468 56.6559613,16.1561961 L56.6559613,19.615877 Z" id="Shape"></path>
                </g>
            </g>
        </g>
    </g>
</svg>