<?xml version="1.0" encoding="UTF-8"?>
<svg width="50px" height="50px" viewBox="0 0 50 50" version="1.1" xmlns="http://www.w3.org/2000/svg" xmlns:xlink="http://www.w3.org/1999/xlink">
    <!-- Generator: Sketch 46.2 (44496) - http://www.bohemiancoding.com/sketch -->
    <title>预订快</title>
    <desc>Created with Sketch.</desc>
    <defs></defs>
    <g id="蜘蛛差旅" stroke="none" stroke-width="1" fill="none" fill-rule="evenodd" opacity="0.800000012">
        <g id="差旅首页2" transform="translate(-828.000000, -746.000000)" fill="#FFFFFF">
            <g id="预订快" transform="translate(828.000000, 746.000000)">
                <g id="酒店酒店管理">
                    <path d="M50,25 C50,11.1928813 38.8071188,0 25,0 C11.1928813,0 0,11.1928813 0,25 C0,38.8071188 11.1928813,50 25,50 C30.5510947,50 35.829442,48.1845787 40.1509779,44.8874616 C40.6282425,44.5233325 40.7199569,43.8412481 40.3558278,43.3639835 C39.9916986,42.8867189 39.3096143,42.7950045 38.8323497,43.1591336 C34.8864217,46.1696805 30.0704112,47.826087 25,47.826087 C12.3935003,47.826087 2.17391304,37.6064997 2.17391304,25 C2.17391304,12.3935003 12.3935003,2.17391304 25,2.17391304 C37.6064997,2.17391304 47.826087,12.3935003 47.826087,25 C47.826087,29.25036 46.6636091,33.3271984 44.4979672,36.8750638 C44.1851984,37.3874574 44.3470265,38.0563836 44.8594201,38.3691523 C45.3718138,38.681921 46.04074,38.520093 46.3535086,38.0076994 C48.7259131,34.1211052 50,29.6528513 50,25 L50,25 Z" id="Shape"></path>
                    <path d="M26.5248092,25 L26.5248092,10 L16,25.2921225 L23,25.2921225 L23,40.2921225 L33.5248092,25 L26.5248092,25 Z" id="Combined-Shape"></path>
                </g>
            </g>
        </g>
    </g>
</svg>