<?xml version="1.0" encoding="UTF-8"?>
<svg width="50px" height="50px" viewBox="0 0 50 50" version="1.1" xmlns="http://www.w3.org/2000/svg" xmlns:xlink="http://www.w3.org/1999/xlink">
    <!-- Generator: Sketch 46.2 (44496) - http://www.bohemiancoding.com/sketch -->
    <title>财力省</title>
    <desc>Created with Sketch.</desc>
    <defs></defs>
    <g id="蜘蛛差旅" stroke="none" stroke-width="1" fill="none" fill-rule="evenodd" opacity="0.800000012">
        <g id="差旅首页2" transform="translate(-548.000000, -746.000000)" fill="#FFFFFF">
            <g id="财力省" transform="translate(548.000000, 746.000000)">
                <path d="M50,25 C50,11.1928813 38.8071188,0 25,0 C11.1928813,0 0,11.1928813 0,25 C0,38.8071188 11.1928813,50 25,50 C30.5510947,50 35.829442,48.1845787 40.1509779,44.8874616 C40.6282425,44.5233325 40.7199569,43.8412481 40.3558278,43.3639835 C39.9916986,42.8867189 39.3096143,42.7950045 38.8323497,43.1591336 C34.8864217,46.1696805 30.0704112,47.826087 25,47.826087 C12.3935003,47.826087 2.17391304,37.6064997 2.17391304,25 C2.17391304,12.3935003 12.3935003,2.17391304 25,2.17391304 C37.6064997,2.17391304 47.826087,12.3935003 47.826087,25 C47.826087,29.25036 46.6636091,33.3271984 44.4979672,36.8750638 C44.1851984,37.3874574 44.3470265,38.0563836 44.8594201,38.3691523 C45.3718138,38.681921 46.04074,38.520093 46.3535086,38.0076994 C48.7259131,34.1211052 50,29.6528513 50,25 L50,25 Z" id="Shape"></path>
                <g id="下降" transform="translate(14.000000, 10.000000)" fill-rule="nonzero">
                    <path d="M9.91706436,32 C10.0497211,32 10.1824144,31.8893635 10.3150711,31.8893635 L19.8673433,21.5991012 C20,21.4884648 20,21.3777977 20,21.3777977 C20,21.2671612 20,21.1564942 19.8673433,21.1564942 C19.7346866,21.0458577 19.4693365,20.9351907 19.3366798,21.0458577 L16.2852458,22.1523142 L10.0497577,28.6805388 C9.91710102,28.7911753 9.78440766,28.7911753 9.6517143,28.6805388 L3.15087614,21.5990707 L0.630142229,21.0458271 C0.364792169,20.9351907 0.232098806,21.0458271 0.0994787739,21.1564636 C-0.0331412578,21.2671001 -0.0331779235,21.4884036 0.0994787739,21.7097071 L9.65175096,31.9999694 C9.51909426,31.8893329 9.65175096,31.9999694 9.91710102,31.9999694 L9.91706436,32 Z M9.80168324,26 C9.93106518,26 10.0604829,25.8874576 10.1898648,25.8874576 L19.50633,15.4199259 C19.635712,15.3073835 19.635712,15.19481 19.635712,15.19481 C19.635712,15.0822676 19.635712,14.9696941 19.50633,14.9696941 C19.3769481,14.8571517 19.1181484,14.7445782 18.9887665,14.8571517 L12.7777897,16.995675 C12.5189901,8.77924017 13.8129525,4.95239428 23,0 C15.1068792,1.35063319 7.86073958,4.05193068 6.82557678,16.995675 L0.614599975,14.8571517 C0.355800334,14.7446093 0.226382634,14.8571517 0.0970364548,14.9696941 C-0.0323454849,15.0822365 -0.0323454849,15.3073524 0.0970364548,15.5324683 L9.41350166,26 L9.801719,26 L9.80168324,26 Z" id="Shape"></path>
                </g>
            </g>
        </g>
    </g>
</svg>