<?xml version="1.0" encoding="UTF-8"?>
<svg width="38px" height="53px" viewBox="0 0 38 53" version="1.1" xmlns="http://www.w3.org/2000/svg" xmlns:xlink="http://www.w3.org/1999/xlink">
    <!-- Generator: Sketch 46.2 (44496) - http://www.bohemiancoding.com/sketch -->
    <title>基因1</title>
    <desc>Created with Sketch.</desc>
    <defs></defs>
    <g id="蜘蛛差旅" stroke="none" stroke-width="1" fill="none" fill-rule="evenodd">
        <g id="关于我们-公司简介" transform="translate(-471.000000, -1259.000000)" fill-rule="nonzero" fill="#0ABBB9">
            <g id="Group" transform="translate(471.000000, 1259.000000)">
                <g id="基因1">
                    <path d="M5.01537303,0.16431792 C3.78012168,-0.0634481017 1.10958246,0.011971115 1.10958246,0.011971115 C1.10958246,0.011971115 -1.38173621,14.2611739 17.3932716,28.0327218 C34.7883316,41.367341 33.2296709,51.1155254 33.1489455,53 L36.9861956,52.9844134 C36.9861956,52.9844134 38.0990895,38.8136465 20.3400035,25.6198098 C9.72943328,18.3026381 4.10454649,8.40462088 5.01537303,0.16431792 Z" id="Shape"></path>
                    <path d="M16.3768581,31.5292155 C15.9647845,29.9950541 13.3620288,28.4394602 13.3620288,28.4394602 C13.3620288,28.4394602 -1.06608276,40.7296987 0.0629687925,53 L3.60660078,52.8993175 C3.60660078,52.8993175 4.26169219,38.0989954 16.3768581,31.5292155 L16.3768581,31.5292155 Z M34.1725018,1 C34.1725018,1 33.8026921,15.0023388 21.1416167,23.152634 C21.743375,23.8010889 24.1393391,25.4982363 24.1393391,25.4982363 C24.1393391,25.4982363 38.0416669,15.973775 37.9999061,1.30703161 C36.0255753,1.25170612 34.1725018,0.999999938 34.1725018,1 Z" id="Shape"></path>
                    <path d="M14.1713719,17.7391286 L24.1834736,17.7391286 L26.7889824,15.2501103 L12.4874687,15.2501103 L14.1713719,17.7391286 Z M30.1999657,8.69473968 L8.13552462,8.81901445 L9.74994749,11.2048897 L27.9056291,11.2048897 L30.1999657,8.69473968 Z M32,4.57505469 L31.4590468,2 L7.46950693,2 L6.87693978,4.57505469 L32,4.57505469 Z M24.1005936,35.5028802 L13.8537479,35.5028802 L12.2661246,37.8273727 L25.548264,37.8273727 L24.1005936,35.5028802 Z M7.89135125,43.8529402 L29.6332055,43.8333179 L28.4431083,41.5354917 L9.03082704,41.5354917 L7.89135125,43.8529402 Z M6,48.1336291 L6.27841722,50.9904404 L30.9662334,51 L30.6138693,48.1336291 L6,48.1336291 Z" id="Shape"></path>
                </g>
            </g>
        </g>
    </g>
</svg>