<?xml version="1.0" encoding="UTF-8"?>
<svg width="53px" height="64px" viewBox="0 0 53 64" version="1.1" xmlns="http://www.w3.org/2000/svg" xmlns:xlink="http://www.w3.org/1999/xlink">
    <!-- Generator: Sketch 46.2 (44496) - http://www.bohemiancoding.com/sketch -->
    <title>创新</title>
    <desc>Created with Sketch.</desc>
    <defs>
        <rect id="path-1" x="680" y="1205" width="280" height="400"></rect>
        <filter x="-1.6%" y="-1.1%" width="103.2%" height="102.2%" filterUnits="objectBoundingBox" id="filter-2">
            <feOffset dx="0" dy="0" in="SourceAlpha" result="shadowOffsetOuter1"></feOffset>
            <feGaussianBlur stdDeviation="1.5" in="shadowOffsetOuter1" result="shadowBlurOuter1"></feGaussianBlur>
            <feColorMatrix values="0 0 0 0 0.530028929   0 0 0 0 0.89886267   0 0 0 0 0.894695057  0 0 0 1 0" type="matrix" in="shadowBlurOuter1"></feColorMatrix>
        </filter>
    </defs>
    <g id="蜘蛛差旅" stroke="none" stroke-width="1" fill="none" fill-rule="evenodd">
        <g id="关于我们-公司简介" transform="translate(-794.000000, -1248.000000)">
            <rect id="Rectangle-3-Copy" fill="#FFFFFF" x="320" y="428" width="1000" height="1400"></rect>
            <g id="Rectangle-Copy">
                <use fill="black" fill-opacity="1" filter="url(#filter-2)" xlink:href="#path-1"></use>
                <use fill="#FFFFFF" fill-rule="evenodd" xlink:href="#path-1"></use>
            </g>
            <g id="创新服务" transform="translate(794.000000, 1248.000000)" fill-rule="nonzero" fill="#0ABBB9">
                <path d="M47.0345556,27.63719 C47.0698889,27.1557465 47.1111112,26.6728483 47.1111112,26.1812231 C47.1111112,25.689598 47.0698889,25.2096089 47.0360278,24.7267108 L53,24.7267108 L53,27.6371901 L47.0345556,27.63719 L47.0345556,27.63719 Z M39.9840834,10.804118 L44.1961111,6.64275809 L46.2793056,8.69943865 L42.0643333,12.8637077 C41.4209722,12.1262698 40.7275556,11.43974 39.9840834,10.804118 L39.9840834,10.804118 Z M35.3333334,41.2412445 L35.3333334,56.727438 C35.3333334,60.7433467 32.0385,64 27.9722223,64 L25.0277778,64 C20.9615,64 17.6666667,60.7418922 17.6666667,56.727438 L17.6666666,41.2528806 C12.3931666,38.2391309 8.83333329,32.6276221 8.83333329,26.1754051 C8.83333329,16.5392604 16.7406389,8.72707434 26.4911667,8.72707434 C36.2446389,8.72707434 44.1504722,16.5392604 44.1504722,26.1739505 C44.1504722,32.6203495 40.598,38.2231313 35.3333334,41.2412445 L35.3333334,41.2412445 Z M26.5,61.0895207 C29.7521389,61.0895207 32.3903611,58.4859435 32.3903611,55.2729256 L20.6111112,55.2729256 C20.6096389,58.4859435 23.2478611,61.0895207 26.5,61.0895207 L26.5,61.0895207 Z M32.3903611,52.3624463 L32.3903611,49.4534215 L20.6111112,49.4534215 L20.6111112,52.3624463 L32.3903611,52.3624463 L32.3903611,52.3624463 Z M26.4970556,12.2266312 C18.6972222,12.2266312 12.3740278,18.4737619 12.3740278,26.1797686 C12.3740278,31.8072771 15.75425,36.6449853 20.6096389,38.8529351 L20.6096389,39.542374 L20.6096389,46.5473057 L32.3888889,46.5473057 L32.3888889,39.542374 L32.3888889,38.8500261 C37.2428056,36.6435308 40.6171389,31.8043681 40.6171389,26.1797686 C40.6186111,18.473762 34.2968889,12.2266312 26.4970556,12.2266312 L26.4970556,12.2266312 Z M25.0277778,5.89368419 L25.0277778,0 L27.9722223,0 L27.9722223,5.89368426 C27.4834445,5.8602305 26.9976112,5.81950413 26.5000001,5.81950413 C26.0023889,5.81950407 25.5165556,5.8587759 25.0277778,5.89368419 L25.0277778,5.89368419 Z M6.72069444,8.69798411 L8.80388887,6.64130356 L13.0188611,10.8055726 C12.2753889,11.4411945 11.5790278,12.1291788 10.9356667,12.8622531 L6.72069444,8.69798411 L6.72069444,8.69798411 Z M0,27.63719 L0,24.7267108 L5.96544447,24.7267108 C5.93011108,25.2096089 5.88888884,25.689598 5.88888884,26.1812231 C5.88888884,26.6728483 5.93011108,27.1557465 5.96397216,27.63719 L0,27.63719 L0,27.63719 Z" id="Shape"></path>
            </g>
        </g>
    </g>
</svg>