<?xml version="1.0" encoding="UTF-8"?>
<svg width="57px" height="54px" viewBox="0 0 57 54" version="1.1" xmlns="http://www.w3.org/2000/svg" xmlns:xlink="http://www.w3.org/1999/xlink">
    <!-- Generator: Sketch 46.2 (44496) - http://www.bohemiancoding.com/sketch -->
    <title>技术</title>
    <desc>Created with Sketch.</desc>
    <defs>
        <rect id="path-1" x="1010" y="1205" width="280" height="400"></rect>
        <filter x="-1.6%" y="-1.1%" width="103.2%" height="102.2%" filterUnits="objectBoundingBox" id="filter-2">
            <feOffset dx="0" dy="0" in="SourceAlpha" result="shadowOffsetOuter1"></feOffset>
            <feGaussianBlur stdDeviation="1.5" in="shadowOffsetOuter1" result="shadowBlurOuter1"></feGaussianBlur>
            <feColorMatrix values="0 0 0 0 0.530028929   0 0 0 0 0.89886267   0 0 0 0 0.894695057  0 0 0 1 0" type="matrix" in="shadowBlurOuter1"></feColorMatrix>
        </filter>
    </defs>
    <g id="蜘蛛差旅" stroke="none" stroke-width="1" fill="none" fill-rule="evenodd">
        <g id="关于我们-公司简介" transform="translate(-1122.000000, -1258.000000)">
            <rect id="Rectangle-3-Copy" fill="#FFFFFF" x="320" y="428" width="1000" height="1400"></rect>
            <g id="Rectangle-Copy-2">
                <use fill="black" fill-opacity="1" filter="url(#filter-2)" xlink:href="#path-1"></use>
                <use fill="#FFFFFF" fill-rule="evenodd" xlink:href="#path-1"></use>
            </g>
            <g id="齿轮" transform="translate(1122.000000, 1258.000000)" fill-rule="nonzero" fill="#0ABBB9">
                <path d="M37.0434483,54 L37.0427931,54 C36.0063103,54 34.9986552,53.5697905 34.3477414,52.8493786 C33.4606379,51.8736017 30.650931,49.3367132 28.3506207,49.3367132 C26.0663621,49.3367132 23.2130862,51.8883912 22.3934655,52.7820043 C21.7441897,53.4899273 20.7434138,53.9129064 19.716431,53.9129064 C19.2276724,53.9129064 18.7657759,53.8185824 18.3445,53.6328923 L18.2711207,53.6003554 L11.2794483,49.6778572 L11.2103276,49.6292162 C9.93732759,48.7349458 9.45348276,46.9868295 10.0837586,45.5624384 C10.0886724,45.5512641 10.7284483,44.0700157 10.7284483,42.7189147 C10.7284483,38.6192714 7.40443103,35.2840797 3.31713793,35.2840797 L3.06981034,35.2840797 L3.02427586,35.284737 C1.85413793,35.284737 0.900862069,34.2412572 0.596206897,32.6262462 C0.572293103,32.4983993 0,29.4359914 0,27.0230059 C0,24.6100203 0.572293103,21.5476124 0.596206897,21.4181223 C0.904465517,19.7830633 1.87837931,18.7326817 3.06981034,18.7616033 L3.31713793,18.7616033 C7.40410345,18.7616033 10.7284483,15.4257544 10.7284483,11.3257824 C10.7284483,9.97566735 10.0893276,8.49376164 10.0824483,8.47962947 C9.4525,7.05589571 9.93994828,5.3084367 11.2178621,4.41712415 L11.2902586,4.36683992 L18.6688103,0.300390734 L18.7454655,0.267853882 C19.1608448,0.0900514893 19.6161897,0 20.098069,0 C21.1227586,0 22.1248448,0.413448079 22.7803448,1.10658162 C23.6536897,2.02385792 26.4142586,4.40956508 28.6490517,4.40956508 C30.8612414,4.40956508 33.6047759,2.0708556 34.4758276,1.1696834 C35.127069,0.491010675 36.1232586,0.0844643531 37.1374655,0.0844643531 C37.6295,0.0844643531 38.0930345,0.177802393 38.5149655,0.362177888 L38.5896552,0.39471474 L45.7162931,4.36716858 L45.7867241,4.41613818 C47.0616897,5.30909401 47.5465172,7.05721033 46.916569,8.48291602 C46.911,8.49343298 46.2715517,9.97566735 46.2715517,11.326111 C46.2715517,15.426083 49.595569,18.761932 53.6822069,18.761932 L53.9301897,18.761932 C55.1196552,18.7346536 56.0945517,19.7830633 56.4031379,21.4184509 C56.4273793,21.5476124 57,24.6100203 57,27.0230059 C57,29.4353341 56.4273793,32.4983993 56.4031379,32.6269035 C56.0948793,34.2626197 55.1196552,35.3087288 53.9301897,35.284737 L53.6822069,35.284737 C49.595569,35.284737 46.2715517,38.6199287 46.2715517,42.719572 C46.2715517,44.0703444 46.911,45.5512641 46.9175517,45.5663822 C47.5465172,46.9881441 47.0610345,48.736589 45.7847586,49.6288876 L45.7130172,49.6785145 L38.4664828,53.69698 L38.3911379,53.7295169 C37.9764138,53.9092912 37.5227069,54 37.0434483,54 Z M36.8233103,50.5744282 C36.8563966,50.5961194 36.9474655,50.6322715 37.0434483,50.6322715 L37.0542586,50.6319428 L43.8254655,46.877716 C43.662,46.4964761 42.9141207,44.6484486 42.9141207,42.7202293 C42.9141207,36.9533188 47.4416897,32.2269302 53.1177759,31.931798 C53.1990172,31.47924 53.642569,28.9334778 53.642569,27.0230059 C53.642569,25.1128626 53.1990172,22.5680864 53.1177759,22.1142137 C47.4416897,21.8187528 42.9141207,17.0926929 42.9141207,11.3257824 C42.9141207,9.39493384 43.6636379,7.54427714 43.8261207,7.16632381 L37.1653103,3.45350748 C37.1581034,3.45317882 37.1479483,3.45252151 37.1374655,3.45252151 C37.0241207,3.45252151 36.9179828,3.4936034 36.8832586,3.51759522 C36.7708966,3.63295315 35.8055,4.6149745 34.4191552,5.59403795 C32.3658448,7.04340681 30.4248966,7.7779509 28.6493793,7.7779509 C26.8558448,7.7779509 24.8985172,7.02861734 22.8327586,5.55065548 C21.4382241,4.55285869 20.4672586,3.552104 20.3558793,3.43477414 C20.3201724,3.41045367 20.2130517,3.36805716 20.0983966,3.36805716 L20.0741552,3.36871447 L13.1751897,7.17026767 C13.3402931,7.55610872 14.0855517,9.40084963 14.0855517,11.3257824 C14.0855517,17.0926929 9.55863793,21.8187528 3.88222414,22.1145424 C3.80032759,22.5674291 3.35677586,25.1128626 3.35677586,27.0233345 C3.35677586,28.9331491 3.80032759,31.4775967 3.88222414,31.9321266 C9.55863793,32.2272589 14.0855517,36.9529902 14.0855517,42.7199007 C14.0855517,44.6550217 13.3330862,46.5092936 13.172569,46.8823171 L19.7023448,50.5455066 C19.7833404,50.5479481 19.8635182,50.5286608 19.9346034,50.4896352 C20.0567931,50.3581732 21.0323448,49.322581 22.4373621,48.2899468 C24.5309655,46.7501978 26.5207241,45.969642 28.3509483,45.969642 C30.1988621,45.969642 32.2040172,46.7649873 34.3097414,48.3336579 C35.7226207,49.3863401 36.702431,50.4416516 36.8233103,50.5744282 Z" id="Shape"></path>
                <path d="M27.4996847,36 C22.2615673,36 18,31.7380466 18,26.4998423 C18,21.261638 22.2615673,17 27.4996847,17 C32.738748,17 37,21.261638 37,26.4998423 C37,31.7380466 32.738748,36 27.4996847,36 Z M27.4996847,20.2308356 C24.043448,20.2308356 21.2310973,23.0432329 21.2310973,26.499527 C21.2310973,29.9561364 24.0431326,32.7682184 27.4996847,32.7682184 C30.9568674,32.7682184 33.769218,29.9561364 33.769218,26.499527 C33.769218,23.0432329 30.9568674,20.2308356 27.4996847,20.2308356 L27.4996847,20.2308356 Z" id="Shape"></path>
            </g>
        </g>
    </g>
</svg>