<?xml version="1.0" encoding="UTF-8"?>
<svg width="14px" height="15px" viewBox="0 0 14 15" version="1.1" xmlns="http://www.w3.org/2000/svg" xmlns:xlink="http://www.w3.org/1999/xlink">
    <!-- Generator: Sketch 46.2 (44496) - http://www.bohemiancoding.com/sketch -->
    <title>电话</title>
    <desc>Created with Sketch.</desc>
    <defs></defs>
    <g id="蜘蛛差旅" stroke="none" stroke-width="1" fill="none" fill-rule="evenodd" opacity="0.900000036">
        <g id="差旅首页2" transform="translate(-1071.000000, -28.000000)" fill-rule="nonzero" fill="#FFFFFF">
            <g id="首屏" transform="translate(0.000000, -10.000000)">
                <g id="top" transform="translate(0.000000, 10.000000)">
                    <g id="Group-7" transform="translate(1071.000000, 27.000000)">
                        <g id="Group-9">
                            <g id="电话-(1)" transform="translate(0.000000, 1.000000)">
                                <path d="M8.49264942,0.278525391 C8.45565139,0.27087404 8.41806855,0.266297466 8.38029573,0.26484375 C8.04414002,0.252143555 7.74995739,0.479003906 7.6822335,0.804873047 C7.64492079,0.981708984 7.67966584,1.1624707 7.78072479,1.3138916 C7.88142754,1.46513672 8.03575431,1.56848145 8.21510464,1.6045752 C9.65887182,1.89871582 10.9018717,2.73162598 11.7148108,3.94987793 C12.5274827,5.16862793 12.8107861,6.62441895 12.5136797,8.04928711 C12.4763669,8.22670898 12.5110972,8.4070752 12.6121561,8.55815918 C12.7128885,8.70938965 12.8672895,8.81257324 13.0466398,8.84915039 C13.0837824,8.85643231 13.1214209,8.86098581 13.1592458,8.86277344 C13.3030942,8.86817871 13.4422228,8.82956543 13.5625466,8.7515625 C13.7157157,8.65198242 13.820411,8.49950684 13.8573971,8.32265625 C14.624712,4.64532715 12.2183987,1.03640625 8.49266426,0.278525391 L8.49264942,0.278525391 Z M9.67374347,10.449082 C9.71429173,10.4752295 10.6196517,11.048877 11.3152205,11.7540088 C11.5771812,12.0207568 12.0158949,12.4670215 12.004333,12.9847412 C11.9945373,13.3384131 11.7923304,13.6930811 11.3858683,14.0675098 C11.2848242,14.1654346 10.379479,15 8.93105144,15 C8.53429598,15 8.12676525,14.937832 7.71956104,14.815459 C7.29171166,14.6874902 6.85658971,14.4897363 6.4275975,14.2287451 C4.73393612,13.2414697 3.4267744,11.9703076 2.18560007,10.1057959 C0.0521415164,6.90134766 -0.00911128143,4.1568457 0.000714100739,3.63960938 C0.00426133086,1.2525293 2.01864278,0.313549805 2.24826285,0.214160156 C2.56423349,0.0695361328 2.84032376,0 3.09461118,0 C3.21635983,0 3.33303254,0.0162304688 3.44090395,0.0487939453 C3.66304367,0.1153125 3.97135585,0.287636719 4.17854971,0.730649414 C4.46117045,1.33177734 4.72853364,2.19348633 4.91111952,3.09563965 C5.10315973,4.03189453 4.571283,4.29470215 4.05686042,4.5487207 L4.03651209,4.55750977 C4.03651209,4.55750977 3.12643235,4.93224609 2.96639142,4.99728516 C2.80914078,5.06200195 2.72719828,5.236875 2.78089652,5.39671875 C3.147879,6.4940918 3.70834136,7.63204102 4.40100111,8.68749023 C5.08245519,9.7261377 5.8929008,10.684541 6.74423602,11.4604688 C6.80514746,11.515166 6.88334978,11.5459277 6.96604922,11.5459277 L6.99387791,11.5444629 C7.08337497,11.5373291 7.16782576,11.4926074 7.22400261,11.4215039 C7.36234458,11.2458984 7.57461439,10.9929492 7.79856484,10.7824658 C8.22314899,10.3840283 8.60718488,10.1905225 8.9723418,10.1905225 C9.07233213,10.1905225 9.17162489,10.2050391 9.26729621,10.2338525 C9.35887114,10.2615674 9.5070385,10.3402148 9.67374347,10.4490674 L9.67374347,10.449082 Z M6.79284347,5.8298584 C6.61310725,5.79303223 6.45876563,5.6901123 6.3580332,5.53902832 C6.25657351,5.3877832 6.22182847,5.20683105 6.25879981,5.02951172 C6.32763685,4.70396484 6.62107738,4.47685547 6.95689173,4.49015625 C6.99420443,4.49119629 7.03193271,4.49563477 7.06958678,4.50333984 C8.66187753,4.82731934 9.69036648,6.37023926 9.36252227,7.94241211 C9.32586261,8.11866211 9.22156811,8.27081543 9.06833964,8.37112793 C8.94767445,8.44888184 8.8078928,8.48734863 8.66511308,8.48233887 C8.62814174,8.48039063 8.59047283,8.47620117 8.55275939,8.46839355 C8.37275601,8.43240234 8.21799882,8.3287207 8.11729608,8.17731445 C8.01663786,8.02655273 7.98183344,7.84620117 8.01880478,7.66886719 C8.10355242,7.26194824 8.0231238,6.84643066 7.79053533,6.49858887 C7.55865928,6.1513916 7.20470805,5.91361816 6.79285831,5.8298584 L6.79284347,5.8298584 Z M7.50580704,3.70883789 C7.13547027,3.63304688 6.89639587,3.27461426 6.97243127,2.90937012 C7.04058558,2.58309082 7.33401127,2.35580566 7.67025603,2.36869629 C7.707168,2.37035156 7.74523765,2.37461426 7.78286203,2.38248047 C9.07156035,2.64477539 10.1801959,3.38772949 10.9062056,4.4756543 C11.6311169,5.56286133 11.8843209,6.86197266 11.6184716,8.13386719 C11.5815151,8.31120117 11.4767902,8.46392578 11.3235468,8.56277344 C11.2029559,8.64125977 11.0641686,8.67972656 10.9207359,8.67413086 C10.8827148,8.67254599 10.8448895,8.66788683 10.8076401,8.6602002 C10.4381493,8.58531738 10.1986445,8.22663574 10.2747689,7.86073242 C10.4664084,6.94300781 10.2838225,6.00476074 9.75993078,5.21941406 C9.23603902,4.43438965 8.43614605,3.89790527 7.50580704,3.70883789 L7.50580704,3.70883789 Z" id="Shape"></path>
                            </g>
                        </g>
                    </g>
                </g>
            </g>
        </g>
    </g>
</svg>