<?xml version="1.0" encoding="UTF-8"?>
<svg width="50px" height="140px" viewBox="0 0 50 140" version="1.1" xmlns="http://www.w3.org/2000/svg" xmlns:xlink="http://www.w3.org/1999/xlink" style="background: #FFFFFF;">
    <!-- Generator: Sketch 48.2 (47327) - http://www.bohemiancoding.com/sketch -->
    <title>右浮栏 copy 6</title>
    <desc>Created with Sketch.</desc>
    <defs>
        <rect id="path-1" x="0" y="49" width="50" height="50"></rect>
        <rect id="path-2" x="0" y="0" width="50" height="50"></rect>
        <rect id="path-3" x="0" y="98" width="50" height="42"></rect>
    </defs>
    <g id="Symbols" stroke="none" stroke-width="1" fill="none" fill-rule="evenodd">
        <g id="右浮栏-copy-6">
            <g id="Group">
                <g id="Rectangle-15">
                    <use fill="#FFFFFF" fill-rule="evenodd" xlink:href="#path-1"></use>
                    <rect stroke="#F1F1F1" stroke-width="0.833333333" x="0.416666667" y="49.4166667" width="49.1666667" height="49.1666667"></rect>
                </g>
                <g id="Rectangle-15">
                    <use fill="#FFFFFF" fill-rule="evenodd" xlink:href="#path-2"></use>
                    <rect stroke="#F1F1F1" stroke-width="0.833333333" x="0.416666667" y="0.416666667" width="49.1666667" height="49.1666667"></rect>
                </g>
                <g id="Rectangle-15">
                    <use fill="#FFFFFF" fill-rule="evenodd" xlink:href="#path-3"></use>
                    <rect stroke="#F1F1F1" stroke-width="0.833333333" x="0.416666667" y="98.4166667" width="49.1666667" height="41.1666667"></rect>
                </g>
                <g id="top" transform="translate(13.000000, 110.000000)" fill="#0ABBB9">
                    <g id="Group-2">
                        <g id="top">
                            <polyline id="Fill-1" points="0.0212765957 11.2123034 2.89039007 11.2123034 2.89039007 18.359794 4.65333333 18.359794 4.65333333 11.2123034 7.48159574 11.2123034 7.48159574 9.72510877 0.0212765957 9.72510877 0.0212765957 11.2123034"></polyline>
                            <path d="M12.5241844,9.60091678 C9.81826241,9.73904686 8.3970922,11.2399652 8.26070922,14.1041006 C8.39734043,16.8867876 9.80397163,18.359794 12.4829078,18.5244779 C15.1885816,18.3865622 16.609539,16.9135558 16.7461702,14.1041006 C16.5548227,11.267627 15.1470567,9.76627976 12.5241844,9.60091678 L12.5241844,9.60091678 Z M12.4420567,17.0370688 C10.9666312,16.9547268 10.200922,15.9775949 10.1466667,14.1041006 C10.228156,12.2317142 10.9929787,11.2401796 12.4420567,11.1299615 C13.9444681,11.2123034 14.7237943,12.2033734 14.7787234,14.1041006 C14.7235816,16.0045777 13.9444681,16.9828532 12.4420567,17.0370688 L12.4420567,17.0370688 Z" id="Fill-2"></path>
                            <path d="M21.7882979,9.72510877 L18.222234,9.72510877 L18.222234,18.3600441 L19.9845035,18.3600441 L19.9845035,15.3023836 L21.6246809,15.3023836 C23.8653546,15.3023836 24.9860284,14.3524846 24.9860284,12.451543 C24.9034397,10.6894105 23.8379078,9.78068245 21.7882979,9.72510877 L21.7882979,9.72510877 Z M21.4603546,13.8973165 L19.9845035,13.8973165 L19.9845035,11.1299615 L21.4603546,11.1299615 C22.5258865,11.1576232 23.0726241,11.6118621 23.0998582,12.4929284 C23.0996454,13.402121 22.5529078,13.8705482 21.4603546,13.8973165 L21.4603546,13.8973165 Z" id="Fill-3"></path>
                            <polyline id="Fill-4" points="7.67539007 4.88315775 17.3319149 4.88315775 12.5037589 0.0167614519 7.67539007 4.88315775"></polyline>
                        </g>
                    </g>
                </g>
                <g id="微信" transform="translate(11.000000, 62.000000)" fill="#0ABBB9" fill-rule="nonzero">
                    <path d="M19.1045942,6.94212963 C19.4293054,6.94212963 19.7495423,6.96610049 20.0666667,7.00086313 C19.2026398,2.98468211 14.8998839,0 9.98891453,0 C4.49806898,0 0,3.73569259 0,8.47888054 C0,11.2163325 1.49678414,13.4646876 3.99710912,15.2085427 L2.9982047,18.2083333 L6.48974997,16.4602269 C7.73989625,16.7067048 8.74181596,16.9608678 9.98891453,16.9608678 C10.302213,16.9608678 10.6124314,16.945465 10.9211583,16.9207747 C10.7258128,16.2547577 10.6124314,15.5563327 10.6124314,14.8323344 C10.6124638,10.4769968 14.3598225,6.94219504 19.1045942,6.94219504 L19.1045942,6.94212963 Z M13.660495,4.3125 C14.4263702,4.3125 14.9333333,4.78778143 14.9333333,5.50893927 C14.9333333,6.22707945 14.4263702,6.70833333 13.660495,6.70833333 C12.89769,6.70833333 12.1333333,6.22707945 12.1333333,5.50893927 C12.1333333,4.78778143 12.89769,4.3125 13.660495,4.3125 Z M6.66431629,6.70833333 C5.90194267,6.70833333 5.13333333,6.22707945 5.13333333,5.50893927 C5.13333333,4.78778143 5.90194267,4.3125 6.66431629,4.3125 C7.42586509,4.3125 7.93333333,4.78778143 7.93333333,5.50893927 C7.93333333,6.22711089 7.42586509,6.70833333 6.66431629,6.70833333 Z M27.9999358,14.8391259 C27.9999358,10.8875414 24.0458964,7.66666667 19.6052771,7.66666667 C14.9031466,7.66666667 11.2,10.8875414 11.2,14.8391259 C11.2,18.7964488 14.9031466,22.010418 19.6052771,22.010418 C20.5890231,22.010418 21.5819118,21.7637358 22.5702452,21.5155946 L25.2814014,23 L24.5378336,20.5305514 C26.5221353,19.0415424 28,17.0680196 28,14.8391259 L27.9999358,14.8391259 Z M16.9030048,13.4166667 C16.3872744,13.4166667 15.8666667,12.942144 15.8666667,12.4579404 C15.8666667,11.9804632 16.3872072,11.5 16.9030048,11.5 C17.6866243,11.5 18.2,11.9804632 18.2,12.4579404 C18.2,12.942144 17.6865906,13.4166667 16.9030048,13.4166667 Z M22.4989911,13.4166667 C21.9856801,13.4166667 21.4666667,12.942144 21.4666667,12.4579404 C21.4666667,11.9804632 21.9856463,11.5 22.4989911,11.5 C23.2786584,11.5 23.8,11.9804632 23.8,12.4579404 C23.8,12.942144 23.2786584,13.4166667 22.4989911,13.4166667 Z" id="Shape"></path>
                </g>
                <g id="电话-(1)" transform="translate(11.000000, 11.000000)" fill="#0ABBB9" fill-rule="nonzero">
                    <path d="M17.0415844,0.0273019551 C16.9679665,0.0125797765 16.8931849,0.00377386255 16.8180253,0.000976726223 C16.1491494,-0.0234600761 15.5637908,0.413048296 15.4290351,1.04006226 C15.354791,1.38031725 15.423926,1.72812595 15.6250111,2.01947915 C15.8253874,2.31049413 16.1324637,2.50934262 16.4893314,2.57879161 C19.3621103,3.14475585 21.8354066,4.74738166 23.4529764,7.09145445 C25.0700146,9.43648554 25.6337262,12.2376139 25.0425496,14.9792427 C24.9683056,15.3206252 25.037411,15.6676728 25.2384961,15.9583778 C25.4389315,16.2493646 25.7461554,16.447903 26.1030231,16.5182821 C26.1769286,16.5322935 26.251821,16.541055 26.3270843,16.5444946 C26.6133108,16.5548951 26.8901461,16.4805982 27.129564,16.3305105 C27.4343368,16.1389057 27.6426573,15.8455232 27.7162517,15.50524 C29.2430394,8.42958782 24.4550056,1.48556179 17.041614,0.0273019551 L17.0415844,0.0273019551 Z M19.1789746,19.5049531 C19.2593648,19.5537617 21.0543138,20.6245703 22.4333349,21.9408164 C22.9526931,22.4387461 23.8224783,23.2717734 23.7995559,24.2381836 C23.7801351,24.8983711 23.3792436,25.560418 22.5733997,26.2593516 C22.3730717,26.4421445 20.5781521,28 17.7065279,28 C16.9199283,28 16.1119659,27.8839531 15.3046508,27.6555234 C14.4564049,27.4166484 13.5937407,27.0475078 12.7432291,26.5603242 C9.38540917,24.7174102 6.79385591,22.3445742 4.33312795,18.8641523 C0.103374751,12.8825156 -0.0180638484,7.75944531 0.00141576216,6.7939375 C0.00844843122,2.33805469 4.00212169,0.585292969 4.45736196,0.399765625 C5.08379916,0.129800781 5.63117033,0 6.1353156,0 C6.3766921,0 6.60800512,0.030296875 6.82186888,0.0910820313 C7.26227875,0.21525 7.87353245,0.536921875 8.28431094,1.36387891 C8.84462928,2.48598438 9.37469832,4.09450781 9.73668951,5.77852734 C10.1174247,7.52620313 9.06293628,8.01677734 8.04305214,8.49094531 L8.00270992,8.50735156 C8.00270992,8.50735156 6.19840364,9.20685938 5.88110962,9.32826563 C5.56934758,9.44907031 5.40688998,9.7755 5.51335105,10.073875 C6.24092334,12.1223047 7.35208505,14.2464766 8.72533874,16.2166484 C10.0763763,18.155457 11.6831499,19.9444766 13.3709904,21.392875 C13.4917523,21.4949766 13.6467947,21.5523984 13.810753,21.5523984 L13.8659256,21.5496641 C14.0433607,21.5363477 14.2107912,21.4528672 14.3221663,21.3201406 C14.5964404,20.9923437 15.0172824,20.5201719 15.4612821,20.1272695 C16.3030544,19.3835195 17.0644364,19.0223086 17.7883894,19.0223086 C17.9866283,19.0223086 18.1834841,19.0494063 18.3731602,19.1031914 C18.5547149,19.1549258 18.8484686,19.3017344 19.1789746,19.5049258 L19.1789746,19.5049531 Z M13.8075988,11.4721391 C13.4118306,11.4017144 13.0719797,11.2048949 12.850173,10.9159686 C12.626765,10.6267341 12.5502585,10.2806893 12.6316671,9.94159163 C12.7832421,9.31903023 13.4293803,8.88471634 14.1688231,8.91015216 C14.2509834,8.91214109 14.3340587,8.92062903 14.4169707,8.93536388 C17.9230981,9.55492789 20.1877681,12.5055395 19.4658751,15.5120931 C19.3851528,15.8491458 19.1555027,16.140117 18.8181029,16.3319502 C18.5524055,16.4806433 18.2446148,16.5542055 17.9302225,16.544625 C17.8488139,16.5408993 17.7658692,16.5328876 17.6828266,16.5179566 C17.2864701,16.4491287 16.9457042,16.2508525 16.7239628,15.9613099 C16.5023196,15.6729999 16.4256824,15.3281035 16.507091,14.9889779 C16.6937001,14.2108042 16.5166012,13.4161868 16.0044556,12.7509896 C15.4938786,12.0870249 14.7144995,11.6323176 13.8076315,11.4721391 L13.8075988,11.4721391 Z M15.126432,6.25324279 C14.364466,6.11558276 13.8725716,5.46455777 14.029014,4.80116095 C14.1692412,4.20853638 14.772963,3.79571593 15.464785,3.81912931 C15.5407312,3.8221358 15.6190593,3.82987818 15.6964712,3.84416566 C18.3479615,4.32057472 20.6289736,5.67001018 22.1227348,7.6460196 C23.6142363,9.62072533 24.1352022,11.9803151 23.5882185,14.2904707 C23.5121807,14.6125643 23.2967097,14.8899596 22.9814124,15.0694977 C22.7332971,15.2120532 22.447743,15.2819209 22.1526308,15.2717573 C22.0744028,15.2688787 21.9965773,15.2604162 21.9199368,15.2464549 C21.1597114,15.1104445 20.6669315,14.4589672 20.8235571,13.7943731 C21.2178544,12.1275001 20.8421849,10.4233519 19.7642802,8.9969184 C18.6863756,7.57107018 17.0405998,6.59664789 15.126432,6.25324279 Z" id="Shape"></path>
                </g>
            </g>
        </g>
    </g>
</svg>