<?xml version="1.0" encoding="UTF-8"?>
<svg width="21px" height="17px" viewBox="0 0 21 17" version="1.1" xmlns="http://www.w3.org/2000/svg" xmlns:xlink="http://www.w3.org/1999/xlink">
    <!-- Generator: Sketch 46.2 (44496) - http://www.bohemiancoding.com/sketch -->
    <title>Shape</title>
    <desc>Created with Sketch.</desc>
    <defs></defs>
    <g id="蜘蛛差旅" stroke="none" stroke-width="1" fill="none" fill-rule="evenodd">
        <g id="差旅首页2" transform="translate(-1219.000000, -27.000000)" fill-rule="nonzero" fill="#FFFFFF">
            <g id="首屏" transform="translate(0.000000, -10.000000)">
                <g id="top" transform="translate(0.000000, 10.000000)">
                    <g id="Group-7" transform="translate(1071.000000, 27.000000)">
                        <g id="微信" transform="translate(148.000000, 0.000000)">
                            <path d="M14.3284456,5.13113929 C14.5719791,5.13113929 14.8121567,5.14885688 15.05,5.17455101 C14.4019798,2.20606938 11.1749129,0 7.49168589,0 C3.37355173,0 0,2.76116409 0,6.26699866 C0,8.29033275 1.12258811,9.95216036 2.99783184,11.2410968 L2.24865352,13.4583333 L4.86731248,12.1662546 C5.80492219,12.348434 6.55636197,12.5362936 7.49168589,12.5362936 C7.72665977,12.5362936 7.95932354,12.5249089 8.19086873,12.5066595 C8.04435962,12.0143861 7.95932354,11.4981589 7.95932354,10.9630298 C7.95934786,7.74386722 10.7698669,5.13118764 14.3284456,5.13118764 L14.3284456,5.13113929 Z M10.2453713,3.1875 C10.8197776,3.1875 11.2,3.53879497 11.2,4.07182468 C11.2,4.60262394 10.8197776,4.95833333 10.2453713,4.95833333 C9.67326747,4.95833333 9.1,4.60262394 9.1,4.07182468 C9.1,3.53879497 9.67326747,3.1875 10.2453713,3.1875 Z M4.99823722,4.95833333 C4.426457,4.95833333 3.85,4.60262394 3.85,4.07182468 C3.85,3.53879497 4.426457,3.1875 4.99823722,3.1875 C5.56939882,3.1875 5.95,3.53879497 5.95,4.07182468 C5.95,4.60264718 5.56939882,4.95833333 4.99823722,4.95833333 Z M20.9999519,10.9680496 C20.9999519,8.04731317 18.0344223,5.66666667 14.7039578,5.66666667 C11.17736,5.66666667 8.4,8.04731317 8.4,10.9680496 C8.4,13.8930273 11.17736,16.2685698 14.7039578,16.2685698 C15.4417673,16.2685698 16.1864339,16.0862395 16.9276839,15.9028308 L18.9610511,17 L18.4033752,15.1747554 C19.8916015,14.0741835 21,12.6154927 21,10.9680496 L20.9999519,10.9680496 Z M12.6772536,9.91666667 C12.2904558,9.91666667 11.9,9.56593253 11.9,9.20804293 C11.9,8.85512499 12.2904054,8.5 12.6772536,8.5 C13.2649682,8.5 13.65,8.85512499 13.65,9.20804293 C13.65,9.56593253 13.264943,9.91666667 12.6772536,9.91666667 Z M16.8742433,9.91666667 C16.48926,9.91666667 16.1,9.56593253 16.1,9.20804293 C16.1,8.85512499 16.4892347,8.5 16.8742433,8.5 C17.4589938,8.5 17.85,8.85512499 17.85,9.20804293 C17.85,9.56593253 17.4589938,9.91666667 16.8742433,9.91666667 Z" id="Shape"></path>
                        </g>
                    </g>
                </g>
            </g>
        </g>
    </g>
</svg>