<?xml version="1.0" encoding="UTF-8"?>
<svg width="863px" height="325px" viewBox="0 0 863 325" version="1.1" xmlns="http://www.w3.org/2000/svg" xmlns:xlink="http://www.w3.org/1999/xlink">
    <!-- Generator: Sketch 48.2 (47327) - http://www.bohemiancoding.com/sketch -->
    <title>企业文化</title>
    <desc>Created with Sketch.</desc>
    <defs></defs>
    <g id="关于我们-企业文化" stroke="none" stroke-width="1" fill="none" fill-rule="evenodd" transform="translate(-387.000000, -659.000000)">
        <g id="Group-2" transform="translate(387.000000, 633.000000)">
            <g id="Group">
                <circle id="Oval-5-Copy-2" stroke="#49CECD" stroke-width="2" cx="431.5" cy="155.5" r="58.5"></circle>
                <circle id="Oval-5-Copy-2" stroke="#49CECD" cx="431.5" cy="155.5" r="107.5"></circle>
                <path d="M332,187 C332.145302,187 402,141.659932 402,89 C402,50.3400675 370.659932,19 332,19 C293.340068,19 262,50.3400675 262,89 C262,141.659932 331.854698,187 332,187 Z" id="Oval-5" fill="#49CECD" transform="translate(332.000000, 103.000000) rotate(-60.000000) translate(-332.000000, -103.000000) "></path>
                <path d="M433,351 C433.145302,351 503,305.659932 503,253 C503,214.340068 471.659932,183 433,183 C394.340068,183 363,214.340068 363,253 C363,305.659932 432.854698,351 433,351 Z" id="Oval-5-Copy" fill="#49CECD" transform="translate(433.000000, 267.000000) rotate(180.000000) translate(-433.000000, -267.000000) "></path>
                <path d="M529,187 C529.145302,187 599,141.659932 599,89 C599,50.3400675 567.659932,19 529,19 C490.340068,19 459,50.3400675 459,89 C459,141.659932 528.854698,187 529,187 Z" id="Oval-5-Copy-3" fill="#49CECD" transform="translate(529.000000, 103.000000) rotate(60.000000) translate(-529.000000, -103.000000) "></path>
                <path d="M317.128,82.496 L317.128,120.752 L313.624,120.752 L313.624,117.776 L288.376,117.776 L288.376,120.752 L284.872,120.752 L284.872,82.496 L295.144,82.496 C296.2,80.576 297.016,78.656 297.496,76.64 L301,77.12 C300.472,79.04 299.704,80.864 298.744,82.496 L317.128,82.496 Z M288.376,114.464 L313.624,114.464 L313.624,106.64 L288.376,106.64 L288.376,114.464 Z M288.376,103.472 L313.624,103.472 L313.624,96.128 L288.376,96.128 L288.376,103.472 Z M288.376,92.96 L313.624,92.96 L313.624,85.808 L288.376,85.808 L288.376,92.96 Z M347.272,88.352 L329.416,88.352 L329.416,84.944 L347.56,84.944 C346.744,82.4 345.736,79.952 344.584,77.6 L347.944,76.688 C349.144,79.424 350.056,81.92 350.728,84.224 L348.856,84.944 L368.632,84.944 L368.632,88.352 L350.776,88.352 L350.776,99.68 L366.328,99.68 L366.328,102.896 L350.776,102.896 L350.776,115.76 L370.312,115.76 L370.312,119.168 L327.736,119.168 L327.736,115.76 L347.272,115.76 L347.272,102.896 L331.72,102.896 L331.72,99.68 L347.272,99.68 L347.272,88.352 Z" id="自主" fill="#FFFFFF"></path>
                <path d="M527.128,82.496 L527.128,120.752 L523.624,120.752 L523.624,117.776 L498.376,117.776 L498.376,120.752 L494.872,120.752 L494.872,82.496 L505.144,82.496 C506.2,80.576 507.016,78.656 507.496,76.64 L511,77.12 C510.472,79.04 509.704,80.864 508.744,82.496 L527.128,82.496 Z M498.376,114.464 L523.624,114.464 L523.624,106.64 L498.376,106.64 L498.376,114.464 Z M498.376,103.472 L523.624,103.472 L523.624,96.128 L498.376,96.128 L498.376,103.472 Z M498.376,92.96 L523.624,92.96 L523.624,85.808 L498.376,85.808 L498.376,92.96 Z M556.408,79.664 L556.408,108.896 C557.512,108.56 558.568,108.224 559.624,107.888 L559.624,111.152 C553.384,113.168 546.136,115.04 537.88,116.768 L536.92,113.408 C538.072,113.168 539.224,112.928 540.376,112.736 L540.376,79.664 L556.408,79.664 Z M543.784,112.016 C547.048,111.296 550.12,110.576 553.048,109.808 L553.048,103.184 L543.784,103.184 L543.784,112.016 Z M543.784,100.064 L553.048,100.064 L553.048,92.816 L543.784,92.816 L543.784,100.064 Z M543.784,89.648 L553.048,89.648 L553.048,82.832 L543.784,82.832 L543.784,89.648 Z M565.144,77.024 L568.6,77.024 L568.6,86.624 L579.208,86.624 C579.208,101.6 578.968,110.816 578.488,114.368 C578.008,118.304 575.608,120.32 571.288,120.32 C570.52,120.32 569.176,120.272 567.256,120.176 L566.44,117.104 C568.12,117.2 569.56,117.296 570.808,117.296 C573.352,117.296 574.84,115.856 575.224,113.072 C575.512,110.576 575.704,102.848 575.8,89.984 L568.6,89.984 L568.6,90.656 C568.456,104.48 565.048,114.608 558.376,120.992 L555.784,118.736 C561.928,112.928 565.048,103.568 565.144,90.656 L565.144,89.984 L559.192,89.984 L559.192,86.624 L565.144,86.624 L565.144,77.024 Z" id="自助" fill="#FFFFFF"></path>
                <path d="M428.68,260.872 L428.68,297.592 L425.32,297.592 L425.32,294.52 L415.912,294.52 L415.912,297.688 L412.6,297.688 L412.6,260.872 L428.68,260.872 Z M415.912,291.304 L425.32,291.304 L425.32,264.088 L415.912,264.088 L415.912,291.304 Z M394.456,265.528 C393.256,268.12 391.912,270.52 390.424,272.728 L387.4,270.808 C390.568,266.2 392.824,261.16 394.264,255.64 L397.672,256.36 C397.096,258.424 396.472,260.392 395.8,262.216 L409.672,262.216 L409.672,265.528 L402.664,265.528 C402.616,268.984 402.424,272.2 402.088,275.08 L410.104,275.08 L410.104,278.392 L401.608,278.392 C401.368,279.64 401.128,280.888 400.84,282.04 C403.912,285.16 407.08,288.712 410.248,292.648 L408.184,295.816 C404.92,291.208 402.184,287.704 399.928,285.208 C397.96,290.584 394.456,295.096 389.368,298.744 L387.112,295.96 C392.2,292.264 395.56,287.608 397.192,281.992 C397.48,280.84 397.768,279.64 398.008,278.392 L387.976,278.392 L387.976,275.08 L398.488,275.08 C398.872,272.2 399.064,268.984 399.112,265.528 L394.456,265.528 Z M442.552,257.656 L472.696,257.656 L472.696,273.976 L459.784,273.976 L459.784,281.944 L475.624,281.944 L475.624,285.304 L459.784,285.304 L459.784,295.336 C462.424,295.672 465.64,295.864 469.384,295.864 C472.984,295.864 476.008,295.768 478.504,295.624 L477.544,299.08 C474.616,299.08 471.976,299.032 469.624,298.984 C461.032,298.936 455.224,298.168 452.152,296.632 C449.464,295.288 447.016,292.552 444.904,288.472 C442.984,293.08 440.632,296.92 437.8,299.992 L435.592,297.256 C440.008,292.264 443.032,285.544 444.616,277.096 L447.976,277.72 C447.448,280.36 446.824,282.856 446.104,285.16 C448.36,289.72 450.904,292.6 453.784,293.848 C454.504,294.136 455.32,294.424 456.28,294.664 L456.28,273.976 L442.552,273.976 L442.552,257.656 Z M469.192,270.712 L469.192,260.968 L446.008,260.968 L446.008,270.712 L469.192,270.712 Z" id="知足" fill="#FFFFFF"></path>
                <circle id="Oval-7" fill="#49CECD" cx="432" cy="156" r="25"></circle>
                <path d="M0.5,62.5 L259.5,62.5" id="Line-3-Copy-3" stroke="#D8D8D8" stroke-linecap="square"></path>
                <path d="M603,63 L863,63" id="Line-3-Copy-5" stroke="#D8D8D8" stroke-linecap="square"></path>
            </g>
        </g>
    </g>
</svg>