<?xml version="1.0" encoding="UTF-8"?>
<svg width="50px" height="54px" viewBox="0 0 50 54" version="1.1" xmlns="http://www.w3.org/2000/svg" xmlns:xlink="http://www.w3.org/1999/xlink">
    <!-- Generator: Sketch 46.2 (44496) - http://www.bohemiancoding.com/sketch -->
    <title>Customer_de</title>
    <desc>Created with Sketch.</desc>
    <defs></defs>
    <g id="蜘蛛差旅" stroke="none" stroke-width="1" fill="none" fill-rule="evenodd">
        <g id="关于我们-联系我们" transform="translate(-625.000000, -627.000000)" fill-rule="nonzero" fill="#0ABBB9">
            <g id="Group-5" transform="translate(520.000000, 593.000000)">
                <g id="Group">
                    <g id="Group-4">
                        <g id="Group-2" transform="translate(105.000000, 34.000000)">
                            <path d="M49.9641852,24.9799243 C49.9641852,11.1925707 38.7873536,0.0157390995 25,0.0157390995 C11.2127677,0.0157390995 0.0359966825,11.1923888 0.0358148104,24.9795605 L0.0358148104,24.9796818 L0.0358148104,29.6610652 C0.0358148104,31.3893493 1.43182755,32.7813004 3.15635314,32.7813004 C4.88457666,32.7813004 6.27689147,31.3855301 6.27689147,29.6610652 L6.27689147,24.9796818 C6.27689147,23.3257207 4.99812245,21.9806914 3.37665498,21.8679944 C4.88718347,11.2781089 13.9926687,3.13627743 25.0000607,3.13627743 C36.0074526,3.13627743 45.1129379,11.2781089 46.6234664,21.8679944 C44.9988465,21.9807521 43.7232299,23.3291762 43.7232299,24.9796818 L43.7232299,29.6610652 C43.7232299,31.3893493 45.1192426,32.7813004 46.8437682,32.7813004 C48.5719917,32.7813004 49.9643065,31.3855301 49.9643065,29.6610652 L49.9643065,24.9801062 C49.9641852,24.9800455 49.9641852,24.9799849 49.9641852,24.9799243 Z" id="Shape"></path>
                            <path d="M32.9476579,40.1943899 C38.4248316,37.3273745 42.1629304,31.5906157 42.1629304,24.9799243 C42.1629304,15.5011262 34.4788586,7.81705456 25.0000607,7.81705456 C15.5212626,7.81705456 7.83713033,15.5011263 7.83713033,24.9799243 C7.83713033,31.6453578 11.6367608,37.4232791 17.1881363,40.265985 C11.6066315,42.0509511 6.74683637,45.6770197 3.42200053,50.6194431 C2.94102239,51.3344237 3.13070989,52.3039578 3.84569052,52.784936 C4.56067115,53.2659142 5.53020527,53.0762267 6.01118347,52.3611854 C10.2757878,46.0217187 17.3993448,42.1427941 25.1827766,42.1427941 C32.9718463,42.1427941 40.0998893,46.0273566 44.3632206,52.3743405 C44.8437138,53.0896849 45.8131267,53.2800393 46.5284104,52.7995461 C47.2436942,52.3190529 47.4341092,51.34964 46.953616,50.6343563 C43.5831921,45.6168216 38.6311297,41.9544402 32.9476579,40.1943899 Z M10.9576079,24.9799243 C10.9576079,17.2245606 17.2445757,10.9375322 25,10.9375322 C32.7553637,10.9375322 39.0423315,17.2245 39.0423315,24.9799243 C39.0423315,32.7353486 32.7553637,39.0223164 25,39.0223164 C17.2445757,39.0223164 10.9576079,32.7352879 10.9576079,24.9799243 Z" id="Shape"></path>
                        </g>
                    </g>
                </g>
            </g>
        </g>
    </g>
</svg>