<?xml version="1.0" encoding="UTF-8"?>
<svg width="56px" height="44px" viewBox="0 0 56 44" version="1.1" xmlns="http://www.w3.org/2000/svg" xmlns:xlink="http://www.w3.org/1999/xlink">
    <!-- Generator: Sketch 46.2 (44496) - http://www.bohemiancoding.com/sketch -->
    <title>邮件</title>
    <desc>Created with Sketch.</desc>
    <defs></defs>
    <g id="蜘蛛差旅" stroke="none" stroke-width="1" fill="none" fill-rule="evenodd">
        <g id="关于我们-联系我们" transform="translate(-962.000000, -631.000000)" fill-rule="nonzero" fill="#0ABBB9">
            <g id="Group-5" transform="translate(520.000000, 593.000000)">
                <g id="Group-3" transform="translate(340.000000, 0.000000)">
                    <g id="Group-6">
                        <g id="邮件-4-copy" transform="translate(102.000000, 38.000000)">
                            <path d="M14.403538,27.3593322 L8.78401983,32.9788504 C8.31277748,33.4500928 8.31277748,34.214192 8.78401983,34.6855591 C9.25526218,35.1566767 10.0193614,35.1566767 10.4906037,34.6855591 L16.1102468,29.0659161 C16.5814891,28.5946737 16.5814891,27.8305746 16.1102468,27.3593322 C15.638942,26.8880899 14.8748428,26.8880899 14.403538,27.3593322 L14.403538,27.3593322 Z M50.6852668,0.0621041243 L4.82957872,0.0621041243 C2.16378259,0.0621041243 0.00280872924,2.22326524 0.00280872924,4.88899895 L0.00280872924,38.67745 C0.00280872924,41.3433709 2.16384501,43.5043448 4.82957872,43.5043448 L50.6853292,43.5043448 C53.3512502,43.5043448 55.5122241,41.3433085 55.5122241,38.67745 L55.5122241,4.88906137 C55.5122241,2.22326524 53.3511878,0.0621041243 50.6852668,0.0621041243 Z M53.0987766,38.67745 C53.0987766,40.0104105 52.0182897,41.0910222 50.6853292,41.0910222 L4.82957872,41.0910222 C3.49674307,41.0910222 2.41613131,40.0104105 2.41613131,38.67745 L2.41613131,4.88906137 C2.41613131,3.55622572 3.49674307,2.47573879 4.82957872,2.47573879 L50.6853292,2.47573879 C52.0182897,2.47573879 53.0987766,3.55622572 53.0987766,4.88906137 L53.0987766,38.67745 L53.0987766,38.67745 Z M45.2741563,8.82877225 L41.728042,12.3748865 C41.6728661,12.4300625 41.6467137,12.4996565 41.6040834,12.5616982 L29.4640691,24.7017126 C28.521522,25.6441973 26.993386,25.6441973 26.0508389,24.7017126 L10.8632285,9.51397735 L10.8632285,9.51784716 L10.462454,9.1170727 C9.99121166,8.64583035 9.2272373,8.64583035 8.75587012,9.1170727 C8.28462777,9.58831505 8.28462777,10.3524142 8.75587012,10.8237814 L12.1691003,14.2368868 C12.172346,14.2401324 12.1769648,14.2410062 12.1802104,14.2442519 L24.344255,26.4082341 C26.2292868,28.2933907 29.2855587,28.2933907 31.1704657,26.4082341 L43.2919425,14.2868822 C43.3621607,14.2407566 43.439432,14.2097981 43.5010992,14.1481309 L47.0473383,10.6018918 C47.536931,10.1122991 47.536931,9.31842738 47.0473383,8.82883467 C46.5576832,8.33917953 45.7638739,8.33917953 45.2741563,8.82877225 L45.2741563,8.82877225 Z M40.789864,26.9594316 C40.297525,26.4670926 39.4990345,26.4670926 39.0066955,26.9594316 C38.5142316,27.4518954 38.5142316,28.2502611 39.0066955,28.742725 L44.9326772,34.6687068 C45.4250163,35.1611706 46.2235068,35.1611706 46.7158458,34.6687068 C47.2083097,34.1762429 47.2083097,33.3780021 46.7158458,32.8855382 L40.789864,26.9594316 Z" id="Shape"></path>
                        </g>
                    </g>
                </g>
            </g>
        </g>
    </g>
</svg>